<svg width="34" height="34" viewBox="0 0 34 34" fill="none" xmlns="http://www.w3.org/2000/svg">
<path d="M15.947 33.6656C15.7829 33.6656 15.6188 33.6564 15.4547 33.6382C11.498 33.1824 7.84673 31.2906 5.1755 28.3049C2.48148 25.2963 1 21.4171 1 17.3738C1 15.163 1.43305 13.0205 2.28547 11.0012C3.10599 9.05015 4.28661 7.29972 5.78633 5.79545C7.28605 4.29117 9.03192 3.11054 10.9784 2.28547C12.9932 1.43305 15.1311 1 17.3373 1C19.5436 1 21.6815 1.43305 23.6963 2.28547C25.6428 3.11054 27.3886 4.29117 28.8883 5.79545C30.3881 7.29972 31.5641 9.05015 32.3892 11.0012C33.2416 13.0205 33.6747 15.163 33.6747 17.3738C33.6747 20.4918 32.9362 22.657 31.4228 23.9881C29.1938 25.9436 25.9801 25.5288 23.1402 25.1596C21.1983 24.9089 19.1926 24.649 18.7049 25.424C18.4952 25.7567 18.9009 26.4587 19.3886 26.951C20.8245 28.3869 20.8245 30.7299 19.3886 32.1658C18.4177 33.1368 17.1915 33.6656 15.947 33.6656ZM17.3373 3.2792C9.58804 3.2792 3.28376 9.60172 3.28376 17.3738C3.28376 24.5396 8.63078 30.5613 15.7191 31.3772C16.4257 31.4593 17.1778 31.163 17.7749 30.5613C18.322 30.0097 18.322 29.1163 17.7749 28.5647C16.3618 27.147 15.9789 25.4787 16.7721 24.216C17.3738 23.2542 18.3812 22.7436 19.8445 22.6479C20.9248 22.5795 22.1419 22.7345 23.4319 22.9032C25.9071 23.2222 28.4644 23.555 29.9185 22.2787C30.8986 21.4171 31.3955 19.767 31.3955 17.3738C31.3909 9.60172 25.0866 3.2792 17.3373 3.2792Z" fill="#A9B0B8" stroke="#051229" stroke-width="0.6"/>
<path d="M25.6933 18.8508C24.4351 18.8508 23.4141 17.8297 23.4141 16.5716C23.4141 15.3134 24.4351 14.2924 25.6933 14.2924C26.9514 14.2924 27.9725 15.3134 27.9725 16.5716C27.9725 17.8297 26.9514 18.8508 25.6933 18.8508Z" fill="#A9B0B8" stroke="#051229" stroke-width="0.6"/>
<path d="M8.98233 18.8508C7.72421 18.8508 6.70312 17.8297 6.70312 16.5716C6.70312 15.3134 7.72421 14.2924 8.98233 14.2924C10.2405 14.2924 11.2615 15.3134 11.2615 16.5716C11.2615 17.8297 10.2359 18.8508 8.98233 18.8508ZM8.98233 16.5716C8.97777 16.5716 8.97777 16.5716 8.98233 16.5716Z" fill="#A9B0B8" stroke="#051229" stroke-width="0.6"/>
<path d="M13.6679 12.0131C12.4098 12.0131 11.3887 10.992 11.3887 9.73392C11.3887 8.4758 12.4098 7.45471 13.6679 7.45471C14.926 7.45471 15.9471 8.4758 15.9471 9.73392C15.9471 10.992 14.926 12.0131 13.6679 12.0131Z" fill="#A9B0B8" stroke="#051229" stroke-width="0.6"/>
<path d="M21.1347 12.0131C19.8766 12.0131 18.8555 10.992 18.8555 9.73392C18.8555 8.4758 19.8766 7.45471 21.1347 7.45471C22.3928 7.45471 23.4139 8.4758 23.4139 9.73392C23.4139 10.992 22.3928 12.0131 21.1347 12.0131Z" fill="#A9B0B8" stroke="#051229" stroke-width="0.6"/>
</svg>
