<svg width="34" height="34" viewBox="0 0 34 34" fill="none" xmlns="http://www.w3.org/2000/svg">
<g clip-path="url(#clip0_3564_298)">
<path d="M17 0C7.626 0 0 7.626 0 17C0 26.374 7.626 34 17 34C26.374 34 34 26.374 34 17C34 7.626 26.374 0 17 0ZM31.963 16H29.4075C29.1565 16 28.945 15.8155 28.9155 15.57C28.6775 13.5775 27.9505 11.7535 26.875 10.1955L29.164 8.2385C30.7625 10.4515 31.772 13.115 31.963 16ZM27.8875 6.6985L25.6075 8.648C23.635 6.618 20.96 5.2925 17.9995 5.0465V2.037C21.884 2.294 25.3665 4.035 27.8875 6.6985ZM16 2.037V5.0465C13.071 5.2895 10.4235 6.591 8.457 8.585L6.1745 6.633C8.6905 4.007 12.148 2.292 16 2.037ZM4.8885 8.1645L7.1775 10.122C6.073 11.6955 5.326 13.546 5.0845 15.57C5.0555 15.8155 4.844 16 4.593 16H2.0375C2.23 13.083 3.2595 10.392 4.8885 8.1645ZM17 32C9.0655 32 2.554 25.806 2.037 18H4.5925C5.856 18 6.9215 17.057 7.0705 15.807C7.67 10.786 11.9385 7 17 7C22.0615 7 26.33 10.786 26.9295 15.8065C27.0785 17.057 28.1435 18 29.407 18H31.9625C31.446 25.806 24.9345 32 17 32Z" fill="#A9B0B8" stroke="#051229" stroke-width="0.495833"/>
<path d="M15.7331 23.8541C16.0536 23.9346 16.3776 23.9746 16.6991 23.9746C17.3966 23.9746 18.0836 23.7866 18.6981 23.4206C19.5961 22.8846 20.2316 22.0311 20.4876 21.0171C20.9041 19.3666 20.1661 12.1621 20.0136 10.7351C19.9691 10.3186 19.6701 9.97408 19.2641 9.87108C18.8576 9.76858 18.4306 9.92958 18.1946 10.2756C17.3826 11.4596 13.3126 17.4496 12.8961 19.0996C12.6401 20.1136 12.7941 21.1666 13.3301 22.0646C13.8661 22.9626 14.7191 23.5981 15.7331 23.8541ZM14.8351 19.5896C15.0166 18.8706 16.6636 16.2016 18.2916 13.7221C18.5476 16.6771 18.7301 19.8076 18.5486 20.5271C18.4236 21.0231 18.1121 21.4406 17.6731 21.7031C17.2346 21.9651 16.7191 22.0406 16.2231 21.9151C15.7271 21.7901 15.3096 21.4791 15.0476 21.0401C14.7851 20.6001 14.7096 20.0856 14.8351 19.5896Z" fill="#A9B0B8" stroke="#051229" stroke-width="0.495833"/>
<path d="M20.5 26H13.5C12.948 26 12.5 26.448 12.5 27C12.5 27.552 12.948 28 13.5 28H20.5C21.052 28 21.5 27.552 21.5 27C21.5 26.448 21.052 26 20.5 26Z" fill="#A9B0B8" stroke="#051229" stroke-width="0.495833"/>
</g>
<defs>
<clipPath id="clip0_3564_298">
<rect width="34" height="34" fill="white"/>
</clipPath>
</defs>
</svg>
