<svg width="34" height="34" viewBox="0 0 34 34" fill="none" xmlns="http://www.w3.org/2000/svg">
<path d="M8.00391 13.0611H9.87722V10.0583H16.0566V24.216H13.6275V26.091H20.3591V24.216H17.9299V10.0583H24.1094V13.0611H25.9827V8.18335H8.00391V13.0611Z" fill="#A9B0B8" stroke="#051229" stroke-width="0.522459"/>
<path d="M31.0089 27.2945V6.70562C32.1651 6.31368 32.9999 5.21793 32.9999 3.93C32.9999 2.31425 31.6866 0.999756 30.0723 0.999756C28.7867 0.999756 27.6928 1.83375 27.3003 2.98931H6.69974C6.30718 1.83375 5.2133 0.999756 3.92768 0.999756C2.31337 0.999756 1 2.31425 1 3.93006C1 5.218 1.83481 6.31368 2.991 6.70568V27.2946C1.83481 27.6865 1 28.7822 1 30.0701C1 31.6859 2.31331 33.0004 3.92768 33.0004C5.20537 33.0004 6.29374 32.1767 6.69249 31.0322H27.3075C27.7062 32.1766 28.7946 33.0004 30.0723 33.0004C31.6866 33.0004 33 31.6859 33 30.0701C32.9999 28.7822 32.1651 27.6865 31.0089 27.2945ZM27.2908 29.1572H6.70918C6.42199 28.2829 5.73449 27.5895 4.86437 27.2945V6.70562C5.72737 6.41306 6.41061 5.72843 6.70193 4.86425H27.2981C27.5894 5.72843 28.2726 6.41306 29.1356 6.70562V27.2945C28.2656 27.5895 27.578 28.2829 27.2908 29.1572ZM30.0723 2.87475C30.6536 2.87475 31.1266 3.34819 31.1266 3.93006C31.1266 4.51194 30.6536 4.98537 30.0723 4.98537C29.4909 4.98537 29.0179 4.51194 29.0179 3.93006C29.0179 3.34819 29.4909 2.87475 30.0723 2.87475ZM3.92768 2.87475C4.50906 2.87475 4.98205 3.34819 4.98205 3.93006C4.98205 4.51194 4.50906 4.98537 3.92768 4.98537C3.34631 4.98537 2.87331 4.51194 2.87331 3.93006C2.87331 3.34819 3.34637 2.87475 3.92768 2.87475ZM3.92768 31.1254C3.34631 31.1254 2.87331 30.652 2.87331 30.0701C2.87331 29.4882 3.34631 29.0148 3.92768 29.0148C4.50906 29.0148 4.98205 29.4882 4.98205 30.0701C4.98205 30.652 4.50906 31.1254 3.92768 31.1254ZM30.0723 31.1254C29.4909 31.1254 29.0179 30.652 29.0179 30.0701C29.0179 29.4882 29.4909 29.0148 30.0723 29.0148C30.6536 29.0148 31.1266 29.4882 31.1266 30.0701C31.1266 30.652 30.6536 31.1254 30.0723 31.1254Z" fill="#A9B0B8" stroke="#051229" stroke-width="0.522459"/>
</svg>
