<svg width="38" height="38" viewBox="0 0 38 38" fill="none" xmlns="http://www.w3.org/2000/svg">
<g clip-path="url(#clip0_3564_307)">
<path d="M37.0284 14.4309C36.5381 13.9385 35.9051 13.6132 35.2192 13.5014C34.5334 13.3896 33.8298 13.497 33.2085 13.8082C31.0374 8.06249 25.4963 3.9585 19 3.9585C12.5038 3.9585 6.96095 8.06421 4.78978 13.8108C4.28439 13.5567 3.72224 13.4366 3.15713 13.4619C2.59203 13.4873 2.04288 13.6572 1.56225 13.9555C1.08162 14.2538 0.685594 14.6705 0.412071 15.1656C0.138548 15.6607 -0.00331547 16.2178 5.88174e-05 16.7835V22.4835C0.000167749 23.0786 0.160053 23.6628 0.463021 24.1751C0.765988 24.6873 1.20093 25.1088 1.72242 25.3956C2.24391 25.6824 2.83283 25.8239 3.42768 25.8054C4.02254 25.7868 4.60151 25.6089 5.10414 25.2903C6.00533 27.3218 7.33957 29.1319 9.01351 30.5939C10.6874 32.0558 12.6606 33.1343 14.795 33.7539C14.8636 33.9316 14.9844 34.0845 15.1414 34.1924C15.2985 34.3003 15.4845 34.3582 15.675 34.3584H22.325C22.577 34.3584 22.8186 34.2583 22.9968 34.0802C23.1749 33.902 23.275 33.6604 23.275 33.4084V31.5084C23.275 31.2565 23.1749 31.0148 22.9968 30.8367C22.8186 30.6585 22.577 30.5584 22.325 30.5584H15.675C15.4231 30.5584 15.1814 30.6585 15.0033 30.8367C14.8251 31.0148 14.725 31.2565 14.725 31.5084V31.7408C9.48449 29.9539 5.70005 24.9958 5.70005 19.1585C5.70005 11.8253 11.666 5.85849 19 5.85849C26.334 5.85849 32.3 11.8253 32.3 19.1585C32.3012 20.5422 32.0861 21.9175 31.6626 23.2348C31.6185 23.3593 31.6011 23.4918 31.6117 23.6235C31.6234 23.7704 31.6693 23.9127 31.7455 24.0389C32.0917 24.6951 32.6478 25.2164 33.3251 25.5195C34.0023 25.8227 34.7615 25.8901 35.4816 25.7112C36.2017 25.5322 36.841 25.1171 37.2975 24.5322C37.754 23.9473 38.0013 23.2263 38 22.4843V16.7843C38.0017 16.3473 37.9167 15.9143 37.7499 15.5103C37.5831 15.1064 37.3379 14.7395 37.0284 14.4309ZM3.32505 23.9085C2.94726 23.908 2.58507 23.7577 2.31793 23.4906C2.05079 23.2234 1.90051 22.8612 1.90005 22.4835V16.7835C1.89929 16.5144 1.97493 16.2507 2.11817 16.023C2.26141 15.7953 2.46636 15.6129 2.70919 15.4971C2.95201 15.3813 3.22273 15.3368 3.48984 15.3689C3.75695 15.4009 4.00948 15.5081 4.21805 15.678C3.60117 18.2208 3.66792 20.8816 4.4115 23.3903C4.2801 23.5517 4.11447 23.682 3.92657 23.7716C3.73868 23.8612 3.53322 23.908 3.32505 23.9085ZM36.1 22.4835C36.0995 22.8612 35.9492 23.2234 35.6821 23.4906C35.415 23.7577 35.0528 23.908 34.675 23.9085C34.4679 23.9073 34.2637 23.8602 34.077 23.7706C33.8903 23.681 33.7259 23.5511 33.5954 23.3903C34.3354 20.8834 34.4022 18.2258 33.7889 15.6849C34.333 15.2583 35.1863 15.2695 35.6889 15.7713C35.821 15.9044 35.9253 16.0624 35.9959 16.2362C36.0664 16.4099 36.1018 16.5959 36.1 16.7835V22.4835Z" fill="#A9B0B8" stroke="#051229" stroke-width="0.475"/>
<path d="M28.0155 24.2017C28.3328 23.57 28.4987 22.8731 28.5 22.1661V16.1526C28.4986 14.9349 28.0143 13.7674 27.1533 12.9062C26.2923 12.0451 25.1249 11.5606 23.9072 11.559H14.0928C12.8751 11.5606 11.7077 12.0451 10.8467 12.9062C9.98567 13.7674 9.50137 14.9349 9.5 16.1526V22.1661C9.50137 23.3838 9.9857 24.5512 10.8467 25.4122C11.7077 26.2732 12.8751 26.7576 14.0928 26.7589H23.6636L27.993 29.4647C28.1589 29.5685 28.3528 29.6186 28.5482 29.6081C28.7436 29.5976 28.931 29.527 29.0848 29.4059C29.2386 29.2848 29.3512 29.1192 29.4073 28.9317C29.4634 28.7442 29.4602 28.544 29.3981 28.3584L28.0155 24.2017ZM24.4409 25.0006C24.2899 24.9063 24.1154 24.8563 23.9374 24.8563H23.8674H14.0928C13.3794 24.8554 12.6954 24.5718 12.1906 24.0675C11.6859 23.5633 11.4016 22.8796 11.4 22.1661V16.1526C11.4009 15.4387 11.6849 14.7542 12.1897 14.2492C12.6944 13.7443 13.3788 13.4601 14.0928 13.459H23.9072C24.6211 13.4601 25.3055 13.7443 25.8103 14.2492C26.3151 14.7542 26.599 15.4387 26.6 16.1526V22.1661C26.5975 22.6734 26.4513 23.1695 26.1785 23.5972C26.1033 23.7161 26.0555 23.8502 26.0385 23.9898C26.0215 24.1295 26.0357 24.2712 26.0801 24.4047L26.7632 26.4532L24.4409 25.0006Z" fill="#A9B0B8" stroke="#051229" stroke-width="0.475"/>
<path d="M15.2 20.1087C15.7247 20.1087 16.15 19.6834 16.15 19.1587C16.15 18.6341 15.7247 18.2087 15.2 18.2087C14.6753 18.2087 14.25 18.6341 14.25 19.1587C14.25 19.6834 14.6753 20.1087 15.2 20.1087Z" fill="#A9B0B8"/>
<path d="M22.7996 20.1087C23.3243 20.1087 23.7496 19.6834 23.7496 19.1587C23.7496 18.6341 23.3243 18.2087 22.7996 18.2087C22.2749 18.2087 21.8496 18.6341 21.8496 19.1587C21.8496 19.6834 22.2749 20.1087 22.7996 20.1087Z" fill="#A9B0B8"/>
<path d="M19.0008 20.1087C19.5254 20.1087 19.9508 19.6834 19.9508 19.1587C19.9508 18.6341 19.5254 18.2087 19.0008 18.2087C18.4761 18.2087 18.0508 18.6341 18.0508 19.1587C18.0508 19.6834 18.4761 20.1087 19.0008 20.1087Z" fill="#A9B0B8"/>
</g>
<defs>
<clipPath id="clip0_3564_307">
<rect width="38" height="38" fill="white"/>
</clipPath>
</defs>
</svg>
