<svg width="34" height="34" viewBox="0 0 34 34" fill="none" xmlns="http://www.w3.org/2000/svg">
<path d="M28.8021 1H5.19787C2.8832 1 1 2.8832 1 5.19787V28.8021C1 31.1168 2.8832 33 5.19787 33H28.8021C31.1168 33 33 31.1168 33 28.8021V5.19787C33 2.8832 31.1168 1 28.8021 1ZM31.9333 28.8021C31.9333 30.5285 30.5285 31.9333 28.8021 31.9333H5.19787C3.47147 31.9333 2.06667 30.5285 2.06667 28.8021V5.19787C2.06667 3.47147 3.47147 2.06667 5.19787 2.06667H28.8021C30.5285 2.06667 31.9333 3.47147 31.9333 5.19787V28.8021Z" fill="#A9B0B8" stroke="#A9B0B8" stroke-width="0.426667"/>
<path d="M8.64575 13.5528H11.7284C12.0234 13.5528 12.2618 13.3138 12.2618 13.0194C12.2618 12.725 12.0234 12.4861 11.7284 12.4861H8.64575C7.47455 12.4861 6.52148 13.4392 6.52148 14.6104V15.4093C6.52148 16.5805 7.47455 17.5336 8.64575 17.5336H10.1375C10.4218 17.5336 10.6868 17.6429 10.8852 17.844C11.0852 18.044 11.1951 18.3096 11.1951 18.5917V19.3906C11.1951 19.9735 10.7204 20.4482 10.1375 20.4482H7.05482C6.75988 20.4482 6.52148 20.6872 6.52148 20.9816C6.52148 21.276 6.75988 21.5149 7.05482 21.5149H10.1375C11.3087 21.5149 12.2618 20.5618 12.2618 19.3906V18.5917C12.2618 18.0248 12.041 17.4914 11.6415 17.092C11.2431 16.6893 10.7087 16.4674 10.1375 16.4674H8.64575C8.06228 16.4674 7.58815 15.9928 7.58815 15.4098V14.6109C7.58815 14.028 8.06282 13.5533 8.64575 13.5533V13.5528Z" fill="#A9B0B8" stroke="#A9B0B8" stroke-width="0.426667"/>
<path d="M19.3374 13.552C19.6324 13.552 19.8708 13.3131 19.8708 13.0187C19.8708 12.7243 19.6324 12.4854 19.3374 12.4854H14.6622C14.3673 12.4854 14.1289 12.7243 14.1289 13.0187V20.9819C14.1289 21.2763 14.3673 21.5152 14.6622 21.5152H19.3374C19.6324 21.5152 19.8708 21.2763 19.8708 20.9819C19.8708 20.6875 19.6324 20.4486 19.3374 20.4486H15.1956V17.5339H18.2281C18.523 17.5339 18.7614 17.295 18.7614 17.0006C18.7614 16.7062 18.523 16.4672 18.2281 16.4672H15.1956V13.5526L19.3374 13.552Z" fill="#A9B0B8" stroke="#A9B0B8" stroke-width="0.426667"/>
<path d="M25.9946 12.4854H23.2154C22.3989 12.4854 21.7344 13.1499 21.7344 13.9664V20.0342C21.7344 20.8507 22.3989 21.5152 23.2154 21.5152H25.9946C26.8112 21.5152 27.4757 20.8507 27.4757 20.0342V13.9664C27.4757 13.1499 26.8112 12.4854 25.9946 12.4854ZM26.409 20.0342C26.409 20.2624 26.2229 20.4486 25.9946 20.4486H23.2154C22.9866 20.4486 22.801 20.2624 22.801 20.0342V13.9664C22.801 13.7382 22.9872 13.552 23.2154 13.552H25.9946C26.2234 13.552 26.409 13.7382 26.409 13.9664V20.0342Z" fill="#A9B0B8" stroke="#A9B0B8" stroke-width="0.426667"/>
</svg>
