<svg width="34" height="34" viewBox="0 0 34 34" fill="none" xmlns="http://www.w3.org/2000/svg">
<g clip-path="url(#clip0_2270_537)">
<path d="M14.875 34.0003C14.484 34.0003 14.1667 33.683 14.1667 33.292V27.6253C14.1667 27.2343 14.484 26.917 14.875 26.917C15.266 26.917 15.5833 27.2343 15.5833 27.6253V33.292C15.5833 33.683 15.266 34.0003 14.875 34.0003Z" fill="#A9B8B8"/>
<path d="M19.125 34.0003C18.734 34.0003 18.4167 33.683 18.4167 33.292V27.6253C18.4167 27.2343 18.734 26.917 19.125 26.917C19.516 26.917 19.8333 27.2343 19.8333 27.6253V33.292C19.8333 33.683 19.516 34.0003 19.125 34.0003Z" fill="#A9B8B8"/>
<path d="M31.875 28.3336H2.125C0.953417 28.3336 0 27.3802 0 26.2086V7.79198C0 6.6204 0.953417 5.66698 2.125 5.66698H9.20833C9.59933 5.66698 9.91667 5.98431 9.91667 6.37531C9.91667 6.76631 9.59933 7.08365 9.20833 7.08365H2.125C1.73542 7.08365 1.41667 7.40098 1.41667 7.79198V26.2086C1.41667 26.5996 1.73542 26.917 2.125 26.917H31.875C32.2646 26.917 32.5833 26.5996 32.5833 26.2086V7.79198C32.5833 7.40098 32.2646 7.08365 31.875 7.08365H24.7917C24.4007 7.08365 24.0833 6.76631 24.0833 6.37531C24.0833 5.98431 24.4007 5.66698 24.7917 5.66698H31.875C33.0466 5.66698 34 6.6204 34 7.79198V26.2086C34 27.3802 33.0466 28.3336 31.875 28.3336Z" fill="#A9B8B8"/>
<path d="M23.375 34.0003H10.625C10.234 34.0003 9.91667 33.683 9.91667 33.292C9.91667 32.901 10.234 32.5836 10.625 32.5836H23.375C23.766 32.5836 24.0833 32.901 24.0833 33.292C24.0833 33.683 23.766 34.0003 23.375 34.0003Z" fill="#A9B8B8"/>
<path d="M23.375 18.417H10.625C10.234 18.417 9.91667 18.0996 9.91667 17.7086V16.0497C9.91667 15.1034 10.285 14.2137 10.9537 13.5451L12.75 11.7487V7.72256C12.75 6.01264 13.3238 4.32539 14.3664 2.97106L16.439 0.277977C16.7068 -0.0705234 17.2947 -0.0705234 17.5624 0.277977L19.635 2.97248C20.6763 4.32539 21.25 6.01264 21.25 7.72256V11.7487L23.0463 13.5451C23.715 14.2137 24.0833 15.1034 24.0833 16.0497V17.7086C24.0833 18.0996 23.766 18.417 23.375 18.417ZM11.3333 17.0003H22.6667V16.0497C22.6667 15.4816 22.4457 14.949 22.0448 14.5466L20.0416 12.5435C19.9084 12.4103 19.8333 12.2304 19.8333 12.042V7.72256C19.8333 6.32289 19.3644 4.94306 18.5102 3.83523L17 1.87031L15.4898 3.83381C14.6356 4.94306 14.1667 6.32289 14.1667 7.72256V12.042C14.1667 12.2304 14.0916 12.4103 13.9598 12.5435L11.9567 14.5466C11.5543 14.9476 11.3333 15.4816 11.3333 16.0497V17.0003Z" fill="#A9B8B8"/>
<path d="M20.5417 18.2503C20.1507 18.2503 19.8333 17.933 19.8333 17.542V17.7086C19.8333 17.3176 20.1507 17.0003 20.5417 17.0003C20.9327 17.0003 21.25 17.3176 21.25 17.7086V17.542C21.25 17.933 20.9327 18.2503 20.5417 18.2503Z" fill="#A9B8B8"/>
<path d="M13.4583 18.2503C13.0673 18.2503 12.75 17.933 12.75 17.542V17.7086C12.75 17.3176 13.0673 17.0003 13.4583 17.0003C13.8493 17.0003 14.1667 17.3176 14.1667 17.7086V17.542C14.1667 17.933 13.8493 18.2503 13.4583 18.2503Z" fill="#A9B8B8"/>
</g>
<defs>
<clipPath id="clip0_2270_537">
<rect width="34" height="34" fill="white"/>
</clipPath>
</defs>
</svg>
