<svg width="34" height="34" viewBox="0 0 34 34" fill="none" xmlns="http://www.w3.org/2000/svg">
<g clip-path="url(#clip0_2270_513)">
<path d="M28.6444 10.7602L28.7343 10.6575L29.5431 9.84868L31.0067 8.38512C31.6742 7.71753 32.0466 6.83169 32.0466 5.89449C32.0466 4.9573 31.6742 4.07146 31.0067 3.40387L30.5958 2.99304C29.2606 1.65786 26.9498 1.65786 25.6146 2.99304L24.151 4.4566L3.353 25.2546L3.21178 25.3958L1.76105 32.2386L8.60386 30.7879L28.6444 10.7602ZM26.5261 3.89172C27.3734 3.05723 28.837 3.04439 29.6843 3.89172L30.108 4.31538C30.5316 4.73905 30.7627 5.29109 30.7627 5.89449C30.7627 6.49789 30.5316 7.04994 30.108 7.4736L28.6444 8.93716L25.0625 5.35528L26.5261 3.89172ZM24.151 6.2668L25.4862 7.60198L6.04904 27.0391L4.71386 25.704L24.151 6.2668ZM3.43003 30.5697L4.18749 27.0006L6.99907 29.8122L3.43003 30.5697ZM8.29574 29.2858L6.96056 27.9507L26.3977 8.5135L27.7329 9.84868L8.29574 29.2858ZM10.2215 16.5759L1.11914 7.4736L7.47409 1.11865L16.5764 10.221L15.6264 11.1068L14.7149 10.1953L12.9047 8.37228L11.9932 7.46076V7.4736L10.183 5.65056L9.27145 4.73905L7.46125 2.92885L2.9165 7.4736L11.1202 15.6773L10.2086 16.5759H10.2215ZM32.881 26.5256L26.5261 32.8806L17.4238 23.7782L18.3353 22.8795L26.5261 31.0704L31.0708 26.5256L29.2606 24.7154L28.3491 23.8039L28.3491 23.7911L26.5261 21.9809V21.968L25.6146 21.0565L23.7915 19.2463L22.88 18.3348L23.7659 17.3976L32.8682 26.4999L32.881 26.5256Z" fill="#A9B8B8"/>
</g>
<defs>
<clipPath id="clip0_2270_513">
<rect width="33.1429" height="33.1429" fill="white" transform="translate(0.427734 0.428711)"/>
</clipPath>
</defs>
</svg>
