<svg width="30" height="30" viewBox="0 0 30 30" fill="none" xmlns="http://www.w3.org/2000/svg">
<path d="M29.3185 30C29.229 30.0001 29.1403 29.9825 29.0576 29.9482C28.9748 29.914 28.8996 29.8637 28.8363 29.8004C28.773 29.7371 28.7228 29.6619 28.6885 29.5792C28.6543 29.4964 28.6367 29.4077 28.6367 29.3182V0.681818C28.6367 0.500989 28.7086 0.327566 28.8364 0.1997C28.9643 0.0718342 29.1377 0 29.3185 0C29.4994 0 29.6728 0.0718342 29.8007 0.1997C29.9285 0.327566 30.0004 0.500989 30.0004 0.681818V29.3182C30.0004 29.4077 29.9828 29.4964 29.9486 29.5792C29.9143 29.6619 29.8641 29.7371 29.8008 29.8004C29.7374 29.8637 29.6623 29.914 29.5795 29.9482C29.4968 29.9825 29.4081 30.0001 29.3185 30Z" fill="#A9B8B8"/>
<path d="M25.2273 25.9092H0.681818C0.592266 25.9093 0.503582 25.8917 0.420836 25.8574C0.338091 25.8232 0.262907 25.773 0.199584 25.7096C0.136261 25.6463 0.0860407 25.5711 0.0517945 25.4884C0.0175484 25.4056 -5.18707e-05 25.317 1.14826e-07 25.2274V17.0456C-5.18707e-05 16.956 0.0175484 16.8674 0.0517945 16.7846C0.0860407 16.7019 0.136261 16.6267 0.199584 16.5634C0.262907 16.5 0.338091 16.4498 0.420836 16.4156C0.503582 16.3813 0.592266 16.3637 0.681818 16.3638H25.2273C25.3168 16.3637 25.4055 16.3813 25.4883 16.4156C25.571 16.4498 25.6462 16.5 25.7095 16.5634C25.7728 16.6267 25.823 16.7019 25.8573 16.7846C25.8915 16.8674 25.9091 16.956 25.9091 17.0456V25.2274C25.9091 25.317 25.8915 25.4056 25.8573 25.4884C25.823 25.5711 25.7728 25.6463 25.7095 25.7096C25.6462 25.773 25.571 25.8232 25.4883 25.8574C25.4055 25.8917 25.3168 25.9093 25.2273 25.9092ZM1.36364 24.5456H24.5455V17.7274H1.36364V24.5456Z" fill="#A9B8B8"/>
<path d="M25.2271 13.6908H8.86346C8.77391 13.6909 8.68522 13.6733 8.60248 13.639C8.51973 13.6048 8.44455 13.5546 8.38122 13.4912C8.3179 13.4279 8.26768 13.3527 8.23344 13.27C8.19919 13.1872 8.18159 13.0986 8.18164 13.009V4.77264C8.18159 4.68309 8.19919 4.5944 8.23344 4.51166C8.26768 4.42891 8.3179 4.35373 8.38122 4.2904C8.44455 4.22708 8.51973 4.17686 8.60248 4.14261C8.68522 4.10837 8.77391 4.09077 8.86346 4.09082H25.2271C25.3166 4.09077 25.4053 4.10837 25.4881 4.14261C25.5708 4.17686 25.646 4.22708 25.7093 4.2904C25.7726 4.35373 25.8229 4.42891 25.8571 4.51166C25.8914 4.5944 25.909 4.68309 25.9089 4.77264V13.009C25.909 13.0986 25.8914 13.1872 25.8571 13.27C25.8229 13.3527 25.7726 13.4279 25.7093 13.4912C25.646 13.5546 25.5708 13.6048 25.4881 13.639C25.4053 13.6733 25.3166 13.6909 25.2271 13.6908ZM9.54528 12.3272H24.5453V5.45446H9.54528V12.3272Z" fill="#A9B8B8"/>
</svg>
