<svg width="34" height="34" viewBox="0 0 34 34" fill="none" xmlns="http://www.w3.org/2000/svg">
<path d="M29.2868 14.0545H29.2026V11.9926C29.2026 5.36926 23.8335 0 17.2101 0C10.5867 0 5.21751 5.36926 5.21751 11.9926V14.0545H4.71259C2.86109 14.0545 1.43042 15.6955 1.43042 17.5891V22.849C1.38378 24.6843 2.83386 26.21 4.66918 26.2566C4.68367 26.257 4.69809 26.2572 4.71259 26.2574H7.82643C8.26748 26.2367 8.60825 25.8623 8.58747 25.4212C8.58675 25.4053 8.58554 25.3895 8.58385 25.3737V15.0643C8.58385 14.5594 8.28931 14.0544 7.82643 14.0544H6.90068V11.9925C6.90068 6.2988 11.5164 1.68309 17.2101 1.68309C22.9038 1.68309 27.5195 6.2988 27.5195 11.9925V14.0544H26.5937C26.1308 14.0544 25.8363 14.5593 25.8363 15.0643V25.3737C25.7894 25.8127 26.1072 26.2067 26.5462 26.2537C26.562 26.2554 26.5779 26.2566 26.5937 26.2573H27.5615L27.4774 26.3835C26.2147 28.0616 24.2334 29.0445 22.1333 29.0345C21.6736 26.7802 19.4733 25.3254 17.219 25.7852C15.2912 26.1783 13.9013 27.8666 13.8858 29.834C13.9088 32.1416 15.7861 34 18.0937 33.9998C19.236 33.9813 20.3249 33.5126 21.1234 32.6954C21.6621 32.1437 22.0151 31.4375 22.1333 30.6755C24.7632 30.6855 27.2433 29.4532 28.8239 27.3513L29.6234 26.1731C31.4328 26.0469 32.5689 24.9107 32.5689 23.2696V18.0097C32.569 16.2005 31.2225 14.0545 29.2868 14.0545ZM6.90068 24.5742H4.71259C3.80649 24.5522 3.08983 23.7998 3.11189 22.8937C3.1123 22.8788 3.11286 22.8639 3.11359 22.8489V17.589C3.11359 16.6212 3.78684 15.7375 4.71259 15.7375H6.90068V24.5742ZM19.9032 31.5173C19.4368 32.0229 18.7816 32.3125 18.0938 32.3168C16.7247 32.2951 15.6137 31.2026 15.569 29.8341C15.5685 28.463 16.6795 27.351 18.0507 27.3504C19.4218 27.3499 20.5338 28.4609 20.5344 29.8321C20.5344 29.8327 20.5344 29.8335 20.5344 29.8341C20.5694 30.4589 20.3403 31.0696 19.9032 31.5173ZM30.8858 23.2698C30.8858 24.4059 29.7917 24.5742 29.2868 24.5742H27.5195V15.7376H29.2868C30.2126 15.7376 30.8858 17.0421 30.8858 18.0099V23.2698Z" fill="#A9B8B8"/>
</svg>
