<svg width="34" height="34" viewBox="0 0 34 34" fill="none" xmlns="http://www.w3.org/2000/svg">
<g clip-path="url(#clip0_640_184)">
<path d="M31.79 13.4995L25.9792 7.11373C24.8293 5.96391 22.9562 5.96239 21.7956 7.123C21.4278 7.4908 21.1775 7.93125 21.0477 8.40112C19.8917 7.51557 18.2241 7.60367 17.1593 8.66851C16.793 9.0363 16.5426 9.47676 16.4097 9.94503C15.2537 9.0626 13.5862 9.1491 12.5229 10.2139C12.1628 10.5741 11.9155 11.0036 11.7811 11.4611L9.04251 8.72255C7.89269 7.57273 6.0196 7.57121 4.85899 8.73182C3.70765 9.88164 3.70765 11.7547 4.85899 12.9061L15.3804 23.4275L9.13988 24.4073C7.45376 24.6484 6.18187 26.1135 6.18187 27.8182C6.18187 29.0963 7.22194 30.1363 8.50006 30.1363H23.0722C25.3425 30.1363 27.4767 29.2523 29.0824 27.6466L31.5134 25.2156C33.1176 23.613 34 21.4802 34 19.2131C34 17.0958 33.2149 15.0666 31.79 13.4995ZM30.4207 24.123L27.9898 26.5539C26.6761 27.8676 24.9297 28.5908 23.0721 28.5908H8.49999C8.07344 28.5908 7.72723 28.2446 7.72723 27.8181C7.72723 26.8784 8.42885 26.0702 9.37003 25.9357L17.1205 24.7179C17.408 24.673 17.6444 24.4706 17.7356 24.194C17.8252 23.9189 17.7527 23.6144 17.5471 23.4089L5.95158 11.8134C5.40296 11.2648 5.40297 10.3715 5.95933 9.81362C6.2344 9.54007 6.59451 9.4025 6.95463 9.4025C7.31474 9.4025 7.67478 9.54007 7.94992 9.81514L15.6819 17.5471C15.9832 17.8484 16.4732 17.8484 16.7745 17.5471C16.9244 17.3956 17.0002 17.1978 17.0002 17C17.0002 16.8021 16.9245 16.6044 16.773 16.4529L13.6156 13.2955C13.067 12.7469 13.067 11.8551 13.6249 11.2973C14.172 10.7502 15.0668 10.7502 15.6139 11.2973L18.7728 14.4561C19.0742 14.7575 19.5641 14.7575 19.8655 14.4561C20.0153 14.3047 20.0911 14.1069 20.0911 13.9091C20.0911 13.7112 20.0154 13.5134 19.8639 13.362L18.252 11.75C17.7034 11.2014 17.7034 10.3096 18.2613 9.75175C18.8084 9.20466 19.7032 9.20466 20.2503 9.75175L21.8699 11.3714C21.873 11.3729 21.8714 11.3729 21.8714 11.3729L21.8729 11.3744C21.8745 11.3759 21.8745 11.3759 21.8745 11.3759C21.876 11.3775 21.876 11.3775 21.876 11.3775H21.8775C21.879 11.3775 21.879 11.379 21.879 11.379C22.1819 11.6664 22.661 11.6603 22.9562 11.3635C23.2575 11.0622 23.2575 10.5722 22.9562 10.2709L22.8897 10.2044C22.624 9.93866 22.4771 9.5847 22.4771 9.20915C22.4771 8.83361 22.6224 8.48124 22.8975 8.20618C23.4477 7.65908 24.3379 7.66061 24.8618 8.17988L30.648 14.5395C31.8116 15.8208 32.4546 17.4806 32.4546 19.2131C32.4546 21.0676 31.7328 22.8109 30.4207 24.123Z" fill="white"/>
<path d="M13.2847 7.96391C12.1597 5.47418 9.67458 3.86377 6.95455 3.86377C3.12027 3.86377 0 6.98404 0 10.8183C0 13.5383 1.61034 16.0234 4.10007 17.1501C4.20359 17.1964 4.31182 17.2181 4.41846 17.2181C4.71207 17.2181 4.99337 17.0481 5.12319 16.7637C5.29785 16.3743 5.12471 15.9168 4.73685 15.7406C2.79884 14.8643 1.5455 12.9325 1.5455 10.8183C1.5455 7.83561 3.97185 5.4092 6.95462 5.4092C9.06881 5.4092 11.0006 6.66254 11.8769 8.60054C12.0516 8.99 12.5106 9.16466 12.8984 8.98688C13.2878 8.81077 13.4609 8.35337 13.2847 7.96391Z" fill="white"/>
</g>
<defs>
<clipPath id="clip0_640_184">
<rect width="34" height="34" fill="white"/>
</clipPath>
</defs>
</svg>
