<svg width="60" height="60" viewBox="0 0 60 60" fill="none" xmlns="http://www.w3.org/2000/svg">
<g clip-path="url(#clip0_2459_1568)">
<path d="M30 3.6C35.2214 3.6 40.3256 5.14833 44.6671 8.0492C49.0085 10.9501 52.3923 15.0732 54.3904 19.8972C56.3886 24.7211 56.9114 30.0293 55.8927 35.1504C54.8741 40.2715 52.3597 44.9755 48.6676 48.6676C44.9755 52.3597 40.2715 54.8741 35.1504 55.8927C30.0293 56.9114 24.7211 56.3886 19.8972 54.3904C15.0732 52.3923 10.9501 49.0085 8.04922 44.6671C5.14835 40.3256 3.60001 35.2214 3.60001 30C3.60795 23.0007 6.39192 16.2904 11.3412 11.3412C16.2904 6.39191 23.0007 3.60794 30 3.6V3.6ZM30 0C24.0666 0 18.2664 1.75947 13.3329 5.05591C8.39943 8.35235 4.55426 13.0377 2.28363 18.5195C0.0129985 24.0013 -0.581102 30.0333 0.576455 35.8527C1.73401 41.6721 4.59124 47.0176 8.78681 51.2132C12.9824 55.4088 18.3279 58.266 24.1473 59.4236C29.9667 60.5811 35.9987 59.987 41.4805 57.7164C46.9623 55.4458 51.6477 51.6006 54.9441 46.6671C58.2405 41.7336 60 35.9334 60 30C60 22.0435 56.8393 14.4129 51.2132 8.7868C45.5871 3.16071 37.9565 0 30 0V0Z" fill="white"/>
<path d="M2.121 37.7131L1.479 34.1701C7.635 33.0541 12.033 28.6531 13.545 22.0951C15.6 13.1641 17.4 11.8051 20.181 10.3321C21.981 9.38109 24.189 8.19609 27.789 0.996094L31.011 2.60409C26.895 10.8331 24 12.3811 21.873 13.5001C20.052 14.4691 18.852 15.1081 17.055 22.8961C15.228 30.8131 9.645 36.3481 2.121 37.7131Z" fill="white"/>
<path d="M11.1 48.8998H7.5C7.5 42.5488 14.031 36.7468 24.972 33.3808C30.219 31.7638 30.03 29.0998 29.1 23.2288C28.728 20.8738 28.308 18.2008 28.5 15.4708C28.686 12.8488 29.91 10.0708 31.857 7.85377C34.281 5.09077 37.695 3.31777 41.73 2.71777L42.258 6.28177C38.4 6.85177 32.517 9.83977 32.1 15.7288C31.935 18.0478 32.307 20.3968 32.667 22.6678C33.522 28.0678 34.491 34.2178 26.034 36.8188C18.813 39.0418 11.1 43.3798 11.1 48.8998Z" fill="white"/>
<path d="M25.6619 59.3552L23.5379 56.4452C26.9249 53.9732 31.8179 49.2032 31.5629 46.8242C31.5389 46.6052 31.4789 46.0262 30.1679 45.4442C28.4309 44.6732 26.8259 44.6342 25.2599 45.3302C21.2009 47.1302 18.3599 53.4722 17.6099 55.7612L14.1899 54.6392C14.3189 54.2402 17.4629 44.8532 23.7899 42.0392C26.3039 40.9232 28.9379 40.9622 31.6229 42.1562C34.3079 43.3502 34.9949 45.1382 35.1359 46.4432C35.6999 51.7412 27.3419 58.1282 25.6619 59.3552Z" fill="white"/>
<path d="M34.6319 59.3761L32.5679 56.4241C35.3069 54.5071 37.1249 53.0671 39.2219 49.2241C43.6259 41.1781 41.8139 35.7991 40.0619 30.5971C39.2399 28.1611 38.4629 25.8601 38.3999 23.4361C38.0729 10.9711 47.2019 6.90007 47.5919 6.74707L49.0079 10.0471L48.2999 8.40007L49.0199 10.0501C48.7199 10.1821 41.7359 13.3891 41.9999 23.3521C42.0479 25.2361 42.7079 27.1921 43.4729 29.4571C45.2729 34.8391 47.5409 41.5381 42.3779 50.9641C39.9149 55.4611 37.6139 57.3001 34.6319 59.3761Z" fill="white"/>
<path d="M55.4999 45.8192L52.5299 45.3812C53.1299 41.2922 51.6299 38.0732 50.0399 34.6622C48.7349 31.8992 47.3999 29.0372 47.3999 25.8002C47.3999 19.6622 52.6469 16.6712 55.4219 15.9482L56.1779 18.8522L55.7999 17.4002L56.1839 18.8492C55.9469 18.9002 50.3999 20.4662 50.3999 25.8002C50.3999 28.3742 51.5399 30.8132 52.7459 33.3932C54.3749 36.9002 56.2229 40.8392 55.4999 45.8192Z" fill="white"/>
</g>
<defs>
<clipPath id="clip0_2459_1568">
<rect width="60" height="60" fill="white"/>
</clipPath>
</defs>
</svg>
