<svg xmlns="http://www.w3.org/2000/svg" xmlns:xlink="http://www.w3.org/1999/xlink" width="320" height="732" fill="none" xmlns:v="https://vecta.io/nano"><style><![CDATA[.B{fill-rule:evenodd}.C{fill:#111}.D{fill:#003dc9}.E{stroke-width:1.143}.F{stroke-width:1.026}.G{stroke-linecap:round}]]></style><path d="M75.17 9.46h-1.714v6.378h1.711v-3.597c0-.977.661-1.576 1.672-1.576s1.589.563 1.589 1.553v3.596h1.7v-4.055c0-1.468-.969-2.431-2.642-2.431a3.06 3.06 0 0 0-1.328.292 2.56 2.56 0 0 0-.988.814V9.46zm5.433 3.177v.024.009.222a2.8 2.8 0 0 0 .323 1.207 3.23 3.23 0 0 0 .839 1.008c.354.286.771.509 1.226.656a4.26 4.26 0 0 0 1.426.203 4.29 4.29 0 0 0 1.681-.293 3.72 3.72 0 0 0 1.352-.905l-1.004-.746a2.73 2.73 0 0 1-.91.563c-.346.131-.72.197-1.099.196-.529.015-1.044-.144-1.441-.443s-.645-.718-.693-1.169h5.451a2.1 2.1 0 0 0 .028-.411c0-1.828-1.193-3.417-3.555-3.417-2.12 0-3.625 1.478-3.625 3.297zm3.604-2.125c1.123 0 1.77.734 1.882 1.672h-3.807c.154-.986.875-1.672 1.924-1.672zm3.103-1.049h1.756l1.49 4.355L92.2 9.439h1.459l1.644 4.379 1.519-4.355h1.714l-2.432 6.402h-1.532l-1.658-4.346-1.669 4.346h-1.519l-2.418-6.402zm11.546 4.523l-.759.986v.027c.896.61 2.004.944 3.149.95 1.542 0 2.753-.662 2.753-1.999v-.024c0-1.142-1.225-1.553-2.306-1.852l-.13-.035c-.819-.221-1.542-.417-1.542-.864v-.024c0-.351.388-.626 1.05-.626a4.87 4.87 0 0 1 2.099.599l.675-1.034a5.8 5.8 0 0 0-2.725-.743c-1.477 0-2.642.737-2.642 1.951v.024c0 1.202 1.225 1.588 2.32 1.852l.206.055c.785.21 1.452.389 1.452.844v.009c0 .423-.42.686-1.151.686a4.64 4.64 0 0 1-2.449-.782zm-29.178-2.822v1.772a1.76 1.76 0 0 0 .035.43.74.74 0 0 0 .074.341.85.85 0 0 0 .226.287 1.02 1.02 0 0 0 .63.197 2.27 2.27 0 0 0 .589-.061 1.92 1.92 0 0 0 .536-.208l.359 1.306a3.15 3.15 0 0 1-1.178.506 6.23 6.23 0 0 1-1.567.182 3.18 3.18 0 0 1-1.001-.147c-.297-.092-.566-.239-.789-.43a1.98 1.98 0 0 1-.512-.683 2.14 2.14 0 0 1-.189-.916v-2.587H65.85V9.519h1.042V8h2.862a4.48 4.48 0 0 1-.059.562 5.6 5.6 0 0 0-.041.977h2.02v1.625h-1.996zm-40.98 1.351v1.65a4.88 4.88 0 0 0 .041.764c.025.158.035.331.046.516h0l.025.37h-2.691l-.141-1.012a2.4 2.4 0 0 1-1.025.891c-.389.181-.824.275-1.266.273a2.77 2.77 0 0 1-1.013-.192c-.334-.138-.628-.339-.86-.587-.261-.281-.461-.6-.589-.942-.154-.426-.23-.87-.224-1.316a3.04 3.04 0 0 1 .342-1.423c.223-.418.537-.796.925-1.114.395-.312.854-.558 1.355-.724.516-.171 1.066-.259 1.62-.258a11.3 11.3 0 0 1 1.178.056c.29.035.577.085.86.152l1.631-.354-.024.203-.07.638-.059.764v1.63l-.059.015zm-4.782-.162c-.047.474.069.95.336 1.367.092.122.218.223.368.292a1.14 1.14 0 0 0 .486.103 1.18 1.18 0 0 0 .483-.096c.171-.074.313-.19.406-.334h0a3.48 3.48 0 0 1 .035-.602 1.97 1.97 0 0 0 .008-.43h0 0 0 0 0 0 0 0l-.008-.248h0l-.041-1.488a1.73 1.73 0 0 0-.33-.091 3.12 3.12 0 0 0-.442-.03 1.38 1.38 0 0 0-.507.098 1.2 1.2 0 0 0-.412.272c-.301.346-.448.774-.412 1.205l.03-.015zm11.438-1.139l-.026-.009.486-1.469c-.384-.107-.778-.187-1.178-.238a12.9 12.9 0 0 0-1.472-.081c-.451 0-.899.056-1.331.167a4.04 4.04 0 0 0-1.031.445 2.12 2.12 0 0 0-.624.658 1.56 1.56 0 0 0-.23.795c-.031.455.141.902.483 1.251a3.01 3.01 0 0 0 1.355.658l.76.197c.275.059.54.147.789.263a.32.32 0 0 1 .147.162c.012.035.016.072.012.109s-.018.072-.038.104-.049.06-.083.083a.35.35 0 0 1-.114.048 2.68 2.68 0 0 1-.854.091 6.13 6.13 0 0 1-1.178-.111 4.65 4.65 0 0 1-1.078-.319l-.459 1.453c.437.168.896.29 1.366.365.584.086 1.175.125 1.767.116a5.12 5.12 0 0 0 1.278-.142c.364-.08.707-.218 1.013-.405a1.94 1.94 0 0 0 .671-.648 1.56 1.56 0 0 0 .242-.861c.028-.458-.142-.909-.477-1.266-.398-.35-.902-.598-1.455-.714l-.76-.187a2.92 2.92 0 0 1-.707-.228c-.045-.024-.082-.058-.109-.098a.25.25 0 0 1-.044-.13.28.28 0 0 1 .063-.138c.034-.041.08-.073.132-.095.254-.08.525-.112.795-.096a9.32 9.32 0 0 1 .995.056 4 4 0 0 1 .869.203l-.003.009h.029zm4.235 3.125V12.82v-.856a5.27 5.27 0 0 1 0-.754c.021-.152.023-.302.025-.454h0l.01-.305.008-.117h0l.057-.738h-2.945l.027.389.038.466a5.46 5.46 0 0 1 .035.759v2.415l.001.248h0 0 0 0 0 0 0 0l-.001.465-.041.714-.015.15h0 0 0 0l-.044.645h2.945l-.012-.238-.047-.557a4.19 4.19 0 0 1-.041-.714zm8.799-1.824v1.65a4.76 4.76 0 0 0 .041.764c.025.158.035.331.046.516h0 0 0 0 0 0l.025.369h-2.697l-.141-1.012c-.234.379-.595.689-1.037.891-.389.181-.824.275-1.266.273a2.61 2.61 0 0 1-1.019-.192 2.42 2.42 0 0 1-.866-.587c-.261-.281-.461-.6-.589-.942-.154-.426-.23-.87-.224-1.316-.005-.49.112-.974.342-1.423.223-.418.536-.796.925-1.114.395-.312.854-.558 1.355-.724a5.14 5.14 0 0 1 1.62-.258 11.3 11.3 0 0 1 1.178.056 7.72 7.72 0 0 1 .86.152l1.631-.354-.024.203h0l-.07.637-.059.764v1.63l-.029.015zm-4.806-.162c-.047.474.069.95.336 1.367.141.181.355.311.6.366a1.19 1.19 0 0 0 .732-.068c.171-.074.313-.19.406-.334h0a3.47 3.47 0 0 1 .035-.602 1.97 1.97 0 0 0 .008-.43h0 0 0 0l-.008-.248-.041-1.488a1.73 1.73 0 0 0-.33-.091 3.12 3.12 0 0 0-.465-.04 1.35 1.35 0 0 0-.505.097 1.17 1.17 0 0 0-.408.273c-.303.345-.45.774-.412 1.205l.053-.005zm9.056-1.799c.242-.349.581-.64.986-.848a2.98 2.98 0 0 1 1.296-.283 2.45 2.45 0 0 1 .901.167 2.2 2.2 0 0 1 .713.456c.208.201.368.435.471.689.118.282.176.581.171.881v3.68c0 .12.013.236.027.361h0l.02.201h-2.945a3.48 3.48 0 0 1 .053-.506v-.466-2.025a4.88 4.88 0 0 0-.059-.774c-.018-.231-.114-.453-.277-.638a.63.63 0 0 0-.214-.143.73.73 0 0 0-.263-.055c-.162-.003-.323.03-.465.096a1.2 1.2 0 0 0-.377.344c0 .136-.014.281-.028.434l-.031.417v2.668c-.005.203.007.406.035.607h-2.945a5.54 5.54 0 0 1 .059-.795h0c0-.243 0-.506.041-.714.027-.138.018-.3.009-.465h0l-.009-.249v-2.415c.006-.253-.006-.507-.035-.759a5.79 5.79 0 0 1-.038-.466l-.027-.389h2.803l.127.99zm8.166 2.616a1.12 1.12 0 0 0 .177.46 1.3 1.3 0 0 0 .37.365c.399.206.862.299 1.325.268a6.1 6.1 0 0 0 1.402-.142 4.15 4.15 0 0 0 1.137-.446l.4 1.478c-.466.282-.986.489-1.537.613a8.57 8.57 0 0 1-1.908.182 6 6 0 0 1-1.673-.213 3.86 3.86 0 0 1-1.302-.633 2.95 2.95 0 0 1-.842-1.012 3.19 3.19 0 0 1-.3-1.397 2.97 2.97 0 0 1 .3-1.301 3.21 3.21 0 0 1 .836-1.013c.373-.293.806-.523 1.278-.678a5.28 5.28 0 0 1 1.62-.248 4.77 4.77 0 0 1 1.449.208 3.2 3.2 0 0 1 1.09.592 2.85 2.85 0 0 1 .736 1.013 3.31 3.31 0 0 1 .265 1.377v.506h-4.841l.018.02zm1.072-2.41a1.07 1.07 0 0 0-.439.071.93.93 0 0 0-.35.238c-.178.232-.285.498-.312.774h2.162a1.27 1.27 0 0 0-.306-.79.9.9 0 0 0-.328-.222 1.03 1.03 0 0 0-.408-.072h-.018zM0 6a2 2 0 0 1 2-2h12a2 2 0 0 1 2 2v12a2 2 0 0 1-2 2H2a2 2 0 0 1-2-2V6z" fill="#fff" class="B"/><path d="M5.965 13.568h6.585l-.434-.672H5.531l.434.672zm.823 1.224h6.588l-.434-.67H6.357l.431.67zm.83 1.225h6.585l-.434-.67H7.18l.438.67zm.794 1.183H15l-.434-.672H7.977l.434.672z" fill="#c1000e"/><path d="M8.412 17.2l-.434-.67-.434.67h.869zm-1.592-.024l.794-1.185-.431-.643-1.231 1.828h.869zm-1.652-.001l1.62-2.41-.431-.643-2.055 3.053h.865zm-1.65 0l2.447-3.637-.434-.643-2.878 4.28h.865zM8 6.8L1 17.197h.865l6.569-9.754L8 6.8zm2.145 5.433l.761-1.135-.431-.643-1.196 1.778h.865zm-1.649 0l1.588-2.359-.434-.643-2.022 3.002h.869zm-1.65 0l2.411-3.586-.431-.643-2.845 4.229h.865z" class="D"/><g class="B"><use xlink:href="#B" class="C"/><use xlink:href="#B" x="28" class="D"/><path d="M22 59.4H2V58h20v1.4zM2 64.7h20v-1.4H2v1.4zM2 70h20v-1.4H2V70zm12.566 15.82c-2.276-2.286-6.008-2.438-8.475-.346s-2.797 5.694-.744 8.173c2.034 2.456 5.692 2.948 8.34 1.136l5.4 5.217.918-.886-5.342-5.161a5.79 5.79 0 0 0-.098-8.133zm-9.325 4.128c0-2.614 2.194-4.738 4.908-4.738s4.908 2.124 4.908 4.738-2.194 4.738-4.908 4.738-4.908-2.124-4.908-4.738zM19 114H5v9.6h6.416v1.2H8.5v1.2h7v-1.2h-2.917v-1.2H19V114zm-1.167 1.2H6.167v7.2h11.667v-7.2zM12 140c-3.308 0-6 2.6-6 5.795 0 3.965 5.369 9.787 5.598 10.032.215.231.59.231.804 0 .229-.245 5.598-6.067 5.598-10.032C18 142.6 15.308 140 12 140zm0 .997c-2.757 0-5 2.177-5 4.854 0 3.321 4.475 8.343 4.665 8.548a.46.46 0 0 0 .67 0c.191-.205 4.665-5.227 4.665-8.548 0-2.677-2.243-4.854-5-4.854zM15 146a3 3 0 1 1-6 0 3 3 0 1 1 6 0zm-1 0a2 2 0 1 1-4 0 2 2 0 1 1 4 0zm3.994 29.998l.005.005-1.053 1.053-.005-.005L11.996 182l-1.053-1.053 4.198-4.2H6v-1.49h9.149l-4.202-4.204L12 170l4.942 4.945.001-.001 1.053 1.053-.001.001z" class="C"/><path d="M39.999 170.005l.005-.005 1.053 1.053-.005.005 4.949 4.946-1.053 1.052-4.2-4.198V182h-1.49v-9.149l-4.204 4.202L34 176l4.945-4.942-.002-.002 1.053-1.053.002.002z" fill="#008558"/><path d="M68.001 181.995l-.005.005-1.053-1.053.005-.005L62 175.996l1.053-1.052 4.2 4.198V170h1.49v9.149l4.204-4.202L74 176l-4.945 4.942.002.002-1.053 1.053-.002-.002z" fill="#c1000e"/></g><path d="M6 196l12 8-12 8v-16z" class="C"/><g class="D"><path d="M34 196l12 8-12 8v-16z"/><path d="M62 198h12v12H62v-12zm1 1h10v10H63v-10zm8 5l-5-3v6l5-3z" class="B"/></g><path d="M20 224H4v16h16v-16zm-14.6 1.4h13.2v10.803l-5.144-4.204-4.55 6.601H5.4v-13.2zM9 227a2 2 0 1 0 0 4 2 2 0 1 0 0-4z" class="B C"/><path d="M48 224H32v16h16v-16zm-14.6 1.4h13.2v10.803l-5.144-4.204-4.55 6.601H33.4v-13.2zM37 227a2 2 0 1 0 0 4 2 2 0 1 0 0-4z" class="B D"/><path d="M15 258.288h-2.158v-1.071s-.12-1.019.579-1.019h1.422V254h-2.42s-2.026-.009-2.026 2.063l-.005 2.223H9v1.769h1.387L10.369 266h2.472v-5.945h1.631l.528-1.767zm4.561 23.933c-.645.352-1.351.601-2.086.736-1.017-1-2.634-1.245-3.944-.598s-1.986 2.025-1.65 3.361c-2.64-.123-5.099-1.274-6.766-3.167-.87 1.385-.426 3.156 1.016 4.046a3.5 3.5 0 0 1-1.487-.381v.037c0 1.443 1.101 2.686 2.633 2.973-.483.122-.991.14-1.483.051.43 1.234 1.662 2.08 3.066 2.106a6.95 6.95 0 0 1-4.077 1.297L4 292.64c2.874 1.698 6.523 1.814 9.516.302s4.855-4.413 4.854-7.563l-.011-.393a6.36 6.36 0 0 0 1.64-1.567 6.98 6.98 0 0 1-1.884.477c.685-.378 1.198-.974 1.445-1.675zM6.05 315.946a5.92 5.92 0 0 0 .798 2.973L6 322l3.167-.827a5.99 5.99 0 0 0 2.855.724h.002c3.293 0 5.974-2.668 5.975-5.946a5.93 5.93 0 0 0-1.749-4.208A5.99 5.99 0 0 0 12.025 310c-3.293 0-5.974 2.667-5.975 5.946zm6.099 2.46c.278.119.562.224.851.313a1.89 1.89 0 0 0 .578.087 2.44 2.44 0 0 0 .362-.028c.287-.043.883-.359 1.008-.707s.124-.644.087-.706c-.03-.05-.1-.084-.205-.134l-.082-.04-1.02-.483c-.137-.05-.236-.075-.336.074s-.386.484-.473.583-.174.111-.323.037l-.099-.044c-.21-.091-.625-.27-1.102-.694-.444-.394-.743-.88-.83-1.029s-.009-.229.065-.303c.045-.044.096-.107.148-.169l.076-.091c.064-.074.091-.13.129-.206l.021-.042c.05-.099.025-.186-.012-.261-.025-.049-.167-.393-.295-.704l-.165-.399c-.107-.255-.215-.255-.302-.254h-.002c-.011 0-.022 0-.032-.001l-.286-.005a.55.55 0 0 0-.398.186l-.029.031a1.64 1.64 0 0 0-.493 1.208c0 .728.529 1.431.608 1.536l.001.001.026.037c.179.256 1.125 1.606 2.524 2.207z" class="C B"/><path d="M9.836 339.544l.234-.263.572-.682.885-.498.156-.262.156-.446v-.367l.26-.288.156-.368h.312l.572.289.364.629.052.735.859.472.494.367.442.577.521 1.232.208.787.13.944.13.891.442.394.234.682.234.655.078.708-.312.63-.442.419-.573.105-.104.472-.26.656-.546.655-.598.525-.807.314-.911.236h-1.483l-1.093-.131-1.249-.419-.729-.367-.52-.368-.364-.288-.364-.446-.26-.367.104-.551.442-.262v-.393l.182-.63.364-.734.338-.603.338-.498.338-.315.26-.183v-.446l.078-.525.078-.839.156-.708.208-.655.234-.472z" fill="#fff"/><g fill="#383838"><path d="M12.557 336l.109.008c.189.027.386.12.566.264l.106.092.098.1.088.107a1.67 1.67 0 0 1 .346 1.047l-.008.142.099.038.248.116.17.095.197.13.127.095.112.093.092.083.188.19.082.09.139.173.115.16.14.221.128.229.157.322.084.197.138.374.036.11.004.022.008.016-.002.015.006-.002.096.334.066.262.131.672.058.401.029.241.043.394.015.161.012.004.063.026a.53.53 0 0 1 .173.135c.1.118.189.244.268.377.197.339.34.704.427 1.088l.045.232.031.235.012.17c.007.23-.022.457-.088.676a1.55 1.55 0 0 1-.448.696 1.8 1.8 0 0 1-.631.361l-.058.017-.056.009-.058.175-.138.344-.04.088-.167.313-.093.151-.07.104-.066.092-.071.093-.094.113-.107.119c-.503.535-1.158.903-1.97 1.103l-.406.084a7.09 7.09 0 0 1-1.19.094c-.339.001-.678-.017-1.014-.053l-.442-.059c-.815-.132-1.549-.38-2.185-.734a4.95 4.95 0 0 1-.48-.304l-.248-.19c-.155-.124-.301-.261-.436-.408l-.131-.151-.141-.182-.069-.102c-.062-.096-.118-.197-.164-.297a1.23 1.23 0 0 1-.124-.392l-.012-.141.003-.046.018-.094.027-.075.06-.111.039-.053.027-.03.071-.065.075-.05.084-.04.051-.019-.001-.029.002-.067.007-.072.012-.076.025-.114.033-.116c.136-.464.46-1.142.85-1.777.394-.643.668-.974.908-1.097l.058-.027.014-.325.023-.413.02-.251.025-.244.027-.204.047-.291.077-.37.049-.193.055-.191.091-.275.081-.211.088-.201.112-.228.114-.201.055-.09.056-.085.104-.147.101-.13.086-.102.09-.099.099-.101.136-.126.188-.157.1-.073.168-.112.087-.051.111-.063.163-.081.168-.073.072-.027c.011-.076.028-.145.051-.209l.041-.093.051-.087.037-.049-.022-.059-.021-.085a.64.64 0 0 1 .013-.278c.032-.119.098-.226.191-.308.046-.041.098-.074.155-.1l.055-.021.019-.067.011-.03.027-.062.049-.081.056-.07a.64.64 0 0 1 .22-.156c.037-.016.075-.028.117-.037l.064-.01.087-.003zm.156 2.18a3.42 3.42 0 0 0-.464.032 3.1 3.1 0 0 0-.578.137c-.429.145-.816.39-1.13.715-.625.647-1.002 1.62-1.122 2.9l-.02.26-.029.456-.019.234-.018.153.053.046a1.27 1.27 0 0 1 .151.174l.062.096c.399.661.449 1.646.093 2.316-.201.371-.508.673-.878.87l-.142.069-.136.053c-.157.074-.334.12-.544.143l-.163.013-.171.004-.342.001-.142.006c-.114.008-.15.025-.157.049-.017.063.11.35.314.617.344.45.885.862 1.52 1.156a6.13 6.13 0 0 0 1.48.462l.424.066c.363.045.729.067 1.097.066.758 0 1.42-.109 1.967-.322.46-.176.872-.457 1.2-.82a3.52 3.52 0 0 0 .678-1.182l.094-.301c.104-.382.173-.772.207-1.166.052-.566.051-1.192.001-1.915l-.025-.316-.041-.423-.052-.459c-.198-1.643-.666-2.821-1.386-3.502-.27-.259-.595-.452-.951-.566-.269-.083-.548-.124-.83-.122zm3.929 5.82l.011.27v.602l-.012.317-.022.312-.024.242-.042.311-.039.22.019-.011.117-.09.074-.074.02-.022a.85.85 0 0 0 .074-.1c.058-.091.101-.19.126-.295l.015-.069.011-.067.011-.104.001-.215-.007-.087c-.012-.117-.03-.232-.055-.347l-.029-.124-.035-.128-.039-.125-.067-.18-.042-.099-.066-.137zm-7.715-.471l-.019.017a1.24 1.24 0 0 0-.089.094l-.109.132-.14.189-.156.233c-.23.357-.437.729-.617 1.112l-.13.29-.046.113-.073.194-.051.153-.044.151.065.015c.128.02.315.014.504-.022l.113-.026.161-.051c.255-.089.483-.242.662-.441a1.44 1.44 0 0 0 .188-.275c.209-.392.217-.989.042-1.454l-.058-.136-.07-.128c-.035-.056-.072-.102-.102-.133l-.03-.027zm3.686-6.905l-.068-.006-.016.001-.014.02c-.017.031-.002.073.076.165l.045.05.092.099.025.038.008.02c.005.019.006.034.003.053l-.007.034-.039.079-.093.045-.097-.013a.97.97 0 0 0-.372-.113c-.043 0-.051.004-.053.013-.006.023.015.052.1.101l.122.065.135.066.024.018.011.012.024.035.015.044.002.023-.004.05-.015.039-.015.021-.014.015.083-.005.468.001.012.002.178.008.022.003v-.047c-.021-.413-.289-.815-.568-.917l-.07-.019z"/><path d="M10.14 349.612h-.148l.426 1.174-.004-.001H9.94l-.071.048-.017.05a.4.4 0 0 0-.013.158c.018.131.111.215.274.23l.074.002c.408-.013.65.104.831.333l.105.151.068.101.019.027c.087.112.183.146.305.085.172-.088.175-.257.065-.447l-.039-.061a1.56 1.56 0 0 0-.098-.128l-.034-.039.034.004c.471.035.701-.048.731-.24.01-.064-.006-.126-.037-.185-.014-.027-.028-.048-.039-.061l-.313-.029-.612.001a.25.25 0 0 1-.142-.05.27.27 0 0 1-.092-.127l-.308-.882-.065-.053-.429-.061zm3.349-.08l-.39.083-.06.105.203.576-.009-.003-.032-.002h-.459l-.071.047-.012.035a.28.28 0 0 0 .008.179c.046.113.165.182.362.197l.089.003c.373 0 .587.111.742.318l.056.085.098.158c.096.142.206.18.363.091.128-.073.143-.2.076-.34l-.038-.068a1.23 1.23 0 0 0-.107-.142l-.083-.09.135.016c.4.033.612-.045.668-.216a.29.29 0 0 0-.006-.187l-.02-.046-.068-.04-1.045.004c-.015 0-.029-.004-.042-.013s-.022-.02-.027-.034l-.239-.666-.092-.05zm-1.902-7.633a.4.4 0 0 0 .29-.479.39.39 0 0 0-.469-.296c-.21.05-.34.265-.29.479a.39.39 0 0 0 .47.296zm3.347-.051c.183-.115.24-.361.127-.548s-.354-.244-.537-.129-.24.361-.127.548.354.245.537.129zm-1.143.54l-.588-.248c-.02-.008-.041-.011-.062-.011s-.042.003-.062.011l-.588.248c-.019.006-.035.017-.048.032s-.02.034-.023.054.001.04.01.058.022.032.039.042l.596.394a.11.11 0 0 0 .074.022c.026.002.052-.006.073-.022l.597-.394c.017-.01.03-.025.039-.042s.012-.038.01-.058a.1.1 0 0 0-.023-.054c-.013-.016-.029-.026-.048-.032z"/></g><path d="M6.004 366v2.301A9.71 9.71 0 0 1 15.693 378H18c0-6.615-5.382-12-11.996-12zm-.003 4.076v2.3a5.57 5.57 0 0 1 3.966 1.647A5.59 5.59 0 0 1 11.612 378h2.311c0-4.37-3.554-7.924-7.921-7.924zm1.597 4.723A1.6 1.6 0 0 0 6 376.39c0 .88.716 1.59 1.598 1.59s1.6-.71 1.6-1.59a1.6 1.6 0 0 0-1.6-1.591zm10.651 19.559c.692.199 1.231.777 1.415 1.515h.001c.335 1.336.335 4.126.335 4.126s0 2.788-.335 4.126c-.184.737-.723 1.314-1.415 1.514-1.248.358-6.251.358-6.251.358s-5.004 0-6.251-.358c-.692-.199-1.231-.777-1.415-1.514C4 402.788 4 399.999 4 399.999s0-2.79.333-4.126c.184-.738.723-1.315 1.415-1.515C6.995 394 11.999 394 11.999 394s5.004 0 6.251.358zm-3.704 5.64l-4.182 2.531v-5.063l4.182 2.532zM17 426a3 3 0 1 0-3-3 3.01 3.01 0 0 0 .086.718l-4.575 2.641a3 3 0 1 0 .001 3.282l4.575 2.641A3.01 3.01 0 0 0 14 433a3 3 0 1 0 .488-1.641l-4.575-2.641a3.01 3.01 0 0 0 0-1.436l4.575-2.641A3 3 0 0 0 17 426zm0-1a2 2 0 1 0 0-4 2 2 0 1 0 0 4zm-10 5a2 2 0 1 0 0-4 2 2 0 1 0 0 4zm12 3a2 2 0 1 1-4 0 2 2 0 1 1 4 0zM7.526 450.005a1.4 1.4 0 0 0-1.31.651 1.4 1.4 0 0 0 1.275 2.146h.018c.526.046 1.034-.208 1.313-.656s.283-1.016.009-1.468-.778-.712-1.304-.673zm11.027 7.353V462h-2.69v-4.329c0-1.087-.389-1.83-1.363-1.83a1.47 1.47 0 0 0-1.38.985 1.83 1.83 0 0 0-.089.655V462H10.34v-8.092h2.69v1.145a2.67 2.67 0 0 1 2.425-1.337c1.771 0 3.097 1.156 3.097 3.642zm-5.522-2.303l-.017.027h.017v-.027zm-4.178 6.942h-2.69v-8.092h2.69v8.092zM19 479H5v2.1l7 4.9 7-4.9V479zm-7 7.9L5 482v7h14v-7l-7 4.9z" class="B C"/><g class="D"><path d="M4.8 519.2v-5.4h.9v5.4h-.9z"/><path d="M4.8 519.2v-.9h5.4v.9z"/><path d="M4.8 518.564l5.091-5.092.636.637-5.091 5.091-.636-.636zM19.2 504.8v5.4h-.9v-5.4h.9z"/><path d="M19.2 504.8v.9h-5.4v-.9z"/><path d="M19.2 505.436l-5.091 5.092-.636-.637 5.091-5.091.636.636z"/></g><g class="C"><path d="M19.801 538.573a.64.64 0 0 0-.906.015l-.848.88c-.13-1.601-.803-3.11-1.909-4.275a7.04 7.04 0 0 0-8.752-1.173 7.04 7.04 0 0 0-2.967 3.622c-.547 1.51-.559 3.163-.037 4.682s1.549 2.814 2.91 3.668a7.04 7.04 0 0 0 8.769-1.034.64.64 0 1 0-.915-.896 5.75 5.75 0 0 1-3.422 1.682c-1.299.155-2.612-.137-3.722-.828a5.76 5.76 0 0 1-2.386-2.974c-.434-1.234-.435-2.579-.002-3.814a5.75 5.75 0 0 1 2.383-2.976c1.11-.693 2.422-.986 3.721-.832a5.75 5.75 0 0 1 3.424 1.677c.918.933 1.49 2.15 1.623 3.451l-.798-.798a.65.65 0 0 0-.208-.143c-.078-.033-.162-.05-.247-.051a.64.64 0 0 0-.248.048.63.63 0 0 0-.21.139.66.66 0 0 0-.14.21.62.62 0 0 0-.048.248.64.64 0 0 0 .051.247.63.63 0 0 0 .143.207l1.933 1.934a.64.64 0 0 0 .453.187.64.64 0 0 0 .247-.053.65.65 0 0 0 .208-.144l1.913-1.991a.63.63 0 0 0 .138-.212c.031-.079.047-.164.046-.249a.64.64 0 0 0-.199-.454zM16.699 574c-1.838 0-3.354-1.49-3.354-3.328v-1.513c0-3.507 2.192-5.953 5.356-6.803.369-.099.746.096.909.442.208.442-.014.964-.416 1.242-1.155.799-1.861 2.218-1.861 3.41A2.67 2.67 0 0 1 20 570.117v.608c0 1.809-1.492 3.275-3.301 3.275zm-9.345 0C5.516 574 4 572.51 4 570.672v-1.513c0-3.507 2.202-5.954 5.368-6.803.369-.099.746.096.909.441.208.442-.014.965-.416 1.243-1.155.799-1.861 2.218-1.861 3.41 1.467 0 2.655 1.189 2.655 2.656v.619c0 1.809-1.492 3.275-3.301 3.275z"/><path d="M4 586h16v19.81H4V586zm.6.571h14.8v18.667H4.6v-18.667zm2.598 5.705a.31.31 0 0 0-.111.414.29.29 0 0 0 .403.108l1.512-.9a.31.31 0 0 0 .111-.415.29.29 0 0 0-.403-.108l-1.512.901zm2.434 2.874a.77.77 0 0 0 .035-.309.89.89 0 0 0-.265-.567.82.82 0 0 0-.561-.235.68.68 0 0 0-.292.054.72.72 0 0 0-.245.175.75.75 0 0 0-.154.265.77.77 0 0 0-.037.308c.017.217.111.421.264.57a.82.82 0 0 0 .562.236c.1.004.2-.015.293-.055a.71.71 0 0 0 .245-.176c.069-.076.121-.167.154-.266zm6.24 0a.77.77 0 0 0 .035-.309c-.018-.217-.113-.419-.265-.567a.82.82 0 0 0-.561-.235.68.68 0 0 0-.292.054.72.72 0 0 0-.245.175.75.75 0 0 0-.154.265.77.77 0 0 0-.037.308c.017.217.111.421.264.57a.82.82 0 0 0 .562.236c.1.004.2-.015.293-.055a.71.71 0 0 0 .245-.176.74.74 0 0 0 .154-.266zm-3.897 2.278h.05c2.513.009 4.546 1.285 4.546 2.858 0 .108-.092.19-.201.19h-.193c-.101 0-.177-.09-.177-.19 0-1.263-1.791-2.286-4-2.286s-4 1.023-4 2.286c0 .1-.077.19-.177.19H7.63c-.108 0-.201-.082-.201-.19 0-1.573 2.033-2.849 4.546-2.858zm2.911-5.945a.31.31 0 0 0 .111.415l1.512.9a.29.29 0 0 0 .404-.108.31.31 0 0 0-.111-.414l-1.512-.901a.29.29 0 0 0-.403.108zm4.915 38.361c-.243.381-.672.613-1.134.614H5.335c-.463 0-.894-.232-1.137-.615a1.26 1.26 0 0 1-.056-1.26 31.79 31.79 0 0 0 1.726-4.079v-3.62c.003-3.24 2.68-5.882 6.022-5.945h-1.227v-.646c0-.714.597-1.293 1.334-1.293s1.334.579 1.334 1.293v.646h-1.22c3.343.063 6.02 2.707 6.022 5.948v3.62a31.7 31.7 0 0 0 1.726 4.079 1.26 1.26 0 0 1-.058 1.258zm-2.875-5.287v-3.716c0-2.636-2.204-4.773-4.924-4.773s-4.924 2.137-4.924 4.773v3.716a38.78 38.78 0 0 1-2.054 4.893h13.939a36.97 36.97 0 0 1-2.037-4.893zm-4.928 9.776c-1.473 0-2.668-1.157-2.668-2.585h5.335c0 1.428-1.194 2.585-2.668 2.585z" class="B"/></g><path d="M12.646 646.093l-4.569 2.677H5.462a.46.46 0 0 0-.462.461v5.538a.46.46 0 0 0 .462.462h2.615l4.569 2.676c.302.227.738.013.738-.369v-11.076c0-.379-.434-.597-.738-.369zm-4.877 8.215H5.923v-4.615h1.846v4.615zm4.692 2.307l-3.769-2.077v-5.076l3.769-2.077v9.23zm4.517-9.51a.46.46 0 1 0-.653.653c1.131 1.131 1.754 2.637 1.754 4.242s-.623 3.111-1.754 4.242a.46.46 0 0 0 .326.788.46.46 0 0 0 .326-.135c1.306-1.306 2.025-3.044 2.025-4.895s-.719-3.589-2.025-4.895zm-2.442 1.305a.46.46 0 0 1 .653 0c1.979 1.98 1.979 5.201 0 7.18a.46.46 0 0 1-.653 0 .46.46 0 0 1 0-.652c1.619-1.62 1.619-4.256 0-5.876a.46.46 0 0 1 0-.652z" fill="#6db9ff" class="B"/><g stroke="#111" stroke-miterlimit="10" stroke-linejoin="round"><path d="M19.429 680A7.43 7.43 0 0 1 12 687.429 7.43 7.43 0 0 1 4.571 680 7.43 7.43 0 0 1 12 672.571 7.43 7.43 0 0 1 19.429 680z" class="E"/><g class="F"><path d="M12 681.058c1.416 0 2.564-1.148 2.564-2.564s-1.148-2.565-2.564-2.565-2.564 1.148-2.564 2.565 1.148 2.564 2.564 2.564z"/><path d="M6.564 684.699c.923-2.102 2.975-3.59 5.436-3.59s4.564 1.488 5.436 3.59" class="G"/></g><path d="M111.429 664c0 15.148-12.281 27.429-27.429 27.429S56.571 679.148 56.571 664 68.852 636.571 84 636.571s27.429 12.281 27.429 27.429z" class="E"/><g class="F"><path d="M84.001 669.703a8.98 8.98 0 0 0 8.975-8.975c0-4.957-4.018-8.975-8.975-8.975s-8.975 4.018-8.975 8.975a8.98 8.98 0 0 0 8.975 8.975z"/><path d="M64.972 682.448c3.231-7.36 10.411-12.566 19.027-12.566s15.976 5.206 19.027 12.566" class="G"/></g></g><g class="B"><path d="M7 700h10v16H7v-16zm-3 2.5h1.5v11H4v-11zm16 0h-1.5v11H20v-11z" class="D"/><path d="M35 700h10v16H35v-16zm-3 2.5h1.5v11H32v-11zm16 0h-1.5v11H48v-11z" fill="#fff"/></g><defs ><path id="B" d="M6 38a2 2 0 1 0 0-4 2 2 0 1 0 0 4zm0-1a1 1 0 1 0 0-2 1 1 0 1 0 0 2zm6 1a2 2 0 1 0 0-4 2 2 0 1 0 0 4zm0-1a1 1 0 1 0 0-2 1 1 0 1 0 0 2zm8-1a2 2 0 1 1-4 0 2 2 0 1 1 4 0zm-1 0a1 1 0 1 1-2 0 1 1 0 1 1 2 0z"/></defs></svg>