<svg width="60" height="60" viewBox="0 0 60 60" fill="none" xmlns="http://www.w3.org/2000/svg">
<path fill-rule="evenodd" clip-rule="evenodd" d="M0 0H60V60H0V0Z" fill="#111111" fill-opacity="0.08"/>
<path d="M22.7315 36.0309H46.25L44.6991 33.4444H21.1806L22.7315 36.0309Z" fill="white"/>
<path d="M25.6713 40.7396H49.2014L47.6505 38.1643H24.132L25.6713 40.7396Z" fill="white"/>
<path d="M28.6343 45.4513H52.1528L50.6019 42.876H27.0718L28.6343 45.4513Z" fill="white"/>
<path d="M31.4699 50H55L53.4491 47.4135H29.919L31.4699 50Z" fill="white"/>
<path d="M31.4699 50L29.9189 47.4242L28.368 49.9995L31.4699 50Z" fill="white"/>
<path d="M25.7871 49.9076L28.6227 45.3489L27.0834 42.876L22.6852 49.9076H25.7871Z" fill="white"/>
<path d="M19.8843 49.905L25.6713 40.6371L24.132 38.1643L16.794 49.905H19.8843Z" fill="white"/>
<path d="M13.9931 49.905L22.7315 35.9173L21.1806 33.4444L10.9028 49.905H13.9931Z" fill="white"/>
<path d="M30 10L5 49.9877H8.09028L31.5509 12.473L30 10Z" fill="white"/>
<path d="M37.6621 30.8963L40.382 26.5312L38.8426 24.0584L34.5718 30.8963H37.6621Z" fill="white"/>
<path d="M31.7708 30.8963L37.4421 21.8221L35.8912 19.3493L28.669 30.8963H31.7708Z" fill="white"/>
<path d="M25.8797 30.8963L34.4908 17.1022L32.9514 14.6294L22.7894 30.8963H25.8797Z" fill="white"/>
</svg>
