<svg xmlns="http://www.w3.org/2000/svg" width="30" height="30" fill="none"><path fill="#232028" fill-rule="evenodd" d="m18.712 15.476.341-3.064h-2.946c0-.706-.028-1.368.011-2.026.024-.402.322-.605.766-.614.41-.01.819-.003 1.228-.003h.87V6.742c-1.334.043-2.654.021-3.957.15-.989.099-1.766.642-2.277 1.459-.41.655-.56 1.374-.567 2.122-.006.631-.001 1.263-.001 1.934h-1.824v3.077h1.827v8.653h3.904v-8.662h2.625ZM14.689.944c7.986-.027 14.462 6.43 14.51 14.466.05 7.989-6.45 14.507-14.48 14.526C6.709 29.955.208 23.46.209 15.44.208 7.432 6.662.972 14.688.944Z" clip-rule="evenodd"/></svg>
