<svg xmlns="http://www.w3.org/2000/svg" width="31" height="25" fill="none"><path fill="#232028" fill-rule="evenodd" d="M.488 21.595c3.258.266 6.2-.516 8.866-2.457-2.783-.23-4.646-1.575-5.676-4.104.936.12 1.805.129 2.688-.111-3.47-.818-4.9-3.8-4.78-5.832.833.39 1.686.67 2.702.694C2.748 8.699 1.864 7.31 1.654 5.56c-.152-1.266.098-2.471.78-3.608 3.29 3.743 7.448 5.8 12.533 6.147-.038-.348-.092-.667-.106-.987-.101-2.38.913-4.201 2.996-5.448 2.223-1.33 5.312-.996 7.195.762.237.221.435.269.756.193a13 13 0 0 0 3.354-1.297c.002.725-1.033 2.053-2.427 3.198.357-.063.716-.113 1.069-.192a15 15 0 0 0 1.116-.296c.355-.11.702-.244 1.052-.368l.06.06c-.486.549-.947 1.12-1.463 1.64-.414.417-.888.777-1.35 1.147a.45.45 0 0 0-.19.402c.077 4.086-1.185 7.755-3.752 10.986-2.602 3.274-6.03 5.279-10.23 6.018-3.184.56-6.31.327-9.356-.759a15.3 15.3 0 0 1-3.203-1.563" clip-rule="evenodd"/></svg>