<svg width="117" height="60" viewBox="0 0 117 60" fill="none" xmlns="http://www.w3.org/2000/svg">
<g clip-path="url(#clip0_236_4871)">
<path d="M113.366 3.70374H4.35938V55.5556H113.366V3.70374Z" stroke="white" stroke-width="1.42547"/>
<path d="M5.34053 0.740845H2.17998C1.37728 0.740845 0.726562 1.40413 0.726562 2.22233V5.44391C0.726562 6.26211 1.37728 6.92539 2.17998 6.92539H5.34053C6.14323 6.92539 6.79395 6.26211 6.79395 5.44391V2.22233C6.79395 1.40413 6.14323 0.740845 5.34053 0.740845Z" fill="black" stroke="white" stroke-width="1.42547"/>
<path d="M114.712 0.740845H111.551C110.748 0.740845 110.098 1.40413 110.098 2.22233V5.44391C110.098 6.26211 110.748 6.92539 111.551 6.92539H114.712C115.514 6.92539 116.165 6.26211 116.165 5.44391V2.22233C116.165 1.40413 115.514 0.740845 114.712 0.740845Z" fill="black" stroke="white" stroke-width="1.42547"/>
<path d="M5.34053 52.5927H2.17998C1.37728 52.5927 0.726562 53.2559 0.726562 54.0741V57.2957C0.726562 58.1139 1.37728 58.7772 2.17998 58.7772H5.34053C6.14323 58.7772 6.79395 58.1139 6.79395 57.2957V54.0741C6.79395 53.2559 6.14323 52.5927 5.34053 52.5927Z" fill="black" stroke="white" stroke-width="1.42547"/>
<path d="M114.712 52.5927H111.551C110.748 52.5927 110.098 53.2559 110.098 54.0741V57.2957C110.098 58.1139 110.748 58.7772 111.551 58.7772H114.712C115.514 58.7772 116.165 58.1139 116.165 57.2957V54.0741C116.165 53.2559 115.514 52.5927 114.712 52.5927Z" fill="black" stroke="white" stroke-width="1.42547"/>
<path d="M87.2034 6.66675H30.5201C18.0783 6.66675 7.99219 16.9476 7.99219 29.6297C7.99219 42.3118 18.0783 52.5927 30.5201 52.5927H87.2034C99.6452 52.5927 109.731 42.3118 109.731 29.6297C109.731 16.9476 99.6452 6.66675 87.2034 6.66675Z" fill="white"/>
<path d="M50.8714 29.6297C50.8714 18.1749 41.7614 8.88892 30.5236 8.88892C19.2858 8.88892 10.1758 18.1749 10.1758 29.6297C10.1758 41.0845 19.2858 50.3704 30.5236 50.3704C41.7614 50.3704 50.8714 41.0845 50.8714 29.6297Z" fill="black"/>
<path fill-rule="evenodd" clip-rule="evenodd" d="M30.5234 29.6331C30.5234 27.533 32.1937 25.8304 34.2541 25.8304C36.3145 25.8304 37.9848 27.533 37.9848 29.6331C37.9848 31.7333 36.3145 33.4359 34.2541 33.4359C32.1937 33.4359 30.5234 31.7333 30.5234 29.6331Z" fill="#1ABCFE"/>
<path fill-rule="evenodd" clip-rule="evenodd" d="M23.0586 37.2344C23.0586 35.1343 24.7289 33.4318 26.7892 33.4318H30.5199V37.2344C30.5199 39.3347 28.8496 41.0372 26.7892 41.0372C24.7289 41.0372 23.0586 39.3347 23.0586 37.2344Z" fill="#0ACF83"/>
<path fill-rule="evenodd" clip-rule="evenodd" d="M30.5234 18.2234V25.8287H34.2541C36.3145 25.8287 37.9848 24.1262 37.9848 22.0261C37.9848 19.9259 36.3145 18.2234 34.2541 18.2234H30.5234Z" fill="#FF7262"/>
<path fill-rule="evenodd" clip-rule="evenodd" d="M23.0586 22.0261C23.0586 24.1262 24.7289 25.8287 26.7892 25.8287H30.5199V18.2234H26.7892C24.7289 18.2234 23.0586 19.9259 23.0586 22.0261Z" fill="#F24E1E"/>
<path fill-rule="evenodd" clip-rule="evenodd" d="M23.0586 29.6331C23.0586 31.7333 24.7289 33.4359 26.7892 33.4359H30.5199V25.8304H26.7892C24.7289 25.8304 23.0586 27.533 23.0586 29.6331Z" fill="#A259FF"/>
<path d="M107.551 29.6297C107.551 18.1749 98.4411 8.88892 87.2033 8.88892C75.9655 8.88892 66.8555 18.1749 66.8555 29.6297C66.8555 41.0845 75.9655 50.3704 87.2033 50.3704C98.4411 50.3704 107.551 41.0845 107.551 29.6297Z" fill="black"/>
<path fill-rule="evenodd" clip-rule="evenodd" d="M97.3496 23.9236L91.1362 36.2043H85.3008L87.9009 31.1146H87.7847C85.6394 33.9302 82.439 35.7837 77.8789 36.2043V31.1851C77.8789 31.1851 80.7959 31.0108 82.5109 29.1877H77.8789V23.9237H83.085V28.2533L83.202 28.2528L85.3291 23.9237H89.2664V28.2258L89.3834 28.2257L91.5904 23.9236H97.3496Z" fill="#146EF5"/>
<path d="M62.4975 29.6296H55.2305" stroke="#111111" stroke-width="0.950311" stroke-linecap="round"/>
<path d="M58.8633 33.3334V25.926" stroke="#111111" stroke-width="0.950311" stroke-linecap="round"/>
</g>
<defs>
<clipPath id="clip0_236_4871">
<rect width="117" height="60" fill="white"/>
</clipPath>
</defs>
</svg>
