<svg width="34" height="34" viewBox="0 0 34 34" fill="none" xmlns="http://www.w3.org/2000/svg">
<g clip-path="url(#clip0_641_39)">
<path d="M16.2344 29.9063C16.2344 30.5104 15.7448 31 15.1406 31H8.85156C6.43912 31 4.47656 29.0374 4.47656 26.625V7.375C4.47656 4.96255 6.43912 3 8.85156 3H22.2987C24.7109 3 26.6737 4.96255 26.6737 7.375V18.9688C26.6737 19.5729 26.1839 20.0625 25.58 20.0625C24.9758 20.0625 24.4862 19.5729 24.4862 18.9688V7.375C24.4862 6.16888 23.5048 5.1875 22.2987 5.1875H8.85156C7.64545 5.1875 6.66406 6.16888 6.66406 7.375V26.625C6.66406 27.8311 7.64545 28.8125 8.85156 28.8125H15.1406C15.7448 28.8125 16.2344 29.3021 16.2344 29.9063ZM29.121 20.8138C28.6299 20.4622 27.9467 20.5754 27.5951 21.0663L22.2039 28.597C22.0567 28.7676 21.8721 28.8044 21.7734 28.811C21.6713 28.8176 21.4739 28.8048 21.3045 28.6435L17.8143 25.2922C17.3788 24.8739 16.6864 24.8878 16.2679 25.3236C15.8494 25.7594 15.8635 26.4518 16.2993 26.87L19.7929 30.2248C20.3163 30.7227 21.0146 31 21.7332 31C21.795 31 21.8569 30.9979 21.9189 30.9938C22.7016 30.9417 23.4324 30.561 23.9239 29.9492C23.9366 29.9336 23.9489 29.9174 23.9607 29.9009L29.3737 22.3397C29.7253 21.8486 29.6123 21.1654 29.121 20.8138ZM21.205 9.5625H9.93933C9.3352 9.5625 8.84558 10.0521 8.84558 10.6563C8.84558 11.2604 9.3352 11.75 9.93933 11.75H21.205C21.8089 11.75 22.2987 11.2604 22.2987 10.6563C22.2987 10.0521 21.8089 9.5625 21.205 9.5625ZM22.2987 15.0313C22.2987 14.4271 21.8089 13.9375 21.205 13.9375H9.93933C9.3352 13.9375 8.84558 14.4271 8.84558 15.0313C8.84558 15.6354 9.3352 16.125 9.93933 16.125H21.205C21.8089 16.125 22.2987 15.6354 22.2987 15.0313ZM9.93933 18.3125C9.3352 18.3125 8.84558 18.8021 8.84558 19.4063C8.84558 20.0104 9.3352 20.5 9.93933 20.5H16.7812C17.3854 20.5 17.875 20.0104 17.875 19.4063C17.875 18.8021 17.3854 18.3125 16.7812 18.3125H9.93933Z" fill="white" stroke="#080808" stroke-width="0.4"/>
</g>
<defs>
<clipPath id="clip0_641_39">
<rect width="28" height="28" fill="white" transform="translate(3 3)"/>
</clipPath>
</defs>
</svg>
