
<svg xmlns="http://www.w3.org/2000/svg" width="29" height="29" fill="none">
  <mask id="a" width="29" height="30" x="0" y="-1" maskUnits="userSpaceOnUse" style="mask-type:luminance">
    <path fill="#fff" fill-rule="evenodd" d="M.116-.004H28.59v28.188H.116V-.004Z" clip-rule="evenodd"/>
  </mask>
  <g mask="url(#a)">
    <path fill="#232028" fill-rule="evenodd" d="M7.233 9.26c1.213 0 2.223-1.001 2.21-2.189-.015-1.19-1.048-2.187-2.248-2.167-1.183.02-2.163 1.003-2.168 2.174-.006 1.21.977 2.183 2.206 2.182ZM5.36 22.94h3.705V10.946H5.36v11.996Zm9.927.003v-.703c0-1.773-.01-3.547.006-5.321.005-.456.05-.92.148-1.365.166-.757.573-1.336 1.39-1.542 1.539-.39 2.598.36 2.637 1.956.051 2.086.031 4.174.041 6.26v.69h3.774c0-2.616.007-5.18-.007-7.744-.002-.413-.074-.831-.152-1.24-.4-2.092-1.682-3.18-3.827-3.313-1.671-.105-3.061.389-4.17 1.934v-1.61h-3.599v11.998h3.759ZM13.26-.005h2.153c.119.033.235.083.356.095 5.71.555 10.553 4.467 12.183 9.896.297.988.43 2.023.638 3.037v2.13c-.047.304-.098.609-.142.914-1.11 7.693-8.375 13.085-16.126 11.97C4.778 26.95-.515 20.3.176 12.77.701 7.052 4.666 2.241 10.246.614c.98-.286 2.008-.417 3.014-.619Z" clip-rule="evenodd"/>
  </g>
</svg>