<svg width="137" height="75" viewBox="0 0 137 75" fill="none" xmlns="http://www.w3.org/2000/svg">
<path d="M0.551732 72.6004C0.254646 72.6004 0 72.36 0 72.0205L0.042441 69.9698C0.042441 69.6587 0.311233 69.4183 0.60832 69.4183L6.91787 69.5314L0.396115 63.5349C0.28294 63.4359 0.169764 63.2945 0.169764 63.0824L0.212205 60.7488C0.226352 60.3104 0.721496 60.0841 1.06102 60.3953L7.80913 66.618L15.7456 60.2255C16.0568 59.9993 16.5661 60.1973 16.552 60.664L16.5095 63.2096C16.5095 63.4501 16.4105 63.5774 16.3398 63.6198L8.71454 69.5739L15.8305 69.7011C16.1276 69.7011 16.3822 69.9698 16.3822 70.2668L16.3398 72.3175C16.3398 72.6428 16.071 72.8691 15.7597 72.8691L0.551732 72.6004Z" fill="white"/>
<path d="M2.68797 51.5C2.46162 51.4293 2.32015 51.1748 2.37674 50.9485L2.97091 48.8554C3.04164 48.6291 3.29629 48.4876 3.52264 48.5584L18.3911 52.7729C18.6175 52.8436 18.7589 53.0982 18.7023 53.3244L18.1082 55.4176C18.0374 55.6438 17.7828 55.7853 17.5564 55.7146L2.68797 51.5Z" fill="white"/>
<path d="M7.10166 38.8429C6.9036 38.7156 6.81872 38.461 6.94604 38.2347L10.3555 32.4928C11.7843 30.0885 14.8825 29.2541 17.2733 30.6684C19.1266 31.7574 19.9047 33.8788 19.5793 36.0426L26.3132 36.3113C26.6528 36.3255 26.8933 36.6649 26.6952 37.0043L25.4503 39.1116C25.3371 39.2954 25.1815 39.3379 25.0825 39.3237L18.1787 38.8429L16.8631 41.0774L21.9843 44.1039C22.1823 44.2171 22.2531 44.5141 22.1399 44.7121L21.0506 46.5648C20.9232 46.7911 20.6403 46.8335 20.4423 46.7203L7.10166 38.8429ZM16.6367 36.5093C17.2592 35.4486 16.8914 33.9778 15.7596 33.3131C14.6986 32.6767 13.2697 33.0868 12.6331 34.1475L10.695 37.4145L14.6986 39.7904L16.6367 36.5093Z" fill="white"/>
<path d="M20.0881 20.5424C19.9325 20.3585 19.9466 20.0898 20.1447 19.9201L25.2234 15.5783C27.3455 13.7539 30.5568 13.966 32.3535 16.0874C33.7541 17.728 33.8106 19.9767 32.7921 21.9142L39.0733 24.3326C39.3987 24.4599 39.5119 24.8559 39.2148 25.1105L37.3474 26.7086C37.1918 26.85 37.022 26.8359 36.923 26.7934L30.5427 24.1063L28.5763 25.7893L32.4525 30.315C32.6082 30.4988 32.5799 30.7817 32.4101 30.9372L30.7832 32.3374C30.5851 32.5071 30.3022 32.4646 30.1607 32.2949L20.0881 20.5424ZM29.8495 21.4051C30.7832 20.5989 30.9105 19.0857 30.0617 18.0957C29.2553 17.1481 27.7699 17.0774 26.8362 17.8694L23.9361 20.3444L26.9635 23.8659L29.8495 21.4051Z" fill="white"/>
<path d="M37.6021 7.98344C37.503 7.7713 37.6021 7.48845 37.8143 7.38945L39.7665 6.44189C39.9788 6.34289 40.2617 6.44189 40.3607 6.65403L47.0947 20.5704C47.1937 20.7826 47.0947 21.0654 46.8825 21.1644L44.9302 22.112C44.718 22.211 44.435 22.112 44.336 21.8998L37.6021 7.98344Z" fill="white"/>
<path d="M50.2219 2.43905C50.1795 2.21277 50.3634 1.98649 50.5898 1.94406L51.1698 1.84506L62.4874 10.3872H62.5157L60.8888 0.88336C60.8463 0.657077 61.0019 0.416651 61.2566 0.374223L63.3786 0.00651322C63.605 -0.0359148 63.8596 0.133797 63.8879 0.374223L66.5334 15.8605C66.5758 16.0867 66.3919 16.313 66.1656 16.3555L65.6139 16.4545L54.1831 7.51628H54.1548L55.8383 17.4162C55.8807 17.6424 55.7251 17.8829 55.4705 17.9253L53.3767 18.2789C53.1504 18.3213 52.9099 18.1516 52.8674 17.9112L50.2219 2.43905Z" fill="white"/>
<path d="M84.8821 2.3534C84.9528 2.12712 85.1933 1.98569 85.4479 2.0564L94.502 4.92737C94.7425 4.99808 94.8557 5.26679 94.7991 5.47893L94.2191 7.30334C94.1483 7.52962 93.9078 7.67105 93.6673 7.60034L87.0749 5.52136L85.7592 9.7076L91.2482 11.433C91.4746 11.5037 91.6019 11.7724 91.5311 11.9846L90.9511 13.809C90.8804 14.0353 90.6116 14.1767 90.3994 14.0918L84.8962 12.3523L83.1137 17.9811C83.043 18.2074 82.7742 18.3346 82.562 18.2781L80.5107 17.6275C80.2702 17.5426 80.157 17.2881 80.2136 17.0759L84.8821 2.3534Z" fill="white"/>
<path d="M102.424 9.4957C102.551 9.2977 102.834 9.22699 103.032 9.34013L104.899 10.4574C105.097 10.5847 105.168 10.8675 105.055 11.0655L97.076 24.3031C96.9628 24.5011 96.6657 24.5718 96.4677 24.4587L94.6003 23.3414C94.4022 23.2141 94.3315 22.9313 94.4446 22.7333L102.424 9.4957Z" fill="white"/>
<path d="M113.925 16.9918C114.095 16.8363 114.378 16.8646 114.533 17.0343L114.929 17.4586L114.01 31.6012L114.024 31.6154L121.083 25.039C121.253 24.8835 121.536 24.8693 121.706 25.0532L123.177 26.623C123.333 26.7927 123.333 27.0897 123.149 27.2453L111.661 37.9655C111.492 38.121 111.209 38.1069 111.053 37.923L110.671 37.5129L111.86 23.0732L111.845 23.0591L104.503 29.9041C104.333 30.0597 104.05 30.0738 103.881 29.8758L102.438 28.3201C102.282 28.1504 102.282 27.8534 102.466 27.6837L113.925 16.9918Z" fill="white"/>
<path d="M132.883 43.4529C133.789 45.6308 133.76 47.4977 133.053 49.5059C132.954 49.7746 132.699 49.8736 132.459 49.7746L130.549 49.0251C130.308 48.9402 130.224 48.7281 130.323 48.4877C130.747 47.2572 130.719 45.843 130.209 44.6408C129.063 41.883 125.909 40.794 123.192 41.9255C120.505 43.0427 119.076 46.0693 120.222 48.8271C120.759 50.1141 121.707 51.0192 122.825 51.6132C123.051 51.7263 123.122 51.9668 123.051 52.1506L122.23 54.0599C122.146 54.2862 121.849 54.371 121.636 54.272C119.599 53.3952 118.17 51.8253 117.364 49.9019C115.567 45.5884 117.562 40.695 121.863 38.8989C126.178 37.1169 131.087 39.1535 132.883 43.4529Z" fill="white"/>
<path d="M136.022 58.8972C136.249 58.883 136.475 59.0952 136.489 59.3214L136.574 61.4853C136.588 61.7398 136.39 61.9378 136.15 61.952L129.968 62.2065L130.279 69.8153L136.461 69.5607C136.687 69.5466 136.914 69.7305 136.914 69.985L136.999 72.1347C137.013 72.3751 136.801 72.5873 136.574 72.6014L121.14 73.252C120.914 73.2661 120.687 73.054 120.673 72.8277L120.588 70.678C120.574 70.4234 120.786 70.2254 121.013 70.2113L127.449 69.9426L127.124 62.3338L120.687 62.6025C120.447 62.6167 120.234 62.4328 120.22 62.1783L120.135 60.0144C120.121 59.7881 120.333 59.5619 120.56 59.5477L136.022 58.8972Z" fill="white"/>
<path d="M74.9086 74.2423C74.0456 74.2423 73.1968 73.917 72.546 73.2665L71.0181 71.7391C70.3815 71.1027 70.042 70.2682 70.042 69.3772C70.042 68.4863 70.3957 67.6377 71.0181 67.0154L72.5884 65.4456C73.89 64.1444 76.012 64.1444 77.3277 65.4456L78.8556 66.973C80.1571 68.2741 80.1571 70.3955 78.8556 71.7108L77.2852 73.2806C76.6203 73.917 75.7574 74.2423 74.9086 74.2423ZM73.2534 66.0961L71.683 67.666C71.2303 68.1185 70.9757 68.7267 70.9757 69.3631C70.9757 70.0137 71.2303 70.6077 71.683 71.0744L73.2109 72.6018C74.1446 73.5352 75.6725 73.5352 76.6203 72.6018L78.1906 71.0319C79.1243 70.0985 79.1243 68.5711 78.1906 67.6235L76.6628 66.0961C75.7149 65.1627 74.1871 65.1627 73.2534 66.0961Z" fill="white"/>
<path d="M74.9086 60.8908C74.0173 60.8908 73.1685 60.5372 72.546 59.9149L71.0181 58.3875C70.3815 57.7511 70.042 56.9167 70.042 56.0257C70.042 55.1347 70.3957 54.2861 71.0181 53.6638L72.5884 52.094C73.2251 51.4576 74.0597 51.1182 74.951 51.1182C75.8422 51.1182 76.6911 51.4717 77.3135 52.094L78.8414 53.6214C79.478 54.2578 79.8176 55.0923 79.8176 55.9832C79.8176 56.8742 79.4639 57.7228 78.8414 58.3451L77.2711 59.9149C76.6345 60.5513 75.7998 60.8908 74.9086 60.8908ZM74.951 52.0374C74.3144 52.0374 73.7061 52.292 73.2534 52.7446L71.683 54.3144C71.2303 54.767 70.9757 55.3751 70.9757 56.0115C70.9757 56.648 71.2303 57.2561 71.683 57.7087L73.2109 59.2361C73.6636 59.6886 74.2719 59.9432 74.9086 59.9432C75.5452 59.9432 76.1535 59.6886 76.6062 59.2361L78.1765 57.6662C78.6292 57.2137 78.8838 56.6055 78.8838 55.9691C78.8838 55.3327 78.6292 54.7245 78.1765 54.272L76.6486 52.7446C76.1959 52.292 75.6018 52.0374 74.951 52.0374Z" fill="white"/>
<path d="M62.2884 74.2423C61.4255 74.2423 60.5767 73.917 59.9259 73.2665L58.398 71.7391C57.7614 71.1027 57.4219 70.2682 57.4219 69.3772C57.4219 68.4863 57.7755 67.6377 58.398 67.0154L59.9683 65.4456C61.2699 64.1444 63.3919 64.1444 64.6934 65.4456L66.2213 66.973C67.5228 68.2741 67.5228 70.3955 66.2213 71.7108L64.651 73.2806C64.0002 73.917 63.1514 74.2423 62.2884 74.2423ZM60.6332 66.0961L59.0629 67.666C58.6102 68.1185 58.3556 68.7267 58.3556 69.3631C58.3556 69.9995 58.6102 70.6077 59.0629 71.0602L60.5908 72.5876C61.5245 73.5211 63.0524 73.5211 64.0002 72.5876L65.5705 71.0178C66.5042 70.0844 66.5042 68.557 65.5705 67.6094L64.0427 66.082C63.109 65.1627 61.5811 65.1627 60.6332 66.0961Z" fill="white"/>
<path d="M62.2884 60.8908C61.3972 60.8908 60.5484 60.5372 59.9259 59.9149L58.398 58.3875C57.7614 57.7511 57.4219 56.9167 57.4219 56.0257C57.4219 55.1347 57.7755 54.2861 58.398 53.6638L59.9683 52.094C60.6049 51.4576 61.4396 51.1182 62.3309 51.1182C63.2221 51.1182 64.071 51.4717 64.6934 52.094L66.2213 53.6214C67.5228 54.9225 67.5228 57.0439 66.2213 58.3592L64.651 59.9291C64.0285 60.5513 63.1938 60.8908 62.2884 60.8908ZM62.345 52.0374C61.7084 52.0374 61.1001 52.292 60.6474 52.7446L59.0771 54.3144C58.6244 54.767 58.3697 55.3751 58.3697 56.0115C58.3697 56.648 58.6244 57.2561 59.0771 57.7087L60.6049 59.2361C61.0576 59.6886 61.666 59.9432 62.3026 59.9432C62.9392 59.9432 63.5475 59.6886 64.0002 59.2361L65.5705 57.6662C66.5042 56.7328 66.5042 55.2054 65.5705 54.2578L64.0427 52.7304C63.59 52.292 62.9816 52.0374 62.345 52.0374Z" fill="white"/>
<path d="M55.1875 38.3471V38.0218C55.1875 37.9511 55.2582 37.8945 55.3573 37.8945H61.1009C61.2 37.8945 61.2707 37.9511 61.2707 38.0218V38.333C61.2707 38.3895 61.2 38.4461 61.1009 38.4461H55.3573C55.2582 38.4602 55.1875 38.4037 55.1875 38.3471Z" fill="white"/>
<path d="M48.665 30.3991C48.665 30.286 48.7641 30.1729 48.8914 30.1729H53.574C53.7014 30.1729 53.8004 30.286 53.8004 30.3991V30.7386C53.8004 30.8517 53.7014 30.9648 53.574 30.9648H49.5704V33.8641H52.9799C53.1072 33.8641 53.2062 33.9772 53.2062 34.0904V34.4298C53.2062 34.5571 53.093 34.6561 52.9799 34.6561H49.5704V37.6826H53.574C53.7014 37.6826 53.8004 37.7958 53.8004 37.9089V38.2483C53.8004 38.3756 53.7014 38.4746 53.574 38.4746H48.8914C48.7641 38.4746 48.665 38.3615 48.665 38.2483V30.3991Z" fill="white"/>
<path d="M54.7205 34.5862C54.7629 34.5437 54.7912 34.4872 54.8337 34.4447C54.9044 34.3457 54.9893 34.2892 55.1025 34.374C55.1591 34.4165 55.7108 34.9539 56.3757 34.9539C56.984 34.9539 57.3801 34.572 57.3801 34.1195C57.3801 33.5962 56.9274 33.285 56.0645 32.9315C55.2298 32.5638 54.7347 32.2385 54.7347 31.3758C54.7347 30.8666 55.1449 30.0322 56.3474 30.0322C57.083 30.0322 57.6348 30.4141 57.6348 30.4141C57.6772 30.4424 57.7763 30.5272 57.6772 30.6686C57.6489 30.7111 57.6206 30.7676 57.5923 30.8101C57.5216 30.9232 57.4509 30.9515 57.3236 30.8808C57.267 30.8525 56.8001 30.5414 56.3333 30.5414C55.5269 30.5414 55.2864 31.0505 55.2864 31.3616C55.2864 31.8708 55.6684 32.1678 56.305 32.4223C57.3235 32.8325 57.9743 33.2285 57.9743 34.0912C57.9743 34.8832 57.2245 35.4489 56.3474 35.4489C55.4561 35.4489 54.8478 34.9256 54.7488 34.8407C54.7064 34.7983 54.6356 34.7276 54.7205 34.5862Z" fill="white"/>
<path d="M59.7003 30.5272H58.3846C58.2998 30.5272 58.2432 30.4565 58.2432 30.3858V30.1737C58.2432 30.1029 58.2998 30.0322 58.3846 30.0322H61.5818C61.6667 30.0322 61.7233 30.1029 61.7233 30.1737V30.3858C61.7233 30.4565 61.6667 30.5272 61.5818 30.5272H60.2662V35.1519C60.2662 35.2226 60.1954 35.2933 60.1247 35.2933H59.8418C59.771 35.2933 59.7003 35.2226 59.7003 35.1519V30.5272Z" fill="white"/>
<path d="M65.7979 37.909C66.774 36.8625 67.736 35.8018 68.7121 34.7552C69.5185 33.8784 69.9146 33.1712 69.9146 32.6055C69.9146 31.9267 69.4761 31.0923 68.2453 31.0923C67.5096 31.0923 66.9296 31.5873 66.5618 31.9833C66.4628 32.0823 66.3354 32.0823 66.2364 31.9833L65.9959 31.757C65.9252 31.6721 65.8969 31.5448 65.9818 31.4458C65.9818 31.4458 66.8306 30.2861 68.2453 30.2861C69.9429 30.2861 70.82 31.361 70.82 32.5772C70.82 33.6238 70.1551 34.4017 69.3346 35.2785C68.5707 36.0846 67.8209 36.9049 67.0569 37.711H70.5512C70.6644 37.711 70.7776 37.8242 70.7776 37.9373V38.2626C70.7776 38.3899 70.6644 38.4889 70.5512 38.4889H66.0383C65.911 38.4889 65.812 38.3758 65.812 38.2626V37.909H65.7979Z" fill="white"/>
<path d="M72.1348 34.3308C72.1348 31.7285 73.1816 30.1729 75.0207 30.1729C76.8598 30.1729 77.9067 31.7285 77.9067 34.3308C77.9067 36.9331 76.8598 38.4887 75.0207 38.4887C73.1675 38.5029 72.1348 36.9331 72.1348 34.3308ZM77.0579 34.3308C77.0579 32.1811 76.3223 30.9366 75.0066 30.9366C73.7051 30.9366 72.9553 32.167 72.9553 34.3308C72.9553 36.5088 73.6909 37.725 75.0066 37.725C76.3223 37.725 77.0579 36.5088 77.0579 34.3308Z" fill="white"/>
<path d="M80.3414 31.8844L79.4925 32.5491C79.3935 32.6198 79.3086 32.634 79.2237 32.535L78.9974 32.2804C78.9125 32.1814 78.9691 32.0824 79.0257 32.0117L80.695 30.3994H81.0204C81.1336 30.3994 81.2326 30.5126 81.2326 30.6257V38.2627C81.2326 38.3759 81.1336 38.489 81.0204 38.489H80.596C80.4687 38.489 80.3696 38.3759 80.3696 38.2627V31.8844H80.3414Z" fill="white"/>
<path d="M83.0143 37.1034C83.1134 37.0186 83.1982 36.9337 83.2831 36.8488C83.3963 36.7498 83.4812 36.7357 83.5802 36.863C83.6934 37.0327 84.2734 37.7398 85.3344 37.7398C86.4803 37.7398 87.2018 36.7357 87.2018 35.7881C87.2018 34.8547 86.6077 34.0769 85.3344 34.0769H83.5236C83.2831 34.0769 83.1558 33.8506 83.1558 33.6526V30.5271C83.1558 30.3998 83.2548 30.3008 83.3822 30.3008H86.9755C87.1028 30.3008 87.2018 30.3998 87.2018 30.5271V30.8665C87.2018 30.9796 87.1028 31.0928 86.9755 31.0928H83.9622V33.2849H85.3344C87.1311 33.2849 88.0789 34.2183 88.0789 35.774C88.0789 37.259 86.9189 38.5035 85.3203 38.5035C84.0046 38.5035 83.3256 37.8671 83.0285 37.5136C82.887 37.3297 82.8729 37.2448 83.0143 37.1034Z" fill="white"/>
</svg>
