<svg width="138" height="54" viewBox="0 0 138 54" fill="none" xmlns="http://www.w3.org/2000/svg">
<g clip-path="url(#clip0_1531_11994)">
<path d="M23.7822 20.8888C23.4455 20.4483 23.0165 20.0977 22.4722 19.8278C21.9371 19.558 21.2474 19.4219 20.4217 19.4219C19.2731 19.4219 18.2651 19.6825 17.4256 20.2015C16.5653 20.7343 15.8433 21.4331 15.2875 22.2842C14.7109 23.1607 14.2772 24.1525 13.9958 25.2365C13.7006 26.3344 13.5576 27.4254 13.5576 28.4794C13.5576 29.2083 13.6522 29.9048 13.8367 30.5529C14.0143 31.1711 14.2865 31.7246 14.6486 32.1952C14.9969 32.6518 15.4351 33.0047 15.9933 33.2769C16.5376 33.5468 17.2249 33.6851 18.0322 33.6851C19.137 33.6851 20.1011 33.4268 20.8968 32.9148C21.741 32.3728 22.4583 31.6647 23.0257 30.8159C23.6116 29.9348 24.0544 28.9453 24.3473 27.8751C24.6449 26.7819 24.7971 25.7047 24.7971 24.6622C24.7971 23.9057 24.7118 23.1837 24.5434 22.5103C24.3842 21.8944 24.1282 21.3501 23.7822 20.8888Z" fill="white"/>
<path d="M118.131 29.8293L116.199 39.3074H109.108L111.173 29.2872L107.755 20.5449L103.785 39.3074H97.2232L91.5654 24.8422L88.6223 39.3074H81.922L87.28 13.7932H94.0126L99.6058 28.4314L102.547 13.7932H105.118H109.185H112.423L115.617 22.8723L122.246 13.7932H130.706L118.131 29.8293ZM70.7932 43.1988C70.2974 43.7617 69.7392 44.2068 69.1303 44.5159C68.5352 44.8273 67.8548 45.0419 67.1121 45.1549C66.4179 45.2633 65.6198 45.3164 64.6649 45.3164C64.2129 45.3164 63.7677 45.291 63.341 45.2449C62.9397 45.201 62.5384 45.1687 62.137 45.1503L61.083 45.1018L62.2339 39.4251H62.972C63.3433 39.4251 63.7262 39.4643 64.1045 39.545C64.3605 39.5958 64.6211 39.6212 64.8633 39.6212C65.3707 39.6212 65.6475 39.5381 65.7928 39.4666C66.0211 39.349 66.1987 39.2221 66.3256 39.0791C66.494 38.8969 66.6277 38.71 66.7454 38.4955C66.8353 38.3294 66.9299 38.1703 67.0314 38.018L63.8484 20.3327H70.5764L71.8104 30.4705L76.7094 20.3327H83.7972L72.1287 41.2335C71.7135 42.0063 71.2615 42.6683 70.7932 43.1988ZM51.6679 39.3074L57.0651 13.7932H63.6293L58.1953 39.3074H51.6679ZM51.5249 28.4706L49.2392 39.3074H42.6819L45.1729 27.1282C45.2582 26.6391 45.2767 26.3831 45.2767 26.2539C45.2767 26.1017 45.2375 25.931 44.9515 25.7349C44.6286 25.5089 44.2941 25.3981 43.9228 25.3981C43.3531 25.3981 42.8733 25.5019 42.4582 25.7119C42.013 25.9425 41.644 26.2309 41.3303 26.5815C41.0051 26.9575 40.7398 27.3819 40.5161 27.8847C40.2808 28.4153 40.1102 28.9343 39.9925 29.4694L37.9167 39.3074H31.3917L35.3173 20.335H41.6947L41.5171 21.1377C42.8433 20.2935 44.3794 19.869 46.1139 19.869C49.9288 19.869 52.0277 21.8274 52.0277 25.3889C52.0277 25.6334 52.0001 25.9125 51.9447 26.2239C51.9032 26.4961 51.8524 26.7891 51.7948 27.0866C51.7394 27.3796 51.6818 27.661 51.6264 27.9217C51.578 28.1523 51.5457 28.3322 51.5249 28.4706ZM28.241 35.1208C27.0601 36.574 25.5932 37.7343 23.8864 38.567C22.1704 39.4112 20.1753 39.838 17.9633 39.838C14.3699 39.838 11.5398 38.8461 9.5447 36.8924C7.54729 34.9317 6.53474 32.1014 6.53474 28.4776C6.53474 26.4615 6.85534 24.5193 7.48271 22.7039C8.11699 20.8747 9.03727 19.2439 10.2205 17.8484C11.4176 16.439 12.8914 15.3064 14.5959 14.4852C16.3211 13.6525 18.2678 13.2327 20.3875 13.2327C22.0643 13.2327 23.6211 13.4657 25.0166 13.9224C26.4535 14.3999 27.6852 15.1242 28.6816 16.0722C29.6733 17.0157 30.4599 18.199 31.0042 19.5784C31.5416 20.9439 31.8161 22.5309 31.8161 24.2932C31.8161 26.3277 31.5093 28.2976 30.9073 30.1499C30.2984 32.0206 29.4035 33.693 28.241 35.1208ZM0.175781 53.2191H137.476V-0.00537109H0.175781V53.2191Z" fill="white"/>
</g>
<defs>
<clipPath id="clip0_1531_11994">
<rect width="137.649" height="53.2244" fill="white"/>
</clipPath>
</defs>
</svg>
