<svg width="266" height="69" viewBox="0 0 266 69" fill="none" xmlns="http://www.w3.org/2000/svg">
<path d="M232.685 51.18C230.979 51.18 229.667 51.18 228.853 49.9107L221.739 30.6258L220.507 27.2062C218.351 21.2606 213.374 17.841 206.74 17.841C202.798 17.841 198.695 19.5477 195.714 21.7103L198.35 23.8237C200.05 22.4559 202.527 21.0757 204.83 21.0757C210.208 21.0757 213.084 23.5834 214.982 28.7651L216.306 32.4002C213.571 30.7357 210.428 29.8653 207.227 29.8864C200.759 29.8864 194.205 34.1377 194.205 42.246C194.205 50.3543 199.638 54.5256 209.912 54.5256C216.688 54.5256 220.649 51.9378 222.7 49.9662L223.932 53.3549H233.954L233.122 51.18H232.685ZM209.321 52.5046C203.512 52.5046 199.989 48.3766 199.989 42.4863C199.989 38.6786 200.605 32.2832 208.304 32.2832C211.581 32.2781 214.766 33.3617 217.359 35.3638L221.517 46.7931C220.039 50.6747 214.495 52.5046 209.352 52.5046H209.321ZM151.006 51.18C149.3 51.18 147.988 51.18 147.175 49.9107L140.06 30.6258L138.828 27.2062C136.66 21.2606 131.683 17.841 125.055 17.841C121.113 17.841 117.54 19.5477 114.584 21.7103L117.171 23.8237C118.871 22.4559 121.359 21.0757 123.657 21.0757C129.028 21.0757 131.387 23.5834 133.266 28.7651L134.59 32.4002C131.852 30.7281 128.701 29.8533 125.492 29.8741C119.025 29.8741 113 34.1254 113 42.2337C113 50.342 117.928 54.5132 128.178 54.5132C134.954 54.5132 138.915 51.9255 140.966 49.9538L142.198 53.3426H152.22L151.388 51.1676L151.006 51.18ZM127.642 52.5046C121.834 52.5046 118.834 48.3766 118.834 42.4863C118.834 38.6786 118.92 32.2832 126.614 32.2832C129.89 32.2748 133.076 33.3588 135.668 35.3638L139.826 46.7931C138.323 50.6747 132.773 52.5046 127.63 52.5046H127.642ZM88.0965 51.18C86.3841 51.18 85.0659 51.18 84.259 49.9107L77.1444 30.6258L75.9125 27.2062C73.7566 21.2606 68.7671 17.841 62.1392 17.841C58.2093 17.841 54.1315 19.5477 51.1132 21.7103L53.7435 23.8237C55.4436 22.4559 57.9198 21.0757 60.2235 21.0757C65.601 21.0757 68.4776 23.5834 70.3687 28.7651L71.6992 32.4002C68.9646 30.7357 65.8208 29.8653 62.6197 29.8864C56.1519 29.8864 49.5918 34.1377 49.5918 42.246C49.5918 50.3543 55.0247 54.5256 65.2992 54.5256C72.0441 54.5256 76.0295 51.9378 78.0869 49.9662L79.3188 53.3549H89.3408L88.5092 51.18H88.0965ZM64.7263 52.5046C58.9238 52.5046 55.3943 48.3766 55.3943 42.4863C55.3943 38.6786 56.0103 32.2832 63.71 32.2832C66.9861 32.2781 70.1712 33.3617 72.7648 35.3638L76.9227 46.7931C75.4197 50.6747 69.8697 52.5046 64.7263 52.5046ZM179.834 49.5472L169.596 18.8946H162.808L169.258 37.1075L163.541 50.8103L152.873 18.8946H146.078L158.275 53.3364H164.515L170.243 39.9047L174.999 53.3364H181.238L193.139 18.8946H190.675L179.834 49.541V49.5472ZM265.332 40.4901V18.8946H259.622L260.157 39.4488V42.4062C260.157 46.8424 256.351 51.0321 251.977 51.7406C250.603 51.8424 249.224 51.8424 247.85 51.7406C243.446 51.2847 239.67 46.8116 239.67 42.4062V39.4488L240.187 18.8946H234.484V45.1172C234.484 49.1036 237.73 55.7517 248.368 55.7517H251.448C254.466 55.7517 257.977 54.0635 260.034 52.3629C259.751 55.0369 259.48 57.7602 258.654 59.584C257.515 62.1225 254.922 65.1292 248.947 65.1292C243.132 65.1292 237.046 60.1262 236.467 59.2513L236.325 59.0418L234.477 59.2082L234.755 59.7627C234.792 59.8489 239.405 67.9757 249.249 68.4994C256.579 68.8938 260.995 65.9425 263.416 59.7319C263.593 59.265 263.733 58.785 263.835 58.2963C264.759 54.6426 265.116 49.7012 265.239 45.9736C265.271 45.6892 265.287 45.4033 265.289 45.1172V43.9466L265.332 40.4777V40.4901ZM97.7427 24.8095V18.7529H91.5829V53.1947H98.2971V27.5636C99.1344 26.264 100.279 25.1908 101.629 24.4385C102.98 23.6863 104.494 23.2784 106.04 23.2507C107.554 23.2217 109.042 23.6512 110.309 24.4829V18.6913C109.373 18.1947 108.314 17.9807 107.26 18.0752C104.1 18.0875 99.2211 22.6962 97.7427 24.8033V24.8095ZM26.0861 48.2841C13.939 48.2841 6.00522 35.4686 6.00522 23.9839C6.00522 17.3728 7.52052 11.9262 11.3827 8.23553C14.9882 4.90773 19.7397 3.10202 24.6447 3.19556C29.6711 3.19556 33.5394 6.35016 35.8986 8.98721C37.4735 10.7675 38.8129 12.743 39.884 14.8651L40.0934 15.3087L45.8836 11.6119C45.5386 10.8726 43.4197 8.53127 42.7667 7.81656C39.0216 3.9226 34.6297 0.410645 24.7925 0.410645C15.4543 0.410645 9.70108 5.01315 6.5596 8.8763C2.62181 13.7858 0.471231 19.8893 0.461422 26.1835C0.461422 30.1267 1.139 37.7051 5.71571 44.0944C9.96595 50.0524 16.5446 53.2009 24.7186 53.2009C36.6562 53.2009 43.0747 45.0186 46.0684 39.3995L43.432 38.2905C38.652 45.0001 32.9604 48.2841 26.0861 48.2841Z" fill="white"/>
</svg>
