<svg width="243" height="42" viewBox="0 0 243 42" fill="none" xmlns="http://www.w3.org/2000/svg">
<path d="M95.8234 28.8163C95.8234 33.2704 96.4982 39.8165 92.3818 39.884C88.4004 40.0189 88.7379 33.0679 88.8053 28.4789C88.8728 24.1598 88.5354 17.9512 92.3818 17.8837C95.9583 17.8837 95.8234 24.4298 95.8234 28.8163ZM105.608 28.6139C105.406 21.5279 99.0625 16.3315 92.5168 16.3315C85.5662 16.3315 79.223 21.4604 79.0205 28.6139C78.8181 35.9698 85.3638 41.7736 92.5843 41.7061C98.9275 41.6386 105.743 36.3747 105.608 28.6139ZM66.9414 28.8163C66.9414 33.2704 67.6162 39.8165 63.4999 39.884C59.5185 40.0189 59.8559 33.0679 59.9234 28.4789C59.9908 24.1598 59.6534 17.9512 63.4999 17.8837C67.0764 17.8837 66.9414 24.4298 66.9414 28.8163ZM76.7262 28.6139C76.5912 21.5279 70.1805 16.3315 63.6348 16.3315C56.6843 16.3315 50.341 21.4604 50.1386 28.6139C50.0036 35.9698 56.4818 41.7736 63.7023 41.7061C70.113 41.6386 76.9286 36.3747 76.7262 28.6139ZM146.974 41.3687V0C146.367 0.269942 143.533 2.02457 141.441 2.96937C140.294 3.50925 139.079 4.11662 137.797 4.65651V41.3012H146.974V41.3687ZM155.949 3.23931C149.404 3.23931 149.404 13.3621 155.949 13.3621C162.495 13.3621 162.495 3.23931 155.949 3.23931ZM160.605 41.3687V16.6015C159.998 16.8714 157.299 17.8837 155.139 18.761C153.992 19.2334 152.71 19.7058 151.495 20.1782V25.6445C151.495 26.0494 151.495 26.3869 151.495 26.7243V41.1662V41.3687H160.605ZM206.898 25.577H200.149C200.149 25.577 199.745 18.2211 203.591 18.2211C206.695 18.2211 206.898 21.5279 206.898 23.1476V25.577ZM213.578 25.7795C213.578 19.7733 208.72 16.534 203.591 16.534C197.788 16.4665 192.119 22.0678 191.917 29.6262C191.782 36.3072 197.45 41.7736 203.928 41.7736C205.818 41.7736 207.64 41.3687 209.259 40.4913C210.946 39.614 212.364 38.3993 213.443 36.8471V34.4851C213.443 34.4851 212.364 36.4422 208.989 36.4422C199.947 36.4422 199.947 27.1292 199.947 27.1292H213.376C213.511 27.1292 213.578 25.7795 213.578 25.7795ZM190.095 39.5466C188.948 39.0742 188.678 37.522 188.678 34.4851V23.9574C188.678 19.9082 185.169 16.9389 181.187 16.6689C178.353 16.4665 176.329 17.6812 174.304 19.7733L173.832 20.2457V16.4665C173.224 16.8039 166.746 19.5708 165.464 20.1107V26.6568C165.464 27.0617 165.464 27.4666 165.464 27.8041V41.3687H174.574V24.4973C174.574 22.6077 175.181 20.3132 177.273 20.3132C180.175 20.3132 179.77 24.3623 179.77 25.1721V34.4851C179.77 40.0189 181.727 41.3012 185.506 41.3012H191.849V39.8165C191.309 39.8165 190.702 39.749 190.095 39.5466ZM241.178 39.5466C240.031 39.0742 239.761 37.522 239.761 34.4851V23.9574C239.761 19.9082 236.252 16.9389 232.27 16.6689C229.436 16.4665 227.412 17.6812 225.387 19.7733L224.915 20.2457V16.4665C224.308 16.8039 217.762 19.5708 216.547 20.1107V26.6568C216.615 27.0617 216.547 27.4666 216.547 27.8041V41.3687H225.657V24.4973C225.657 22.6077 226.265 20.3132 228.357 20.3132C231.258 20.3132 230.853 24.3623 230.853 25.1721V34.4851C230.853 40.0189 232.81 41.3012 236.589 41.3012H243V39.8165C242.393 39.8165 241.785 39.749 241.178 39.5466ZM135.907 41.3687L127.337 28.9513C132.196 26.4543 132.736 24.4298 132.736 22.0003C132.736 15.9941 126.325 15.7916 123.761 16.264C121.466 16.6689 118.767 18.0187 117.62 18.6935V0.0674856C117.012 0.404913 114.246 2.09205 112.086 3.17182C110.939 3.77919 109.59 4.38656 108.375 4.92645V41.4361H117.62V30.0986L117.822 30.3685L124.57 41.3687H135.907ZM123.761 22.8776C123.491 27.6691 117.62 28.209 117.62 28.209V20.988C118.7 20.3806 119.172 19.9757 120.184 19.7733C122.411 19.3684 123.896 20.1782 123.761 22.8776ZM41.9059 41.5036L41.8384 24.3623C41.8384 22.4727 42.5807 21.123 43.323 21.123C44.4027 21.0555 45.6848 23.485 47.3718 23.35C48.2491 23.2825 48.9914 22.8776 49.5987 22.2702C50.2061 21.5954 50.5435 20.7856 50.5435 19.9082C50.5435 17.8162 48.654 16.264 46.6295 16.3315C44.4701 16.399 42.7831 17.8162 41.5685 19.7733L41.366 20.1107C40.6912 17.2763 38.8692 16.534 35.9 16.534H29.5568V18.0861H29.8942C30.2991 18.0861 30.9739 18.2886 31.3788 18.2886C32.1886 18.491 32.5934 19.5033 32.7284 21.3929C32.7284 22.4727 32.7284 23.9574 32.7284 25.5095V41.5711L41.9059 41.5036ZM22.6737 16.6015C20.8517 16.1965 18.9622 16.3315 17.1402 16.8714C15.3857 17.4113 13.7662 18.4236 12.4166 19.8408V5.46633L12.3491 4.58902C11.6743 1.75463 9.31241 1.01228 6.41072 1.01228H0V2.56445H0.337406C0.674813 2.56445 1.41711 2.69942 1.82199 2.76691C2.56429 2.96937 2.96918 3.91416 3.10414 5.6013C3.10414 8.23324 2.96918 26.7918 2.96918 30.571C2.96918 38.1968 6.34324 41.8411 14.576 41.8411C25.6429 41.8411 28.882 35.5649 29.4218 29.8961C30.2316 22.0003 27.06 17.4788 22.6737 16.6015ZM15.0483 39.5466C12.2816 39.614 12.484 37.8594 12.484 37.8594V21.8653C16.9378 18.8285 20.5143 20.988 20.6493 28.6814C20.7167 32.798 19.5696 39.4116 15.0483 39.5466Z" fill="white"/>
</svg>
