<svg width="153" height="137" viewBox="0 0 153 137" fill="none" xmlns="http://www.w3.org/2000/svg">
<g clip-path="url(#clip0_1531_12894)">
<path d="M67.5117 15.6093C67.5908 15.6086 67.6699 15.608 67.7514 15.6073C67.8205 15.6065 67.8896 15.6058 67.9608 15.605C68.2018 15.6147 68.3799 15.6636 68.5857 15.7897C68.694 16.1144 68.6901 16.4155 68.6926 16.7538C68.6935 16.8248 68.6944 16.8957 68.6953 16.9689C68.6981 17.2036 68.7003 17.4383 68.7025 17.673C68.7043 17.8357 68.7062 17.9984 68.7081 18.1611C68.713 18.5894 68.7174 19.0177 68.7216 19.446C68.7261 19.8831 68.731 20.3201 68.7359 20.7571C68.7455 21.6147 68.7545 22.4722 68.7631 23.3298C68.8236 23.2626 68.8841 23.1954 68.9464 23.1262C69.0268 23.0373 69.1071 22.9483 69.1875 22.8594C69.2272 22.8152 69.267 22.7711 69.3079 22.7255C70.7041 21.1833 72.7374 20.1508 74.7965 19.8702C74.8657 19.8605 74.9349 19.8508 75.0062 19.8408C77.4172 19.5524 79.9906 20.1256 81.9224 21.6388C82.0621 21.7577 82.2007 21.8778 82.3383 21.9992C82.4129 22.0622 82.4876 22.1252 82.5646 22.1901C84.0982 23.514 85.2662 25.4705 85.5324 27.499C85.5941 28.3989 85.5811 29.3032 85.5772 30.2048C85.5759 30.5573 85.5765 30.9098 85.5768 31.2624C85.5771 31.8531 85.5759 32.4437 85.5738 33.0343C85.5714 33.7162 85.5713 34.3981 85.5723 35.08C85.5733 35.7387 85.5727 36.3974 85.5715 37.0562C85.571 37.3355 85.571 37.6148 85.5714 37.8942C85.5718 38.2226 85.5709 38.551 85.569 38.8793C85.5683 39.0568 85.5689 39.2342 85.5695 39.4116C85.5686 39.5178 85.5677 39.624 85.5668 39.7333C85.5665 39.8711 85.5665 39.8711 85.5661 40.0117C85.4992 40.5293 85.2567 40.8599 84.8559 41.183C84.4779 41.4596 84.0865 41.7157 83.6951 41.9727C83.2857 42.242 82.8811 42.5181 82.4769 42.7953C82.4051 42.8445 82.3334 42.8937 82.2594 42.9444C82.1165 43.0424 81.9736 43.1405 81.8307 43.2386C81.6464 43.3652 81.4619 43.4916 81.2774 43.6179C80.6698 44.0343 80.064 44.453 79.4591 44.8732C79.283 44.9955 79.1068 45.1177 78.9305 45.2397C78.5257 45.5206 78.1233 45.8036 77.7273 46.0969C77.6598 46.1463 77.5924 46.1957 77.5229 46.2466C77.3993 46.3375 77.2765 46.4295 77.1547 46.5229C76.7508 46.8184 76.4552 46.9257 75.95 46.9257C75.7195 46.829 75.7195 46.829 75.5008 46.6651C75.4102 46.5997 75.3196 46.5343 75.2263 46.4669C75.1477 46.4087 75.1477 46.4087 75.0676 46.3493C74.7714 46.1329 74.4691 45.9255 74.1675 45.7168C73.9006 45.532 73.6342 45.3463 73.3679 45.1606C72.7653 44.741 72.1594 44.3265 71.5528 43.9128C71.2923 43.7351 71.0324 43.5565 70.773 43.3771C70.7108 43.3341 70.6487 43.2912 70.5846 43.2469C70.4709 43.1683 70.3573 43.0895 70.2438 43.0106C69.9104 42.7802 69.5717 42.5598 69.2295 42.3427C69.0983 42.2594 69.0983 42.2594 68.9645 42.1745C68.898 42.1324 68.8316 42.0902 68.7631 42.0469C68.7628 42.1378 68.7624 42.2286 68.762 42.3223C68.7529 44.5306 68.7432 46.7388 68.733 48.9471C68.7281 50.015 68.7234 51.0829 68.719 52.1508C68.7152 53.0812 68.7111 54.0116 68.7066 54.942C68.7043 55.4349 68.7021 55.9279 68.7002 56.4209C68.6985 56.8843 68.6964 57.3477 68.6939 57.8112C68.6931 57.9818 68.6924 58.1524 68.6919 58.323C68.6911 58.5549 68.6899 58.7868 68.6885 59.0186C68.6884 59.0871 68.6883 59.1555 68.6882 59.226C68.6845 59.6893 68.6845 59.6893 68.5857 59.7882C68.428 59.7977 68.2699 59.8009 68.112 59.8018C68.0092 59.8026 67.9065 59.8033 67.8006 59.8041C67.6299 59.8047 67.6299 59.8047 67.4559 59.8053C67.3357 59.806 67.2154 59.8067 67.0952 59.8075C66.6995 59.8098 66.3037 59.8112 65.908 59.8124C65.7719 59.8129 65.6359 59.8134 65.4999 59.8139C64.9342 59.8158 64.3685 59.8174 63.8029 59.8184C62.9911 59.8199 62.1793 59.8228 61.3676 59.8279C60.7974 59.8313 60.2272 59.833 59.657 59.8335C59.3162 59.8338 58.9753 59.8349 58.6345 59.8378C58.3139 59.8404 57.9934 59.841 57.6728 59.84C57.4987 59.8399 57.3247 59.8421 57.1506 59.8443C57.0474 59.8436 56.9441 59.8429 56.8377 59.8421C56.7478 59.8424 56.6579 59.8427 56.5652 59.843C56.3415 59.7882 56.3415 59.7882 56.1965 59.6085C56.0427 59.2736 56.0387 58.9777 56.0423 58.6166C56.042 58.5433 56.0416 58.47 56.0413 58.3945C56.0405 58.1477 56.0416 57.901 56.0427 57.6542C56.0425 57.476 56.0422 57.2977 56.0418 57.1195C56.041 56.6288 56.0419 56.1381 56.0431 55.6474C56.0441 55.1185 56.0435 54.5897 56.0431 54.0608C56.0427 53.1441 56.0432 52.2275 56.0444 51.3108C56.0457 50.3491 56.0465 49.3873 56.0466 48.4255C56.0466 48.3657 56.0466 48.3059 56.0466 48.2443C56.0466 48.0016 56.0466 47.7589 56.0467 47.5162C56.0468 45.3036 56.0482 43.091 56.0503 40.8785C56.0524 38.7892 56.0537 36.7 56.054 34.6107C56.054 34.5142 56.054 34.5142 56.054 34.4157C56.0541 34.1562 56.0541 33.8967 56.0541 33.6373C56.0541 33.508 56.0542 33.3787 56.0542 33.2494C56.0542 33.1204 56.0542 32.9914 56.0542 32.8624C56.0546 30.8091 56.0556 28.7557 56.0567 26.7024C56.057 26.101 56.0573 25.4996 56.0575 24.8983C56.058 23.6334 56.0586 22.3686 56.06 21.1037C56.0606 20.5805 56.0611 20.0573 56.0611 19.5341C56.0612 19.0555 56.0617 18.577 56.0625 18.0984C56.0627 17.9249 56.0628 17.7514 56.0627 17.5779C56.0626 17.3428 56.0631 17.1077 56.0636 16.8726C56.0635 16.8045 56.0633 16.7365 56.0632 16.6664C56.0646 16.3335 56.0839 16.0247 56.164 15.701C57.5948 15.6894 59.0255 15.6778 60.4562 15.6663C61.1206 15.661 61.785 15.6556 62.4494 15.6502C63.0288 15.6455 63.6081 15.6408 64.1875 15.6362C64.494 15.6337 64.8005 15.6312 65.107 15.6287C65.45 15.6259 65.793 15.6232 66.136 15.6204C66.2868 15.6192 66.2868 15.6192 66.4406 15.6179C66.626 15.6165 66.8114 15.6152 66.9968 15.614C67.1684 15.6129 67.3401 15.6113 67.5117 15.6093ZM57.9385 17.3864C57.9385 30.7935 57.9385 44.2007 57.9385 58.014C60.8372 58.014 63.7359 58.014 66.7224 58.014C66.9508 57.6716 66.9255 57.389 66.9246 56.9919C66.9251 56.9138 66.9256 56.8357 66.9262 56.7552C66.9277 56.4924 66.9279 56.2297 66.9282 55.967C66.929 55.779 66.9299 55.5911 66.9309 55.4031C66.9333 54.892 66.9347 54.3809 66.9358 53.8698C66.9372 53.3359 66.9396 52.8021 66.9418 52.2683C66.946 51.257 66.9493 50.2457 66.9522 49.2345C66.9556 48.0833 66.96 46.9322 66.9644 45.7811C66.9736 43.4127 66.9815 41.0444 66.9886 38.676C67.2135 38.8152 67.4381 38.9547 67.6627 39.0942C67.7571 39.1526 67.7571 39.1526 67.8534 39.2122C68.2386 39.4519 68.6119 39.7017 68.9794 39.9678C69.034 40.0073 69.0885 40.0468 69.1447 40.0875C69.1908 40.1211 69.2369 40.1546 69.2844 40.1892C69.7527 40.5262 70.2318 40.8475 70.7096 41.1709C71.4504 41.6726 72.1884 42.1781 72.9222 42.69C73.564 43.1375 74.2066 43.5838 74.852 44.0261C74.9208 44.0734 74.9897 44.1207 75.0606 44.1695C75.1851 44.2547 75.31 44.3392 75.4354 44.4231C75.5688 44.5129 75.6998 44.6064 75.8301 44.7008C76.1253 44.8366 76.2619 44.8075 76.5711 44.7081C76.8173 44.5665 77.0423 44.401 77.2698 44.2313C77.4043 44.1336 77.5389 44.036 77.6735 43.9385C77.7413 43.889 77.8091 43.8395 77.8789 43.7885C78.1806 43.5704 78.4873 43.36 78.7948 43.1501C78.9136 43.0687 79.0325 42.9873 79.1514 42.9059C79.2096 42.866 79.2677 42.8262 79.3277 42.7852C79.4907 42.6735 79.6535 42.5614 79.8161 42.4492C79.8694 42.4125 79.9226 42.3758 79.9774 42.338C80.088 42.2617 80.1986 42.1854 80.3091 42.109C80.6644 41.8643 81.0216 41.6227 81.3804 41.3833C81.6063 41.2325 81.8318 41.0812 82.0573 40.9298C82.1699 40.8545 82.2827 40.7794 82.3956 40.7046C82.5558 40.5985 82.7153 40.4915 82.8748 40.3843C82.968 40.3222 83.0612 40.2601 83.1572 40.1962C83.5185 39.9175 83.7615 39.6609 83.8466 39.2082C83.8546 39.0672 83.8582 38.9258 83.8585 38.7845C83.8588 38.6995 83.8592 38.6144 83.8596 38.5269C83.8596 38.3878 83.8596 38.3878 83.8595 38.2459C83.8598 38.1478 83.8601 38.0496 83.8604 37.9485C83.8612 37.6232 83.8614 37.2979 83.8615 36.9726C83.8618 36.7458 83.8621 36.519 83.8624 36.2922C83.8629 35.8158 83.8631 35.3395 83.863 34.8631C83.863 34.3159 83.8639 33.7687 83.8653 33.2215C83.8666 32.6924 83.8669 32.1632 83.8669 31.6341C83.867 31.4104 83.8674 31.1868 83.8681 30.9632C83.8752 28.4043 83.6825 26.1344 81.8946 24.1281C81.8366 24.0618 81.7787 23.9955 81.7189 23.9272C80.4356 22.5503 78.6087 21.7113 76.7333 21.6163C74.5633 21.549 72.7153 22.1698 71.07 23.5959C71.0048 23.6511 70.9396 23.7064 70.8725 23.7633C69.5986 24.9329 68.8096 26.7104 68.6463 28.4127C68.6186 28.9287 68.6186 28.9287 68.7995 29.401C69.1313 29.7287 69.5094 29.9557 69.9055 30.199C70.0828 30.3099 70.2602 30.4207 70.4375 30.5316C70.5734 30.616 70.5734 30.616 70.712 30.7021C71.1269 30.9605 71.5394 31.2227 71.9517 31.4852C72.0312 31.5357 72.1107 31.5862 72.1925 31.6382C72.8858 32.0795 73.5745 32.5275 74.2619 32.9778C74.4196 33.081 74.5775 33.1839 74.7357 33.2863C74.9024 33.3955 75.0678 33.5067 75.2321 33.6194C75.3167 33.6764 75.4014 33.7333 75.4887 33.792C75.5644 33.8439 75.6402 33.8959 75.7182 33.9495C76.0001 34.0879 76.1716 34.101 76.4823 34.0633C76.7005 33.9679 76.7005 33.9679 76.9027 33.8221C76.9817 33.7693 77.0607 33.7166 77.1421 33.6622C77.2263 33.6043 77.3106 33.5464 77.3973 33.4867C77.5795 33.3645 77.7619 33.2424 77.9442 33.1204C78.0862 33.0249 78.0862 33.0249 78.2309 32.9274C78.7136 32.6056 79.2035 32.2952 79.6931 31.9842C80.3694 31.5555 80.3694 31.5555 81.037 31.1137C81.133 31.0487 81.229 30.9836 81.328 30.9166C81.4589 30.8269 81.4589 30.8269 81.5925 30.7354C81.8059 30.6037 81.8059 30.6037 81.9834 30.6037C82.1286 30.8045 82.2625 31.004 82.3937 31.2136C82.431 31.2713 82.4683 31.3291 82.5067 31.3886C82.7819 31.8218 82.7819 31.8218 82.7819 32.023C82.65 32.1293 82.65 32.1293 82.4623 32.2489C82.3923 32.294 82.3223 32.339 82.2502 32.3855C82.1731 32.4342 82.0961 32.4829 82.0166 32.5331C81.937 32.5841 81.8574 32.6351 81.7754 32.6876C81.5198 32.8511 81.2636 33.0137 81.0074 33.1762C80.844 33.2801 80.6806 33.3841 80.5173 33.4881C80.274 33.6429 80.0306 33.7976 79.7871 33.9521C79.1467 34.3586 78.5099 34.7705 77.8749 35.1854C77.7409 35.2729 77.6067 35.3601 77.4723 35.4469C77.3446 35.5299 77.2176 35.6141 77.0915 35.6994C76.7457 35.9282 76.4665 36.1 76.0387 36.1035C75.8162 36.0169 75.8162 36.0169 75.584 35.8707C75.4908 35.8127 75.3975 35.7547 75.3015 35.695C75.1922 35.6244 75.0831 35.5535 74.974 35.4826C74.9124 35.4429 74.8509 35.4033 74.7875 35.3625C74.4226 35.1274 74.0589 34.8907 73.6958 34.653C73.1721 34.3107 72.6453 33.9732 72.1181 33.6364C72.0255 33.5772 71.9329 33.518 71.8375 33.457C71.6479 33.3359 71.4584 33.2148 71.2688 33.0937C70.605 32.6697 69.9413 32.2455 69.2782 31.8203C68.9522 31.6114 68.6256 31.4037 68.298 31.1973C68.161 31.1103 68.024 31.0233 67.887 30.9364C67.7952 30.8792 67.7952 30.8792 67.7016 30.8209C67.4013 30.6294 67.1718 30.4669 66.9886 30.1602C66.9555 29.9219 66.9555 29.9219 66.9556 29.6445C66.955 29.5391 66.9544 29.4338 66.9538 29.3252C66.9545 29.21 66.9552 29.0947 66.9559 28.976C66.9557 28.8531 66.9553 28.7303 66.9549 28.6074C66.9541 28.3431 66.9542 28.0788 66.9549 27.8144C66.9559 27.3966 66.9548 26.9788 66.9534 26.561C66.9502 25.5234 66.9497 24.4858 66.9499 23.4482C66.95 22.6415 66.9494 21.8348 66.9463 21.0281C66.9448 20.6126 66.945 20.1971 66.9464 19.7816C66.9469 19.5234 66.946 19.2652 66.9446 19.007C66.9441 18.8298 66.9454 18.6526 66.9467 18.4755C66.9459 18.3704 66.945 18.2653 66.9442 18.157C66.9442 18.0197 66.9442 18.0197 66.9442 17.8796C66.9166 17.6031 66.9166 17.6031 66.545 17.3864C63.7049 17.3864 60.8647 17.3864 57.9385 17.3864Z" fill="white"/>
<path d="M52.5254 12.4189C58.0007 12.4189 63.476 12.4189 69.1172 12.4189C69.6496 13.6608 69.6496 13.6608 69.6496 13.927C64.4963 13.927 59.3431 13.927 54.0337 13.927C54.0337 29.6759 54.0337 45.4249 54.0337 61.6511C68.7907 61.6511 83.5476 61.6511 98.7518 61.6511C98.7518 45.9021 98.7518 30.1532 98.7518 13.927C93.5107 13.927 88.2696 13.927 82.8698 13.927C83.0384 13.4213 83.2149 12.9181 83.4021 12.4189C88.9653 12.4189 94.5284 12.4189 100.26 12.4189C100.26 29.1632 100.26 45.9074 100.26 63.1591C84.5076 63.1591 68.7552 63.1591 52.5254 63.1591C52.5254 46.4148 52.5254 29.6706 52.5254 12.4189Z" fill="white"/>
<path d="M83.9357 15.7011C84.1501 15.6683 84.1501 15.6683 84.4252 15.6691C84.5292 15.6687 84.6332 15.6683 84.7404 15.668C84.8551 15.6689 84.9698 15.6699 85.0879 15.6709C85.2095 15.6709 85.331 15.6709 85.4525 15.6708C85.783 15.6707 86.1135 15.6722 86.444 15.6741C86.7892 15.6758 87.1344 15.6759 87.4796 15.6762C88.1335 15.6771 88.7874 15.6792 89.4413 15.6819C90.1857 15.6849 90.93 15.6864 91.6744 15.6877C93.2058 15.6905 94.7372 15.6952 96.2686 15.7011C96.2717 19.8848 96.2745 24.0685 96.2761 28.2522C96.2762 28.3141 96.2762 28.376 96.2762 28.4397C96.2767 29.7843 96.2772 31.1289 96.2777 32.4735C96.2779 33.1329 96.2781 33.7922 96.2784 34.4516C96.2784 34.5172 96.2784 34.5828 96.2784 34.6504C96.2792 36.7789 96.2805 38.9074 96.2822 41.0358C96.2838 43.2223 96.2849 45.4087 96.2853 47.5952C96.2853 47.9037 96.2854 48.2122 96.2855 48.5207C96.2855 48.6118 96.2855 48.6118 96.2855 48.7047C96.2857 49.6839 96.2865 50.6631 96.2876 51.6423C96.2886 52.6257 96.289 53.6091 96.2888 54.5924C96.2886 55.1257 96.2888 55.6589 96.2898 56.1921C96.2906 56.6795 96.2907 57.1669 96.2901 57.6544C96.29 57.8314 96.2902 58.0085 96.2908 58.1855C96.2915 58.4248 96.2911 58.664 96.2905 58.9032C96.2909 58.9732 96.2914 59.0432 96.2919 59.1153C96.2889 59.5906 96.2889 59.5906 96.0912 59.7882C95.8816 59.8113 95.8816 59.8113 95.6135 59.8125C95.5121 59.8134 95.4107 59.8143 95.3063 59.8152C95.1386 59.8153 95.1386 59.8153 94.9675 59.8154C94.8491 59.8161 94.7306 59.8168 94.6121 59.8176C94.2898 59.8196 93.9676 59.8204 93.6453 59.8208C93.4441 59.8211 93.2429 59.8217 93.0417 59.8223C92.3401 59.8245 91.6385 59.8257 90.9369 59.826C90.2823 59.8263 89.6277 59.829 88.9731 59.8327C88.4116 59.8357 87.8501 59.8371 87.2886 59.8372C86.953 59.8372 86.6174 59.838 86.2818 59.8405C85.9663 59.8429 85.6508 59.8431 85.3352 59.8416C85.1639 59.8414 84.9926 59.8434 84.8213 59.8454C84.7197 59.8445 84.618 59.8437 84.5133 59.8428C84.4248 59.8429 84.3363 59.8431 84.2451 59.8433C84.0244 59.7882 84.0244 59.7882 83.8628 59.6016C83.7372 59.293 83.725 59.0613 83.725 58.728C83.7247 58.667 83.7243 58.606 83.7239 58.5432C83.7231 58.3394 83.7241 58.1357 83.7252 57.932C83.725 57.7856 83.7246 57.6393 83.7242 57.493C83.7234 57.096 83.7242 56.6991 83.7254 56.3021C83.7264 55.8867 83.726 55.4714 83.7259 55.056C83.7258 54.3585 83.7268 53.6611 83.7284 52.9636C83.7303 52.157 83.7306 51.3505 83.73 50.5439C83.7295 49.7681 83.73 48.9924 83.731 48.2166C83.7314 47.8863 83.7315 47.5561 83.7313 47.2259C83.7312 46.8371 83.7319 46.4484 83.7333 46.0597C83.7337 45.9169 83.7337 45.7742 83.7335 45.6314C83.7332 45.4368 83.734 45.2421 83.7351 45.0474C83.7353 44.9385 83.7355 44.8295 83.7356 44.7172C83.7573 44.4538 83.7863 44.3029 83.9357 44.0872C84.2734 43.9695 84.5876 44.0025 84.9394 44.0373C85.0342 44.0463 85.129 44.0553 85.2267 44.0646C85.2984 44.0721 85.3701 44.0795 85.444 44.0872C85.5407 44.3773 85.5448 44.5911 85.5462 44.8966C85.5469 45.0103 85.5477 45.124 85.5484 45.2411C85.5488 45.3673 85.5492 45.4936 85.5496 45.6198C85.5503 45.7526 85.551 45.8853 85.5518 46.018C85.5534 46.304 85.5547 46.5899 85.5558 46.8758C85.5576 47.3275 85.5601 47.7791 85.5626 48.2308C85.5684 49.2708 85.5734 50.3109 85.5783 51.351C85.5828 52.3045 85.5875 53.2581 85.5929 54.2117C85.5954 54.6611 85.5975 55.1106 85.5992 55.5601C85.6004 55.839 85.602 56.1179 85.6036 56.3969C85.6043 56.5267 85.6048 56.6566 85.6052 56.7864C85.6058 56.9629 85.6069 57.1394 85.608 57.3159C85.6085 57.4149 85.6089 57.5139 85.6094 57.6159C85.5965 57.8315 85.5965 57.8315 85.7102 57.9254C88.6089 57.9547 91.5076 57.9839 94.4941 58.0141C94.4941 44.607 94.4941 31.1999 94.4941 17.3865C89.8094 16.7143 89.8094 16.7143 85.6215 17.6526C85.579 17.8889 85.579 17.8889 85.5831 18.1695C85.5813 18.2778 85.5796 18.3861 85.5778 18.4977C85.5772 18.6164 85.5766 18.735 85.5761 18.8536C85.5746 18.9747 85.573 19.0958 85.5712 19.2168C85.567 19.5356 85.5644 19.8544 85.5621 20.1732C85.5594 20.4984 85.5553 20.8237 85.5513 21.1489C85.5436 21.7872 85.5377 22.4254 85.5327 23.0637C85.2353 22.9646 85.2039 22.9174 85.0337 22.6701C84.6794 22.1777 84.2761 21.7186 83.8469 21.2896C83.7358 20.7255 83.7439 20.1621 83.7433 19.5889C83.743 19.4861 83.7427 19.3832 83.7424 19.2773C83.742 19.0608 83.7418 18.8443 83.7418 18.6277C83.7416 18.2956 83.74 17.9636 83.7383 17.6315C83.738 17.4209 83.7379 17.2104 83.7378 16.9998C83.7371 16.9003 83.7365 16.8008 83.7358 16.6982C83.7361 16.6061 83.7364 16.514 83.7367 16.4191C83.7365 16.3381 83.7364 16.257 83.7363 16.1735C83.7582 15.9672 83.7582 15.9672 83.9357 15.7011Z" fill="white"/>
<path d="M0.443359 104.053C0.886991 104.053 0.886991 104.053 1.13515 104.29C1.22383 104.397 1.3111 104.504 1.39717 104.613C1.46744 104.698 1.46744 104.698 1.53914 104.785C1.67783 104.954 1.81483 105.124 1.95171 105.295C2.08105 105.452 2.21044 105.609 2.33988 105.766C2.40302 105.844 2.46615 105.921 2.5312 106.001C3.22229 106.851 3.91882 107.695 4.62835 108.53C4.94436 108.902 5.25331 109.279 5.56141 109.658C5.79159 109.937 6.02566 110.214 6.26047 110.49C6.54483 110.824 6.82516 111.16 7.09783 111.504C7.3789 111.858 7.66617 112.206 7.95736 112.552C7.99745 112.6 8.03754 112.648 8.07884 112.697C8.33079 112.995 8.59335 113.272 8.87235 113.544C9.40395 112.934 9.92936 112.321 10.4251 111.681C10.8021 111.195 11.1954 110.725 11.5984 110.26C11.9141 109.895 12.2192 109.523 12.5188 109.144C13.0916 108.422 13.6839 107.715 14.27 107.004C14.6279 106.57 14.985 106.135 15.341 105.699C15.6084 105.372 15.8763 105.045 16.1441 104.719C16.3302 104.496 16.3302 104.496 16.4983 104.246C16.5583 104.182 16.6184 104.118 16.6803 104.053C16.8267 104.053 16.9731 104.053 17.1239 104.053C17.1239 109.732 17.1239 115.411 17.1239 121.262C16.3333 121.262 15.5428 121.262 14.7283 121.262C14.7283 117.427 14.7283 113.592 14.7283 109.641C14.4355 110.11 14.1427 110.578 13.841 111.061C13.332 111.733 12.8031 112.381 12.2549 113.022C11.9625 113.364 11.6827 113.715 11.4066 114.071C11.0297 114.556 10.6384 115.027 10.2348 115.49C10.0236 115.733 9.81654 115.977 9.61925 116.231C9.55028 116.32 9.48131 116.408 9.41025 116.499C9.35089 116.578 9.29153 116.656 9.23038 116.737C9.02211 116.943 8.89363 116.977 8.60617 117.004C8.06066 116.373 7.51809 115.742 7.00044 115.088C6.58793 114.568 6.16388 114.057 5.74059 113.546C5.42287 113.162 5.10656 112.777 4.79095 112.391C4.74627 112.337 4.70159 112.282 4.65556 112.226C3.97788 111.399 3.42567 110.548 2.83897 109.641C2.83897 113.476 2.83897 117.311 2.83897 121.262C2.04842 121.262 1.25787 121.262 0.443359 121.262C0.443359 115.583 0.443359 109.904 0.443359 104.053ZM2.66152 109.286C2.75024 109.464 2.75024 109.464 2.75024 109.464L2.66152 109.286Z" fill="white"/>
<path d="M86.9521 104.23C95.8946 104.23 95.8946 104.23 98.4644 106.731C100.15 108.442 100.729 110.657 100.727 113.013C100.7 115.289 99.9071 117.338 98.2925 118.975C95.1731 121.871 90.9649 121.262 86.9521 121.262C86.9521 115.642 86.9521 110.021 86.9521 104.23ZM89.4365 106.448C89.4365 110.634 89.4365 114.82 89.4365 119.133C93.2816 119.204 93.2816 119.204 96.5159 117.386C97.8093 116.038 98.2548 114.35 98.2335 112.52C98.1573 110.75 97.5913 109.095 96.2684 107.867C95.9569 107.632 95.6341 107.435 95.2924 107.246C95.2188 107.205 95.1451 107.164 95.0692 107.122C93.278 106.218 91.3999 106.448 89.4365 106.448Z" fill="white"/>
<path d="M58.293 104.053C58.8253 104.053 58.8253 104.053 59.0821 104.274C59.1699 104.373 59.2562 104.473 59.341 104.574C59.3872 104.626 59.4333 104.679 59.4808 104.733C59.5744 104.84 59.6674 104.947 59.7598 105.055C59.9382 105.262 60.122 105.464 60.3059 105.666C60.4336 105.808 60.5611 105.951 60.6886 106.093C61.1562 106.614 61.6266 107.133 62.1005 107.649C62.4216 107.998 62.7393 108.351 63.0565 108.704C63.2861 108.959 63.5177 109.211 63.7496 109.464C64.2468 110.005 64.7382 110.551 65.2289 111.098C65.6325 111.547 66.0392 111.994 66.4479 112.439C66.7714 112.791 67.0922 113.146 67.411 113.502C67.5453 113.651 67.6812 113.798 67.8186 113.944C69.2268 115.448 69.2268 115.448 69.6499 116.294C69.6473 116.245 69.6446 116.196 69.6419 116.145C69.5675 114.716 69.5493 113.292 69.5525 111.862C69.5527 111.64 69.5528 111.418 69.5529 111.197C69.5532 110.62 69.5541 110.044 69.5551 109.467C69.556 108.876 69.5564 108.285 69.5569 107.694C69.5578 106.539 69.5594 105.385 69.5612 104.23C70.3225 104.23 71.0837 104.23 71.8681 104.23C71.8681 109.938 71.8681 115.647 71.8681 121.528C71.4244 121.528 71.4244 121.528 71.2408 121.371C71.1806 121.299 71.1204 121.226 71.0585 121.151C70.9896 121.07 70.9207 120.989 70.8498 120.906C70.7759 120.818 70.702 120.731 70.6259 120.641C70.465 120.462 70.3015 120.285 70.1379 120.109C69.7747 119.714 69.415 119.316 69.0566 118.917C68.8269 118.662 68.5953 118.409 68.3634 118.157C68.0004 117.762 67.6404 117.364 67.282 116.965C67.0524 116.711 66.8208 116.458 66.5889 116.206C66.2258 115.81 65.8659 115.413 65.5075 115.014C65.2778 114.759 65.0463 114.506 64.8143 114.254C64.4513 113.859 64.0914 113.461 63.733 113.062C63.5033 112.808 63.2717 112.555 63.0398 112.302C62.9568 112.212 62.8737 112.121 62.7906 112.03C62.6421 111.869 62.4931 111.707 62.3435 111.546C61.7122 110.859 61.1591 110.121 60.5999 109.375C60.5999 113.298 60.5999 117.22 60.5999 121.262C59.8386 121.262 59.0773 121.262 58.293 121.262C58.293 115.583 58.293 109.904 58.293 104.053Z" fill="white"/>
<path d="M15.8818 77.6182C16.7017 77.6182 17.5215 77.6182 18.3662 77.6182C18.3662 80.6333 18.3662 83.6484 18.3662 86.7549C21.1185 86.7549 23.8707 86.7549 26.7064 86.7549C26.7064 83.7398 26.7064 80.7247 26.7064 77.6182C27.497 77.6182 28.2875 77.6182 29.102 77.6182C29.102 83.2386 29.102 88.8591 29.102 94.6498C28.3115 94.6498 27.5209 94.6498 26.7064 94.6498C26.7064 92.7471 26.7064 90.8443 26.7064 88.8839C23.9541 88.8839 21.2019 88.8839 18.3662 88.8839C18.3662 90.7866 18.3662 92.6894 18.3662 94.6498C17.5463 94.6498 16.7265 94.6498 15.8818 94.6498C15.8818 89.0294 15.8818 83.4089 15.8818 77.6182Z" fill="white"/>
<path d="M71.5137 77.6182C79.7785 77.6182 79.7785 77.6182 81.7487 79.4893C83.099 80.9729 83.5096 82.8086 83.4179 84.7698C83.3246 86.087 82.8771 87.2238 82.0721 88.2629C82.0333 88.3174 81.9945 88.3718 81.9546 88.4279C80.9671 89.7205 79.21 90.3039 77.6676 90.5274C77.2752 90.5755 76.8884 90.5806 76.4934 90.578C76.4296 90.5779 76.3658 90.5778 76.3 90.5777C76.065 90.5773 75.8301 90.576 75.5951 90.5749C75.068 90.573 74.541 90.5712 73.998 90.5693C73.998 91.9159 73.998 93.2624 73.998 94.6498C73.1782 94.6498 72.3583 94.6498 71.5137 94.6498C71.5137 89.0294 71.5137 83.4089 71.5137 77.6182ZM73.998 79.7471C73.998 82.6159 73.998 85.4847 73.998 88.4404C77.0697 88.5618 77.0697 88.5618 79.7361 87.3166C80.6177 86.4337 80.9045 85.326 80.9353 84.1159C80.9175 82.8281 80.5798 81.7472 79.6765 80.8116C78.2114 79.4755 75.7256 79.7471 73.998 79.7471Z" fill="white"/>
<path d="M97.5986 77.6182C105.83 77.6182 105.83 77.6182 107.8 79.4668C108.772 80.5022 109.43 81.9583 109.488 83.3841C109.493 83.4859 109.497 83.5876 109.502 83.6925C109.559 85.5953 109.071 87.3079 107.747 88.7176C107.029 89.4045 106.249 89.8414 105.318 90.159C105.225 90.1908 105.225 90.1908 105.13 90.2232C103.984 90.5856 102.84 90.5923 101.652 90.5804C100.875 90.5749 100.875 90.5749 100.083 90.5693C100.083 91.9159 100.083 93.2624 100.083 94.6498C99.2631 94.6498 98.4433 94.6498 97.5986 94.6498C97.5986 89.0294 97.5986 83.4089 97.5986 77.6182ZM100.083 79.7471C100.083 82.6159 100.083 85.4847 100.083 88.4404C103.171 88.5692 103.171 88.5692 105.817 87.2484C106.699 86.2971 106.991 85.2927 107.004 84.005C106.922 82.7411 106.622 81.6911 105.673 80.8116C105.61 80.7531 105.548 80.6945 105.484 80.6342C103.88 79.5186 101.969 79.7471 100.083 79.7471Z" fill="white"/>
<path d="M119.781 104.053C119.956 104.053 120.132 104.053 120.313 104.053C120.361 104.168 120.361 104.168 120.411 104.286C121.434 106.724 122.47 109.157 123.507 111.589C123.77 112.206 124.033 112.822 124.295 113.439C124.338 113.539 124.381 113.639 124.425 113.743C124.637 114.242 124.85 114.741 125.063 115.241C125.146 115.437 125.23 115.633 125.313 115.829C125.355 115.926 125.396 116.022 125.438 116.121C125.694 116.723 125.95 117.324 126.207 117.925C126.374 118.317 126.542 118.71 126.709 119.102C126.789 119.288 126.868 119.473 126.947 119.659C127.055 119.913 127.164 120.167 127.272 120.421C127.304 120.496 127.337 120.572 127.37 120.65C127.588 121.163 127.588 121.163 127.588 121.262C126.71 121.262 125.832 121.262 124.927 121.262C124.605 120.471 124.283 119.681 123.951 118.867C121.316 118.867 118.68 118.867 115.965 118.867C115.482 120.052 115.482 120.052 114.989 121.262C114.199 121.262 113.408 121.262 112.594 121.262C112.655 120.955 112.703 120.741 112.821 120.465C112.849 120.398 112.877 120.331 112.907 120.261C112.938 120.189 112.969 120.117 113.001 120.042C113.033 119.965 113.066 119.888 113.1 119.809C113.208 119.554 113.317 119.299 113.426 119.044C113.502 118.864 113.579 118.684 113.655 118.504C113.814 118.13 113.973 117.756 114.132 117.382C114.353 116.862 114.573 116.342 114.793 115.821C114.827 115.74 114.861 115.659 114.896 115.576C114.965 115.413 115.034 115.25 115.102 115.087C115.749 113.553 116.399 112.022 117.052 110.491C117.698 108.974 118.341 107.455 118.982 105.935C119.016 105.855 119.05 105.775 119.084 105.692C119.147 105.544 119.21 105.395 119.273 105.246C119.441 104.848 119.61 104.45 119.781 104.053ZM119.958 108.399C119.946 108.446 119.934 108.494 119.921 108.542C119.278 110.945 118.245 113.224 117.28 115.511C117.223 115.648 117.165 115.785 117.108 115.922C117.082 115.984 117.056 116.046 117.029 116.109C116.922 116.364 116.853 116.547 116.853 116.826C118.931 116.826 121.01 116.826 123.152 116.826C122.957 116.155 122.957 116.155 122.722 115.506C122.692 115.433 122.663 115.36 122.633 115.285C122.602 115.209 122.571 115.133 122.539 115.054C122.506 114.973 122.473 114.891 122.439 114.807C122.369 114.634 122.299 114.461 122.229 114.288C122.047 113.839 121.867 113.39 121.686 112.941C121.651 112.854 121.616 112.766 121.58 112.676C121.015 111.268 120.473 109.856 120.047 108.399C120.017 108.399 119.988 108.399 119.958 108.399Z" fill="white"/>
<path d="M50.0413 77.4409C50.217 77.4409 50.3927 77.4409 50.5737 77.4409C51.3178 79.1101 52.0338 80.7907 52.7469 82.4733C53.1029 83.313 53.4601 84.1522 53.8174 84.9913C53.929 85.2535 54.0406 85.5157 54.1522 85.7779C54.4561 86.4919 54.7601 87.2059 55.0641 87.9199C55.1024 88.0099 55.1407 88.0998 55.1801 88.1924C55.2572 88.3734 55.3342 88.5544 55.4113 88.7354C55.5993 89.1769 55.7872 89.6186 55.9751 90.0602C56.0473 90.2301 56.1196 90.4 56.1918 90.5698C56.2444 90.6934 56.2444 90.6934 56.298 90.8195C56.4986 91.2909 56.6996 91.7621 56.9012 92.2331C57.0199 92.5106 57.1384 92.7882 57.2568 93.0659C57.3111 93.193 57.3655 93.32 57.42 93.447C57.4936 93.6184 57.5668 93.7899 57.6399 93.9615C57.6806 94.0566 57.7214 94.1518 57.7634 94.2499C57.8492 94.4726 57.8492 94.4726 57.8492 94.65C57.0001 94.65 56.151 94.65 55.2762 94.65C54.8732 93.8443 54.5461 93.0025 54.2114 92.1662C51.5763 92.1369 48.9411 92.1077 46.2261 92.0775C46.1968 92.2239 46.1675 92.3702 46.1374 92.521C46.0807 92.6844 46.0203 92.8466 45.9571 93.0075C45.9218 93.0977 45.8865 93.188 45.85 93.2809C45.8131 93.3741 45.7762 93.4673 45.7381 93.5633C45.7012 93.6579 45.6642 93.7525 45.6261 93.8499C45.3508 94.5493 45.3508 94.5493 45.2501 94.65C45.0727 94.6578 44.895 94.6595 44.7174 94.6586C44.6096 94.6584 44.5018 94.6581 44.3907 94.6578C44.2772 94.657 44.1637 94.6563 44.0468 94.6555C43.9329 94.6551 43.819 94.6547 43.7017 94.6543C43.4193 94.6533 43.1369 94.6518 42.8545 94.65C42.9159 94.1989 43.1015 93.8056 43.2808 93.3915C43.3155 93.3104 43.3501 93.2294 43.3858 93.1459C43.461 92.9704 43.5363 92.795 43.6118 92.6196C43.7736 92.244 43.9344 91.8679 44.0953 91.4919C44.1787 91.2969 44.2623 91.1018 44.3458 90.9068C44.7247 90.0225 45.0994 89.1365 45.473 88.25C46.0323 86.9228 46.5937 85.5965 47.1577 84.2713C47.7142 82.9637 48.2685 81.6552 48.8213 80.3461C48.8572 80.2611 48.8931 80.176 48.9301 80.0885C49.3025 79.2068 49.6746 78.325 50.0413 77.4409ZM50.2188 81.7875C50.1899 81.8981 50.161 82.0086 50.1312 82.1225C49.798 83.3601 49.3567 84.5302 48.8657 85.7128C48.7903 85.8964 48.7151 86.0801 48.64 86.2638C48.4936 86.6214 48.3468 86.9789 48.1995 87.3362C47.9471 87.9488 47.6984 88.563 47.4516 89.1779C47.4158 89.266 47.3801 89.3542 47.3432 89.445C47.3119 89.523 47.2805 89.601 47.2482 89.6814C47.2217 89.7468 47.1953 89.8123 47.168 89.8797C47.1037 90.0374 47.1037 90.0374 47.1134 90.2147C49.1922 90.2147 51.2711 90.2147 53.4129 90.2147C53.3399 89.7571 53.3399 89.7571 53.2007 89.3399C53.1757 89.2777 53.1507 89.2155 53.1249 89.1514C53.0977 89.0852 53.0705 89.0191 53.0424 88.9509C53.0139 88.8804 52.9854 88.8098 52.956 88.7371C52.8947 88.5856 52.8333 88.4342 52.7715 88.2828C52.6086 87.883 52.4475 87.4824 52.2862 87.0819C52.2375 86.9612 52.2375 86.9612 52.1878 86.8381C51.8926 86.1063 51.6021 85.3729 51.3168 84.6372C51.2841 84.5532 51.2841 84.5532 51.2509 84.4674C50.9086 83.5828 50.5907 82.6928 50.3075 81.7875C50.2782 81.7875 50.2489 81.7875 50.2188 81.7875Z" fill="white"/>
<path d="M137.349 104.23C138.256 104.23 139.164 104.23 140.099 104.23C140.293 104.592 140.487 104.955 140.687 105.328C141.147 106.186 141.607 107.043 142.068 107.9C142.119 107.995 142.169 108.089 142.222 108.186C142.514 108.729 142.809 109.271 143.106 109.812C144.89 113.066 144.89 113.066 144.89 113.899C144.949 113.899 145.007 113.899 145.068 113.899C145.09 113.785 145.112 113.67 145.135 113.553C145.237 113.097 145.397 112.685 145.584 112.258C145.618 112.178 145.653 112.099 145.688 112.017C146.325 110.577 147.094 109.199 147.853 107.821C148.28 107.043 148.688 106.255 149.093 105.465C149.143 105.368 149.193 105.272 149.244 105.172C149.288 105.087 149.332 105.001 149.377 104.913C149.419 104.834 149.461 104.755 149.504 104.674C149.541 104.591 149.578 104.508 149.615 104.423C149.77 104.23 149.77 104.23 150.045 104.18C150.155 104.182 150.265 104.184 150.379 104.187C150.437 104.187 150.496 104.188 150.556 104.189C150.744 104.191 150.931 104.197 151.118 104.202C151.245 104.205 151.372 104.207 151.499 104.208C151.81 104.213 152.121 104.221 152.432 104.23C152.317 104.603 152.176 104.934 151.99 105.276C151.937 105.375 151.884 105.473 151.829 105.575C151.771 105.681 151.713 105.787 151.656 105.893C151.596 106.004 151.536 106.115 151.476 106.226C151.353 106.454 151.229 106.682 151.106 106.91C150.935 107.224 150.766 107.539 150.597 107.854C150.075 108.826 149.549 109.797 149.02 110.765C148.628 111.481 148.241 112.199 147.856 112.918C147.809 113.006 147.762 113.093 147.713 113.184C147.663 113.28 147.613 113.377 147.561 113.476C147.423 113.734 147.267 113.974 147.103 114.216C146.211 115.591 146.162 116.864 146.196 118.445C146.201 118.764 146.201 119.083 146.201 119.402C146.201 120.022 146.211 120.641 146.221 121.262C145.401 121.262 144.582 121.262 143.737 121.262C143.744 120.902 143.751 120.543 143.758 120.172C143.76 119.879 143.762 119.585 143.762 119.292C143.763 118.986 143.765 118.68 143.773 118.374C143.815 116.672 143.59 115.476 142.647 114.045C142.388 113.645 142.161 113.228 141.929 112.812C141.876 112.719 141.823 112.626 141.769 112.531C141.363 111.817 140.976 111.093 140.591 110.369C140.171 109.58 139.738 108.799 139.295 108.024C138.833 107.212 138.394 106.389 137.956 105.565C137.903 105.464 137.849 105.364 137.794 105.26C137.747 105.17 137.699 105.081 137.65 104.988C137.524 104.751 137.524 104.751 137.349 104.496C137.349 104.408 137.349 104.321 137.349 104.23Z" fill="white"/>
<path d="M121.91 77.6183C122.847 77.6183 123.784 77.6183 124.749 77.6183C124.903 77.9146 125.057 78.211 125.215 78.5164C125.624 79.3011 126.041 80.0806 126.466 80.8563C126.926 81.6945 127.38 82.5355 127.831 83.3779C128.004 83.6995 128.178 84.0198 128.355 84.3385C128.849 85.2313 129.211 86.145 129.541 87.1099C129.707 86.8603 129.802 86.6271 129.905 86.3474C130.635 84.3878 131.699 82.5357 132.709 80.7093C133.112 79.9806 133.493 79.2415 133.872 78.5003C133.918 78.4109 133.964 78.3216 134.011 78.2295C134.052 78.1499 134.092 78.0704 134.134 77.9884C134.243 77.7957 134.243 77.7957 134.421 77.6183C134.685 77.5981 134.685 77.5981 135.02 77.6009C135.108 77.6013 135.108 77.6013 135.198 77.6017C135.386 77.6027 135.574 77.6049 135.763 77.6072C135.89 77.6081 136.017 77.6089 136.145 77.6096C136.457 77.6116 136.77 77.6146 137.082 77.6183C136.49 78.8285 135.854 80.0142 135.215 81.1998C135.049 81.5082 134.883 81.8169 134.717 82.1257C134.194 83.0985 133.668 84.0698 133.138 85.0389C132.638 85.955 132.139 86.8723 131.651 87.7953C131.549 87.9817 131.443 88.1656 131.331 88.3459C130.883 89.0898 130.782 89.6757 130.791 90.5351C130.791 90.6548 130.79 90.7745 130.788 90.8941C130.785 91.2049 130.786 91.5156 130.788 91.8264C130.789 92.1452 130.786 92.464 130.784 92.7827C130.78 93.4052 130.781 94.0273 130.783 94.6499C129.963 94.6499 129.143 94.6499 128.298 94.6499C128.302 94.2789 128.306 93.9078 128.31 93.5255C128.311 93.2245 128.311 92.9235 128.31 92.6225C128.309 92.3075 128.31 91.9928 128.315 91.6778C128.336 90.2035 128.288 88.9736 127.431 87.7148C127.283 87.4944 127.157 87.2633 127.03 87.0298C126.945 86.8808 126.859 86.7319 126.773 86.5832C126.337 85.8193 125.917 85.0479 125.504 84.2712C125.099 83.5115 124.688 82.7566 124.261 82.0092C123.821 81.2373 123.394 80.4586 122.975 79.6751C122.892 79.5204 122.892 79.5204 122.807 79.3626C122.499 78.7849 122.203 78.2043 121.91 77.6183Z" fill="white"/>
<path d="M43.5553 107.356C43.617 107.408 43.6788 107.459 43.7424 107.512C43.8005 107.558 43.8586 107.603 43.9185 107.649C44.9393 108.476 45.6798 109.669 46.1713 110.872C46.1947 110.929 46.218 110.986 46.2421 111.045C46.3576 111.34 46.4042 111.536 46.4042 111.859C48.1317 111.859 49.8592 111.859 51.6391 111.859C51.6391 112.269 51.6391 112.679 51.6391 113.101C42.7966 113.101 33.9542 113.101 24.8438 113.101C24.8438 112.691 24.8438 112.281 24.8438 111.859C26.8055 111.83 28.7672 111.8 30.7884 111.77C30.9641 111.302 31.1398 110.834 31.3208 110.351C32.3467 108.276 34.0433 106.741 36.2284 105.966C38.7426 105.222 41.5062 105.682 43.5553 107.356ZM34.1964 109.154C33.6291 109.741 32.5629 110.954 32.5629 111.859C36.5742 111.859 40.5856 111.859 44.7184 111.859C43.9214 109.947 42.8157 108.501 40.8734 107.689C38.4665 106.793 36.0523 107.41 34.1964 109.154Z" fill="white"/>
<path d="M76.4825 4.70167C76.713 4.93214 76.6824 5.02561 76.6831 5.34652C76.6837 5.44565 76.6844 5.54478 76.685 5.64691C76.6848 5.75618 76.6846 5.86544 76.6843 5.97802C76.6848 6.09269 76.6852 6.20736 76.6857 6.3255C76.6869 6.64056 76.687 6.9556 76.6867 7.27066C76.6866 7.53344 76.6871 7.79622 76.6875 8.05899C76.6885 8.67883 76.6885 9.29865 76.688 9.91848C76.6874 10.5584 76.6885 11.1983 76.6904 11.8383C76.692 12.3873 76.6925 12.9362 76.6922 13.4852C76.6921 13.8133 76.6923 14.1413 76.6935 14.4694C76.6949 14.8352 76.694 15.2009 76.693 15.5666C76.6937 15.6757 76.6944 15.7848 76.6951 15.8972C76.6944 15.9966 76.6938 16.096 76.6932 16.1983C76.6932 16.2849 76.6932 16.3714 76.6932 16.4605C76.66 16.677 76.66 16.6771 76.5446 16.8411C76.3938 16.9432 76.3938 16.9432 76.0777 16.9265C75.7727 16.8545 75.7727 16.8545 75.5953 16.6771C75.5722 16.4717 75.5722 16.4717 75.5709 16.2096C75.57 16.1105 75.5692 16.0114 75.5682 15.9092C75.5682 15.8 75.5681 15.6907 75.5681 15.5781C75.5673 15.4634 75.5666 15.3488 75.5658 15.2306C75.5639 14.9156 75.5631 14.6005 75.5627 14.2855C75.5623 14.0888 75.5618 13.8921 75.5611 13.6953C75.559 13.0094 75.5578 12.3236 75.5575 11.6376C75.5572 10.9977 75.5545 10.3578 75.5508 9.71785C75.5477 9.16888 75.5464 8.61992 75.5463 8.07095C75.5462 7.74286 75.5454 7.41481 75.5429 7.08673C75.5402 6.72096 75.541 6.35528 75.5421 5.98949C75.5408 5.88041 75.5394 5.77133 75.5381 5.65894C75.539 5.55956 75.5398 5.46018 75.5407 5.35779C75.5405 5.27126 75.5404 5.18473 75.5402 5.09559C75.5953 4.87908 75.5953 4.87908 75.8056 4.71506C76.0817 4.59422 76.2012 4.60283 76.4825 4.70167Z" fill="white"/>
<path d="M125.903 131.463C134.307 131.463 142.71 131.463 151.368 131.463C151.368 131.61 151.368 131.756 151.368 131.907C142.964 131.907 134.561 131.907 125.903 131.907C125.903 131.761 125.903 131.614 125.903 131.463Z" fill="white"/>
<path d="M0.355469 131.463C8.75873 131.463 17.162 131.463 25.8199 131.463C25.8199 131.61 25.8199 131.756 25.8199 131.907C17.4166 131.907 9.01337 131.907 0.355469 131.907C0.355469 131.761 0.355469 131.614 0.355469 131.463Z" fill="white"/>
<path d="M82.4655 10.3511C82.7816 10.3788 82.7816 10.3788 82.9535 10.4786C83.1146 10.7628 83.0828 11.0441 83.0008 11.3553C82.9318 11.5655 82.8574 11.7731 82.7809 11.9807C82.7527 12.0593 82.7246 12.1378 82.6955 12.2188C82.603 12.4762 82.5094 12.7331 82.4156 12.9901C82.3512 13.1682 82.2869 13.3462 82.2227 13.5243C82.1238 13.7984 82.0248 14.0723 81.9254 14.3462C81.7022 14.9616 81.4832 15.5783 81.2667 16.196C81.1829 16.4338 81.099 16.6715 81.0152 16.9092C80.9618 17.0608 80.9088 17.2125 80.856 17.3643C80.7828 17.5747 80.7084 17.7848 80.6338 17.9947C80.6125 18.0568 80.5912 18.1189 80.5693 18.1829C80.4558 18.4986 80.4078 18.6139 80.1198 18.8059C79.8037 18.7948 79.8037 18.7948 79.4987 18.7172C79.3111 18.4448 79.3209 18.3652 79.3709 18.022C79.5237 17.4254 79.7392 16.8476 79.9469 16.2684C79.9913 16.1433 80.0358 16.0181 80.0802 15.893C80.1967 15.5647 80.3138 15.2367 80.431 14.9087C80.5489 14.5786 80.6663 14.2482 80.7837 13.9179C80.9961 13.3206 81.2086 12.7235 81.4225 12.1268C81.5034 11.8995 81.5832 11.672 81.6619 11.444C81.6818 11.3868 81.7017 11.3296 81.7222 11.2708C81.777 11.1132 81.8314 10.9554 81.8857 10.7976C82.0269 10.4476 82.0831 10.3858 82.4655 10.3511Z" fill="white"/>
<path d="M69.8279 10.3788C70.0005 10.3528 70.0005 10.3528 70.1939 10.3621C70.3073 10.3676 70.4208 10.3731 70.5377 10.3788C70.7961 10.8728 71.0021 11.3618 71.181 11.8892C71.2071 11.965 71.2333 12.0408 71.2603 12.1189C71.3452 12.3648 71.4295 12.6109 71.5137 12.857C71.6318 13.2004 71.7502 13.5437 71.8689 13.8868C71.8986 13.9726 71.9282 14.0584 71.9588 14.1468C72.1486 14.6938 72.3449 15.2379 72.5475 15.7802C72.5726 15.8474 72.5976 15.9146 72.6233 15.9838C72.7399 16.2966 72.8575 16.6088 72.9771 16.9203C73.1854 17.472 73.3586 17.9451 73.2882 18.5398C73.1939 18.7227 73.1939 18.7227 73.022 18.8059C72.717 18.8281 72.717 18.8281 72.4009 18.7172C72.3042 18.5641 72.3042 18.5641 72.2246 18.3687C72.1949 18.2964 72.1652 18.2241 72.1346 18.1496C71.9879 17.7673 71.8477 17.3833 71.7126 16.9968C71.682 16.91 71.6514 16.8233 71.6198 16.7339C71.5213 16.4544 71.4232 16.1748 71.3251 15.8952C71.1902 15.5114 71.0551 15.1276 70.92 14.7438C70.8869 14.6498 70.8539 14.5559 70.8199 14.4591C70.6302 13.9205 70.4379 13.3831 70.2414 12.847C70.1993 12.7316 70.1572 12.6163 70.1151 12.5009C70.0405 12.2974 69.9653 12.094 69.8894 11.891C69.8409 11.7582 69.8409 11.7582 69.7915 11.6227C69.7639 11.5486 69.7363 11.4744 69.7079 11.398C69.6396 11.1355 69.6293 10.9152 69.6504 10.6449C69.709 10.5571 69.7675 10.4693 69.8279 10.3788Z" fill="white"/>
<path d="M38.6847 99.2959C38.9509 99.3513 38.9509 99.3513 39.1418 99.5154C39.384 99.9281 39.3583 100.303 39.3561 100.773C39.3566 100.868 39.3572 100.963 39.3577 101.061C39.3584 101.261 39.3581 101.461 39.3569 101.661C39.3557 101.967 39.3587 102.273 39.3621 102.579C39.3622 102.774 39.362 102.968 39.3616 103.163C39.3628 103.254 39.364 103.346 39.3652 103.44C39.3597 103.864 39.3552 104.074 39.0978 104.424C38.8622 104.585 38.8622 104.585 38.5849 104.591C38.2907 104.482 38.2226 104.406 38.0636 104.141C38.0292 103.937 38.0292 103.937 38.0278 103.709C38.0267 103.624 38.0255 103.538 38.0244 103.45C38.0246 103.358 38.0249 103.266 38.0252 103.172C38.0247 103.077 38.0242 102.982 38.0238 102.884C38.0232 102.683 38.0233 102.483 38.0241 102.282C38.0248 101.975 38.0223 101.668 38.0194 101.362C38.0193 101.167 38.0194 100.972 38.0196 100.777C38.0186 100.685 38.0176 100.593 38.0166 100.499C38.0204 100.103 38.0246 99.8616 38.2272 99.5152C38.4185 99.3513 38.4185 99.3513 38.6847 99.2959Z" fill="white"/>
<path d="M82.119 129.941C82.5571 130.191 82.8853 130.54 83.0485 131.02C83.1291 131.585 83.1565 132.155 82.8711 132.666C82.5214 133.124 82.0762 133.408 81.5069 133.503C80.9614 133.533 80.4472 133.436 80.0215 133.08C79.5722 132.594 79.3652 132.145 79.3896 131.47C79.4633 130.829 79.7242 130.483 80.2149 130.075C80.7201 129.723 81.5532 129.753 82.119 129.941ZM80.175 130.707C79.8881 131.132 79.8664 131.587 79.9431 132.084C80.0643 132.482 80.2676 132.717 80.6252 132.927C81.0317 133.101 81.3874 133.114 81.8064 132.971C82.1297 132.776 82.3596 132.551 82.555 132.228C82.6504 131.783 82.6553 131.428 82.5051 131.003C82.264 130.641 82.0356 130.383 81.6192 130.25C81.0494 130.152 80.5765 130.28 80.175 130.707Z" fill="white"/>
<path d="M40.7713 129.941C41.2095 130.191 41.5376 130.54 41.7009 131.02C41.7814 131.585 41.8088 132.155 41.5234 132.666C41.1738 133.124 40.7286 133.408 40.1593 133.503C39.6138 133.533 39.0995 133.436 38.6738 133.08C38.2245 132.594 38.0175 132.145 38.042 131.47C38.1156 130.829 38.3765 130.483 38.8672 130.075C39.3724 129.723 40.2056 129.753 40.7713 129.941ZM38.8273 130.707C38.5404 131.132 38.5188 131.587 38.5955 132.084C38.7166 132.482 38.92 132.717 39.2776 132.927C39.684 133.101 40.0398 133.114 40.4587 132.971C40.782 132.776 41.012 132.551 41.2074 132.228C41.3028 131.783 41.3076 131.428 41.1574 131.003C40.9163 130.641 40.688 130.383 40.2716 130.25C39.7017 130.152 39.2288 130.28 38.8273 130.707Z" fill="white"/>
<path d="M73.5537 129.866C75.1185 129.866 75.1185 129.866 75.6221 130.315C75.8605 130.73 75.9278 131.183 75.8152 131.652C75.6962 131.953 75.6005 132.08 75.3282 132.261C75.3817 132.54 75.4713 132.714 75.6443 132.938C75.8606 133.218 75.8606 133.218 75.8606 133.414C75.6332 133.464 75.6332 133.464 75.3282 133.414C75.1795 133.24 75.1795 133.24 75.0288 133.021C74.8222 132.716 74.8222 132.716 74.5099 132.543C74.294 132.516 74.294 132.516 73.9973 132.527C73.9973 132.82 73.9973 133.113 73.9973 133.414C73.8509 133.414 73.7045 133.414 73.5537 133.414C73.5537 132.244 73.5537 131.073 73.5537 129.866ZM73.9973 130.31C73.9973 130.895 73.9973 131.481 73.9973 132.084C74.6658 132.116 74.6658 132.116 75.1508 131.818C75.3886 131.461 75.4097 131.172 75.3282 130.753C75.1255 130.462 75.1255 130.462 74.7959 130.31C74.5324 130.31 74.2688 130.31 73.9973 130.31Z" fill="white"/>
<path d="M110.642 129.866C112.215 129.866 112.215 129.866 112.71 130.321C112.945 130.722 113.004 131.114 112.906 131.571C112.778 131.947 112.62 132.165 112.327 132.439C112.372 132.494 112.417 132.55 112.463 132.607C112.521 132.68 112.579 132.752 112.638 132.827C112.724 132.935 112.724 132.935 112.813 133.045C112.948 133.237 112.948 133.237 112.948 133.414C112.721 133.464 112.721 133.464 112.416 133.414C112.267 133.24 112.267 133.24 112.117 133.021C111.91 132.716 111.91 132.716 111.598 132.543C111.382 132.516 111.382 132.516 111.085 132.527C111.085 132.82 111.085 133.113 111.085 133.414C110.939 133.414 110.792 133.414 110.642 133.414C110.642 132.244 110.642 131.073 110.642 129.866ZM111.085 130.31C111.085 130.895 111.085 131.481 111.085 132.084C111.754 132.116 111.754 132.116 112.239 131.818C112.457 131.491 112.478 131.222 112.416 130.842C112.257 130.593 112.148 130.442 111.884 130.31C111.62 130.31 111.357 130.31 111.085 130.31Z" fill="white"/>
<path d="M57.2285 129.866C57.9605 129.866 58.6925 129.866 59.4467 129.866C59.4467 130.013 59.4467 130.159 59.4467 130.31C58.8904 130.31 58.334 130.31 57.7609 130.31C57.7609 130.807 57.7609 131.305 57.7609 131.818C58.2586 131.818 58.7564 131.818 59.2692 131.818C59.2692 131.964 59.2692 132.11 59.2692 132.261C58.7715 132.261 58.2737 132.261 57.7609 132.261C57.7609 132.495 57.7609 132.73 57.7609 132.971C58.3465 132.971 58.9321 132.971 59.5354 132.971C59.5354 133.117 59.5354 133.264 59.5354 133.414C58.7741 133.414 58.0129 133.414 57.2285 133.414C57.2285 132.244 57.2285 131.073 57.2285 129.866Z" fill="white"/>
<path d="M48.1509 105.339C48.4448 105.383 48.4448 105.383 48.6167 105.483C48.7671 105.748 48.7681 105.879 48.7109 106.182C48.53 106.444 48.3138 106.665 48.0899 106.891C48.0409 106.943 47.992 106.996 47.9415 107.05C47.6501 107.354 47.3387 107.636 47.0196 107.911C46.949 107.973 46.8785 108.034 46.8058 108.097C46.5815 108.222 46.5815 108.222 46.299 108.208C46.0492 108.133 46.0492 108.133 45.8717 107.956C45.8106 107.589 45.7842 107.375 45.9969 107.062C46.1731 106.872 46.3567 106.695 46.5482 106.52C46.6115 106.459 46.6747 106.398 46.7399 106.336C46.9211 106.163 47.1052 105.994 47.2913 105.827C47.3421 105.78 47.3928 105.734 47.4451 105.686C47.6969 105.465 47.8087 105.385 48.1509 105.339Z" fill="white"/>
<path d="M28.9613 105.312C29.5277 105.328 29.8885 105.804 30.2561 106.188C30.3889 106.326 30.5248 106.46 30.6613 106.594C31.3106 107.252 31.3106 107.252 31.3543 107.617C31.3205 107.867 31.3205 107.867 31.1819 108.083C30.9656 108.222 30.9656 108.222 30.6706 108.211C30.2927 108.121 30.1509 108.006 29.8794 107.732C29.7978 107.651 29.7161 107.569 29.632 107.485C29.5906 107.442 29.5492 107.399 29.5065 107.355C29.3797 107.224 29.2506 107.095 29.1211 106.967C28.4225 106.258 28.4225 106.258 28.3926 105.827C28.5123 105.468 28.5901 105.399 28.9613 105.312Z" fill="white"/>
<path d="M63.2617 129.866C63.9937 129.866 64.7257 129.866 65.4799 129.866C65.4799 130.013 65.4799 130.159 65.4799 130.31C64.8943 130.31 64.3087 130.31 63.7053 130.31C63.7053 130.807 63.7053 131.305 63.7053 131.818C64.2324 131.818 64.7594 131.818 65.3024 131.818C65.3024 131.964 65.3024 132.11 65.3024 132.261C64.7754 132.261 64.2484 132.261 63.7053 132.261C63.7053 132.495 63.7053 132.73 63.7053 132.971C64.3202 132.971 64.9351 132.971 65.5686 132.971C65.5686 133.117 65.5686 133.264 65.5686 133.414C64.8073 133.414 64.0461 133.414 63.2617 133.414C63.2617 132.244 63.2617 131.073 63.2617 129.866Z" fill="white"/>
<path d="M104.608 129.866C105.34 129.866 106.072 129.866 106.827 129.866C106.827 130.013 106.827 130.159 106.827 130.31C106.241 130.31 105.655 130.31 105.052 130.31C105.052 130.807 105.052 131.305 105.052 131.818C105.55 131.818 106.048 131.818 106.56 131.818C106.56 131.964 106.56 132.11 106.56 132.261C106.063 132.261 105.565 132.261 105.052 132.261C105.052 132.495 105.052 132.73 105.052 132.971C105.638 132.971 106.223 132.971 106.827 132.971C106.827 133.117 106.827 133.264 106.827 133.414C106.095 133.414 105.363 133.414 104.608 133.414C104.608 132.244 104.608 131.073 104.608 129.866Z" fill="white"/>
<path d="M34.0182 129.933C34.3092 130.091 34.5009 130.258 34.6032 130.576C34.5446 130.635 34.4861 130.693 34.4257 130.754C34.2011 130.731 34.0904 130.682 33.9211 130.532C33.6027 130.325 33.2934 130.29 32.9174 130.31C32.5263 130.418 32.2762 130.575 32.0301 130.898C31.8784 131.41 31.8784 131.872 32.0301 132.384C32.2768 132.707 32.5262 132.861 32.9174 132.971C33.3589 133.009 33.6877 132.939 34.032 132.655C34.1034 132.584 34.1748 132.513 34.2483 132.439C34.3654 132.498 34.4825 132.556 34.6032 132.616C34.5754 132.875 34.5156 132.97 34.3315 133.16C33.8188 133.487 33.3381 133.546 32.7486 133.456C32.1673 133.327 31.8268 133.004 31.4978 132.528C31.2545 132.008 31.246 131.469 31.409 130.925C31.5859 130.495 31.9205 130.217 32.2963 129.955C32.8201 129.781 33.4895 129.768 34.0182 129.933Z" fill="white"/>
<path d="M87.6619 129.866C87.7498 129.866 87.8376 129.866 87.9281 129.866C88.0734 130.204 88.2185 130.541 88.3635 130.879C88.4127 130.993 88.4619 131.107 88.5112 131.222C89.3477 133.165 89.3477 133.165 89.3477 133.414C89.1721 133.414 88.9964 133.414 88.8154 133.414C88.7568 133.268 88.6983 133.122 88.6379 132.971C88.0816 132.942 87.5253 132.912 86.9521 132.882C86.8936 133.058 86.835 133.234 86.7747 133.414C86.6283 133.414 86.4819 133.414 86.3311 133.414C86.3858 132.962 86.5246 132.586 86.7002 132.171C86.7276 132.104 86.7551 132.038 86.7833 131.97C86.8705 131.76 86.9584 131.551 87.0464 131.341C87.1059 131.198 87.1653 131.055 87.2247 130.912C87.3699 130.563 87.5157 130.215 87.6619 129.866ZM87.7507 130.753C87.6469 131.017 87.5435 131.282 87.4401 131.546C87.4105 131.622 87.3809 131.697 87.3504 131.775C87.3223 131.846 87.2943 131.918 87.2655 131.992C87.2394 132.058 87.2134 132.125 87.1866 132.193C87.1245 132.336 87.1245 132.336 87.1296 132.439C87.5688 132.439 88.008 132.439 88.4605 132.439C88.2759 131.867 88.0681 131.309 87.8394 130.753C87.8101 130.753 87.7808 130.753 87.7507 130.753Z" fill="white"/>
<path d="M94.3157 129.866C94.5561 129.989 94.6656 130.103 94.848 130.31C94.848 130.368 94.848 130.427 94.848 130.487C94.6484 130.548 94.6484 130.548 94.4044 130.576C94.3477 130.532 94.2909 130.488 94.2325 130.443C94.048 130.278 94.048 130.278 93.7611 130.337C93.6806 130.358 93.6001 130.378 93.5171 130.398C93.4489 130.606 93.4489 130.606 93.4284 130.842C93.6274 131.101 93.8892 131.219 94.177 131.363C94.8517 131.728 94.8517 131.728 95.0255 132.084C95.0925 132.478 95.0736 132.78 94.9035 133.143C94.5556 133.416 94.2222 133.488 93.7833 133.503C93.423 133.454 93.1105 133.371 92.8562 133.1C92.7574 132.954 92.7574 132.954 92.6299 132.705C92.6884 132.646 92.747 132.588 92.8073 132.527C93.027 132.549 93.1302 132.578 93.2731 132.749C93.5246 132.965 93.8137 132.981 94.1382 132.971C94.3671 132.888 94.3671 132.888 94.4931 132.705C94.5597 132.487 94.5597 132.487 94.4931 132.261C94.1822 131.93 93.7754 131.766 93.3667 131.582C93.1373 131.448 93.0289 131.337 92.8961 131.108C92.8387 130.792 92.8645 130.491 92.9682 130.188C93.296 129.739 93.8175 129.795 94.3157 129.866Z" fill="white"/>
<path d="M118.094 129.867C118.377 130.027 118.377 130.027 118.538 130.221C118.538 130.309 118.538 130.397 118.538 130.487C118.338 130.548 118.338 130.548 118.094 130.576C118.037 130.532 117.981 130.488 117.922 130.443C117.738 130.278 117.738 130.278 117.451 130.338C117.37 130.358 117.29 130.378 117.207 130.399C117.177 130.604 117.148 130.809 117.118 131.02C117.175 131.04 117.231 131.06 117.29 131.081C118.466 131.585 118.466 131.585 118.715 131.995C118.783 132.382 118.828 132.782 118.62 133.13C118.288 133.44 117.91 133.518 117.473 133.503C116.984 133.421 116.72 133.27 116.408 132.883C116.408 132.795 116.408 132.707 116.408 132.616C116.608 132.55 116.608 132.55 116.852 132.528C116.97 132.646 117.088 132.764 117.207 132.883C117.587 132.971 117.801 132.978 118.183 132.883C118.183 132.619 118.183 132.356 118.183 132.084C118.126 132.064 118.069 132.044 118.011 132.023C116.989 131.585 116.989 131.585 116.674 131.197C116.539 130.596 116.539 130.596 116.697 130.232C117.081 129.766 117.532 129.798 118.094 129.867Z" fill="white"/>
<path d="M45.4277 129.866C46.1597 129.866 46.8917 129.866 47.6459 129.866C47.6459 130.013 47.6459 130.159 47.6459 130.31C47.0896 130.31 46.5333 130.31 45.9601 130.31C45.9601 130.807 45.9601 131.305 45.9601 131.818C46.4578 131.818 46.9556 131.818 47.4684 131.818C47.4684 131.964 47.4684 132.11 47.4684 132.261C46.9707 132.261 46.4729 132.261 45.9601 132.261C45.9601 132.642 45.9601 133.022 45.9601 133.414C45.7844 133.414 45.6087 133.414 45.4277 133.414C45.4277 132.244 45.4277 131.073 45.4277 129.866Z" fill="white"/>
<path d="M51.3721 129.866C52.0748 129.866 52.7775 129.866 53.5015 129.866C53.5015 130.013 53.5015 130.159 53.5015 130.31C52.9452 130.31 52.3889 130.31 51.8157 130.31C51.8157 130.807 51.8157 131.305 51.8157 131.818C52.3427 131.818 52.8698 131.818 53.4128 131.818C53.4128 131.964 53.4128 132.11 53.4128 132.261C52.8857 132.261 52.3587 132.261 51.8157 132.261C51.8157 132.642 51.8157 133.022 51.8157 133.414C51.6693 133.414 51.5229 133.414 51.3721 133.414C51.3721 132.244 51.3721 131.073 51.3721 129.866Z" fill="white"/>
<path d="M98.3975 129.866C99.2466 129.866 100.096 129.866 100.971 129.866C100.971 130.013 100.971 130.159 100.971 130.31C100.619 130.31 100.268 130.31 99.9058 130.31C99.9058 131.334 99.9058 132.359 99.9058 133.414C99.7594 133.414 99.613 133.414 99.4622 133.414C99.4622 132.39 99.4622 131.365 99.4622 130.31C99.1108 130.31 98.7595 130.31 98.3975 130.31C98.3975 130.163 98.3975 130.017 98.3975 129.866Z" fill="white"/>
<path d="M68.9399 19.3384C69.1174 19.3384 69.1174 19.3384 69.255 19.4718C69.5858 19.8583 69.8938 20.2497 70.1821 20.669C70.0064 20.8446 69.8308 21.0203 69.6498 21.2012C69.3087 21.0673 69.1392 20.8857 68.9399 20.5803C68.9053 20.2653 68.9053 20.2653 68.9178 19.9316C68.921 19.8203 68.9242 19.7091 68.9275 19.5944C68.9336 19.4677 68.9336 19.4677 68.9399 19.3384Z" fill="white"/>
<path d="M83.2249 18.6284C83.2542 18.6284 83.2834 18.6284 83.3136 18.6284C83.3952 19.8165 83.3952 19.8165 83.1951 20.1659C83.0474 20.3083 83.0474 20.3083 82.7812 20.4913C82.56 20.3845 82.3659 20.2735 82.1602 20.1364C82.1709 19.781 82.2985 19.6209 82.5428 19.3824C82.5985 19.3302 82.6542 19.2779 82.7116 19.2241C82.9028 19.0404 83.061 18.8363 83.2249 18.6284Z" fill="white"/>
</g>
<defs>
<clipPath id="clip0_1531_12894">
<rect width="152.432" height="136.697" fill="white"/>
</clipPath>
</defs>
</svg>
