<svg width="186" height="125" viewBox="0 0 186 125" fill="none" xmlns="http://www.w3.org/2000/svg">
<path d="M78.1192 39.1281C79.3929 39.7925 80.2401 40.5461 80.8506 41.861C80.9739 42.8386 80.9702 43.8124 80.9733 44.7968C80.9852 45.3814 80.9975 45.9661 81.0101 46.5507C81.0259 47.4689 81.0384 48.3868 81.0437 49.3052C81.0505 50.1941 81.0707 51.082 81.0928 51.9707C81.0909 52.2435 81.089 52.5162 81.0871 52.7973C81.1232 53.9437 81.1559 54.688 81.9034 55.5908C82.4434 56.0662 82.9846 56.4922 83.582 56.8921C84.5799 56.5505 84.8879 56.4354 85.494 55.5256C85.5764 54.9726 85.5764 54.9726 85.5647 54.3625C85.5665 54.129 85.5682 53.8956 85.57 53.655C85.5688 53.4039 85.5677 53.1528 85.5666 52.8941C85.5671 52.6357 85.5676 52.3774 85.5682 52.1111C85.5686 51.5651 85.5675 51.019 85.5653 50.473C85.5623 49.6351 85.5652 48.7973 85.5687 47.9594C85.5684 47.4293 85.5677 46.8993 85.5666 46.3693C85.5677 46.1176 85.5688 45.8659 85.57 45.6067C85.5682 45.3741 85.5665 45.1415 85.5647 44.9019C85.5643 44.6968 85.5639 44.4917 85.5634 44.2804C85.5368 43.7066 85.5368 43.7066 84.9478 43.2275C84.1012 43.3155 84.1012 43.3155 83.3089 43.5008C83.1737 43.0949 83.1737 43.0949 83.0358 42.6809C86.7254 39.6387 86.7254 39.6387 88.84 39.5722C90.2947 39.7177 90.2947 39.7177 90.9569 40.2213C91.2238 41.0223 91.2578 41.5059 91.2437 42.3375C91.2402 42.6002 91.2366 42.863 91.233 43.1337C91.2281 43.4172 91.2233 43.7008 91.2183 43.9929C91.2122 44.593 91.2063 45.1932 91.2007 45.7933C91.1906 46.7398 91.1788 47.6861 91.1626 48.6324C91.1477 49.5456 91.1398 50.4586 91.1329 51.3718C91.1265 51.6537 91.12 51.9356 91.1133 52.226C91.1073 53.8728 91.2212 54.8193 92.3226 56.0722C93.1656 56.649 94.0288 56.8921 95.054 56.8921C95.2574 55.9838 95.3608 55.1466 95.3582 54.2165C95.3582 53.9649 95.3582 53.7133 95.3581 53.4541C95.3567 53.1862 95.3553 52.9182 95.3539 52.6422C95.3535 52.3651 95.3531 52.088 95.3527 51.8025C95.3512 50.9198 95.3477 50.0372 95.3443 49.1545C95.3429 48.5551 95.3416 47.9556 95.3405 47.3562C95.3375 45.8889 95.3329 44.4215 95.3272 42.9542C94.4294 42.7357 94.0406 42.6545 93.142 42.9542C93.0068 42.4131 93.0068 42.4131 92.8689 41.861C96.7508 39.0593 96.7508 39.0593 99.5641 38.9658C100.244 39.1281 100.244 39.1281 100.69 39.7282C101.097 40.565 101.162 41.0635 101.153 41.987C101.152 42.2789 101.151 42.5707 101.149 42.8714C101.143 43.1837 101.138 43.496 101.131 43.8178C101.127 44.1409 101.123 44.4639 101.119 44.7967C101.11 45.4788 101.097 46.1608 101.083 46.8428C101.063 47.8876 101.055 48.9321 101.047 49.977C101.036 50.6398 101.024 51.3026 101.012 51.9654C101.01 52.4347 101.01 52.4347 101.007 52.9135C100.948 55.0731 100.948 55.0731 100.16 55.9671C99.796 56.1544 99.796 56.1544 99.4243 56.3455C99.2439 56.4538 99.0636 56.5621 98.8777 56.6737C98.6175 56.8066 98.6175 56.8066 98.352 56.9423C98.0592 57.0942 98.0592 57.0942 97.7604 57.2492C97.5602 57.3512 97.3601 57.4532 97.1538 57.5582C95.7551 58.2748 94.4051 59.0176 93.092 59.8832C92.2 60.4016 91.4337 60.6315 90.4106 60.4449C89.3348 59.9059 88.3787 59.2369 87.406 58.5318C87.0714 58.3082 86.7359 58.0857 86.3988 57.8657C86.1904 57.7248 85.9819 57.5839 85.7672 57.4387C85.5859 57.587 85.4045 57.7353 85.2177 57.8881C84.9765 58.0836 84.7353 58.2791 84.4868 58.4806C84.2492 58.674 84.0115 58.8674 83.7666 59.0667C81.9875 60.4258 81.9875 60.4258 80.8165 60.4961C79.2456 60.1921 77.9551 58.9777 76.7535 57.9853C76.5617 57.855 76.3699 57.7248 76.1723 57.5907C75.3417 56.456 75.5125 55.2543 75.5233 53.8848C75.5207 53.5911 75.5181 53.2973 75.5155 52.9947C75.5076 52.0562 75.5068 51.1179 75.5073 50.1793C75.5063 49.2399 75.5037 48.3005 75.4961 47.3611C75.4915 46.7765 75.4908 46.1919 75.4942 45.6073C75.4923 45.3428 75.4905 45.0783 75.4885 44.8058C75.4889 44.4566 75.4889 44.4566 75.4893 44.1004C75.3668 43.3769 75.1281 43.1366 74.5683 42.6809C74.3317 42.7993 74.3317 42.7993 74.0903 42.92C73.2368 43.347 73.2368 43.347 72.3832 43.7741C72.2029 43.5035 72.0227 43.2329 71.8369 42.9542C72.3022 42.5201 72.7692 42.0877 73.2368 41.656C73.6265 41.2946 73.6265 41.2946 74.0242 40.9258C76.4627 38.8237 76.4627 38.8237 78.1192 39.1281Z" fill="#FCFCFC"/>
<path d="M44.2491 29.8355C46.3189 31.0763 47.6467 33.2975 48.8925 35.3014C49.0626 35.5688 49.2327 35.8362 49.4079 36.1117C49.8262 37.2528 49.6451 37.7453 49.1657 38.8542C48.6792 39.5811 48.1306 40.241 47.561 40.9039C45.6702 42.9293 45.6702 42.9293 44.7954 45.4132C44.9982 45.4696 45.201 45.5259 45.41 45.584C46.3831 46.0709 46.8085 46.6322 47.2537 47.5995C47.6848 49.1428 47.9628 50.7193 48.2673 52.2914C48.7789 54.828 48.7789 54.828 50.2583 56.8915C50.8955 56.9027 51.533 56.9031 52.1703 56.8915C52.3505 56.4405 52.5308 55.9896 52.7165 55.525C52.987 55.525 53.2574 55.525 53.536 55.525C53.5267 57.5201 53.0048 58.732 51.624 60.171C50.6485 61.0151 49.7031 61.1886 48.4391 61.1339C47.1638 60.8485 46.402 60.0875 45.6148 59.0778C44.268 56.7666 43.7028 54.0023 43.0008 51.4395C42.6426 50.1434 42.2298 48.8703 41.7908 47.5995C40.9285 47.5086 40.9285 47.5086 40.3227 48.1782C39.9678 48.5512 39.9678 48.5512 39.6057 48.9318C38.892 49.6778 38.2804 50.3055 37.4205 50.8791C37.2345 51.7724 37.2814 52.6845 37.284 53.5949C37.2724 53.9719 37.2724 53.9719 37.2605 54.3566C37.2585 55.0483 37.2716 55.6691 37.4205 56.3449C38.0612 56.9533 38.0612 56.9533 38.7863 57.1648C38.6894 58.7483 38.2719 59.8397 37.1474 60.9909C36.7418 61.1261 36.7418 61.1261 36.328 61.2642C35.6921 60.9289 35.6921 60.9289 34.9623 60.4443C34.7045 60.2956 34.4468 60.1469 34.1812 59.9938C33.7904 59.7602 33.7904 59.7602 33.3917 59.5219C32.9966 59.2905 32.9966 59.2905 32.5936 59.0543C31.9577 58.5312 31.9577 58.5312 31.6803 57.8715C31.6846 57.1648 31.6846 57.1648 32.0887 56.5662C32.6076 55.6068 32.6135 54.7985 32.597 53.7365C32.5971 53.5338 32.5972 53.331 32.5974 53.122C32.5968 52.4551 32.5904 51.7883 32.584 51.1214C32.5825 50.6577 32.5813 50.1939 32.5805 49.7302C32.5774 48.5122 32.5693 47.2942 32.5602 46.0762C32.5519 44.8323 32.5481 43.5884 32.544 42.3445C32.5352 39.9057 32.5212 37.4669 32.504 35.0281C32.2336 34.9379 31.9632 34.8477 31.6846 34.7548C31.5155 34.8845 31.3465 35.0141 31.1724 35.1477C30.4683 35.6657 30.0799 35.6459 29.2263 35.5747C29.1361 35.3041 29.046 35.0336 28.9531 34.7548C29.9628 33.7201 31.0124 32.7558 32.1113 31.8169C32.2654 31.682 32.4194 31.5471 32.5781 31.408C33.3543 30.745 33.9426 30.2501 34.9623 30.1088C36.043 30.5594 36.4485 30.8761 36.949 31.945C37.2211 32.6942 37.4696 33.4433 37.6937 34.2082C38.9651 33.1481 40.1483 32.0454 41.3 30.8561C42.2811 29.9086 42.9027 29.6068 44.2491 29.8355ZM40.152 34.4815C38.1647 35.9448 38.1647 35.9448 36.9836 38.0439C36.7736 39.513 36.8723 40.9825 36.9596 42.4582C36.9747 42.9053 36.9884 43.3524 37.0007 43.7996C37.0335 44.8853 37.0851 45.9686 37.1474 47.053C38.0225 47.1474 38.0225 47.1474 38.6369 46.4124C38.8939 46.127 39.1484 45.8393 39.4008 45.5499C39.5343 45.4003 39.6678 45.2507 39.8053 45.0965C40.1963 44.6574 40.5841 44.2157 40.9714 43.7735C41.2555 43.4532 41.2555 43.4532 41.5454 43.1265C42.4666 42.0831 43.3637 41.0212 44.2491 39.9474C43.8471 38.7751 43.2519 37.8938 42.5078 36.907C42.2973 36.6244 42.0867 36.3419 41.8698 36.0508C41.3236 35.3962 40.8366 34.9716 40.152 34.4815Z" fill="#FAFAFA"/>
<path d="M36.1739 64.8346C37.3389 65.1414 37.594 65.4655 38.2395 66.4573C38.5108 66.823 38.7837 67.1876 39.0589 67.5504C39.2962 67.3532 39.5336 67.1559 39.7781 66.9526C40.0958 66.6962 40.4138 66.44 40.7319 66.184C40.8876 66.0536 41.0432 65.9233 41.2035 65.789C41.9874 65.1651 42.4763 64.8406 43.4804 64.667C44.4321 64.8535 44.6988 65.1137 45.3071 65.8594C45.4898 66.0824 45.6725 66.3054 45.8608 66.5352C46.0499 66.78 46.239 67.0249 46.4338 67.2771C46.6369 67.5361 46.8401 67.795 47.0494 68.0618C48.8115 70.3863 48.8115 70.3863 48.8921 71.6498C48.3402 72.3192 47.7489 72.8404 47.0697 73.3771C46.6649 73.6992 46.2751 74.04 45.8875 74.3827C45.8875 74.6533 45.8875 74.9239 45.8875 75.2026C46.2142 75.3435 46.541 75.4845 46.8776 75.6296C48.517 76.4628 49.5714 77.5864 50.1585 79.3458C50.6877 81.2156 50.6735 83.1154 50.6678 85.0428C50.6675 85.6769 50.6789 86.3101 50.691 86.944C50.6924 87.3506 50.6931 87.7572 50.6931 88.1637C50.6976 88.3513 50.7021 88.539 50.7067 88.7323C50.6917 89.7763 50.5582 90.2006 49.8857 91.016C49.1502 91.6124 48.4263 92.0712 47.5946 92.5225C46.4876 93.1396 45.5326 93.7796 44.573 94.6064C43.7164 95.2988 43.5374 95.4227 42.3879 95.4604C41.5172 95.153 41.5172 95.153 40.9962 94.7506C40.3801 94.3005 39.8803 94.1131 39.1496 93.9039C38.9054 93.8338 38.6613 93.7637 38.4097 93.6915C38.1563 93.6214 37.903 93.5513 37.642 93.479C37.3939 93.4068 37.1459 93.3346 36.8903 93.2602C35.3307 92.8201 33.8414 92.5788 32.2304 92.42C31.9572 92.1467 31.9572 92.1467 31.9231 91.3439C31.9572 90.507 31.9572 90.507 32.2304 89.9604C32.4581 89.8535 32.6859 89.7467 32.9206 89.6366C33.6868 89.1918 33.6868 89.1918 33.7603 88.2845C33.7573 87.9319 33.7542 87.5794 33.7511 87.2161C33.7513 87.0214 33.7515 86.8267 33.7517 86.6261C33.7508 85.9826 33.7401 85.3397 33.7294 84.6963C33.7269 84.2502 33.725 83.8041 33.7236 83.358C33.7184 82.1839 33.705 81.01 33.6898 79.836C33.6759 78.638 33.6696 77.44 33.6628 76.2419C33.6481 73.8912 33.6248 71.5407 33.5961 69.1902C32.915 69.5192 32.3174 69.8609 31.6841 70.2834C30.95 70.1809 30.95 70.1809 30.3184 70.0101C30.3429 69.2731 30.4629 68.7874 30.9593 68.2322C31.451 67.7893 31.9546 67.3684 32.4694 66.9526C32.6436 66.8069 32.8179 66.6613 32.9975 66.5112C35.0415 64.814 35.0415 64.814 36.1739 64.8346ZM38.8559 69.4607C38.0545 70.7432 38.3537 72.4668 38.4102 73.9216C38.4176 74.2804 38.425 74.6392 38.4326 75.0089C38.4519 75.8938 38.4789 76.7778 38.5126 77.6623C39.8224 77.6623 40.5656 76.7747 41.5514 75.9713C41.7538 75.8133 41.9563 75.6553 42.1649 75.4925C42.3575 75.3366 42.5501 75.1807 42.7485 75.0201C42.9249 74.8784 43.1014 74.7367 43.2832 74.5907C43.8219 73.9722 43.929 73.5584 43.9755 72.743C43.7599 72.1943 43.7599 72.1943 43.3737 71.7128C43.241 71.5323 43.1082 71.3517 42.9715 71.1657C42.8296 70.9816 42.6877 70.7975 42.5415 70.6079C42.4038 70.4185 42.2662 70.2292 42.1243 70.0341C41.5861 69.3047 41.5861 69.3047 40.9709 68.6436C40.0418 68.6436 39.5554 68.8471 38.8559 69.4607ZM39.2304 79.2231C38.073 80.4786 38.1412 81.9003 38.1979 83.5279C38.223 83.9355 38.2483 84.3432 38.2736 84.7508C38.2854 85.1658 38.2957 85.5809 38.3046 85.9961C38.2933 88.0838 38.2933 88.0838 39.0589 89.9604C39.6155 90.1982 39.6155 90.1982 40.2689 90.3394C40.5086 90.3984 40.7484 90.4574 40.9955 90.5182C41.2465 90.5765 41.4976 90.6348 41.7562 90.6949C42.0051 90.7564 42.2541 90.8178 42.5106 90.8812C43.5908 91.1415 44.4947 91.3269 45.6144 91.3269C45.6158 89.8927 45.6065 88.4591 45.5877 87.025C45.5827 86.5381 45.5806 86.0512 45.5815 85.5643C45.6504 81.6981 45.6504 81.6981 43.7024 78.4821C43.5052 78.251 43.308 78.0199 43.1049 77.7818C41.7591 76.7139 40.251 78.2907 39.2304 79.2231Z" fill="#FBFBFB"/>
<path d="M118.224 36.4326C119.665 37.0065 121.373 38.0487 122.138 39.4249C122.282 39.948 122.282 39.948 122.367 40.7679C123.731 39.6361 124.931 38.4498 126.107 37.1222C126.738 36.6685 126.738 36.6685 127.538 36.6643C128.519 36.9889 129.11 37.418 129.896 38.0862C130.144 38.293 130.392 38.4998 130.648 38.7129C132.813 40.7468 132.813 40.7468 132.918 42.3684C132.926 42.8864 132.926 43.4045 132.921 43.9225C132.925 44.3347 132.925 44.3347 132.929 44.7552C132.938 45.6296 132.937 46.5037 132.935 47.3782C132.937 48.2555 132.941 49.1327 132.949 50.01C132.953 50.555 132.954 51.1001 132.952 51.6451C132.953 51.8914 132.954 52.1378 132.955 52.3916C132.954 52.6081 132.954 52.8247 132.953 53.0478C132.987 53.6969 132.987 53.6969 133.566 54.4325C133.718 54.3931 133.871 54.3536 134.027 54.313C134.69 54.1517 135.355 54.0162 136.025 53.886C135.933 55.3399 135.147 55.9956 134.147 56.9434C133.999 57.0891 133.85 57.2348 133.698 57.3848C132.016 59.0203 132.016 59.0203 130.992 59.1853C130.032 59.0396 129.759 58.6539 129.145 57.917C128.961 57.7014 128.777 57.4858 128.587 57.2637C127.642 56.0039 127.485 55.1518 127.454 53.5614C127.449 53.3706 127.444 53.1797 127.44 52.9831C127.425 52.3731 127.414 51.7631 127.404 51.153C127.341 47.8954 127.341 47.8954 127.192 44.641C127.178 44.3904 127.163 44.1399 127.148 43.8817C126.911 42.7493 126.269 42.2749 125.372 41.5878C124.064 41.9727 123.137 42.6563 122.367 43.7741C122.138 44.632 122.144 45.453 122.159 46.3373C122.158 46.702 122.158 46.702 122.157 47.0741C122.157 47.5861 122.161 48.0981 122.169 48.6101C122.18 49.3925 122.174 50.1736 122.167 50.9561C122.17 51.4548 122.172 51.9535 122.177 52.4522C122.175 52.6851 122.173 52.918 122.171 53.158C122.2 54.3789 122.236 54.8268 123.063 55.7853C123.395 56.0627 123.395 56.0627 123.733 56.3456C123.719 57.4379 122.967 58.3378 122.311 59.1703C121.821 59.6251 121.821 59.6251 120.797 59.8642C119.301 59.7068 118.113 58.8218 116.905 57.9853C116.707 57.849 116.51 57.7127 116.306 57.5722C115.864 57.2604 115.428 56.9405 114.993 56.6189C115.321 55.9374 115.663 55.3395 116.085 54.7058C116.164 54.0932 116.164 54.0932 116.147 53.4086C116.147 53.146 116.147 52.8834 116.147 52.6129C116.144 52.3302 116.141 52.0475 116.139 51.7562C116.138 51.4662 116.137 51.1762 116.136 50.8774C116.133 49.9501 116.126 49.0229 116.119 48.0956C116.117 47.4673 116.114 46.8391 116.112 46.2108C116.106 44.6698 116.097 43.1288 116.085 41.5878C115.192 41.4969 115.192 41.4969 114.48 42.2881C113.627 42.9543 113.627 42.9543 112.842 42.903C112.65 42.8297 112.459 42.7565 112.261 42.681C112.158 42.0992 112.158 42.0992 112.261 41.3145C112.8 40.7122 113.308 40.2124 113.917 39.6918C114.08 39.5484 114.242 39.4049 114.41 39.2571C114.731 38.9745 115.054 38.6933 115.378 38.4137C115.738 38.1 116.088 37.7752 116.435 37.4478C117.573 36.384 117.573 36.384 118.224 36.4326Z" fill="#FBFBFB"/>
<path d="M146.404 36.941C147.348 37.2573 148.244 37.624 149.15 38.0352C150.037 38.3351 150.445 38.3348 151.321 38.0342C151.551 37.8482 151.782 37.6621 152.02 37.4705C152.686 36.941 152.686 36.941 153.779 36.941C153.914 37.3468 153.914 37.3468 154.052 37.7609C153.881 37.9678 153.711 38.1748 153.535 38.3881C152.842 39.278 152.803 39.7273 152.758 40.844C152.75 41.0177 152.742 41.1915 152.734 41.3706C152.71 41.9893 152.697 42.6076 152.686 43.2267C152.682 43.4715 152.677 43.7163 152.672 43.9685C152.644 45.6576 152.635 47.3463 152.636 49.0355C152.635 49.9283 152.63 50.821 152.625 51.7137C152.624 52.2866 152.624 52.8596 152.623 53.4325C152.621 53.6967 152.619 53.9609 152.617 54.2331C152.592 56.7227 152.592 56.7227 153.779 58.8044C153.779 61.2512 152.136 63.4249 150.774 65.3634C149.614 65.183 148.485 64.9371 147.343 64.6631C144.656 64.088 142.215 63.9607 139.608 64.9108C139.029 65.0901 139.029 65.0901 137.937 65.0901C137.663 64.8168 137.663 64.8168 137.585 64.0567C137.679 63.006 137.918 62.7001 138.636 61.9472C138.834 61.739 139.031 61.5308 139.235 61.3163C140.046 60.5248 140.881 59.7924 141.761 59.0777C141.747 58.5665 141.747 58.5665 141.487 57.9845C140.745 57.3819 140.745 57.3819 139.849 56.8401C139.55 56.6502 139.251 56.4603 138.944 56.2647C138.701 56.1107 138.459 55.9568 138.21 55.7982C137.757 55.3458 137.875 54.7998 137.85 54.1766C137.839 53.8943 137.827 53.612 137.815 53.3211C137.805 53.0169 137.794 52.7126 137.783 52.3991C137.771 52.0897 137.76 51.7803 137.748 51.4616C137.672 49.2523 137.602 47.0439 137.655 44.8334C137.686 43.7951 137.686 43.7951 137.552 42.8584C137.481 41.8712 137.492 41.3871 137.937 40.4938C140.333 38.2718 143.096 36.5599 146.404 36.941ZM141.761 39.9472C141.505 40.7141 141.45 41.1939 141.442 41.9882C141.44 42.2345 141.438 42.4808 141.435 42.7346C141.434 43.8598 141.438 44.9848 141.448 46.11C141.452 46.7029 141.45 47.2959 141.443 47.8888C141.434 48.7454 141.441 49.6006 141.451 50.4572C141.445 50.7212 141.439 50.9851 141.433 51.2571C141.461 52.3596 141.482 53.0579 142.28 53.8623C143.497 54.6987 144.812 55.3703 146.267 55.6615C147.124 55.4901 147.494 55.0995 148.029 54.425C148.603 53.345 148.465 52.1741 148.418 50.9814C148.413 50.7072 148.407 50.4331 148.401 50.1506C148.38 49.2998 148.349 48.4498 148.316 47.5994C148.3 47.0631 148.285 46.5269 148.269 45.9906C148.251 45.4963 148.233 45.002 148.214 44.5078C148.205 44.2763 148.197 44.0448 148.188 43.8063C148.173 42.5669 148.173 42.5669 147.497 41.587C146.954 41.3611 146.954 41.3611 146.327 41.1749C145.982 41.0666 145.982 41.0666 145.63 40.956C145.39 40.8824 145.149 40.8088 144.902 40.7329C144.661 40.6572 144.421 40.5814 144.173 40.5034C142.988 40.0998 142.988 40.0998 141.761 39.9472ZM146.78 56.9767C145.459 58.1722 144.048 59.2077 142.595 60.2336C141.79 60.8082 141.222 61.2527 140.668 62.0839C141.494 62.1627 141.494 62.1627 142.068 61.6739C144.323 60.4964 147.729 61.59 150.048 62.2718C150.197 62.3 150.347 62.3281 150.501 62.3572C150.985 61.987 150.985 61.987 151.321 61.5373C150.939 60.6799 150.483 60.0937 149.835 59.4193C148.881 58.3605 148.455 57.4293 148.043 56.0715C147.524 56.0715 147.135 56.644 146.78 56.9767Z" fill="#FBFBFB"/>
<path d="M77.0263 71.6494C77.9345 72.0354 78.4279 72.4797 79.0428 73.2465C79.2094 73.4519 79.3759 73.6572 79.5475 73.8688C79.7183 74.0834 79.889 74.2979 80.065 74.519C80.4069 74.9433 80.749 75.3675 81.0914 75.7915C81.317 76.0739 81.317 76.0739 81.5471 76.3621C81.9515 76.868 81.9515 76.868 82.4891 77.3886C82.7704 78.8162 82.8134 80.2318 82.8391 81.6812C82.8494 82.1333 82.8597 82.5854 82.87 83.0375C82.8847 83.744 82.899 84.4505 82.9131 85.157C82.9272 85.8432 82.9428 86.5292 82.9586 87.2153C82.9623 87.4277 82.966 87.6401 82.9698 87.8588C82.9732 88.945 82.9732 88.945 83.3085 89.96C84.366 89.8033 84.9697 89.2803 85.7668 88.5935C86.0372 89.1347 86.0372 89.1347 86.3131 89.6867C82.7036 94.1613 82.7036 94.1613 81.1234 94.8793C80.039 94.8018 79.5852 94.1749 78.9041 93.3932C78.7087 93.1486 78.7087 93.1486 78.5093 92.899C78.1307 92.4342 77.7298 92.0164 77.2994 91.5997C77.1117 91.7907 76.9241 91.9816 76.7307 92.1784C76.3615 92.5514 76.3615 92.5514 75.9849 92.932C75.7409 93.1794 75.4969 93.4267 75.2455 93.6815C74.5194 94.3794 74.0089 94.8247 73.0145 95.033C71.6269 94.7972 70.9153 93.9187 69.9245 92.9662C69.522 92.6172 69.118 92.2698 68.7125 91.9243C67.773 91.1204 67.773 91.1204 67.4663 90.5066C67.3855 89.4265 67.3903 88.344 67.3809 87.2612C67.373 86.96 67.3651 86.6588 67.3569 86.3485C67.3546 86.0585 67.3523 85.7686 67.35 85.4699C67.346 85.2043 67.342 84.9387 67.3379 84.6651C67.5348 83.5645 68.185 83.1355 69.046 82.4881C69.2067 82.3828 69.3674 82.2775 69.533 82.169C69.7106 82.0517 69.8882 81.9344 70.0713 81.8135C70.2538 81.6948 70.4364 81.5761 70.6245 81.4538C70.8081 81.3329 70.9917 81.2121 71.1809 81.0876C71.5216 80.8635 71.8627 80.6399 72.2042 80.4171C72.6295 80.1388 73.0525 79.8569 73.4754 79.5749C74.107 79.4382 74.107 79.4382 74.8411 79.5749C75.3098 79.9722 75.7112 80.3941 76.1161 80.8559C76.4597 81.2786 76.4597 81.2786 77.0263 81.2146C76.5476 79.2442 75.7177 78.0001 74.2948 76.5687C73.0342 76.929 72.0827 77.4469 71.0171 78.2084C70.8368 77.8477 70.6566 77.4869 70.4708 77.1153C72.558 75.1483 74.7304 73.3659 77.0263 71.6494ZM73.4754 81.7612C72.703 82.9204 72.8183 83.9161 72.8096 85.2799C72.8006 85.5254 72.7917 85.771 72.7824 86.0239C72.7723 87.2739 72.7729 87.8504 73.5714 88.8551C73.8101 89.0393 74.0489 89.2236 74.2948 89.4134C74.9777 90.0966 74.9777 90.0966 75.6605 90.7799C76.3347 90.4651 76.7662 90.2202 77.2994 89.6867C77.6436 87.9584 77.6641 85.9437 77.2994 84.2209C76.3582 82.8417 75.1102 82.0784 73.4754 81.7612Z" fill="#F9F9F9"/>
<path d="M144.492 71.377C144.711 71.4756 144.929 71.5742 145.154 71.6759C147.389 72.6209 149.675 73.3726 152.05 72.4648C152.26 72.3764 152.47 72.2879 152.687 72.1968C153.455 72.1627 153.455 72.1627 154.052 72.1968C154.28 72.8354 154.389 73.1506 154.102 73.7808C153.984 73.9444 153.865 74.1079 153.743 74.2764C153.548 74.5523 153.548 74.5523 153.348 74.8337C153.139 75.118 153.139 75.118 152.926 75.408C152.657 75.782 152.389 76.1564 152.121 76.5311C151.923 76.8077 151.923 76.8077 151.72 77.0899C151.095 77.987 150.523 78.9149 149.955 79.849C150.13 79.942 150.305 80.035 150.486 80.1308C153.214 81.6608 154.776 83.3909 155.691 86.408C155.951 87.5204 155.987 88.5444 155.964 89.6875C155.773 89.7277 155.581 89.7679 155.384 89.8092C152.556 90.4782 150.904 91.7956 149.136 94.0602C148.766 93.9813 148.396 93.9014 148.026 93.8211C147.82 93.7767 147.614 93.7323 147.402 93.6866C146.851 93.555 146.306 93.3966 145.765 93.2265C143.838 92.7264 141.39 92.561 139.508 93.3257C138.767 93.7369 138.767 93.7369 138.313 94.2481C137.937 94.6068 137.937 94.6068 137.203 94.658C136.89 94.6327 136.89 94.6327 136.571 94.6068C136.922 93.6505 137.336 92.861 137.92 92.0276C138.884 90.6551 138.884 90.6551 139.576 89.1409C139.262 88.286 138.854 87.6373 138.327 86.899C137.841 85.9456 137.775 85.0854 137.742 84.0359C137.735 83.8362 137.729 83.6364 137.722 83.4306C137.71 83.0094 137.702 82.5881 137.695 82.1668C137.686 81.7383 137.669 81.3099 137.645 80.882C137.565 79.4708 137.556 78.2121 137.937 76.8428C138.919 75.8889 139.963 75.4441 141.215 74.9298C142.616 73.9518 143.556 72.797 144.492 71.377ZM148.672 75.2818C147.568 75.6234 146.473 75.5511 145.329 75.5105C144.503 75.4895 143.68 75.478 142.854 75.4763C142.478 75.7895 142.478 75.7895 142.549 76.6336C142.549 77.0254 142.551 77.4172 142.554 77.8089C142.554 78.0148 142.555 78.2206 142.555 78.4327C142.556 79.0927 142.56 79.7527 142.563 80.4127C142.565 80.8591 142.566 81.3055 142.567 81.7519C142.57 82.8485 142.575 83.945 142.58 85.0416C143.413 85.1373 143.413 85.1373 143.874 84.5761C147.614 79.8643 147.614 79.8643 151.048 74.9298C150.021 74.5874 149.636 74.8935 148.672 75.2818ZM145.022 85.3661C144.881 85.5502 144.74 85.7342 144.594 85.9239C144.319 86.2832 144.047 86.6443 143.776 87.0073C143.446 87.4405 143.092 87.8554 142.735 88.2666C142.594 88.465 142.453 88.6633 142.307 88.8677C142.397 89.1382 142.488 89.4088 142.58 89.6875C142.805 89.6749 143.03 89.6622 143.261 89.6491C144.883 89.5966 146.104 89.5847 147.565 90.3366C148.199 90.6647 148.199 90.6647 148.863 90.7807C149.842 90.4147 150.59 89.8854 151.321 89.1409C151.685 88.3411 151.685 88.3411 151.33 87.6507C150.032 85.2345 150.032 85.2345 148.043 83.4018C146.47 82.9807 145.856 84.2368 145.022 85.3661Z" fill="#F9F9F9"/>
<path d="M64.2997 38.755C65.0651 38.9885 65.8209 39.242 66.5774 39.503C66.839 39.5896 67.1006 39.6763 67.3702 39.7656C69.3041 40.4206 69.3041 40.4206 69.9234 41.0402C70.0099 41.7181 70.0099 41.7181 70.0356 42.5824C70.0465 42.9052 70.0574 43.228 70.0686 43.5606C70.0777 43.9104 70.0869 44.2603 70.0963 44.6208C70.1076 44.9779 70.119 45.335 70.1307 45.703C70.1608 46.6527 70.1878 47.6025 70.2142 48.5524C70.2416 49.5215 70.272 50.4905 70.3022 51.4595C70.361 53.3611 70.4164 55.2627 70.4697 57.1645C70.2599 57.2903 70.0501 57.4161 69.8339 57.5457C69.08 57.9988 68.3306 58.4577 67.5846 58.9238C67.3308 59.0813 67.0769 59.2388 66.8154 59.401C66.0862 59.8743 66.0862 59.8743 65.5062 60.4963C65.0069 60.9906 65.0069 60.9906 64.2728 61.1272C63.247 60.9723 62.4839 60.6175 61.5531 60.176C59.9553 59.4841 58.2477 59.2951 56.5245 59.1715C55.9931 59.0775 55.9931 59.0775 55.1737 58.5309C55.0371 57.7282 55.0371 57.7282 55.1737 56.8912C55.5145 56.7556 55.5145 56.7556 55.8622 56.6172C56.5917 56.1515 56.5917 56.1515 56.6441 55.4821C56.6567 54.671 56.6277 53.8699 56.5864 53.0598C56.5704 52.4472 56.5548 51.8346 56.5394 51.222C56.5072 50.2556 56.4711 49.2896 56.429 48.3235C56.391 47.3914 56.3683 46.4598 56.3474 45.5271C56.3304 45.2393 56.3134 44.9514 56.2959 44.6548C56.2821 43.8359 56.297 43.1898 56.5394 42.4067C57.2728 41.6676 58.0764 41.2349 58.9977 40.767C59.762 40.1859 60.5186 39.5971 61.2714 39.0012C62.3631 38.3729 63.0953 38.436 64.2997 38.755ZM60.6366 41.5868C60.2521 42.3562 60.4542 42.9813 60.5576 43.8108C60.7201 45.4207 60.7301 47.0416 60.7731 48.6583C60.5158 52.7581 60.5158 52.7581 61.7291 56.3446C62.3101 56.5427 62.8973 56.7227 63.4875 56.8912C64.4957 57.1797 65.2237 57.4002 66.0994 57.9844C66.3681 57.1778 66.3951 56.7158 66.3664 55.8802C66.3581 55.6203 66.3498 55.3604 66.3412 55.0926C66.3305 54.8124 66.3197 54.5323 66.3086 54.2437C66.2927 53.8116 66.2927 53.8116 66.2765 53.3708C66.2535 52.7615 66.2295 52.1522 66.2048 51.543C66.1679 50.6093 66.1368 49.6755 66.1058 48.7415C66.0827 48.1501 66.0593 47.5587 66.0354 46.9673C66.0268 46.6871 66.0183 46.407 66.0094 46.1184C65.9977 45.8584 65.9859 45.5985 65.9738 45.3307C65.9651 45.102 65.9564 44.8732 65.9474 44.6375C65.7992 43.9144 65.5861 43.6729 65.0069 43.2266C64.1662 42.9101 64.1662 42.9101 63.2314 42.6629C62.2246 42.3804 61.5102 42.1695 60.6366 41.5868Z" fill="#FCFCFC"/>
<path d="M91.646 74.335C91.9032 74.3727 92.1604 74.4104 92.4253 74.4493C94.3047 74.6749 96.1494 74.6969 98.0408 74.6906C98.529 74.6922 98.529 74.6922 99.0272 74.6938C99.3407 74.6934 99.6543 74.6931 99.9773 74.6927C100.258 74.6924 100.539 74.6921 100.829 74.6918C101.573 74.6581 102.25 74.5507 102.974 74.3831C103.538 75.3118 103.538 75.3118 103.468 75.9748C103.17 76.7771 102.708 77.3007 102.155 77.953C101.932 78.2183 101.71 78.4836 101.481 78.7569C101.252 79.0271 101.024 79.2973 100.789 79.5757C100.379 80.0759 99.9689 80.577 99.5601 81.0788C98.7407 82.0809 97.9213 83.0829 97.1018 84.085C96.9022 84.3295 96.7026 84.574 96.4969 84.8259C96.0565 85.3637 95.6149 85.9003 95.1717 86.4358C94.9467 86.7084 94.7217 86.9811 94.4899 87.262C94.1809 87.6351 94.1809 87.6351 93.8657 88.0157C93.3864 88.5079 93.3864 88.5079 93.4144 88.8676C94.3589 88.8999 95.3033 88.919 96.2483 88.9359C96.6438 88.9497 96.6438 88.9497 97.0474 88.9637C99.4282 88.9957 101.156 88.2861 103.248 87.2279C103.674 87.5695 103.674 87.5695 104.067 88.0477C103.953 89.1614 103.301 90.1023 102.752 91.054C102.659 91.2224 102.565 91.3908 102.468 91.5643C101.725 92.8652 101.129 93.791 99.7383 94.4018C97.7657 94.8814 95.6087 94.6258 93.5974 94.5854C91.4694 94.5419 91.4694 94.5419 89.3856 94.9067C88.9461 95.0288 88.9461 95.0288 88.4978 95.1533C87.7979 94.7263 87.7979 94.7263 87.4053 94.0602C87.4333 92.6146 88.3597 91.8033 89.2831 90.7978C89.61 90.4319 89.9361 90.0653 90.2615 89.6982C90.5069 89.4214 90.5069 89.4214 90.7573 89.139C91.4519 88.3374 92.1022 87.5048 92.7486 86.6642C93.944 85.1117 95.1987 83.6215 96.4991 82.1559C97.2621 81.3896 97.2621 81.3896 97.5116 80.3956C94.7584 79.6152 91.4027 78.8178 88.6515 79.9856C88.4205 80.1209 88.1895 80.2562 87.9516 80.3956C87.7713 80.2152 87.591 80.0348 87.4053 79.849C87.4775 78.6444 88.0098 77.9099 88.7198 76.9623C89.0013 76.5813 89.0013 76.5813 89.2885 76.1926C90.7284 74.399 90.7284 74.399 91.646 74.335Z" fill="#F9F9F9"/>
<path d="M114.72 71.1035C114.991 71.1937 115.261 71.2839 115.54 71.3768C115.508 71.6806 115.508 71.6806 115.476 71.9906C115.559 72.966 115.853 73.2 116.565 73.8546C116.776 74.0549 116.986 74.2551 117.204 74.4615C117.426 74.6667 117.649 74.8719 117.878 75.0833C118.32 75.4904 118.759 75.9005 119.194 76.3142C119.488 76.5845 119.488 76.5845 119.788 76.8603C120.183 77.3892 120.183 77.3892 120.138 77.9743C119.824 78.674 119.413 78.9621 118.8 79.4218C118.555 79.6103 118.309 79.7988 118.057 79.993C117.918 80.0986 117.78 80.2043 117.637 80.3131C116.742 81.0069 115.87 81.7286 114.993 82.4451C113.361 83.7745 111.724 85.0968 110.077 86.4079C110.65 88.3169 111.451 89.5036 113.201 90.4902C114.955 91.0135 116.145 90.8902 117.73 90.0407C118.303 89.6664 118.778 89.2481 119.278 88.7821C120.085 88.0435 120.085 88.0435 120.985 88.0818C121.264 88.2002 121.264 88.2002 121.549 88.3209C120.969 90.1112 119.609 91.1621 118.271 92.4203C118.067 92.6127 117.863 92.805 117.653 93.0032C115.605 94.8693 115.605 94.8693 114.187 94.8863C111.878 94.7329 109.461 93.9056 107.892 92.147C105.556 89.1854 104.72 86.6041 104.936 82.8134C105.311 79.9017 106.457 77.3821 108.754 75.5168C109.01 75.323 109.266 75.1292 109.53 74.9296C109.704 74.7969 109.877 74.6642 110.055 74.5274C113.221 72.1034 113.221 72.1034 114.72 71.1035ZM111.333 75.5755C109.314 78.1403 109.121 80.7645 109.257 83.9483C110.351 83.9483 110.634 83.5586 111.46 82.8551C111.724 82.6328 111.988 82.4105 112.26 82.1815C112.531 81.9528 112.802 81.7242 113.081 81.4886C113.598 81.0713 114.115 80.6555 114.635 80.2417C114.861 80.061 115.088 79.8803 115.321 79.6941C115.483 79.5648 115.645 79.4355 115.813 79.3023C115.372 78.2007 114.594 77.455 113.764 76.6377C113.628 76.4992 113.492 76.3608 113.351 76.2181C112.427 75.139 112.427 75.139 111.333 75.5755Z" fill="#F7F7F7"/>
<path d="M57.0869 65.3637C57.3573 65.7695 57.3573 65.7695 57.6332 66.1836C57.8135 66.1836 57.9937 66.1836 58.1795 66.1836C58.3203 66.0032 58.4611 65.8228 58.6063 65.637C59.5891 64.8301 60.5056 64.9961 61.7303 65.0904C61.9106 65.4511 62.0909 65.8119 62.2766 66.1836C62.0989 66.2709 61.9212 66.3582 61.7381 66.4481C61.0321 67.1557 61.0552 67.6761 61.0481 68.649C61.054 68.9858 61.054 68.9858 61.06 69.3293C61.0598 69.6853 61.0598 69.6853 61.0595 70.0486C61.0603 70.8339 61.0688 71.6189 61.0773 72.4042C61.0794 72.9483 61.0809 73.4925 61.082 74.0366C61.0862 75.4695 61.0969 76.9022 61.109 78.335C61.1202 79.7968 61.1252 81.2586 61.1307 82.7204C61.1424 85.5891 61.1611 88.4578 61.184 91.3265C61.8418 91.5 61.8418 91.5 62.5497 91.5997C63.0789 91.2072 63.0789 91.2072 63.5057 90.6432C63.9934 90.1041 63.9934 90.1041 64.4617 89.6867C65.2641 89.7038 65.2641 89.7038 65.8275 89.96C65.7472 91.4629 64.8291 92.2716 63.8472 93.3078C63.6905 93.4819 63.5338 93.6559 63.3724 93.8352C62.7132 94.5413 62.191 95.071 61.2993 95.4589C60.38 95.4129 59.8922 95.0705 59.1355 94.5547C58.8848 94.3874 58.6341 94.22 58.3758 94.0476C56.353 92.5908 56.353 92.5908 55.9943 91.873C55.9651 91.1103 55.9522 90.3541 55.9512 89.5912C55.9492 89.2372 55.9492 89.2372 55.947 88.8761C55.9441 88.3626 55.9418 87.8492 55.9399 87.3358C55.9367 86.5239 55.9314 85.712 55.9254 84.9001C55.9085 82.5913 55.8938 80.2826 55.8847 77.9738C55.879 76.5626 55.8694 75.1515 55.8572 73.7404C55.8533 73.2018 55.8509 72.6631 55.8501 72.1245C55.8487 71.372 55.8424 70.6197 55.8349 69.8672C55.8358 69.6436 55.8366 69.4199 55.8374 69.1895C55.8546 68.056 55.8546 68.056 55.3389 67.0935C54.9082 66.7075 54.9082 66.7075 54.3555 66.4569C54.4456 66.0059 54.5357 65.555 54.6286 65.0904C55.6702 64.743 56.0926 64.9403 57.0869 65.3637Z" fill="#FCFCFC"/>
<path d="M127.012 73.0162C128.007 73.4953 128.54 74.1563 129.026 75.1513C129.082 75.3486 129.139 75.5458 129.197 75.7491C130.153 75.1423 130.961 74.5403 131.775 73.7507C132.504 73.123 132.699 73.0214 133.704 72.9137C135.045 73.4409 135.722 74.3412 136.572 75.4758C136.191 76.6884 135.655 77.4162 134.66 78.2087C133.84 78.3966 133.84 78.3966 133.021 78.2087C132.465 77.7035 132.094 77.1891 131.655 76.569C131.345 76.7639 131.038 76.9643 130.733 77.1668C130.562 77.2778 130.391 77.3887 130.215 77.5031C129.327 78.3165 129.206 79.1863 129.113 80.3636C129.104 80.7754 129.098 81.1873 129.095 81.5993C129.093 81.8185 129.09 82.0378 129.088 82.2637C129.084 82.7259 129.082 83.188 129.08 83.6502C129.077 84.3557 129.064 85.0605 129.05 85.7659C129.047 86.2161 129.045 86.6662 129.044 87.1164C129.039 87.3262 129.033 87.536 129.028 87.7522C129.037 88.8811 129.131 89.3385 129.888 90.1989C130.222 90.4866 130.222 90.4866 130.562 90.7802C130.594 91.9948 129.905 92.841 129.197 93.7864C128.35 94.2102 127.675 94.1337 126.738 94.0597C125.873 93.6199 125.873 93.6199 125.048 93.0348C124.637 92.7495 124.637 92.7495 124.217 92.4584C123.543 91.9366 122.953 91.3997 122.368 90.7802C122.546 90.6122 122.723 90.4441 122.906 90.271C123.692 89.0569 123.613 88.0458 123.596 86.6285C123.597 86.36 123.597 86.0916 123.597 85.815C123.597 85.2488 123.594 84.6825 123.588 84.1163C123.58 83.2496 123.583 82.3833 123.586 81.5165C123.584 80.9659 123.582 80.4152 123.579 79.8645C123.58 79.6054 123.581 79.3463 123.582 79.0794C123.578 78.8377 123.575 78.596 123.571 78.3469C123.57 78.135 123.568 77.9231 123.567 77.7047C123.435 76.9717 123.086 76.609 122.641 76.0224C122.659 75.0051 122.79 74.3302 123.29 73.4432C124.474 72.7378 125.674 72.7915 127.012 73.0162Z" fill="#FAFAFA"/>
<path d="M107.345 38.0349C108.415 38.6115 109.166 39.1872 109.803 40.2213C109.914 40.9142 109.914 40.9142 109.925 41.7035C109.931 41.9999 109.938 42.2964 109.945 42.6018C109.948 42.9207 109.951 43.2395 109.955 43.568C109.971 44.2433 109.987 44.9185 110.003 45.5937C110.024 46.6582 110.043 47.7227 110.058 48.7873C110.075 49.8149 110.1 50.842 110.126 51.8693C110.128 52.1876 110.13 52.5059 110.133 52.8339C110.125 54.6463 110.125 54.6464 111.047 56.1115C111.268 56.2789 111.488 56.4463 111.715 56.6188C111.701 57.4742 111.272 58.0415 110.777 58.7197C110.659 58.8843 110.541 59.0488 110.419 59.2183C109.936 59.7923 109.584 59.8889 108.847 60.0179C106.744 59.7548 104.92 58.1285 103.248 56.8921C103.577 56.2106 103.918 55.6127 104.341 54.9791C104.425 54.4098 104.425 54.4098 104.416 53.7787C104.418 53.537 104.421 53.2952 104.424 53.0462C104.423 52.6554 104.423 52.6554 104.423 52.2568C104.425 51.854 104.425 51.854 104.426 51.443C104.428 50.8746 104.428 50.3063 104.427 49.7379C104.426 48.8694 104.432 48.0011 104.439 47.1326C104.44 46.5803 104.44 46.028 104.44 45.4757C104.442 45.2164 104.445 44.957 104.447 44.6897C104.438 43.3119 104.364 42.4588 103.521 41.3144C103.385 40.4946 103.385 40.4946 103.521 39.6747C104.736 38.2359 105.468 37.8784 107.345 38.0349Z" fill="#FCFCFC"/>
<path d="M107.345 32.5691C107.891 33.389 107.891 33.389 107.862 33.9227C107.535 34.6737 107.102 35.0073 106.457 35.507C106.248 35.6747 106.038 35.8423 105.821 36.0151C105.062 36.4514 104.655 36.5397 103.794 36.3952C103.248 35.5753 103.248 35.5753 103.278 35.0415C103.604 34.2906 104.037 33.957 104.682 33.4573C104.892 33.2896 105.102 33.1219 105.318 32.9491C106.077 32.5129 106.484 32.4245 107.345 32.5691Z" fill="#F2F2F2"/>
</svg>
