<svg width="657" height="109" viewBox="0 0 657 109" fill="none" xmlns="http://www.w3.org/2000/svg">
<g clip-path="url(#clip0_1381_23159)">
<path opacity="0.08" d="M375.5 139.5V79L419 35.5H582.5" stroke="url(#paint0_linear_1381_23159)" stroke-width="1.5"/>
<g opacity="0.04">
<rect x="320.301" y="41" width="1.6" height="8.8" fill="white"/>
<rect x="325.102" y="41" width="1.6" height="8.8" fill="white"/>
<rect x="329.902" y="41" width="1.6" height="8.8" fill="white"/>
<rect x="334.699" y="41" width="1.6" height="8.8" fill="white"/>
<rect x="339.5" y="41" width="1.6" height="8.8" fill="white"/>
<rect x="344.301" y="41" width="1.6" height="8.8" fill="white"/>
<rect x="349.102" y="41" width="1.6" height="8.8" fill="white"/>
<rect x="353.902" y="41" width="1.6" height="8.8" fill="white"/>
<rect x="358.699" y="41" width="1.6" height="8.8" fill="white"/>
<rect x="363.5" y="41" width="1.6" height="8.8" fill="white"/>
<rect x="368.301" y="41" width="1.6" height="8.8" fill="white"/>
<rect x="373.102" y="41" width="1.6" height="8.8" fill="white"/>
<rect x="377.902" y="41" width="1.6" height="8.8" fill="white"/>
</g>
<g opacity="0.04">
<rect x="272.301" y="52.2002" width="1.6" height="8.8" fill="white"/>
<rect x="277.102" y="52.2002" width="1.6" height="8.8" fill="white"/>
<rect x="281.902" y="52.2002" width="1.6" height="8.8" fill="white"/>
<rect x="286.699" y="52.2002" width="1.6" height="8.8" fill="white"/>
<rect x="291.5" y="52.2002" width="1.6" height="8.8" fill="white"/>
<rect x="296.301" y="52.2002" width="1.6" height="8.8" fill="white"/>
<rect x="301.102" y="52.2002" width="1.6" height="8.8" fill="white"/>
<rect x="305.902" y="52.2002" width="1.6" height="8.8" fill="white"/>
<rect x="310.699" y="52.2002" width="1.6" height="8.8" fill="white"/>
<rect x="315.5" y="52.2002" width="1.6" height="8.8" fill="white"/>
<rect x="320.301" y="52.2002" width="1.6" height="8.8" fill="white"/>
<rect x="325.102" y="52.2002" width="1.6" height="8.8" fill="white"/>
<rect x="329.902" y="52.2002" width="1.6" height="8.8" fill="white"/>
</g>
<path opacity="0.08" d="M254.516 56.5007C254.516 57.8898 253.39 59.0165 252.001 59.0165C250.612 59.0165 249.485 57.8898 249.485 56.5007C249.485 55.1116 250.612 53.9849 252.001 53.9849C253.39 53.9849 254.516 55.1116 254.516 56.5007ZM252.001 51.7253C251.639 51.7253 251.346 52.0187 251.346 52.3805C251.346 52.7422 251.639 53.0356 252.001 53.0356C252.362 53.0356 252.656 52.7422 252.656 52.3805C252.656 52.0187 252.362 51.7253 252.001 51.7253ZM252.001 59.9651C251.639 59.9651 251.346 60.2585 251.346 60.6202C251.346 60.982 251.639 61.2754 252.001 61.2754C252.362 61.2754 252.656 60.982 252.656 60.6202C252.656 60.2585 252.362 59.9651 252.001 59.9651ZM256.775 56.5C256.775 56.1382 256.482 55.8448 256.12 55.8448C255.758 55.8448 255.465 56.1382 255.465 56.5C255.465 56.8618 255.758 57.1552 256.12 57.1552C256.482 57.1552 256.775 56.8618 256.775 56.5ZM248.536 56.5C248.536 56.1382 248.242 55.8448 247.88 55.8448C247.519 55.8448 247.225 56.1382 247.225 56.5C247.225 56.8618 247.519 57.1552 247.88 57.1552C248.242 57.1552 248.536 56.8618 248.536 56.5ZM258.193 56.5H257.885C257.885 58.1259 257.227 59.595 256.162 60.6603C255.096 61.7255 253.627 62.3835 252.001 62.3842C250.375 62.3842 248.906 61.7262 247.84 60.6603C246.774 59.5943 246.117 58.1252 246.117 56.5C246.117 54.8741 246.774 53.405 247.84 52.339C248.906 51.2738 250.375 50.6158 252.001 50.6151C253.627 50.6151 255.096 51.2731 256.162 52.339C257.227 53.405 257.885 54.8741 257.885 56.5H258.5C258.5 52.91 255.59 50 252 50C248.41 50 245.501 52.91 245.5 56.5C245.5 60.0893 248.41 62.9993 252 62.9993C255.59 62.9993 258.499 60.0893 258.5 56.5H258.192H258.193Z" fill="white"/>
<g opacity="0.04">
<circle cx="2.5" cy="2.5" r="2.5" transform="matrix(1 0 0 -1 342.5 93)" fill="white"/>
<circle cx="2.5" cy="2.5" r="2.5" transform="matrix(1 0 0 -1 342.5 101)" fill="white"/>
<circle cx="2.5" cy="2.5" r="2.5" transform="matrix(1 0 0 -1 333.5 93)" fill="white"/>
</g>
<g opacity="0.04">
<circle cx="2.5" cy="2.5" r="2.5" transform="matrix(-1 0 0 1 318.5 105)" fill="white"/>
<circle cx="2.5" cy="2.5" r="2.5" transform="matrix(-1 0 0 1 318.5 97)" fill="white"/>
<circle cx="2.5" cy="2.5" r="2.5" transform="matrix(-1 0 0 1 327.5 105)" fill="white"/>
<circle cx="2.5" cy="2.5" r="2.5" transform="matrix(-1 0 0 1 337.5 105)" fill="white"/>
<circle cx="2.5" cy="2.5" r="2.5" transform="matrix(-1 0 0 1 347.5 105)" fill="white"/>
</g>
<path opacity="0.04" d="M267.196 102.852L246.132 102.852C245.784 102.852 245.5 103.143 245.5 103.501C245.5 103.859 245.782 104.149 246.132 104.149L267.196 104.149C267.514 107.435 270.215 110 273.5 110C276.786 110 279.486 107.434 279.804 104.149L300.868 104.149C301.216 104.149 301.5 103.859 301.5 103.501C301.5 103.143 301.216 102.852 300.868 102.852L279.804 102.852C279.486 99.566 276.786 97.0015 273.5 97C270.215 97 267.514 99.566 267.196 102.852ZM277.086 99.822C278.004 100.766 278.57 102.062 278.571 103.501C278.571 104.939 278.004 106.235 277.086 107.179C276.165 108.122 274.902 108.702 273.5 108.704C272.098 108.704 270.833 108.122 269.914 107.179C268.996 106.235 268.43 104.939 268.429 103.501C268.429 102.062 268.996 100.766 269.914 99.822C270.835 98.8794 272.098 98.299 273.5 98.2975C274.902 98.2975 276.167 98.8794 277.086 99.822Z" fill="white"/>
<path opacity="0.04" d="M214.5 140V87.3229L90.5 -39" stroke="url(#paint1_linear_1381_23159)" stroke-width="1.5"/>
<mask id="mask0_1381_23159" style="mask-type:alpha" maskUnits="userSpaceOnUse" x="0" y="22" width="190" height="118">
<rect x="0.5" y="22" width="189" height="118" fill="url(#paint2_linear_1381_23159)"/>
</mask>
<g mask="url(#mask0_1381_23159)">
<path opacity="0.04" d="M2 139V112.5L28 86.5H162L188 112.5V139" stroke="white" stroke-width="1.5"/>
<path opacity="0.04" d="M2 23V49.5L28 75.5H162L188 49.5V23" stroke="url(#paint3_linear_1381_23159)" stroke-width="1.5"/>
</g>
<mask id="mask1_1381_23159" style="mask-type:alpha" maskUnits="userSpaceOnUse" x="386" y="50" width="313" height="174">
<rect width="312" height="173" transform="matrix(-1 0 0 1 698.5 50.5)" fill="url(#paint4_linear_1381_23159)"/>
</mask>
<g mask="url(#mask1_1381_23159)">
<g opacity="0.05">
<rect width="2" height="11" transform="matrix(-1 0 0 1 530.5 54.5)" fill="white"/>
<rect width="2" height="11" transform="matrix(-1 0 0 1 524.5 54.5)" fill="white"/>
<rect width="2" height="11" transform="matrix(-1 0 0 1 518.5 54.5)" fill="white"/>
<rect width="2" height="11" transform="matrix(-1 0 0 1 512.5 54.5)" fill="white"/>
<rect width="2" height="11" transform="matrix(-1 0 0 1 506.5 54.5)" fill="white"/>
<rect width="2" height="11" transform="matrix(-1 0 0 1 500.5 54.5)" fill="white"/>
<rect width="2" height="11" transform="matrix(-1 0 0 1 494.5 54.5)" fill="white"/>
<rect width="2" height="11" transform="matrix(-1 0 0 1 488.5 54.5)" fill="white"/>
<rect width="2" height="11" transform="matrix(-1 0 0 1 482.5 54.5)" fill="white"/>
<rect width="2" height="11" transform="matrix(-1 0 0 1 476.5 54.5)" fill="white"/>
<rect width="2" height="11" transform="matrix(-1 0 0 1 470.5 54.5)" fill="white"/>
<rect width="2" height="11" transform="matrix(-1 0 0 1 464.5 54.5)" fill="white"/>
<rect width="2" height="11" transform="matrix(-1 0 0 1 458.5 54.5)" fill="white"/>
<rect width="2" height="11" transform="matrix(-1 0 0 1 500.5 72.5)" fill="white"/>
<rect width="2" height="11" transform="matrix(-1 0 0 1 494.5 72.5)" fill="white"/>
<rect width="2" height="11" transform="matrix(-1 0 0 1 488.5 72.5)" fill="white"/>
<rect width="2" height="11" transform="matrix(-1 0 0 1 482.5 72.5)" fill="white"/>
<rect width="2" height="11" transform="matrix(-1 0 0 1 476.5 72.5)" fill="white"/>
<rect width="2" height="11" transform="matrix(-1 0 0 1 470.5 72.5)" fill="white"/>
<rect width="2" height="11" transform="matrix(-1 0 0 1 464.5 72.5)" fill="white"/>
<rect width="2" height="11" transform="matrix(-1 0 0 1 458.5 72.5)" fill="white"/>
<rect width="2" height="11" transform="matrix(-1 0 0 1 452.5 72.5)" fill="white"/>
<rect width="2" height="11" transform="matrix(-1 0 0 1 446.5 72.5)" fill="white"/>
<rect width="2" height="11" transform="matrix(-1 0 0 1 440.5 72.5)" fill="white"/>
<rect width="2" height="11" transform="matrix(-1 0 0 1 434.5 72.5)" fill="white"/>
<rect width="2" height="11" transform="matrix(-1 0 0 1 428.5 72.5)" fill="white"/>
<path d="M407.259 76.4228C406.043 76.1358 405.29 74.9174 405.577 73.7014C405.864 72.4855 407.082 71.7324 408.298 72.0194C409.514 72.3064 410.267 73.5248 409.98 74.7407C409.693 75.9567 408.475 76.7098 407.259 76.4228Z" fill="white"/>
<path d="M398.722 76.4775C397.473 76.4775 396.46 75.465 396.46 74.2153C396.46 72.9655 397.473 71.9531 398.722 71.9531C399.971 71.9531 400.984 72.9655 400.984 74.2153C400.984 75.465 399.971 76.4775 398.722 76.4775Z" fill="white"/>
<path d="M403.246 76.3809C404.495 76.3809 405.508 77.3939 405.508 78.643C405.508 79.8921 404.495 80.9052 403.246 80.9052C401.997 80.9052 400.983 79.8921 400.983 78.643C400.983 77.3939 401.996 76.3809 403.246 76.3809Z" fill="white"/>
<path d="M407.402 85.2987C406.168 85.0986 405.331 83.9365 405.531 82.7033C405.731 81.4701 406.893 80.6327 408.126 80.8329C409.36 81.033 410.197 82.195 409.997 83.4282C409.797 84.6615 408.635 85.4989 407.402 85.2987Z" fill="white"/>
<path d="M398.722 80.8096C399.971 80.8096 400.984 81.822 400.984 83.0717C400.984 84.3215 399.971 85.3339 398.722 85.3339C397.473 85.3339 396.46 84.3215 396.46 83.0717C396.46 81.822 397.473 80.8096 398.722 80.8096Z" fill="white"/>
<circle cx="2.5" cy="2.5" r="2.5" transform="matrix(-1 0 0 1 589.5 77.5)" fill="white"/>
<circle cx="2.5" cy="2.5" r="2.5" transform="matrix(-1 0 0 1 589.5 69.5)" fill="white"/>
<circle cx="2.5" cy="2.5" r="2.5" transform="matrix(-1 0 0 1 598.5 77.5)" fill="white"/>
<circle cx="605" cy="63" r="2.5" fill="white"/>
<circle cx="605" cy="55" r="2.5" fill="white"/>
<circle cx="596" cy="63" r="2.5" fill="white"/>
<rect width="3" height="25" rx="1.5" transform="matrix(-1 0 0 1 626.5 57.5)" fill="white"/>
<path d="M674.804 69.352L695.868 69.352C696.216 69.352 696.5 69.6429 696.5 70.0007C696.5 70.3586 696.218 70.6495 695.868 70.6495L674.804 70.6495C674.486 73.9355 671.785 76.5 668.5 76.5C665.214 76.5 662.514 73.934 662.196 70.6495L641.132 70.6495C640.784 70.6495 640.5 70.3586 640.5 70.0007C640.5 69.6429 640.784 69.352 641.132 69.352L662.196 69.352C662.514 66.066 665.214 63.5015 668.5 63.5C671.785 63.5 674.486 66.066 674.804 69.352ZM664.914 66.322C663.996 67.266 663.43 68.5621 663.429 70.0007C663.429 71.4394 663.996 72.7354 664.914 73.6795C665.835 74.6221 667.098 75.2025 668.5 75.2039C669.902 75.2039 671.167 74.6221 672.086 73.6795C673.004 72.7354 673.57 71.4394 673.571 70.0007C673.571 68.5621 673.004 67.266 672.086 66.322C671.165 65.3794 669.902 64.799 668.5 64.7975C667.098 64.7975 665.833 65.3794 664.914 66.322Z" fill="white"/>
<path d="M554.484 61.0007C554.484 62.3898 555.61 63.5165 556.999 63.5165C558.388 63.5165 559.515 62.3898 559.515 61.0007C559.515 59.6116 558.388 58.4849 556.999 58.4849C555.61 58.4849 554.484 59.6116 554.484 61.0007ZM556.999 56.2253C557.361 56.2253 557.654 56.5187 557.654 56.8805C557.654 57.2422 557.361 57.5356 556.999 57.5356C556.638 57.5356 556.344 57.2422 556.344 56.8805C556.344 56.5187 556.638 56.2253 556.999 56.2253ZM556.999 64.4651C557.361 64.4651 557.654 64.7585 557.654 65.1202C557.654 65.482 557.361 65.7754 556.999 65.7754C556.638 65.7754 556.344 65.482 556.344 65.1202C556.344 64.7585 556.638 64.4651 556.999 64.4651ZM552.225 61C552.225 60.6382 552.518 60.3448 552.88 60.3448C553.242 60.3448 553.535 60.6382 553.535 61C553.535 61.3618 553.242 61.6552 552.88 61.6552C552.518 61.6552 552.225 61.3618 552.225 61ZM560.464 61C560.464 60.6382 560.758 60.3448 561.12 60.3448C561.481 60.3448 561.775 60.6382 561.775 61C561.775 61.3618 561.481 61.6552 561.12 61.6552C560.758 61.6552 560.464 61.3618 560.464 61ZM550.807 61H551.115C551.115 62.6259 551.773 64.095 552.838 65.1603C553.904 66.2255 555.373 66.8835 556.999 66.8842C558.625 66.8842 560.094 66.2262 561.16 65.1603C562.226 64.0943 562.883 62.6252 562.883 61C562.883 59.3741 562.226 57.905 561.16 56.839C560.094 55.7738 558.625 55.1158 556.999 55.1151C555.373 55.1151 553.904 55.7731 552.838 56.839C551.773 57.905 551.115 59.3741 551.115 61H550.5C550.5 57.41 553.41 54.5 557 54.5C560.59 54.5 563.499 57.41 563.5 61C563.5 64.5893 560.59 67.4993 557 67.4993C553.41 67.4993 550.501 64.5893 550.5 61H550.808H550.807Z" fill="white"/>
</g>
</g>
</g>
<defs>
<linearGradient id="paint0_linear_1381_23159" x1="375.5" y1="132.5" x2="568" y2="36" gradientUnits="userSpaceOnUse">
<stop stop-color="white" stop-opacity="0"/>
<stop offset="0.48" stop-color="white"/>
<stop offset="1" stop-color="white" stop-opacity="0"/>
</linearGradient>
<linearGradient id="paint1_linear_1381_23159" x1="224.038" y1="123.634" x2="150.399" y2="15.965" gradientUnits="userSpaceOnUse">
<stop stop-color="white"/>
<stop offset="1" stop-color="white" stop-opacity="0"/>
</linearGradient>
<linearGradient id="paint2_linear_1381_23159" x1="189.5" y1="85.5" x2="11.1131" y2="88.0538" gradientUnits="userSpaceOnUse">
<stop stop-color="#D9D9D9"/>
<stop offset="1" stop-color="#D9D9D9" stop-opacity="0"/>
</linearGradient>
<linearGradient id="paint3_linear_1381_23159" x1="95" y1="75.5" x2="95.5" y2="56" gradientUnits="userSpaceOnUse">
<stop stop-color="white"/>
<stop offset="1" stop-color="white" stop-opacity="0"/>
</linearGradient>
<linearGradient id="paint4_linear_1381_23159" x1="312" y1="6.49997" x2="-165" y2="113.5" gradientUnits="userSpaceOnUse">
<stop stop-color="#D9D9D9"/>
<stop offset="1" stop-color="#D9D9D9" stop-opacity="0"/>
</linearGradient>
<clipPath id="clip0_1381_23159">
<rect width="657" height="110" fill="white"/>
</clipPath>
</defs>
</svg>
