<svg width="312" height="128" viewBox="0 0 312 128" fill="none" xmlns="http://www.w3.org/2000/svg">
<g clip-path="url(#clip0_1381_22953)">
<mask id="mask0_1381_22953" style="mask-type:alpha" maskUnits="userSpaceOnUse" x="0" y="-39" width="313" height="173">
<rect width="312" height="173" transform="matrix(-1 0 0 1 312.5 -39)" fill="url(#paint0_linear_1381_22953)"/>
</mask>
<g mask="url(#mask0_1381_22953)">
<g opacity="0.05">
<rect width="2" height="11" transform="matrix(-1 0 0 1 168.5 40)" fill="white"/>
<rect width="2" height="11" transform="matrix(-1 0 0 1 162.5 40)" fill="white"/>
<rect width="2" height="11" transform="matrix(-1 0 0 1 156.5 40)" fill="white"/>
<rect width="2" height="11" transform="matrix(-1 0 0 1 150.5 40)" fill="white"/>
<rect width="2" height="11" transform="matrix(-1 0 0 1 144.5 40)" fill="white"/>
<rect width="2" height="11" transform="matrix(-1 0 0 1 138.5 40)" fill="white"/>
<rect width="2" height="11" transform="matrix(-1 0 0 1 132.5 40)" fill="white"/>
<rect width="2" height="11" transform="matrix(-1 0 0 1 168.5 81)" fill="white"/>
<rect width="2" height="11" transform="matrix(-1 0 0 1 162.5 81)" fill="white"/>
<rect width="2" height="11" transform="matrix(-1 0 0 1 156.5 81)" fill="white"/>
<rect width="2" height="11" transform="matrix(-1 0 0 1 150.5 81)" fill="white"/>
<rect width="2" height="11" transform="matrix(-1 0 0 1 144.5 81)" fill="white"/>
<rect width="2" height="11" transform="matrix(-1 0 0 1 138.5 81)" fill="white"/>
<rect width="2" height="11" transform="matrix(-1 0 0 1 132.5 81)" fill="white"/>
<path d="M274.5 134V67.1896L231.974 23H-8.49999" stroke="url(#paint1_linear_1381_22953)" stroke-width="1.5"/>
<path d="M200.259 63.9228C199.043 63.6358 198.29 62.4174 198.577 61.2014C198.864 59.9855 200.082 59.2324 201.298 59.5194C202.514 59.8064 203.267 61.0248 202.98 62.2407C202.693 63.4567 201.475 64.2098 200.259 63.9228Z" fill="white"/>
<path d="M191.722 63.9775C190.473 63.9775 189.46 62.965 189.46 61.7153C189.46 60.4655 190.473 59.4531 191.722 59.4531C192.971 59.4531 193.984 60.4655 193.984 61.7153C193.984 62.965 192.971 63.9775 191.722 63.9775Z" fill="white"/>
<path d="M196.246 63.8813C197.495 63.8813 198.508 64.8944 198.508 66.1435C198.508 67.3926 197.495 68.4057 196.246 68.4057C194.997 68.4057 193.983 67.3926 193.983 66.1435C193.983 64.8944 194.996 63.8813 196.246 63.8813Z" fill="white"/>
<path d="M200.402 72.7992C199.168 72.599 198.331 71.437 198.531 70.2038C198.731 68.9706 199.893 68.1332 201.126 68.3333C202.36 68.5335 203.197 69.6955 202.997 70.9287C202.797 72.162 201.635 72.9994 200.402 72.7992Z" fill="white"/>
<path d="M191.722 68.3096C192.971 68.3096 193.984 69.322 193.984 70.5717C193.984 71.8215 192.971 72.8339 191.722 72.8339C190.473 72.8339 189.46 71.8215 189.46 70.5717C189.46 69.322 190.473 68.3096 191.722 68.3096Z" fill="white"/>
<path d="M235.259 72.9223C234.043 72.6353 233.29 71.4169 233.577 70.201C233.864 68.985 235.082 68.2319 236.298 68.5189C237.514 68.8059 238.267 70.0243 237.98 71.2402C237.693 72.4562 236.475 73.2093 235.259 72.9223Z" fill="white"/>
<path d="M226.722 72.9775C225.473 72.9775 224.46 71.965 224.46 70.7153C224.46 69.4655 225.473 68.4531 226.722 68.4531C227.971 68.4531 228.984 69.4655 228.984 70.7153C228.984 71.965 227.971 72.9775 226.722 72.9775Z" fill="white"/>
<path d="M231.246 72.8809C232.495 72.8809 233.508 73.8939 233.508 75.143C233.508 76.3921 232.495 77.4052 231.246 77.4052C229.997 77.4052 228.983 76.3921 228.983 75.143C228.983 73.8939 229.996 72.8809 231.246 72.8809Z" fill="white"/>
<path d="M235.402 81.7987C234.168 81.5986 233.331 80.4365 233.531 79.2033C233.731 77.9701 234.893 77.1327 236.126 77.3329C237.36 77.533 238.197 78.695 237.997 79.9282C237.797 81.1615 236.635 81.9989 235.402 81.7987Z" fill="white"/>
<path d="M226.722 77.3086C227.971 77.3086 228.984 78.321 228.984 79.5708C228.984 80.8205 227.971 81.8329 226.722 81.8329C225.473 81.8329 224.46 80.8205 224.46 79.5708C224.46 78.321 225.473 77.3086 226.722 77.3086Z" fill="white"/>
<path d="M245.806 112V118.021H247.5V112M204.786 112V118.021H203.092V112M142.626 112V118.021H140.932V112M240.62 112V118.021H238.926V112M186.499 112V118.021H184.805V112M180.819 112V118.021H179.125V112M104.425 112V118.021H102.732V112M88.503 112V118.021H86.8092V112M14.3253 112V118.021H12.6314V112M73.0401 112V118.021H71.3462V112M67.3604 112V118.021H65.6665V112M49.0775 112V118.021H47.3837V112M43.3978 112V118.021H41.704V112M164.209 112V118.021H162.516V112M145.138 112V118.021H143.445V112" fill="white"/>
<circle cx="13" cy="48.5" r="2.5" transform="rotate(180 13 48.5)" fill="white"/>
<circle cx="13" cy="56.5" r="2.5" transform="rotate(180 13 56.5)" fill="white"/>
<circle cx="22" cy="48.5" r="2.5" transform="rotate(180 22 48.5)" fill="white"/>
<circle cx="42" cy="80.5" r="2.5" fill="white"/>
<circle cx="42" cy="72.5" r="2.5" fill="white"/>
<circle cx="33" cy="80.5" r="2.5" fill="white"/>
<circle cx="23" cy="80.5" r="2.5" fill="white"/>
<circle cx="13" cy="80.5" r="2.5" fill="white"/>
<rect width="65" height="1.5" transform="matrix(-1 0 0 1 312.5 22)" fill="url(#paint2_linear_1381_22953)"/>
<path d="M109.484 66.5007C109.484 67.8898 110.61 69.0165 111.999 69.0165C113.388 69.0165 114.515 67.8898 114.515 66.5007C114.515 65.1116 113.388 63.9849 111.999 63.9849C110.61 63.9849 109.484 65.1116 109.484 66.5007ZM111.999 61.7253C112.361 61.7253 112.654 62.0187 112.654 62.3805C112.654 62.7422 112.361 63.0356 111.999 63.0356C111.638 63.0356 111.344 62.7422 111.344 62.3805C111.344 62.0187 111.638 61.7253 111.999 61.7253ZM111.999 69.9651C112.361 69.9651 112.654 70.2585 112.654 70.6202C112.654 70.982 112.361 71.2754 111.999 71.2754C111.638 71.2754 111.344 70.982 111.344 70.6202C111.344 70.2585 111.638 69.9651 111.999 69.9651ZM107.225 66.5C107.225 66.1382 107.518 65.8448 107.88 65.8448C108.242 65.8448 108.535 66.1382 108.535 66.5C108.535 66.8618 108.242 67.1552 107.88 67.1552C107.518 67.1552 107.225 66.8618 107.225 66.5ZM115.464 66.5C115.464 66.1382 115.758 65.8448 116.12 65.8448C116.481 65.8448 116.775 66.1382 116.775 66.5C116.775 66.8618 116.481 67.1552 116.12 67.1552C115.758 67.1552 115.464 66.8618 115.464 66.5ZM105.807 66.5H106.115C106.115 68.1259 106.773 69.595 107.838 70.6603C108.904 71.7255 110.373 72.3835 111.999 72.3842C113.625 72.3842 115.094 71.7262 116.16 70.6603C117.226 69.5943 117.883 68.1252 117.883 66.5C117.883 64.8741 117.226 63.405 116.16 62.339C115.094 61.2738 113.625 60.6158 111.999 60.6151C110.373 60.6151 108.904 61.2731 107.838 62.339C106.773 63.405 106.115 64.8741 106.115 66.5H105.5C105.5 62.91 108.41 60 112 60C115.59 60 118.499 62.91 118.5 66.5C118.5 70.0893 115.59 72.9993 112 72.9993C108.41 72.9993 105.501 70.0893 105.5 66.5H105.808H105.807Z" fill="white"/>
</g>
</g>
</g>
<defs>
<linearGradient id="paint0_linear_1381_22953" x1="312" y1="6.49997" x2="-165" y2="113.5" gradientUnits="userSpaceOnUse">
<stop stop-color="#D9D9D9"/>
<stop offset="1" stop-color="#D9D9D9" stop-opacity="0"/>
</linearGradient>
<linearGradient id="paint1_linear_1381_22953" x1="290" y1="64.8868" x2="34.4969" y2="62.0219" gradientUnits="userSpaceOnUse">
<stop stop-color="white"/>
<stop offset="1" stop-color="white" stop-opacity="0"/>
</linearGradient>
<linearGradient id="paint2_linear_1381_22953" x1="65" y1="-4.9935e-05" x2="12.5" y2="-9.69948e-06" gradientUnits="userSpaceOnUse">
<stop stop-color="white"/>
<stop offset="1" stop-color="white" stop-opacity="0"/>
</linearGradient>
<clipPath id="clip0_1381_22953">
<rect width="312" height="128" fill="white"/>
</clipPath>
</defs>
</svg>
