<svg width="160" height="41" viewBox="0 0 160 41" fill="none" xmlns="http://www.w3.org/2000/svg">
<g clip-path="url(#clip0_61_7164)">
<mask id="mask0_61_7164" style="mask-type:luminance" maskUnits="userSpaceOnUse" x="-1" y="0" width="161" height="41">
<path d="M159.999 0H-0.000976562V40.4484H159.999V0Z" fill="white"/>
</mask>
<g mask="url(#mask0_61_7164)">
<path d="M6.98364 3.93262H9.4232V26.4883C9.4232 29.2972 8.79463 29.859 7.18144 31.1623V31.5387H16.8518V31.1623C15.2386 29.859 14.5792 29.2691 14.5792 26.4883V3.93262H17.0144C20.3419 3.93262 21.5946 7.30333 23.6386 11.0897H24.0342L23.032 1.80908C22.3826 1.99136 21.7188 2.0762 21.054 2.06188H2.99683C2.33203 2.0762 1.66821 1.99136 1.0188 1.80908L-0.000976562 11.0729H0.394628C2.40342 7.30333 3.65617 3.93262 6.98364 3.93262Z" fill="white"/>
<path d="M27.6909 4.71898V26.7802C27.6909 29.5611 27.3261 29.9431 25.9327 31.1621V31.5385H34.3986V31.1621C32.9789 29.9431 32.6184 29.5611 32.6184 26.7802V20.4658C32.6184 16.2973 34.1349 14.4041 36.0118 14.4041C37.8887 14.4041 38.6492 16.1288 38.6492 18.4434V26.7802C38.6492 29.5611 38.2843 29.9431 36.869 31.1621V31.5385H45.3349V31.1621C43.9195 29.9431 43.5767 29.5611 43.5767 26.7802V17.685C43.5767 13.5165 41.9635 10.3818 38.2756 10.3818C35.669 10.3818 33.6602 12.3592 32.6404 16.067V0H25.6074V0.382013C26.9525 1.47187 27.6909 2.06175 27.6909 4.71898Z" fill="white"/>
<path d="M55.7799 31.96C59.5689 31.96 62.237 29.5218 63.1601 25.1399L62.47 24.8478C61.3184 27.7915 59.7008 28.8477 57.4942 28.8477C54.3645 28.8477 52.4876 25.5612 52.4876 20.8029H63.4766C63.4766 14.275 60.8085 10.3594 55.8019 10.3594C51.0898 10.3594 47.3008 14.6121 47.3008 21.2243C47.314 28.2971 51.103 31.96 55.7799 31.96ZM55.7799 12.1683C58.0217 12.1683 58.514 15.4997 58.5491 18.9097H52.5535C52.7469 15.0784 53.6744 12.1683 55.7799 12.1683Z" fill="white"/>
<path d="M118.685 29.8138C115.169 29.8138 112.887 26.6959 110.514 21.8534H109.89L110.351 31.9655H110.843L112.294 29.3588C114.203 30.9743 116.428 31.8769 118.716 31.9655C123.551 31.9655 127.481 28.5948 127.481 22.6623C127.481 17.6905 125.243 15.4996 121.617 14.0277L118.487 12.8086C115.951 11.7974 114.83 10.5334 114.83 7.88177C114.83 5.23015 116.479 3.54481 118.751 3.54481C121.947 3.54481 123.692 6.28069 125.934 10.657H126.373L126.272 1.66846H125.833L124.413 3.77515C122.705 2.44026 120.749 1.71294 118.747 1.66846C113.608 1.66846 110.281 5.12342 110.281 10.3873C110.281 14.9771 112.356 17.2917 116.373 18.9377L119.45 20.1568C121.758 21.0388 123.011 22.4039 123.011 25.0836C123.002 28.0892 121.419 29.8138 118.685 29.8138Z" fill="white"/>
<path d="M134.637 7.62333C135.019 7.63848 135.401 7.55472 135.758 7.37708C136.114 7.19945 136.439 6.93158 136.712 6.58955C136.987 6.24752 137.204 5.83837 137.35 5.3866C137.497 4.93485 137.572 4.4498 137.569 3.96051C137.539 2.99698 137.219 2.08536 136.675 1.41688C136.132 0.748401 135.407 0.375 134.652 0.375C133.897 0.375 133.172 0.748401 132.629 1.41688C132.085 2.08536 131.765 2.99698 131.736 3.96051C131.731 4.44683 131.804 4.92926 131.948 5.37905C132.093 5.82885 132.307 6.23681 132.578 6.5786C132.848 6.9204 133.17 7.18904 133.525 7.36853C133.878 7.54802 134.256 7.63468 134.637 7.62333Z" fill="white"/>
<path d="M132.294 15.4941V26.7804C132.294 29.5612 131.929 29.9432 130.514 31.1623V31.5387H138.98V31.1623C137.564 29.9432 137.221 29.5612 137.221 26.7804V10.7808H130.241V11.1572C131.599 12.2976 132.294 12.8425 132.294 15.4941Z" fill="white"/>
<path d="M142.988 4.71898V26.7802C142.988 29.5611 142.623 29.9431 141.23 31.1621V31.5385H149.696V31.1621C148.28 29.9431 147.937 29.5611 147.937 26.7802V0H140.904V0.382013C142.241 1.47187 142.988 2.06175 142.988 4.71898Z" fill="white"/>
<path d="M153.578 4.71898V26.7802C153.578 29.5611 153.217 29.9431 151.819 31.1621V31.5385H160.29V31.1621C158.87 29.9431 158.51 29.5611 158.51 26.7802V0H151.477V0.382013C152.822 1.47187 153.578 2.06175 153.578 4.71898Z" fill="white"/>
<path d="M159.999 39.3247H0.87793V40.4483H159.999V39.3247Z" fill="white"/>
</g>
</g>
<defs>
<clipPath id="clip0_61_7164">
<rect width="160" height="40.4484" fill="white"/>
</clipPath>
</defs>
</svg>
