<svg width="16" height="16" viewBox="0 0 16 16" fill="#4BFE85" xmlns="http://www.w3.org/2000/svg">
    <path d="M3 8L12 8" stroke="#4BFE85" stroke-width="2" stroke-linecap="round" stroke-linejoin="round"/>
    <path d="M8.70711 2.29289C8.31658 1.90237 7.68342 1.90237 7.29289 2.29289C6.90237 2.68342 6.90237 3.31658 7.29289 3.70711L8.70711 2.29289ZM13 8L13.7071 8.70711C14.0976 8.31658 14.0976 7.68342 13.7071 7.29289L13 8ZM7.29289 12.2929C6.90237 12.6834 6.90237 13.3166 7.29289 13.7071C7.68342 14.0976 8.31658 14.0976 8.70711 13.7071L7.29289 12.2929ZM7.29289 3.70711L12.2929 8.70711L13.7071 7.29289L8.70711 2.29289L7.29289 3.70711ZM12.2929 7.29289L7.29289 12.2929L8.70711 13.7071L13.7071 8.70711L12.2929 7.29289Z" fill="#4BFE85"/>
</svg>
