<svg width="34" height="32" viewBox="0 0 34 32" fill="none" xmlns="http://www.w3.org/2000/svg">
<path d="M25.4845 4.43333L32.1481 4.37649L32.2066 11.0834C31.5111 10.3445 26.585 5.51325 25.4845 4.43333ZM13.952 24.7244L9.83707 20.6889C9.54777 20.4048 9.08375 20.4048 8.79387 20.6889L4.09975 25.2928L1.6662 22.9056L9.25789 15.4599L13.3723 19.4954C13.6621 19.7795 14.1256 19.7795 14.4155 19.4954L26.585 7.55941L29.0185 9.9466L13.952 24.7244ZM33.5975 3.6376C33.5975 3.23974 33.2492 2.95555 32.8436 2.95555L23.7452 3.06922C23.4559 3.06922 23.1661 3.23974 23.1082 3.52393C22.9919 3.80811 23.0503 4.0923 23.2818 4.31965L25.6575 6.65001L13.952 17.9607L9.83707 13.9252C9.54777 13.6411 9.08375 13.6411 8.79387 13.9252L0.217405 22.4509C-0.0724682 22.7351 -0.0724682 23.1898 0.217405 23.474L3.69417 26.8843C3.98404 27.1685 4.4475 27.1685 4.73737 26.8843L9.43147 22.2804L13.5464 26.3159C13.8363 26.6001 14.2997 26.6001 14.589 26.3159L30.178 11.0265L32.5537 13.3569C32.67 13.4705 32.902 13.5842 33.0756 13.5842C33.4812 13.5842 33.8289 13.2432 33.7711 12.8453L33.5975 3.6376Z" fill="white"/>
<path d="M32.2645 15.6301C32.681 15.6301 33.0184 15.9609 33.0184 16.369C33.0184 16.7771 32.681 17.1079 32.2645 17.1079C31.8491 17.1079 31.5117 16.7771 31.5117 16.369C31.5117 15.9609 31.8491 15.6301 32.2645 15.6301Z" fill="white"/>
<path d="M25.0209 17.7896C25.4374 17.7896 25.7742 18.1203 25.7742 18.5284C25.7742 18.9365 25.4374 19.2673 25.0209 19.2673C24.6044 19.2673 24.2676 18.9365 24.2676 18.5284C24.2676 18.1203 24.6044 17.7896 25.0209 17.7896Z" fill="white"/>
<path d="M17.0248 28.4197C17.4407 28.4197 17.7781 28.7505 17.7781 29.1586C17.7781 29.5667 17.4407 29.8975 17.0248 29.8975C16.6083 29.8975 16.2715 29.5667 16.2715 29.1586C16.2715 28.7505 16.6083 28.4197 17.0248 28.4197Z" fill="white"/>
<path d="M2.53458 27.7373C2.95106 27.7373 3.2879 28.0681 3.2879 28.4762C3.2879 28.8843 2.95106 29.2151 2.53458 29.2151C2.11868 29.2151 1.78125 28.8843 1.78125 28.4762C1.78125 28.0681 2.11868 27.7373 2.53458 27.7373Z" fill="white"/>
<path d="M15.5756 11.3677C15.9915 11.3677 16.3289 11.6985 16.3289 12.1066C16.3289 12.5147 15.9915 12.8455 15.5756 12.8455C15.1597 12.8455 14.8223 12.5147 14.8223 12.1066C14.8223 11.6985 15.1597 11.3677 15.5756 11.3677Z" fill="white"/>
<path d="M2.53458 1.42188C2.95106 1.42188 3.2879 1.75267 3.2879 2.16077C3.2879 2.56886 2.95106 2.89966 2.53458 2.89966C2.11868 2.89966 1.78125 2.56886 1.78125 2.16077C1.78125 1.75267 2.11868 1.42188 2.53458 1.42188Z" fill="white"/>
<path d="M22.8197 0C23.2356 0 23.5731 0.330796 23.5731 0.738892C23.5731 1.14699 23.2356 1.47778 22.8197 1.47778C22.4038 1.47778 22.0664 1.14699 22.0664 0.738892C22.0664 0.330796 22.4038 0 22.8197 0Z" fill="white"/>
<path d="M9.25845 5.51382C9.20002 5.45698 9.14215 5.34331 9.14215 5.22963C9.14215 5.00228 9.31631 4.83177 9.66405 4.83177V5.74117C9.48989 5.6275 9.37417 5.57066 9.25845 5.51382ZM10.0118 7.04844C10.1854 7.10528 10.3016 7.16212 10.4174 7.21896C10.5331 7.27579 10.5909 7.38947 10.5909 7.50315C10.5909 7.7305 10.4174 7.84417 10.0118 7.90101V7.04844ZM9.14215 7.78733C8.91071 7.7305 8.56299 7.55998 8.38883 7.44631C8.33097 7.38947 8.27311 7.33263 8.21525 7.33263L7.69336 8.35571C8.27311 8.69674 8.96858 8.92409 9.60618 8.98093V9.8335H10.0696V8.98093C10.3017 8.98093 10.5331 8.92409 10.7651 8.86725C11.1707 8.75358 11.5184 8.52623 11.7499 8.12836C11.924 7.7305 11.924 7.16212 11.8083 6.82109C11.692 6.5369 11.4606 6.30955 10.9965 6.0822C10.5331 5.91169 10.1275 5.79801 10.0696 5.79801V4.83177C10.591 4.88861 11.1707 5.22963 11.2286 5.28647L11.7499 4.32023C11.5184 4.20655 11.2864 4.09288 10.9965 3.9792C10.7072 3.86553 10.4174 3.80869 10.1275 3.75185V3.01296H9.60618V3.75185C8.91072 3.86553 8.33097 4.14971 8.0411 4.77493C7.86752 5.11596 7.86752 5.6275 7.98324 5.96852C8.09896 6.30955 8.38884 6.48006 8.67871 6.65058C9.0843 6.82109 9.48989 6.93477 9.66405 6.99161V7.95785C9.48989 7.84417 9.31631 7.84417 9.14215 7.78733Z" fill="white"/>
<path d="M9.77955 2.15934C12.1552 2.15934 14.1259 4.09182 14.1259 6.42217C14.1259 8.75253 12.1552 10.685 9.77955 10.685C7.40385 10.685 5.43317 8.75253 5.43317 6.42217C5.43317 4.09182 7.40385 2.15934 9.77955 2.15934ZM9.77955 12.106C12.967 12.106 15.5747 9.54826 15.5747 6.42217C15.5747 3.29609 12.967 0.738393 9.77955 0.738393C6.59267 0.738393 3.98438 3.29609 3.98438 6.42217C3.98438 9.54826 6.59267 12.106 9.77955 12.106Z" fill="white"/>
<path d="M25.948 27.7931V26.9405C26.1221 26.9974 26.2378 27.0542 26.3536 27.111C26.4699 27.1679 26.5277 27.2816 26.5277 27.3952C26.5277 27.6794 26.2963 27.7931 25.948 27.7931ZM25.6008 25.5764C25.4266 25.5196 25.3109 25.4627 25.1952 25.4059C25.1368 25.3491 25.0795 25.2354 25.0795 25.1217C25.0795 24.8944 25.2525 24.7239 25.6008 24.7239V25.5764ZM26.8754 25.9743C26.412 25.8038 26.0064 25.6901 25.948 25.6901V24.7239C26.4698 24.7807 27.049 25.1217 27.1075 25.1786L27.6288 24.2123C27.3968 24.0986 27.1653 23.985 26.8754 23.8713C26.5856 23.7576 26.2963 23.7008 26.0064 23.6439V22.905H25.4851V23.6439C24.7896 23.7008 24.2099 23.985 23.92 24.6102C23.7458 25.008 23.7458 25.4627 23.8621 25.8038C24.0357 26.3153 24.6155 26.5427 25.1952 26.7132L25.5424 26.8269V27.7931C25.3682 27.7931 25.1952 27.7363 25.0211 27.6794C24.7896 27.6226 24.4413 27.4521 24.2677 27.3384C24.2099 27.2816 24.1514 27.2247 24.0941 27.2247L23.5723 28.2478C24.1514 28.5888 24.8469 28.8162 25.4851 28.873V29.7256H26.0064V28.873C26.4698 28.873 26.8754 28.7593 27.2232 28.4752C27.3968 28.3615 27.5131 28.191 27.6288 28.0205C27.8024 27.6226 27.8023 27.0542 27.6866 26.7132C27.5709 26.429 27.3389 26.1448 26.8754 25.9743Z" fill="white"/>
<path d="M25.7151 30.5791C23.3388 30.5791 21.3687 28.6466 21.3687 26.3162C21.3687 23.9859 23.3388 22.0534 25.7151 22.0534C28.0908 22.0534 30.0615 23.9859 30.0615 26.3162C30.0615 28.6466 28.0908 30.5791 25.7151 30.5791ZM25.7151 20.6324C22.5276 20.6324 19.9199 23.1901 19.9199 26.3162C19.9199 29.4423 22.5276 32 25.7151 32C28.902 32 31.5102 29.4423 31.5102 26.3162C31.5102 23.1901 28.902 20.6324 25.7151 20.6324Z" fill="white"/>
<path d="M9.08493 29.8972C8.67933 29.8972 8.33161 29.5562 8.33161 29.1583C8.33161 28.7605 8.67933 28.4194 9.08493 28.4194C9.49052 28.4194 9.83826 28.7605 9.83826 29.1583C9.7804 29.5562 9.43266 29.8972 9.08493 29.8972ZM9.08493 27.0553C7.86815 27.0553 6.88281 28.0216 6.88281 29.2152C6.88281 30.4088 7.86815 31.375 9.08493 31.375C10.3023 31.375 11.2871 30.4088 11.2871 29.2152C11.2871 28.0216 10.2444 27.0553 9.08493 27.0553Z" fill="white"/>
<path d="M19.5713 3.58084C20.1511 3.58084 20.6724 4.03554 20.6724 4.66076C20.6724 5.28597 20.2084 5.74068 19.5713 5.74068C18.9337 5.74068 18.4703 5.28597 18.4703 4.66076C18.4703 4.03554 18.9337 3.58084 19.5713 3.58084ZM19.5713 7.16162C20.9623 7.16162 22.1212 6.02486 22.1212 4.66076C22.1212 3.29665 20.9623 2.15989 19.5713 2.15989C18.1804 2.15989 17.0215 3.29665 17.0215 4.66076C17.0215 6.02486 18.1804 7.16162 19.5713 7.16162Z" fill="white"/>
<path d="M3.6358 13.5279C3.80995 13.5279 3.98352 13.6984 3.98352 13.8689C3.98352 14.0394 3.80995 14.21 3.6358 14.21C3.46222 14.21 3.28806 14.0394 3.28806 13.8689C3.28806 13.6984 3.40436 13.5279 3.6358 13.5279ZM3.6358 15.6877C4.62114 15.6877 5.43232 14.892 5.43232 13.9258C5.43232 12.9595 4.62114 12.1638 3.6358 12.1638C2.65104 12.1638 1.83984 12.9595 1.83984 13.9258C1.83984 14.892 2.65104 15.6877 3.6358 15.6877Z" fill="white"/>
</svg>
