<svg width="24" height="24" viewBox="0 0 24 24" fill="none" xmlns="http://www.w3.org/2000/svg">
<g clip-path="url(#clip0_600_7302)">
<path d="M17.6737 15.7408C17.4624 15.5283 17.2112 15.3597 16.9347 15.2447C16.6582 15.1296 16.3617 15.0704 16.0623 15.0704C15.7629 15.0704 15.4664 15.1296 15.1899 15.2447C14.9133 15.3597 14.6622 15.5283 14.4509 15.7408L13.3513 16.8423C12.1132 16.0552 10.9662 15.1328 9.93124 14.0922C8.89471 13.0533 7.97424 11.9044 7.18611 10.6659L8.28568 9.56427C8.49777 9.35253 8.66605 9.10093 8.78087 8.8239C8.89569 8.54686 8.9548 8.24985 8.9548 7.94988C8.9548 7.64991 8.89569 7.35289 8.78087 7.07586C8.66605 6.79882 8.49777 6.54722 8.28568 6.33548L6.13962 4.19309C5.93125 3.9799 5.68223 3.81087 5.40736 3.69602C5.13248 3.58117 4.83737 3.52285 4.53955 3.52454C4.23962 3.5238 3.94251 3.58249 3.6653 3.69722C3.3881 3.81196 3.13627 3.98048 2.92432 4.19309L1.893 5.2187C1.40143 5.7482 1.03456 6.38133 0.819339 7.07155C0.604122 7.76177 0.546035 8.49154 0.64935 9.20721C0.892013 12.0561 2.75749 15.4825 5.63154 18.3694C8.50559 21.2563 11.9636 23.1176 14.8073 23.3911C15.0194 23.4024 15.2321 23.4024 15.4443 23.3911C16.0564 23.4168 16.6675 23.3199 17.2418 23.1059C17.816 22.892 18.3419 22.5654 18.7885 22.1452L19.8122 21.1119C20.0244 20.8996 20.1926 20.6473 20.3072 20.3696C20.4217 20.0919 20.4803 19.7942 20.4795 19.4937C20.4812 19.1954 20.423 18.8997 20.3084 18.6244C20.1937 18.349 20.025 18.0995 19.8122 17.8908L17.6737 15.7408ZM18.743 20.0407L17.7117 21.0664C17.3303 21.3847 16.8852 21.6173 16.4063 21.7484C15.9275 21.8795 15.4261 21.906 14.9362 21.8261C12.4716 21.6134 9.33216 19.866 6.73869 17.2678C4.14523 14.6696 2.40108 11.5471 2.166 9.07805C2.08422 8.58721 2.10967 8.08444 2.24059 7.60441C2.3715 7.12437 2.60478 6.67849 2.92432 6.2975L3.99356 5.26428C4.06442 5.19387 4.14845 5.13817 4.24085 5.10036C4.33324 5.06255 4.43217 5.04339 4.53197 5.04397C4.63177 5.04339 4.7307 5.06255 4.8231 5.10036C4.91549 5.13817 4.99952 5.19387 5.07038 5.26428L7.21644 7.43707C7.35768 7.57941 7.43695 7.77196 7.43695 7.97267C7.43695 8.17337 7.35768 8.36593 7.21644 8.50827L5.69979 10.0277C5.58111 10.146 5.50485 10.3003 5.4829 10.4666C5.46095 10.6329 5.49455 10.8018 5.57846 10.947C6.48647 12.4956 7.59009 13.9204 8.862 15.1862C10.1254 16.4604 11.5476 17.5661 13.0935 18.4757C13.2383 18.5598 13.4069 18.5935 13.5729 18.5715C13.7389 18.5495 13.8929 18.4731 14.011 18.3542L15.5277 16.8347C15.6698 16.6932 15.862 16.6138 16.0623 16.6138C16.2626 16.6138 16.4548 16.6932 16.5969 16.8347L18.743 18.9847C18.8133 19.0557 18.8689 19.1399 18.9066 19.2325C18.9443 19.325 18.9635 19.4242 18.9629 19.5241C18.9581 19.7182 18.8795 19.903 18.743 20.0407ZM20.0625 3.93478C19.0086 2.87496 17.7557 2.03461 16.3761 1.4622C14.9965 0.889787 13.5175 0.59663 12.0242 0.599632C11.8231 0.599632 11.6302 0.679673 11.488 0.822148C11.3458 0.964622 11.2659 1.15786 11.2659 1.35935C11.2659 1.56084 11.3458 1.75407 11.488 1.89655C11.6302 2.03902 11.8231 2.11906 12.0242 2.11906C13.3259 2.11902 14.6146 2.37722 15.8162 2.87876C17.0177 3.38031 18.1082 4.11528 19.0247 5.04125C19.9412 5.96722 20.6656 7.06585 21.1561 8.27377C21.6466 9.48168 21.8934 10.7749 21.8824 12.0789C21.8824 12.2804 21.9623 12.4737 22.1045 12.6161C22.2468 12.7586 22.4396 12.8386 22.6408 12.8386C22.8419 12.8386 23.0348 12.7586 23.177 12.6161C23.3192 12.4737 23.3991 12.2804 23.3991 12.0789C23.4136 10.567 23.1259 9.06755 22.5528 7.66883C21.9798 6.27011 21.133 5.00048 20.0625 3.93478Z" fill="white"/>
<path d="M15.8351 8.14918C16.2512 8.5583 16.5804 9.04561 16.8033 9.58245C17.0262 10.1193 17.1383 10.6948 17.133 11.2751C17.133 11.4675 17.2102 11.6519 17.3478 11.788C17.4853 11.924 17.6718 12.0004 17.8663 12.0004C18.0607 12.0004 18.2473 11.924 18.3848 11.788C18.5223 11.6519 18.5995 11.4675 18.5995 11.2751C18.6092 10.5071 18.4647 9.74478 18.1742 9.03243C17.8838 8.32008 17.4532 7.67187 16.9075 7.12538C16.3618 6.57889 15.7118 6.145 14.9953 5.84889C14.2787 5.55278 13.5099 5.40033 12.7333 5.40039C12.5388 5.40039 12.3523 5.4768 12.2148 5.61282C12.0773 5.74883 12 5.93331 12 6.12567C12 6.31802 12.0773 6.5025 12.2148 6.63851C12.3523 6.77453 12.5388 6.85094 12.7333 6.85094C13.3112 6.85525 13.8825 6.97211 14.4147 7.19487C14.947 7.41763 15.4296 7.7419 15.8351 8.14918Z" fill="white"/>
</g>
<defs>
<clipPath id="clip0_600_7302">
<rect width="24" height="24" fill="white"/>
</clipPath>
</defs>
</svg>
