<svg width="40" height="40" viewBox="0 0 40 40" fill="none" xmlns="http://www.w3.org/2000/svg">
<path d="M21.3469 13.7396C21.3469 15.2063 21.7303 16.438 22.4969 17.4346C23.0403 18.1213 23.7775 18.5724 24.7086 18.788C25.6253 19.0013 26.4919 19.0163 27.2753 18.8346C27.5419 20.418 27.1086 22.0946 26.0086 23.8713C24.9064 25.6469 23.4853 26.9819 21.7453 27.8763L24.3803 31.668C25.7136 31.008 26.9803 30.1713 28.1469 29.1596C29.3303 28.148 30.3803 26.9846 31.3136 25.6696C32.2469 24.3546 32.9469 22.8696 33.3969 21.1863C33.8469 19.503 33.9719 17.7863 33.7569 16.0196C33.4769 13.6863 32.7236 11.8196 31.4969 10.4363C30.2714 9.03519 28.7447 8.33463 26.9169 8.33463C25.3086 8.33463 23.9736 8.81797 22.9169 9.79797C21.8714 10.758 21.3492 12.0735 21.3503 13.7446L21.3469 13.7396ZM6.14026 13.7396C6.14026 15.2063 6.5236 16.438 7.29026 17.4346C7.83471 18.1346 8.57193 18.5885 9.50193 18.7963C10.4353 19.0019 11.2908 19.0141 12.0686 18.833C12.3353 20.3996 11.9186 22.083 10.8153 23.8663C9.71526 25.633 8.29526 26.9663 6.55526 27.8663L9.1836 31.668C10.518 31.008 11.7736 30.1719 12.9503 29.1596C14.1443 28.1329 15.2048 26.9604 16.1069 25.6696C17.0336 24.353 17.7236 22.8696 18.1736 21.1863C18.6307 19.5043 18.7536 17.7489 18.5353 16.0196C18.2586 13.6863 17.5086 11.8196 16.2853 10.4363C15.063 9.04519 13.5392 8.34963 11.7136 8.34963C10.1025 8.34741 8.76804 8.83463 7.71026 9.8113C6.66471 10.7713 6.14137 12.0869 6.14026 13.758V13.7396Z" fill="#6E9419"/>
</svg>
