<svg width="40" height="40" viewBox="0 0 40 40" fill="none" xmlns="http://www.w3.org/2000/svg">
<path d="M37.298 10.4614C33.4156 10.4614 6.51686 10.4614 2.63443 10.4614C2.14921 10.4614 1.73251 10.0457 1.73251 9.56076C1.73251 9.07579 2.14921 8.66009 2.63443 8.66009C3.67408 8.66009 36.6045 8.66009 37.298 8.66009C37.7833 8.66009 38.1992 9.07579 38.1992 9.56076C38.1992 10.0457 37.7833 10.4614 37.298 10.4614ZM35.5655 27.782H20.8671C20.3819 27.782 19.9666 28.1977 19.9666 28.6827C19.9666 29.1677 20.3819 29.5834 20.8671 29.5834H35.4956C35.2187 30.5533 34.3168 31.3154 33.2772 31.3154H6.65529C5.61495 31.3154 4.71441 30.5533 4.43685 29.5834H6.93217C7.41738 29.5834 7.83408 29.1677 7.83408 28.6827C7.83408 28.1977 7.41738 27.782 6.93217 27.782H4.29841V12.1935H35.4956V27.782H35.5655ZM19.1346 4.01817V6.92803H13.2414L19.1346 4.01817ZM26.6904 6.99731H20.7986V4.01817L26.6904 6.99731ZM37.298 6.99731H30.5728L20.8671 2.14755V0.969746C20.8671 0.484768 20.4518 0.0690765 19.9666 0.0690765C19.4807 0.0690765 19.0647 0.484768 19.0647 0.969746V2.14755L9.35895 6.99731H2.63443C1.17877 6.99731 0 8.17512 0 9.63005C0 11.085 1.17877 12.2628 2.63443 12.2628V29.0291C2.63443 31.2462 4.43686 33.0475 6.65529 33.0475H16.361L13.5189 38.7287C13.3106 39.1444 13.449 39.6986 13.9349 39.9065C14.3509 40.1143 14.9054 39.9758 15.1137 39.4908L18.3718 33.0475H19.1346V37.2737C19.1346 37.7587 19.5499 38.1744 20.0351 38.1744C20.5203 38.1744 20.937 37.7587 20.937 37.2737V32.9089H21.6991L24.9579 39.3522C25.0963 39.6293 25.4431 39.8372 25.72 39.8372C26.345 39.8372 26.7603 39.1444 26.4834 38.5901L23.6406 32.9089H33.3464C35.5655 32.9089 37.3679 31.1076 37.3679 28.8906V12.1935C38.8236 12.1935 40.0017 11.0157 40.0017 9.56076C40.0017 8.10583 38.7544 6.99731 37.298 6.99731Z" fill="#6E9419"/>
<path d="M10.815 16.5583L12.3406 20.8539L8.11139 19.2604C8.73573 18.1518 9.70615 17.1819 10.815 16.5583ZM14.0046 17.1126C16.9851 17.1126 19.3427 19.4682 19.3427 22.3781C19.3427 25.3572 16.9166 27.7128 14.0046 27.7128C12.6874 27.7128 11.4401 27.2278 10.4689 26.3272L11.2317 25.6343C11.9938 26.2579 12.9642 26.6736 14.0046 26.6736C16.3614 26.6736 18.3722 24.7337 18.3722 22.3088C18.3722 21.8238 17.9562 21.4081 17.4703 21.4081C16.9851 21.4081 16.5698 21.8238 16.5698 22.3088C16.5698 23.7637 15.391 24.9415 13.9354 24.9415C13.3809 24.9415 12.8957 24.803 12.479 24.5258C12.8957 24.1794 14.2815 22.9323 14.3514 22.9323C14.6282 22.6552 14.6974 22.3088 14.559 22.0317L12.8258 17.1819C13.2418 17.1126 13.5886 17.1126 14.0046 17.1126ZM11.5785 23.1402C11.5086 22.863 11.4401 22.5859 11.4401 22.3781L12.1323 22.6552L11.5785 23.1402ZM9.77537 21.7545C9.63693 22.7245 9.77536 23.6252 10.1914 24.3873L9.42859 25.0801C8.80493 23.9023 8.59658 22.6552 8.80493 21.4081L9.77537 21.7545ZM6.65572 20.5767L7.14094 20.7846C6.1006 25.4265 9.56771 29.5142 14.0046 29.5142C17.887 29.5142 21.0759 26.3272 21.0759 22.4474C21.0759 18.5675 17.887 15.4498 14.0046 15.4498C13.3809 15.4498 12.8258 15.5191 12.2707 15.6577L12.1323 15.1034C11.9938 14.6184 11.4401 14.4106 11.0234 14.6184C8.80493 15.4498 7.0025 17.2512 6.1705 19.4682C5.96216 19.8839 6.23972 20.3689 6.65572 20.5767Z" fill="#6E9419"/>
<path d="M33.4149 36.4405C33.2072 36.4405 32.9988 36.2326 32.9988 36.0248C32.9988 35.817 33.2072 35.6091 33.4149 35.6091C33.6232 35.6091 33.8308 35.817 33.8308 36.0248C33.8308 36.2326 33.6232 36.4405 33.4149 36.4405ZM33.4149 33.8078C32.2368 33.8078 31.2656 34.7777 31.2656 35.9555C31.2656 37.1333 32.2368 38.1033 33.4149 38.1033C34.5936 38.1033 35.5647 37.1333 35.5647 35.9555C35.5647 34.7777 34.5936 33.8078 33.4149 33.8078Z" fill="#6E9419"/>
<path d="M5.68436 37.2745C5.47602 37.2745 5.26837 37.0667 5.26837 36.8588C5.26837 36.651 5.47602 36.4431 5.68436 36.4431C5.8927 36.4431 6.09968 36.5817 6.09968 36.8588C6.09968 37.0667 5.8927 37.2745 5.68436 37.2745ZM5.68436 34.7111C4.50558 34.7111 3.53516 35.681 3.53516 36.8588C3.53516 38.0366 4.50558 39.0066 5.68436 39.0066C6.86314 39.0066 7.8336 38.0366 7.8336 36.8588C7.8336 35.681 6.86314 34.7111 5.68436 34.7111Z" fill="#6E9419"/>
<path d="M32.5157 3.5325C32.724 3.5325 32.9317 3.74035 32.9317 3.94819C32.9317 4.15604 32.724 4.36389 32.5157 4.36389C32.308 4.36389 32.0997 4.15604 32.0997 3.94819C32.0997 3.74035 32.308 3.5325 32.5157 3.5325ZM32.5157 6.09595C33.6945 6.09595 34.6649 5.12599 34.6649 3.94819C34.6649 2.77039 33.6945 1.80044 32.5157 1.80044C31.3376 1.80044 30.3672 2.77039 30.3672 3.94819C30.3672 5.12599 31.3376 6.09595 32.5157 6.09595Z" fill="#6E9419"/>
<path d="M7.00162 1.80175C7.48683 1.80175 7.90283 2.21744 7.90283 2.70242C7.90283 3.1874 7.48683 3.60309 7.00162 3.60309C6.5164 3.60309 6.0997 3.11811 6.0997 2.63314C6.0997 2.14816 6.5164 1.80175 7.00162 1.80175ZM7.00162 5.26587C8.45727 5.26587 9.63604 4.08807 9.63604 2.63314C9.63604 1.17821 8.45727 0.000405312 7.00162 0.000405312C5.54596 0.000405312 4.36719 1.17821 4.36719 2.63314C4.36719 4.08807 5.54596 5.26587 7.00162 5.26587Z" fill="#6E9419"/>
<path d="M28.6317 34.6393C29.1299 34.6393 29.5336 35.0426 29.5336 35.54C29.5336 36.0375 29.1299 36.4407 28.6317 36.4407C28.1341 36.4407 27.7305 36.0375 27.7305 35.54C27.7305 35.0426 28.1341 34.6393 28.6317 34.6393Z" fill="#6E9419"/>
<path d="M10.4676 34.6393C10.9652 34.6393 11.3688 35.0426 11.3688 35.54C11.3688 36.0375 10.9652 36.4407 10.4676 36.4407C9.97006 36.4407 9.56641 36.0375 9.56641 35.54C9.56641 35.0426 9.97006 34.6393 10.4676 34.6393Z" fill="#6E9419"/>
<path d="M26.8986 -7.34329e-05C27.3968 -7.34329e-05 27.8005 0.40315 27.8005 0.900598C27.8005 1.39805 27.3968 1.80127 26.8986 1.80127C26.4017 1.80127 25.998 1.39805 25.998 0.900598C25.998 0.40315 26.4017 -7.34329e-05 26.8986 -7.34329e-05Z" fill="#6E9419"/>
<path d="M13.0327 1.73113C13.5303 1.73113 13.934 2.13435 13.934 2.6318C13.934 3.12925 13.5303 3.53247 13.0327 3.53247C12.5345 3.53247 12.1309 3.12925 12.1309 2.6318C12.1309 2.13435 12.5345 1.73113 13.0327 1.73113Z" fill="#6E9419"/>
<path d="M1.8016 3.46453C2.29984 3.46453 2.70281 3.86775 2.70281 4.3652C2.70281 4.86265 2.29984 5.26587 1.8016 5.26587C1.30336 5.26587 0.900391 4.86265 0.900391 4.3652C0.900391 3.86775 1.30336 3.46453 1.8016 3.46453Z" fill="#6E9419"/>
<path d="M37.299 3.46453C37.7972 3.46453 38.2002 3.86775 38.2002 4.3652C38.2002 4.86265 37.7972 5.26587 37.299 5.26587C36.8014 5.26587 36.3984 4.86265 36.3984 4.3652C36.3984 3.86775 36.8014 3.46453 37.299 3.46453Z" fill="#6E9419"/>
<path d="M26.065 20.8536H26.897V24.3177H25.9965V20.8536H26.065ZM28.6302 19.1216H29.5321V24.3177H28.6302C28.6302 22.3086 28.6302 20.9922 28.6302 19.1216ZM31.2646 17.3895H32.1665V24.3177H31.2646C31.2646 23.2785 31.2646 18.1516 31.2646 17.3895ZM25.1645 26.0498C26.1349 26.0498 32.0966 26.0498 32.9979 26.0498C33.4831 26.0498 33.8998 25.6341 33.8998 25.1491V16.4888C33.8998 16.0039 33.4831 15.5882 32.9979 15.5882H30.3641C29.8789 15.5882 29.4622 16.0039 29.4622 16.4888V17.3895H27.729C27.2438 17.3895 26.8285 17.8052 26.8285 18.2902V19.1908H25.0946C24.6094 19.1908 24.1934 19.6065 24.1934 20.0915V25.2877C24.3325 25.6341 24.6786 26.0498 25.1645 26.0498Z" fill="#6E9419"/>
</svg>
