<svg width="40" height="40" viewBox="0 0 40 40" fill="none" xmlns="http://www.w3.org/2000/svg">
<path d="M22.4463 21.6672L21.3271 20.5561C21.6071 20.4172 21.8864 20.3478 22.0965 20.2783C22.306 20.2089 22.5154 20.2783 22.6558 20.4867C22.9357 20.7644 22.8652 21.1811 22.4463 21.6672ZM18.2502 19.445C18.0408 19.445 17.8306 19.3756 17.691 19.2367C17.3412 18.8895 17.411 18.4728 17.8306 17.9867L19.0196 19.1672C18.7404 19.3756 18.4597 19.445 18.2502 19.445ZM25.0331 20.8339C25.1036 20.4867 25.0331 20.07 24.8935 19.7228C24.7538 19.3756 24.5437 18.9589 24.1247 18.6117C23.2855 17.7784 22.3758 17.57 21.1177 18.0561C20.2778 18.4033 19.6487 18.82 19.5789 18.8895L18.2502 17.57C18.4597 17.4311 18.6698 17.2922 18.88 17.1534C19.2298 17.0145 19.7192 16.8061 20.0683 16.6672C20.2086 16.5978 20.3483 16.5978 20.3483 16.5978L19.7192 14.5839C19.2989 14.7228 18.8095 14.8617 18.32 15.07C17.8306 15.2784 17.3412 15.5561 16.8518 15.9728L16.0126 15.1395L15.3828 15.7645L16.3624 16.7367C15.5231 17.7089 15.1733 18.8895 15.6628 20.07C15.8024 20.4172 16.0126 20.7644 16.3624 21.1117C17.0619 21.8061 17.8306 22.0144 18.9491 21.6672C19.7192 21.3894 20.4181 20.9728 20.6981 20.8339L21.9569 22.0839C21.6769 22.2922 21.397 22.4311 21.1177 22.57C20.6981 22.7783 20.1381 23.0561 19.6487 23.1256C19.4386 23.195 19.3694 23.195 19.2989 23.195L19.9985 25.2783C21.1875 25.07 22.3758 24.3755 23.2855 23.6117L24.404 24.7228L25.0331 24.0978L23.9146 22.9867C24.1939 22.6394 24.4738 22.3617 24.6833 21.945C24.8935 21.5978 24.9633 21.2506 25.0331 20.8339Z" fill="#6E9419"/>
<path d="M38.2523 21.2509L33.7777 21.4592C33.3574 21.4592 33.0076 21.8064 32.9385 22.1537C32.7981 22.9175 32.5887 23.6814 32.3087 24.3759C32.1684 24.7231 32.3087 25.2092 32.6578 25.4175L36.4343 27.8481L35.1754 30.0009L31.1895 27.987C30.8404 27.7786 30.3503 27.9175 30.1408 28.1953C29.6514 28.8203 29.0915 29.3064 28.4624 29.862C28.1831 30.1397 28.0435 30.5564 28.2523 30.9036L30.2805 34.8619L28.1126 36.1119L25.6655 32.362C25.4553 32.0147 25.0357 31.8758 24.6168 32.0147C23.9173 32.2925 23.1486 32.5008 22.3785 32.6397C21.9596 32.7092 21.6796 33.0564 21.6796 33.4731L21.4694 37.9175H18.9518L18.743 33.4731C18.743 33.0564 18.3932 32.7092 18.0434 32.6397C17.274 32.5008 16.5046 32.2925 15.8051 32.0147C15.456 31.8758 14.9665 32.0147 14.7564 32.362L12.3093 36.1119L10.1407 34.8619L12.1689 30.9036C12.3784 30.5564 12.2387 30.0703 11.9595 29.862C11.3297 29.3759 10.7705 28.8203 10.2811 28.1953C10.0011 27.8481 9.58214 27.7786 9.23235 27.987L5.24574 30.0009L3.98763 27.8481L7.76338 25.4175C8.11317 25.2092 8.2535 24.7925 8.11317 24.3759C7.8332 23.6814 7.62375 22.9175 7.48342 22.1537C7.41361 21.737 7.06452 21.4592 6.64491 21.4592L2.16887 21.2509V18.7509L6.64491 18.5426C7.06452 18.5426 7.41361 18.1953 7.48342 17.8481C7.62375 17.0842 7.8332 16.3204 8.11317 15.6259C8.2535 15.2787 8.11317 14.7926 7.76338 14.5842L3.98763 12.1537L5.24574 10.0009L9.23235 12.0148C9.58214 12.2231 10.0716 12.0843 10.2811 11.8065C10.7705 11.1815 11.3297 10.6954 11.889 10.2093C12.2387 9.93149 12.3093 9.51482 12.0991 9.1676L10.0716 5.20928L12.2387 3.95929L14.6866 7.70927C14.896 8.05649 15.3156 8.19538 15.7353 8.05649C16.4348 7.77872 17.2042 7.57038 17.9729 7.4315C18.3932 7.36205 18.6725 7.01483 18.6725 6.59817L18.8826 2.15374H21.3996L21.6098 6.59817C21.6098 7.01483 21.9595 7.36205 22.3086 7.4315C23.078 7.57038 23.8467 7.77872 24.5463 8.05649C24.8961 8.19538 25.3855 8.05649 25.5957 7.70927L28.0435 3.95929L30.2107 5.20928L28.1831 9.1676C27.973 9.51482 28.1126 10.0009 28.3919 10.2093C28.9518 10.6954 29.5118 11.2509 30.071 11.8759C30.3503 12.1537 30.7699 12.2926 31.1197 12.0843L35.1056 10.0704L36.3644 12.2231L32.5887 14.6537C32.2389 14.862 32.0992 15.2787 32.2389 15.6954C32.5181 16.3898 32.7283 17.1537 32.8679 17.9176C32.9385 18.3342 33.2883 18.612 33.7072 18.612L38.1832 18.8203L38.2523 21.2509ZM39.162 17.0842L34.5464 16.8065C34.4766 16.3898 34.3362 15.9731 34.1966 15.6259L38.0429 13.1259C38.4625 12.8481 38.5323 12.362 38.3229 11.9454L36.2248 8.33427C36.0147 7.91761 35.4554 7.77872 35.1056 7.98705L30.9801 10.0704C30.7001 9.7926 30.4208 9.44538 30.071 9.1676L32.1684 5.07039C32.3785 4.65373 32.2389 4.16762 31.8193 3.95929L28.1831 1.87596C27.7628 1.66763 27.2734 1.73707 26.9942 2.15374L24.4765 5.97317C24.0569 5.83428 23.7071 5.76484 23.2882 5.62595L23.0075 1.04263C23.0075 0.556523 22.5886 0.209302 22.169 0.209302H17.9729C17.4835 0.209302 17.1337 0.556523 17.1337 1.04263L16.8544 5.62595C16.4348 5.69539 16.0152 5.83428 15.6654 5.97317L13.1485 2.15374C12.8678 1.73707 12.3784 1.66763 11.9595 1.87596L8.32265 3.95929C7.90373 4.16762 7.7634 4.72317 7.97286 5.07039L10.0716 9.1676C9.79092 9.44538 9.44112 9.72315 9.16184 10.0704L5.0363 7.98705C4.61669 7.77872 4.12727 7.91761 3.91712 8.33427L1.81975 11.9454C1.6096 12.362 1.67942 12.8481 2.09903 13.1259L5.94532 15.6259C5.80569 16.0426 5.73517 16.3898 5.59553 16.8065L0.979849 17.0842C0.490423 17.0842 0.140625 17.5009 0.140625 17.9176V22.0842C0.140625 22.5703 0.490423 22.9175 0.979849 22.9175L5.59553 23.1953C5.66604 23.612 5.80569 24.0287 5.94532 24.3759L2.09903 26.8759C1.67942 27.1536 1.6096 27.6398 1.81975 28.0564L3.91712 31.6675C4.12727 32.0842 4.68651 32.2231 5.0363 32.0147L9.16184 29.9314C9.44112 30.2092 9.72179 30.5564 10.0716 30.8342L7.97286 34.9314C7.7634 35.3481 7.90373 35.8342 8.32265 36.0425L11.9595 38.1258C12.3784 38.3342 12.8678 38.2647 13.1485 37.848L15.6654 34.0286C16.085 34.1675 16.4348 34.2369 16.8544 34.3758L17.1337 38.9592C17.1337 39.4453 17.554 39.7925 17.9729 39.7925H22.169C22.6584 39.7925 23.0075 39.4453 23.0075 38.9592L23.2882 34.3758C23.7071 34.3064 24.1274 34.1675 24.4765 34.0286L26.9942 37.848C27.2734 38.2647 27.7628 38.3342 28.1831 38.1258L31.8193 36.0425C32.2389 35.8342 32.3785 35.2786 32.1684 34.9314L30.071 30.8342C30.3503 30.5564 30.7001 30.2786 30.9801 29.9314L35.1056 32.0147C35.5252 32.2231 36.0147 32.0842 36.2248 31.6675L38.3229 28.0564C38.5323 27.6398 38.4625 27.1536 38.0429 26.8759L34.1966 24.3759C34.3362 23.9592 34.4068 23.612 34.5464 23.1953L39.162 22.9175C39.6515 22.9175 40.0006 22.5009 40.0006 22.0842V17.9176C40.0006 17.4315 39.6515 17.0842 39.162 17.0842Z" fill="#6E9419"/>
<path d="M20.1384 27.7781C15.8027 27.7781 12.3068 24.3058 12.3068 20.0003C12.3068 15.6948 15.8027 12.2226 20.1384 12.2226C24.4741 12.2226 27.9706 15.6948 27.9706 20.0003C27.9706 24.3058 24.4741 27.7781 20.1384 27.7781ZM20.1384 10.4865C14.8238 10.4865 10.5586 14.792 10.5586 20.0003C10.5586 25.2781 14.8936 29.5142 20.1384 29.5142C25.4529 29.5142 29.7188 25.2086 29.7188 20.0003C29.7188 14.7226 25.4529 10.4865 20.1384 10.4865Z" fill="#6E9419"/>
<path d="M2.65799 36.527C2.16787 36.527 1.74825 36.1103 1.74825 35.6242C1.74825 35.1381 2.16787 34.7214 2.65799 34.7214C3.14741 34.7214 3.56634 35.1381 3.56634 35.6242C3.56634 36.1103 3.14741 36.527 2.65799 36.527ZM2.65799 33.0548C1.18902 33.0548 0 34.2353 0 35.6936C0 37.152 1.18902 38.3325 2.65799 38.3325C4.12627 38.3325 5.31527 37.152 5.31527 35.6936C5.31527 34.2353 4.12627 33.0548 2.65799 33.0548Z" fill="#6E9419"/>
<path d="M36.2937 1.80555C36.9932 1.80555 37.6223 2.3611 37.6223 3.12498C37.6223 3.88887 37.0624 4.44442 36.2937 4.44442C35.5243 4.44442 34.965 3.88887 34.965 3.12498C34.965 2.3611 35.5941 1.80555 36.2937 1.80555ZM36.2937 6.11108C37.9721 6.11108 39.3706 4.7222 39.3706 3.05554C39.3706 1.38888 37.9721 -3.15905e-06 36.2937 -3.15905e-06C34.6152 -3.15905e-06 33.2168 1.38888 33.2168 3.05554C33.2168 4.7222 34.6152 6.11108 36.2937 6.11108Z" fill="#6E9419"/>
<path d="M7.06528 0.902215C7.56715 0.902215 7.97363 1.30638 7.97363 1.80499C7.97363 2.3036 7.56715 2.70776 7.06528 2.70776C6.56272 2.70776 6.15625 2.3036 6.15625 1.80499C6.15625 1.30638 6.56272 0.902215 7.06528 0.902215Z" fill="#6E9419"/>
<path d="M37.6219 32.152C38.1245 32.152 38.5309 32.5561 38.5309 33.0547C38.5309 33.5534 38.1245 33.9575 37.6219 33.9575C37.1194 33.9575 36.7129 33.5534 36.7129 33.0547C36.7129 32.5561 37.1194 32.152 37.6219 32.152Z" fill="#6E9419"/>
<path d="M38.5321 6.9447C39.0339 6.9447 39.4411 7.34886 39.4411 7.84747C39.4411 8.34608 39.0339 8.75024 38.5321 8.75024C38.0302 8.75024 37.623 8.34608 37.623 7.84747C37.623 7.34886 38.0302 6.9447 38.5321 6.9447Z" fill="#6E9419"/>
<path d="M34.1258 37.3619C34.6277 37.3619 35.0349 37.7661 35.0349 38.2647C35.0349 38.7633 34.6277 39.1675 34.1258 39.1675C33.624 39.1675 33.2168 38.7633 33.2168 38.2647C33.2168 37.7661 33.624 37.3619 34.1258 37.3619Z" fill="#6E9419"/>
<path d="M7.90388 38.1945C8.40506 38.1945 8.81223 38.5986 8.81223 39.0972C8.81223 39.5958 8.40506 40 7.90388 40C7.40132 40 6.99414 39.5958 6.99414 39.0972C6.99414 38.5986 7.40132 38.1945 7.90388 38.1945Z" fill="#6E9419"/>
<path d="M1.82114 4.3739C2.32301 4.3739 2.72949 4.77806 2.72949 5.27667C2.72949 5.77528 2.32301 6.17944 1.82114 6.17944C1.31858 6.17944 0.912109 5.77528 0.912109 5.27667C0.912109 4.77806 1.31858 4.3739 1.82114 4.3739Z" fill="#6E9419"/>
</svg>
