<svg width="40" height="40" viewBox="0 0 40 40" fill="none" xmlns="http://www.w3.org/2000/svg">
<path d="M21.1243 16.0563L26.3508 11.4381C26.7139 11.0828 26.7139 10.5144 26.4233 10.1592C26.1333 9.80394 25.4796 9.80394 25.1165 10.0881L20.0349 14.6353V12.5038C20.9786 7.033 25.9152 3.9068 31.9404 5.0436C32.376 8.52504 27.9482 16.7668 21.1243 16.0563ZM25.4796 29.3427C25.4796 32.7531 22.6485 35.5951 19.0912 35.5951C15.5339 35.5951 12.7028 32.8241 12.7028 29.3427C12.7028 25.8612 15.5339 23.0903 19.0912 23.0903C22.6485 23.0903 25.4796 25.9323 25.4796 29.3427ZM6.242 5.0436C12.3397 3.83575 17.2763 6.96195 18.1475 12.5038V14.6353L13.066 10.0881C12.7029 9.73289 12.1223 9.80394 11.7592 10.1592C11.396 10.5144 11.4685 11.0828 11.8316 11.4381L17.0582 16.0563C10.1624 16.7668 5.37079 11.9354 6.242 5.0436ZM33.6097 4.11995C33.5379 3.7647 33.3197 3.4805 32.9566 3.40945C27.875 2.2016 22.7935 3.55155 19.9624 7.67245V2.98315C19.9624 2.4858 19.5268 2.0595 19.0187 2.0595C18.5107 2.0595 18.0751 2.4858 18.0751 2.98315V7.67245C17.6395 7.033 17.0582 6.39355 16.4776 5.82515C13.6465 3.26735 9.50867 2.3437 5.08015 3.40945C4.71775 3.4805 4.4271 3.7647 4.4271 4.11995C2.97461 12.788 9.36371 19.1115 18.0751 17.6194V21.314C15.897 21.5272 13.9372 22.664 12.6304 24.2271V21.5272C12.6304 21.0298 12.1948 20.6035 11.6867 20.6035C11.1786 20.6035 10.743 21.0298 10.743 21.5272V29.2006C10.743 33.6057 14.3728 37.2292 18.9463 37.2292C21.4867 37.2292 23.8097 36.0924 25.3339 34.2451V36.945C25.3339 37.4424 25.7702 37.8687 26.2783 37.8687C26.7864 37.8687 27.222 37.4424 27.222 36.945V29.3427C27.222 25.2218 24.0278 21.8114 19.9624 21.3851V20.4614C24.5359 20.8877 28.1657 24.7244 28.1657 29.2716C28.1657 29.769 28.6013 30.1953 29.1094 30.1953C29.6175 30.1953 30.0531 29.769 30.0531 29.2716C30.0531 23.7297 25.6245 19.1115 20.0349 18.6852V17.6194C28.6738 19.1825 35.0621 12.8591 33.6097 4.11995Z" fill="#6E9419"/>
<path d="M28.1683 7.81506C28.6893 7.81506 29.112 8.22857 29.112 8.7387C29.112 9.24884 28.6893 9.66235 28.1683 9.66235C27.6473 9.66235 27.2246 9.24884 27.2246 8.7387C27.2246 8.22857 27.6473 7.81506 28.1683 7.81506Z" fill="#6E9419"/>
<path d="M37.2425 10.6569C37.7635 10.6569 38.1855 11.0704 38.1855 11.5805C38.1855 12.0906 37.7635 12.5042 37.2425 12.5042C36.7208 12.5042 36.2988 12.0906 36.2988 11.5805C36.2988 11.0704 36.7208 10.6569 37.2425 10.6569Z" fill="#6E9419"/>
<path d="M14.5921 -0.000129461C15.1139 -0.000129461 15.5358 0.413381 15.5358 0.923519C15.5358 1.43366 15.1139 1.84717 14.5921 1.84717C14.0711 1.84717 13.6484 1.43366 13.6484 0.923519C13.6484 0.413381 14.0711 -0.000129461 14.5921 -0.000129461Z" fill="#6E9419"/>
<path d="M1.88899 11.5797C2.40999 11.5797 2.83267 11.9932 2.83267 12.5034C2.83267 13.0135 2.40999 13.427 1.88899 13.427C1.36799 13.427 0.945312 13.0135 0.945312 12.5034C0.945312 11.9932 1.36799 11.5797 1.88899 11.5797Z" fill="#6E9419"/>
<path d="M7.33237 20.4618C7.85337 20.4618 8.27605 20.8753 8.27605 21.3854C8.27605 21.8956 7.85337 22.3091 7.33237 22.3091C6.81137 22.3091 6.38867 21.8956 6.38867 21.3854C6.38867 20.8753 6.81137 20.4618 7.33237 20.4618Z" fill="#6E9419"/>
<path d="M3.70346 35.5233C4.22518 35.5233 4.64714 35.9368 4.64714 36.447C4.64714 36.9571 4.22518 37.3706 3.70346 37.3706C3.18246 37.3706 2.75977 36.9571 2.75977 36.447C2.75977 35.9368 3.18246 35.5233 3.70346 35.5233Z" fill="#6E9419"/>
<path d="M32.7406 35.5233C33.2616 35.5233 33.6843 35.9368 33.6843 36.447C33.6843 36.9571 33.2616 37.3706 32.7406 37.3706C32.2196 37.3706 31.7969 36.9571 31.7969 36.447C31.7969 35.9368 32.2196 35.5233 32.7406 35.5233Z" fill="#6E9419"/>
<path d="M33.6129 26.6437C34.1346 26.6437 34.5573 27.0572 34.5573 27.5673C34.5573 28.0775 34.1346 28.491 33.6129 28.491C33.0926 28.491 32.6699 28.0775 32.6699 27.5673C32.6699 27.0572 33.0926 26.6437 33.6129 26.6437Z" fill="#6E9419"/>
<path d="M18.9477 28.2046C18.657 28.1336 18.512 27.9915 18.3664 27.9204C18.2214 27.7783 18.1489 27.6362 18.1489 27.4941C18.1489 27.0678 18.4389 26.8547 18.9477 26.8547V28.2046ZM19.4557 30.3361C19.7457 30.4072 19.9638 30.5493 20.1088 30.6203C20.2545 30.7624 20.3269 30.9045 20.3269 31.0466C20.3269 31.4019 20.0363 31.615 19.4557 31.615V30.3361ZM18.802 24.0127V25.1495C17.7133 25.2916 16.8421 25.7179 16.4065 26.7126C16.1891 26.9968 16.1891 27.352 16.1891 27.7783C16.1891 28.3467 16.334 28.773 16.6972 29.1993C17.1328 29.6256 17.7858 29.8388 18.3664 30.0519L18.9477 30.194V31.6861C18.657 31.615 18.3664 31.615 18.1489 31.4729C17.7858 31.3308 17.2777 31.1177 16.9146 30.9045C16.7696 30.8335 16.6972 30.7624 16.6972 30.6914L15.8984 32.3255C16.7696 32.8939 17.8583 33.1781 18.8745 33.3202V34.6702H19.6732V33.3913C20.327 33.3913 21.0525 33.1781 21.6338 32.7518C21.9237 32.5387 22.0686 32.3255 22.2868 32.0413C22.4318 31.7571 22.505 31.4019 22.505 30.9756C22.505 29.9809 22.0686 29.3414 20.98 28.9151C20.2545 28.6309 19.6007 28.4888 19.5282 28.4888V26.8547C20.327 26.9968 21.2706 27.4941 21.3431 27.5652L22.1418 26.0021C21.8512 25.7889 21.4156 25.6468 20.98 25.5047C20.5444 25.3626 20.0363 25.2205 19.6007 25.1495V24.0127H18.802Z" fill="#6E9419"/>
<path d="M19.0944 38.2238C14.0854 38.2238 10.02 34.245 10.02 29.3425C10.02 28.8452 9.58436 28.4189 9.07628 28.4189C8.56819 28.4189 8.20508 28.8452 8.20508 29.3425C8.20508 35.2397 13.0692 40 19.0944 40C19.6025 40 20.0381 39.5737 20.0381 39.0764C20.0381 38.6501 19.6025 38.2238 19.0944 38.2238Z" fill="#6E9419"/>
<path d="M2.75858 24.9371C2.25049 24.9371 1.8149 24.5108 1.8149 24.0135C1.8149 23.5161 2.25049 23.0898 2.75858 23.0898C3.26666 23.0898 3.70227 23.5161 3.70227 24.0135C3.70227 24.5108 3.26666 24.9371 2.75858 24.9371ZM2.75858 21.3846C1.23432 21.3846 0 22.5925 0 24.0845C0 25.5766 1.23432 26.7844 2.75858 26.7844C4.28355 26.7844 5.51717 25.5766 5.51717 24.0845C5.51717 22.5925 4.28355 21.3846 2.75858 21.3846Z" fill="#6E9419"/>
<path d="M36.37 22.2369C35.3531 22.2369 34.5551 21.4554 34.5551 20.4607C34.5551 19.466 35.3531 18.6844 36.37 18.6844C37.3862 18.6844 38.1842 19.466 38.1842 20.4607C38.1842 21.4554 37.3137 22.2369 36.37 22.2369ZM36.37 16.9082C34.337 16.9082 32.7402 18.4713 32.7402 20.4607C32.7402 22.4501 34.337 24.0132 36.37 24.0132C38.4024 24.0132 39.9998 22.4501 39.9998 20.4607C39.9998 18.4713 38.3299 16.9082 36.37 16.9082Z" fill="#6E9419"/>
</svg>
