<svg width="81" height="34" viewBox="0 0 81 34" fill="none" xmlns="http://www.w3.org/2000/svg">
<path d="M14 1.73205C15.8564 0.660254 18.1436 0.660254 20 1.73205L28.7224 6.76795C30.5788 7.83975 31.7224 9.82051 31.7224 11.9641V22.0359C31.7224 24.1795 30.5788 26.1603 28.7224 27.2321L20 32.2679C18.1436 33.3397 15.8564 33.3397 14 32.2679L5.27757 27.2321C3.42116 26.1603 2.27757 24.1795 2.27757 22.0359V11.9641C2.27757 9.82051 3.42116 7.83975 5.27757 6.76795L14 1.73205Z" fill="#1C8608"/>
<path d="M13.0645 23.0293C12.3548 23.0293 12 22.9023 12 22.6484C12 22.5768 12.0228 22.4727 12.0684 22.3359L15.8965 11.1738C15.9876 10.9264 16.3164 10.8027 16.8828 10.8027H17.7812C18.3477 10.8027 18.6764 10.9264 18.7676 11.1738L22.5957 22.3359C22.6283 22.4661 22.6445 22.5703 22.6445 22.6484C22.6445 22.7786 22.5729 22.8763 22.4297 22.9414C22.293 23 22.0749 23.0293 21.7754 23.0293H21.0137C20.7402 23.0293 20.5189 23.0033 20.3496 22.9512C20.1868 22.8926 20.0859 22.7982 20.0469 22.668L19.3438 20.5488H15.252L14.5488 22.668C14.4772 22.9089 14.2103 23.0293 13.748 23.0293H13.0645ZM18.6016 18.2539L17.6152 15.168C17.5566 15.0117 17.5046 14.8327 17.459 14.6309C17.4199 14.429 17.3841 14.237 17.3516 14.0547H17.2832L17.2441 14.2695C17.179 14.6536 17.1042 14.9531 17.0195 15.168L15.9941 18.2539H18.6016Z" fill="white"/>
<path d="M41.2773 23.5352C40.4258 23.5352 40 23.3828 40 23.0781C40 22.9922 40.0273 22.8672 40.082 22.7031L44.6758 9.30859C44.7852 9.01172 45.1797 8.86328 45.8594 8.86328H46.9375C47.6172 8.86328 48.0117 9.01172 48.1211 9.30859L52.7148 22.7031C52.7539 22.8594 52.7734 22.9844 52.7734 23.0781C52.7734 23.2344 52.6875 23.3516 52.5156 23.4297C52.3516 23.5 52.0898 23.5352 51.7305 23.5352H50.8164C50.4883 23.5352 50.2227 23.5039 50.0195 23.4414C49.8242 23.3711 49.7031 23.2578 49.6562 23.1016L48.8125 20.5586H43.9023L43.0586 23.1016C42.9727 23.3906 42.6523 23.5352 42.0977 23.5352H41.2773ZM47.9219 17.8047L46.7383 14.1016C46.668 13.9141 46.6055 13.6992 46.5508 13.457C46.5039 13.2148 46.4609 12.9844 46.4219 12.7656H46.3398L46.293 13.0234C46.2148 13.4844 46.125 13.8438 46.0234 14.1016L44.793 17.8047H47.9219ZM54.1914 23.5352C53.3164 23.5352 52.8789 23.4102 52.8789 23.1602C52.8789 23.1055 52.9023 23.0352 52.9492 22.9492C52.9961 22.8555 53.0508 22.7539 53.1133 22.6445L56.2539 17.9805L53.2891 13.4805C53.1406 13.2305 53.0664 13.0508 53.0664 12.9414C53.0664 12.6914 53.5039 12.5664 54.3789 12.5664H55.0469C55.4141 12.5664 55.6914 12.5898 55.8789 12.6367C56.0664 12.6836 56.2109 12.793 56.3125 12.9648L57.5898 15.0156L57.8945 15.5195L58.2578 14.9805L59.5469 12.9648C59.6484 12.793 59.793 12.6836 59.9805 12.6367C60.168 12.5898 60.4453 12.5664 60.8125 12.5664H61.4219C62.2969 12.5664 62.7344 12.6914 62.7344 12.9414C62.7344 13.0352 62.6602 13.207 62.5117 13.457L59.4648 17.957L62.5469 22.6211C62.6953 22.8555 62.7695 23.0352 62.7695 23.1602C62.7695 23.4102 62.3359 23.5352 61.4688 23.5352H60.7891C60.4297 23.5352 60.1562 23.5117 59.9688 23.4648C59.7812 23.418 59.6328 23.3086 59.5234 23.1367L58.0938 20.8516C58.0625 20.7969 58.0156 20.7266 57.9531 20.6406C57.8984 20.5547 57.8516 20.4805 57.8125 20.418C57.7812 20.4648 57.7383 20.5352 57.6836 20.6289C57.6289 20.7148 57.5859 20.7891 57.5547 20.8516L56.0898 23.1367C55.9805 23.3086 55.832 23.418 55.6445 23.4648C55.457 23.5117 55.1797 23.5352 54.8125 23.5352H54.1914ZM69.1914 23.6758C67.3633 23.6758 66 23.1875 65.1016 22.2109C64.2031 21.2266 63.7539 19.8633 63.7539 18.1211C63.7539 16.1602 64.2031 14.7227 65.1016 13.8086C66 12.8945 67.2383 12.4375 68.8164 12.4375C69.8633 12.4375 70.7188 12.6758 71.3828 13.1523C72.0547 13.6289 72.543 14.2695 72.8477 15.0742C73.1602 15.8789 73.3164 16.7891 73.3164 17.8047C73.3164 17.9219 73.2461 18.0781 73.1055 18.2734C72.9727 18.4688 72.8203 18.6445 72.6484 18.8008C72.4766 18.957 72.3438 19.0352 72.25 19.0352H66.9414C67.0117 19.832 67.2461 20.3984 67.6445 20.7344C68.0508 21.0625 68.6133 21.2266 69.332 21.2266C69.7227 21.2266 70.0742 21.1836 70.3867 21.0977C70.707 21.0039 71.0469 20.8828 71.4062 20.7344C71.625 20.6328 71.7734 20.582 71.8516 20.582C71.9922 20.582 72.1445 20.6836 72.3086 20.8867C72.4805 21.082 72.625 21.3086 72.7422 21.5664C72.8672 21.8242 72.9297 22.0234 72.9297 22.1641C72.9297 22.4844 72.7109 22.7578 72.2734 22.9844C71.8438 23.2109 71.332 23.3828 70.7383 23.5C70.1523 23.6172 69.6367 23.6758 69.1914 23.6758ZM70.3164 16.9844C70.3164 16.3438 70.1914 15.832 69.9414 15.4492C69.6914 15.0586 69.3164 14.8633 68.8164 14.8633C67.7852 14.8633 67.1602 15.5703 66.9414 16.9844H70.3164ZM78.4844 23.6758C77.4922 23.6758 76.7344 23.3984 76.2109 22.8438C75.6953 22.2812 75.4375 21.4297 75.4375 20.2891V8.46484C75.4375 8.01172 75.8555 7.78516 76.6914 7.78516H77.2773C77.707 7.78516 78.0195 7.84375 78.2148 7.96094C78.418 8.07031 78.5195 8.23828 78.5195 8.46484V20.3242C78.5195 20.6445 78.5781 20.875 78.6953 21.0156C78.8125 21.1562 79.0078 21.2266 79.2812 21.2266C79.3516 21.2266 79.457 21.2109 79.5977 21.1797C79.6367 21.1719 79.6758 21.1641 79.7148 21.1562C79.7539 21.1484 79.7969 21.1445 79.8438 21.1445C79.9609 21.1445 80.0664 21.25 80.1602 21.4609C80.2617 21.6641 80.3398 21.8945 80.3945 22.1523C80.4492 22.4023 80.4766 22.5664 80.4766 22.6445C80.4766 23.332 79.8125 23.6758 78.4844 23.6758Z" fill="white"/>
</svg>
