<svg xmlns="http://www.w3.org/2000/svg" width="183" height="48" viewBox="0 0 183 48" fill="none"><path d="M27.9361 4.12169L23.7153 2.99072L20.1584 16.2654L16.9472 4.28093L12.7263 5.4119L16.1959 18.3602L7.55399 9.71841L4.46413 12.8083L13.9432 22.2874L2.13854 19.1243L1.00757 23.3451L13.9056 26.8011C13.7579 26.1642 13.6798 25.5006 13.6798 24.8187C13.6798 19.992 17.5926 16.0792 22.4193 16.0792C27.246 16.0792 31.1587 19.992 31.1587 24.8187C31.1587 25.4962 31.0816 26.1557 30.9357 26.7889L42.6577 29.9297L43.7886 25.709L30.8393 22.2392L42.6447 19.0759L41.5137 14.8551L28.5649 18.3247L37.2067 9.68293L34.1168 6.59307L24.7693 15.9406L27.9361 4.12169Z" fill="#121212"></path><path d="M30.9234 26.838C30.5615 28.368 29.7975 29.7424 28.7493 30.8435L37.2413 39.3357L40.3311 36.2458L30.9234 26.838Z" fill="#121212"></path><path d="M28.6635 30.9323C27.6026 32.0159 26.2619 32.8245 24.7584 33.2413L27.8485 44.7735L32.0692 43.6425L28.6635 30.9323Z" fill="#121212"></path><path d="M24.6007 33.2835C23.9032 33.4628 23.172 33.5581 22.4185 33.5581C21.6113 33.5581 20.8296 33.4486 20.0875 33.2437L16.9946 44.7866L21.2154 45.9175L24.6007 33.2835Z" fill="#121212"></path><path d="M19.9383 33.2012C18.4577 32.7638 17.1408 31.9448 16.1016 30.8581L7.58867 39.3711L10.6785 42.4609L19.9383 33.2012Z" fill="#121212"></path><path d="M16.0314 30.7829C15.01 29.6893 14.2659 28.3333 13.9118 26.827L2.15161 29.9781L3.28257 34.1989L16.0314 30.7829Z" fill="#121212"></path><path d="M69.1869 12.9092V28.1192L59.4369 12.9092H55.5369V33.9092H59.4369V18.8192L69.1869 33.9092H73.0869V12.9092H69.1869Z" fill="#121212"></path><path d="M74.8442 16.8392H78.8642V12.9092H74.8442V16.8392ZM74.9042 33.9092V18.9092H78.8042V33.9092H74.9042Z" fill="#121212"></path><path d="M95.5843 26.4092C95.5843 21.2192 91.8943 18.7592 87.9943 18.7292C84.0643 18.6992 80.4343 21.2192 80.4343 26.4092C80.4343 31.5992 84.0643 34.1192 87.9943 34.0892C91.5643 34.0592 94.0243 32.4092 95.1643 29.6792L92.1343 28.4192C91.2043 30.2792 89.7343 30.9392 87.9943 30.9692C86.4943 30.9992 84.7843 30.2792 84.4243 27.6092H95.4943C95.5543 27.2192 95.5843 26.8292 95.5843 26.4092ZM87.9943 21.8192C89.4943 21.8492 91.0243 22.6592 91.5043 24.8192H84.4843C84.9943 22.6292 86.5243 21.7892 87.9943 21.8192Z" fill="#121212"></path><path d="M104.597 21.6992V18.7292H102.137V14.7092L98.2374 15.9092V18.7292H95.7774V21.6992H98.2374V29.4692C98.2374 32.4092 98.4774 33.9092 103.037 33.9092H104.087V30.4892H103.037C102.317 30.4892 102.137 30.3692 102.137 29.4692V21.6992H104.597Z" fill="#121212"></path><path d="M110.393 30.6392L118.673 22.1792V18.9092H106.253V22.1792H114.293L106.013 30.6392V33.9092H118.763V30.6392H110.393Z" fill="#121212"></path><path d="M120.161 29.6792L124.091 29.0792C124.361 30.5792 126.131 31.1492 127.211 31.1492C128.321 31.1492 130.241 30.9092 130.241 29.1092C130.241 25.5992 120.611 29.9792 120.611 23.2592C120.611 18.9392 125.621 18.6992 127.211 18.6992C128.711 18.6992 133.061 18.9392 133.961 22.4192L130.241 23.1992C129.911 21.6092 128.231 21.3092 127.331 21.3092C126.431 21.3092 124.511 21.5192 124.511 23.2592C124.511 26.7392 134.141 22.2992 134.141 29.1092C134.141 33.6992 128.861 34.0892 127.211 34.0892C125.711 34.0892 120.941 33.6992 120.161 29.6792Z" fill="#121212"></path><path d="M139.207 26.4092C139.207 30.0692 141.157 31.1792 143.197 31.1492C145.027 31.1192 146.287 30.3692 147.037 28.2692L150.247 29.8292C149.077 32.8892 146.227 34.0592 143.197 34.0892C139.267 34.1192 135.307 31.5992 135.307 26.4092C135.307 21.2192 139.267 18.6992 143.197 18.7292C146.227 18.7592 149.077 19.9292 150.247 22.9892L147.037 24.5492C146.287 22.4492 145.027 21.6992 143.197 21.6692C141.157 21.6392 139.207 22.7492 139.207 26.4092Z" fill="#121212"></path><path d="M160.717 18.6692C158.707 18.6692 156.877 19.7192 155.707 21.9692V12.9092H151.807V33.9092H155.707V28.5992C155.707 21.7292 158.557 21.1592 159.607 21.1592C161.287 21.1592 161.527 22.8992 161.527 25.4492V33.9092H165.427V25.4492C165.427 22.2692 164.917 18.6692 160.717 18.6692Z" fill="#121212"></path><path d="M181.893 26.4092C181.893 21.2192 178.203 18.7592 174.303 18.7292C170.373 18.6992 166.743 21.2192 166.743 26.4092C166.743 31.5992 170.373 34.1192 174.303 34.0892C177.873 34.0592 180.333 32.4092 181.473 29.6792L178.443 28.4192C177.513 30.2792 176.043 30.9392 174.303 30.9692C172.803 30.9992 171.093 30.2792 170.733 27.6092H181.803C181.863 27.2192 181.893 26.8292 181.893 26.4092ZM174.303 21.8192C175.803 21.8492 177.333 22.6592 177.813 24.8192H170.793C171.303 22.6292 172.833 21.7892 174.303 21.8192Z" fill="#121212"></path></svg>