<svg xmlns="http://www.w3.org/2000/svg" width="100" height="32" viewBox="0 0 100 32" fill="none"><path fill-rule="evenodd" clip-rule="evenodd" d="M8.33598 3.3335H18.3334V7.17436H14.7993C15.3682 8.21843 15.6915 9.41563 15.6915 10.6883C15.6915 14.7503 12.3986 18.0432 8.33665 18.0432C4.27468 18.0432 0.981812 14.7503 0.981812 10.6883C0.981812 6.62659 4.27432 3.33386 8.33598 3.3335ZM8.33665 14.2023C10.2774 14.2023 11.8506 12.6291 11.8506 10.6883C11.8506 8.74762 10.2774 7.17436 8.33665 7.17436H8.33598C6.39557 7.17472 4.82267 8.74784 4.82267 10.6883C4.82267 12.6291 6.39593 14.2023 8.33665 14.2023Z" fill="white"></path><path opacity="0.7" d="M8.33628 28.6663C6.96601 28.6663 5.72421 28.4099 4.61087 27.8972C3.49753 27.4058 2.609 26.7114 1.94528 25.8141C1.30297 24.9168 0.981812 23.8913 0.981812 22.7376C0.981812 21.8403 1.11027 21.1032 1.3672 20.5263C1.62412 19.9495 2.00951 19.394 2.52336 18.8599L5.7028 20.9109C5.4887 21.1032 5.32812 21.3275 5.22107 21.5839C5.11401 21.8403 5.06049 22.1607 5.06049 22.5453C5.06049 23.2503 5.34953 23.8058 5.92761 24.2117C6.52091 24.6346 7.32393 24.8483 8.33665 24.8526C9.34937 24.8483 10.1524 24.6346 10.7457 24.2117C11.3238 23.8058 11.6128 23.2503 11.6128 22.5453C11.6128 22.1607 11.5593 21.8403 11.4522 21.5839C11.3452 21.3275 11.1846 21.1032 10.9705 20.9109L14.1499 18.8599C14.6638 19.394 15.0492 19.9495 15.3061 20.5263C15.563 21.1032 15.6915 21.8403 15.6915 22.7376C15.6915 23.8913 15.3703 24.9168 14.728 25.8141C14.0643 26.7114 13.1758 27.4058 12.0624 27.8972C10.9491 28.4099 9.70654 28.6663 8.33628 28.6663Z" fill="white"></path><path fill-rule="evenodd" clip-rule="evenodd" d="M59.3587 21.5704C60.0307 21.9811 60.796 22.1864 61.6547 22.1864C62.2769 22.1864 62.8432 22.062 63.3534 21.8131C63.6219 21.6756 63.8646 21.5156 64.0814 21.3333V21.9998H66.8814V8.44775H64.0254V13.5167C63.8181 13.3534 63.5879 13.2131 63.3347 13.0958C62.8369 12.8593 62.2769 12.7411 61.6547 12.7411C60.796 12.7411 60.0307 12.9464 59.3587 13.3571C58.6992 13.7678 58.1765 14.3278 57.7907 15.0371C57.4174 15.7464 57.2307 16.5553 57.2307 17.4638C57.2307 18.3722 57.4174 19.1811 57.7907 19.8904C58.1765 20.5998 58.6992 21.1598 59.3587 21.5704ZM63.2227 19.3491C62.924 19.5233 62.5694 19.6104 62.1587 19.6104C61.7729 19.6104 61.4245 19.5171 61.1134 19.3304C60.8023 19.1438 60.5596 18.8886 60.3854 18.5651C60.2112 18.2415 60.124 17.8744 60.124 17.4638C60.124 17.0531 60.2112 16.686 60.3854 16.3624C60.572 16.0389 60.8147 15.7838 61.1134 15.5971C61.4245 15.4104 61.7792 15.3171 62.1774 15.3171C62.5756 15.3171 62.924 15.4104 63.2227 15.5971C63.5338 15.7838 63.7703 16.0389 63.932 16.3624C64.1063 16.6735 64.1934 17.0406 64.1934 17.4638C64.1934 17.8869 64.1063 18.2602 63.932 18.5838C63.7578 18.9073 63.5214 19.1624 63.2227 19.3491Z" fill="white"></path><path d="M26.5147 21.6824C27.3609 22.0309 28.2632 22.2051 29.2214 22.2051C30.528 22.2051 31.6792 21.9313 32.6747 21.3838C33.6827 20.8362 34.4667 20.0273 35.0267 18.9571C35.5992 17.8744 35.8854 16.5429 35.8854 14.9624V14.5331H28.96V17.0158L32.7462 17.0759C32.6736 17.3501 32.5751 17.6039 32.4507 17.8371C32.1645 18.3846 31.7476 18.8078 31.2 19.1064C30.6649 19.3926 30.0116 19.5358 29.24 19.5358C28.4809 19.5358 27.8089 19.3615 27.224 19.0131C26.6392 18.6646 26.1787 18.1793 25.8427 17.5571C25.5067 16.9349 25.3387 16.2131 25.3387 15.3918C25.3387 14.5704 25.5067 13.8549 25.8427 13.2451C26.1912 12.6229 26.6703 12.1438 27.28 11.8078C27.8898 11.4593 28.5805 11.2851 29.352 11.2851C30.0738 11.2851 30.7209 11.422 31.2934 11.6958C31.8658 11.9695 32.3636 12.3802 32.7867 12.9278L34.784 10.9304C34.1743 10.2086 33.4027 9.64242 32.4694 9.23175C31.5485 8.82109 30.5218 8.61575 29.3894 8.61575C28.4063 8.61575 27.4854 8.78998 26.6267 9.13842C25.768 9.47442 25.0152 9.95353 24.368 10.5758C23.7334 11.1855 23.2356 11.9011 22.8747 12.7224C22.5138 13.5438 22.3334 14.4335 22.3334 15.3918C22.3334 16.35 22.5076 17.246 22.856 18.0798C23.2169 18.9011 23.7085 19.6229 24.3307 20.2451C24.9529 20.8549 25.6809 21.334 26.5147 21.6824Z" fill="white"></path><path fill-rule="evenodd" clip-rule="evenodd" d="M38.8563 21.5891C39.6154 21.9998 40.4616 22.2051 41.395 22.2051C42.3407 22.2051 43.187 21.9998 43.9336 21.5891C44.6803 21.166 45.2714 20.5935 45.707 19.8718C46.1425 19.15 46.3603 18.3411 46.3603 17.4451C46.3603 16.5491 46.1425 15.7464 45.707 15.0371C45.2714 14.3153 44.6803 13.7491 43.9336 13.3384C43.187 12.9278 42.3407 12.7224 41.395 12.7224C40.4492 12.7224 39.603 12.934 38.8563 13.3571C38.1096 13.7678 37.5185 14.3278 37.083 15.0371C36.6474 15.7464 36.4296 16.5491 36.4296 17.4451C36.4296 18.3411 36.6474 19.15 37.083 19.8718C37.5185 20.5935 38.1096 21.166 38.8563 21.5891ZM42.4776 19.3491C42.1665 19.5233 41.8056 19.6104 41.395 19.6104C40.9967 19.6104 40.6421 19.5233 40.331 19.3491C40.0198 19.1624 39.7772 18.9073 39.603 18.5838C39.4287 18.2478 39.3416 17.8744 39.3416 17.4638C39.3416 17.0406 39.4287 16.6673 39.603 16.3438C39.7772 16.0202 40.0198 15.7713 40.331 15.5971C40.6421 15.4104 40.9967 15.3171 41.395 15.3171C41.8056 15.3171 42.1603 15.4104 42.459 15.5971C42.7701 15.7713 43.0127 16.0202 43.187 16.3438C43.3612 16.6549 43.4483 17.022 43.4483 17.4451C43.4483 17.8682 43.3612 18.2478 43.187 18.5838C43.0252 18.9073 42.7887 19.1624 42.4776 19.3491Z" fill="white"></path><path fill-rule="evenodd" clip-rule="evenodd" d="M51.7768 22.2051C50.8435 22.2051 49.9973 21.9998 49.2382 21.5891C48.4915 21.166 47.9004 20.5935 47.4648 19.8718C47.0293 19.15 46.8115 18.3411 46.8115 17.4451C46.8115 16.5491 47.0293 15.7464 47.4648 15.0371C47.9004 14.3278 48.4915 13.7678 49.2382 13.3571C49.9848 12.934 50.8311 12.7224 51.7768 12.7224C52.7226 12.7224 53.5688 12.9278 54.3155 13.3384C55.0622 13.7491 55.6533 14.3153 56.0888 15.0371C56.5244 15.7464 56.7422 16.5491 56.7422 17.4451C56.7422 18.3411 56.5244 19.15 56.0888 19.8718C55.6533 20.5935 55.0622 21.166 54.3155 21.5891C53.5688 21.9998 52.7226 22.2051 51.7768 22.2051ZM51.7768 19.6104C52.1875 19.6104 52.5484 19.5233 52.8595 19.3491C53.1706 19.1624 53.4071 18.9073 53.5688 18.5838C53.7431 18.2478 53.8302 17.8682 53.8302 17.4451C53.8302 17.022 53.7431 16.6549 53.5688 16.3438C53.3946 16.0202 53.1519 15.7713 52.8408 15.5971C52.5422 15.4104 52.1875 15.3171 51.7768 15.3171C51.3786 15.3171 51.0239 15.4104 50.7128 15.5971C50.4017 15.7713 50.1591 16.0202 49.9848 16.3438C49.8106 16.6673 49.7235 17.0406 49.7235 17.4638C49.7235 17.8744 49.8106 18.2478 49.9848 18.5838C50.1591 18.9073 50.4017 19.1624 50.7128 19.3491C51.0239 19.5233 51.3786 19.6104 51.7768 19.6104Z" fill="white"></path><path d="M74.8438 16.7731L73.0549 21.9998H70.7403L67.6043 12.9278H70.4043L71.9579 18.201L73.6709 12.9278H75.9856L77.7077 18.1832L79.2709 12.9278H82.0709L78.9349 21.9998H76.6016L74.8438 16.7731Z" fill="white"></path><path fill-rule="evenodd" clip-rule="evenodd" d="M84.5236 21.5891C85.2951 21.9998 86.1849 22.2051 87.1929 22.2051C87.9769 22.2051 88.6862 22.0744 89.3209 21.8131C89.968 21.5393 90.5342 21.1349 91.0196 20.5998L89.4516 19.0318C89.1653 19.3553 88.8418 19.598 88.4809 19.7598C88.1324 19.9091 87.7342 19.9838 87.2862 19.9838C86.991 19.9838 86.7145 19.9463 86.4568 19.8713L91.1316 15.3544C90.7707 14.5082 90.2418 13.8611 89.5449 13.4131C88.848 12.9526 88.0018 12.7224 87.0062 12.7224C86.0605 12.7224 85.208 12.934 84.4489 13.3571C83.7022 13.7678 83.1111 14.3278 82.6756 15.0371C82.2524 15.7464 82.0409 16.5491 82.0409 17.4451C82.0409 18.3411 82.2587 19.15 82.6942 19.8718C83.1422 20.5935 83.752 21.166 84.5236 21.5891ZM88.2218 15.2988L84.899 18.4976C84.7607 18.1563 84.6916 17.7744 84.6916 17.3518C84.6916 16.8789 84.7849 16.4682 84.9716 16.1198C85.1582 15.7589 85.4258 15.4851 85.7742 15.2984C86.1227 15.0993 86.5396 14.9998 87.0249 14.9998C87.518 14.9998 87.9169 15.0994 88.2218 15.2988Z" fill="white"></path><path d="M92.0535 21.9998V8.44775H94.9095V21.9998H92.0535Z" fill="white"></path><path d="M96.5474 8.44775V21.9998H99.4034V8.44775H96.5474Z" fill="white"></path></svg>