<svg xmlns="http://www.w3.org/2000/svg" width="151" height="32" viewBox="0 0 151 32" fill="none"><path d="M13.9998 2.6665V10.9068C13.9998 12.7245 11.7711 13.5997 10.5343 12.2677L5.33317 6.6665M27.3332 15.9998H19.0929C17.2752 15.9998 16.4 13.7711 17.732 12.5343L23.3332 7.33317M13.9998 29.3332V21.0929C13.9998 19.2752 16.2285 18.4 17.4654 19.732L22.6665 25.3332M0.666504 15.9998L8.90677 15.9998C10.7245 15.9998 11.5997 18.2285 10.2677 19.4654L4.6665 24.6665" stroke="white" stroke-width="2.66667"></path><path d="M38.4085 22.3059C34.9885 22.3059 32.7385 20.7939 32.6665 17.9499H35.8705C36.0145 19.2459 36.8605 19.7859 38.3905 19.7859C39.4345 19.7859 40.4605 19.4079 40.4605 18.4359C40.4605 17.4099 39.4165 17.1939 37.6525 16.7619C35.4205 16.2399 33.0625 15.5559 33.0625 12.8559C33.0625 10.1019 35.2945 8.89592 38.1745 8.89592C40.9645 8.89592 43.1245 10.1559 43.2505 12.8559H40.1365C40.0105 11.8659 39.2545 11.3079 38.0665 11.3079C36.9505 11.3079 36.2125 11.7939 36.2125 12.5139C36.2125 13.4139 37.2025 13.6299 39.1285 14.0619C41.5225 14.6199 43.6825 15.3579 43.6825 18.1119C43.6825 20.8119 41.3785 22.3059 38.4085 22.3059Z" fill="white"></path><path d="M49.3934 20.1999C50.6714 20.1999 51.3554 19.0839 51.3554 17.4099C51.3554 15.7359 50.6714 14.6019 49.3934 14.6019C48.1154 14.6019 47.4494 15.7359 47.4494 17.4099C47.4494 19.0839 48.1154 20.1999 49.3934 20.1999ZM49.4114 22.2879C46.4594 22.2879 44.4794 20.1819 44.4794 17.4099C44.4794 14.6379 46.4594 12.5319 49.4114 12.5319C52.3814 12.5319 54.3254 14.6379 54.3254 17.4099C54.3254 20.1819 52.3814 22.2879 49.4114 22.2879Z" fill="white"></path><path d="M55.3353 21.9999V9.12992H58.3053V21.9999H55.3353Z" fill="white"></path><path d="M62.4294 22.2339C60.5934 22.2339 59.2974 21.2619 59.2974 19.4439C59.2974 17.4099 60.9174 16.7799 62.8254 16.5279C64.5534 16.3119 65.1654 16.1319 65.1654 15.5019C65.1654 14.9079 64.7694 14.5119 63.8694 14.5119C62.9154 14.5119 62.4654 14.9259 62.3934 15.6999H59.6934C59.7474 13.9899 61.0434 12.5319 63.8514 12.5319C65.2554 12.5319 66.3354 12.8379 67.0194 13.3959C67.7214 13.9899 68.0454 14.7639 68.0454 15.9159V19.5339C68.0454 20.1279 68.2074 20.2719 68.6574 20.1999H68.7114V21.9099C68.4774 22.0179 68.0274 22.1619 67.4334 22.1619C66.1734 22.1619 65.5254 21.7839 65.3094 20.9199H65.2914C64.7514 21.6759 63.9234 22.2339 62.4294 22.2339ZM63.3834 20.3619C64.4814 20.3619 65.2374 19.6959 65.2374 18.7059V17.6079C64.8594 17.8239 64.3194 17.9679 63.7254 18.0939C62.5914 18.3459 62.1234 18.6339 62.1234 19.3359C62.1234 20.0559 62.6634 20.3619 63.3834 20.3619Z" fill="white"></path><path d="M69.4676 21.9999V12.7839H72.4398L72.2756 14.2239H72.3296C72.9776 13.1259 73.7336 12.6399 74.8496 12.6399C75.1196 12.6399 75.2996 12.6579 75.4256 12.7119V15.2319H75.3536C73.5536 14.9799 72.4016 15.8619 72.4016 17.8599V21.9999H69.4676Z" fill="white"></path><path d="M76.3583 21.9999V12.7839H79.2923V21.9999H76.3583Z" fill="white"></path><path d="M84.6241 22.2879C81.9241 22.2879 80.2321 21.0459 80.1421 19.0119H82.9141C83.0221 19.9299 83.6341 20.3799 84.6061 20.3799C85.4881 20.3799 86.0461 20.0559 86.0461 19.4619C86.0461 18.6339 84.9301 18.5439 83.7061 18.3279C82.1041 18.0579 80.3941 17.6259 80.3941 15.4659C80.3941 13.5219 82.1941 12.5139 84.3721 12.5139C86.9821 12.5139 88.3861 13.6479 88.5301 15.4659H85.8301C85.7221 14.6379 85.1641 14.3859 84.3541 14.3859C83.6341 14.3859 83.0761 14.6559 83.0761 15.2319C83.0761 15.8799 84.1201 15.9699 85.2901 16.1859C86.9101 16.4559 88.8181 16.8699 88.8181 19.2279C88.8181 21.2439 87.0361 22.2879 84.6241 22.2879Z" fill="white"></path><path d="M92.7453 21.9999V9.12992H102.501V11.7579H95.9313V14.0619H101.565V16.5459H95.9313V19.2999H102.609V21.9999H92.7453Z" fill="white"></path><path d="M103.868 21.9999V12.7839H106.86L106.694 14.0439H106.748C107.432 13.0539 108.314 12.5139 109.592 12.5139C111.608 12.5139 112.796 13.9539 112.796 16.0059V21.9999H109.862V16.5999C109.862 15.6279 109.376 14.9619 108.422 14.9619C107.45 14.9619 106.802 15.7719 106.802 16.9059V21.9999H103.868Z" fill="white"></path><path d="M118.634 22.2699C115.592 22.2699 113.72 20.1639 113.72 17.3739C113.72 14.6199 115.646 12.5139 118.454 12.5139C119.768 12.5139 120.812 12.9459 121.604 13.6659C122.702 14.6739 123.242 16.2759 123.224 18.1479H116.6C116.78 19.3899 117.464 20.1639 118.67 20.1639C119.444 20.1639 119.948 19.8219 120.2 19.2459H123.062C122.864 20.0739 122.324 20.8659 121.514 21.4239C120.74 21.9639 119.804 22.2699 118.634 22.2699ZM116.618 16.4019H120.254C120.146 15.3039 119.462 14.6019 118.508 14.6019C117.392 14.6019 116.816 15.3039 116.618 16.4019Z" fill="white"></path><path d="M124.206 21.9999V12.7839H127.18L127.014 14.2239H127.068C127.716 13.1259 128.472 12.6399 129.588 12.6399C129.858 12.6399 130.038 12.6579 130.164 12.7119V15.2319H130.092C128.292 14.9799 127.14 15.8619 127.14 17.8599V21.9999H124.206Z" fill="white"></path><path d="M135.205 25.1859C132.667 25.1859 130.993 24.1419 130.705 22.2159H133.549C133.711 22.7019 134.197 23.1159 135.169 23.1159C136.411 23.1159 136.933 22.4679 136.933 21.3519V20.4339H136.861C136.321 21.0459 135.619 21.4959 134.503 21.4959C132.433 21.4959 130.507 19.9479 130.507 17.1219C130.507 14.4219 132.091 12.5139 134.377 12.5139C135.601 12.5139 136.429 12.9999 136.969 13.7739H137.005L136.84 12.7839H139.813V21.0999C139.813 22.4859 139.327 23.4939 138.589 24.1599C137.779 24.8799 136.573 25.1859 135.205 25.1859ZM135.187 19.3179C136.465 19.3179 137.059 18.3099 137.059 17.0139C137.059 15.7719 136.411 14.7279 135.187 14.7279C134.089 14.7279 133.369 15.6279 133.369 17.0319C133.369 18.4179 134.089 19.3179 135.187 19.3179Z" fill="white"></path><path d="M141.528 25.0419V22.7559H142.536C143.4 22.7559 143.742 22.4139 143.742 21.7839C143.742 21.3879 143.562 20.8479 143.184 19.8759L140.466 12.7839H143.562L144.804 16.7079C145.092 17.6079 145.38 18.8319 145.38 18.8319H145.416C145.416 18.8319 145.668 17.6079 145.956 16.7079L147.162 12.7839H150.096L146.91 22.1259C146.172 24.2859 145.29 25.0419 143.436 25.0419H141.528Z" fill="white"></path><path d="M77.8249 11.5059C76.9048 11.5059 76.1582 10.76 76.1582 9.83986C76.1582 8.91973 76.9048 8.17383 77.8249 8.17383C78.745 8.17383 79.4916 8.91973 79.4916 9.83986C79.4916 10.76 78.745 11.5059 77.8249 11.5059Z" fill="white"></path></svg>