<svg xmlns="http://www.w3.org/2000/svg" width="180" height="48" viewBox="0 0 180 48" fill="none"><path d="M26.1334 35.7873C22.6334 34.4873 19.0334 34.2873 15.7334 35.1873C13.4334 35.7873 11.2334 36.9873 9.23337 38.4873L7.83334 39.6873L7.43335 40.0873L8.33334 40.8873C8.43334 40.8873 8.43336 40.9873 8.53336 41.0873C8.73336 41.2873 8.93337 41.3873 9.23337 41.5873L9.83334 41.9873L10.4333 41.4873C10.5333 41.3873 10.7333 41.1873 10.9333 41.0873C12.7333 39.5873 14.7333 38.5873 16.8333 38.0873C19.5333 37.3873 22.4333 37.4873 25.3333 38.5873C27.7333 39.4873 32.6334 40.5873 38.5334 38.0873L38.7334 37.9873L39.0334 37.6873C39.0334 37.5873 39.1334 37.5873 39.2334 37.4873C39.7334 36.8873 40.2334 36.2873 40.6334 35.5873L42.6334 32.4873L39.4333 34.2873C34.7333 36.8873 30.4334 37.3873 26.1334 35.7873Z" fill="#121212"></path><path d="M12.4333 24.9876C15.1333 24.2876 18.0333 24.3876 20.9333 25.4876C24.1333 26.6876 32.3333 28.3876 41.5333 20.0876L43.0333 18.5876L43.1333 18.4876L43.5333 18.0876L43.3332 17.5876C43.2332 17.1876 43.0332 16.6876 42.8332 16.1876L42.3332 14.7876L41.3332 15.7876C41.2332 15.9876 41.0332 16.0876 40.8332 16.2876C36.4333 20.7876 29.6333 25.3876 21.8333 22.5876C18.3333 21.2876 14.7333 21.0876 11.4333 21.9876C8.23326 22.8876 5.43325 24.5876 2.83325 26.9876V26.8876L1.33325 28.4876C1.33325 28.5876 1.23327 28.5876 1.13327 28.6876L0.833252 28.9876L0.933258 29.3876C1.03326 29.8876 1.23325 30.3876 1.33325 30.8876L1.93326 32.4876L2.93326 31.1876C3.03326 30.9876 3.23325 30.8876 3.33325 30.6876C5.43325 28.7876 8.33326 26.0876 12.4333 24.9876Z" fill="#121212"></path><path d="M2.73328 23.1874C5.03328 20.7874 7.63326 19.2874 10.4333 18.4874C13.1333 17.7874 16.0333 17.8874 18.9333 18.9874C27.9333 22.2874 35.7333 16.8874 39.1333 13.9874L40.4333 12.6874L40.9333 12.2874L40.5333 11.6874C40.2333 11.3874 40.0333 10.9874 39.7333 10.5874L39.1333 9.78741L38.4333 10.4874C38.3333 10.5874 38.1333 10.7874 38.0333 10.8874C33.8333 14.8874 27.3333 18.9874 19.9333 16.1874C16.4333 14.8874 12.8333 14.6874 9.53326 15.5874C7.43326 16.1874 5.43326 17.1874 3.43326 18.4874L1.33325 20.1874C1.13325 20.3874 1.03325 20.4874 0.833252 20.6874L0.63327 20.8874V21.1874C0.53327 21.8874 0.533258 22.5874 0.433258 23.1874L0.333252 25.6874L2.03326 23.8874C2.23326 23.6874 2.43328 23.3874 2.73328 23.1874Z" fill="#121212"></path><path d="M29.0331 42.5874L28.8331 43.1874L29.0331 42.5874C28.7331 42.4874 28.5332 42.3874 28.2332 42.2874C24.7332 40.9874 21.1331 40.7874 17.8331 41.6874C17.1331 41.8874 16.4332 42.0874 15.7332 42.3874L13.3331 43.4874L12.7332 43.7874L14.7332 44.4874C15.3332 44.6874 15.9331 44.8874 16.5331 45.0874L16.8331 45.1874L17.1331 45.0874C17.4331 44.9874 17.7331 44.7874 18.0331 44.7874C18.2331 44.7874 18.4331 44.6874 18.6331 44.5874C21.0331 43.9874 23.6331 43.9874 26.4331 44.8874C26.7331 44.9874 26.9332 45.0874 27.2332 45.1874L27.7332 45.3874L28.0331 45.2874C28.7331 45.0874 29.5331 44.8874 30.1331 44.5874L32.9331 43.5874L30.0331 42.8874C29.7331 42.7874 29.3331 42.6874 29.0331 42.5874Z" fill="#121212"></path><path d="M44.3333 21.8875L42.8333 23.3875C42.6333 23.5875 42.4333 23.7875 42.2333 23.9875C38.1333 27.8875 31.5333 32.0875 24.1333 29.2875C20.6333 27.9875 17.0333 27.7875 13.7333 28.6875C10.6333 29.5875 7.83328 31.1875 5.33328 33.5875L4.03329 34.9875L3.6333 35.4875L4.03329 36.0875C4.33329 36.4875 4.53331 36.7875 4.73331 37.1875L5.33328 38.0875L6.03329 37.1875C6.13329 37.0875 6.33329 36.8875 6.43329 36.7875C8.83329 34.1875 11.4333 32.5875 14.4333 31.7875C17.1333 31.0875 20.0333 31.1875 22.9333 32.2875C25.4333 33.1875 28.0333 33.4875 30.6333 33.1875C35.2333 32.6875 39.8333 30.0875 43.2333 27.1875C43.4333 26.9875 43.6333 26.8875 43.8333 26.6875L44.1333 26.3875V26.0875C44.1333 25.4875 44.2333 24.7875 44.2333 24.1875L44.3333 21.8875Z" fill="#121212"></path><path d="M6.33344 12.6877L6.03345 12.0876L6.33344 12.6877C6.93343 12.3877 7.63346 12.1876 8.23346 11.9876C10.9335 11.2876 13.8335 11.3876 16.7335 12.4876C18.6335 13.1876 20.5335 13.4876 22.6335 13.4876C26.8335 13.4876 31.0334 11.9876 34.9334 9.08765L36.4334 7.88763L36.9334 7.48764L36.0334 6.78763C35.7334 6.48763 35.3334 6.18764 34.9334 5.98764L34.3334 5.58765L33.8334 5.98764C33.6334 6.08764 33.5334 6.28763 33.3334 6.38763C28.0334 10.3876 22.7335 11.4876 17.7335 9.58765C14.1335 8.28765 10.5334 7.98765 6.93344 9.08765C6.63344 9.18765 6.33344 9.28763 5.93344 9.38763L5.73346 9.48764L5.43344 9.78763C5.43344 9.88763 5.33346 9.88764 5.23346 9.98764C4.83346 10.5876 4.33344 11.0877 3.93344 11.6877L2.03345 14.5876L5.13345 12.9876C5.63345 12.9876 6.03344 12.7877 6.33344 12.6877Z" fill="#121212"></path><path d="M14.5333 5.88748L14.8333 5.98749C16.1333 6.48749 18.1333 6.98749 20.6333 6.98749C23.2333 6.98749 25.7333 6.38748 28.2333 5.38748L31.3333 3.88748L29.2333 3.1875C28.6333 2.9875 28.0333 2.7875 27.3333 2.6875H27.0333L26.7333 2.78748C26.4333 2.88748 26.1333 3.0875 25.8333 3.1875C22.8333 4.2875 19.8333 4.4875 16.9333 3.6875C16.6333 3.5875 16.3333 3.48748 16.0333 3.38748L15.7333 3.28748L15.4333 3.38748C14.8333 3.58748 14.2333 3.78749 13.6333 4.08749L11.3333 5.08749L13.7333 5.78748C13.9333 5.68748 14.2333 5.78748 14.5333 5.88748Z" fill="#121212"></path><path d="M61.6131 33.9092H56.9995L64.0293 13.5456H69.5776L76.5975 33.9092H71.9839L66.883 18.199H66.7239L61.6131 33.9092ZM61.3248 25.9049H72.2225V29.2657H61.3248V25.9049Z" fill="#121212"></path><path d="M83.2048 13.5456V33.9092H78.969V13.5456H83.2048Z" fill="#121212"></path><path d="M94.7215 18.6365V21.8183H85.524V18.6365H94.7215ZM87.6121 14.9774H91.8479V29.216C91.8479 29.6071 91.9075 29.912 92.0269 30.1308C92.1462 30.3429 92.3119 30.4921 92.524 30.5782C92.7428 30.6644 92.9947 30.7075 93.2797 30.7075C93.4786 30.7075 93.6774 30.6909 93.8763 30.6578C94.0751 30.618 94.2276 30.5882 94.3337 30.5683L94.9999 33.7203C94.7877 33.7866 94.4894 33.8628 94.105 33.949C93.7205 34.0418 93.2532 34.0981 92.703 34.118C91.6822 34.1578 90.7873 34.0219 90.0183 33.7103C89.256 33.3988 88.6627 32.9149 88.2385 32.2586C87.8143 31.6024 87.6055 30.7738 87.6121 29.7728V14.9774Z" fill="#121212"></path><path d="M103.061 32.8055V18.726H106.621V32.8055H103.061ZM97.8014 27.5456V23.9859H111.881V27.5456H97.8014Z" fill="#121212"></path><path d="M127.174 19.4021C127.094 18.6 126.753 17.9769 126.149 17.5328C125.546 17.0886 124.727 16.8666 123.693 16.8666C122.991 16.8666 122.397 16.966 121.914 17.1649C121.43 17.3571 121.058 17.6256 120.8 17.9703C120.548 18.315 120.422 18.7061 120.422 19.1436C120.409 19.5082 120.485 19.8263 120.651 20.0981C120.823 20.3699 121.058 20.6052 121.357 20.8041C121.655 20.9963 122 21.1653 122.391 21.3112C122.782 21.4504 123.2 21.5697 123.644 21.6691L125.473 22.1066C126.361 22.3055 127.177 22.5707 127.919 22.9021C128.662 23.2335 129.305 23.6412 129.848 24.1251C130.392 24.609 130.813 25.1791 131.111 25.8353C131.416 26.4916 131.572 27.2439 131.578 28.0924C131.572 29.3386 131.254 30.4191 130.624 31.3339C130.001 32.2421 129.099 32.948 127.919 33.4518C126.746 33.949 125.331 34.1975 123.674 34.1975C122.03 34.1975 120.598 33.9457 119.378 33.4419C118.165 32.9381 117.217 32.1923 116.534 31.2046C115.858 30.2103 115.504 28.9807 115.47 27.5157H119.637C119.683 28.1985 119.879 28.7686 120.223 29.226C120.575 29.6767 121.042 30.0181 121.625 30.2501C122.215 30.4755 122.881 30.5882 123.624 30.5882C124.353 30.5882 124.986 30.4821 125.523 30.27C126.067 30.0579 126.487 29.7629 126.786 29.385C127.084 29.0072 127.233 28.573 127.233 28.0825C127.233 27.6251 127.097 27.2406 126.826 26.9291C126.56 26.6175 126.169 26.3524 125.652 26.1336C125.142 25.9149 124.515 25.716 123.773 25.537L121.556 24.9802C119.839 24.5626 118.483 23.9097 117.489 23.0214C116.495 22.1331 116.001 20.9367 116.007 19.4319C116.001 18.199 116.329 17.1218 116.992 16.2004C117.661 15.279 118.579 14.5598 119.746 14.0427C120.913 13.5257 122.238 13.2671 123.723 13.2671C125.235 13.2671 126.554 13.5257 127.681 14.0427C128.814 14.5598 129.696 15.279 130.326 16.2004C130.955 17.1218 131.28 18.189 131.3 19.4021H127.174Z" fill="#121212"></path><path d="M138.631 25.0796V33.9092H134.395V13.5456H138.511V21.3311H138.69C139.035 20.4296 139.592 19.7236 140.361 19.2132C141.13 18.6961 142.094 18.4376 143.254 18.4376C144.315 18.4376 145.239 18.6696 146.028 19.1336C146.824 19.591 147.44 20.2506 147.878 21.1123C148.322 21.9674 148.541 22.9916 148.534 24.1848V33.9092H144.298V24.9404C144.305 23.9992 144.066 23.2667 143.582 22.743C143.105 22.2193 142.435 21.9575 141.574 21.9575C140.997 21.9575 140.487 22.0801 140.042 22.3254C139.605 22.5707 139.26 22.9286 139.008 23.3992C138.763 23.8633 138.637 24.4234 138.631 25.0796Z" fill="#121212"></path><path d="M151.867 33.9092V18.6365H156.103V33.9092H151.867ZM153.995 16.6677C153.366 16.6677 152.825 16.4589 152.375 16.0413C151.93 15.6171 151.708 15.1099 151.708 14.52C151.708 13.9367 151.93 13.4362 152.375 13.0186C152.825 12.5943 153.366 12.3822 153.995 12.3822C154.625 12.3822 155.162 12.5943 155.606 13.0186C156.057 13.4362 156.282 13.9367 156.282 14.52C156.282 15.1099 156.057 15.6171 155.606 16.0413C155.162 16.4589 154.625 16.6677 153.995 16.6677Z" fill="#121212"></path><path d="M169.223 18.6365V21.8183H158.283V18.6365H169.223ZM160.441 33.9092V17.5328C160.441 16.4258 160.656 15.5077 161.087 14.7785C161.525 14.0493 162.121 13.5025 162.877 13.1379C163.633 12.7733 164.491 12.591 165.452 12.591C166.102 12.591 166.695 12.6407 167.232 12.7402C167.776 12.8396 168.18 12.9291 168.445 13.0086L167.689 16.1904C167.524 16.1374 167.318 16.0877 167.073 16.0413C166.834 15.9949 166.589 15.9717 166.337 15.9717C165.714 15.9717 165.28 16.1175 165.035 16.4092C164.789 16.6942 164.667 17.0953 164.667 17.6123V33.9092H160.441Z" fill="#121212"></path><path d="M178.421 18.6365V21.8183H169.223V18.6365H178.421ZM171.311 14.9774H175.547V29.216C175.547 29.6071 175.607 29.912 175.726 30.1308C175.845 30.3429 176.011 30.4921 176.223 30.5782C176.442 30.6644 176.694 30.7075 176.979 30.7075C177.178 30.7075 177.377 30.6909 177.576 30.6578C177.774 30.618 177.927 30.5882 178.033 30.5683L178.699 33.7203C178.487 33.7866 178.189 33.8628 177.804 33.949C177.42 34.0418 176.952 34.0981 176.402 34.118C175.381 34.1578 174.486 34.0219 173.718 33.7103C172.955 33.3988 172.362 32.9149 171.938 32.2586C171.513 31.6024 171.305 30.7738 171.311 29.7728V14.9774Z" fill="#121212"></path></svg>