<svg xmlns="http://www.w3.org/2000/svg" width="121" height="32" viewBox="0 0 121 32" fill="none"><path fill-rule="evenodd" clip-rule="evenodd" d="M11.1166 18.9955L14.1625 22.0414C16.016 23.895 19.0212 23.895 20.8748 22.0414C21.4861 21.4301 21.8958 20.6936 22.1039 19.9144L24.231 22.0414C26.0845 23.895 29.0898 23.895 30.9433 22.0414C32.7969 20.1879 32.7969 17.1826 30.9433 15.3291L24.231 8.61673C22.3774 6.76317 19.3722 6.76317 17.5186 8.61674C16.9073 9.22804 16.4976 9.96461 16.2895 10.7438L14.1625 8.61674C12.3089 6.76317 9.30367 6.76317 7.4501 8.61674L1.9264 14.1404C-0.197473 16.2643 -0.197472 19.7078 1.9264 21.8317C4.05028 23.9556 7.49376 23.9556 9.61764 21.8317C10.4216 21.0277 10.9213 20.0346 11.1166 18.9955ZM12.4844 10.2948C11.5576 9.36804 10.055 9.36804 9.12819 10.2948C8.20181 11.2212 8.20141 12.7229 9.127 13.6498L15.8405 20.3633C16.7673 21.2901 18.2699 21.2901 19.1967 20.3633C20.123 19.4371 20.1235 17.9356 19.1982 17.0087L12.4844 10.2948ZM7.93955 15.8185L5.77202 13.651L3.60449 15.8185C2.4074 17.0156 2.4074 18.9565 3.60449 20.1536C4.80158 21.3507 6.74245 21.3507 7.93955 20.1536C9.13664 18.9565 9.13664 17.0156 7.93955 15.8185ZM19.1947 13.649C18.2699 12.7221 18.2706 11.2209 19.1967 10.2948C20.1235 9.36804 21.6261 9.36804 22.5529 10.2948L29.2652 17.0072C30.192 17.934 30.192 19.4366 29.2652 20.3633C28.3385 21.2901 26.8358 21.2901 25.9091 20.3633L19.1947 13.649Z" fill="white"></path><path d="M40.7021 21.9997H37.6667V7.69303H40.7021L44.9554 17.0317L49.2281 7.69303H52.3021V21.9997H49.2667V19.003C49.2667 15.9097 49.2667 15.233 49.4214 14.1697L46.3861 20.6664H43.5247L40.5087 14.1697C40.6827 15.233 40.7021 16.4317 40.7021 17.9977V21.9997Z" fill="white"></path><path d="M57.834 22.251C55.7846 22.251 54.5086 21.0524 54.5086 19.1577C54.5086 17.379 55.7653 16.277 58.0853 16.103L60.792 15.8904V15.7357C60.792 14.7884 60.212 14.2857 59.1486 14.2857C57.892 14.2857 57.2153 14.769 57.2153 15.639H54.7407C54.7407 13.4544 56.5387 12.0237 59.3033 12.0237C62.1067 12.0237 63.692 13.5897 63.692 16.3544V21.9997H61.0627L60.8693 20.7237C60.56 21.613 59.284 22.251 57.834 22.251ZM58.878 20.047C60.0187 20.047 60.8113 19.4864 60.8113 18.3844V17.8624L59.3033 17.9977C58.008 18.1137 57.544 18.4037 57.544 19.0224C57.544 19.7184 57.9693 20.047 58.878 20.047Z" fill="white"></path><path d="M65.3441 16.9924C65.3441 14.0537 67.2581 12.0044 69.9841 12.0044C71.2987 12.0044 72.3427 12.507 72.8647 13.2997L73.0194 12.333H75.8227V21.381C75.8227 24.8417 73.8314 26.9297 70.5254 26.9297C67.5674 26.9297 65.5761 25.2477 65.3054 22.5024H68.3214C68.3794 23.585 69.1914 24.223 70.5061 24.223C71.9367 24.223 72.8454 23.3724 72.8454 21.9997V20.743C72.2654 21.439 71.1827 21.8837 69.9261 21.8837C67.2194 21.8837 65.3441 19.8924 65.3441 16.9924ZM68.3407 16.915C68.3407 18.307 69.2687 19.293 70.5834 19.293C71.9367 19.293 72.8454 18.3457 72.8454 16.915C72.8454 15.5037 71.9367 14.595 70.5641 14.595C69.2494 14.595 68.3407 15.5424 68.3407 16.915Z" fill="white"></path><path d="M81.0391 21.9997H78.0618V12.333H80.8651L81.0585 13.3384C81.6578 12.507 82.7598 12.0237 84.0165 12.0237C86.3171 12.0237 87.6511 13.493 87.6511 16.0257V21.9997H84.6738V16.741C84.6738 15.523 83.9971 14.7304 82.9725 14.7304C81.7931 14.7304 81.0391 15.5037 81.0391 16.7024V21.9997Z" fill="white"></path><path d="M89.2644 17.147C89.2644 14.0924 91.5071 12.043 94.6004 12.043C97.6744 12.043 99.9171 14.0924 99.9171 17.147C99.9171 20.2017 97.6744 22.2317 94.6004 22.2317C91.5071 22.2317 89.2644 20.2017 89.2644 17.147ZM92.2611 17.1277C92.2611 18.597 93.2084 19.5637 94.6004 19.5637C95.9731 19.5637 96.9204 18.597 96.9204 17.1277C96.9204 15.6777 95.9731 14.711 94.6004 14.711C93.2084 14.711 92.2611 15.6777 92.2611 17.1277Z" fill="white"></path><path d="M104.62 21.9997H101.643V7.42236H104.62V21.9997Z" fill="white"></path><path d="M108.323 10.825C107.376 10.825 106.622 10.071 106.622 9.1237C106.622 8.17636 107.376 7.4417 108.323 7.4417C109.251 7.4417 110.005 8.17636 110.005 9.1237C110.005 10.071 109.251 10.825 108.323 10.825ZM106.854 21.9997V12.333H109.831V21.9997H106.854Z" fill="white"></path><path d="M114.984 22.251C112.935 22.251 111.659 21.0524 111.659 19.1577C111.659 17.379 112.916 16.277 115.236 16.103L117.942 15.8904V15.7357C117.942 14.7884 117.362 14.2857 116.299 14.2857C115.042 14.2857 114.366 14.769 114.366 15.639H111.891C111.891 13.4544 113.689 12.0237 116.454 12.0237C119.257 12.0237 120.842 13.5897 120.842 16.3544V21.9997H118.213L118.02 20.7237C117.71 21.613 116.434 22.251 114.984 22.251ZM116.028 20.047C117.169 20.047 117.962 19.4864 117.962 18.3844V17.8624L116.454 17.9977C115.158 18.1137 114.694 18.4037 114.694 19.0224C114.694 19.7184 115.12 20.047 116.028 20.047Z" fill="white"></path></svg>