<?xml version="1.0" standalone="no"?>
<!DOCTYPE svg PUBLIC "-//W3C//DTD SVG 1.1//EN" "http://www.w3.org/Graphics/SVG/1.1/DTD/svg11.dtd" >
<svg xmlns="http://www.w3.org/2000/svg" xmlns:xlink="http://www.w3.org/1999/xlink" version="1.1">
<metadata>
Created by FontForge 20190801 at Mon Oct 23 02:23:00 2023
 By www-data
 (c) 2023 Yukita Creative. All Rights Reserved.
</metadata>
<defs>
<font id="SunsiveBold" horiz-adv-x="613" >
  <font-face 
    font-family="SunsiveBold"
    font-weight="700"
    font-stretch="normal"
    units-per-em="1000"
    panose-1="0 0 0 0 0 0 0 0 0 0"
    ascent="800"
    descent="-200"
    x-height="495"
    cap-height="641"
    bbox="-82 -302 1138 897"
    underline-thickness="50"
    underline-position="-125"
    unicode-range="U+000D-FB04"
  />
<missing-glyph horiz-adv-x="528" 
 />
    <glyph glyph-name="f_f" unicode="ff" horiz-adv-x="880" 
d="M-1 388v107h106v114q0 70 37 107t103 37q51 0 109 -23t97 -69l-42 -97q-7 8 -22 18.5t-33 20.5t-37.5 17t-36.5 7t-28 -10t-11 -34v-88h182v-106h-182v-401h-136v400h-106zM439 388v107h106v114q0 70 37 107t103 37q51 0 109 -23t97 -69l-42 -97q-7 8 -22 18.5t-33 20.5
t-37.5 17t-36.5 7t-28 -10t-11 -34v-88h182v-106h-182v-401h-136v400h-106z" />
    <glyph glyph-name="fi" unicode="fi" horiz-adv-x="702" 
d="M-1 388v107h106v114q0 70 37 107t103 37q51 0 109 -23t97 -69l-42 -97q-7 8 -22 18.5t-33 20.5t-37.5 17t-36.5 7t-28 -10t-11 -34v-88h182v-106h-182v-401h-136v400h-106zM484 666q0 12 5 26t15.5 26t26 19.5t37.5 7.5q42 0 62.5 -25.5t20.5 -51.5q0 -13 -4.5 -27
t-14.5 -26t-26 -19.5t-38 -7.5t-37.5 7.5t-26 19t-15.5 25t-5 26.5zM499 0v495h137v-495h-137z" />
    <glyph glyph-name="fl" unicode="fl" horiz-adv-x="688" 
d="M-1 388v107h106v114q0 70 37 107t103 37q51 0 109 -23t97 -69l-42 -97q-7 8 -22 18.5t-33 20.5t-37.5 17t-36.5 7t-28 -10t-11 -34v-88h182v-106h-182v-401h-136v400h-106zM485 -2v738h137v-737z" />
    <glyph glyph-name="f_f_i" unicode="ffi" horiz-adv-x="1142" 
d="M-1 388v107h106v114q0 70 37 107t103 37q51 0 109 -23t97 -69l-42 -97q-7 8 -22 18.5t-33 20.5t-37.5 17t-36.5 7t-28 -10t-11 -34v-88h182v-106h-182v-401h-136v400h-106zM439 388v107h106v114q0 70 37 107t103 37q51 0 109 -23t97 -69l-42 -97q-7 8 -22 18.5t-33 20.5
t-37.5 17t-36.5 7t-28 -10t-11 -34v-88h182v-106h-182v-401h-136v400h-106zM924 666q0 12 5 26t15.5 26t26 19.5t37.5 7.5q42 0 62.5 -25.5t20.5 -51.5q0 -13 -4.5 -27t-14.5 -26t-26 -19.5t-38 -7.5t-37.5 7.5t-26 19t-15.5 25t-5 26.5zM939 0v495h137v-495h-137z" />
    <glyph glyph-name="f_f_l" unicode="ffl" horiz-adv-x="1128" 
d="M-1 388v107h106v114q0 70 37 107t103 37q51 0 109 -23t97 -69l-42 -97q-7 8 -22 18.5t-33 20.5t-37.5 17t-36.5 7t-28 -10t-11 -34v-88h182v-106h-182v-401h-136v400h-106zM439 388v107h106v114q0 70 37 107t103 37q51 0 109 -23t97 -69l-42 -97q-7 8 -22 18.5t-33 20.5
t-37.5 17t-36.5 7t-28 -10t-11 -34v-88h182v-106h-182v-401h-136v400h-106zM924 -2v738h137v-737z" />
    <glyph glyph-name=".notdef" horiz-adv-x="528" 
 />
    <glyph glyph-name=".null" horiz-adv-x="0" 
 />
    <glyph glyph-name=".null" horiz-adv-x="0" 
 />
    <glyph glyph-name="uni000D" unicode="&#xd;" horiz-adv-x="242" 
 />
    <glyph glyph-name="space" unicode=" " horiz-adv-x="242" 
 />
    <glyph glyph-name="exclam" unicode="!" horiz-adv-x="272" 
d="M87 200l-17 472h133l-18 -472h-98zM137 -5q-29 0 -51.5 20t-22.5 54t22.5 53.5t51.5 19.5q30 0 51.5 -20t21.5 -53t-22 -53.5t-51 -20.5z" />
    <glyph glyph-name="quotedbl" unicode="&#x22;" horiz-adv-x="382" 
d="M63 378l-6 260h106l-7 -260h-93zM232 378l-7 260h107l-8 -260h-92z" />
    <glyph glyph-name="numbersign" unicode="#" horiz-adv-x="661" 
d="M126 0l19 157h-120v92h132l18 141h-122v91h134l19 157h100l-19 -157h129l20 157h100l-19 -157h120v-91h-132l-17 -141h121v-92h-133l-20 -157h-100l19 157h-130l-19 -157h-100zM257 249h130l18 141h-130z" />
    <glyph glyph-name="dollar" unicode="$" horiz-adv-x="624" 
d="M265 -101v93q-58 5 -100.5 20.5t-72 37t-47.5 46t-27 48.5l127 47q14 -29 42 -50.5t78 -29.5v150l-14 3q-115 20 -169.5 70.5t-54.5 118.5q0 76 60 131t178 65v93h84v-92q84 -5 139.5 -35t83.5 -78l-106 -72q-18 22 -46.5 40t-70.5 25v-156l11 -2q68 -12 113 -31.5
t72 -43.5t38.5 -52t11.5 -57q0 -35 -15 -68.5t-45.5 -60.5t-77 -45.5t-108.5 -22.5v-92h-84zM265 388v146q-45 -5 -66 -23t-25 -40q-3 -17 2 -31t15.5 -24t25 -16t29.5 -9zM349 108q49 5 74.5 24.5t25.5 44.5q0 32 -29 46.5t-71 22.5v-138z" />
    <glyph glyph-name="percent" unicode="%" horiz-adv-x="819" 
d="M197 282q-42 0 -72.5 15.5t-50.5 41t-30 58t-10 66.5t10 66.5t30.5 58t51 41t71.5 15.5q42 0 72.5 -15.5t50.5 -40.5t29.5 -57.5t9.5 -67.5q0 -34 -9.5 -67t-29.5 -58t-50.5 -40.5t-72.5 -15.5zM132 0l443 638h115l-443 -638h-115zM197 365q20 0 32 9.5t19.5 24.5t10 32
t2.5 32t-2.5 32.5t-10 32t-19.5 24t-32 9.5q-19 0 -31.5 -10t-19.5 -24.5t-10 -31.5t-3 -32t3 -32t10 -32t19.5 -24.5t31.5 -9.5zM621 -5q-42 0 -72 15.5t-50 40.5t-29.5 58t-9.5 67t9.5 66.5t29.5 57.5t50 40.5t72 15.5t72.5 -15.5t50.5 -40.5t30 -57.5t10 -66.5t-10 -67
t-30 -58t-50.5 -40.5t-72.5 -15.5zM621 77q19 0 31.5 10t20 24.5t10.5 32t3 32.5t-3 32t-10.5 31.5t-20 24.5t-31.5 10t-31.5 -9.5t-19.5 -24.5t-10 -32t-3 -32t3 -32.5t10 -32t19.5 -24.5t31.5 -10z" />
    <glyph glyph-name="ampersand" unicode="&#x26;" horiz-adv-x="713" 
d="M545 0l-43 44q-32 -25 -75.5 -39.5t-99.5 -14.5q-62 0 -115 17.5t-92 48t-61 73t-22 91.5q0 66 36 105.5t92 59.5l-36 37q-20 20 -32.5 43.5t-12.5 50.5q0 21 8.5 43.5t25.5 41t42.5 30.5t59.5 12h340v-106h-332q-10 0 -16.5 -7t-6.5 -16q0 -8 9 -17l269 -274q9 24 9 53
q0 32 -8.5 68t-27.5 59h128q28 -59 28 -124q0 -36 -9 -74.5t-27 -73.5l130 -131h-161zM208 342q-22 -17 -35 -44t-13 -62q0 -68 46 -103.5t117 -35.5q59 0 98 28z" />
    <glyph glyph-name="quotesingle" unicode="'" horiz-adv-x="221" 
d="M63 378l-6 260h106l-7 -260h-93z" />
    <glyph glyph-name="parenleft" unicode="(" horiz-adv-x="341" 
d="M198 -170q-30 44 -51.5 96t-35 106.5t-19.5 110.5t-6 109t6 109t19.5 110.5t35 105.5t51.5 96h114q-60 -95 -85.5 -202t-25.5 -219t25.5 -219t85.5 -203h-114z" />
    <glyph glyph-name="parenright" unicode=")" horiz-adv-x="342" 
d="M29 -170q60 96 86 203t26 219t-26 219t-86 202h115q62 -90 87.5 -202t25.5 -219q0 -53 -6.5 -109t-20 -110.5t-35 -106t-51.5 -96.5h-115z" />
    <glyph glyph-name="asterisk" unicode="*" horiz-adv-x="385" 
d="M54 379l-37 64l102 56l-102 56l37 64l102 -59l-1 112h74l-1 -112l102 59l37 -64l-102 -56l102 -56l-37 -64l-102 59l1 -112h-74l1 112z" />
    <glyph glyph-name="plus" unicode="+" horiz-adv-x="551" 
d="M61 271v93h162v158h106v-158h162v-93h-162v-156h-106v156h-162z" />
    <glyph glyph-name="comma" unicode="," horiz-adv-x="249" 
d="M80 -82l29 84q-26 3 -47.5 18t-23.5 48q-2 40 24.5 61.5t61.5 21.5t60 -22t23 -57q-1 -30 -8 -55.5t-15.5 -47t-17 -39t-14.5 -30.5z" />
    <glyph glyph-name="hyphen" unicode="-" horiz-adv-x="374" 
d="M51 207v88h271v-88h-271z" />
    <glyph glyph-name="period" unicode="." horiz-adv-x="254" 
d="M48 73q0 36 24 57t56 21t55 -21t23 -57q0 -35 -23 -56.5t-55 -21.5t-56 21.5t-24 56.5z" />
    <glyph glyph-name="slash" unicode="/" horiz-adv-x="354" 
d="M3 0l231 641h110l-232 -641h-109z" />
    <glyph glyph-name="zero" unicode="0" horiz-adv-x="612" 
d="M29 321q0 160 67.5 245.5t210.5 85.5q142 0 209 -86t67 -245q0 -158 -67.5 -244.5t-209.5 -86.5t-209.5 85.5t-67.5 245.5zM306 105q42 0 69.5 15.5t43 44t21.5 68t6 87.5t-6 88t-22 68.5t-43 44t-69 15.5t-69 -15.5t-42.5 -44t-21.5 -68t-6 -88.5t6 -88.5t21.5 -67.5
t42.5 -43.5t69 -15.5z" />
    <glyph glyph-name="one" unicode="1" horiz-adv-x="310" 
d="M100 0v484h-82v87q20 3 43 9.5t44.5 15.5t39.5 20.5t28 24.5h66v-641h-139z" />
    <glyph glyph-name="two" unicode="2" horiz-adv-x="535" 
d="M47 444q0 48 18 86.5t49 65.5t72.5 41.5t87.5 14.5q45 0 85 -13.5t71 -40t49 -64.5t18 -88q0 -47 -16 -82t-41.5 -62t-56.5 -47.5t-62 -38.5q-50 -29 -79.5 -52t-41.5 -53h302v-111h-460q1 70 20 118.5t48.5 83t66 58t70.5 43.5q25 15 47.5 29t40 31t27.5 37t10 47
q0 47 -29.5 69.5t-71.5 22.5q-51 0 -77.5 -29.5t-27.5 -77.5z" />
    <glyph glyph-name="three" unicode="3" horiz-adv-x="531" 
d="M212 377h63q33 0 59 20t26 61q0 23 -9 39t-23 25.5t-31.5 14t-34.5 4.5q-47 0 -78.5 -27.5t-34.5 -80.5l-121 23q4 48 25.5 85t53.5 61.5t72 37t82 12.5q41 0 81.5 -12t73 -36t52.5 -60.5t20 -84.5q0 -35 -15 -68.5t-55 -53.5q40 -16 64 -54.5t24 -87.5q0 -52 -20 -90.5
t-53 -64t-76 -38.5t-89 -13q-43 0 -85 12.5t-75.5 37.5t-55.5 62.5t-26 86.5l120 24q4 -54 39 -83t86 -29q18 0 37 4.5t34.5 15t25 28t9.5 43.5q0 45 -28.5 69t-81.5 24h-55v93z" />
    <glyph glyph-name="four" unicode="4" 
d="M19 122v87l323 433h159v-406h87v-114h-87v-122h-139v122h-343zM173 237h190v256z" />
    <glyph glyph-name="five" unicode="5" horiz-adv-x="525" 
d="M131 213q5 -53 38 -83t81 -30q22 0 42.5 6.5t36 20t25 34.5t9.5 49q0 30 -10 51.5t-26 35.5t-36.5 21t-42.5 7q-32 0 -57 -12t-42 -30l-120 40l74 318h371v-109h-283l-31 -130q20 9 49.5 17t65.5 8q45 0 84.5 -14t68.5 -41t46 -66t17 -89t-18 -92t-50 -72t-75.5 -46.5
t-93.5 -16.5q-47 0 -88.5 15t-74 41t-52.5 62t-24 78z" />
    <glyph glyph-name="six" unicode="6" horiz-adv-x="562" 
d="M407 460q-8 46 -36.5 64.5t-76.5 18.5q-40 0 -66 -16t-42 -42t-23 -58.5t-10 -66.5q29 33 70 47t83 14q45 0 86.5 -13.5t73 -40.5t50 -66t18.5 -90q0 -56 -21 -97.5t-56.5 -69t-82 -41t-98.5 -13.5q-69 0 -117 23.5t-78 64t-43 95.5t-13 117q0 71 10 136.5t39 115.5
t81.5 79.5t138.5 29.5q47 0 89.5 -10.5t75.5 -33.5t52.5 -59t19.5 -88h-124zM412 207q0 29 -11 50.5t-30 36t-42.5 21.5t-49.5 7q-54 0 -86.5 -31t-32.5 -85q0 -56 33 -81.5t87 -25.5q26 0 50 6.5t42 20t29 33.5t11 48z" />
    <glyph glyph-name="seven" unicode="7" horiz-adv-x="501" 
d="M491 530q-41 -44 -81 -95t-74 -115t-59 -142.5t-35 -177.5h-140q11 135 52 233.5t87.5 163.5t84.5 98t43 37h-362v110h484v-112z" />
    <glyph glyph-name="eight" unicode="8" horiz-adv-x="591" 
d="M295 -10q-46 0 -94 10.5t-87 34t-64 61.5t-25 93q0 51 33.5 94t90.5 54q-48 18 -69.5 53.5t-21.5 80.5q0 49 22 83.5t56.5 56t76.5 31.5t83 10t83 -10t76.5 -32t56.5 -57.5t22 -86.5q0 -42 -23.5 -76.5t-69.5 -52.5q27 -6 50 -20t39.5 -33.5t26 -44t9.5 -50.5
q0 -55 -25 -93.5t-64.5 -61.5t-87.5 -33.5t-94 -10.5zM186 463q0 -23 10 -38t26 -24t35.5 -12.5t38.5 -3.5q18 0 37.5 3.5t35.5 12t26.5 23.5t10.5 39q0 23 -10.5 38t-26.5 24t-35.5 12.5t-38.5 3.5t-38.5 -3.5t-35 -12.5t-25.5 -24t-10 -38zM165 191q0 -27 12 -44.5
t31 -27.5t42 -14t45 -4t45.5 4t42.5 14t31 27.5t12 44.5t-12.5 44.5t-31.5 27.5t-42.5 14t-44.5 4q-22 0 -45 -4t-42 -14t-31 -27.5t-12 -44.5z" />
    <glyph glyph-name="nine" unicode="9" horiz-adv-x="556" 
d="M28 181h124q8 -45 36.5 -63.5t76.5 -18.5q41 0 67 16t42 42.5t23 62t10 74.5q-28 -35 -65.5 -54.5t-90.5 -19.5q-45 0 -86 13.5t-72 40.5t-49.5 66t-18.5 90q0 56 21 97.5t56 69t81.5 41t98.5 13.5q69 0 117 -23.5t78 -64t43.5 -95t13.5 -116.5q0 -71 -10 -136.5
t-39 -115.5t-81.5 -80t-138.5 -30q-47 0 -90 10.5t-75.5 33.5t-52 59t-19.5 88zM146 434q0 -29 11 -50.5t30 -35.5t43 -21t50 -7q54 0 86 30.5t32 84.5q0 56 -33 82t-87 26q-26 0 -50 -6.5t-42 -20t-29 -34t-11 -48.5z" />
    <glyph glyph-name="colon" unicode=":" horiz-adv-x="252" 
d="M48 437q0 36 24 57t56 21t55 -21t23 -57q0 -35 -23 -56.5t-55 -21.5t-56 21.5t-24 56.5zM48 73q0 36 24 57t56 21t55 -21t23 -57q0 -35 -23 -56.5t-55 -21.5t-56 21.5t-24 56.5z" />
    <glyph glyph-name="semicolon" unicode=";" horiz-adv-x="253" 
d="M48 437q0 36 24 57t56 21t55 -21t23 -57q0 -35 -23 -56.5t-55 -21.5t-56 21.5t-24 56.5zM88 -82l29 84q-26 3 -47.5 18t-23.5 48q-2 40 24.5 61.5t61.5 21.5t60 -22t23 -57q-1 -30 -8 -55.5t-15.5 -47t-17 -39t-14.5 -30.5z" />
    <glyph glyph-name="less" unicode="&#x3c;" horiz-adv-x="551" 
d="M61 274v89l430 167v-99l-296 -113l296 -112v-100z" />
    <glyph glyph-name="equal" unicode="=" horiz-adv-x="551" 
d="M61 376v93h430v-93h-430zM61 168v93h430v-93h-430z" />
    <glyph glyph-name="greater" unicode="&#x3e;" horiz-adv-x="551" 
d="M61 106v100l297 112l-297 113v99l430 -167v-89z" />
    <glyph glyph-name="question" unicode="?" horiz-adv-x="552" 
d="M211 213q2 29 11 51t22 39t28.5 30.5t30.5 25.5q29 23 51 47.5t22 66.5q0 46 -28 70.5t-71 24.5q-28 0 -49.5 -10t-35.5 -26t-21.5 -36.5t-7.5 -41.5l-119 11q0 45 17 84.5t48.5 69t76 46.5t98.5 17q45 0 85 -12.5t70 -37.5t47.5 -61t17.5 -84q0 -36 -9 -61.5t-23.5 -45
t-32.5 -34t-35 -27.5q-41 -29 -61.5 -51.5t-24.5 -54.5h-107zM186 70q0 34 23 54t54 20q30 0 52.5 -20t22.5 -54t-23 -54.5t-52 -20.5q-31 0 -54 20t-23 55z" />
    <glyph glyph-name="at" unicode="@" horiz-adv-x="965" 
d="M663 18l33 -82q-48 -28 -105 -39.5t-112 -11.5q-91 0 -170.5 29t-138.5 83t-92.5 130.5t-33.5 171.5t34.5 171.5t93.5 129.5t139.5 81.5t171.5 28.5t170.5 -26.5t139 -77t94 -125t34.5 -170.5q0 -44 -9.5 -89.5t-32 -83t-59.5 -61t-92 -23.5q-17 0 -36 5t-36.5 14.5
t-30.5 23.5t-17 31q-26 -26 -65.5 -40t-81.5 -14q-48 0 -88.5 16t-69.5 45t-45.5 68.5t-16.5 85.5t16 85t45.5 67.5t70 44.5t88.5 16q36 0 69.5 -12.5t58.5 -38.5v48h96v-313q0 -20 15.5 -31t40.5 -11q27 0 43 19.5t24.5 45.5t11.5 54t3 44q0 77 -25.5 136t-71 99.5
t-108 61.5t-136.5 21q-73 0 -135.5 -23t-108 -65t-71 -102.5t-25.5 -135.5q0 -74 24.5 -134.5t68.5 -103t105.5 -66t134.5 -23.5q51 0 96.5 11.5t91.5 34.5zM469 171q56 0 89 33.5t33 84.5q0 52 -33 85t-89 33q-57 0 -88.5 -32.5t-31.5 -85.5q0 -52 31.5 -85t88.5 -33z" />
    <glyph glyph-name="A" unicode="A" horiz-adv-x="631" 
d="M429 147h-228l-46 -147h-145l206 641h198l206 -641h-146zM394 266l-79 255l-79 -255h158z" />
    <glyph glyph-name="B" unicode="B" horiz-adv-x="692" 
d="M80 0v641h323q42 0 82.5 -8.5t72.5 -29t51.5 -54.5t19.5 -85q0 -40 -26 -77t-79 -51q33 -3 58.5 -18t43.5 -36.5t27 -48t9 -52.5q0 -54 -21 -89t-55.5 -55.5t-77.5 -28.5t-88 -8h-340zM220 378h175q40 0 67 14t27 60q0 23 -7.5 36.5t-20 21t-29.5 10t-37 2.5h-175v-144z
M220 119h197q21 0 40 2t33.5 9.5t22.5 22.5t8 40q0 26 -8 41t-22.5 23.5t-33.5 11t-40 2.5h-197v-152z" />
    <glyph glyph-name="C" unicode="C" horiz-adv-x="724" 
d="M380 -10q-171 0 -261 86t-90 245q0 73 24.5 134t69.5 104.5t109.5 68t144.5 24.5q57 0 112.5 -13.5t99.5 -42.5t71 -76t27 -114h-142q0 58 -45 87.5t-121 29.5q-92 0 -149 -52.5t-57 -149.5t57 -149.5t149 -52.5q76 0 121 29.5t45 88.5h142q0 -67 -27 -114t-70.5 -76.5
t-98.5 -43t-111 -13.5z" />
    <glyph glyph-name="D" unicode="D" horiz-adv-x="753" 
d="M80 0v641h286q86 0 153 -26t112.5 -70t69 -102t23.5 -123t-23.5 -123t-69 -102t-112.5 -69.5t-153 -25.5h-286zM220 122h140q104 0 164 52.5t60 145.5q0 94 -60 147t-164 53h-140v-398z" />
    <glyph glyph-name="E" unicode="E" 
d="M80 0v641h487v-121h-347v-139h304v-115h-304v-144h345v-122h-485z" />
    <glyph glyph-name="F" unicode="F" horiz-adv-x="602" 
d="M80 0v641h487v-121h-347v-138h303v-121h-303v-261h-140z" />
    <glyph glyph-name="G" unicode="G" horiz-adv-x="739" 
d="M578 152q-18 -75 -66.5 -118.5t-134.5 -43.5q-75 0 -139 22t-110.5 64t-72.5 103.5t-26 139.5q0 76 25 137.5t71 105t111 67t146 23.5q57 0 112 -13.5t98 -42.5t69 -76t26 -114h-142q0 58 -45 88t-122 30q-45 0 -83.5 -13.5t-66 -39t-43.5 -63t-16 -85.5q0 -46 15 -85
t42.5 -67t68 -43.5t91.5 -15.5q77 0 116 31t51 88h-213v102h343l23 -333h-115z" />
    <glyph glyph-name="H" unicode="H" horiz-adv-x="753" 
d="M80 0v641h140v-259h312v259h141v-641h-141v261h-312v-261h-140z" />
    <glyph glyph-name="I" unicode="I" horiz-adv-x="301" 
d="M80 0v641h140v-641h-140z" />
    <glyph glyph-name="J" unicode="J" horiz-adv-x="632" 
d="M201 282q-18 -36 -18 -68q0 -49 37.5 -74t90.5 -25q58 0 83 33t25 110v383h137v-386q0 -54 -12.5 -102t-42 -84t-77 -57t-117.5 -21q-60 0 -108 17t-82 46t-52 68t-18 83q0 39 14 75z" />
    <glyph glyph-name="K" unicode="K" horiz-adv-x="701" 
d="M80 0v641h140v-292l299 292h169l-287 -286l292 -355h-174l-217 257l-82 -80v-177h-140z" />
    <glyph glyph-name="L" unicode="L" horiz-adv-x="581" 
d="M80 0v641h140v-519h334v-122h-474z" />
    <glyph glyph-name="M" unicode="M" horiz-adv-x="881" 
d="M80 641h126l235 -406l234 406h126v-641h-140v369l-174 -301h-91l-176 301v-369h-140v641z" />
    <glyph glyph-name="N" unicode="N" horiz-adv-x="742" 
d="M80 0v641h123l319 -405v405h140v-641h-123l-319 405v-405h-140z" />
    <glyph glyph-name="O" unicode="O" horiz-adv-x="765" 
d="M29 321q0 75 28.5 136t77.5 104.5t113 67t136 23.5q71 0 135 -23.5t112 -67t76.5 -104.5t28.5 -136t-28.5 -136t-76.5 -104.5t-112 -67t-136 -23.5q-71 0 -135.5 23.5t-113 67t-77 104.5t-28.5 136zM383 118q45 0 84 15.5t67.5 42.5t44.5 64.5t16 80.5q0 44 -16 81
t-44.5 64.5t-67.5 43t-84 15.5q-46 0 -85 -15.5t-67.5 -42.5t-45 -64.5t-16.5 -81.5q0 -43 16.5 -80.5t45 -64.5t67.5 -42.5t85 -15.5z" />
    <glyph glyph-name="P" unicode="P" horiz-adv-x="661" 
d="M80 0v641h284q50 0 97.5 -10t85 -34t60 -63t22.5 -96q0 -58 -20.5 -100.5t-56 -69.5t-84 -40t-104.5 -13h-144v-215h-140zM220 336h141q24 0 47 3.5t41 14t29 29t11 48.5q0 32 -11.5 49.5t-30 26.5t-41 11t-45.5 2h-141v-184z" />
    <glyph glyph-name="Q" unicode="Q" horiz-adv-x="768" 
d="M641 -87l-102 109q-36 -15 -75 -23.5t-81 -8.5q-68 0 -132 22t-113.5 64.5t-79 103.5t-29.5 139q0 76 28.5 137.5t77.5 105t113 67t136 23.5q71 0 135 -23.5t112 -67t76.5 -105t28.5 -136.5t-27.5 -133t-72.5 -100l97 -103zM383 117q31 0 61 8l-117 126l90 70l125 -133
q25 25 39 59t14 74q0 44 -16 81t-44.5 64.5t-67.5 43t-84 15.5q-46 0 -85 -15.5t-67.5 -42.5t-45 -64.5t-16.5 -81.5q0 -43 16.5 -80.5t45 -65t67.5 -43t85 -15.5z" />
    <glyph glyph-name="R" unicode="R" horiz-adv-x="661" 
d="M592 180l38 -180h-145l-37 171q-10 45 -47 59.5t-88 14.5h-93v-245h-140v641h291q119 0 186 -44.5t67 -133.5q0 -37 -11.5 -66t-30.5 -51t-44 -36.5t-52 -21.5q38 -12 67.5 -37.5t38.5 -70.5zM220 349h135q59 0 94 18.5t35 71.5q0 27 -9 43.5t-25 24.5t-37 10.5t-44 2.5
h-149v-171z" />
    <glyph glyph-name="S" unicode="S" horiz-adv-x="637" 
d="M457 443q-3 30 -17 48.5t-35 28t-47 12.5t-53 3q-16 0 -37.5 -2.5t-41 -10t-32.5 -20.5t-13 -35t13 -36.5t35 -24.5t51 -16.5t61 -12.5q45 -8 92.5 -19t86.5 -32t63.5 -56t24.5 -91q0 -58 -25 -95t-64.5 -58t-88.5 -28.5t-97 -7.5q-54 0 -107 9t-95.5 33t-69 65.5
t-27.5 105.5h141q1 -28 17 -47.5t39.5 -31t50.5 -16.5t50 -5q26 0 50.5 3t43.5 11t30 23t11 39q0 23 -13.5 38t-36 24.5t-52.5 16t-63 12.5q-45 8 -91 19t-83.5 31.5t-61.5 55t-24 89.5q0 57 25 93t64.5 56.5t88.5 28.5t97 8q53 0 102 -9.5t87.5 -33t62.5 -63.5t26 -102
h-138z" />
    <glyph glyph-name="T" unicode="T" horiz-adv-x="605" 
d="M233 0v520h-211v121h562v-121h-211v-520h-140z" />
    <glyph glyph-name="U" unicode="U" horiz-adv-x="722" 
d="M215 641v-359q0 -77 34.5 -122t118.5 -45q83 0 117 45.5t34 121.5v359h137v-362q0 -54 -14.5 -105.5t-48.5 -92t-89.5 -65t-136.5 -24.5t-136.5 24.5t-90 65t-50 92t-15.5 105.5v362h140z" />
    <glyph glyph-name="V" unicode="V" horiz-adv-x="627" 
d="M226 0l-221 641h154l155 -462l161 462h149l-225 -641h-173z" />
    <glyph glyph-name="W" unicode="W" horiz-adv-x="1049" 
d="M218 0l-214 641h154l142 -444l150 444h155l142 -444l150 444h148l-222 -641h-158l-142 425l-147 -425h-158z" />
    <glyph glyph-name="X" unicode="X" horiz-adv-x="670" 
d="M335 438l153 203h174l-240 -319l242 -322h-174l-155 205l-154 -205h-174l241 322l-240 319h174z" />
    <glyph glyph-name="Y" unicode="Y" horiz-adv-x="679" 
d="M266 0v219l-259 422h165l167 -276l166 276h160l-259 -425v-216h-140z" />
    <glyph glyph-name="Z" unicode="Z" horiz-adv-x="614" 
d="M21 0v101l382 419h-376v121h568v-108l-374 -411h367v-122h-567z" />
    <glyph glyph-name="bracketleft" unicode="[" horiz-adv-x="329" 
d="M95 -170v843h217v-92h-100v-658h100v-93h-217z" />
    <glyph glyph-name="backslash" unicode="\" horiz-adv-x="354" 
d="M239 0l-232 641h109l233 -641h-110z" />
    <glyph glyph-name="bracketright" unicode="]" horiz-adv-x="329" 
d="M17 -170v93h101v658h-101v92h217v-843h-217z" />
    <glyph glyph-name="asciicircum" unicode="^" horiz-adv-x="564" 
d="M68 125l167 388h95l166 -388h-102l-112 267l-112 -267h-102z" />
    <glyph glyph-name="underscore" unicode="_" horiz-adv-x="478" 
d="M2 -78v78h476v-78h-476z" />
    <glyph glyph-name="grave" unicode="`" horiz-adv-x="608" 
d="M130 669h129l126 -116h-93z" />
    <glyph glyph-name="a" unicode="a" horiz-adv-x="595" 
d="M57 341q4 41 24.5 71.5t52.5 51t73.5 31t87.5 10.5q63 0 108 -14.5t74 -38.5t42.5 -56t13.5 -67v-231l10 -98h-128l-10 83q-22 -51 -72 -72t-105 -21q-34 0 -68 7.5t-61 24.5t-44 43.5t-17 63.5q0 70 52.5 105.5t135.5 46.5l178 24l-1 26q0 25 -25.5 45.5t-82.5 20.5
q-44 0 -73.5 -16.5t-35.5 -55.5zM404 225l-143 -20q-45 -6 -70 -19.5t-25 -41.5q0 -15 7 -24.5t18 -15.5t24.5 -8.5t26.5 -2.5q24 0 52.5 6.5t52.5 20t40.5 36t16.5 53.5v16z" />
    <glyph glyph-name="b" unicode="b" horiz-adv-x="648" 
d="M67 0v712h137v-283q26 33 68 54.5t98 21.5q55 0 99.5 -21t76.5 -57t49.5 -83.5t17.5 -100.5q0 -54 -18 -100t-50 -80.5t-76.5 -54t-97.5 -19.5q-56 0 -97.5 21t-73.5 58v-68h-133zM339 104q32 0 57 11.5t43 31t27.5 45t9.5 54.5t-9.5 55t-27 45.5t-43 31t-57.5 11.5
t-57 -11.5t-42.5 -31t-27 -45.5t-9.5 -55t9.5 -54.5t27 -45t43 -31t56.5 -11.5z" />
    <glyph glyph-name="c" unicode="c" horiz-adv-x="604" 
d="M304 -10q-60 0 -109 16.5t-84 49t-54.5 80.5t-19.5 112t19.5 112t55 80.5t85.5 48.5t111 16q53 0 100.5 -10t83 -34t56.5 -64.5t21 -102.5h-136q1 29 -10.5 47t-29.5 27.5t-41 12.5t-46 3q-66 0 -99.5 -35.5t-33.5 -104.5q0 -64 32 -101.5t105 -37.5q22 0 43.5 4t39 14.5
t28.5 27.5t11 44h136q0 -61 -22.5 -100.5t-59 -62.5t-84 -32.5t-98.5 -9.5z" />
    <glyph glyph-name="d" unicode="d" horiz-adv-x="648" 
d="M448 0v68q-10 -12 -25.5 -26t-36.5 -26t-47 -19.5t-57 -7.5q-53 0 -98.5 19t-78.5 53t-51.5 80t-18.5 101q0 53 17.5 100.5t49.5 83.5t76.5 57.5t99.5 21.5q56 0 98 -21.5t69 -54.5v283h136v-712h-133zM173 247q0 -29 9.5 -54.5t27 -45t43 -31t56.5 -11.5q32 0 57.5 11.5
t43 31t27 45t9.5 54.5q0 58 -36 99.5t-101 41.5q-64 0 -100 -41.5t-36 -99.5z" />
    <glyph glyph-name="e" unicode="e" horiz-adv-x="590" 
d="M309 82q51 0 78.5 23t36.5 65h124q-5 -53 -26 -87.5t-53.5 -55t-75.5 -29t-93 -8.5q-69 0 -119.5 19t-83.5 53.5t-49 82.5t-16 107q0 49 13.5 94.5t44.5 81t81 56.5t123 21q74 0 123.5 -23.5t80.5 -62.5t44 -90t13 -106h-389q2 -63 36.5 -102t106.5 -39zM170 308h246
q-8 44 -40 71t-83 27t-84 -27.5t-39 -70.5z" />
    <glyph glyph-name="f" unicode="f" horiz-adv-x="440" 
d="M-1 388v107h106v114q0 70 37 107t103 37q51 0 109 -23t97 -69l-42 -97q-7 8 -22 18.5t-33 20.5t-37.5 17t-36.5 7t-28 -10t-11 -34v-88h182v-106h-182v-401h-136v400h-106z" />
    <glyph glyph-name="g" unicode="g" horiz-adv-x="633" 
d="M117 -19q9 -12 24 -27t36 -27.5t49 -21.5t64 -9q26 0 52 5t48 19t35.5 40t13.5 67v45q-64 -64 -160 -64q-61 0 -108 21t-78 55.5t-47 79t-16 90.5q0 47 16 92t46.5 80.5t76 57t103.5 21.5q57 0 100.5 -19t66.5 -46v55h138v-472q0 -73 -25.5 -122t-66.5 -78.5t-93 -42
t-105 -12.5q-52 0 -93.5 11.5t-73 30t-53.5 41.5t-36 46zM302 124q27 0 52 8.5t43.5 22.5t30 33.5t11.5 41.5v49q0 24 -11 44.5t-30 35.5t-44 23.5t-53 8.5q-59 0 -96 -37t-37 -96q0 -60 38 -97t96 -37z" />
    <glyph glyph-name="h" unicode="h" horiz-adv-x="620" 
d="M67 0v712h137v-280q18 24 41 38t45.5 22t42 10.5t29.5 2.5q63 0 102 -20.5t60.5 -53t29.5 -73t8 -80.5v-278h-137v270q0 54 -23.5 84.5t-77.5 30.5q-31 0 -54 -10.5t-37.5 -27.5t-21.5 -39.5t-7 -45.5v-262h-137z" />
    <glyph glyph-name="i" unicode="i" horiz-adv-x="270" 
d="M52 666q0 12 5 26t15.5 26t26 19.5t37.5 7.5q42 0 62.5 -25.5t20.5 -51.5q0 -13 -4.5 -27t-14.5 -26t-26 -19.5t-38 -7.5t-37.5 7.5t-26 19t-15.5 25t-5 26.5zM67 0v495h137v-495h-137z" />
    <glyph glyph-name="j" unicode="j" horiz-adv-x="263" 
d="M46 666q0 12 5 26t15.5 26t26 19.5t37.5 7.5q42 0 62.5 -25.5t20.5 -51.5q0 -13 -4.5 -27t-14.5 -26t-26 -19.5t-38 -7.5t-37.5 7.5t-26 19t-15.5 25t-5 26.5zM-61 -161l16 128q11 -2 32 -3t29 -1q32 0 39.5 15t7.5 40l1 477h136v-477q0 -91 -44 -138.5t-137 -44.5
q-6 0 -16.5 0.5t-22.5 1t-23 1.5t-18 1z" />
    <glyph glyph-name="k" unicode="k" 
d="M67 712h137v-411l210 194h174l-212 -203l224 -292h-172l-157 199l-67 -62v-137h-137v712z" />
    <glyph glyph-name="l" unicode="l" horiz-adv-x="269" 
d="M66 -2v738h137v-737z" />
    <glyph glyph-name="m" unicode="m" horiz-adv-x="954" 
d="M67 0v495h133v-65q26 38 67.5 56.5t81.5 18.5q54 0 96.5 -16.5t73.5 -61.5q33 43 76.5 60.5t92.5 17.5q98 0 152 -59t54 -162v-284h-137v268q0 48 -21 81.5t-79 33.5q-56 0 -82 -34.5t-26 -97.5v-251h-137v268q0 48 -23 81.5t-77 33.5t-81 -34.5t-27 -89.5v-259h-137z
" />
    <glyph glyph-name="n" unicode="n" horiz-adv-x="620" 
d="M67 0v495h135v-64q18 24 39 38.5t41.5 22.5t39 10.5t30.5 2.5q67 0 108.5 -21.5t64 -54.5t30 -73.5t7.5 -79.5v-276h-137v270q0 54 -23.5 84.5t-77.5 30.5q-31 0 -54 -10.5t-37.5 -27.5t-21.5 -39.5t-7 -45.5v-262h-137z" />
    <glyph glyph-name="o" unicode="o" horiz-adv-x="605" 
d="M28 244q0 49 17.5 96t52 83.5t86 59t119.5 22.5t119.5 -22.5t86 -59.5t51.5 -84t17 -96q0 -56 -21.5 -102.5t-58.5 -80t-87 -52t-107 -18.5t-107 18.5t-87.5 52t-59 80.5t-21.5 103zM303 109q66 0 104.5 40t38.5 98q0 59 -38 99.5t-105 40.5q-66 0 -104.5 -40.5
t-38.5 -99.5q0 -57 38.5 -97.5t104.5 -40.5z" />
    <glyph glyph-name="p" unicode="p" horiz-adv-x="646" 
d="M67 -220v715h133v-65q28 35 74 55t97 20q46 0 89 -16.5t76 -49t53 -80.5t20 -110q0 -56 -17 -103.5t-48.5 -82t-76 -54t-99.5 -19.5q-54 0 -96.5 17.5t-67.5 44.5v-272h-137zM337 100q31 0 55.5 11.5t42 31t27 46t9.5 55.5t-9 55t-26.5 45.5t-42 31t-55.5 11.5t-56 -11.5
t-42.5 -31.5t-27 -46t-9.5 -55t9.5 -55t26.5 -45.5t42 -31t56 -11.5z" />
    <glyph glyph-name="q" unicode="q" horiz-adv-x="644" 
d="M442 -224v287q-26 -32 -68 -52.5t-93 -20.5q-56 0 -102 19t-79 53.5t-51 82t-18 104.5q0 56 17.5 103t50 81t78.5 53t103 19q61 0 100 -21t65 -54v65h133v-719h-136zM306 100q32 0 57 11.5t43 31.5t27.5 46t9.5 56q0 29 -10 55.5t-28 46.5t-43.5 32t-57.5 12
q-31 0 -56.5 -11.5t-43 -31.5t-27 -46.5t-9.5 -56.5t9.5 -56t27.5 -46t43.5 -31.5t57.5 -11.5z" />
    <glyph glyph-name="r" unicode="r" horiz-adv-x="527" 
d="M67 0v495h135v-64q24 35 57.5 54t70.5 21q36 2 71.5 -9.5t61 -38.5t36 -69.5t-4.5 -101.5h-122q11 51 -9.5 80.5t-65.5 27.5q-48 -2 -70.5 -38.5t-22.5 -90.5v-266h-137z" />
    <glyph glyph-name="s" unicode="s" horiz-adv-x="544" 
d="M378 338q-1 32 -32 47.5t-76 15.5q-46 1 -72.5 -10t-26.5 -31t28 -31t95 -25q40 -8 79 -19.5t69.5 -29.5t49.5 -44t19 -64q0 -43 -18.5 -72.5t-50 -48.5t-73 -27.5t-87.5 -8.5q-48 0 -92.5 8t-79 28t-55 54t-21.5 86h129q6 -41 38.5 -57t85.5 -16q41 0 65.5 11t23.5 35
q0 17 -11.5 28t-30.5 19t-43.5 13.5t-51.5 10.5q-100 20 -149.5 51.5t-49.5 96.5q0 40 18.5 68t50.5 45.5t74 25.5t90 8q46 0 87 -9t72.5 -29t51 -51.5t21.5 -77.5h-127z" />
    <glyph glyph-name="t" unicode="t" horiz-adv-x="479" 
d="M121 495v138h136v-138h190v-107h-190v-230q0 -43 45 -43q24 0 57.5 15.5t65.5 46.5l42 -97q-39 -46 -97 -69t-109 -23q-66 0 -103 36.5t-37 107.5v256h-105v107h105z" />
    <glyph glyph-name="u" unicode="u" horiz-adv-x="624" 
d="M429 0l-10 89q-11 -28 -29.5 -47.5t-40 -30.5t-45 -16t-43.5 -5q-94 0 -147.5 52.5t-53.5 176.5v276h136v-260q0 -66 23 -97.5t80 -31.5q116 0 116 134v255h137v-384l10 -111h-133z" />
    <glyph glyph-name="v" unicode="v" horiz-adv-x="547" 
d="M194 0l-188 495h144l123 -331l126 331h141l-193 -495h-153z" />
    <glyph glyph-name="w" unicode="w" horiz-adv-x="912" 
d="M200 0l-194 495h144l130 -331l128 331h94l135 -331l124 331h138l-194 -495h-137l-115 298l-116 -298h-137z" />
    <glyph glyph-name="x" unicode="x" horiz-adv-x="564" 
d="M3 0l199 249l-196 246h161l115 -146l115 146h163l-198 -246l200 -249h-163l-117 149l-118 -149h-161z" />
    <glyph glyph-name="y" unicode="y" horiz-adv-x="570" 
d="M87 -48q11 -4 25 -4q32 0 57.5 13.5t39.5 44.5l6 14l-214 475h143l144 -330l143 330h137l-241 -536q-30 -67 -85.5 -97.5t-124.5 -27.5q-11 1 -26.5 3t-26.5 6l-60 12l36 107z" />
    <glyph glyph-name="z" unicode="z" horiz-adv-x="497" 
d="M20 0v92l275 284h-274v119h454v-98l-268 -278h268v-119h-455z" />
    <glyph glyph-name="braceleft" unicode="{" horiz-adv-x="350" 
d="M327 -170h-55q-70 0 -109.5 34.5t-39.5 107.5v201q0 15 -6.5 22.5t-17 10.5t-23.5 3.5t-25 0.5v83q12 0 25 0.5t23.5 4t17 11t6.5 22.5v201q0 72 39.5 106.5t109.5 34.5h55v-92q-17 0 -33 -0.5t-28 -6t-19.5 -17t-7.5 -33.5v-192q0 -24 -7 -46t-30 -34q23 -13 30 -34
t7 -47v-191q0 -22 7.5 -33.5t19.5 -17t28 -6t33 -0.5v-93z" />
    <glyph glyph-name="bar" unicode="|" horiz-adv-x="300" 
d="M111 -170v843h84v-843h-84z" />
    <glyph glyph-name="braceright" unicode="}" horiz-adv-x="354" 
d="M26 -170v93q17 0 33 0.5t28.5 5.5t20 16.5t7.5 34.5v191q0 26 6.5 47t29.5 34q-23 12 -29.5 34t-6.5 46v192q0 23 -7.5 34.5t-19.5 16.5t-28 5.5t-34 0.5v92h55q70 0 110 -34.5t40 -106.5v-202q0 -16 6 -23.5t16 -10.5t22.5 -3h25.5v-83q-13 0 -25.5 0.5t-22.5 -2.5
t-16 -11t-6 -24v-201q0 -72 -40 -107t-110 -35h-55z" />
    <glyph glyph-name="asciitilde" unicode="~" horiz-adv-x="552" 
d="M48 238q2 33 8.5 63t22 53.5t41.5 37t65 13.5q35 0 61.5 -13t47.5 -29t38 -29t34 -13q15 0 24 8t13.5 20t6 25.5t1.5 25.5h92q-1 -33 -8 -63t-22.5 -53.5t-41 -37.5t-65.5 -14q-34 0 -61 13.5t-48 29t-38.5 29t-32.5 13.5t-24 -8t-13.5 -20t-6.5 -26t-2 -25h-92z" />
    <glyph glyph-name="exclamdown" unicode="&#xa1;" horiz-adv-x="272" 
d="M63 424q0 23 18 45.5t56 22.5t55.5 -23.5t17.5 -44.5q0 -23 -18 -45t-55 -22t-55.5 21.5t-18.5 45.5zM70 -135l17 429h98l18 -429h-133z" />
    <glyph glyph-name="cent" unicode="&#xa2;" horiz-adv-x="582" 
d="M275 -111v103q-49 6 -92 26.5t-75 54t-50 78t-18 97.5q0 44 15 87.5t44 78.5t73.5 59t102.5 30v96h84v-97q66 -9 113 -41.5t74 -79.5l-95 -61q-36 50 -92 63v-270q30 7 55 22.5t42 37.5l95 -52q-29 -52 -79 -85t-113 -43v-104h-84zM275 381q-46 -12 -71.5 -48t-25.5 -85
t26 -85t71 -48v266z" />
    <glyph glyph-name="sterling" unicode="&#xa3;" horiz-adv-x="618" 
d="M80 0v98l43 148h-108v77h108l-21 77q-14 52 -2.5 98t44.5 80t86 53.5t122 19.5q118 0 179.5 -57.5t49.5 -160.5l-109 -24q2 35 -6.5 59.5t-25 39.5t-40 22t-51.5 7q-31 0 -57.5 -7t-43.5 -22.5t-23.5 -39.5t2.5 -57l24 -88h231v-77h-230l-42 -139h363v-107h-493z" />
    <glyph glyph-name="currency" unicode="&#xa4;" horiz-adv-x="673" 
d="M102 -12l-74 77l92 91q-21 30 -33 65t-12 72q0 36 11.5 70.5t31.5 64.5l-90 89l74 78l97 -95q32 20 66.5 29t70.5 9t71 -9t66 -28l96 94l75 -78l-90 -88q21 -30 32.5 -64.5t11.5 -71.5q0 -38 -12 -73t-34 -64l92 -91l-76 -77l-97 96q-31 -19 -65.5 -27.5t-69.5 -8.5
t-70 8.5t-65 27.5zM336 148q30 0 57 11t48 30.5t33.5 46t12.5 57.5q0 30 -12.5 56.5t-33 46t-48 31t-57.5 11.5t-57 -11.5t-47 -31t-32 -46t-12 -56.5t12 -56.5t32.5 -46t47 -31t56.5 -11.5z" />
    <glyph glyph-name="yen" unicode="&#xa5;" horiz-adv-x="652" 
d="M257 0v62h-146v75h146v67h-146v81h108l-222 356h152l180 -291l182 291h145l-222 -356h107v-81h-146v-67h146v-75h-146v-62h-138z" />
    <glyph glyph-name="brokenbar" unicode="&#xa6;" horiz-adv-x="300" 
d="M107 343v330h86v-330h-86zM107 -170v330h86v-330h-86z" />
    <glyph glyph-name="section" unicode="&#xa7;" horiz-adv-x="471" 
d="M50 56l30 71q32 -25 67 -39t76 -14q14 0 29.5 2.5t28 9t20.5 17.5t8 28q0 24 -18.5 36t-46.5 20.5t-60 16t-60 21t-46.5 37.5t-18.5 64q0 31 14.5 57t40.5 43q-20 15 -29 36t-9 46q0 38 17.5 63t45 40.5t60.5 22t64 6.5q37 0 81 -10t73 -33l-30 -70q-30 21 -61 30.5
t-68 9.5q-14 0 -31 -2t-31.5 -8t-24.5 -17t-10 -30q0 -23 18.5 -35t46.5 -20t60 -15.5t60 -21.5t46.5 -38.5t18.5 -65.5q0 -31 -14.5 -55.5t-39.5 -41.5q37 -33 37 -84q0 -35 -16 -60t-41 -40.5t-56 -23t-61 -7.5q-43 0 -89 13.5t-81 40.5zM280 252q20 7 33.5 22.5
t13.5 38.5q0 21 -15.5 34t-37 21t-45 12.5t-38.5 9.5q-21 -7 -35 -22.5t-14 -38.5q0 -21 15.5 -34t37.5 -21.5t45.5 -13t39.5 -8.5z" />
    <glyph glyph-name="dieresis" unicode="&#xa8;" horiz-adv-x="569" 
d="M389 547q-25 0 -43 15t-18 41t18 41.5t43 15.5q24 0 42.5 -16t18.5 -41q0 -26 -18.5 -41t-42.5 -15zM202 547q-25 0 -43 15t-18 41t18 41.5t43 15.5t43 -15.5t18 -41.5t-18 -41t-43 -15z" />
    <glyph glyph-name="copyright" unicode="&#xa9;" horiz-adv-x="738" 
d="M32 320q0 71 26.5 131t72 104t107.5 69t132 25q71 0 132 -24.5t106.5 -68t71.5 -103.5t26 -131q0 -70 -26.5 -130.5t-72 -105t-107 -69.5t-132.5 -25q-70 0 -131.5 25t-107 69t-71.5 104t-26 130zM369 47q60 0 110.5 21.5t88 58.5t58.5 87t21 108q0 59 -21 108.5
t-57.5 85.5t-87 56.5t-110.5 20.5q-59 0 -110 -21t-88.5 -57.5t-59 -86.5t-21.5 -108q0 -57 21 -107t58.5 -86.5t88 -58t109.5 -21.5zM376 145q-92 0 -140.5 47t-48.5 132q0 78 51 125.5t136 47.5q30 0 59.5 -7t52 -23t36.5 -40.5t14 -60.5h-75q0 32 -24 47.5t-65 15.5
q-49 0 -80.5 -28.5t-31.5 -79.5t31.5 -79.5t80.5 -28.5q41 0 65 15.5t24 47.5h75q0 -36 -14 -60.5t-36.5 -40.5t-51 -23t-58.5 -7z" />
    <glyph glyph-name="ordfeminine" unicode="&#xaa;" horiz-adv-x="364" 
d="M68 569q5 41 38.5 64t90.5 23q60 0 88.5 -29.5t28.5 -69.5v-170h-68v32q-13 -16 -37.5 -26.5t-55.5 -11.5q-33 0 -60.5 14t-32.5 50q-7 40 22 63.5t71 27.5l76 9q10 2 13.5 5.5t2.5 14.5q0 14 -12.5 23.5t-38.5 9.5q-56 0 -62 -43zM245 502l-72 -10q-23 -3 -33 -12
t-9 -20q2 -14 15.5 -20.5t30.5 -4.5q26 2 47 17t21 41v9z" />
    <glyph glyph-name="guillemotleft" unicode="&#xab;" horiz-adv-x="516" 
d="M174 65l-138 179l138 180h113l-135 -180l135 -179h-113zM366 65l-137 179l137 180h113l-134 -180l134 -179h-113z" />
    <glyph glyph-name="logicalnot" unicode="&#xac;" horiz-adv-x="551" 
d="M61 272v93h430v-248h-108v155h-322z" />
    <glyph glyph-name="uni00AD" unicode="&#xad;" horiz-adv-x="404" 
d="M51 207v88h271v-88h-271z" />
    <glyph glyph-name="registered" unicode="&#xae;" horiz-adv-x="734" 
d="M32 320q0 71 26.5 131t72 104t107.5 69t132 25q71 0 132 -24.5t106.5 -68t71.5 -103.5t26 -131q0 -70 -26.5 -130.5t-72 -105t-107 -69.5t-132.5 -25q-70 0 -131.5 25t-107 69t-71.5 104t-26 130zM369 47q60 0 110.5 21.5t88 58.5t58.5 87t21 108q0 59 -21 108.5
t-57.5 85.5t-87 56.5t-110.5 20.5q-59 0 -110 -21t-88.5 -57.5t-59 -86.5t-21.5 -108q0 -57 21 -107t58.5 -86.5t88 -58t109.5 -21.5zM520 240l21 -104h-74l-21 99q-6 28 -29 36t-52 8h-59v-143h-72v367h164q65 0 103 -24.5t38 -76.5q0 -42 -23 -66.5t-54 -33.5
q20 -7 36.5 -21.5t21.5 -40.5zM306 334h84q33 0 54.5 10.5t21.5 45.5q0 33 -20 43t-49 10h-91v-109z" />
    <glyph glyph-name="macron" unicode="&#xaf;" horiz-adv-x="568" 
d="M123 562v76h321v-76h-321z" />
    <glyph glyph-name="degree" unicode="&#xb0;" horiz-adv-x="377" 
d="M188 355q-31 0 -57.5 11.5t-46.5 31t-31.5 46.5t-11.5 58t11.5 57.5t31.5 46t47 30.5t57 11q31 0 58 -11t47.5 -30.5t32 -46t11.5 -57.5t-11.5 -58t-32 -46.5t-47.5 -31t-58 -11.5zM188 422q34 0 56.5 23t22.5 57t-22.5 57t-56.5 23q-35 0 -57 -23t-22 -57
q0 -35 22 -57.5t57 -22.5z" />
    <glyph glyph-name="plusminus" unicode="&#xb1;" horiz-adv-x="551" 
d="M61 315v92h162v152h106v-152h162v-92h-162v-153h-106v153h-162zM61 0v93h430v-93h-430z" />
    <glyph glyph-name="twosuperior" unicode="&#xb2;" horiz-adv-x="378" 
d="M54 554q1 56 39.5 88t92.5 32q52 0 90.5 -30t38.5 -86q0 -46 -23 -73.5t-52.5 -46.5t-57.5 -35.5t-39 -41.5h175v-64h-266q1 46 15 76.5t35.5 51.5t46 35t45.5 27.5t35 29.5t14 40q0 26 -17 39t-42 13q-29 0 -44.5 -17t-16.5 -45z" />
    <glyph glyph-name="threesuperior" unicode="&#xb3;" horiz-adv-x="357" 
d="M114 512l96 84h-157v63h249v-57l-95 -82q47 -2 77 -34t30 -80q0 -30 -12 -52t-31.5 -37t-43.5 -22.5t-49 -7.5q-24 0 -47.5 7.5t-42.5 21.5t-31.5 35.5t-15.5 49.5l68 13q2 -31 22 -47.5t46 -16.5q24 0 44.5 13t20.5 43q0 31 -19.5 47.5t-43.5 16.5q-13 0 -31 -7z" />
    <glyph glyph-name="acute" unicode="&#xb4;" horiz-adv-x="584" 
d="M199 553l125 116h130l-162 -116h-93z" />
    <glyph glyph-name="uni00B5" unicode="&#xb5;" horiz-adv-x="614" 
d="M82 -171v655h107v-267q0 -58 27 -94t90 -36q69 0 102 41t33 106v250h107v-484h-102v53q-26 -30 -62.5 -44t-76.5 -14q-32 0 -63 8.5t-55 31.5v-206h-107z" />
    <glyph glyph-name="paragraph" unicode="&#xb6;" horiz-adv-x="583" 
d="M211 372q-72 0 -116.5 37.5t-44.5 100.5q0 64 50 101.5t133 37.5h248v-652h-87v555h-95v-555h-88v375z" />
    <glyph glyph-name="periodcentered" unicode="&#xb7;" horiz-adv-x="281" 
d="M59 271q0 30 22.5 55.5t64.5 25.5t63.5 -25.5t21.5 -55.5q0 -28 -21 -54.5t-64 -26.5t-65 26t-22 55z" />
    <glyph glyph-name="cedilla" unicode="&#xb8;" horiz-adv-x="572" 
d="M172 -188l26 55q14 -8 31.5 -12t33.5 -4q15 0 29 6t14 25q0 13 -10 19.5t-23.5 9.5t-28 3h-23.5l29 100h70l-14 -53q35 -5 60.5 -23.5t25.5 -58.5q0 -25 -11.5 -42.5t-29.5 -28t-40 -15.5t-43 -5q-27 0 -49.5 5t-46.5 19z" />
    <glyph glyph-name="onesuperior" unicode="&#xb9;" horiz-adv-x="253" 
d="M110 298v279h-47v50q23 3 50.5 13.5t39.5 26.5h37v-369h-80z" />
    <glyph glyph-name="ordmasculine" unicode="&#xba;" horiz-adv-x="385" 
d="M39 507q0 27 10 53.5t29.5 47.5t48.5 33.5t68 12.5t68.5 -13t49 -33.5t29 -47t9.5 -53.5q0 -33 -12 -59.5t-33 -46t-49.5 -30t-61.5 -10.5q-32 0 -60.5 10.5t-49.5 30t-33.5 46t-12.5 59.5zM195 426q35 0 55.5 23.5t20.5 57.5q0 35 -20.5 58.5t-55.5 23.5t-55 -23.5
t-20 -58.5q0 -34 20 -57.5t55 -23.5z" />
    <glyph glyph-name="guillemotright" unicode="&#xbb;" horiz-adv-x="518" 
d="M31 65l135 179l-135 180h113l138 -180l-138 -179h-113zM223 65l135 179l-135 180h113l138 -180l-138 -179h-113z" />
    <glyph glyph-name="onequarter" unicode="&#xbc;" horiz-adv-x="712" 
d="M537 641h84l-467 -641h-84zM115 304v254h-43v46q22 3 46.5 13t35.5 24h35v-337h-74zM365 60v44l160 216h80v-202h44v-57h-44v-61h-70v61zM442 118h95v127z" />
    <glyph glyph-name="onehalf" unicode="&#xbd;" horiz-adv-x="789" 
d="M537 641h84l-467 -641h-84zM115 301v256h-44v47q22 3 47 13t36 24h35v-340h-74zM459 237q1 51 36 80.5t85 29.5q48 0 83 -27.5t35 -78.5q0 -42 -21 -67t-48 -42.5t-53 -32.5t-35 -38h160v-59h-244q1 43 14 70.5t32 46.5t41.5 32t42 25t32 27t12.5 37q0 23 -15 34.5
t-38 11.5q-26 0 -40.5 -15t-14.5 -41z" />
    <glyph glyph-name="threequarters" unicode="&#xbe;" horiz-adv-x="754" 
d="M580 641h85l-467 -641h-84zM107 501l91 80h-150v60h239v-55l-91 -77q45 -2 73.5 -32.5t28.5 -77.5q0 -28 -11.5 -49t-30 -35t-41.5 -21.5t-47 -7.5q-47 0 -86.5 27.5t-44.5 81.5l66 12q2 -29 20 -44.5t44 -15.5q23 0 42 12t19 41t-18 44.5t-41 15.5q-16 0 -30 -7zM400 64
v45l164 221h82v-206l45 -1v-58h-45v-62h-71v62zM479 124h97v130z" />
    <glyph glyph-name="questiondown" unicode="&#xbf;" horiz-adv-x="546" 
d="M201 431q0 35 23.5 55.5t54.5 20.5q32 0 55 -20.5t23 -55.5t-23.5 -56t-54.5 -21t-54.5 21t-23.5 56zM340 277q0 -60 -25.5 -95t-56.5 -61t-57 -51.5t-26 -64.5q0 -42 28.5 -64.5t73.5 -22.5q27 0 47.5 10t35 26t21.5 36.5t7 41.5l119 -17q0 -44 -17 -82.5t-48 -67
t-75 -45t-97 -16.5q-46 0 -87 12t-71 35.5t-47.5 58.5t-17.5 80q0 40 13.5 68t34 50t44.5 40t45 37t34.5 40.5t14.5 51.5h107z" />
    <glyph glyph-name="Agrave" unicode="&#xc0;" horiz-adv-x="631" 
d="M429 147h-228l-46 -147h-145l206 641h198l206 -641h-146zM394 266l-79 255l-79 -255h158zM112 815h129l126 -116h-93z" />
    <glyph glyph-name="Aacute" unicode="&#xc1;" horiz-adv-x="631" 
d="M429 147h-228l-46 -147h-145l206 641h198l206 -641h-146zM394 266l-79 255l-79 -255h158zM266 699l125 116h130l-162 -116h-93z" />
    <glyph glyph-name="Acircumflex" unicode="&#xc2;" horiz-adv-x="631" 
d="M429 147h-228l-46 -147h-145l206 641h198l206 -641h-146zM394 266l-79 255l-79 -255h158zM124 699l143 137h97l143 -137h-116l-75 68l-75 -68h-117z" />
    <glyph glyph-name="Atilde" unicode="&#xc3;" horiz-adv-x="631" 
d="M429 147h-228l-46 -147h-145l206 641h198l206 -641h-146zM394 266l-79 255l-79 -255h158zM154 689q2 23 7 45.5t16.5 40t30 28t45.5 10.5q22 0 39.5 -9.5t32 -20.5t26 -20.5t20.5 -9.5q21 0 28 18t7 35h70q-1 -23 -7 -44.5t-17 -38.5t-29 -27.5t-45 -10.5q-22 0 -40 9.5
t-32.5 20.5t-26 20.5t-20.5 9.5q-21 0 -28 -19.5t-7 -36.5h-70z" />
    <glyph glyph-name="Adieresis" unicode="&#xc4;" horiz-adv-x="631" 
d="M429 147h-228l-46 -147h-145l206 641h198l206 -641h-146zM394 266l-79 255l-79 -255h158zM409 693q-25 0 -43 15t-18 41t18 41.5t43 15.5q24 0 42.5 -16t18.5 -41q0 -26 -18.5 -41t-42.5 -15zM222 693q-25 0 -43 15t-18 41t18 41.5t43 15.5t43 -15.5t18 -41.5t-18 -41
t-43 -15z" />
    <glyph glyph-name="Aring" unicode="&#xc5;" horiz-adv-x="631" 
d="M429 147h-228l-46 -147h-145l206 641h198l206 -641h-146zM394 266l-79 255l-79 -255h158zM202 775q0 18 7.5 37.5t21.5 35t35 25.5t49 10q29 0 50.5 -10t35.5 -25.5t21.5 -34.5t7.5 -38t-7.5 -38t-22 -34t-36 -24.5t-49.5 -9.5t-49 9.5t-35 25t-21.5 34.5t-7.5 37z
M315 733q16 0 27.5 11.5t11.5 30.5q0 20 -11.5 31.5t-27.5 11.5t-26.5 -11.5t-10.5 -31.5q0 -19 11 -30.5t26 -11.5z" />
    <glyph glyph-name="AE" unicode="&#xc6;" horiz-adv-x="930" 
d="M397 147h-196l-46 -147h-145l206 641l668 1v-121h-346v-139h303v-115h-303v-145h345v-122h-486v147zM397 266v250h-84l-77 -250h161z" />
    <glyph glyph-name="Ccedilla" unicode="&#xc7;" horiz-adv-x="724" 
d="M252 -188l26 55q14 -8 31.5 -12t33.5 -4q15 0 29 6t14 25q0 13 -10 19.5t-23.5 9.5t-28 3h-23.5l23 79q-145 14 -220 98.5t-75 229.5q0 73 24.5 134t69.5 104.5t109.5 68t144.5 24.5q57 0 112.5 -13.5t99.5 -42.5t71 -76t27 -114h-142q0 58 -45 87.5t-121 29.5
q-92 0 -149 -52.5t-57 -149.5t57 -149.5t149 -52.5q76 0 121 29.5t45 88.5h142q0 -65 -25.5 -111.5t-66.5 -76t-94 -43.5t-107 -15l-8 -30q35 -5 60.5 -23.5t25.5 -58.5q0 -25 -11.5 -42.5t-29.5 -28t-40 -15.5t-43 -5q-27 0 -49.5 5t-46.5 19z" />
    <glyph glyph-name="Egrave" unicode="&#xc8;" 
d="M80 0v641h487v-121h-347v-139h304v-115h-304v-144h345v-122h-485zM129 815h129l126 -116h-93z" />
    <glyph glyph-name="Eacute" unicode="&#xc9;" 
d="M80 0v641h487v-121h-347v-139h304v-115h-304v-144h345v-122h-485zM237 699l125 116h130l-162 -116h-93z" />
    <glyph glyph-name="Ecircumflex" unicode="&#xca;" 
d="M80 0v641h487v-121h-347v-139h304v-115h-304v-144h345v-122h-485zM115 699l143 137h97l143 -137h-116l-75 68l-75 -68h-117z" />
    <glyph glyph-name="Edieresis" unicode="&#xcb;" 
d="M80 0v641h487v-121h-347v-139h304v-115h-304v-144h345v-122h-485zM400 693q-25 0 -43 15t-18 41t18 41.5t43 15.5q24 0 42.5 -16t18.5 -41q0 -26 -18.5 -41t-42.5 -15zM213 693q-25 0 -43 15t-18 41t18 41.5t43 15.5t43 -15.5t18 -41.5t-18 -41t-43 -15z" />
    <glyph glyph-name="Igrave" unicode="&#xcc;" horiz-adv-x="301" 
d="M80 0v641h140v-641h-140zM-55 815h129l126 -116h-93z" />
    <glyph glyph-name="Iacute" unicode="&#xcd;" horiz-adv-x="301" 
d="M80 0v641h140v-641h-140zM97 699l125 116h130l-162 -116h-93z" />
    <glyph glyph-name="Icircumflex" unicode="&#xce;" horiz-adv-x="301" 
d="M80 0v641h140v-641h-140zM-41 699l143 137h97l143 -137h-116l-75 68l-75 -68h-117z" />
    <glyph glyph-name="Idieresis" unicode="&#xcf;" horiz-adv-x="301" 
d="M80 0v641h140v-641h-140zM244 693q-25 0 -43 15t-18 41t18 41.5t43 15.5q24 0 42.5 -16t18.5 -41q0 -26 -18.5 -41t-42.5 -15zM57 693q-25 0 -43 15t-18 41t18 41.5t43 15.5t43 -15.5t18 -41.5t-18 -41t-43 -15z" />
    <glyph glyph-name="Eth" unicode="&#xd0;" horiz-adv-x="834" 
d="M11 384h87v257h286q86 0 153 -26t112.5 -70t69 -102t23.5 -123t-23.5 -123t-69 -102t-112.5 -69.5t-153 -25.5h-286v293h-87v91zM239 113l139 1q104 1 164.5 57t60.5 149q0 47 -15.5 85t-45 65.5t-71 42.5t-93.5 15h-139v-144h172v-91h-172v-180z" />
    <glyph glyph-name="Ntilde" unicode="&#xd1;" horiz-adv-x="742" 
d="M80 0v641h123l319 -405v405h140v-641h-123l-319 405v-405h-140zM210 689q2 23 7 45.5t16.5 40t30 28t45.5 10.5q22 0 39.5 -9.5t32 -20.5t26 -20.5t20.5 -9.5q21 0 28 18t7 35h70q-1 -23 -7 -44.5t-17 -38.5t-29 -27.5t-45 -10.5q-22 0 -40 9.5t-32.5 20.5t-26 20.5
t-20.5 9.5q-21 0 -28 -19.5t-7 -36.5h-70z" />
    <glyph glyph-name="Ograve" unicode="&#xd2;" horiz-adv-x="765" 
d="M29 321q0 75 28.5 136t77.5 104.5t113 67t136 23.5q71 0 135 -23.5t112 -67t76.5 -104.5t28.5 -136t-28.5 -136t-76.5 -104.5t-112 -67t-136 -23.5q-71 0 -135.5 23.5t-113 67t-77 104.5t-28.5 136zM383 118q45 0 84 15.5t67.5 42.5t44.5 64.5t16 80.5q0 44 -16 81
t-44.5 64.5t-67.5 43t-84 15.5q-46 0 -85 -15.5t-67.5 -42.5t-45 -64.5t-16.5 -81.5q0 -43 16.5 -80.5t45 -64.5t67.5 -42.5t85 -15.5zM177 815h129l126 -116h-93z" />
    <glyph glyph-name="Oacute" unicode="&#xd3;" horiz-adv-x="765" 
d="M29 321q0 75 28.5 136t77.5 104.5t113 67t136 23.5q71 0 135 -23.5t112 -67t76.5 -104.5t28.5 -136t-28.5 -136t-76.5 -104.5t-112 -67t-136 -23.5q-71 0 -135.5 23.5t-113 67t-77 104.5t-28.5 136zM383 118q45 0 84 15.5t67.5 42.5t44.5 64.5t16 80.5q0 44 -16 81
t-44.5 64.5t-67.5 43t-84 15.5q-46 0 -85 -15.5t-67.5 -42.5t-45 -64.5t-16.5 -81.5q0 -43 16.5 -80.5t45 -64.5t67.5 -42.5t85 -15.5zM309 699l125 116h130l-162 -116h-93z" />
    <glyph glyph-name="Ocircumflex" unicode="&#xd4;" horiz-adv-x="765" 
d="M29 321q0 75 28.5 136t77.5 104.5t113 67t136 23.5q71 0 135 -23.5t112 -67t76.5 -104.5t28.5 -136t-28.5 -136t-76.5 -104.5t-112 -67t-136 -23.5q-71 0 -135.5 23.5t-113 67t-77 104.5t-28.5 136zM383 118q45 0 84 15.5t67.5 42.5t44.5 64.5t16 80.5q0 44 -16 81
t-44.5 64.5t-67.5 43t-84 15.5q-46 0 -85 -15.5t-67.5 -42.5t-45 -64.5t-16.5 -81.5q0 -43 16.5 -80.5t45 -64.5t67.5 -42.5t85 -15.5zM191 699l143 137h97l143 -137h-116l-75 68l-75 -68h-117z" />
    <glyph glyph-name="Otilde" unicode="&#xd5;" horiz-adv-x="765" 
d="M29 321q0 75 28.5 136t77.5 104.5t113 67t136 23.5q71 0 135 -23.5t112 -67t76.5 -104.5t28.5 -136t-28.5 -136t-76.5 -104.5t-112 -67t-136 -23.5q-71 0 -135.5 23.5t-113 67t-77 104.5t-28.5 136zM383 118q45 0 84 15.5t67.5 42.5t44.5 64.5t16 80.5q0 44 -16 81
t-44.5 64.5t-67.5 43t-84 15.5q-46 0 -85 -15.5t-67.5 -42.5t-45 -64.5t-16.5 -81.5q0 -43 16.5 -80.5t45 -64.5t67.5 -42.5t85 -15.5zM221 689q2 23 7 45.5t16.5 40t30 28t45.5 10.5q22 0 39.5 -9.5t32 -20.5t26 -20.5t20.5 -9.5q21 0 28 18t7 35h70q-1 -23 -7 -44.5
t-17 -38.5t-29 -27.5t-45 -10.5q-22 0 -40 9.5t-32.5 20.5t-26 20.5t-20.5 9.5q-21 0 -28 -19.5t-7 -36.5h-70z" />
    <glyph glyph-name="Odieresis" unicode="&#xd6;" horiz-adv-x="765" 
d="M29 321q0 75 28.5 136t77.5 104.5t113 67t136 23.5q71 0 135 -23.5t112 -67t76.5 -104.5t28.5 -136t-28.5 -136t-76.5 -104.5t-112 -67t-136 -23.5q-71 0 -135.5 23.5t-113 67t-77 104.5t-28.5 136zM383 118q45 0 84 15.5t67.5 42.5t44.5 64.5t16 80.5q0 44 -16 81
t-44.5 64.5t-67.5 43t-84 15.5q-46 0 -85 -15.5t-67.5 -42.5t-45 -64.5t-16.5 -81.5q0 -43 16.5 -80.5t45 -64.5t67.5 -42.5t85 -15.5zM476 693q-25 0 -43 15t-18 41t18 41.5t43 15.5q24 0 42.5 -16t18.5 -41q0 -26 -18.5 -41t-42.5 -15zM289 693q-25 0 -43 15t-18 41
t18 41.5t43 15.5t43 -15.5t18 -41.5t-18 -41t-43 -15z" />
    <glyph glyph-name="multiply" unicode="&#xd7;" horiz-adv-x="559" 
d="M162 133l-66 72l114 113l-114 114l66 71l117 -116l117 116l67 -71l-114 -114l114 -113l-67 -72l-117 117z" />
    <glyph glyph-name="Oslash" unicode="&#xd8;" horiz-adv-x="766" 
d="M180 -77l38 103q-84 39 -136.5 115t-52.5 180q0 75 28.5 136t77.5 104.5t113 67t136 23.5q15 0 30 -1t29 -4l26 72h110l-37 -100q86 -38 140 -115t54 -183q0 -75 -28.5 -136t-76.5 -104.5t-112 -67t-136 -23.5q-17 0 -33.5 1.5t-33.5 3.5l-26 -72h-110zM398 523
q-18 2 -36 0q-42 -3 -77 -19.5t-61 -43.5t-40.5 -62.5t-14.5 -76.5q0 -55 25.5 -99.5t68.5 -70.5zM383 118q45 0 84 15.5t67.5 42.5t44.5 64.5t16 80.5q0 57 -26 102.5t-71 71.5l-137 -376q5 -1 10.5 -1h11.5z" />
    <glyph glyph-name="Ugrave" unicode="&#xd9;" horiz-adv-x="722" 
d="M215 641v-359q0 -77 34.5 -122t118.5 -45q83 0 117 45.5t34 121.5v359h137v-362q0 -54 -14.5 -105.5t-48.5 -92t-89.5 -65t-136.5 -24.5t-136.5 24.5t-90 65t-50 92t-15.5 105.5v362h140zM154 815h129l126 -116h-93z" />
    <glyph glyph-name="Uacute" unicode="&#xda;" horiz-adv-x="722" 
d="M215 641v-359q0 -77 34.5 -122t118.5 -45q83 0 117 45.5t34 121.5v359h137v-362q0 -54 -14.5 -105.5t-48.5 -92t-89.5 -65t-136.5 -24.5t-136.5 24.5t-90 65t-50 92t-15.5 105.5v362h140zM294 699l125 116h130l-162 -116h-93z" />
    <glyph glyph-name="Ucircumflex" unicode="&#xdb;" horiz-adv-x="722" 
d="M215 641v-359q0 -77 34.5 -122t118.5 -45q83 0 117 45.5t34 121.5v359h137v-362q0 -54 -14.5 -105.5t-48.5 -92t-89.5 -65t-136.5 -24.5t-136.5 24.5t-90 65t-50 92t-15.5 105.5v362h140zM170 699l143 137h97l143 -137h-116l-75 68l-75 -68h-117z" />
    <glyph glyph-name="Udieresis" unicode="&#xdc;" horiz-adv-x="722" 
d="M215 641v-359q0 -77 34.5 -122t118.5 -45q83 0 117 45.5t34 121.5v359h137v-362q0 -54 -14.5 -105.5t-48.5 -92t-89.5 -65t-136.5 -24.5t-136.5 24.5t-90 65t-50 92t-15.5 105.5v362h140zM455 693q-25 0 -43 15t-18 41t18 41.5t43 15.5q24 0 42.5 -16t18.5 -41
q0 -26 -18.5 -41t-42.5 -15zM268 693q-25 0 -43 15t-18 41t18 41.5t43 15.5t43 -15.5t18 -41.5t-18 -41t-43 -15z" />
    <glyph glyph-name="Yacute" unicode="&#xdd;" horiz-adv-x="679" 
d="M266 0v219l-259 422h165l167 -276l166 276h160l-259 -425v-216h-140zM288 699l125 116h130l-162 -116h-93z" />
    <glyph glyph-name="Thorn" unicode="&#xde;" horiz-adv-x="684" 
d="M96 0v639h130v-75h132q63 0 114.5 -15.5t88 -44.5t56.5 -71.5t20 -96.5t-20 -96t-56.5 -71t-88 -44.5t-114.5 -15.5h-132v-109h-130zM226 214h129q70 0 111 29t41 93t-41 93t-111 29h-129v-244z" />
    <glyph glyph-name="germandbls" unicode="&#xdf;" horiz-adv-x="642" 
d="M82 0v445q0 47 14 89.5t44 75t76 51.5t109 19q50 0 91.5 -12.5t71.5 -36t46.5 -57.5t16.5 -77q0 -19 -5 -40.5t-16.5 -41t-30.5 -36.5t-47 -29q78 -17 114.5 -63.5t36.5 -100.5q0 -43 -16.5 -78t-47.5 -60t-74 -38.5t-96 -13.5q-24 0 -47 1.5t-46 7.5v109
q23 -8 43.5 -11.5t45.5 -3.5q51 0 81 23.5t30 70.5q0 35 -20 54t-49.5 28t-62.5 10.5t-60 1.5v95q30 1 55.5 6.5t45 18t30.5 34t11 53.5q0 41 -27 62t-74 21q-31 0 -53 -10.5t-36 -28.5t-20.5 -41.5t-6.5 -50.5v-446h-127z" />
    <glyph glyph-name="agrave" unicode="&#xe0;" horiz-adv-x="595" 
d="M57 341q4 41 24.5 71.5t52.5 51t73.5 31t87.5 10.5q63 0 108 -14.5t74 -38.5t42.5 -56t13.5 -67v-231l10 -98h-128l-10 83q-22 -51 -72 -72t-105 -21q-34 0 -68 7.5t-61 24.5t-44 43.5t-17 63.5q0 70 52.5 105.5t135.5 46.5l178 24l-1 26q0 25 -25.5 45.5t-82.5 20.5
q-44 0 -73.5 -16.5t-35.5 -55.5zM404 225l-143 -20q-45 -6 -70 -19.5t-25 -41.5q0 -15 7 -24.5t18 -15.5t24.5 -8.5t26.5 -2.5q24 0 52.5 6.5t52.5 20t40.5 36t16.5 53.5v16zM96 669h129l126 -116h-93z" />
    <glyph glyph-name="aacute" unicode="&#xe1;" horiz-adv-x="595" 
d="M57 341q4 41 24.5 71.5t52.5 51t73.5 31t87.5 10.5q63 0 108 -14.5t74 -38.5t42.5 -56t13.5 -67v-231l10 -98h-128l-10 83q-22 -51 -72 -72t-105 -21q-34 0 -68 7.5t-61 24.5t-44 43.5t-17 63.5q0 70 52.5 105.5t135.5 46.5l178 24l-1 26q0 25 -25.5 45.5t-82.5 20.5
q-44 0 -73.5 -16.5t-35.5 -55.5zM404 225l-143 -20q-45 -6 -70 -19.5t-25 -41.5q0 -15 7 -24.5t18 -15.5t24.5 -8.5t26.5 -2.5q24 0 52.5 6.5t52.5 20t40.5 36t16.5 53.5v16zM236 553l125 116h130l-162 -116h-93z" />
    <glyph glyph-name="acircumflex" unicode="&#xe2;" horiz-adv-x="595" 
d="M57 341q4 41 24.5 71.5t52.5 51t73.5 31t87.5 10.5q63 0 108 -14.5t74 -38.5t42.5 -56t13.5 -67v-231l10 -98h-128l-10 83q-22 -51 -72 -72t-105 -21q-34 0 -68 7.5t-61 24.5t-44 43.5t-17 63.5q0 70 52.5 105.5t135.5 46.5l178 24l-1 26q0 25 -25.5 45.5t-82.5 20.5
q-44 0 -73.5 -16.5t-35.5 -55.5zM404 225l-143 -20q-45 -6 -70 -19.5t-25 -41.5q0 -15 7 -24.5t18 -15.5t24.5 -8.5t26.5 -2.5q24 0 52.5 6.5t52.5 20t40.5 36t16.5 53.5v16zM106 553l143 137h97l143 -137h-116l-75 68l-75 -68h-117z" />
    <glyph glyph-name="atilde" unicode="&#xe3;" horiz-adv-x="595" 
d="M57 341q4 41 24.5 71.5t52.5 51t73.5 31t87.5 10.5q63 0 108 -14.5t74 -38.5t42.5 -56t13.5 -67v-231l10 -98h-128l-10 83q-22 -51 -72 -72t-105 -21q-34 0 -68 7.5t-61 24.5t-44 43.5t-17 63.5q0 70 52.5 105.5t135.5 46.5l178 24l-1 26q0 25 -25.5 45.5t-82.5 20.5
q-44 0 -73.5 -16.5t-35.5 -55.5zM404 225l-143 -20q-45 -6 -70 -19.5t-25 -41.5q0 -15 7 -24.5t18 -15.5t24.5 -8.5t26.5 -2.5q24 0 52.5 6.5t52.5 20t40.5 36t16.5 53.5v16zM136 543q2 23 7 45.5t16.5 40t30 28t45.5 10.5q22 0 39.5 -9.5t32 -20.5t26 -20.5t20.5 -9.5
q21 0 28 18t7 35h70q-1 -23 -7 -44.5t-17 -38.5t-29 -27.5t-45 -10.5q-22 0 -40 9.5t-32.5 20.5t-26 20.5t-20.5 9.5q-21 0 -28 -19.5t-7 -36.5h-70z" />
    <glyph glyph-name="adieresis" unicode="&#xe4;" horiz-adv-x="595" 
d="M57 341q4 41 24.5 71.5t52.5 51t73.5 31t87.5 10.5q63 0 108 -14.5t74 -38.5t42.5 -56t13.5 -67v-231l10 -98h-128l-10 83q-22 -51 -72 -72t-105 -21q-34 0 -68 7.5t-61 24.5t-44 43.5t-17 63.5q0 70 52.5 105.5t135.5 46.5l178 24l-1 26q0 25 -25.5 45.5t-82.5 20.5
q-44 0 -73.5 -16.5t-35.5 -55.5zM404 225l-143 -20q-45 -6 -70 -19.5t-25 -41.5q0 -15 7 -24.5t18 -15.5t24.5 -8.5t26.5 -2.5q24 0 52.5 6.5t52.5 20t40.5 36t16.5 53.5v16zM391 547q-25 0 -43 15t-18 41t18 41.5t43 15.5q24 0 42.5 -16t18.5 -41q0 -26 -18.5 -41
t-42.5 -15zM204 547q-25 0 -43 15t-18 41t18 41.5t43 15.5t43 -15.5t18 -41.5t-18 -41t-43 -15z" />
    <glyph glyph-name="aring" unicode="&#xe5;" horiz-adv-x="595" 
d="M57 341q4 41 24.5 71.5t52.5 51t73.5 31t87.5 10.5q63 0 108 -14.5t74 -38.5t42.5 -56t13.5 -67v-231l10 -98h-128l-10 83q-22 -51 -72 -72t-105 -21q-34 0 -68 7.5t-61 24.5t-44 43.5t-17 63.5q0 70 52.5 105.5t135.5 46.5l178 24l-1 26q0 25 -25.5 45.5t-82.5 20.5
q-44 0 -73.5 -16.5t-35.5 -55.5zM404 225l-143 -20q-45 -6 -70 -19.5t-25 -41.5q0 -15 7 -24.5t18 -15.5t24.5 -8.5t26.5 -2.5q24 0 52.5 6.5t52.5 20t40.5 36t16.5 53.5v16zM184 629q0 18 7.5 37.5t21.5 35t35 25.5t49 10q29 0 50.5 -10t35.5 -25.5t21.5 -34.5t7.5 -38
t-7.5 -38t-22 -34t-36 -24.5t-49.5 -9.5t-49 9.5t-35 25t-21.5 34.5t-7.5 37zM297 587q16 0 27.5 11.5t11.5 30.5q0 20 -11.5 31.5t-27.5 11.5t-26.5 -11.5t-10.5 -31.5q0 -19 11 -30.5t26 -11.5z" />
    <glyph glyph-name="ae" unicode="&#xe6;" horiz-adv-x="965" 
d="M57 341q4 41 24.5 71.5t52.5 51t73.5 31t87.5 10.5q68 0 113.5 -16t73.5 -43q32 28 78 43.5t108 15.5q74 0 123.5 -22.5t80.5 -60.5t44 -88t13 -105h-389q2 -58 36 -96.5t104 -38.5q50 0 76.5 20t35.5 56h130q-5 -53 -26 -87.5t-53.5 -55t-75.5 -29t-93 -8.5
q-76 0 -129.5 22.5t-85.5 64.5q-51 -51 -109.5 -69t-121.5 -18q-34 0 -68 7.5t-61 24.5t-44 43.5t-17 63.5q0 70 52.5 105.5t135.5 46.5l178 24l-1 26q0 25 -25.5 45.5t-82.5 20.5q-44 0 -73.5 -16.5t-35.5 -55.5zM544 302h246q-8 44 -40 68t-83 24t-84 -24.5t-39 -67.5z
M404 225l-143 -20q-45 -6 -70 -19.5t-25 -41.5q0 -15 7 -25t18 -15.5t24.5 -8t26.5 -2.5q24 0 52.5 6.5t52.5 20t40.5 36t16.5 53.5v16z" />
    <glyph glyph-name="ccedilla" unicode="&#xe7;" horiz-adv-x="604" 
d="M218 -133q14 -8 31.5 -12t33.5 -4q15 0 29 6t14 25q0 13 -10 19.5t-23.5 9.5t-28 3h-23.5l22 78q-103 11 -164.5 75t-61.5 181q0 64 19.5 112t55 80.5t85.5 48.5t111 16q53 0 100.5 -10t83 -34t56.5 -64.5t21 -102.5h-136q1 29 -10.5 47t-29.5 27.5t-41 12.5t-46 3
q-66 0 -99.5 -35.5t-33.5 -104.5q0 -64 32 -101.5t105 -37.5q22 0 43.5 4t39 14.5t28.5 27.5t11 44h136q0 -56 -19.5 -94.5t-51.5 -62t-74.5 -35t-88.5 -13.5l-8 -29q35 -5 60.5 -23.5t25.5 -58.5q0 -25 -11.5 -42.5t-29.5 -28t-40 -15.5t-43 -5q-27 0 -49.5 5t-46.5 19z
" />
    <glyph glyph-name="egrave" unicode="&#xe8;" horiz-adv-x="590" 
d="M309 82q51 0 78.5 23t36.5 65h124q-5 -53 -26 -87.5t-53.5 -55t-75.5 -29t-93 -8.5q-69 0 -119.5 19t-83.5 53.5t-49 82.5t-16 107q0 49 13.5 94.5t44.5 81t81 56.5t123 21q74 0 123.5 -23.5t80.5 -62.5t44 -90t13 -106h-389q2 -63 36.5 -102t106.5 -39zM170 308h246
q-8 44 -40 71t-83 27t-84 -27.5t-39 -70.5zM102 669h129l126 -116h-93z" />
    <glyph glyph-name="eacute" unicode="&#xe9;" horiz-adv-x="590" 
d="M309 82q51 0 78.5 23t36.5 65h124q-5 -53 -26 -87.5t-53.5 -55t-75.5 -29t-93 -8.5q-69 0 -119.5 19t-83.5 53.5t-49 82.5t-16 107q0 49 13.5 94.5t44.5 81t81 56.5t123 21q74 0 123.5 -23.5t80.5 -62.5t44 -90t13 -106h-389q2 -63 36.5 -102t106.5 -39zM170 308h246
q-8 44 -40 71t-83 27t-84 -27.5t-39 -70.5zM224 553l125 116h130l-162 -116h-93z" />
    <glyph glyph-name="ecircumflex" unicode="&#xea;" horiz-adv-x="590" 
d="M309 82q51 0 78.5 23t36.5 65h124q-5 -53 -26 -87.5t-53.5 -55t-75.5 -29t-93 -8.5q-69 0 -119.5 19t-83.5 53.5t-49 82.5t-16 107q0 49 13.5 94.5t44.5 81t81 56.5t123 21q74 0 123.5 -23.5t80.5 -62.5t44 -90t13 -106h-389q2 -63 36.5 -102t106.5 -39zM170 308h246
q-8 44 -40 71t-83 27t-84 -27.5t-39 -70.5zM104 553l143 137h97l143 -137h-116l-75 68l-75 -68h-117z" />
    <glyph glyph-name="edieresis" unicode="&#xeb;" horiz-adv-x="590" 
d="M309 82q51 0 78.5 23t36.5 65h124q-5 -53 -26 -87.5t-53.5 -55t-75.5 -29t-93 -8.5q-69 0 -119.5 19t-83.5 53.5t-49 82.5t-16 107q0 49 13.5 94.5t44.5 81t81 56.5t123 21q74 0 123.5 -23.5t80.5 -62.5t44 -90t13 -106h-389q2 -63 36.5 -102t106.5 -39zM170 308h246
q-8 44 -40 71t-83 27t-84 -27.5t-39 -70.5zM389 547q-25 0 -43 15t-18 41t18 41.5t43 15.5q24 0 42.5 -16t18.5 -41q0 -26 -18.5 -41t-42.5 -15zM202 547q-25 0 -43 15t-18 41t18 41.5t43 15.5t43 -15.5t18 -41.5t-18 -41t-43 -15z" />
    <glyph glyph-name="igrave" unicode="&#xec;" horiz-adv-x="270" 
d="M67 0v495h137v-495h-137zM-80 669h129l126 -116h-93z" />
    <glyph glyph-name="iacute" unicode="&#xed;" horiz-adv-x="270" 
d="M67 0v495h137v-495h-137zM65 553l125 116h130l-162 -116h-93z" />
    <glyph glyph-name="icircumflex" unicode="&#xee;" horiz-adv-x="270" 
d="M67 0v495h137v-495h-137zM-57 553l143 137h97l143 -137h-116l-75 68l-75 -68h-117z" />
    <glyph glyph-name="idieresis" unicode="&#xef;" horiz-adv-x="270" 
d="M67 0v495h137v-495h-137zM229 547q-25 0 -43 15t-18 41t18 41.5t43 15.5q24 0 42.5 -16t18.5 -41q0 -26 -18.5 -41t-42.5 -15zM42 547q-25 0 -43 15t-18 41t18 41.5t43 15.5t43 -15.5t18 -41.5t-18 -41t-43 -15z" />
    <glyph glyph-name="eth" unicode="&#xf0;" horiz-adv-x="623" 
d="M172 507l36 43q-22 -2 -43 -7t-41 -11l-20 106q48 14 97 20.5t98 3.5l60 73l64 -52l-31 -37q59 -18 99 -53t64 -79t34.5 -95.5t10.5 -102.5q0 -57 -14.5 -114.5t-48 -104t-89 -75.5t-138.5 -29q-55 0 -100.5 16t-77.5 44.5t-50 67t-18 83.5q0 46 18 84.5t50.5 66.5
t78.5 43.5t101 15.5q45 0 85.5 -14t69.5 -44q-1 36 -10.5 68.5t-27.5 58.5t-46 44.5t-67 25.5l-80 -97zM195 204q0 -49 33.5 -78t87.5 -29t92 29t38 78q0 48 -36.5 77.5t-88.5 29.5q-57 0 -91.5 -27.5t-34.5 -79.5z" />
    <glyph glyph-name="ntilde" unicode="&#xf1;" horiz-adv-x="620" 
d="M67 0v495h135v-64q18 24 39 38.5t41.5 22.5t39 10.5t30.5 2.5q67 0 108.5 -21.5t64 -54.5t30 -73.5t7.5 -79.5v-276h-137v270q0 54 -23.5 84.5t-77.5 30.5q-31 0 -54 -10.5t-37.5 -27.5t-21.5 -39.5t-7 -45.5v-262h-137zM149 543q2 23 7 45.5t16.5 40t30 28t45.5 10.5
q22 0 39.5 -9.5t32 -20.5t26 -20.5t20.5 -9.5q21 0 28 18t7 35h70q-1 -23 -7 -44.5t-17 -38.5t-29 -27.5t-45 -10.5q-22 0 -40 9.5t-32.5 20.5t-26 20.5t-20.5 9.5q-21 0 -28 -19.5t-7 -36.5h-70z" />
    <glyph glyph-name="ograve" unicode="&#xf2;" horiz-adv-x="605" 
d="M28 244q0 49 17.5 96t52 83.5t86 59t119.5 22.5t119.5 -22.5t86 -59.5t51.5 -84t17 -96q0 -56 -21.5 -102.5t-58.5 -80t-87 -52t-107 -18.5t-107 18.5t-87.5 52t-59 80.5t-21.5 103zM303 109q66 0 104.5 40t38.5 98q0 59 -38 99.5t-105 40.5q-66 0 -104.5 -40.5
t-38.5 -99.5q0 -57 38.5 -97.5t104.5 -40.5zM101 669h129l126 -116h-93z" />
    <glyph glyph-name="oacute" unicode="&#xf3;" horiz-adv-x="605" 
d="M28 244q0 49 17.5 96t52 83.5t86 59t119.5 22.5t119.5 -22.5t86 -59.5t51.5 -84t17 -96q0 -56 -21.5 -102.5t-58.5 -80t-87 -52t-107 -18.5t-107 18.5t-87.5 52t-59 80.5t-21.5 103zM303 109q66 0 104.5 40t38.5 98q0 59 -38 99.5t-105 40.5q-66 0 -104.5 -40.5
t-38.5 -99.5q0 -57 38.5 -97.5t104.5 -40.5zM235 553l125 116h130l-162 -116h-93z" />
    <glyph glyph-name="ocircumflex" unicode="&#xf4;" horiz-adv-x="605" 
d="M28 244q0 49 17.5 96t52 83.5t86 59t119.5 22.5t119.5 -22.5t86 -59.5t51.5 -84t17 -96q0 -56 -21.5 -102.5t-58.5 -80t-87 -52t-107 -18.5t-107 18.5t-87.5 52t-59 80.5t-21.5 103zM303 109q66 0 104.5 40t38.5 98q0 59 -38 99.5t-105 40.5q-66 0 -104.5 -40.5
t-38.5 -99.5q0 -57 38.5 -97.5t104.5 -40.5zM111 553l143 137h97l143 -137h-116l-75 68l-75 -68h-117z" />
    <glyph glyph-name="otilde" unicode="&#xf5;" horiz-adv-x="605" 
d="M28 244q0 49 17.5 96t52 83.5t86 59t119.5 22.5t119.5 -22.5t86 -59.5t51.5 -84t17 -96q0 -56 -21.5 -102.5t-58.5 -80t-87 -52t-107 -18.5t-107 18.5t-87.5 52t-59 80.5t-21.5 103zM303 109q66 0 104.5 40t38.5 98q0 59 -38 99.5t-105 40.5q-66 0 -104.5 -40.5
t-38.5 -99.5q0 -57 38.5 -97.5t104.5 -40.5zM141 543q2 23 7 45.5t16.5 40t30 28t45.5 10.5q22 0 39.5 -9.5t32 -20.5t26 -20.5t20.5 -9.5q21 0 28 18t7 35h70q-1 -23 -7 -44.5t-17 -38.5t-29 -27.5t-45 -10.5q-22 0 -40 9.5t-32.5 20.5t-26 20.5t-20.5 9.5q-21 0 -28 -19.5
t-7 -36.5h-70z" />
    <glyph glyph-name="odieresis" unicode="&#xf6;" horiz-adv-x="605" 
d="M28 244q0 49 17.5 96t52 83.5t86 59t119.5 22.5t119.5 -22.5t86 -59.5t51.5 -84t17 -96q0 -56 -21.5 -102.5t-58.5 -80t-87 -52t-107 -18.5t-107 18.5t-87.5 52t-59 80.5t-21.5 103zM303 109q66 0 104.5 40t38.5 98q0 59 -38 99.5t-105 40.5q-66 0 -104.5 -40.5
t-38.5 -99.5q0 -57 38.5 -97.5t104.5 -40.5zM396 547q-25 0 -43 15t-18 41t18 41.5t43 15.5q24 0 42.5 -16t18.5 -41q0 -26 -18.5 -41t-42.5 -15zM209 547q-25 0 -43 15t-18 41t18 41.5t43 15.5t43 -15.5t18 -41.5t-18 -41t-43 -15z" />
    <glyph glyph-name="divide" unicode="&#xf7;" horiz-adv-x="502" 
d="M179 514q0 35 24 56.5t56 21.5t55.5 -21.5t23.5 -56.5t-23.5 -57t-55.5 -22t-56 22t-24 57zM35 271v93h430v-93h-430zM174 116q0 35 24 56.5t56 21.5t55.5 -21.5t23.5 -56.5t-23.5 -57t-55.5 -22t-56 22t-24 57z" />
    <glyph glyph-name="oslash" unicode="&#xf8;" horiz-adv-x="606" 
d="M137 -75l34 94q-64 31 -103.5 89t-39.5 136q0 49 17.5 96t52 83.5t86 59t119.5 22.5q22 0 43 -3l23 64h98l-32 -89q72 -35 107 -99.5t35 -134.5q0 -56 -21.5 -102.5t-58.5 -80t-87 -52t-107 -18.5q-22 0 -43 3l-25 -68h-98zM304 386q-12 0 -18 -1q-59 -5 -92.5 -43.5
t-33.5 -94.5q0 -34 14 -63t40 -48zM302 110q62 1 103 36.5t41 100.5q0 35 -14 64t-40 48z" />
    <glyph glyph-name="ugrave" unicode="&#xf9;" horiz-adv-x="624" 
d="M429 0l-10 89q-11 -28 -29.5 -47.5t-40 -30.5t-45 -16t-43.5 -5q-94 0 -147.5 52.5t-53.5 176.5v276h136v-260q0 -66 23 -97.5t80 -31.5q116 0 116 134v255h137v-384l10 -111h-133zM99 669h129l126 -116h-93z" />
    <glyph glyph-name="uacute" unicode="&#xfa;" horiz-adv-x="624" 
d="M429 0l-10 89q-11 -28 -29.5 -47.5t-40 -30.5t-45 -16t-43.5 -5q-94 0 -147.5 52.5t-53.5 176.5v276h136v-260q0 -66 23 -97.5t80 -31.5q116 0 116 134v255h137v-384l10 -111h-133zM252 553l125 116h130l-162 -116h-93z" />
    <glyph glyph-name="ucircumflex" unicode="&#xfb;" horiz-adv-x="624" 
d="M429 0l-10 89q-11 -28 -29.5 -47.5t-40 -30.5t-45 -16t-43.5 -5q-94 0 -147.5 52.5t-53.5 176.5v276h136v-260q0 -66 23 -97.5t80 -31.5q116 0 116 134v255h137v-384l10 -111h-133zM120 553l143 137h97l143 -137h-116l-75 68l-75 -68h-117z" />
    <glyph glyph-name="udieresis" unicode="&#xfc;" horiz-adv-x="624" 
d="M429 0l-10 89q-11 -28 -29.5 -47.5t-40 -30.5t-45 -16t-43.5 -5q-94 0 -147.5 52.5t-53.5 176.5v276h136v-260q0 -66 23 -97.5t80 -31.5q116 0 116 134v255h137v-384l10 -111h-133zM406 547q-25 0 -43 15t-18 41t18 41.5t43 15.5q24 0 42.5 -16t18.5 -41q0 -26 -18.5 -41
t-42.5 -15zM219 547q-25 0 -43 15t-18 41t18 41.5t43 15.5t43 -15.5t18 -41.5t-18 -41t-43 -15z" />
    <glyph glyph-name="yacute" unicode="&#xfd;" horiz-adv-x="570" 
d="M87 -48q11 -4 25 -4q32 0 57.5 13.5t39.5 44.5l6 14l-214 475h143l144 -330l143 330h137l-241 -536q-30 -67 -85.5 -97.5t-124.5 -27.5q-11 1 -26.5 3t-26.5 6l-60 12l36 107zM229 553l125 116h130l-162 -116h-93z" />
    <glyph glyph-name="thorn" unicode="&#xfe;" horiz-adv-x="648" 
d="M67 -182v829h136v-218q27 33 69 54.5t98 21.5q54 0 99 -21t77 -57t49.5 -83.5t17.5 -100.5q0 -54 -18 -100t-50 -80.5t-76.5 -54t-97.5 -19.5q-56 0 -97.5 21t-73.5 58v-250h-133zM339 104q32 0 57 11.5t43 31t27.5 45t9.5 54.5t-9.5 55t-27 45.5t-43 31t-57.5 11.5
t-57.5 -11.5t-43 -31t-27 -45.5t-9.5 -55t9.5 -54.5t27 -45t43 -31t57.5 -11.5z" />
    <glyph glyph-name="ydieresis" unicode="&#xff;" horiz-adv-x="570" 
d="M87 -48q11 -4 25 -4q32 0 57.5 13.5t39.5 44.5l6 14l-214 475h143l144 -330l143 330h137l-241 -536q-30 -67 -85.5 -97.5t-124.5 -27.5q-11 1 -26.5 3t-26.5 6l-60 12l36 107zM379 547q-25 0 -43 15t-18 41t18 41.5t43 15.5q24 0 42.5 -16t18.5 -41q0 -26 -18.5 -41
t-42.5 -15zM192 547q-25 0 -43 15t-18 41t18 41.5t43 15.5t43 -15.5t18 -41.5t-18 -41t-43 -15z" />
    <glyph glyph-name="Amacron" unicode="&#x100;" horiz-adv-x="631" 
d="M429 147h-228l-46 -147h-145l206 641h198l206 -641h-146zM394 266l-79 255l-79 -255h158zM155 708v76h321v-76h-321z" />
    <glyph glyph-name="amacron" unicode="&#x101;" horiz-adv-x="595" 
d="M57 341q4 41 24.5 71.5t52.5 51t73.5 31t87.5 10.5q63 0 108 -14.5t74 -38.5t42.5 -56t13.5 -67v-231l10 -98h-128l-10 83q-22 -51 -72 -72t-105 -21q-34 0 -68 7.5t-61 24.5t-44 43.5t-17 63.5q0 70 52.5 105.5t135.5 46.5l178 24l-1 26q0 25 -25.5 45.5t-82.5 20.5
q-44 0 -73.5 -16.5t-35.5 -55.5zM404 225l-143 -20q-45 -6 -70 -19.5t-25 -41.5q0 -15 7 -24.5t18 -15.5t24.5 -8.5t26.5 -2.5q24 0 52.5 6.5t52.5 20t40.5 36t16.5 53.5v16zM137 562v76h321v-76h-321z" />
    <glyph glyph-name="Abreve" unicode="&#x102;" horiz-adv-x="631" 
d="M429 147h-228l-46 -147h-145l206 641h198l206 -641h-146zM394 266l-79 255l-79 -255h158zM155 836h90q0 -69 71 -69q68 0 70 69h89q-2 -71 -46 -106.5t-113 -35.5t-114 35.5t-47 106.5z" />
    <glyph glyph-name="abreve" unicode="&#x103;" horiz-adv-x="595" 
d="M57 341q4 41 24.5 71.5t52.5 51t73.5 31t87.5 10.5q63 0 108 -14.5t74 -38.5t42.5 -56t13.5 -67v-231l10 -98h-128l-10 83q-22 -51 -72 -72t-105 -21q-34 0 -68 7.5t-61 24.5t-44 43.5t-17 63.5q0 70 52.5 105.5t135.5 46.5l178 24l-1 26q0 25 -25.5 45.5t-82.5 20.5
q-44 0 -73.5 -16.5t-35.5 -55.5zM404 225l-143 -20q-45 -6 -70 -19.5t-25 -41.5q0 -15 7 -24.5t18 -15.5t24.5 -8.5t26.5 -2.5q24 0 52.5 6.5t52.5 20t40.5 36t16.5 53.5v16zM137 690h90q0 -69 71 -69q68 0 70 69h89q-2 -71 -46 -106.5t-113 -35.5t-114 35.5t-47 106.5z" />
    <glyph glyph-name="Aogonek" unicode="&#x104;" horiz-adv-x="631" 
d="M555 -168q-23 -14 -46 -21t-52 -7q-24 0 -46 6t-39 18t-27 31t-10 45t11 48t28.5 40t40 32t45.5 23l-31 100h-228l-46 -147h-145l206 641h198l206 -641h-98q-15 -7 -31.5 -15.5t-30.5 -20t-23 -25t-9 -29.5q0 -17 11 -25t27 -8q20 0 34 6.5t29 17.5zM394 266l-79 255
l-79 -255h158z" />
    <glyph glyph-name="aogonek" unicode="&#x105;" horiz-adv-x="595" 
d="M509 -99l26 -69q-23 -14 -46 -21t-52 -7q-24 0 -46 5.5t-39 17.5t-27 30.5t-10 44.5q0 42 30 71.5t67 49.5l-7 60q-22 -51 -72 -72t-105 -21q-34 0 -68 7.5t-61 24.5t-44 43.5t-17 63.5q0 70 52.5 105.5t135.5 46.5l178 24l-1 26q0 25 -25.5 45.5t-82.5 20.5
q-44 0 -73.5 -16.5t-35.5 -55.5l-129 16q4 41 24.5 71.5t52.5 51t73.5 31t87.5 10.5q63 0 108 -14.5t74 -38.5t42.5 -56t13.5 -67v-231l10 -98h-47q-14 -7 -29.5 -15.5t-28.5 -20t-21.5 -25t-8.5 -29.5q0 -17 11 -25t27 -8q20 0 34 6.5t29 17.5zM404 225l-143 -20
q-45 -6 -70 -19.5t-25 -41.5q0 -15 7 -25t18 -15.5t24.5 -8t26.5 -2.5q24 0 52.5 6.5t52.5 20t40.5 36t16.5 53.5v16z" />
    <glyph glyph-name="Cacute" unicode="&#x106;" horiz-adv-x="724" 
d="M380 -10q-171 0 -261 86t-90 245q0 73 24.5 134t69.5 104.5t109.5 68t144.5 24.5q57 0 112.5 -13.5t99.5 -42.5t71 -76t27 -114h-142q0 58 -45 87.5t-121 29.5q-92 0 -149 -52.5t-57 -149.5t57 -149.5t149 -52.5q76 0 121 29.5t45 88.5h142q0 -67 -27 -114t-70.5 -76.5
t-98.5 -43t-111 -13.5zM310 699l125 116h130l-162 -116h-93z" />
    <glyph glyph-name="cacute" unicode="&#x107;" horiz-adv-x="604" 
d="M304 -10q-60 0 -109 16.5t-84 49t-54.5 80.5t-19.5 112t19.5 112t55 80.5t85.5 48.5t111 16q53 0 100.5 -10t83 -34t56.5 -64.5t21 -102.5h-136q1 29 -10.5 47t-29.5 27.5t-41 12.5t-46 3q-66 0 -99.5 -35.5t-33.5 -104.5q0 -64 32 -101.5t105 -37.5q22 0 43.5 4t39 14.5
t28.5 27.5t11 44h136q0 -61 -22.5 -100.5t-59 -62.5t-84 -32.5t-98.5 -9.5zM232 553l125 116h130l-162 -116h-93z" />
    <glyph glyph-name="Ccircumflex" unicode="&#x108;" horiz-adv-x="724" 
d="M380 -10q-171 0 -261 86t-90 245q0 73 24.5 134t69.5 104.5t109.5 68t144.5 24.5q57 0 112.5 -13.5t99.5 -42.5t71 -76t27 -114h-142q0 58 -45 87.5t-121 29.5q-92 0 -149 -52.5t-57 -149.5t57 -149.5t149 -52.5q76 0 121 29.5t45 88.5h142q0 -67 -27 -114t-70.5 -76.5
t-98.5 -43t-111 -13.5zM170 699l143 137h97l143 -137h-116l-75 68l-75 -68h-117z" />
    <glyph glyph-name="ccircumflex" unicode="&#x109;" horiz-adv-x="604" 
d="M304 -10q-60 0 -109 16.5t-84 49t-54.5 80.5t-19.5 112t19.5 112t55 80.5t85.5 48.5t111 16q53 0 100.5 -10t83 -34t56.5 -64.5t21 -102.5h-136q1 29 -10.5 47t-29.5 27.5t-41 12.5t-46 3q-66 0 -99.5 -35.5t-33.5 -104.5q0 -64 32 -101.5t105 -37.5q22 0 43.5 4t39 14.5
t28.5 27.5t11 44h136q0 -61 -22.5 -100.5t-59 -62.5t-84 -32.5t-98.5 -9.5zM110 553l143 137h97l143 -137h-116l-75 68l-75 -68h-117z" />
    <glyph glyph-name="Cdotaccent" unicode="&#x10a;" horiz-adv-x="724" 
d="M380 -10q-171 0 -261 86t-90 245q0 73 24.5 134t69.5 104.5t109.5 68t144.5 24.5q57 0 112.5 -13.5t99.5 -42.5t71 -76t27 -114h-142q0 58 -45 87.5t-121 29.5q-92 0 -149 -52.5t-57 -149.5t57 -149.5t149 -52.5q76 0 121 29.5t45 88.5h142q0 -67 -27 -114t-70.5 -76.5
t-98.5 -43t-111 -13.5zM293 757q0 29 20.5 46t48.5 17q27 0 47.5 -17t20.5 -46t-20.5 -46.5t-47.5 -17.5q-28 0 -48.5 17.5t-20.5 46.5z" />
    <glyph glyph-name="cdotaccent" unicode="&#x10b;" horiz-adv-x="604" 
d="M304 -10q-60 0 -109 16.5t-84 49t-54.5 80.5t-19.5 112t19.5 112t55 80.5t85.5 48.5t111 16q53 0 100.5 -10t83 -34t56.5 -64.5t21 -102.5h-136q1 29 -10.5 47t-29.5 27.5t-41 12.5t-46 3q-66 0 -99.5 -35.5t-33.5 -104.5q0 -64 32 -101.5t105 -37.5q22 0 43.5 4t39 14.5
t28.5 27.5t11 44h136q0 -61 -22.5 -100.5t-59 -62.5t-84 -32.5t-98.5 -9.5zM233 611q0 29 20.5 46t48.5 17q27 0 47.5 -17t20.5 -46t-20.5 -46.5t-47.5 -17.5q-28 0 -48.5 17.5t-20.5 46.5z" />
    <glyph glyph-name="Ccaron" unicode="&#x10c;" horiz-adv-x="724" 
d="M380 -10q-171 0 -261 86t-90 245q0 73 24.5 134t69.5 104.5t109.5 68t144.5 24.5q57 0 112.5 -13.5t99.5 -42.5t71 -76t27 -114h-142q0 58 -45 87.5t-121 29.5q-92 0 -149 -52.5t-57 -149.5t57 -149.5t149 -52.5q76 0 121 29.5t45 88.5h142q0 -67 -27 -114t-70.5 -76.5
t-98.5 -43t-111 -13.5zM170 831h117l75 -67l75 67h116l-143 -138h-97z" />
    <glyph glyph-name="ccaron" unicode="&#x10d;" horiz-adv-x="604" 
d="M304 -10q-60 0 -109 16.5t-84 49t-54.5 80.5t-19.5 112t19.5 112t55 80.5t85.5 48.5t111 16q53 0 100.5 -10t83 -34t56.5 -64.5t21 -102.5h-136q1 29 -10.5 47t-29.5 27.5t-41 12.5t-46 3q-66 0 -99.5 -35.5t-33.5 -104.5q0 -64 32 -101.5t105 -37.5q22 0 43.5 4t39 14.5
t28.5 27.5t11 44h136q0 -61 -22.5 -100.5t-59 -62.5t-84 -32.5t-98.5 -9.5zM110 685h117l75 -67l75 67h116l-143 -138h-97z" />
    <glyph glyph-name="Dcaron" unicode="&#x10e;" horiz-adv-x="753" 
d="M80 0v641h286q86 0 153 -26t112.5 -70t69 -102t23.5 -123t-23.5 -123t-69 -102t-112.5 -69.5t-153 -25.5h-286zM220 122h140q104 0 164 52.5t60 145.5q0 94 -60 147t-164 53h-140v-398zM185 831h117l75 -67l75 67h116l-143 -138h-97z" />
    <glyph glyph-name="dcaron" unicode="&#x10f;" horiz-adv-x="901" 
d="M448 0v68q-10 -12 -25.5 -26t-36.5 -26t-47 -19.5t-57 -7.5q-53 0 -98.5 19t-78.5 53t-51.5 80t-18.5 101q0 53 17.5 100.5t49.5 83.5t76.5 57.5t99.5 21.5q56 0 98 -21.5t69 -54.5v283h136v-712h-133zM173 247q0 -29 9.5 -54.5t27 -45t43 -31t56.5 -11.5q32 0 57.5 11.5
t43 31t27 45t9.5 54.5q0 58 -36 99.5t-101 41.5q-64 0 -100 -41.5t-36 -99.5zM723 440l29 84q-26 3 -47.5 18t-23.5 48q-2 39 24 60.5t61 21.5t59.5 -22t23.5 -57q-2 -29 -9 -54.5t-15.5 -46.5t-17 -38.5t-14.5 -30.5z" />
    <glyph glyph-name="Dcroat" unicode="&#x110;" horiz-adv-x="805" 
d="M11 372h87v269h286q86 0 153 -26t112.5 -70t69 -102t23.5 -123t-23.5 -123t-69 -102t-112.5 -69.5t-153 -25.5h-286v281h-87v91zM239 113l139 1q104 1 164.5 57t60.5 149q0 47 -15.5 85t-45 65.5t-71 42.5t-93.5 15h-139v-156h172v-91h-172v-168z" />
    <glyph glyph-name="dcroat" unicode="&#x111;" horiz-adv-x="648" 
d="M448 0v68q-10 -12 -25.5 -26t-36.5 -26t-47 -19.5t-57 -7.5q-53 0 -98.5 19t-78.5 53t-51.5 80t-18.5 101q0 53 17.5 100.5t49.5 83.5t76.5 57.5t99.5 21.5q56 0 98 -21.5t69 -54.5v125h-282v76h282v82h136v-712h-133zM173 247q0 -29 9.5 -54.5t27 -45t43 -31t56.5 -11.5
q32 0 57.5 11.5t43 31t27 45t9.5 54.5q0 58 -36 99.5t-101 41.5q-64 0 -100 -41.5t-36 -99.5z" />
    <glyph glyph-name="Emacron" unicode="&#x112;" 
d="M80 0v641h487v-121h-347v-139h304v-115h-304v-144h345v-122h-485zM146 708v76h321v-76h-321z" />
    <glyph glyph-name="emacron" unicode="&#x113;" horiz-adv-x="590" 
d="M309 82q51 0 78.5 23t36.5 65h124q-5 -53 -26 -87.5t-53.5 -55t-75.5 -29t-93 -8.5q-69 0 -119.5 19t-83.5 53.5t-49 82.5t-16 107q0 49 13.5 94.5t44.5 81t81 56.5t123 21q74 0 123.5 -23.5t80.5 -62.5t44 -90t13 -106h-389q2 -63 36.5 -102t106.5 -39zM170 308h246
q-8 44 -40 71t-83 27t-84 -27.5t-39 -70.5zM134 562v76h321v-76h-321z" />
    <glyph glyph-name="Ebreve" unicode="&#x114;" 
d="M80 0v641h487v-121h-347v-139h304v-115h-304v-144h345v-122h-485zM146 836h90q0 -69 71 -69q68 0 70 69h89q-2 -71 -46 -106.5t-113 -35.5t-114 35.5t-47 106.5z" />
    <glyph glyph-name="ebreve" unicode="&#x115;" horiz-adv-x="590" 
d="M309 82q51 0 78.5 23t36.5 65h124q-5 -53 -26 -87.5t-53.5 -55t-75.5 -29t-93 -8.5q-69 0 -119.5 19t-83.5 53.5t-49 82.5t-16 107q0 49 13.5 94.5t44.5 81t81 56.5t123 21q74 0 123.5 -23.5t80.5 -62.5t44 -90t13 -106h-389q2 -63 36.5 -102t106.5 -39zM170 308h246
q-8 44 -40 71t-83 27t-84 -27.5t-39 -70.5zM135 690h90q0 -69 71 -69q68 0 70 69h89q-2 -71 -46 -106.5t-113 -35.5t-114 35.5t-47 106.5z" />
    <glyph glyph-name="Edotaccent" unicode="&#x116;" 
d="M80 0v641h487v-121h-347v-139h304v-115h-304v-144h345v-122h-485zM238 757q0 29 20.5 46t48.5 17q27 0 47.5 -17t20.5 -46t-20.5 -46.5t-47.5 -17.5q-28 0 -48.5 17.5t-20.5 46.5z" />
    <glyph glyph-name="edotaccent" unicode="&#x117;" horiz-adv-x="590" 
d="M309 82q51 0 78.5 23t36.5 65h124q-5 -53 -26 -87.5t-53.5 -55t-75.5 -29t-93 -8.5q-69 0 -119.5 19t-83.5 53.5t-49 82.5t-16 107q0 49 13.5 94.5t44.5 81t81 56.5t123 21q74 0 123.5 -23.5t80.5 -62.5t44 -90t13 -106h-389q2 -63 36.5 -102t106.5 -39zM170 308h246
q-8 44 -40 71t-83 27t-84 -27.5t-39 -70.5zM226 611q0 29 20.5 46t48.5 17q27 0 47.5 -17t20.5 -46t-20.5 -46.5t-47.5 -17.5q-28 0 -48.5 17.5t-20.5 46.5z" />
    <glyph glyph-name="Eogonek" unicode="&#x118;" 
d="M80 0v641h487v-121h-347v-139h304v-115h-304v-144h345v-122h-192q-15 -7 -31.5 -15.5t-30 -20t-22.5 -25t-9 -29.5q0 -17 11 -25t27 -8q20 0 34 6.5t29 17.5l26 -69q-24 -14 -46.5 -21t-51.5 -7q-24 0 -46 6t-39 18t-27 31t-10 45q0 30 14 53.5t36 42.5h-157z" />
    <glyph glyph-name="eogonek" unicode="&#x119;" horiz-adv-x="590" 
d="M306 94q50 0 76.5 20t35.5 56h130q-4 -45 -20 -77t-41.5 -53t-59 -32.5t-72.5 -15.5q-28 -14 -52.5 -34t-24.5 -48q0 -17 11 -25t27 -8q20 0 34 6.5t29 17.5l26 -69q-24 -14 -46.5 -21t-51.5 -7q-24 0 -46 6t-39 18t-27 31t-10 45q0 28 12.5 51t32.5 41q-102 18 -150 86
t-48 170q0 49 13.5 94.5t44.5 81t81 56.5t123 21q74 0 123.5 -22.5t80.5 -60.5t44 -88t13 -105h-389q2 -59 36 -97t104 -38zM170 302h246q-8 44 -40 68t-83 24t-84 -24.5t-39 -67.5z" />
    <glyph glyph-name="Ecaron" unicode="&#x11a;" 
d="M80 0v641h487v-121h-347v-139h304v-115h-304v-144h345v-122h-485zM115 831h117l75 -67l75 67h116l-143 -138h-97z" />
    <glyph glyph-name="ecaron" unicode="&#x11b;" horiz-adv-x="590" 
d="M309 82q51 0 78.5 23t36.5 65h124q-5 -53 -26 -87.5t-53.5 -55t-75.5 -29t-93 -8.5q-69 0 -119.5 19t-83.5 53.5t-49 82.5t-16 107q0 49 13.5 94.5t44.5 81t81 56.5t123 21q74 0 123.5 -23.5t80.5 -62.5t44 -90t13 -106h-389q2 -63 36.5 -102t106.5 -39zM170 308h246
q-8 44 -40 71t-83 27t-84 -27.5t-39 -70.5zM104 685h117l75 -67l75 67h116l-143 -138h-97z" />
    <glyph glyph-name="Gcircumflex" unicode="&#x11c;" horiz-adv-x="739" 
d="M578 152q-18 -75 -66.5 -118.5t-134.5 -43.5q-75 0 -139 22t-110.5 64t-72.5 103.5t-26 139.5q0 76 25 137.5t71 105t111 67t146 23.5q57 0 112 -13.5t98 -42.5t69 -76t26 -114h-142q0 58 -45 88t-122 30q-45 0 -83.5 -13.5t-66 -39t-43.5 -63t-16 -85.5q0 -46 15 -85
t42.5 -67t68 -43.5t91.5 -15.5q77 0 116 31t51 88h-213v102h343l23 -333h-115zM178 699l143 137h97l143 -137h-116l-75 68l-75 -68h-117z" />
    <glyph glyph-name="gcircumflex" unicode="&#x11d;" horiz-adv-x="633" 
d="M117 -19q9 -12 24 -27t36 -27.5t49 -21.5t64 -9q26 0 52 5t48 19t35.5 40t13.5 67v45q-64 -64 -160 -64q-61 0 -108 21t-78 55.5t-47 79t-16 90.5q0 47 16 92t46.5 80.5t76 57t103.5 21.5q57 0 100.5 -19t66.5 -46v55h138v-472q0 -73 -25.5 -122t-66.5 -78.5t-93 -42
t-105 -12.5q-52 0 -93.5 11.5t-73 30t-53.5 41.5t-36 46zM302 124q27 0 52 8.5t43.5 22.5t30 33.5t11.5 41.5v49q0 24 -11 44.5t-30 35.5t-44 23.5t-53 8.5q-59 0 -96 -37t-37 -96q0 -60 38 -97t96 -37zM125 553l143 137h97l143 -137h-116l-75 68l-75 -68h-117z" />
    <glyph glyph-name="Gbreve" unicode="&#x11e;" horiz-adv-x="739" 
d="M578 152q-18 -75 -66.5 -118.5t-134.5 -43.5q-75 0 -139 22t-110.5 64t-72.5 103.5t-26 139.5q0 76 25 137.5t71 105t111 67t146 23.5q57 0 112 -13.5t98 -42.5t69 -76t26 -114h-142q0 58 -45 88t-122 30q-45 0 -83.5 -13.5t-66 -39t-43.5 -63t-16 -85.5q0 -46 15 -85
t42.5 -67t68 -43.5t91.5 -15.5q77 0 116 31t51 88h-213v102h343l23 -333h-115zM209 836h90q0 -69 71 -69q68 0 70 69h89q-2 -71 -46 -106.5t-113 -35.5t-114 35.5t-47 106.5z" />
    <glyph glyph-name="gbreve" unicode="&#x11f;" horiz-adv-x="633" 
d="M117 -19q9 -12 24 -27t36 -27.5t49 -21.5t64 -9q26 0 52 5t48 19t35.5 40t13.5 67v45q-64 -64 -160 -64q-61 0 -108 21t-78 55.5t-47 79t-16 90.5q0 47 16 92t46.5 80.5t76 57t103.5 21.5q57 0 100.5 -19t66.5 -46v55h138v-472q0 -73 -25.5 -122t-66.5 -78.5t-93 -42
t-105 -12.5q-52 0 -93.5 11.5t-73 30t-53.5 41.5t-36 46zM302 124q27 0 52 8.5t43.5 22.5t30 33.5t11.5 41.5v49q0 24 -11 44.5t-30 35.5t-44 23.5t-53 8.5q-59 0 -96 -37t-37 -96q0 -60 38 -97t96 -37zM156 690h90q0 -69 71 -69q68 0 70 69h89q-2 -71 -46 -106.5
t-113 -35.5t-114 35.5t-47 106.5z" />
    <glyph glyph-name="Gdotaccent" unicode="&#x120;" horiz-adv-x="739" 
d="M578 152q-18 -75 -66.5 -118.5t-134.5 -43.5q-75 0 -139 22t-110.5 64t-72.5 103.5t-26 139.5q0 76 25 137.5t71 105t111 67t146 23.5q57 0 112 -13.5t98 -42.5t69 -76t26 -114h-142q0 58 -45 88t-122 30q-45 0 -83.5 -13.5t-66 -39t-43.5 -63t-16 -85.5q0 -46 15 -85
t42.5 -67t68 -43.5t91.5 -15.5q77 0 116 31t51 88h-213v102h343l23 -333h-115zM301 757q0 29 20.5 46t48.5 17q27 0 47.5 -17t20.5 -46t-20.5 -46.5t-47.5 -17.5q-28 0 -48.5 17.5t-20.5 46.5z" />
    <glyph glyph-name="gdotaccent" unicode="&#x121;" horiz-adv-x="633" 
d="M117 -19q9 -12 24 -27t36 -27.5t49 -21.5t64 -9q26 0 52 5t48 19t35.5 40t13.5 67v45q-64 -64 -160 -64q-61 0 -108 21t-78 55.5t-47 79t-16 90.5q0 47 16 92t46.5 80.5t76 57t103.5 21.5q57 0 100.5 -19t66.5 -46v55h138v-472q0 -73 -25.5 -122t-66.5 -78.5t-93 -42
t-105 -12.5q-52 0 -93.5 11.5t-73 30t-53.5 41.5t-36 46zM302 124q27 0 52 8.5t43.5 22.5t30 33.5t11.5 41.5v49q0 24 -11 44.5t-30 35.5t-44 23.5t-53 8.5q-59 0 -96 -37t-37 -96q0 -60 38 -97t96 -37zM248 611q0 29 20.5 46t48.5 17q27 0 47.5 -17t20.5 -46t-20.5 -46.5
t-47.5 -17.5q-28 0 -48.5 17.5t-20.5 46.5z" />
    <glyph glyph-name="uni0122" unicode="&#x122;" horiz-adv-x="739" 
d="M578 152q-18 -75 -66.5 -118.5t-134.5 -43.5q-75 0 -139 22t-110.5 64t-72.5 103.5t-26 139.5q0 76 25 137.5t71 105t111 67t146 23.5q57 0 112 -13.5t98 -42.5t69 -76t26 -114h-142q0 58 -45 88t-122 30q-45 0 -83.5 -13.5t-66 -39t-43.5 -63t-16 -85.5q0 -46 15 -85
t42.5 -67t68 -43.5t91.5 -15.5q77 0 116 31t51 88h-213v102h343l23 -333h-115zM327 -284l29 84q-27 3 -48.5 18t-22.5 48q-2 40 24 62t61 22t60 -22t24 -58q-1 -30 -8 -55.5t-16 -47t-17.5 -39t-14.5 -30.5z" />
    <glyph glyph-name="uni0123" unicode="&#x123;" horiz-adv-x="645" 
d="M117 -19q9 -12 24 -27t36 -27.5t49 -21.5t64 -9q26 0 52 5t48 19t35.5 40t13.5 67v45q-64 -64 -160 -64q-61 0 -108 21t-78 55.5t-47 79t-16 90.5q0 47 16 92t46.5 80.5t76 57t103.5 21.5q57 0 100.5 -19t66.5 -46v55h138v-472q0 -73 -25.5 -122t-66.5 -78.5t-93 -42
t-105 -12.5q-52 0 -93.5 11.5t-73 30t-53.5 41.5t-36 46zM302 124q27 0 52 8.5t43.5 22.5t30 33.5t11.5 41.5v49q0 24 -11 44.5t-30 35.5t-44 23.5t-53 8.5q-59 0 -96 -37t-37 -96q0 -60 38 -97t96 -37zM313 789l-29 -84q26 -3 47.5 -18t22.5 -48q2 -39 -24 -60.5t-61 -21.5
t-59.5 22t-22.5 57q2 29 8.5 54.5t15 46.5t17 38.5t14.5 30.5z" />
    <glyph glyph-name="Hcircumflex" unicode="&#x124;" horiz-adv-x="753" 
d="M80 0v641h140v-259h312v259h141v-641h-141v261h-312v-261h-140zM185 699l143 137h97l143 -137h-116l-75 68l-75 -68h-117z" />
    <glyph glyph-name="hcircumflex" unicode="&#x125;" horiz-adv-x="620" 
d="M67 0v712h137v-280q18 24 41 38t45.5 22t42 10.5t29.5 2.5q63 0 102 -20.5t60.5 -53t29.5 -73t8 -80.5v-278h-137v270q0 54 -23.5 84.5t-77.5 30.5q-31 0 -54 -10.5t-37.5 -27.5t-21.5 -39.5t-7 -45.5v-262h-137zM232 553l143 137h97l143 -137h-116l-75 68l-75 -68h-117z
" />
    <glyph glyph-name="Hbar" unicode="&#x126;" horiz-adv-x="753" 
d="M80 0v641h140v-259h312v259h141v-641h-141v261h-312v-261h-140zM216 708v76h321v-76h-321z" />
    <glyph glyph-name="hbar" unicode="&#x127;" horiz-adv-x="620" 
d="M52 0v714h135v-74h268v-76h-268v-131q18 23 40.5 37t45 22t42.5 11t31 3q62 0 101 -20.5t61 -53t30 -73t8 -80.5v-279h-135v270q0 54 -23.5 85.5t-78.5 31.5q-32 0 -55 -10.5t-38 -28t-22 -40t-7 -46.5v-262h-135z" />
    <glyph glyph-name="Itilde" unicode="&#x128;" horiz-adv-x="301" 
d="M80 0v641h140v-641h-140zM-11 689q2 23 7 45.5t16.5 40t30 28t45.5 10.5q22 0 39.5 -9.5t32 -20.5t26 -20.5t20.5 -9.5q21 0 28 18t7 35h70q-1 -23 -7 -44.5t-17 -38.5t-29 -27.5t-45 -10.5q-22 0 -40 9.5t-32.5 20.5t-26 20.5t-20.5 9.5q-21 0 -28 -19.5t-7 -36.5h-70z
" />
    <glyph glyph-name="itilde" unicode="&#x129;" horiz-adv-x="270" 
d="M67 0v495h137v-495h-137zM-26 543q2 23 7 45.5t16.5 40t30 28t45.5 10.5q22 0 39.5 -9.5t32 -20.5t26 -20.5t20.5 -9.5q21 0 28 18t7 35h70q-1 -23 -7 -44.5t-17 -38.5t-29 -27.5t-45 -10.5q-22 0 -40 9.5t-32.5 20.5t-26 20.5t-20.5 9.5q-21 0 -28 -19.5t-7 -36.5h-70z
" />
    <glyph glyph-name="Imacron" unicode="&#x12a;" horiz-adv-x="301" 
d="M80 0v641h140v-641h-140zM-10 708v76h321v-76h-321z" />
    <glyph glyph-name="imacron" unicode="&#x12b;" horiz-adv-x="270" 
d="M67 0v495h137v-495h-137zM-26 562v76h321v-76h-321z" />
    <glyph glyph-name="Iogonek" unicode="&#x12e;" horiz-adv-x="301" 
d="M185 -99l26 -69q-24 -14 -47 -21t-52 -7q-24 0 -46 6t-39 18t-27 31t-10 45q0 43 27 74t63 52v611h140v-641h-43q-15 -7 -31.5 -15.5t-30.5 -20t-23 -25t-9 -29.5q0 -17 11 -25t27 -8q20 0 34 6.5t30 17.5z" />
    <glyph glyph-name="iogonek" unicode="&#x12f;" horiz-adv-x="270" 
d="M52 666q0 12 5 26t15.5 26t26 19.5t37.5 7.5q42 0 62.5 -25.5t20.5 -51.5q0 -13 -4.5 -27t-14.5 -26t-26 -19.5t-38 -7.5t-37.5 7.5t-26 19t-15.5 25t-5 26.5zM169 -99l26 -69q-24 -14 -46.5 -21t-51.5 -7q-24 0 -46 6t-39 18t-27 31t-10 45q0 43 27.5 75t64.5 52v464
h137v-495h-43q-15 -7 -31.5 -15.5t-30 -20t-22.5 -25t-9 -29.5q0 -17 11 -25t27 -8q20 0 34 6.5t29 17.5z" />
    <glyph glyph-name="Idotaccent" unicode="&#x130;" horiz-adv-x="301" 
d="M80 0v641h140v-641h-140zM82 757q0 29 20.5 46t48.5 17q27 0 47.5 -17t20.5 -46t-20.5 -46.5t-47.5 -17.5q-28 0 -48.5 17.5t-20.5 46.5z" />
    <glyph glyph-name="dotlessi" unicode="&#x131;" horiz-adv-x="270" 
d="M67 0v495h137v-495h-137z" />
    <glyph glyph-name="IJ" unicode="&#x132;" horiz-adv-x="933" 
d="M80 0v641h140v-641h-140zM502 282q-18 -36 -18 -68q0 -49 37.5 -74t90.5 -25q58 0 83 33t25 110v383h137v-386q0 -54 -12.5 -102t-42 -84t-77 -57t-117.5 -21q-60 0 -108 17t-82 46t-52 68t-18 83q0 39 14 75z" />
    <glyph glyph-name="ij" unicode="&#x133;" horiz-adv-x="533" 
d="M52 666q0 12 5 26t15.5 26t26 19.5t37.5 7.5q42 0 62.5 -25.5t20.5 -51.5q0 -13 -4.5 -27t-14.5 -26t-26 -19.5t-38 -7.5t-37.5 7.5t-26 19t-15.5 25t-5 26.5zM67 0v495h137v-495h-137zM316 666q0 12 5 26t15.5 26t26 19.5t37.5 7.5q42 0 62.5 -25.5t20.5 -51.5
q0 -13 -4.5 -27t-14.5 -26t-26 -19.5t-38 -7.5t-37.5 7.5t-26 19t-15.5 25t-5 26.5zM209 -161l16 128q11 -2 32 -3t29 -1q32 0 39.5 15t7.5 40l1 477h136v-477q0 -91 -44 -138.5t-137 -44.5q-6 0 -16.5 0.5t-22.5 1t-23 1.5t-18 1z" />
    <glyph glyph-name="Jcircumflex" unicode="&#x134;" horiz-adv-x="632" 
d="M201 282q-18 -36 -18 -68q0 -49 37.5 -74t90.5 -25q58 0 83 33t25 110v383h137v-386q0 -54 -12.5 -102t-42 -84t-77 -57t-117.5 -21q-60 0 -108 17t-82 46t-52 68t-18 83q0 39 14 75zM124 699l143 137h97l143 -137h-116l-75 68l-75 -68h-117z" />
    <glyph glyph-name="jcircumflex" unicode="&#x135;" horiz-adv-x="263" 
d="M-60 553l143 137h97l143 -137h-116l-75 68l-75 -68h-117zM-61 -161l16 128q11 -2 32 -3t29 -1q32 0 39.5 15t7.5 40l1 477h136v-477q0 -91 -44 -138.5t-137 -44.5q-6 0 -16.5 0.5t-22.5 1t-23 1.5t-18 1z" />
    <glyph glyph-name="uni0136" unicode="&#x136;" horiz-adv-x="701" 
d="M80 0v641h140v-292l299 292h169l-287 -286l292 -355h-174l-217 257l-82 -80v-177h-140zM308 -284l29 84q-27 3 -48.5 18t-22.5 48q-2 40 24 62t61 22t60 -22t24 -58q-1 -30 -8 -55.5t-16 -47t-17.5 -39t-14.5 -30.5z" />
    <glyph glyph-name="uni0137" unicode="&#x137;" 
d="M67 712h137v-411l210 194h174l-212 -203l224 -292h-172l-157 199l-67 -62v-137h-137v712zM264 -284l29 84q-27 3 -48.5 18t-22.5 48q-2 40 24 62t61 22t60 -22t24 -58q-1 -30 -8 -55.5t-16 -47t-17.5 -39t-14.5 -30.5z" />
    <glyph glyph-name="kgreenlandic" unicode="&#x138;" 
d="M67 712h137v-411l210 194h174l-212 -203l224 -292h-172l-157 199l-67 -62v-137h-137v712z" />
    <glyph glyph-name="Lacute" unicode="&#x139;" horiz-adv-x="581" 
d="M80 0v641h140v-519h334v-122h-474zM96 699l125 116h130l-162 -116h-93z" />
    <glyph glyph-name="lacute" unicode="&#x13a;" horiz-adv-x="269" 
d="M66 -2v738h137v-737zM72 781l125 116h130l-162 -116h-93z" />
    <glyph glyph-name="uni013B" unicode="&#x13b;" horiz-adv-x="581" 
d="M80 0v641h140v-519h334v-122h-474zM248 -284l29 84q-27 3 -48.5 18t-22.5 48q-2 40 24 62t61 22t60 -22t24 -58q-1 -30 -8 -55.5t-16 -47t-17.5 -39t-14.5 -30.5z" />
    <glyph glyph-name="uni013C" unicode="&#x13c;" horiz-adv-x="269" 
d="M66 -2v738h137v-737zM92 -284l29 84q-27 3 -48.5 18t-22.5 48q-2 40 24 62t61 22t60 -22t24 -58q-1 -30 -8 -55.5t-16 -47t-17.5 -39t-14.5 -30.5z" />
    <glyph glyph-name="Lcaron" unicode="&#x13d;" horiz-adv-x="610" 
d="M80 0v641h140v-519h334v-122h-474zM363 471l29 84q-26 3 -47.5 18t-23.5 48q-2 39 24 60.5t61 21.5t59.5 -22t23.5 -57q-2 -29 -9 -54.5t-15.5 -46.5t-17 -38.5t-14.5 -30.5z" />
    <glyph glyph-name="lcaron" unicode="&#x13e;" horiz-adv-x="523" 
d="M66 -2v738h137v-737zM344 440l29 84q-26 3 -47.5 18t-23.5 48q-2 39 24 60.5t61 21.5t59.5 -22t23.5 -57q-2 -29 -9 -54.5t-15.5 -46.5t-17 -38.5t-14.5 -30.5z" />
    <glyph glyph-name="Ldot" unicode="&#x13f;" horiz-adv-x="630" 
d="M80 0v641h140v-519h334v-122h-474zM336 333q0 30 22.5 55.5t64.5 25.5t63.5 -25.5t21.5 -55.5q0 -28 -21 -54.5t-64 -26.5t-65 26t-22 55z" />
    <glyph glyph-name="ldot" unicode="&#x140;" horiz-adv-x="551" 
d="M66 -2v738h137v-737zM328 271q0 30 22.5 55.5t64.5 25.5t63.5 -25.5t21.5 -55.5q0 -28 -21 -54.5t-64 -26.5t-65 26t-22 55z" />
    <glyph glyph-name="Lslash" unicode="&#x141;" horiz-adv-x="640" 
d="M64 143l-64 64l101 101v333h141v-193l50 51l64 -64l-114 -115v-198h333v-122h-474v180z" />
    <glyph glyph-name="lslash" unicode="&#x142;" horiz-adv-x="325" 
d="M51 143l-64 64l102 102v427h137v-291l53 54l64 -64l-117 -118v-318l-137 -1v183z" />
    <glyph glyph-name="Nacute" unicode="&#x143;" horiz-adv-x="742" 
d="M80 0v641h123l319 -405v405h140v-641h-123l-319 405v-405h-140zM303 699l125 116h130l-162 -116h-93z" />
    <glyph glyph-name="nacute" unicode="&#x144;" horiz-adv-x="620" 
d="M67 0v495h135v-64q18 24 39 38.5t41.5 22.5t39 10.5t30.5 2.5q67 0 108.5 -21.5t64 -54.5t30 -73.5t7.5 -79.5v-276h-137v270q0 54 -23.5 84.5t-77.5 30.5q-31 0 -54 -10.5t-37.5 -27.5t-21.5 -39.5t-7 -45.5v-262h-137zM242 553l125 116h130l-162 -116h-93z" />
    <glyph glyph-name="uni0145" unicode="&#x145;" horiz-adv-x="742" 
d="M80 0v641h123l319 -405v405h140v-641h-123l-319 405v-405h-140zM329 -284l29 84q-27 3 -48.5 18t-22.5 48q-2 40 24 62t61 22t60 -22t24 -58q-1 -30 -8 -55.5t-16 -47t-17.5 -39t-14.5 -30.5z" />
    <glyph glyph-name="uni0146" unicode="&#x146;" horiz-adv-x="620" 
d="M67 0v495h135v-64q18 24 39 38.5t41.5 22.5t39 10.5t30.5 2.5q67 0 108.5 -21.5t64 -54.5t30 -73.5t7.5 -79.5v-276h-137v270q0 54 -23.5 84.5t-77.5 30.5q-31 0 -54 -10.5t-37.5 -27.5t-21.5 -39.5t-7 -45.5v-262h-137zM268 -284l29 84q-27 3 -48.5 18t-22.5 48
q-2 40 24 62t61 22t60 -22t24 -58q-1 -30 -8 -55.5t-16 -47t-17.5 -39t-14.5 -30.5z" />
    <glyph glyph-name="Ncaron" unicode="&#x147;" horiz-adv-x="742" 
d="M80 0v641h123l319 -405v405h140v-641h-123l-319 405v-405h-140zM179 831h117l75 -67l75 67h116l-143 -138h-97z" />
    <glyph glyph-name="ncaron" unicode="&#x148;" horiz-adv-x="620" 
d="M67 0v495h135v-64q18 24 39 38.5t41.5 22.5t39 10.5t30.5 2.5q67 0 108.5 -21.5t64 -54.5t30 -73.5t7.5 -79.5v-276h-137v270q0 54 -23.5 84.5t-77.5 30.5q-31 0 -54 -10.5t-37.5 -27.5t-21.5 -39.5t-7 -45.5v-262h-137zM118 685h117l75 -67l75 67h116l-143 -138h-97z
" />
    <glyph glyph-name="napostrophe" unicode="&#x149;" horiz-adv-x="615" 
d="M67 0v495h135v-64q18 24 39 38.5t41.5 22.5t39 10.5t30.5 2.5q67 0 108.5 -21.5t64 -54.5t30 -73.5t7.5 -79.5v-276h-137v270q0 54 -23.5 84.5t-77.5 30.5q-31 0 -54 -10.5t-37.5 -27.5t-21.5 -39.5t-7 -45.5v-262h-137zM290 559l29 84q-26 3 -47.5 18t-23.5 48
q-2 39 24 60.5t61 21.5t59.5 -22t23.5 -57q-2 -29 -9 -54.5t-15.5 -46.5t-17 -38.5t-14.5 -30.5z" />
    <glyph glyph-name="eng" unicode="&#x14b;" horiz-adv-x="656" 
d="M373 -167v102q37 0 52 17t15 55v265q0 54 -23.5 84t-75.5 30q-63 0 -92.5 -36t-29.5 -96v-254h-137v495h133v-90q14 24 33.5 42t41 29.5t44.5 17t42 5.5q62 0 101.5 -19t61.5 -50t30 -70t8 -78v-289q0 -45 -16 -75.5t-44 -49t-65 -27t-79 -8.5z" />
    <glyph glyph-name="Omacron" unicode="&#x14c;" horiz-adv-x="765" 
d="M29 321q0 75 28.5 136t77.5 104.5t113 67t136 23.5q71 0 135 -23.5t112 -67t76.5 -104.5t28.5 -136t-28.5 -136t-76.5 -104.5t-112 -67t-136 -23.5q-71 0 -135.5 23.5t-113 67t-77 104.5t-28.5 136zM383 118q45 0 84 15.5t67.5 42.5t44.5 64.5t16 80.5q0 44 -16 81
t-44.5 64.5t-67.5 43t-84 15.5q-46 0 -85 -15.5t-67.5 -42.5t-45 -64.5t-16.5 -81.5q0 -43 16.5 -80.5t45 -64.5t67.5 -42.5t85 -15.5zM222 708v76h321v-76h-321z" />
    <glyph glyph-name="omacron" unicode="&#x14d;" horiz-adv-x="605" 
d="M28 244q0 49 17.5 96t52 83.5t86 59t119.5 22.5t119.5 -22.5t86 -59.5t51.5 -84t17 -96q0 -56 -21.5 -102.5t-58.5 -80t-87 -52t-107 -18.5t-107 18.5t-87.5 52t-59 80.5t-21.5 103zM303 109q66 0 104.5 40t38.5 98q0 59 -38 99.5t-105 40.5q-66 0 -104.5 -40.5
t-38.5 -99.5q0 -57 38.5 -97.5t104.5 -40.5zM142 562v76h321v-76h-321z" />
    <glyph glyph-name="Obreve" unicode="&#x14e;" horiz-adv-x="765" 
d="M29 321q0 75 28.5 136t77.5 104.5t113 67t136 23.5q71 0 135 -23.5t112 -67t76.5 -104.5t28.5 -136t-28.5 -136t-76.5 -104.5t-112 -67t-136 -23.5q-71 0 -135.5 23.5t-113 67t-77 104.5t-28.5 136zM383 118q45 0 84 15.5t67.5 42.5t44.5 64.5t16 80.5q0 44 -16 81
t-44.5 64.5t-67.5 43t-84 15.5q-46 0 -85 -15.5t-67.5 -42.5t-45 -64.5t-16.5 -81.5q0 -43 16.5 -80.5t45 -64.5t67.5 -42.5t85 -15.5zM222 836h90q0 -69 71 -69q68 0 70 69h89q-2 -71 -46 -106.5t-113 -35.5t-114 35.5t-47 106.5z" />
    <glyph glyph-name="obreve" unicode="&#x14f;" horiz-adv-x="605" 
d="M28 244q0 49 17.5 96t52 83.5t86 59t119.5 22.5t119.5 -22.5t86 -59.5t51.5 -84t17 -96q0 -56 -21.5 -102.5t-58.5 -80t-87 -52t-107 -18.5t-107 18.5t-87.5 52t-59 80.5t-21.5 103zM303 109q66 0 104.5 40t38.5 98q0 59 -38 99.5t-105 40.5q-66 0 -104.5 -40.5
t-38.5 -99.5q0 -57 38.5 -97.5t104.5 -40.5zM142 690h90q0 -69 71 -69q68 0 70 69h89q-2 -71 -46 -106.5t-113 -35.5t-114 35.5t-47 106.5z" />
    <glyph glyph-name="Ohungarumlaut" unicode="&#x150;" horiz-adv-x="765" 
d="M29 321q0 75 28.5 136t77.5 104.5t113 67t136 23.5q71 0 135 -23.5t112 -67t76.5 -104.5t28.5 -136t-28.5 -136t-76.5 -104.5t-112 -67t-136 -23.5q-71 0 -135.5 23.5t-113 67t-77 104.5t-28.5 136zM383 118q45 0 84 15.5t67.5 42.5t44.5 64.5t16 80.5q0 44 -16 81
t-44.5 64.5t-67.5 43t-84 15.5q-46 0 -85 -15.5t-67.5 -42.5t-45 -64.5t-16.5 -81.5q0 -43 16.5 -80.5t45 -64.5t67.5 -42.5t85 -15.5zM332 815h99l-110 -120h-80zM512 815h99l-109 -120h-80z" />
    <glyph glyph-name="ohungarumlaut" unicode="&#x151;" horiz-adv-x="605" 
d="M28 244q0 49 17.5 96t52 83.5t86 59t119.5 22.5t119.5 -22.5t86 -59.5t51.5 -84t17 -96q0 -56 -21.5 -102.5t-58.5 -80t-87 -52t-107 -18.5t-107 18.5t-87.5 52t-59 80.5t-21.5 103zM303 109q66 0 104.5 40t38.5 98q0 59 -38 99.5t-105 40.5q-66 0 -104.5 -40.5
t-38.5 -99.5q0 -57 38.5 -97.5t104.5 -40.5zM249 669h99l-110 -120h-80zM429 669h99l-109 -120h-80z" />
    <glyph glyph-name="OE" unicode="&#x152;" horiz-adv-x="1141" 
d="M29 321q0 75 28.5 136t77.5 104.5t113 67t136 23.5q60 0 114 -17.5t98 -49.5v57h486v-121h-346v-139h303v-115h-303v-145h345v-122h-485v57q-45 -32 -99 -49.5t-114 -17.5q-71 0 -135.5 23.5t-113 67t-77 104.5t-28.5 136zM383 118q45 0 84 15.5t67.5 42.5t44.5 64.5
t16 80.5q0 44 -16 81t-44.5 64.5t-67.5 43t-84 15.5q-46 0 -85 -15.5t-67.5 -42.5t-45 -64.5t-16.5 -81.5q0 -43 16.5 -80.5t45 -64.5t67.5 -42.5t85 -15.5z" />
    <glyph glyph-name="oe" unicode="&#x153;" horiz-adv-x="1014" 
d="M28 244q0 49 17.5 96t52 83.5t86 59t119.5 22.5q66 0 116.5 -21.5t85.5 -58.5q31 38 81.5 59t122.5 21q74 0 124 -22.5t81 -60.5t44 -88t13 -105h-389q2 -58 35.5 -96.5t103.5 -38.5q51 0 77 20t35 56h130q-5 -53 -25.5 -87.5t-53.5 -55t-76 -29t-93 -8.5
q-73 0 -125 21.5t-84 59.5q-37 -38 -89 -59.5t-114 -21.5q-57 0 -107 18.5t-87.5 52t-59 80.5t-21.5 103zM586 302h245q-8 44 -40 68t-82 24q-51 0 -84 -24.5t-39 -67.5zM303 109q66 0 104.5 40t38.5 98q0 59 -38 99.5t-105 40.5q-66 0 -104.5 -40.5t-38.5 -99.5
q0 -57 38.5 -97.5t104.5 -40.5z" />
    <glyph glyph-name="Racute" unicode="&#x154;" horiz-adv-x="661" 
d="M592 180l38 -180h-145l-37 171q-10 45 -47 59.5t-88 14.5h-93v-245h-140v641h291q119 0 186 -44.5t67 -133.5q0 -37 -11.5 -66t-30.5 -51t-44 -36.5t-52 -21.5q38 -12 67.5 -37.5t38.5 -70.5zM220 349h135q59 0 94 18.5t35 71.5q0 27 -9 43.5t-25 24.5t-37 10.5t-44 2.5
h-149v-171zM253 699l125 116h130l-162 -116h-93z" />
    <glyph glyph-name="racute" unicode="&#x155;" horiz-adv-x="553" 
d="M67 0v495h135v-64q24 35 57.5 54t70.5 21q36 2 71.5 -9.5t61 -38.5t36 -69.5t-4.5 -101.5h-122q11 51 -9.5 80.5t-65.5 27.5q-48 -2 -70.5 -38.5t-22.5 -90.5v-266h-137zM149 553l125 116h130l-162 -116h-93z" />
    <glyph glyph-name="uni0156" unicode="&#x156;" horiz-adv-x="661" 
d="M592 180l38 -180h-145l-37 171q-10 45 -47 59.5t-88 14.5h-93v-245h-140v641h291q119 0 186 -44.5t67 -133.5q0 -37 -11.5 -66t-30.5 -51t-44 -36.5t-52 -21.5q38 -12 67.5 -37.5t38.5 -70.5zM220 349h135q59 0 94 18.5t35 71.5q0 27 -9 43.5t-25 24.5t-37 10.5t-44 2.5
h-149v-171zM288 -284l29 84q-27 3 -48.5 18t-22.5 48q-2 40 24 62t61 22t60 -22t24 -58q-1 -30 -8 -55.5t-16 -47t-17.5 -39t-14.5 -30.5z" />
    <glyph glyph-name="uni0157" unicode="&#x157;" horiz-adv-x="553" 
d="M67 0v495h135v-64q24 35 57.5 54t70.5 21q36 2 71.5 -9.5t61 -38.5t36 -69.5t-4.5 -101.5h-122q11 51 -9.5 80.5t-65.5 27.5q-48 -2 -70.5 -38.5t-22.5 -90.5v-266h-137zM234 -284l29 84q-27 3 -48.5 18t-22.5 48q-2 40 24 62t61 22t60 -22t24 -58q-1 -30 -8 -55.5
t-16 -47t-17.5 -39t-14.5 -30.5z" />
    <glyph glyph-name="Rcaron" unicode="&#x158;" horiz-adv-x="661" 
d="M592 180l38 -180h-145l-37 171q-10 45 -47 59.5t-88 14.5h-93v-245h-140v641h291q119 0 186 -44.5t67 -133.5q0 -37 -11.5 -66t-30.5 -51t-44 -36.5t-52 -21.5q38 -12 67.5 -37.5t38.5 -70.5zM220 349h135q59 0 94 18.5t35 71.5q0 27 -9 43.5t-25 24.5t-37 10.5t-44 2.5
h-149v-171zM139 831h117l75 -67l75 67h116l-143 -138h-97z" />
    <glyph glyph-name="rcaron" unicode="&#x159;" horiz-adv-x="553" 
d="M67 0v495h135v-64q24 35 57.5 54t70.5 21q36 2 71.5 -9.5t61 -38.5t36 -69.5t-4.5 -101.5h-122q11 51 -9.5 80.5t-65.5 27.5q-48 -2 -70.5 -38.5t-22.5 -90.5v-266h-137zM85 685h117l75 -67l75 67h116l-143 -138h-97z" />
    <glyph glyph-name="Sacute" unicode="&#x15a;" horiz-adv-x="637" 
d="M457 443q-3 30 -17 48.5t-35 28t-47 12.5t-53 3q-16 0 -37.5 -2.5t-41 -10t-32.5 -20.5t-13 -35t13 -36.5t35 -24.5t51 -16.5t61 -12.5q45 -8 92.5 -19t86.5 -32t63.5 -56t24.5 -91q0 -58 -25 -95t-64.5 -58t-88.5 -28.5t-97 -7.5q-54 0 -107 9t-95.5 33t-69 65.5
t-27.5 105.5h141q1 -28 17 -47.5t39.5 -31t50.5 -16.5t50 -5q26 0 50.5 3t43.5 11t30 23t11 39q0 23 -13.5 38t-36 24.5t-52.5 16t-63 12.5q-45 8 -91 19t-83.5 31.5t-61.5 55t-24 89.5q0 57 25 93t64.5 56.5t88.5 28.5t97 8q53 0 102 -9.5t87.5 -33t62.5 -63.5t26 -102
h-138zM269 699l125 116h130l-162 -116h-93z" />
    <glyph glyph-name="sacute" unicode="&#x15b;" horiz-adv-x="544" 
d="M378 338q-1 32 -32 47.5t-76 15.5q-46 1 -72.5 -10t-26.5 -31t28 -31t95 -25q40 -8 79 -19.5t69.5 -29.5t49.5 -44t19 -64q0 -43 -18.5 -72.5t-50 -48.5t-73 -27.5t-87.5 -8.5q-48 0 -92.5 8t-79 28t-55 54t-21.5 86h129q6 -41 38.5 -57t85.5 -16q41 0 65.5 11t23.5 35
q0 17 -11.5 28t-30.5 19t-43.5 13.5t-51.5 10.5q-100 20 -149.5 51.5t-49.5 96.5q0 40 18.5 68t50.5 45.5t74 25.5t90 8q46 0 87 -9t72.5 -29t51 -51.5t21.5 -77.5h-127zM213 553l125 116h130l-162 -116h-93z" />
    <glyph glyph-name="Scircumflex" unicode="&#x15c;" horiz-adv-x="637" 
d="M457 443q-3 30 -17 48.5t-35 28t-47 12.5t-53 3q-16 0 -37.5 -2.5t-41 -10t-32.5 -20.5t-13 -35t13 -36.5t35 -24.5t51 -16.5t61 -12.5q45 -8 92.5 -19t86.5 -32t63.5 -56t24.5 -91q0 -58 -25 -95t-64.5 -58t-88.5 -28.5t-97 -7.5q-54 0 -107 9t-95.5 33t-69 65.5
t-27.5 105.5h141q1 -28 17 -47.5t39.5 -31t50.5 -16.5t50 -5q26 0 50.5 3t43.5 11t30 23t11 39q0 23 -13.5 38t-36 24.5t-52.5 16t-63 12.5q-45 8 -91 19t-83.5 31.5t-61.5 55t-24 89.5q0 57 25 93t64.5 56.5t88.5 28.5t97 8q53 0 102 -9.5t87.5 -33t62.5 -63.5t26 -102
h-138zM127 699l143 137h97l143 -137h-116l-75 68l-75 -68h-117z" />
    <glyph glyph-name="scircumflex" unicode="&#x15d;" horiz-adv-x="544" 
d="M378 338q-1 32 -32 47.5t-76 15.5q-46 1 -72.5 -10t-26.5 -31t28 -31t95 -25q40 -8 79 -19.5t69.5 -29.5t49.5 -44t19 -64q0 -43 -18.5 -72.5t-50 -48.5t-73 -27.5t-87.5 -8.5q-48 0 -92.5 8t-79 28t-55 54t-21.5 86h129q6 -41 38.5 -57t85.5 -16q41 0 65.5 11t23.5 35
q0 17 -11.5 28t-30.5 19t-43.5 13.5t-51.5 10.5q-100 20 -149.5 51.5t-49.5 96.5q0 40 18.5 68t50.5 45.5t74 25.5t90 8q46 0 87 -9t72.5 -29t51 -51.5t21.5 -77.5h-127zM81 553l143 137h97l143 -137h-116l-75 68l-75 -68h-117z" />
    <glyph glyph-name="Scedilla" unicode="&#x15e;" horiz-adv-x="637" 
d="M457 443q-3 30 -17 48.5t-35 28t-47 12.5t-53 3q-16 0 -37.5 -2.5t-41 -10t-32.5 -20.5t-13 -35t13 -36.5t35 -24.5t51 -16.5t61 -12.5q45 -8 92.5 -19t86.5 -32t63.5 -56t24.5 -91q0 -55 -23 -91.5t-59.5 -57.5t-82.5 -30t-93 -10l-8 -29q36 -5 61 -23.5t25 -58.5
q0 -25 -11.5 -42.5t-29 -28t-39.5 -15.5t-43 -5q-27 0 -50 5t-46 19l25 55q32 -16 66 -16q15 0 29 6t14 25q0 13 -10 19.5t-24 9.5t-28 3h-23l22 78q-47 4 -91 16t-78 36.5t-55 63t-22 95.5h141q1 -28 17 -47.5t39.5 -31t50.5 -16.5t50 -5q26 0 50.5 3t43 11t29.5 23t11 39
q0 23 -13 38t-35.5 24.5t-52.5 16t-63 12.5q-45 8 -91 19t-83.5 31.5t-61.5 55t-24 89.5q0 57 25 93t64.5 56.5t88.5 28.5t97 8q53 0 102 -9.5t87.5 -33t62.5 -63.5t26 -102h-138z" />
    <glyph glyph-name="scedilla" unicode="&#x15f;" horiz-adv-x="544" 
d="M378 338q-1 32 -32 47.5t-76 15.5q-46 1 -72.5 -10t-26.5 -31t28 -31t95 -25q40 -8 79 -19.5t69.5 -29.5t49.5 -44t19 -64q0 -40 -16.5 -69t-44.5 -48t-65.5 -28.5t-80.5 -11.5l-8 -29q35 -5 60.5 -23.5t25.5 -58.5q0 -25 -11.5 -42.5t-29.5 -28t-40 -15.5t-43 -5
q-27 0 -49.5 5t-45.5 19l25 55q14 -8 31.5 -12t33.5 -4q15 0 29 6t14 25q0 13 -10 19.5t-23.5 9.5t-28 3h-23.5l23 78q-42 3 -78 14t-63 31.5t-42.5 52t-16.5 76.5h129q6 -41 38.5 -57t85.5 -16q41 0 65.5 11t23.5 35q0 17 -11.5 28t-30.5 19t-43.5 13.5t-51.5 10.5
q-100 20 -149.5 51.5t-49.5 96.5q0 40 18.5 68t50.5 45.5t74 25.5t90 8q47 0 88 -9t72.5 -29t50.5 -51.5t21 -77.5h-127z" />
    <glyph glyph-name="Scaron" unicode="&#x160;" horiz-adv-x="637" 
d="M457 443q-3 30 -17 48.5t-35 28t-47 12.5t-53 3q-16 0 -37.5 -2.5t-41 -10t-32.5 -20.5t-13 -35t13 -36.5t35 -24.5t51 -16.5t61 -12.5q45 -8 92.5 -19t86.5 -32t63.5 -56t24.5 -91q0 -58 -25 -95t-64.5 -58t-88.5 -28.5t-97 -7.5q-54 0 -107 9t-95.5 33t-69 65.5
t-27.5 105.5h141q1 -28 17 -47.5t39.5 -31t50.5 -16.5t50 -5q26 0 50.5 3t43.5 11t30 23t11 39q0 23 -13.5 38t-36 24.5t-52.5 16t-63 12.5q-45 8 -91 19t-83.5 31.5t-61.5 55t-24 89.5q0 57 25 93t64.5 56.5t88.5 28.5t97 8q53 0 102 -9.5t87.5 -33t62.5 -63.5t26 -102
h-138zM127 831h117l75 -67l75 67h116l-143 -138h-97z" />
    <glyph glyph-name="scaron" unicode="&#x161;" horiz-adv-x="544" 
d="M378 338q-1 32 -32 47.5t-76 15.5q-46 1 -72.5 -10t-26.5 -31t28 -31t95 -25q40 -8 79 -19.5t69.5 -29.5t49.5 -44t19 -64q0 -43 -18.5 -72.5t-50 -48.5t-73 -27.5t-87.5 -8.5q-48 0 -92.5 8t-79 28t-55 54t-21.5 86h129q6 -41 38.5 -57t85.5 -16q41 0 65.5 11t23.5 35
q0 17 -11.5 28t-30.5 19t-43.5 13.5t-51.5 10.5q-100 20 -149.5 51.5t-49.5 96.5q0 40 18.5 68t50.5 45.5t74 25.5t90 8q46 0 87 -9t72.5 -29t51 -51.5t21.5 -77.5h-127zM81 685h117l75 -67l75 67h116l-143 -138h-97z" />
    <glyph glyph-name="uni0162" unicode="&#x162;" horiz-adv-x="605" 
d="M233 0v520h-211v121h562v-121h-211v-520h-140zM260 -284l29 84q-27 3 -48.5 18t-22.5 48q-2 40 24 62t61 22t60 -22t24 -58q-1 -30 -8 -55.5t-16 -47t-17.5 -39t-14.5 -30.5z" />
    <glyph glyph-name="uni0163" unicode="&#x163;" horiz-adv-x="479" 
d="M121 495v138h136v-138h190v-107h-190v-230q0 -43 45 -43q24 0 57.5 15.5t65.5 46.5l42 -97q-39 -46 -97 -69t-109 -23q-66 0 -103 36.5t-37 107.5v256h-105v107h105zM197 -284l29 84q-27 3 -48.5 18t-22.5 48q-2 40 24 62t61 22t60 -22t24 -58q-1 -30 -8 -55.5t-16 -47
t-17.5 -39t-14.5 -30.5z" />
    <glyph glyph-name="Tcaron" unicode="&#x164;" horiz-adv-x="605" 
d="M233 0v520h-211v121h562v-121h-211v-520h-140zM111 831h117l75 -67l75 67h116l-143 -138h-97z" />
    <glyph glyph-name="tcaron" unicode="&#x165;" horiz-adv-x="732" 
d="M121 495v138h136v-138h190v-107h-190v-230q0 -43 45 -43q24 0 57.5 15.5t65.5 46.5l42 -97q-39 -46 -97 -69t-109 -23q-66 0 -103 36.5t-37 107.5v256h-105v107h105zM554 440l29 84q-26 3 -47.5 18t-23.5 48q-2 39 24 60.5t61 21.5t59.5 -22t23.5 -57q-2 -29 -9 -54.5
t-15.5 -46.5t-17 -38.5t-14.5 -30.5z" />
    <glyph glyph-name="Tbar" unicode="&#x166;" horiz-adv-x="605" 
d="M233 0v520h-211v121h562v-121h-211v-520h-140zM142 708v76h321v-76h-321z" />
    <glyph glyph-name="tbar" unicode="&#x167;" horiz-adv-x="479" 
d="M27 243v77h96v69h-106v108h106v139h139v-139h190v-108h-190v-69h94v-77h-94v-83q0 -43 45 -43q23 0 57 15t66 47l42 -99q-40 -46 -98 -69.5t-110 -22.5q-66 0 -103.5 37t-37.5 108v110h-96z" />
    <glyph glyph-name="Utilde" unicode="&#x168;" horiz-adv-x="722" 
d="M215 641v-359q0 -77 34.5 -122t118.5 -45q83 0 117 45.5t34 121.5v359h137v-362q0 -54 -14.5 -105.5t-48.5 -92t-89.5 -65t-136.5 -24.5t-136.5 24.5t-90 65t-50 92t-15.5 105.5v362h140zM200 689q2 23 7 45.5t16.5 40t30 28t45.5 10.5q22 0 39.5 -9.5t32 -20.5t26 -20.5
t20.5 -9.5q21 0 28 18t7 35h70q-1 -23 -7 -44.5t-17 -38.5t-29 -27.5t-45 -10.5q-22 0 -40 9.5t-32.5 20.5t-26 20.5t-20.5 9.5q-21 0 -28 -19.5t-7 -36.5h-70z" />
    <glyph glyph-name="utilde" unicode="&#x169;" horiz-adv-x="624" 
d="M429 0l-10 89q-11 -28 -29.5 -47.5t-40 -30.5t-45 -16t-43.5 -5q-94 0 -147.5 52.5t-53.5 176.5v276h136v-260q0 -66 23 -97.5t80 -31.5q116 0 116 134v255h137v-384l10 -111h-133zM151 543q2 23 7 45.5t16.5 40t30 28t45.5 10.5q22 0 39.5 -9.5t32 -20.5t26 -20.5
t20.5 -9.5q21 0 28 18t7 35h70q-1 -23 -7 -44.5t-17 -38.5t-29 -27.5t-45 -10.5q-22 0 -40 9.5t-32.5 20.5t-26 20.5t-20.5 9.5q-21 0 -28 -19.5t-7 -36.5h-70z" />
    <glyph glyph-name="Umacron" unicode="&#x16a;" horiz-adv-x="722" 
d="M215 641v-359q0 -77 34.5 -122t118.5 -45q83 0 117 45.5t34 121.5v359h137v-362q0 -54 -14.5 -105.5t-48.5 -92t-89.5 -65t-136.5 -24.5t-136.5 24.5t-90 65t-50 92t-15.5 105.5v362h140zM200 708v76h321v-76h-321z" />
    <glyph glyph-name="umacron" unicode="&#x16b;" horiz-adv-x="624" 
d="M429 0l-10 89q-11 -28 -29.5 -47.5t-40 -30.5t-45 -16t-43.5 -5q-94 0 -147.5 52.5t-53.5 176.5v276h136v-260q0 -66 23 -97.5t80 -31.5q116 0 116 134v255h137v-384l10 -111h-133zM151 562v76h321v-76h-321z" />
    <glyph glyph-name="Ubreve" unicode="&#x16c;" horiz-adv-x="722" 
d="M215 641v-359q0 -77 34.5 -122t118.5 -45q83 0 117 45.5t34 121.5v359h137v-362q0 -54 -14.5 -105.5t-48.5 -92t-89.5 -65t-136.5 -24.5t-136.5 24.5t-90 65t-50 92t-15.5 105.5v362h140zM201 836h90q0 -69 71 -69q68 0 70 69h89q-2 -71 -46 -106.5t-113 -35.5t-114 35.5
t-47 106.5z" />
    <glyph glyph-name="ubreve" unicode="&#x16d;" horiz-adv-x="624" 
d="M429 0l-10 89q-11 -28 -29.5 -47.5t-40 -30.5t-45 -16t-43.5 -5q-94 0 -147.5 52.5t-53.5 176.5v276h136v-260q0 -66 23 -97.5t80 -31.5q116 0 116 134v255h137v-384l10 -111h-133zM152 690h90q0 -69 71 -69q68 0 70 69h89q-2 -71 -46 -106.5t-113 -35.5t-114 35.5
t-47 106.5z" />
    <glyph glyph-name="Uring" unicode="&#x16e;" horiz-adv-x="722" 
d="M215 641v-359q0 -77 34.5 -122t118.5 -45q83 0 117 45.5t34 121.5v359h137v-362q0 -54 -14.5 -105.5t-48.5 -92t-89.5 -65t-136.5 -24.5t-136.5 24.5t-90 65t-50 92t-15.5 105.5v362h140zM248 775q0 18 7.5 37.5t21.5 35t35 25.5t49 10q29 0 50.5 -10t35.5 -25.5
t21.5 -34.5t7.5 -38t-7.5 -38t-22 -34t-36 -24.5t-49.5 -9.5t-49 9.5t-35 25t-21.5 34.5t-7.5 37zM361 733q16 0 27.5 11.5t11.5 30.5q0 20 -11.5 31.5t-27.5 11.5t-26.5 -11.5t-10.5 -31.5q0 -19 11 -30.5t26 -11.5z" />
    <glyph glyph-name="uring" unicode="&#x16f;" horiz-adv-x="624" 
d="M429 0l-10 89q-11 -28 -29.5 -47.5t-40 -30.5t-45 -16t-43.5 -5q-94 0 -147.5 52.5t-53.5 176.5v276h136v-260q0 -66 23 -97.5t80 -31.5q116 0 116 134v255h137v-384l10 -111h-133zM198 629q0 18 7.5 37.5t21.5 35t35 25.5t49 10q29 0 50.5 -10t35.5 -25.5t21.5 -34.5
t7.5 -38t-7.5 -38t-22 -34t-36 -24.5t-49.5 -9.5t-49 9.5t-35 25t-21.5 34.5t-7.5 37zM311 587q16 0 27.5 11.5t11.5 30.5q0 20 -11.5 31.5t-27.5 11.5t-26.5 -11.5t-10.5 -31.5q0 -19 11 -30.5t26 -11.5z" />
    <glyph glyph-name="Uhungarumlaut" unicode="&#x170;" horiz-adv-x="722" 
d="M215 641v-359q0 -77 34.5 -122t118.5 -45q83 0 117 45.5t34 121.5v359h137v-362q0 -54 -14.5 -105.5t-48.5 -92t-89.5 -65t-136.5 -24.5t-136.5 24.5t-90 65t-50 92t-15.5 105.5v362h140zM325 815h99l-110 -120h-80zM505 815h99l-109 -120h-80z" />
    <glyph glyph-name="uhungarumlaut" unicode="&#x171;" horiz-adv-x="624" 
d="M429 0l-10 89q-11 -28 -29.5 -47.5t-40 -30.5t-45 -16t-43.5 -5q-94 0 -147.5 52.5t-53.5 176.5v276h136v-260q0 -66 23 -97.5t80 -31.5q116 0 116 134v255h137v-384l10 -111h-133zM268 669h99l-110 -120h-80zM448 669h99l-109 -120h-80z" />
    <glyph glyph-name="Uogonek" unicode="&#x172;" horiz-adv-x="722" 
d="M215 641v-359q0 -77 34.5 -122t118.5 -45q83 0 117 45.5t34 121.5v359h137v-362q0 -48 -11.5 -94.5t-38 -85.5t-70 -66.5t-107.5 -36.5q-15 -7 -30 -15.5t-27 -19t-20 -23.5t-8 -28q0 -17 11 -25t27 -8q20 0 34 6.5t29 17.5l26 -69q-23 -14 -46 -21t-52 -7q-24 0 -46 6
t-39 18t-27 31t-10 45q0 29 13.5 52t33.5 42q-61 11 -103.5 38t-69 65t-38.5 84t-12 94v362h140z" />
    <glyph glyph-name="uogonek" unicode="&#x173;" horiz-adv-x="624" 
d="M500 -108l26 -69q-24 -14 -46.5 -21t-51.5 -7q-24 0 -46 6t-39 18t-27 31t-10 45q0 25 10.5 47t27.5 39.5t38 31t43 22.5l-6 54q-11 -28 -29.5 -47.5t-40.5 -30.5t-45 -16t-43 -5q-94 0 -147.5 52.5t-53.5 176.5v276h136v-260q0 -66 23 -97.5t80 -31.5q116 0 116 134v255
h137v-384l10 -111h-48q-15 -6 -34.5 -15.5t-37.5 -21.5t-30.5 -27.5t-12.5 -34.5q0 -17 10.5 -25t27.5 -8q20 0 34 6.5t29 17.5z" />
    <glyph glyph-name="Wcircumflex" unicode="&#x174;" horiz-adv-x="1049" 
d="M218 0l-214 641h154l142 -444l150 444h155l142 -444l150 444h148l-222 -641h-158l-142 425l-147 -425h-158zM333 699l143 137h97l143 -137h-116l-75 68l-75 -68h-117z" />
    <glyph glyph-name="wcircumflex" unicode="&#x175;" horiz-adv-x="912" 
d="M200 0l-194 495h144l130 -331l128 331h94l135 -331l124 331h138l-194 -495h-137l-115 298l-116 -298h-137zM264 553l143 137h97l143 -137h-116l-75 68l-75 -68h-117z" />
    <glyph glyph-name="Ycircumflex" unicode="&#x176;" horiz-adv-x="679" 
d="M266 0v219l-259 422h165l167 -276l166 276h160l-259 -425v-216h-140zM148 699l143 137h97l143 -137h-116l-75 68l-75 -68h-117z" />
    <glyph glyph-name="ycircumflex" unicode="&#x177;" horiz-adv-x="570" 
d="M87 -48q11 -4 25 -4q32 0 57.5 13.5t39.5 44.5l6 14l-214 475h143l144 -330l143 330h137l-241 -536q-30 -67 -85.5 -97.5t-124.5 -27.5q-11 1 -26.5 3t-26.5 6l-60 12l36 107zM93 553l143 137h97l143 -137h-116l-75 68l-75 -68h-117z" />
    <glyph glyph-name="Ydieresis" unicode="&#x178;" horiz-adv-x="679" 
d="M266 0v219l-259 422h165l167 -276l166 276h160l-259 -425v-216h-140zM433 693q-25 0 -43 15t-18 41t18 41.5t43 15.5q24 0 42.5 -16t18.5 -41q0 -26 -18.5 -41t-42.5 -15zM246 693q-25 0 -43 15t-18 41t18 41.5t43 15.5t43 -15.5t18 -41.5t-18 -41t-43 -15z" />
    <glyph glyph-name="Zacute" unicode="&#x179;" horiz-adv-x="614" 
d="M21 0v101l382 419h-376v121h568v-108l-374 -411h367v-122h-567zM236 699l125 116h130l-162 -116h-93z" />
    <glyph glyph-name="zacute" unicode="&#x17a;" horiz-adv-x="497" 
d="M20 0v92l275 284h-274v119h454v-98l-268 -278h268v-119h-455zM175 553l125 116h130l-162 -116h-93z" />
    <glyph glyph-name="Zdotaccent" unicode="&#x17b;" horiz-adv-x="614" 
d="M21 0v101l382 419h-376v121h568v-108l-374 -411h367v-122h-567zM238 757q0 29 20.5 46t48.5 17q27 0 47.5 -17t20.5 -46t-20.5 -46.5t-47.5 -17.5q-28 0 -48.5 17.5t-20.5 46.5z" />
    <glyph glyph-name="zdotaccent" unicode="&#x17c;" horiz-adv-x="497" 
d="M20 0v92l275 284h-274v119h454v-98l-268 -278h268v-119h-455zM180 611q0 29 20.5 46t48.5 17q27 0 47.5 -17t20.5 -46t-20.5 -46.5t-47.5 -17.5q-28 0 -48.5 17.5t-20.5 46.5z" />
    <glyph glyph-name="Zcaron" unicode="&#x17d;" horiz-adv-x="614" 
d="M21 0v101l382 419h-376v121h568v-108l-374 -411h367v-122h-567zM116 831h117l75 -67l75 67h116l-143 -138h-97z" />
    <glyph glyph-name="zcaron" unicode="&#x17e;" horiz-adv-x="497" 
d="M20 0v92l275 284h-274v119h454v-98l-268 -278h268v-119h-455zM57 685h117l75 -67l75 67h116l-143 -138h-97z" />
    <glyph glyph-name="florin" unicode="&#x192;" horiz-adv-x="444" 
d="M-82 -132l41 82q19 -11 36.5 -16.5t38.5 -5.5q31 0 45.5 20t18.5 46l51 386h-81l14 100h80l3 37q9 78 61 120.5t129 42.5q35 0 64.5 -8.5t56.5 -32.5l-41 -89q-14 12 -33.5 20.5t-40.5 8.5q-23 0 -37 -8.5t-22 -23t-11 -32t-5 -35.5h137l-13 -100h-134l-49 -390
q-10 -76 -59 -119.5t-126 -43.5q-36 0 -66 8t-58 33z" />
    <glyph glyph-name="uni0218" unicode="&#x218;" horiz-adv-x="637" 
d="M457 443q-3 30 -17 48.5t-35 28t-47 12.5t-53 3q-16 0 -37.5 -2.5t-41 -10t-32.5 -20.5t-13 -35t13 -36.5t35 -24.5t51 -16.5t61 -12.5q45 -8 92.5 -19t86.5 -32t63.5 -56t24.5 -91q0 -58 -25 -95t-64.5 -58t-88.5 -28.5t-97 -7.5q-54 0 -107 9t-95.5 33t-69 65.5
t-27.5 105.5h141q1 -28 17 -47.5t39.5 -31t50.5 -16.5t50 -5q26 0 50.5 3t43.5 11t30 23t11 39q0 23 -13.5 38t-36 24.5t-52.5 16t-63 12.5q-45 8 -91 19t-83.5 31.5t-61.5 55t-24 89.5q0 57 25 93t64.5 56.5t88.5 28.5t97 8q53 0 102 -9.5t87.5 -33t62.5 -63.5t26 -102
h-138zM276 -284l29 84q-27 3 -48.5 18t-22.5 48q-2 40 24 62t61 22t60 -22t24 -58q-1 -30 -8 -55.5t-16 -47t-17.5 -39t-14.5 -30.5z" />
    <glyph glyph-name="uni0219" unicode="&#x219;" horiz-adv-x="544" 
d="M378 338q-1 32 -32 47.5t-76 15.5q-46 1 -72.5 -10t-26.5 -31t28 -31t95 -25q40 -8 79 -19.5t69.5 -29.5t49.5 -44t19 -64q0 -43 -18.5 -72.5t-50 -48.5t-73 -27.5t-87.5 -8.5q-48 0 -92.5 8t-79 28t-55 54t-21.5 86h129q6 -41 38.5 -57t85.5 -16q41 0 65.5 11t23.5 35
q0 17 -11.5 28t-30.5 19t-43.5 13.5t-51.5 10.5q-100 20 -149.5 51.5t-49.5 96.5q0 40 18.5 68t50.5 45.5t74 25.5t90 8q46 0 87 -9t72.5 -29t51 -51.5t21.5 -77.5h-127zM230 -284l29 84q-27 3 -48.5 18t-22.5 48q-2 40 24 62t61 22t60 -22t24 -58q-1 -30 -8 -55.5t-16 -47
t-17.5 -39t-14.5 -30.5z" />
    <glyph glyph-name="uni021A" unicode="&#x21a;" horiz-adv-x="605" 
d="M233 0v520h-211v121h562v-121h-211v-520h-140zM260 -284l29 84q-27 3 -48.5 18t-22.5 48q-2 40 24 62t61 22t60 -22t24 -58q-1 -30 -8 -55.5t-16 -47t-17.5 -39t-14.5 -30.5z" />
    <glyph glyph-name="uni021B" unicode="&#x21b;" horiz-adv-x="479" 
d="M121 495v138h136v-138h190v-107h-190v-230q0 -43 45 -43q24 0 57.5 15.5t65.5 46.5l42 -97q-39 -46 -97 -69t-109 -23q-66 0 -103 36.5t-37 107.5v256h-105v107h105zM197 -284l29 84q-27 3 -48.5 18t-22.5 48q-2 40 24 62t61 22t60 -22t24 -58q-1 -30 -8 -55.5t-16 -47
t-17.5 -39t-14.5 -30.5z" />
    <glyph glyph-name="uni0237" unicode="&#x237;" horiz-adv-x="305" 
d="M19 -171v102q37 0 51.5 17t14.5 55v492h137v-491q0 -49 -15.5 -82.5t-43 -54t-64.5 -29.5t-80 -9z" />
    <glyph glyph-name="circumflex" unicode="&#x2c6;" horiz-adv-x="602" 
d="M109 553l143 137h97l143 -137h-116l-75 68l-75 -68h-117z" />
    <glyph glyph-name="caron" unicode="&#x2c7;" horiz-adv-x="602" 
d="M109 685h117l75 -67l75 67h116l-143 -138h-97z" />
    <glyph glyph-name="breve" unicode="&#x2d8;" horiz-adv-x="569" 
d="M124 690h90q0 -69 71 -69q68 0 70 69h89q-2 -71 -46 -106.5t-113 -35.5t-114 35.5t-47 106.5z" />
    <glyph glyph-name="dotaccent" unicode="&#x2d9;" horiz-adv-x="571" 
d="M217 611q0 29 20.5 46t48.5 17q27 0 47.5 -17t20.5 -46t-20.5 -46.5t-47.5 -17.5q-28 0 -48.5 17.5t-20.5 46.5z" />
    <glyph glyph-name="ring" unicode="&#x2da;" horiz-adv-x="570" 
d="M171 629q0 18 7.5 37.5t21.5 35t35 25.5t49 10q29 0 50.5 -10t35.5 -25.5t21.5 -34.5t7.5 -38t-7.5 -38t-22 -34t-36 -24.5t-49.5 -9.5t-49 9.5t-35 25t-21.5 34.5t-7.5 37zM284 587q16 0 27.5 11.5t11.5 30.5q0 20 -11.5 31.5t-27.5 11.5t-26.5 -11.5t-10.5 -31.5
q0 -19 11 -30.5t26 -11.5z" />
    <glyph glyph-name="ogonek" unicode="&#x2db;" horiz-adv-x="572" 
d="M297 -99l26 -69q-24 -14 -47 -21t-52 -7q-24 0 -46 6t-39 18t-27 31t-10 45q0 29 13.5 53.5t34.5 43t47 32t51 21.5l64 -44q-15 -6 -35 -15.5t-38 -22t-31 -28t-13 -34.5q0 -17 11 -25t27 -8q20 0 34 6.5t30 17.5z" />
    <glyph glyph-name="tilde" unicode="&#x2dc;" horiz-adv-x="560" 
d="M119 543q2 23 7 45.5t16.5 40t30 28t45.5 10.5q22 0 39.5 -9.5t32 -20.5t26 -20.5t20.5 -9.5q21 0 28 18t7 35h70q-1 -23 -7 -44.5t-17 -38.5t-29 -27.5t-45 -10.5q-22 0 -40 9.5t-32.5 20.5t-26 20.5t-20.5 9.5q-21 0 -28 -19.5t-7 -36.5h-70z" />
    <glyph glyph-name="hungarumlaut" unicode="&#x2dd;" horiz-adv-x="592" 
d="M215 669h99l-110 -120h-80zM395 669h99l-109 -120h-80z" />
    <glyph glyph-name="uni0326" unicode="&#x326;" horiz-adv-x="242" 
d="M81 -284l29 84q-27 3 -48.5 18t-22.5 48q-2 40 24 62t61 22t60 -22t24 -58q-1 -30 -8 -55.5t-16 -47t-17.5 -39t-14.5 -30.5z" />
    <glyph glyph-name="uni0394" unicode="&#x394;" horiz-adv-x="683" 
d="M-1 0l342 727l343 -727h-685zM155 93h370l-185 419z" />
    <glyph glyph-name="uni03A9" unicode="&#x3a9;" horiz-adv-x="823" 
d="M8 0v93h163q-51 45 -76 105t-25 127q0 73 27 131.5t73.5 100t108.5 63.5t132 22t132 -22t108.5 -63.5t74 -100t27.5 -131.5q0 -67 -25 -127t-76 -105h162v-93h-330v84q72 39 115 95.5t43 141.5q0 51 -17 92.5t-48 71t-73.5 46t-92.5 16.5t-92.5 -16.5t-73 -46t-48 -71
t-17.5 -92.5q0 -81 43.5 -141t114.5 -96v-84h-330z" />
    <glyph glyph-name="uni03BC" unicode="&#x3bc;" horiz-adv-x="631" 
d="M82 -171v655h107v-267q0 -58 27 -94t90 -36q69 0 102 41t33 106v250h107v-484h-102v53q-26 -30 -62.5 -44t-76.5 -14q-32 0 -63 8.5t-55 31.5v-206h-107z" />
    <glyph glyph-name="pi" unicode="&#x3c0;" horiz-adv-x="702" 
d="M175 0l46 399h-27q-37 0 -60 -15t-23 -55q0 -20 9.5 -39t20.5 -36l-84 -25q-22 22 -33 52t-11 61q0 36 14.5 62.5t38.5 44t55 26.5t63 9h496l-1 -85h-131v-399h-107v399h-113l-46 -399h-107z" />
    <glyph glyph-name="Wgrave" unicode="&#x1e80;" horiz-adv-x="1049" 
d="M218 0l-214 641h154l142 -444l150 444h155l142 -444l150 444h148l-222 -641h-158l-142 425l-147 -425h-158zM308 815h129l126 -116h-93z" />
    <glyph glyph-name="wgrave" unicode="&#x1e81;" horiz-adv-x="912" 
d="M200 0l-194 495h144l130 -331l128 331h94l135 -331l124 331h138l-194 -495h-137l-115 298l-116 -298h-137zM227 669h129l126 -116h-93z" />
    <glyph glyph-name="Wacute" unicode="&#x1e82;" horiz-adv-x="1049" 
d="M218 0l-214 641h154l142 -444l150 444h155l142 -444l150 444h148l-222 -641h-158l-142 425l-147 -425h-158zM473 699l125 116h130l-162 -116h-93z" />
    <glyph glyph-name="wacute" unicode="&#x1e83;" horiz-adv-x="912" 
d="M200 0l-194 495h144l130 -331l128 331h94l135 -331l124 331h138l-194 -495h-137l-115 298l-116 -298h-137zM396 553l125 116h130l-162 -116h-93z" />
    <glyph glyph-name="Wdieresis" unicode="&#x1e84;" horiz-adv-x="1049" 
d="M218 0l-214 641h154l142 -444l150 444h155l142 -444l150 444h148l-222 -641h-158l-142 425l-147 -425h-158zM618 693q-25 0 -43 15t-18 41t18 41.5t43 15.5q24 0 42.5 -16t18.5 -41q0 -26 -18.5 -41t-42.5 -15zM431 693q-25 0 -43 15t-18 41t18 41.5t43 15.5t43 -15.5
t18 -41.5t-18 -41t-43 -15z" />
    <glyph glyph-name="wdieresis" unicode="&#x1e85;" horiz-adv-x="912" 
d="M200 0l-194 495h144l130 -331l128 331h94l135 -331l124 331h138l-194 -495h-137l-115 298l-116 -298h-137zM550 547q-25 0 -43 15t-18 41t18 41.5t43 15.5q24 0 42.5 -16t18.5 -41q0 -26 -18.5 -41t-42.5 -15zM363 547q-25 0 -43 15t-18 41t18 41.5t43 15.5t43 -15.5
t18 -41.5t-18 -41t-43 -15z" />
    <glyph glyph-name="uni2010" unicode="&#x2010;" horiz-adv-x="366" 
d="M51 207v88h271v-88h-271z" />
    <glyph glyph-name="figuredash" unicode="&#x2012;" horiz-adv-x="647" 
d="M43 239v83h561v-83h-561z" />
    <glyph glyph-name="endash" unicode="&#x2013;" horiz-adv-x="476" 
d="M1 211v82h475v-82h-475z" />
    <glyph glyph-name="emdash" unicode="&#x2014;" horiz-adv-x="920" 
d="M1 211v82h919v-82h-919z" />
    <glyph glyph-name="uni2015" unicode="&#x2015;" horiz-adv-x="929" 
d="M1 211v82h919v-82h-919z" />
    <glyph glyph-name="quoteleft" unicode="&#x2018;" horiz-adv-x="243" 
d="M161 657l-29 -84q26 -3 47.5 -18t22.5 -48q2 -39 -24 -60.5t-61 -21.5t-59.5 22t-22.5 57q2 29 8.5 54.5t15 46.5t17 38.5t14.5 30.5z" />
    <glyph glyph-name="quoteright" unicode="&#x2019;" horiz-adv-x="253" 
d="M75 440l29 84q-26 3 -47.5 18t-23.5 48q-2 39 24 60.5t61 21.5t59.5 -22t23.5 -57q-2 -29 -9 -54.5t-15.5 -46.5t-17 -38.5t-14.5 -30.5z" />
    <glyph glyph-name="quotesinglbase" unicode="&#x201a;" horiz-adv-x="246" 
d="M80 -82l29 84q-26 3 -47.5 18t-23.5 48q-2 40 24.5 61.5t61.5 21.5t60 -22t23 -57q-1 -30 -8 -55.5t-15.5 -47t-17 -39t-14.5 -30.5z" />
    <glyph glyph-name="quotedblleft" unicode="&#x201c;" horiz-adv-x="447" 
d="M158 657l-29 -84q26 -3 47.5 -18t22.5 -48q2 -39 -24 -60.5t-61 -21.5t-59.5 22t-22.5 57q2 29 8.5 54.5t15 46.5t17 38.5t14.5 30.5zM366 657l-29 -84q26 -3 47.5 -18t22.5 -48q2 -39 -24 -60.5t-61 -21.5t-59.5 22t-22.5 57q2 29 8.5 54.5t15 46.5t17 38.5t14.5 30.5z
" />
    <glyph glyph-name="quotedblright" unicode="&#x201d;" horiz-adv-x="471" 
d="M290 443l29 85q-27 3 -48 18t-23 48q-2 40 24.5 61.5t61.5 21.5t60 -22t23 -57q-1 -30 -8 -55.5t-16 -47t-17.5 -39t-14.5 -31.5zM71 439l29 85q-26 3 -47.5 18t-23.5 48q-2 40 24.5 61.5t61.5 21.5t60 -22t23 -57q-1 -30 -8 -55.5t-15.5 -47t-17 -39t-14.5 -30.5z" />
    <glyph glyph-name="quotedblbase" unicode="&#x201e;" horiz-adv-x="472" 
d="M80 -82l29 84q-26 3 -47.5 18t-23.5 48q-2 40 24.5 61.5t61.5 21.5t60 -22t23 -57q-1 -30 -8 -55.5t-15.5 -47t-17 -39t-14.5 -30.5zM297 -82l29 84q-27 3 -48.5 18t-22.5 48q-2 40 24.5 61.5t61.5 21.5t59.5 -22t23.5 -57q-1 -30 -8 -55.5t-16 -47t-17.5 -39
t-14.5 -30.5z" />
    <glyph glyph-name="dagger" unicode="&#x2020;" horiz-adv-x="530" 
d="M218 0v397h-142v77h142v167h93v-167h143v-77h-143v-397h-93z" />
    <glyph glyph-name="daggerdbl" unicode="&#x2021;" horiz-adv-x="530" 
d="M218 -9v168h-143v77h143v161h-143v76h143v168h91v-168h144v-76h-144v-161h144v-77h-144v-168h-91z" />
    <glyph glyph-name="bullet" unicode="&#x2022;" horiz-adv-x="283" 
d="M141 149q-43 0 -70.5 28.5t-27.5 70.5t28.5 70.5t69.5 28.5q42 0 70 -28.5t28 -70.5t-27.5 -70.5t-70.5 -28.5z" />
    <glyph glyph-name="ellipsis" unicode="&#x2026;" horiz-adv-x="690" 
d="M43 73q0 36 24 57t56 21t55 -21t23 -57q0 -35 -23 -56.5t-55 -21.5t-56 21.5t-24 56.5zM268 73q0 36 24 57t56 21t55 -21t23 -57q0 -35 -23 -56.5t-55 -21.5t-56 21.5t-24 56.5zM493 73q0 36 24 57t56 21t55 -21t23 -57q0 -35 -23 -56.5t-55 -21.5t-56 21.5t-24 56.5z
" />
    <glyph glyph-name="perthousand" unicode="&#x2030;" horiz-adv-x="1169" 
d="M194 284q-41 0 -71.5 15.5t-50.5 40.5t-29.5 57t-9.5 66t9.5 66.5t29.5 57.5t50.5 40.5t71.5 15.5t71.5 -15.5t50 -40.5t29 -57.5t9.5 -66.5t-9.5 -66.5t-29 -57.5t-50 -40t-71.5 -15zM128 0l443 638h109l-442 -638h-110zM194 363q20 0 32.5 10t20 25t10.5 32.5t3 32.5
q0 16 -3 33.5t-10.5 32.5t-20 25t-32.5 10q-19 0 -32 -10t-21 -25t-11 -33t-3 -33t3 -32.5t11 -32.5t21 -25t32 -10zM611 -5q-42 0 -72 15.5t-49.5 40.5t-29 57t-9.5 66t9.5 66.5t29 57.5t49.5 40.5t72 15.5q41 0 71.5 -15.5t50.5 -40.5t29.5 -57.5t9.5 -66.5t-10 -66
t-30 -57t-50 -40.5t-71 -15.5zM977 -5q-41 0 -71 15.5t-50 40.5t-29.5 57t-9.5 66t9.5 66.5t29 57.5t50 40.5t71.5 15.5q42 0 72 -15.5t50 -40.5t29.5 -57.5t9.5 -66.5t-9.5 -66t-29.5 -57t-50.5 -40.5t-71.5 -15.5zM611 74q20 0 32.5 10t20 25t10.5 32.5t3 32.5t-3 33
t-10.5 33.5t-20 25.5t-32.5 10t-33 -10t-20.5 -25t-10.5 -33t-3 -34q0 -15 3 -32.5t10.5 -32.5t20.5 -25t33 -10zM977 74q20 0 32.5 10t20.5 25t11 32.5t3 32.5t-3 33t-11 33.5t-20.5 25.5t-32.5 10t-32.5 -10t-20 -25t-10.5 -33t-3 -34q0 -15 3 -32.5t10.5 -32.5t20 -25
t32.5 -10z" />
    <glyph glyph-name="minute" unicode="&#x2032;" horiz-adv-x="210" 
d="M62 380l-5 254h96l-6 -254h-85z" />
    <glyph glyph-name="second" unicode="&#x2033;" horiz-adv-x="371" 
d="M224 380l-5 254h96l-7 -254h-84zM62 380l-5 254h96l-6 -254h-85z" />
    <glyph glyph-name="guilsinglleft" unicode="&#x2039;" horiz-adv-x="325" 
d="M179 65l-137 179l137 180h113l-134 -180l134 -179h-113z" />
    <glyph glyph-name="guilsinglright" unicode="&#x203a;" horiz-adv-x="324" 
d="M31 65l135 179l-135 180h113l138 -180l-138 -179h-113z" />
    <glyph glyph-name="fraction" unicode="&#x2044;" horiz-adv-x="521" 
d="M383 641h93l-353 -641h-94z" />
    <glyph glyph-name="franc" unicode="&#x20a3;" horiz-adv-x="615" 
d="M41 92v79h54v470h487v-114l-347 1v-134h263v-112l-263 -1v-110h77v-79h-77v-92h-140v92h-54z" />
    <glyph glyph-name="lira" unicode="&#x20a4;" horiz-adv-x="618" 
d="M113 380l-11 43q-12 47 0 88.5t44 72.5t84.5 49t121.5 18q118 0 179.5 -57.5t49.5 -160.5l-109 -24q2 35 -6.5 59.5t-25 39.5t-40 22t-51.5 7q-31 0 -57.5 -7t-43.5 -21.5t-23 -37.5t3 -54l11 -37h193v-71h-178l-11 -53h189v-71h-204l-18 -78h359v-107h-489v111l19 74
h-88v71h103l12 53h-115v71h102z" />
    <glyph glyph-name="Euro" unicode="&#x20ac;" horiz-adv-x="797" 
d="M717 52q-53 -32 -101.5 -45.5t-107.5 -13.5q-55 0 -106.5 15t-95.5 43t-78 68.5t-52 92.5h-137v80h120q0 7 -0.5 14t-0.5 14q0 21 3 42h-122v80h142q20 49 53.5 87t77 64.5t94 40.5t103.5 14q54 0 108 -12.5t100 -45.5l-40 -98q-36 17 -74 26t-89 9q-53 0 -98.5 -22
t-74.5 -63h200v-80h-239q-2 -10 -3 -20.5t-1 -21.5q0 -7 0.5 -14t1.5 -14h241v-80h-209q28 -47 76.5 -73t105.5 -26q48 0 83 7.5t71 23.5z" />
    <glyph glyph-name="uni2113" unicode="&#x2113;" horiz-adv-x="441" 
d="M51 110l-23 56l76 55l41 244q5 31 17 62t31.5 55.5t46.5 40t62 15.5q52 0 78.5 -31.5t26.5 -81.5q0 -49 -22 -96t-55.5 -89t-73 -78.5t-75.5 -64.5q-3 -18 -5 -39t1.5 -40t16 -31.5t38.5 -12.5q43 0 75 27.5t59 57.5l40 -47q-36 -49 -81 -81.5t-109 -32.5q-36 0 -59 10.5
t-36.5 29.5t-19.5 45.5t-6 57.5zM198 295q23 20 47.5 46.5t45 56.5t33.5 62t13 64q0 18 -7.5 33.5t-29.5 15.5q-17 0 -30 -11t-21.5 -27.5t-14 -34.5t-7.5 -32z" />
    <glyph glyph-name="trademark" unicode="&#x2122;" horiz-adv-x="970" 
d="M443 252v382h70l158 -240l155 240h70v-382h-82l-1 231l-122 -188h-42l-123 184v-227h-83zM168 252v315h-135v67h355v-67h-135v-315h-85z" />
    <glyph glyph-name="uni2126" unicode="&#x2126;" horiz-adv-x="842" 
d="M18 0v93h163q-51 45 -76 105t-25 127q0 73 27 131.5t73.5 100t108.5 63.5t132 22t132 -22t108.5 -63.5t74 -100t27.5 -131.5q0 -67 -25 -127t-76 -105h162v-93h-330v84q72 39 115 95.5t43 141.5q0 51 -17 92.5t-48 71t-73.5 46t-92.5 16.5t-92.5 -16.5t-73 -46t-48 -71
t-17.5 -92.5q0 -81 43.5 -141t114.5 -96v-84h-330z" />
    <glyph glyph-name="uni212A" unicode="&#x212a;" horiz-adv-x="746" 
d="M95 0v641h140v-292l299 292h169l-287 -286l292 -355h-174l-217 257l-82 -80v-177h-140z" />
    <glyph glyph-name="uni212B" unicode="&#x212b;" horiz-adv-x="720" 
d="M474 147h-228l-46 -147h-145l206 641h198l206 -641h-146zM439 266l-79 255l-79 -255h158zM240 782q0 18 7.5 37.5t21.5 35t35 25.5t49 10q29 0 50.5 -10t35.5 -25.5t21.5 -34.5t7.5 -38t-7.5 -38t-22 -34t-36 -24.5t-49.5 -9.5t-49 9.5t-35 25t-21.5 34.5t-7.5 37z
M353 740q16 0 27.5 11.5t11.5 30.5q0 20 -11.5 31.5t-27.5 11.5t-26.5 -11.5t-10.5 -31.5q0 -19 11 -30.5t26 -11.5z" />
    <glyph glyph-name="estimated" unicode="&#x212e;" horiz-adv-x="792" 
d="M396 -3q-95 0 -176 43t-129 116t-48 158q0 87 48 160t129 116t176 43q96 0 177 -43t128.5 -116t47.5 -160v-7h-572q-5 0 -5 -4v-172q0 -9 8 -21q36 -45 93.5 -69.5t123.5 -24.5q67 0 126 28t101 77h51q-49 -57 -122.5 -90.5t-156.5 -33.5zM616 324q5 0 5 5v174
q0 13 -10 21q-42 42 -97.5 66t-116.5 24t-117 -25t-99 -68q-9 -11 -9 -21v-171q0 -5 5 -5h439z" />
    <glyph glyph-name="partialdiff" unicode="&#x2202;" horiz-adv-x="647" 
d="M301 -7q-46 0 -88.5 13.5t-75.5 39.5t-52.5 64.5t-19.5 88.5t20 88.5t53 64.5t76 39t89 13q50 0 94.5 -17.5t76.5 -56.5q0 51 -12.5 94.5t-39 75.5t-67 50t-95.5 18q-69 0 -138 -23l-16 89q78 23 155 23q81 0 141 -25t100 -70t60 -108.5t20 -140.5q0 -67 -17 -125
t-51.5 -101.5t-87.5 -68.5t-125 -25zM307 80q26 0 52 7.5t46 22.5t32.5 37.5t12.5 51.5q0 28 -12 50t-31.5 37t-44 22.5t-50.5 7.5q-28 0 -53 -7t-44 -21t-30.5 -36.5t-11.5 -52.5q0 -58 40 -88.5t94 -30.5z" />
    <glyph glyph-name="uni2206" unicode="&#x2206;" horiz-adv-x="704" 
d="M9 0l342 727l343 -727h-685zM165 93h370l-185 419z" />
    <glyph glyph-name="product" unicode="&#x220f;" horiz-adv-x="748" 
d="M95 -171v805h558v-805h-110v709h-337v-709h-111z" />
    <glyph glyph-name="summation" unicode="&#x2211;" horiz-adv-x="608" 
d="M39 -171v71l292 332l-281 332v70h526v-92h-375l237 -277v-66l-248 -278h392v-92h-543z" />
    <glyph glyph-name="minus" unicode="&#x2212;" horiz-adv-x="551" 
d="M61 271v93h430v-93h-430z" />
    <glyph glyph-name="uni2215" unicode="&#x2215;" horiz-adv-x="317" 
d="M3 0l231 641h110l-232 -641h-109z" />
    <glyph glyph-name="uni2219" unicode="&#x2219;" horiz-adv-x="258" 
d="M127 254q-30 0 -50.5 19t-20.5 49t20.5 48.5t50.5 18.5q29 0 48.5 -18.5t19.5 -48.5t-19.5 -49t-48.5 -19z" />
    <glyph glyph-name="radical" unicode="&#x221a;" horiz-adv-x="742" 
d="M346 -171l-166 446h-120v86h199l138 -384l242 695h103l-292 -843h-104z" />
    <glyph glyph-name="infinity" unicode="&#x221e;" horiz-adv-x="845" 
d="M423 242q-37 -54 -83.5 -80t-112.5 -26q-39 0 -73.5 13t-60 37t-40.5 57.5t-15 73.5t15 73.5t40.5 57.5t60 37.5t73.5 13.5q66 0 112.5 -26t83.5 -80q38 53 84 79.5t112 26.5q39 0 73.5 -13t60 -37t40.5 -57.5t15 -73.5t-14.5 -73.5t-40 -57.5t-60 -37.5t-74.5 -13.5
q-66 0 -112 26t-84 80zM472 317q14 -21 28 -39t30.5 -31.5t36.5 -21t47 -7.5q45 0 74 27.5t29 72.5t-29.5 72t-73.5 27q-27 0 -47 -8t-36.5 -21.5t-30.5 -31.5t-28 -39zM375 317q-13 21 -27 39t-31 31.5t-37.5 21.5t-47.5 8q-44 0 -73.5 -27.5t-29.5 -72.5t29.5 -72
t73.5 -27q54 0 85 28.5t58 70.5z" />
    <glyph glyph-name="integral" unicode="&#x222b;" horiz-adv-x="419" 
d="M84 -180q-35 0 -65 7.5t-51 22.5l27 83q27 -22 67 -22q35 0 54.5 21.5t19.5 62.5v531q0 68 41 108.5t114 40.5q72 0 112 -30l-27 -82q-25 21 -61 21q-33 0 -51 -21t-18 -61v-532q0 -69 -42.5 -109.5t-119.5 -40.5z" />
    <glyph glyph-name="approxequal" unicode="&#x2248;" horiz-adv-x="542" 
d="M52 344q0 31 7 60t22 51t39.5 35.5t60.5 13.5q33 0 58.5 -13.5t45.5 -29.5t37.5 -29.5t35.5 -13.5q17 0 27 7.5t16 19.5t8 26t3 27h77q0 -31 -6.5 -60t-21.5 -51.5t-39.5 -36t-60.5 -13.5q-33 0 -58.5 13.5t-46 30t-38 30t-35.5 13.5q-15 0 -25.5 -8t-16.5 -20t-8.5 -26
t-3.5 -26h-77zM52 136q0 31 7 60t22 51.5t39.5 36t60.5 13.5q34 0 59 -13.5t45.5 -30t37.5 -30t35 -13.5q17 0 27 8t16 20t8 26t3 27h77q0 -31 -6.5 -60t-21.5 -51.5t-39.5 -36t-60.5 -13.5q-33 0 -58.5 13.5t-46.5 29.5t-38.5 29.5t-34.5 13.5q-15 0 -25 -7.5t-16 -19.5
t-9 -26t-4 -27h-77z" />
    <glyph glyph-name="notequal" unicode="&#x2260;" horiz-adv-x="551" 
d="M61 168v93h131l41 115h-172v93h205l63 172h110l-63 -172h115v-93h-148l-42 -115h190v-93h-223l-61 -168h-110l61 168h-97z" />
    <glyph glyph-name="lessequal" unicode="&#x2264;" horiz-adv-x="542" 
d="M60 311v85l421 158v-91l-293 -109l293 -110v-91zM60 0v86h421v-86h-421z" />
    <glyph glyph-name="greaterequal" unicode="&#x2265;" horiz-adv-x="542" 
d="M60 153v91l295 110l-295 109v91l421 -158v-85zM60 0v86h421v-86h-421z" />
    <glyph glyph-name="bullet.case" horiz-adv-x="301" 
d="M150 217q-43 0 -70.5 28.5t-27.5 70.5t28.5 70.5t69.5 28.5q42 0 70 -28.5t28 -70.5t-27.5 -70.5t-70.5 -28.5z" />
    <glyph glyph-name="emdash.case" horiz-adv-x="925" 
d="M1 282v82h919v-82h-919z" />
    <glyph glyph-name="endash.case" horiz-adv-x="489" 
d="M1 282v82h475v-82h-475z" />
    <glyph glyph-name="hyphen.case" horiz-adv-x="328" 
d="M19 279v88h271v-88h-271z" />
    <glyph glyph-name="uni0326.salt" horiz-adv-x="242" 
d="M81 -284l29 84q-27 3 -48.5 18t-22.5 48q-2 40 24 62t61 22t60 -22t24 -58q-1 -30 -8 -55.5t-16 -47t-17.5 -39t-14.5 -30.5z" />
    <glyph glyph-name=".ttfautohint" horiz-adv-x="553" 
d="M0 0z" />
    </font>
</defs>
</svg>
