<?xml version="1.0" standalone="no"?>
<!DOCTYPE svg PUBLIC "-//W3C//DTD SVG 1.1//EN" "http://www.w3.org/Graphics/SVG/1.1/DTD/svg11.dtd" >
<svg xmlns="http://www.w3.org/2000/svg" xmlns:xlink="http://www.w3.org/1999/xlink" version="1.1">
<metadata>
Created by FontForge 20190801 at Mon Oct 23 02:22:30 2023
 By www-data
 (c) 2023 Yukita Creative. All Rights Reserved.
</metadata>
<defs>
<font id="SunsiveRegular" horiz-adv-x="540" >
  <font-face 
    font-family="SunsiveRegular"
    font-weight="400"
    font-stretch="normal"
    units-per-em="1000"
    panose-1="0 0 0 0 0 0 0 0 0 0"
    ascent="800"
    descent="-200"
    x-height="476"
    cap-height="630"
    bbox="-100 -243 1096 867"
    underline-thickness="50"
    underline-position="-125"
    unicode-range="U+000D-FB04"
  />
<missing-glyph horiz-adv-x="528" 
 />
    <glyph glyph-name="f_f" unicode="ff" horiz-adv-x="714" 
d="M4 406v71h91v123q0 29 9 50.5t24.5 35t36.5 20t44 6.5q24 0 49 -6.5t48 -18t42 -28t31 -37.5l-34 -56q-7 10 -21 21.5t-31.5 21.5t-36 16.5t-33.5 6.5q-18 0 -29.5 -10.5t-11.5 -36.5v-108h162v-71h-162v-415h-86v415h-92zM361 406v71h91v123q0 29 9 50.5t24.5 35
t36.5 20t44 6.5q24 0 49 -6.5t48 -18t42 -28t31 -37.5l-34 -56q-7 10 -21 21.5t-31.5 21.5t-36 16.5t-33.5 6.5q-18 0 -29.5 -10.5t-11.5 -36.5v-108h162v-71h-162v-415h-86v415h-92z" />
    <glyph glyph-name="fi" unicode="fi" horiz-adv-x="579" 
d="M4 406v71h91v123q0 29 9 50.5t24.5 35t36.5 20t44 6.5q24 0 49 -6.5t48 -18t42 -28t31 -37.5l-34 -56q-7 10 -21 21.5t-31.5 21.5t-36 16.5t-33.5 6.5q-18 0 -29.5 -10.5t-11.5 -36.5v-108h162v-71h-162v-415h-86v415h-92zM405 635q0 24 17 40t41 16q23 0 41 -14.5
t18 -40.5q0 -25 -17 -41t-42 -16q-24 0 -41 15t-17 41zM420 0v477h86v-477h-86z" />
    <glyph glyph-name="fl" unicode="fl" horiz-adv-x="565" 
d="M4 406v71h91v123q0 29 9 50.5t24.5 35t36.5 20t44 6.5q24 0 49 -6.5t48 -18t42 -28t31 -37.5l-34 -56q-7 10 -21 21.5t-31.5 21.5t-36 16.5t-33.5 6.5q-18 0 -29.5 -10.5t-11.5 -36.5v-108h162v-71h-162v-415h-86v415h-92zM407 0v704h86v-704h-86z" />
    <glyph glyph-name="f_f_i" unicode="ffi" horiz-adv-x="936" 
d="M4 406v71h91v123q0 29 9 50.5t24.5 35t36.5 20t44 6.5q24 0 49 -6.5t48 -18t42 -28t31 -37.5l-34 -56q-7 10 -21 21.5t-31.5 21.5t-36 16.5t-33.5 6.5q-18 0 -29.5 -10.5t-11.5 -36.5v-108h162v-71h-162v-415h-86v415h-92zM361 406v71h91v123q0 29 9 50.5t24.5 35
t36.5 20t44 6.5q24 0 49 -6.5t48 -18t42 -28t31 -37.5l-34 -56q-7 10 -21 21.5t-31.5 21.5t-36 16.5t-33.5 6.5q-18 0 -29.5 -10.5t-11.5 -36.5v-108h162v-71h-162v-415h-86v415h-92zM762 635q0 24 17 40t41 16q23 0 41 -14.5t18 -40.5q0 -25 -17 -41t-42 -16q-24 0 -41 15
t-17 41zM777 0v477h86v-477h-86z" />
    <glyph glyph-name="f_f_l" unicode="ffl" horiz-adv-x="922" 
d="M4 406v71h91v123q0 29 9 50.5t24.5 35t36.5 20t44 6.5q24 0 49 -6.5t48 -18t42 -28t31 -37.5l-34 -56q-7 10 -21 21.5t-31.5 21.5t-36 16.5t-33.5 6.5q-18 0 -29.5 -10.5t-11.5 -36.5v-108h162v-71h-162v-415h-86v415h-92zM361 406v71h91v123q0 29 9 50.5t24.5 35
t36.5 20t44 6.5q24 0 49 -6.5t48 -18t42 -28t31 -37.5l-34 -56q-7 10 -21 21.5t-31.5 21.5t-36 16.5t-33.5 6.5q-18 0 -29.5 -10.5t-11.5 -36.5v-108h162v-71h-162v-415h-86v415h-92zM764 0v704h86v-704h-86z" />
    <glyph glyph-name=".notdef" horiz-adv-x="528" 
 />
    <glyph glyph-name=".null" horiz-adv-x="0" 
 />
    <glyph glyph-name=".null" horiz-adv-x="0" 
 />
    <glyph glyph-name="uni000D" unicode="&#xd;" horiz-adv-x="242" 
 />
    <glyph glyph-name="space" unicode=" " horiz-adv-x="242" 
 />
    <glyph glyph-name="exclam" unicode="!" horiz-adv-x="241" 
d="M86 199l-16 460h102l-17 -460h-69zM121 -5q-24 0 -41.5 16t-17.5 42q0 25 17.5 41t41.5 16q26 0 42 -16t16 -41t-16.5 -41.5t-41.5 -16.5z" />
    <glyph glyph-name="quotedbl" unicode="&#x22;" horiz-adv-x="352" 
d="M62 387l-5 243h75l-6 -243h-64zM225 387l-5 243h75l-6 -243h-64z" />
    <glyph glyph-name="numbersign" unicode="#" horiz-adv-x="643" 
d="M127 0l20 160h-123v77h133l20 161h-124v77h134l20 160h77l-19 -160h154l19 160h78l-20 -160h123v-77h-132l-20 -161h123v-77h-133l-19 -160h-78l20 160h-155l-20 -160h-78zM234 237h155l20 161h-154z" />
    <glyph glyph-name="dollar" unicode="$" horiz-adv-x="571" 
d="M239 -107v99q-50 6 -88.5 21t-66.5 35.5t-45.5 44t-26.5 45.5l76 29q20 -38 55 -63t96 -33v200l-21 4q-92 17 -144 65t-52 114q0 37 14 68.5t41.5 56t68 40t93.5 19.5v97h80v-98q32 -3 63 -11t59 -22t51 -35t38 -51l-70 -44q-9 12 -21 25.5t-29 25t-39 20.5t-52 13v-218
l21 -3q102 -20 154.5 -64t52.5 -107q0 -28 -14 -57.5t-42.5 -54.5t-71 -42t-100.5 -21v-98h-80zM239 355v206q-62 -5 -89.5 -27t-34.5 -52q-6 -27 2 -48.5t23.5 -36.5t36.5 -24.5t41 -13.5zM319 68q66 5 100.5 31.5t34.5 61.5q0 27 -13.5 43.5t-33.5 27t-44 16t-44 9.5v-189
z" />
    <glyph glyph-name="percent" unicode="%" horiz-adv-x="769" 
d="M186 288q-43 0 -72.5 17t-47.5 43t-25.5 57t-7.5 59t7.5 59t25.5 56.5t47.5 42.5t72.5 17t72 -17t47 -42.5t25.5 -56.5t7.5 -59t-7.5 -59.5t-25.5 -57t-47 -42.5t-72 -17zM124 0l436 634h94l-435 -634h-95zM186 360q21 0 35 10t22 25.5t11 34t3 34.5t-3 34t-11 33.5
t-22 25.5t-35 10t-34.5 -10t-22 -25.5t-11.5 -33.5t-3 -34t3 -34.5t11.5 -34t22 -25.5t34.5 -10zM583 -5q-43 0 -72 17t-47 42.5t-25.5 57t-7.5 59.5t7.5 59t25.5 56.5t47 42.5t72 17t72 -17t47 -42.5t25.5 -56.5t7.5 -59t-7.5 -59t-25.5 -57t-47 -43t-72 -17zM583 67
q21 0 34.5 10t21.5 25.5t11 34t3 34.5t-3 34t-11 33.5t-21.5 25.5t-34.5 10t-35 -10t-22 -25.5t-11 -33.5t-3 -34t3 -34.5t11 -34t22 -25.5t35 -10z" />
    <glyph glyph-name="ampersand" unicode="&#x26;" horiz-adv-x="636" 
d="M530 0l-49 52q-32 -29 -75 -46t-99 -17q-52 0 -101 15.5t-87 44t-60.5 70t-22.5 92.5q0 68 37.5 110t95.5 62l-44 47q-17 19 -28.5 40.5t-11.5 47.5q0 23 8.5 43t24 35.5t36 24.5t44.5 9h322v-73h-322q-19 0 -30 -13.5t-11 -29.5q0 -13 15 -29l303 -320q10 22 14.5 46
t4.5 50q0 37 -10 75t-30 64h80q32 -61 32 -137q0 -85 -38 -153l104 -110h-102zM187 364q-34 -22 -54 -60t-20 -84q0 -39 15.5 -69t41.5 -49.5t60 -29.5t72 -10q42 0 74 11.5t55 31.5z" />
    <glyph glyph-name="quotesingle" unicode="'" horiz-adv-x="189" 
d="M62 387l-5 243h75l-6 -243h-64z" />
    <glyph glyph-name="parenleft" unicode="(" horiz-adv-x="303" 
d="M194 -175q-59 94 -83.5 203.5t-24.5 218.5q0 108 24.5 218t83.5 203h81q-56 -100 -80 -204t-24 -217q0 -114 24 -218t80 -204h-81z" />
    <glyph glyph-name="parenright" unicode=")" horiz-adv-x="304" 
d="M29 -175q56 100 80.5 204t24.5 218q0 113 -24.5 217t-80.5 204h82q30 -46 50.5 -97.5t33 -105.5t18.5 -109t6 -109q0 -109 -24.5 -218.5t-83.5 -203.5h-82z" />
    <glyph glyph-name="asterisk" unicode="*" horiz-adv-x="360" 
d="M45 391l-28 49l108 60l-108 60l28 50l109 -64l-1 122h54l-1 -122l109 64l28 -50l-107 -60l107 -60l-28 -49l-109 64l1 -123h-54l1 123z" />
    <glyph glyph-name="plus" unicode="+" horiz-adv-x="524" 
d="M60 279v71h164v162h76v-162h164v-71h-164v-161h-76v161h-164z" />
    <glyph glyph-name="comma" unicode="," horiz-adv-x="204" 
d="M77 -65l24 68q-8 1 -18 4.5t-19 10.5t-15 16.5t-6 22.5q0 26 17 43.5t45 17.5q29 0 46 -20.5t13 -47.5q-9 -50 -20 -76t-20 -49z" />
    <glyph glyph-name="hyphen" unicode="-" horiz-adv-x="345" 
d="M51 210v75h242v-75h-242z" />
    <glyph glyph-name="period" unicode="." horiz-adv-x="204" 
d="M41 57q0 26 18 43.5t44 17.5t42.5 -17.5t16.5 -43.5t-16.5 -44t-42.5 -18q-27 0 -44.5 18t-17.5 44z" />
    <glyph glyph-name="slash" unicode="/" horiz-adv-x="317" 
d="M-4 0l231 630h78l-230 -630h-79z" />
    <glyph glyph-name="zero" unicode="0" horiz-adv-x="583" 
d="M34 315q0 75 14.5 135t46 102t80.5 65t117 23t116 -23t79.5 -65.5t46 -102.5t14.5 -134t-14.5 -134t-46 -102.5t-79.5 -65.5t-116 -23t-117 23t-80.5 65t-46 102t-14.5 135zM292 70q51 0 84 17.5t52.5 50t27 77.5t7.5 100t-7.5 100t-27 77.5t-52.5 50t-84 17.5
q-52 0 -85.5 -17.5t-53 -49.5t-27 -77t-7.5 -101q0 -55 7.5 -100.5t27 -77.5t53 -49.5t85.5 -17.5z" />
    <glyph glyph-name="one" unicode="1" horiz-adv-x="240" 
d="M88 0v502h-63v57q16 3 32.5 10t31.5 17t28 21t20 23h40v-630h-89z" />
    <glyph glyph-name="two" unicode="2" horiz-adv-x="499" 
d="M53 444q0 44 16.5 80.5t45 62.5t67.5 40.5t83 14.5q42 0 79 -13t64.5 -38.5t44 -62.5t16.5 -85q0 -45 -14 -78.5t-37.5 -59t-53 -45.5t-60.5 -38q-23 -14 -45 -28t-41.5 -30.5t-34.5 -36.5t-24 -44h314v-83h-427q3 58 21.5 100t46.5 74t62.5 56.5t68.5 45.5
q28 18 54 35.5t45.5 38t31 45t11.5 56.5q0 57 -35 84t-89 27q-63 0 -95.5 -33.5t-34.5 -92.5z" />
    <glyph glyph-name="three" unicode="3" horiz-adv-x="497" 
d="M199 369h65q18 0 36.5 6.5t32.5 19t23 31t9 42.5q0 29 -12 46.5t-30 28t-39 14t-39 3.5q-27 0 -51.5 -7t-43.5 -22.5t-31.5 -40t-15.5 -60.5l-78 18q4 50 24.5 86t50.5 59.5t67 35t74 11.5q35 0 72.5 -10t68.5 -31.5t51 -55.5t20 -81q0 -42 -16 -73t-43 -52
q36 -23 57.5 -60.5t21.5 -89.5t-18 -89.5t-48.5 -61.5t-71.5 -35t-86 -11q-37 0 -75.5 11.5t-70 35t-53 59.5t-25.5 86l78 18q3 -36 16.5 -60.5t33.5 -40t46 -22.5t54 -7q21 0 44 4.5t42.5 17t32.5 34.5t13 57q0 31 -10 53t-27 36t-38 20.5t-44 6.5h-67v70z" />
    <glyph glyph-name="four" unicode="4" horiz-adv-x="584" 
d="M25 129v69l352 433h89v-419h86v-83h-86v-129h-91v129h-350zM136 212h239v302z" />
    <glyph glyph-name="five" unicode="5" horiz-adv-x="499" 
d="M75 194q4 -35 18 -59t34 -38.5t44.5 -21t49.5 -6.5q24 0 49 6.5t45.5 21t33 39t12.5 60.5q0 38 -12.5 65t-32.5 44t-45 25.5t-51 8.5q-29 0 -60 -10.5t-54 -33.5q-21 8 -46.5 16t-45.5 16l77 303h345v-80h-283l-47 -169q27 16 55.5 24.5t77.5 8.5q40 0 78 -14t68 -41
t48.5 -67t18.5 -92q0 -53 -21 -92.5t-54.5 -65.5t-74.5 -39t-81 -13q-35 0 -72 11t-68.5 33t-53.5 56.5t-28 80.5z" />
    <glyph glyph-name="six" unicode="6" horiz-adv-x="537" 
d="M416 475q-4 23 -16.5 39t-30 26.5t-39 15t-44.5 4.5q-54 0 -86 -20.5t-49.5 -53.5t-23 -74.5t-6.5 -84.5q31 40 74 58t91 18q43 0 83 -13t70.5 -38t48.5 -62.5t18 -85.5q0 -54 -19 -94.5t-52 -67t-77 -39.5t-94 -13q-66 0 -111 24t-72 64.5t-38.5 93.5t-11.5 111
q0 67 8 131t34.5 114.5t76.5 81t134 30.5q39 0 78 -9t70.5 -29t51 -51.5t19.5 -75.5h-87zM424 198q0 34 -13.5 59t-35 41.5t-50 25t-58.5 8.5q-61 0 -100.5 -35t-39.5 -99q0 -66 40.5 -97t103.5 -31q30 0 57.5 8t49 24t34 40t12.5 56z" />
    <glyph glyph-name="seven" unicode="7" horiz-adv-x="485" 
d="M472 538q-22 -17 -62 -56.5t-81.5 -105t-76.5 -159t-46 -218.5h-98q6 70 21 130.5t35.5 112.5t45 95t49.5 77q58 80 128 136h-374v80h459v-92z" />
    <glyph glyph-name="eight" unicode="8" horiz-adv-x="562" 
d="M280 -10q-44 0 -88.5 10t-80 32.5t-58 58.5t-22.5 87q0 57 29.5 94.5t80.5 57.5q-42 20 -65 54t-23 82q0 47 20.5 80t53 54t73 30.5t80.5 9.5t80.5 -9.5t73.5 -30.5t53.5 -54t20.5 -80q0 -48 -23.5 -82t-65.5 -54q52 -20 82 -57.5t30 -94.5q0 -52 -23 -87.5t-59 -58
t-80.5 -32.5t-88.5 -10zM142 462q0 -29 12.5 -48.5t32 -31t44.5 -16.5t49 -5t49 5t45 16.5t33 31t13 48.5t-13 48t-33 30t-45 15.5t-49 4.5t-49 -4.5t-44.5 -15.5t-32 -30t-12.5 -48zM121 181q0 -33 14.5 -54.5t37.5 -34t51 -17.5t56 -5q27 0 56 5t52 17.5t38 34t15 54.5
t-15 54.5t-38.5 34t-52 18t-55.5 5.5t-55 -5.5t-51.5 -18t-38 -34t-14.5 -54.5z" />
    <glyph glyph-name="nine" unicode="9" horiz-adv-x="537" 
d="M34 155h87q5 -23 17 -39t29.5 -26.5t39 -15t44.5 -4.5q54 0 86 20.5t49.5 53.5t23 74.5t6.5 84.5q-30 -40 -73 -58t-91 -18q-43 0 -83 13t-71 38t-49 62.5t-18 85.5q0 54 19 94.5t52 67t77 39.5t94 13q66 0 111 -24t72 -64.5t38.5 -93.5t11.5 -111q0 -67 -8 -131
t-34.5 -114t-76 -81t-133.5 -31q-39 0 -78 9.5t-70.5 29.5t-51.5 51t-20 75zM113 432q0 -34 13.5 -59t35 -41.5t50 -25t58.5 -8.5q62 0 101 35t39 99q0 66 -40.5 97t-103.5 31q-30 0 -57.5 -8t-49 -24t-34 -40t-12.5 -56z" />
    <glyph glyph-name="colon" unicode=":" horiz-adv-x="204" 
d="M41 421q0 26 18 43.5t44 17.5t42.5 -17.5t16.5 -43.5t-16.5 -44t-42.5 -18q-27 0 -44.5 18t-17.5 44zM41 57q0 26 18 43.5t44 17.5t42.5 -17.5t16.5 -43.5t-16.5 -44t-42.5 -18q-27 0 -44.5 18t-17.5 44z" />
    <glyph glyph-name="semicolon" unicode=";" horiz-adv-x="204" 
d="M41 421q0 26 18 43.5t44 17.5t42.5 -17.5t16.5 -43.5t-16.5 -44t-42.5 -18q-27 0 -44.5 18t-17.5 44zM77 -65l24 68q-8 1 -18 4.5t-19 10.5t-15 16.5t-6 22.5q0 26 17 43.5t45 17.5q29 0 46 -20.5t13 -47.5q-9 -50 -20 -76t-20 -49z" />
    <glyph glyph-name="less" unicode="&#x3c;" horiz-adv-x="524" 
d="M60 276v78l404 159v-75l-320 -123l320 -123v-75z" />
    <glyph glyph-name="equal" unicode="=" horiz-adv-x="524" 
d="M60 386v71h404v-71h-404zM60 173v71h404v-71h-404z" />
    <glyph glyph-name="greater" unicode="&#x3e;" horiz-adv-x="524" 
d="M60 117v75l321 123l-321 123v75l404 -159v-78z" />
    <glyph glyph-name="question" unicode="?" horiz-adv-x="530" 
d="M206 212q0 25 8 45t21.5 37t30 32t34.5 29q17 14 33 27.5t28 29t19.5 33.5t7.5 40q0 43 -30 68t-89 25q-37 0 -64 -11t-44 -29t-25 -40.5t-8 -45.5l-85 11q0 34 13 69.5t40 65t69.5 48.5t101.5 19q50 0 89 -14t66 -38.5t41 -58t14 -72.5q0 -33 -9.5 -58t-25 -44
t-34.5 -33.5t-38 -28.5q-15 -11 -29.5 -22t-26 -23.5t-19 -27t-8.5 -33.5h-81zM192 53q0 25 16 41t42 16q25 0 41.5 -16t16.5 -41t-17 -41.5t-41 -16.5q-26 0 -42 16t-16 42z" />
    <glyph glyph-name="at" unicode="@" horiz-adv-x="951" 
d="M645 3l24 -78q-43 -24 -97 -34.5t-103 -10.5q-91 0 -169 30t-135 84.5t-89.5 131t-32.5 170.5q0 95 33 171.5t91 130.5t136.5 83t169.5 29q87 0 166 -28t138.5 -80t94.5 -126.5t35 -168.5q0 -41 -9.5 -86t-32 -82t-59 -61t-89.5 -24q-42 0 -74 18t-44 56q-28 -28 -68 -41
t-85 -13q-47 0 -85.5 16t-66 44t-42.5 66.5t-15 82.5t15 82t42.5 66t66 44t84.5 16q41 0 78.5 -15t65.5 -48v59h82v-300q0 -20 11.5 -37t43.5 -17q33 0 52 19.5t28.5 47t12.5 56.5t3 47q0 77 -26.5 137.5t-73 102.5t-109 64.5t-135.5 22.5q-75 0 -138.5 -23.5t-109.5 -67
t-72 -105.5t-26 -138t25 -137.5t70.5 -105.5t108 -68t137.5 -24q45 0 89 10t83 32zM461 155q60 0 95 36.5t35 91.5q0 56 -35 92t-95 36q-62 0 -96 -36t-34 -92q0 -55 34 -91.5t96 -36.5z" />
    <glyph glyph-name="A" unicode="A" horiz-adv-x="570" 
d="M404 190h-240l-61 -191h-93l205 631h138l207 -631h-96zM381 262l-97 304l-97 -304h194z" />
    <glyph glyph-name="B" unicode="B" horiz-adv-x="663" 
d="M86 0v630h302q39 0 76.5 -8t66 -27.5t46 -52t17.5 -80.5q0 -94 -106 -135q32 -4 57.5 -18.5t43.5 -35.5t28 -48t10 -58q0 -50 -19 -82.5t-49.5 -51t-70.5 -26t-82 -7.5h-320zM176 356h204q25 0 47.5 4.5t39.5 15.5t27 31t10 50t-10 49.5t-27 30.5t-39.5 15.5t-47.5 4.5
h-204v-201zM176 73h227q27 0 51 4t42.5 15t29 31.5t10.5 54.5q0 33 -10.5 53.5t-29 32t-42.5 15.5t-51 4h-227v-210z" />
    <glyph glyph-name="C" unicode="C" horiz-adv-x="689" 
d="M368 -10q-80 0 -142.5 25t-105 68.5t-64.5 102.5t-22 128t22 128.5t65 103.5t105 69t143 25q60 0 112 -15t90.5 -45t61 -76.5t22.5 -109.5h-90q0 44 -14.5 75.5t-41 51.5t-62 29.5t-77.5 9.5q-65 0 -111.5 -19.5t-76.5 -53t-44 -78t-14 -94.5t14 -94.5t44 -78t76.5 -53
t111.5 -19.5q42 0 77.5 9.5t62 29.5t41 51.5t14.5 75.5h90q0 -63 -22.5 -109.5t-61 -76.5t-91 -45t-112.5 -15z" />
    <glyph glyph-name="D" unicode="D" horiz-adv-x="726" 
d="M86 0v630h265q71 0 133 -21t108 -61.5t72.5 -99t26.5 -133.5t-26.5 -133.5t-72.5 -99t-108 -61.5t-133 -21h-265zM176 78h170q54 0 100.5 16t81 46t54 74t19.5 101t-19.5 101t-54 74t-81 46t-100.5 16h-170v-474z" />
    <glyph glyph-name="E" unicode="E" horiz-adv-x="576" 
d="M86 0v630h445v-78h-355v-193h310v-77h-310v-204h347v-78h-437z" />
    <glyph glyph-name="F" unicode="F" horiz-adv-x="576" 
d="M86 0v630h445v-78h-355v-181h308v-77h-308v-294h-90z" />
    <glyph glyph-name="G" unicode="G" horiz-adv-x="701" 
d="M587 130q-28 -68 -83.5 -104t-140.5 -36q-70 0 -130 24t-104 67.5t-69.5 105t-25.5 135.5q0 69 22 127.5t64.5 100.5t104.5 66t141 24q61 0 113.5 -15t91.5 -45t61.5 -76.5t22.5 -109.5h-90q0 44 -14.5 75.5t-41 51.5t-62.5 29.5t-79 9.5q-63 0 -109 -18.5t-76 -50
t-44.5 -74t-14.5 -90.5q0 -57 19.5 -104.5t54 -81.5t81.5 -52.5t101 -18.5q96 0 140.5 43.5t52.5 125.5h-225v73h307l21 -312h-78z" />
    <glyph glyph-name="H" unicode="H" horiz-adv-x="713" 
d="M86 0v630h90v-271h361v271h90v-630h-90v281h-361v-281h-90z" />
    <glyph glyph-name="I" unicode="I" horiz-adv-x="261" 
d="M86 0v630h90v-630h-90z" />
    <glyph glyph-name="J" unicode="J" horiz-adv-x="566" 
d="M152 276q-14 -25 -20.5 -47t-6.5 -42q0 -54 40.5 -85.5t103.5 -31.5q69 0 99 42.5t30 133.5v384h87v-388q0 -130 -57 -191t-169 -61q-45 0 -84.5 12.5t-69.5 36.5t-47 58.5t-17 77.5q0 45 21 97z" />
    <glyph glyph-name="K" unicode="K" horiz-adv-x="661" 
d="M86 0v630h90v-337l351 337h114l-291 -281l288 -349h-116l-238 287l-108 -104v-183h-90z" />
    <glyph glyph-name="L" unicode="L" horiz-adv-x="527" 
d="M86 0v630h90v-551h341v-79h-431z" />
    <glyph glyph-name="M" unicode="M" horiz-adv-x="839" 
d="M86 630h90l244 -477l243 477h91v-630h-91v452l-192 -372h-102l-192 372v-452h-91v630z" />
    <glyph glyph-name="N" unicode="N" horiz-adv-x="713" 
d="M86 0v630h78l373 -472v472h90v-630h-78l-373 472v-472h-90z" />
    <glyph glyph-name="O" unicode="O" horiz-adv-x="738" 
d="M34 315q0 72 26.5 131.5t72 102.5t106.5 67t131 24t131 -24t106 -67t71 -102.5t26 -131.5t-26 -131.5t-71 -102.5t-106 -67t-131 -24t-131 24t-106.5 67t-72 102.5t-26.5 131.5zM370 70q52 0 96.5 18.5t77.5 51.5t51.5 78t18.5 97t-18.5 97t-51.5 78t-77.5 51.5
t-96.5 18.5t-97 -18.5t-78 -51.5t-52 -77.5t-19 -97.5q0 -52 19 -97t52 -78t78 -51.5t97 -18.5z" />
    <glyph glyph-name="P" unicode="P" horiz-adv-x="632" 
d="M86 0v630h263q48 0 92 -9.5t78 -31t54.5 -57t20.5 -87.5q0 -54 -21.5 -92t-56 -62t-78.5 -35t-89 -11h-173v-245h-90zM176 323h171q30 0 58.5 6t50 20.5t35 37.5t13.5 57q0 36 -14.5 57t-37 32.5t-50.5 15t-55 3.5h-171v-229z" />
    <glyph glyph-name="Q" unicode="Q" horiz-adv-x="738" 
d="M615 -100l-109 117q-66 -26 -135 -26q-63 0 -123.5 20t-108 60t-76.5 99.5t-29 138.5q0 74 26 135t71.5 104.5t107 67.5t131.5 24t131 -24t106 -67.5t71 -103.5t26 -133q0 -87 -35 -151t-92 -105l99 -106zM370 67q41 0 77 12l-146 155l61 51l158 -168q44 33 69 84t25 114
q0 52 -18.5 97t-51.5 78t-77.5 51.5t-96.5 18.5t-97 -18.5t-78 -51.5t-52 -77.5t-19 -97.5t19 -98.5t52 -78.5t78 -52t97 -19z" />
    <glyph glyph-name="R" unicode="R" horiz-adv-x="613" 
d="M548 185l35 -186h-90l-37 176q-6 29 -21.5 45t-36.5 24.5t-45.5 10.5t-49.5 2h-127v-257h-90v630h270q47 0 88.5 -8.5t72 -28t48 -52t17.5 -80.5q0 -71 -35 -111t-87 -58q32 -14 56 -39t32 -68zM176 331h170q28 0 54.5 4t46.5 16.5t32.5 35t12.5 59.5q0 34 -10.5 55
t-29 32t-43.5 15t-55 4h-178v-221z" />
    <glyph glyph-name="S" unicode="S" horiz-adv-x="584" 
d="M452 451q0 30 -13.5 50t-36 33t-51.5 18.5t-59 5.5q-22 0 -48.5 -3.5t-49.5 -13t-39 -27t-16 -44.5q0 -25 13 -42.5t35.5 -29t52 -19.5t62.5 -15q44 -9 90 -21t83 -33t60.5 -54.5t23.5 -87.5q0 -50 -20 -84t-53.5 -55t-77.5 -30t-91 -9q-52 0 -101 10t-87 33.5t-62 62
t-26 96.5h88q3 -36 21.5 -59.5t45.5 -37.5t58.5 -19.5t61.5 -5.5q26 0 52.5 3t47.5 14t34.5 31.5t13.5 55.5q0 29 -14.5 47t-38.5 30t-56 20t-67 15q-43 9 -86 20t-77.5 30.5t-56.5 51.5t-22 83q0 50 22 83t57 52t78 26.5t85 7.5q51 0 96.5 -10t80.5 -32.5t55.5 -58.5
t20.5 -88h-89z" />
    <glyph glyph-name="T" unicode="T" horiz-adv-x="562" 
d="M237 0v551h-216v79h521v-79h-216v-551h-89z" />
    <glyph glyph-name="U" unicode="U" horiz-adv-x="693" 
d="M170 630v-354q0 -45 9.5 -83t30.5 -65.5t55 -42.5t83 -15q48 0 82 15.5t55.5 42.5t31 65t9.5 83v354h87v-358q0 -65 -17 -117t-50 -89t-83 -56.5t-116 -19.5t-116 20t-83.5 56.5t-50.5 89t-17 116.5v358h90z" />
    <glyph glyph-name="V" unicode="V" horiz-adv-x="579" 
d="M225 0l-215 630h102l181 -546l180 546h96l-217 -630h-127z" />
    <glyph glyph-name="W" unicode="W" horiz-adv-x="1044" 
d="M225 0l-215 630h102l181 -546l180 546h104l182 -546l180 546h95l-216 -630h-127l-169 494l-170 -494h-127z" />
    <glyph glyph-name="X" unicode="X" horiz-adv-x="607" 
d="M304 384l188 246h105l-241 -315l241 -315h-105l-188 246l-188 -246h-105l240 315l-240 315h105z" />
    <glyph glyph-name="Y" unicode="Y" horiz-adv-x="610" 
d="M261 0v220l-250 410h99l199 -323l192 323h99l-250 -412v-218h-89z" />
    <glyph glyph-name="Z" unicode="Z" horiz-adv-x="574" 
d="M21 0v71l416 481h-410v78h527v-68l-415 -484h408v-78h-526z" />
    <glyph glyph-name="bracketleft" unicode="[" horiz-adv-x="300" 
d="M95 -175v843h188v-71h-102v-701h102v-71h-188z" />
    <glyph glyph-name="backslash" unicode="\" horiz-adv-x="317" 
d="M239 0l-228 630h78l228 -630h-78z" />
    <glyph glyph-name="bracketright" unicode="]" horiz-adv-x="300" 
d="M17 -175v71h102v701h-102v71h188v-843h-188z" />
    <glyph glyph-name="asciicircum" unicode="^" horiz-adv-x="525" 
d="M68 128l159 374h72l158 -374h-69l-125 303l-126 -303h-69z" />
    <glyph glyph-name="underscore" unicode="_" horiz-adv-x="450" 
d="M0 -56v56h450v-56h-450z" />
    <glyph glyph-name="grave" unicode="`" 
d="M105 663h110l123 -117h-81z" />
    <glyph glyph-name="a" unicode="a" horiz-adv-x="556" 
d="M61 335q2 41 21.5 70t48.5 47t65 26.5t70 8.5q61 0 103 -12.5t68 -34t37.5 -50t11.5 -59.5v-217l10 -115h-87l-10 108q-10 -34 -28.5 -56.5t-42.5 -36t-51.5 -19t-54.5 -5.5q-35 0 -68.5 8.5t-59 26t-41 44t-15.5 63.5q0 33 13.5 56.5t37.5 39.5t58 26.5t75 16.5l174 29
v37q0 14 -6.5 27t-21.5 23t-38.5 16t-57.5 6q-63 0 -90 -21t-31 -63zM396 240l-174 -29q-19 -3 -36.5 -9t-31 -16t-21.5 -23.5t-8 -30.5q0 -34 29 -50.5t70 -16.5q29 0 59.5 8.5t55.5 26.5t41 46.5t16 67.5v26z" />
    <glyph glyph-name="b" unicode="b" horiz-adv-x="608" 
d="M73 1v703h86v-299q30 40 75 61.5t99 21.5q51 0 94 -19t74 -52.5t48.5 -79t17.5 -98.5t-17.5 -99t-48.5 -79.5t-74 -52.5t-94 -19q-56 0 -101.5 22.5t-75.5 64.5v-75h-83zM319 65q36 0 66 14t51 38t32.5 55.5t11.5 66.5q0 36 -11.5 67.5t-32.5 55t-51 37t-66 13.5
q-37 0 -67 -13.5t-51 -37t-32 -55t-11 -67.5q0 -35 11.5 -66.5t32.5 -55.5t50.5 -38t66.5 -14z" />
    <glyph glyph-name="c" unicode="c" horiz-adv-x="557" 
d="M280 -10q-115 0 -179 64.5t-64 185.5t64.5 184t188.5 63q51 0 93 -11t72 -34.5t47 -60t17 -87.5h-90q2 32 -10 54t-32.5 35.5t-47 19.5t-54.5 6q-159 0 -159 -173q0 -81 37 -124.5t119 -43.5q26 0 52 5t46.5 17t33 32t12.5 50h91q0 -48 -20.5 -82.5t-53.5 -56.5
t-75.5 -32.5t-87.5 -10.5z" />
    <glyph glyph-name="d" unicode="d" horiz-adv-x="608" 
d="M453 1v75q-31 -42 -76.5 -64.5t-101.5 -22.5q-51 0 -93.5 19t-73.5 52.5t-48.5 79.5t-17.5 99t17.5 98.5t48.5 78.5t74 52t94 19q54 0 99 -21t74 -61v299h86v-703h-82zM129 239q0 -35 11.5 -66.5t32.5 -55.5t51 -38t66 -14t65.5 14t50.5 38t32.5 55.5t11.5 66.5
q0 36 -11 67t-32 54.5t-50.5 37t-66.5 13.5q-36 0 -66 -13.5t-51 -37t-32.5 -54.5t-11.5 -67z" />
    <glyph glyph-name="e" unicode="e" horiz-adv-x="565" 
d="M300 63q53 0 89.5 21.5t48.5 69.5h82q-10 -49 -32 -81t-52 -50.5t-65.5 -25.5t-72.5 -7q-68 0 -117 19t-81 53t-47 80t-15 101q0 60 17.5 106t49.5 76.5t77.5 46t101.5 15.5q66 0 112.5 -20.5t76 -56t42.5 -83.5t13 -104h-398q0 -39 13 -68.5t36 -50t54 -31t67 -10.5z
M130 286h304q-3 32 -17 55.5t-34.5 39t-46 23t-52.5 7.5q-28 0 -55 -8t-49 -23.5t-35.5 -39t-14.5 -54.5z" />
    <glyph glyph-name="f" unicode="f" horiz-adv-x="357" 
d="M4 406v71h91v123q0 29 9 50.5t24.5 35t36.5 20t44 6.5q24 0 49 -6.5t48 -18t42 -28t31 -37.5l-34 -56q-7 10 -21 21.5t-31.5 21.5t-36 16.5t-33.5 6.5q-18 0 -29.5 -10.5t-11.5 -36.5v-108h162v-71h-162v-415h-86v415h-92z" />
    <glyph glyph-name="g" unicode="g" horiz-adv-x="592" 
d="M99 -33q9 -12 21.5 -27.5t32 -29t46 -23t62.5 -9.5q33 0 66 6t60 23.5t44 47.5t17 78v61q-32 -38 -77 -56t-96 -18t-95 16.5t-76.5 47t-51 73.5t-18.5 95t18.5 95.5t51 74.5t75.5 48t92 17q52 0 98.5 -20t78.5 -58v67h87v-440q0 -68 -23.5 -114t-62 -73.5t-88 -39
t-101.5 -11.5q-39 0 -74 9t-63.5 25t-49.5 37t-33 44zM286 96q31 0 60.5 9t52 26t36 41.5t13.5 54.5v51q0 31 -13.5 55.5t-36 42t-52 26.5t-61.5 9q-35 0 -65 -11t-52 -32t-34.5 -50t-12.5 -65t13 -65.5t35 -49.5t52.5 -31t64.5 -11z" />
    <glyph glyph-name="h" unicode="h" horiz-adv-x="586" 
d="M73 0v703h86v-294q31 38 76.5 58t98.5 20q47 0 82.5 -15.5t59.5 -43.5t36.5 -67t12.5 -87v-274h-86v265q0 64 -31.5 104.5t-99.5 40.5q-73 0 -111 -46t-38 -118v-246h-86z" />
    <glyph glyph-name="i" unicode="i" horiz-adv-x="232" 
d="M58 635q0 24 17 40t41 16q23 0 41 -14.5t18 -40.5q0 -25 -17 -41t-42 -16q-24 0 -41 15t-17 41zM73 0v477h86v-477h-86z" />
    <glyph glyph-name="j" unicode="j" horiz-adv-x="228" 
d="M58 635q0 25 16.5 41t41.5 16q23 0 41 -15t18 -40q0 -26 -17 -42t-42 -16t-41.5 15.5t-16.5 40.5zM-43 -117l10 83q22 -3 40 -3q24 0 38 5.5t20.5 14.5t8 21.5t1.5 26.5v446h86v-442q1 -78 -30.5 -117t-114.5 -39q-14 0 -28.5 1t-30.5 3z" />
    <glyph glyph-name="k" unicode="k" horiz-adv-x="564" 
d="M73 704h86v-465l260 238h105l-201 -197l220 -280h-106l-179 222l-99 -91v-131h-86v704z" />
    <glyph glyph-name="l" unicode="l" horiz-adv-x="231" 
d="M73 0v704h86v-704h-86z" />
    <glyph glyph-name="m" unicode="m" horiz-adv-x="931" 
d="M73 0v477h83v-71q28 41 72 61t93 20q51 0 95.5 -23.5t69.5 -70.5q30 46 81 70t109 24q47 0 82.5 -15.5t59 -43.5t35.5 -67.5t12 -86.5v-274h-86v265q0 30 -7 56.5t-22 46t-38.5 31t-57.5 11.5q-36 0 -62.5 -13t-44.5 -35t-26.5 -52t-8.5 -64v-246h-86v265q0 30 -7 56.5
t-22 46t-38.5 31t-57.5 11.5q-36 0 -62.5 -13t-44.5 -35t-26.5 -52t-8.5 -64v-246h-86z" />
    <glyph glyph-name="n" unicode="n" horiz-adv-x="586" 
d="M73 0v477h82v-72q29 42 77 62t101 20q47 0 83 -15.5t60 -43.5t36.5 -67t12.5 -87v-274h-86v265q0 64 -31.5 104.5t-99.5 40.5q-73 0 -111 -46t-38 -118v-246h-86z" />
    <glyph glyph-name="o" unicode="o" horiz-adv-x="571" 
d="M38 239q0 54 19 99.5t52 79t78.5 52t98.5 18.5t98.5 -19t78.5 -52t51.5 -78.5t18.5 -99.5t-18.5 -99.5t-51.5 -78.5t-78.5 -52t-98.5 -19t-98.5 19t-78.5 52t-52 78.5t-19 99.5zM286 71q37 0 66.5 13t50.5 35.5t32 53t11 66.5t-11 66.5t-32 53t-50.5 35.5t-66.5 13
q-36 0 -65.5 -13t-50.5 -35.5t-32.5 -53t-11.5 -66.5q0 -35 11.5 -66t32.5 -53.5t50.5 -35.5t65.5 -13z" />
    <glyph glyph-name="p" unicode="p" horiz-adv-x="611" 
d="M73 -210v687h83v-75q30 42 75.5 63.5t100.5 21.5q51 0 94.5 -19t74.5 -52t48.5 -78.5t17.5 -98.5t-17.5 -98.5t-48.5 -79t-74 -52.5t-94 -19q-55 0 -99 21.5t-75 61.5v-283h-86zM319 66q36 0 66 14t51 37.5t32.5 55t11.5 66.5q0 36 -11.5 67t-32.5 54.5t-50.5 37
t-65.5 13.5q-37 0 -67 -14t-51 -37.5t-32.5 -54.5t-11.5 -66t11.5 -66.5t32.5 -55t50.5 -37.5t66.5 -14z" />
    <glyph glyph-name="q" unicode="q" horiz-adv-x="610" 
d="M451 -210v283q-30 -40 -74.5 -61.5t-98.5 -21.5q-51 0 -94 19t-74 52.5t-48.5 79t-17.5 98.5t17.5 98.5t48.5 79t74 52.5t94 19q55 0 100.5 -22t76.5 -64v75h83v-687h-87zM292 66q36 0 65.5 14t50.5 37.5t32.5 55t11.5 66.5t-11.5 66.5t-32.5 55t-51 37.5t-66 14
t-65.5 -13.5t-50.5 -37t-32.5 -55t-11.5 -67.5q0 -35 11.5 -66.5t32.5 -55t51 -37.5t66 -14z" />
    <glyph glyph-name="r" unicode="r" horiz-adv-x="458" 
d="M73 0v477h82v-72q23 40 60.5 61.5t82.5 21.5q25 0 48.5 -8t41.5 -24t29 -40.5t11 -58.5q0 -28 -9 -63h-75q6 21 6 40q0 39 -21.5 62.5t-56.5 23.5q-28 0 -49 -13.5t-35 -37.5t-21.5 -55.5t-7.5 -67.5v-246h-86z" />
    <glyph glyph-name="s" unicode="s" horiz-adv-x="513" 
d="M388 342q0 17 -12 30t-31.5 22t-44.5 13.5t-52 4.5q-24 0 -46.5 -3.5t-40 -10.5t-28 -17.5t-10.5 -24.5q0 -12 7.5 -22t25 -19t46.5 -17.5t73 -17.5q45 -9 82.5 -21.5t64.5 -30t42.5 -41t15.5 -54.5q0 -33 -15.5 -59.5t-43.5 -45t-67.5 -28.5t-87.5 -10
q-116 0 -171.5 40.5t-60.5 129.5h80q2 -22 10 -40.5t25 -32t44.5 -21.5t66.5 -8q57 0 95.5 16.5t38.5 51.5q0 21 -12.5 35t-34 23.5t-49 16.5t-57.5 13q-36 8 -72 17t-65 24t-47 39t-18 61q0 63 56.5 97.5t155.5 34.5q106 0 163 -38t57 -107h-83z" />
    <glyph glyph-name="t" unicode="t" horiz-adv-x="391" 
d="M100 477v133h86v-133h182v-71h-182v-290q0 -46 43 -46q15 0 32.5 5.5t34 15t30.5 21.5t23 24l34 -57q-12 -20 -31 -36.5t-42 -28t-48.5 -18t-49.5 -6.5q-46 0 -79.5 27t-33.5 85v304h-91v71h92z" />
    <glyph glyph-name="u" unicode="u" horiz-adv-x="598" 
d="M443 0l-10 102q-10 -34 -27.5 -56t-40 -34.5t-47.5 -17t-49 -4.5q-99 0 -151 56.5t-52 156.5v274h86v-265q0 -63 31 -104t99 -41q36 0 63.5 12.5t46 34t28 51.5t9.5 65v247h86v-362l10 -115h-82z" />
    <glyph glyph-name="v" unicode="v" horiz-adv-x="486" 
d="M195 0l-185 477h90l144 -389l147 389h85l-185 -477h-96z" />
    <glyph glyph-name="w" unicode="w" horiz-adv-x="853" 
d="M194 0l-185 477h90l144 -390l157 390h59l154 -390l147 390h85l-185 -477h-96l-136 342l-138 -342h-96z" />
    <glyph glyph-name="x" unicode="x" horiz-adv-x="493" 
d="M11 0l188 244l-179 233h96l131 -172l131 172h94l-180 -233l190 -244h-98l-138 183l-139 -183h-96z" />
    <glyph glyph-name="y" unicode="y" horiz-adv-x="510" 
d="M81 -79q20 -9 39 -9q26 0 47 14.5t32 41.5l14 32l-211 476h90l167 -381l166 381h83l-233 -528q-23 -53 -63 -80t-89 -27q-37 0 -77 17l-26 11l28 66z" />
    <glyph glyph-name="z" unicode="z" horiz-adv-x="451" 
d="M18 0v60l301 346h-297v71h405v-61l-300 -345h300v-71h-409z" />
    <glyph glyph-name="braceleft" unicode="{" horiz-adv-x="316" 
d="M299 -175h-40q-66 0 -101 33t-35 100v207q0 15 -7 24t-17.5 14t-23 6.5t-24.5 1.5v72q12 0 24.5 1.5t23 6.5t17.5 13.5t7 23.5v207q0 67 35 100t101 33h40v-71q-36 0 -63 -14.5t-27 -55.5v-198q0 -29 -9 -51t-40 -31q31 -10 40 -32t9 -51v-198q0 -41 27 -55.5t63 -14.5
v-71z" />
    <glyph glyph-name="bar" unicode="|" horiz-adv-x="269" 
d="M95 -175v843h80v-843h-80z" />
    <glyph glyph-name="braceright" unicode="}" horiz-adv-x="316" 
d="M17 -175v71q20 0 36.5 2t28.5 9t18.5 21t6.5 38v198q0 30 8.5 51.5t39.5 31.5q-31 10 -39.5 31.5t-8.5 51.5v197q0 24 -6.5 38t-18.5 21t-28.5 9t-36.5 2v71h40q66 0 101 -33t35 -100v-207q0 -19 5.5 -28t15 -13t22.5 -4h27v-72h-27t-22.5 -3.5t-15 -13t-5.5 -28.5v-208
q0 -67 -35 -100t-101 -33h-40z" />
    <glyph glyph-name="asciitilde" unicode="~" horiz-adv-x="524" 
d="M42 245q1 29 8 55.5t22 47t39 33t58 12.5q35 0 60.5 -13.5t46.5 -30t40.5 -30t41.5 -13.5q18 0 29.5 7t17.5 19t8 26.5t2 29.5h67q-1 -28 -7.5 -55t-21.5 -48t-39 -33.5t-59 -12.5q-34 0 -60 13.5t-48 30t-41 30t-40 13.5q-18 0 -29 -7t-17 -18.5t-8.5 -26t-2.5 -29.5
h-67z" />
    <glyph glyph-name="exclamdown" unicode="&#xa1;" horiz-adv-x="241" 
d="M62 423q0 25 17 41.5t42 16.5t41.5 -17t16.5 -41q0 -25 -16.5 -41t-41.5 -16q-24 0 -41.5 15.5t-17.5 41.5zM70 -139l16 417h69l17 -417h-102z" />
    <glyph glyph-name="cent" unicode="&#xa2;" horiz-adv-x="538" 
d="M248 -117v109q-45 6 -83.5 27t-66.5 53t-43.5 74.5t-15.5 92.5t15.5 92.5t43.5 74.5t66 52.5t84 26.5v108h81v-109q59 -9 105 -42t72 -85l-66 -39q-19 34 -46.5 56t-64.5 30v-329q35 8 62 27t48 48l67 -31q-26 -51 -72 -84t-105 -42v-110h-81zM248 404
q-57 -12 -89.5 -56.5t-32.5 -108.5q0 -63 33 -107.5t89 -57.5v330z" />
    <glyph glyph-name="sterling" unicode="&#xa3;" horiz-adv-x="581" 
d="M67 0v70l58 185h-98v59h98l-20 65q-10 33 -10 68q0 40 15 75t43.5 61.5t70.5 41.5t97 15q113 0 167.5 -56.5t47.5 -156.5l-74 -16q2 44 -9.5 73.5t-31 48t-44.5 26.5t-50 8q-66 0 -106.5 -30.5t-40.5 -91.5q0 -27 9 -60l20 -71h245v-59h-240l-58 -177h379v-78h-468z" />
    <glyph glyph-name="currency" unicode="&#xa4;" horiz-adv-x="630" 
d="M77 -2l-49 53l92 93q-23 30 -36 67.5t-13 75.5q0 78 48 143l-91 91l49 53l95 -94q64 46 143 46q39 0 75.5 -11.5t68.5 -33.5l93 93l50 -53l-90 -90q48 -65 48 -144q0 -40 -13 -76.5t-37 -67.5l92 -92l-50 -53l-95 94q-66 -43 -142 -43q-38 0 -74.5 10.5t-66.5 33.5z
M315 120q35 0 66.5 12.5t56 35t39 53t14.5 66.5t-14.5 67t-38.5 53.5t-56 35t-67 12.5t-66.5 -13t-55 -35.5t-37.5 -53t-14 -66.5t14 -66.5t38 -53t55.5 -35t65.5 -12.5z" />
    <glyph glyph-name="yen" unicode="&#xa5;" horiz-adv-x="582" 
d="M247 0v43h-157v71h157v82h-157v71h128l-221 363h96l202 -332l202 332h89l-220 -363h127v-71h-157v-82h157v-71h-157v-43h-89z" />
    <glyph glyph-name="brokenbar" unicode="&#xa6;" horiz-adv-x="269" 
d="M95 353v315h80v-315h-80zM95 -175v315h80v-315h-80z" />
    <glyph glyph-name="section" unicode="&#xa7;" horiz-adv-x="450" 
d="M64 76l22 52q26 -20 61 -31.5t68 -11.5q14 0 29.5 2.5t28.5 9.5t21.5 18.5t8.5 29.5q0 24 -17 36t-43 20t-56 14.5t-56 19t-43 33.5t-17 58q0 30 14 54t40 40q-20 14 -29 33.5t-9 43.5q0 33 15.5 55.5t39.5 36t53 19.5t56 6q31 0 69.5 -9t63.5 -27l-22 -52
q-26 17 -55.5 25t-60.5 8q-14 0 -31 -2t-32 -8.5t-25 -18.5t-10 -31q0 -24 17 -36t43 -20t55.5 -14.5t55.5 -19t43 -34.5t17 -60q0 -29 -14.5 -52t-38.5 -39q20 -14 29 -34t9 -44q0 -31 -14 -53t-35.5 -36t-48.5 -20.5t-54 -6.5q-17 0 -37.5 2.5t-40.5 8.5t-38 14.5
t-32 20.5zM267 250q23 8 37.5 24t14.5 40q0 22 -15 35.5t-36.5 21.5t-44.5 12.5t-38 9.5q-23 -7 -38.5 -23t-15.5 -40q0 -22 15.5 -35.5t37 -22t44.5 -13t39 -9.5z" />
    <glyph glyph-name="dieresis" unicode="&#xa8;" 
d="M353 562q-20 0 -33 13t-13 33q0 19 13 33t33 14t33 -14t13 -33q0 -20 -13 -33t-33 -13zM186 562q-20 0 -33 13t-13 33q0 19 13 33t33 14t33 -14t13 -33q0 -20 -13 -33t-33 -13z" />
    <glyph glyph-name="copyright" unicode="&#xa9;" horiz-adv-x="722" 
d="M43 315q0 67 24.5 125t67.5 100.5t101.5 67t125.5 24.5q68 0 125.5 -24t100 -66t66.5 -99.5t24 -125.5q0 -67 -24.5 -125.5t-67.5 -101.5t-101 -68t-125 -25t-124.5 24.5t-100.5 67.5t-67.5 101t-24.5 125zM360 37q59 0 109.5 21.5t87.5 59.5t58 89t21 110t-20.5 109.5
t-57 87t-87 57.5t-109.5 21t-109.5 -21.5t-88 -58.5t-58.5 -87.5t-21 -109.5q0 -58 21 -109t58 -88.5t87.5 -59t108.5 -21.5zM367 149q-41 0 -73 12.5t-53.5 35t-33 52.5t-11.5 65t11.5 65.5t33 53t53.5 35.5t73 13q30 0 57 -7.5t46.5 -23t31 -39.5t11.5 -56h-46
q0 45 -28 65t-71 20q-33 0 -57 -10t-39 -27t-22.5 -39.5t-7.5 -48.5q0 -25 7.5 -48t22.5 -40t39 -27t57 -10q43 0 71 19.5t28 65.5h46q0 -32 -11.5 -56t-31 -39.5t-46.5 -23t-57 -7.5z" />
    <glyph glyph-name="ordfeminine" unicode="&#xaa;" horiz-adv-x="357" 
d="M70 570q5 35 34 58t87 23q56 0 81.5 -27.5t25.5 -65.5v-167h-46v36q-11 -19 -38.5 -30t-57.5 -12q-18 0 -35.5 4t-31 13.5t-22 24.5t-8.5 36q0 32 24.5 50t64.5 23l84 10q11 2 15 7t4 13q0 17 -15.5 30t-47.5 13q-41 0 -55 -14t-17 -36zM251 515l-93 -13q-20 -3 -36 -13
t-16 -26q0 -21 15.5 -31.5t37.5 -10.5q15 0 31.5 5t30 15t22 25t8.5 34v15z" />
    <glyph glyph-name="guillemotleft" unicode="&#xab;" horiz-adv-x="454" 
d="M171 67l-130 172l130 172h79l-127 -172l127 -172h-79zM344 67l-130 172l130 172h79l-127 -172l127 -172h-79z" />
    <glyph glyph-name="logicalnot" unicode="&#xac;" horiz-adv-x="524" 
d="M60 280v71h404v-231h-77v160h-327z" />
    <glyph glyph-name="uni00AD" unicode="&#xad;" horiz-adv-x="345" 
d="M51 210v75h242v-75h-242z" />
    <glyph glyph-name="registered" unicode="&#xae;" horiz-adv-x="712" 
d="M43 315q0 67 24.5 125t67.5 100.5t101 67t125 24.5q68 0 126 -24t100.5 -66t66.5 -99.5t24 -125.5q0 -67 -24.5 -125.5t-67.5 -102t-101 -68t-125 -24.5t-125 24.5t-100.5 67.5t-67 101t-24.5 125zM360 37q59 0 109.5 21.5t87.5 59.5t58 89t21 110t-20.5 109.5t-57.5 87
t-87 57.5t-110 21q-58 0 -108.5 -21t-88 -58.5t-58.5 -88t-21 -109.5q0 -58 21 -109t58 -88.5t87.5 -59t108.5 -21.5zM498 246l19 -99h-48l-20 93q-3 15 -11 24t-19.5 13.5t-24.5 5.5t-27 1h-68v-137h-48v336h145q25 0 47 -4.5t38 -15t25.5 -27.5t9.5 -43q0 -38 -18.5 -59
t-46.5 -31q17 -8 30 -21t17 -36zM299 324h91q15 0 29 2t25 9t17.5 19t6.5 31q0 36 -21 46t-53 10h-95v-117z" />
    <glyph glyph-name="macron" unicode="&#xaf;" 
d="M123 578v54h294v-54h-294z" />
    <glyph glyph-name="degree" unicode="&#xb0;" horiz-adv-x="377" 
d="M188 343q-31 0 -57.5 11.5t-46.5 31.5t-31.5 46.5t-11.5 57.5t11.5 57.5t31.5 46t47 31t57 11.5t57 -11.5t47.5 -31t32 -46t11.5 -57.5t-11.5 -58t-31.5 -46.5t-47 -31t-58 -11.5zM188 392q42 0 69.5 28t27.5 70t-27.5 70t-69.5 28t-69.5 -28t-27.5 -70t27.5 -70
t69.5 -28z" />
    <glyph glyph-name="plusminus" unicode="&#xb1;" horiz-adv-x="524" 
d="M60 323v71h164v157h76v-157h164v-71h-164v-157h-76v157h-164zM60 0v71h404v-71h-404z" />
    <glyph glyph-name="twosuperior" unicode="&#xb2;" horiz-adv-x="388" 
d="M73 558q1 26 10.5 47t26 36t39 23t47.5 8q49 0 83.5 -29t34.5 -80q0 -32 -11 -54t-28 -38.5t-38 -29.5t-41 -26t-36.5 -28.5t-24.5 -37.5h182v-48h-248q2 41 17 68.5t37 47.5t47.5 35t47 30.5t35.5 34t14 46.5q0 32 -20 47.5t-52 15.5q-36 0 -54.5 -19.5t-20.5 -53.5z
" />
    <glyph glyph-name="threesuperior" unicode="&#xb3;" horiz-adv-x="387" 
d="M136 508l108 102h-170v49h239v-43l-106 -102q51 0 85 -29.5t34 -86.5q0 -30 -12.5 -52t-31.5 -36t-42.5 -21t-46.5 -7q-22 0 -44 6.5t-40.5 20.5t-31 35.5t-15.5 50.5l46 10q4 -42 29 -59t56 -17q13 0 27.5 3t26.5 10.5t19.5 20.5t7.5 34t-7 35.5t-18.5 23.5t-25 13.5
t-27.5 4.5t-31 -5z" />
    <glyph glyph-name="acute" unicode="&#xb4;" 
d="M203 546l122 117h110l-151 -117h-81z" />
    <glyph glyph-name="uni00B5" unicode="&#xb5;" horiz-adv-x="614" 
d="M82 -174v651h86v-265q0 -63 31 -101.5t98 -38.5q74 0 111 44t37 114v247h86v-477h-82v74q-24 -41 -64 -60t-86 -19q-38 0 -72 12t-59 43v-224h-86z" />
    <glyph glyph-name="paragraph" unicode="&#xb6;" horiz-adv-x="583" 
d="M212 362q-69 1 -112 37.5t-43 96.5q0 62 45 98t121 36h226v-630h-60v574h-117v-574h-60v362z" />
    <glyph glyph-name="periodcentered" unicode="&#xb7;" horiz-adv-x="240" 
d="M59 274q0 26 19 43.5t48 17.5t46.5 -17.5t17.5 -43.5t-17.5 -44t-46.5 -18q-30 0 -48.5 18t-18.5 44z" />
    <glyph glyph-name="cedilla" unicode="&#xb8;" 
d="M168 -182l18 44q14 -8 29.5 -11.5t32.5 -3.5q18 0 34 6.5t16 29.5q0 15 -8 22t-20 10t-25 3h-23l23 88h49l-13 -51q32 -4 55 -22t23 -53q0 -23 -10 -38.5t-26 -25.5t-36 -14t-39 -4q-21 0 -41.5 4.5t-38.5 15.5z" />
    <glyph glyph-name="onesuperior" unicode="&#xb9;" horiz-adv-x="230" 
d="M107 301v292h-36v34q18 4 37 15.5t28 25.5h23v-367h-52z" />
    <glyph glyph-name="ordmasculine" unicode="&#xba;" horiz-adv-x="360" 
d="M47 506q0 30 10.5 55t29 42.5t43.5 27.5t55 10t55 -10t43 -28t28.5 -42.5t10.5 -54.5t-10.5 -55t-28.5 -42.5t-43 -27.5t-55 -10t-55 10t-43.5 27.5t-29 42.5t-10.5 55zM185 412q42 0 65.5 27t23.5 67t-23.5 66.5t-65.5 26.5q-41 0 -65 -26.5t-24 -66.5t24 -67t65 -27z
" />
    <glyph glyph-name="guillemotright" unicode="&#xbb;" horiz-adv-x="454" 
d="M31 67l127 172l-127 172h79l129 -172l-129 -172h-79zM204 67l127 172l-127 172h79l129 -172l-129 -172h-79z" />
    <glyph glyph-name="onequarter" unicode="&#xbc;" horiz-adv-x="600" 
d="M103 302v261h-33v30q17 4 34 14.5t25 22.5h20v-328h-46zM498 630h49l-465 -630h-48zM288 62v33l170 208h42v-201h42v-40h-42v-62h-43v62h-169zM342 102h116v145z" />
    <glyph glyph-name="onehalf" unicode="&#xbd;" horiz-adv-x="681" 
d="M103 308v256h-32v30q16 3 32.5 13.5t24.5 22.5h20v-322h-45zM498 630h48l-464 -630h-49zM392 230q2 45 32 72.5t75 27.5q44 0 74.5 -25.5t30.5 -70.5q0 -42 -20.5 -66t-47.5 -41.5t-53 -34.5t-37 -46h160v-42h-217q2 36 15 60t32.5 41.5t41.5 31t40.5 27t31 30t12.5 40.5
q0 29 -18 42.5t-46 13.5q-31 0 -47.5 -17t-17.5 -47z" />
    <glyph glyph-name="threequarters" unicode="&#xbe;" horiz-adv-x="677" 
d="M558 630h49l-465 -630h-48zM86 494l98 92h-154v44h216v-38l-96 -93q45 0 76 -26.5t31 -77.5q0 -27 -11 -47t-28 -32.5t-38.5 -19t-41.5 -6.5t-40 6t-37 18.5t-28.5 32t-13.5 45.5l42 10q3 -38 26 -53.5t50 -15.5q12 0 25.5 2.5t24 9.5t17.5 18.5t7 30.5q0 18 -6.5 31.5
t-16.5 21.5t-23 12t-25 4q-13 0 -28 -5zM353 66v34l173 212h44v-205h42v-41h-42v-63h-45v63h-172zM408 107h119v148z" />
    <glyph glyph-name="questiondown" unicode="&#xbf;" horiz-adv-x="516" 
d="M206 438q0 24 17 40.5t41 16.5q26 0 42.5 -16t16.5 -41q0 -26 -16.5 -42t-42.5 -16q-25 0 -41.5 16t-16.5 42zM313 291q1 -43 -12 -74.5t-33.5 -56t-44 -44.5t-44 -39.5t-34 -41.5t-13.5 -50q0 -48 31 -74t96 -26q35 0 60 11t41 29t24 40.5t8 45.5l85 -11
q0 -34 -12.5 -70t-39 -65t-67.5 -48t-97 -19q-106 0 -162 52.5t-56 137.5q0 39 13.5 65.5t34 47.5t44.5 39t45 39t36 47.5t16 64.5h81z" />
    <glyph glyph-name="Agrave" unicode="&#xc0;" horiz-adv-x="570" 
d="M99 816h110l123 -117h-81zM404 190h-240l-61 -191h-93l205 631h138l207 -631h-96zM381 262l-97 304l-97 -304h194z" />
    <glyph glyph-name="Aacute" unicode="&#xc1;" horiz-adv-x="570" 
d="M229 699l122 117h110l-151 -117h-81zM404 190h-240l-61 -191h-93l205 631h138l207 -631h-96zM381 262l-97 304l-97 -304h194z" />
    <glyph glyph-name="Acircumflex" unicode="&#xc2;" horiz-adv-x="570" 
d="M124 699l120 117h82l120 -117h-78l-83 70l-83 -70h-78zM404 190h-240l-61 -191h-93l205 631h138l207 -631h-96zM381 262l-97 304l-97 -304h194z" />
    <glyph glyph-name="Atilde" unicode="&#xc3;" horiz-adv-x="570" 
d="M134 706q1 20 6 39.5t15.5 35.5t27 25.5t39.5 9.5q21 0 37.5 -9.5t30.5 -21t26.5 -21t25.5 -9.5q23 0 34 16.5t12 37.5h48q-1 -20 -6.5 -39t-16 -34t-26.5 -24.5t-39 -9.5q-21 0 -37.5 9.5t-30.5 20.5t-26.5 20.5t-25.5 9.5q-23 0 -34 -17.5t-12 -38.5h-48zM404 190h-240
l-61 -191h-93l205 631h138l207 -631h-96zM381 262l-97 304l-97 -304h194z" />
    <glyph glyph-name="Adieresis" unicode="&#xc4;" horiz-adv-x="570" 
d="M368 715q-20 0 -33 13t-13 33q0 19 13 33t33 14t33 -14t13 -33q0 -20 -13 -33t-33 -13zM201 715q-20 0 -33 13t-13 33q0 19 13 33t33 14t33 -14t13 -33q0 -20 -13 -33t-33 -13zM404 190h-240l-61 -191h-93l205 631h138l207 -631h-96zM381 262l-97 304l-97 -304h194z" />
    <glyph glyph-name="Aring" unicode="&#xc5;" horiz-adv-x="570" 
d="M185 765q0 42 28.5 70.5t70.5 28.5t71 -28.5t29 -70.5q0 -21 -8 -39t-21.5 -30.5t-31.5 -20t-39 -7.5q-42 0 -70.5 27.5t-28.5 69.5zM284 716q22 0 35.5 13.5t13.5 35.5t-13.5 36t-35.5 14q-21 0 -34.5 -14t-13.5 -36q0 -21 13.5 -35t34.5 -14zM404 190h-240l-61 -191
h-93l205 631h138l207 -631h-96zM381 262l-97 304l-97 -304h194z" />
    <glyph glyph-name="AE" unicode="&#xc6;" horiz-adv-x="844" 
d="M352 191h-189l-61 -191h-92l205 630h582v-78h-355v-193h310v-77h-310v-204h347v-78h-437v191zM352 263v291h-73l-92 -291h165z" />
    <glyph glyph-name="Ccedilla" unicode="&#xc7;" horiz-adv-x="689" 
d="M248 -182l19 44q14 -8 29.5 -11.5t32.5 -3.5q18 0 34 6.5t16 29.5q0 15 -8 22t-20 10t-25 3h-23l19 74q-69 7 -123 34.5t-90.5 70t-55.5 98t-19 119.5q0 69 22 128.5t65 103.5t105 69t143 25q60 0 112 -15t90.5 -45t61 -76.5t22.5 -109.5h-90q0 44 -15 75.5t-41 51.5
t-61.5 29.5t-77.5 9.5q-65 0 -111.5 -19.5t-76.5 -53t-44 -78t-14 -94.5t14 -94.5t44 -78t76.5 -53t111.5 -19.5q42 0 77.5 9.5t61.5 29.5t41 51.5t15 75.5h90q0 -63 -22 -109t-60.5 -76.5t-90.5 -45.5t-111 -15l-9 -35q32 -4 55 -22t23 -53q0 -23 -10 -38.5t-26 -25.5
t-36 -14t-39 -4q-21 0 -41.5 4.5t-39.5 15.5z" />
    <glyph glyph-name="Egrave" unicode="&#xc8;" horiz-adv-x="576" 
d="M122 816h110l123 -117h-81zM86 0v630h445v-78h-355v-193h310v-77h-310v-204h347v-78h-437z" />
    <glyph glyph-name="Eacute" unicode="&#xc9;" horiz-adv-x="576" 
d="M242 699l122 117h110l-151 -117h-81zM86 0v630h445v-78h-355v-193h310v-77h-310v-204h347v-78h-437z" />
    <glyph glyph-name="Ecircumflex" unicode="&#xca;" horiz-adv-x="576" 
d="M127 699l120 117h82l120 -117h-78l-83 70l-83 -70h-78zM86 0v630h445v-78h-355v-193h310v-77h-310v-204h347v-78h-437z" />
    <glyph glyph-name="Edieresis" unicode="&#xcb;" horiz-adv-x="576" 
d="M371 715q-20 0 -33 13t-13 33q0 19 13 33t33 14t33 -14t13 -33q0 -20 -13 -33t-33 -13zM204 715q-20 0 -33 13t-13 33q0 19 13 33t33 14t33 -14t13 -33q0 -20 -13 -33t-33 -13zM86 0v630h445v-78h-355v-193h310v-77h-310v-204h347v-78h-437z" />
    <glyph glyph-name="Igrave" unicode="&#xcc;" horiz-adv-x="261" 
d="M-76 816h110l123 -117h-81zM86 0v630h90v-630h-90z" />
    <glyph glyph-name="Iacute" unicode="&#xcd;" horiz-adv-x="261" 
d="M95 699l122 117h110l-151 -117h-81zM86 0v630h90v-630h-90z" />
    <glyph glyph-name="Icircumflex" unicode="&#xce;" horiz-adv-x="261" 
d="M-31 699l120 117h82l120 -117h-78l-83 70l-83 -70h-78zM86 0v630h90v-630h-90z" />
    <glyph glyph-name="Idieresis" unicode="&#xcf;" horiz-adv-x="261" 
d="M213 715q-20 0 -33 13t-13 33q0 19 13 33t33 14t33 -14t13 -33q0 -20 -13 -33t-33 -13zM46 715q-20 0 -33 13t-13 33q0 19 13 33t33 14t33 -14t13 -33q0 -20 -13 -33t-33 -13zM86 0v630h90v-630h-90z" />
    <glyph glyph-name="Eth" unicode="&#xd0;" horiz-adv-x="834" 
d="M12 396h91v234h265q71 0 133 -21t108 -61.5t72.5 -99t26.5 -133.5t-26.5 -133.5t-72.5 -99t-108 -61.5t-133 -21h-265v317h-91v79zM193 78h170q54 0 100.5 16t81 46t54 74t19.5 101t-19.5 101t-54 74t-81 46t-100.5 16h-170v-156h218v-79h-218v-239z" />
    <glyph glyph-name="Ntilde" unicode="&#xd1;" horiz-adv-x="713" 
d="M206 706q1 20 6 39.5t15.5 35.5t27 25.5t39.5 9.5q21 0 37.5 -9.5t30.5 -21t26.5 -21t25.5 -9.5q23 0 34 16.5t12 37.5h48q-1 -20 -6.5 -39t-16 -34t-26.5 -24.5t-39 -9.5q-21 0 -37.5 9.5t-30.5 20.5t-26.5 20.5t-25.5 9.5q-23 0 -34 -17.5t-12 -38.5h-48zM86 0v630h78
l373 -472v472h90v-630h-78l-373 472v-472h-90z" />
    <glyph glyph-name="Ograve" unicode="&#xd2;" horiz-adv-x="738" 
d="M163 816h110l123 -117h-81zM34 315q0 72 26.5 131.5t72 102.5t106.5 67t131 24t131 -24t106 -67t71 -102.5t26 -131.5t-26 -131.5t-71 -102.5t-106 -67t-131 -24t-131 24t-106.5 67t-72 102.5t-26.5 131.5zM370 70q52 0 96.5 18.5t77.5 51.5t51.5 78t18.5 97t-18.5 97
t-51.5 78t-77.5 51.5t-96.5 18.5t-97 -18.5t-78 -51.5t-52 -77.5t-19 -97.5q0 -52 19 -97t52 -78t78 -51.5t97 -18.5z" />
    <glyph glyph-name="Oacute" unicode="&#xd3;" horiz-adv-x="738" 
d="M313 699l122 117h110l-151 -117h-81zM34 315q0 72 26.5 131.5t72 102.5t106.5 67t131 24t131 -24t106 -67t71 -102.5t26 -131.5t-26 -131.5t-71 -102.5t-106 -67t-131 -24t-131 24t-106.5 67t-72 102.5t-26.5 131.5zM370 70q52 0 96.5 18.5t77.5 51.5t51.5 78t18.5 97
t-18.5 97t-51.5 78t-77.5 51.5t-96.5 18.5t-97 -18.5t-78 -51.5t-52 -77.5t-19 -97.5q0 -52 19 -97t52 -78t78 -51.5t97 -18.5z" />
    <glyph glyph-name="Ocircumflex" unicode="&#xd4;" horiz-adv-x="738" 
d="M208 699l120 117h82l120 -117h-78l-83 70l-83 -70h-78zM34 315q0 72 26.5 131.5t72 102.5t106.5 67t131 24t131 -24t106 -67t71 -102.5t26 -131.5t-26 -131.5t-71 -102.5t-106 -67t-131 -24t-131 24t-106.5 67t-72 102.5t-26.5 131.5zM370 70q52 0 96.5 18.5t77.5 51.5
t51.5 78t18.5 97t-18.5 97t-51.5 78t-77.5 51.5t-96.5 18.5t-97 -18.5t-78 -51.5t-52 -77.5t-19 -97.5q0 -52 19 -97t52 -78t78 -51.5t97 -18.5z" />
    <glyph glyph-name="Otilde" unicode="&#xd5;" horiz-adv-x="738" 
d="M218 706q1 20 6 39.5t15.5 35.5t27 25.5t39.5 9.5q21 0 37.5 -9.5t30.5 -21t26.5 -21t25.5 -9.5q23 0 34 16.5t12 37.5h48q-1 -20 -6.5 -39t-16 -34t-26.5 -24.5t-39 -9.5q-21 0 -37.5 9.5t-30.5 20.5t-26.5 20.5t-25.5 9.5q-23 0 -34 -17.5t-12 -38.5h-48zM34 315
q0 72 26.5 131.5t72 102.5t106.5 67t131 24t131 -24t106 -67t71 -102.5t26 -131.5t-26 -131.5t-71 -102.5t-106 -67t-131 -24t-131 24t-106.5 67t-72 102.5t-26.5 131.5zM370 70q52 0 96.5 18.5t77.5 51.5t51.5 78t18.5 97t-18.5 97t-51.5 78t-77.5 51.5t-96.5 18.5
t-97 -18.5t-78 -51.5t-52 -77.5t-19 -97.5q0 -52 19 -97t52 -78t78 -51.5t97 -18.5z" />
    <glyph glyph-name="Odieresis" unicode="&#xd6;" horiz-adv-x="738" 
d="M452 715q-20 0 -33 13t-13 33q0 19 13 33t33 14t33 -14t13 -33q0 -20 -13 -33t-33 -13zM285 715q-20 0 -33 13t-13 33q0 19 13 33t33 14t33 -14t13 -33q0 -20 -13 -33t-33 -13zM34 315q0 72 26.5 131.5t72 102.5t106.5 67t131 24t131 -24t106 -67t71 -102.5t26 -131.5
t-26 -131.5t-71 -102.5t-106 -67t-131 -24t-131 24t-106.5 67t-72 102.5t-26.5 131.5zM370 70q52 0 96.5 18.5t77.5 51.5t51.5 78t18.5 97t-18.5 97t-51.5 78t-77.5 51.5t-96.5 18.5t-97 -18.5t-78 -51.5t-52 -77.5t-19 -97.5q0 -52 19 -97t52 -78t78 -51.5t97 -18.5z" />
    <glyph glyph-name="multiply" unicode="&#xd7;" horiz-adv-x="524" 
d="M144 146l-48 52l116 117l-116 117l48 52l118 -119l118 119l48 -52l-116 -117l116 -117l-48 -52l-118 119z" />
    <glyph glyph-name="Oslash" unicode="&#xd8;" horiz-adv-x="738" 
d="M193 -64l31 84q-42 19 -77 48t-60 67t-39 83.5t-14 96.5q0 72 26 131.5t71.5 102.5t107 67t131.5 24q38 0 78 -8l23 62h78l-31 -85q42 -19 76 -48t58.5 -66.5t38 -83t13.5 -96.5q0 -72 -26 -131.5t-71 -102.5t-106 -67t-131 -24q-38 0 -76 8l-23 -62h-78zM420 555
q-12 2 -24.5 3.5t-25.5 1.5q-52 0 -97 -18.5t-78 -51.5t-52 -77.5t-19 -97.5q0 -73 35 -130t93 -87zM370 70q52 0 96.5 18.5t77.5 51.5t51.5 78t18.5 97q0 72 -34 128.5t-91 87.5l-167 -457q11 -2 23 -3t25 -1z" />
    <glyph glyph-name="Ugrave" unicode="&#xd9;" horiz-adv-x="693" 
d="M150 816h110l123 -117h-81zM170 630v-354q0 -45 9.5 -83t30.5 -65.5t55 -42.5t83 -15q48 0 82 15.5t55.5 42.5t31 65t9.5 83v354h87v-358q0 -65 -17 -117t-50 -89t-83 -56.5t-116 -19.5t-116 20t-83.5 56.5t-50.5 89t-17 116.5v358h90z" />
    <glyph glyph-name="Uacute" unicode="&#xda;" horiz-adv-x="693" 
d="M291 699l122 117h110l-151 -117h-81zM170 630v-354q0 -45 9.5 -83t30.5 -65.5t55 -42.5t83 -15q48 0 82 15.5t55.5 42.5t31 65t9.5 83v354h87v-358q0 -65 -17 -117t-50 -89t-83 -56.5t-116 -19.5t-116 20t-83.5 56.5t-50.5 89t-17 116.5v358h90z" />
    <glyph glyph-name="Ucircumflex" unicode="&#xdb;" horiz-adv-x="693" 
d="M186 699l120 117h82l120 -117h-78l-83 70l-83 -70h-78zM170 630v-354q0 -45 9.5 -83t30.5 -65.5t55 -42.5t83 -15q48 0 82 15.5t55.5 42.5t31 65t9.5 83v354h87v-358q0 -65 -17 -117t-50 -89t-83 -56.5t-116 -19.5t-116 20t-83.5 56.5t-50.5 89t-17 116.5v358h90z" />
    <glyph glyph-name="Udieresis" unicode="&#xdc;" horiz-adv-x="693" 
d="M430 715q-20 0 -33 13t-13 33q0 19 13 33t33 14t33 -14t13 -33q0 -20 -13 -33t-33 -13zM263 715q-20 0 -33 13t-13 33q0 19 13 33t33 14t33 -14t13 -33q0 -20 -13 -33t-33 -13zM170 630v-354q0 -45 9.5 -83t30.5 -65.5t55 -42.5t83 -15q48 0 82 15.5t55.5 42.5t31 65
t9.5 83v354h87v-358q0 -65 -17 -117t-50 -89t-83 -56.5t-116 -19.5t-116 20t-83.5 56.5t-50.5 89t-17 116.5v358h90z" />
    <glyph glyph-name="Yacute" unicode="&#xdd;" horiz-adv-x="610" 
d="M259 699l122 117h110l-151 -117h-81zM261 0v220l-250 410h99l199 -323l192 323h99l-250 -412v-218h-89z" />
    <glyph glyph-name="Thorn" unicode="&#xde;" horiz-adv-x="650" 
d="M95 1v628h90v-77h156q53 0 100.5 -12.5t83.5 -39.5t57 -68.5t21 -99.5t-21 -99.5t-57 -68t-83.5 -39t-100.5 -12.5h-156v-112h-90zM185 190h153q35 0 67 7.5t56 24t38 43.5t14 67t-14 67t-38 43.5t-56 24t-67 7.5h-153v-284z" />
    <glyph glyph-name="germandbls" unicode="&#xdf;" horiz-adv-x="608" 
d="M82 0v445q0 53 15.5 95t44.5 72t71 46t95 16q41 0 78.5 -11t66.5 -33.5t46.5 -56t17.5 -78.5q0 -46 -21.5 -83.5t-60.5 -61.5q62 -17 98 -60t36 -108q0 -47 -17.5 -82t-47.5 -58.5t-69 -35t-82 -11.5q-23 0 -45.5 2t-45.5 8v78q21 -7 43 -9.5t44 -2.5q27 0 51.5 6.5
t43 20t29 35t10.5 51.5q0 42 -18.5 65t-47.5 33.5t-63 12.5t-66 2v73q28 0 54 7t46.5 22t32.5 38t12 55q0 28 -10 48t-27.5 33t-40 19t-47.5 6q-70 0 -105 -39t-35 -107v-452h-86z" />
    <glyph glyph-name="agrave" unicode="&#xe0;" horiz-adv-x="556" 
d="M82 663h110l123 -117h-81zM61 335q2 41 21.5 70t48.5 47t65 26.5t70 8.5q61 0 103 -12.5t68 -34t37.5 -50t11.5 -59.5v-217l10 -115h-87l-10 108q-10 -34 -28.5 -56.5t-42.5 -36t-51.5 -19t-54.5 -5.5q-35 0 -68.5 8.5t-59 26t-41 44t-15.5 63.5q0 33 13.5 56.5
t37.5 39.5t58 26.5t75 16.5l174 29v37q0 14 -6.5 27t-21.5 23t-38.5 16t-57.5 6q-63 0 -90 -21t-31 -63zM396 240l-174 -29q-19 -3 -36.5 -9t-31 -16t-21.5 -23.5t-8 -30.5q0 -34 29 -50.5t70 -16.5q29 0 59.5 8.5t55.5 26.5t41 46.5t16 67.5v26z" />
    <glyph glyph-name="aacute" unicode="&#xe1;" horiz-adv-x="556" 
d="M222 546l122 117h110l-151 -117h-81zM61 335q2 41 21.5 70t48.5 47t65 26.5t70 8.5q61 0 103 -12.5t68 -34t37.5 -50t11.5 -59.5v-217l10 -115h-87l-10 108q-10 -34 -28.5 -56.5t-42.5 -36t-51.5 -19t-54.5 -5.5q-35 0 -68.5 8.5t-59 26t-41 44t-15.5 63.5
q0 33 13.5 56.5t37.5 39.5t58 26.5t75 16.5l174 29v37q0 14 -6.5 27t-21.5 23t-38.5 16t-57.5 6q-63 0 -90 -21t-31 -63zM396 240l-174 -29q-19 -3 -36.5 -9t-31 -16t-21.5 -23.5t-8 -30.5q0 -34 29 -50.5t70 -16.5q29 0 59.5 8.5t55.5 26.5t41 46.5t16 67.5v26z" />
    <glyph glyph-name="acircumflex" unicode="&#xe2;" horiz-adv-x="556" 
d="M117 546l120 117h82l120 -117h-78l-83 70l-83 -70h-78zM61 335q2 41 21.5 70t48.5 47t65 26.5t70 8.5q61 0 103 -12.5t68 -34t37.5 -50t11.5 -59.5v-217l10 -115h-87l-10 108q-10 -34 -28.5 -56.5t-42.5 -36t-51.5 -19t-54.5 -5.5q-35 0 -68.5 8.5t-59 26t-41 44
t-15.5 63.5q0 33 13.5 56.5t37.5 39.5t58 26.5t75 16.5l174 29v37q0 14 -6.5 27t-21.5 23t-38.5 16t-57.5 6q-63 0 -90 -21t-31 -63zM396 240l-174 -29q-19 -3 -36.5 -9t-31 -16t-21.5 -23.5t-8 -30.5q0 -34 29 -50.5t70 -16.5q29 0 59.5 8.5t55.5 26.5t41 46.5t16 67.5v26z
" />
    <glyph glyph-name="atilde" unicode="&#xe3;" horiz-adv-x="556" 
d="M127 553q1 20 6 39.5t15.5 35.5t27 25.5t39.5 9.5q21 0 37.5 -9.5t30.5 -21t26.5 -21t25.5 -9.5q23 0 34 16.5t12 37.5h48q-1 -20 -6.5 -39t-16 -34t-26.5 -24.5t-39 -9.5q-21 0 -37.5 9.5t-30.5 20.5t-26.5 20.5t-25.5 9.5q-23 0 -34 -17.5t-12 -38.5h-48zM61 335
q2 41 21.5 70t48.5 47t65 26.5t70 8.5q61 0 103 -12.5t68 -34t37.5 -50t11.5 -59.5v-217l10 -115h-87l-10 108q-10 -34 -28.5 -56.5t-42.5 -36t-51.5 -19t-54.5 -5.5q-35 0 -68.5 8.5t-59 26t-41 44t-15.5 63.5q0 33 13.5 56.5t37.5 39.5t58 26.5t75 16.5l174 29v37
q0 14 -6.5 27t-21.5 23t-38.5 16t-57.5 6q-63 0 -90 -21t-31 -63zM396 240l-174 -29q-19 -3 -36.5 -9t-31 -16t-21.5 -23.5t-8 -30.5q0 -34 29 -50.5t70 -16.5q29 0 59.5 8.5t55.5 26.5t41 46.5t16 67.5v26z" />
    <glyph glyph-name="adieresis" unicode="&#xe4;" horiz-adv-x="556" 
d="M361 562q-20 0 -33 13t-13 33q0 19 13 33t33 14t33 -14t13 -33q0 -20 -13 -33t-33 -13zM194 562q-20 0 -33 13t-13 33q0 19 13 33t33 14t33 -14t13 -33q0 -20 -13 -33t-33 -13zM61 335q2 41 21.5 70t48.5 47t65 26.5t70 8.5q61 0 103 -12.5t68 -34t37.5 -50t11.5 -59.5
v-217l10 -115h-87l-10 108q-10 -34 -28.5 -56.5t-42.5 -36t-51.5 -19t-54.5 -5.5q-35 0 -68.5 8.5t-59 26t-41 44t-15.5 63.5q0 33 13.5 56.5t37.5 39.5t58 26.5t75 16.5l174 29v37q0 14 -6.5 27t-21.5 23t-38.5 16t-57.5 6q-63 0 -90 -21t-31 -63zM396 240l-174 -29
q-19 -3 -36.5 -9t-31 -16t-21.5 -23.5t-8 -30.5q0 -34 29 -50.5t70 -16.5q29 0 59.5 8.5t55.5 26.5t41 46.5t16 67.5v26z" />
    <glyph glyph-name="aring" unicode="&#xe5;" horiz-adv-x="556" 
d="M178 612q0 42 28.5 70.5t70.5 28.5t71 -28.5t29 -70.5q0 -21 -8 -39t-21.5 -30.5t-31.5 -20t-39 -7.5q-42 0 -70.5 27.5t-28.5 69.5zM277 563q22 0 35.5 13.5t13.5 35.5t-13.5 36t-35.5 14q-21 0 -34.5 -14t-13.5 -36q0 -21 13.5 -35t34.5 -14zM61 335q2 41 21.5 70
t48.5 47t65 26.5t70 8.5q61 0 103 -12.5t68 -34t37.5 -50t11.5 -59.5v-217l10 -115h-87l-10 108q-10 -34 -28.5 -56.5t-42.5 -36t-51.5 -19t-54.5 -5.5q-35 0 -68.5 8.5t-59 26t-41 44t-15.5 63.5q0 33 13.5 56.5t37.5 39.5t58 26.5t75 16.5l174 29v37q0 14 -6.5 27
t-21.5 23t-38.5 16t-57.5 6q-63 0 -90 -21t-31 -63zM396 240l-174 -29q-19 -3 -36.5 -9t-31 -16t-21.5 -23.5t-8 -30.5q0 -34 29 -50.5t70 -16.5q29 0 59.5 8.5t55.5 26.5t41 46.5t16 67.5v26z" />
    <glyph glyph-name="ae" unicode="&#xe6;" horiz-adv-x="925" 
d="M61 336q2 41 21.5 69.5t48.5 46.5t65 26.5t70 8.5q76 0 122.5 -19t69.5 -50q65 69 187 69q66 0 112 -20.5t75.5 -56t42.5 -83.5t13 -104h-398q0 -39 13.5 -68.5t36.5 -50t54 -31t67 -10.5q53 0 89 21.5t48 69.5h83q-10 -49 -32 -81t-52 -50.5t-66 -25.5t-73 -7
q-81 0 -134.5 26t-83.5 72q-27 -32 -56 -51t-57.5 -29.5t-55 -14t-49.5 -3.5q-35 0 -68.5 8.5t-59 26t-41 44.5t-15.5 63q0 33 13.5 56.5t37.5 40t58 27t75 17.5l174 28v36q0 29 -28 50.5t-96 21.5q-63 0 -90 -20.5t-31 -62.5zM490 286h305q-3 32 -17 55.5t-34.5 39
t-46.5 23t-53 7.5q-28 0 -55 -8t-48.5 -24t-35 -39.5t-15.5 -53.5zM396 241l-174 -29q-19 -3 -36.5 -9t-31 -16t-21.5 -23.5t-8 -30.5q0 -35 29 -51.5t70 -16.5q29 0 59.5 8.5t55.5 27t41 46.5t16 67v27z" />
    <glyph glyph-name="ccedilla" unicode="&#xe7;" horiz-adv-x="557" 
d="M202 -138q14 -8 29 -11.5t32 -3.5q18 0 34 6.5t16 29.5q0 15 -8 22.5t-19.5 10t-24.5 2.5h-23l18 73q-105 7 -162 70.5t-57 178.5q0 121 64.5 184t188.5 63q51 0 93 -11t72 -34.5t47 -60t17 -87.5h-90q2 32 -10 54t-32.5 35.5t-47 19.5t-54.5 6q-159 0 -159 -173
q0 -81 37 -124.5t119 -43.5q26 0 52 5t46.5 17t33 32t12.5 50h91q0 -45 -17.5 -77.5t-47 -55t-68 -34t-79.5 -14.5l-9 -36q32 -3 55 -21.5t23 -53.5q0 -23 -10 -38.5t-26 -25.5t-36 -14t-39 -4q-21 0 -41.5 4.5t-38.5 15.5z" />
    <glyph glyph-name="egrave" unicode="&#xe8;" horiz-adv-x="565" 
d="M106 663h110l123 -117h-81zM300 63q53 0 89.5 21.5t48.5 69.5h82q-10 -49 -32 -81t-52 -50.5t-65.5 -25.5t-72.5 -7q-68 0 -117 19t-81 53t-47 80t-15 101q0 60 17.5 106t49.5 76.5t77.5 46t101.5 15.5q66 0 112.5 -20.5t76 -56t42.5 -83.5t13 -104h-398q0 -39 13 -68.5
t36 -50t54 -31t67 -10.5zM130 286h304q-3 32 -17 55.5t-34.5 39t-46 23t-52.5 7.5q-28 0 -55 -8t-49 -23.5t-35.5 -39t-14.5 -54.5z" />
    <glyph glyph-name="eacute" unicode="&#xe9;" horiz-adv-x="565" 
d="M217 546l122 117h110l-151 -117h-81zM300 63q53 0 89.5 21.5t48.5 69.5h82q-10 -49 -32 -81t-52 -50.5t-65.5 -25.5t-72.5 -7q-68 0 -117 19t-81 53t-47 80t-15 101q0 60 17.5 106t49.5 76.5t77.5 46t101.5 15.5q66 0 112.5 -20.5t76 -56t42.5 -83.5t13 -104h-398
q0 -39 13 -68.5t36 -50t54 -31t67 -10.5zM130 286h304q-3 32 -17 55.5t-34.5 39t-46 23t-52.5 7.5q-28 0 -55 -8t-49 -23.5t-35.5 -39t-14.5 -54.5z" />
    <glyph glyph-name="ecircumflex" unicode="&#xea;" horiz-adv-x="565" 
d="M122 546l120 117h82l120 -117h-78l-83 70l-83 -70h-78zM300 63q53 0 89.5 21.5t48.5 69.5h82q-10 -49 -32 -81t-52 -50.5t-65.5 -25.5t-72.5 -7q-68 0 -117 19t-81 53t-47 80t-15 101q0 60 17.5 106t49.5 76.5t77.5 46t101.5 15.5q66 0 112.5 -20.5t76 -56t42.5 -83.5
t13 -104h-398q0 -39 13 -68.5t36 -50t54 -31t67 -10.5zM130 286h304q-3 32 -17 55.5t-34.5 39t-46 23t-52.5 7.5q-28 0 -55 -8t-49 -23.5t-35.5 -39t-14.5 -54.5z" />
    <glyph glyph-name="edieresis" unicode="&#xeb;" horiz-adv-x="565" 
d="M366 562q-20 0 -33 13t-13 33q0 19 13 33t33 14t33 -14t13 -33q0 -20 -13 -33t-33 -13zM199 562q-20 0 -33 13t-13 33q0 19 13 33t33 14t33 -14t13 -33q0 -20 -13 -33t-33 -13zM300 63q53 0 89.5 21.5t48.5 69.5h82q-10 -49 -32 -81t-52 -50.5t-65.5 -25.5t-72.5 -7
q-68 0 -117 19t-81 53t-47 80t-15 101q0 60 17.5 106t49.5 76.5t77.5 46t101.5 15.5q66 0 112.5 -20.5t76 -56t42.5 -83.5t13 -104h-398q0 -39 13 -68.5t36 -50t54 -31t67 -10.5zM130 286h304q-3 32 -17 55.5t-34.5 39t-46 23t-52.5 7.5q-28 0 -55 -8t-49 -23.5t-35.5 -39
t-14.5 -54.5z" />
    <glyph glyph-name="igrave" unicode="&#xec;" horiz-adv-x="232" 
d="M-100 663h110l123 -117h-81zM73 0v477h86v-477h-86z" />
    <glyph glyph-name="iacute" unicode="&#xed;" horiz-adv-x="232" 
d="M70 546l122 117h110l-151 -117h-81zM73 0v477h86v-477h-86z" />
    <glyph glyph-name="icircumflex" unicode="&#xee;" horiz-adv-x="232" 
d="M-45 546l120 117h82l120 -117h-78l-83 70l-83 -70h-78zM73 0v477h86v-477h-86z" />
    <glyph glyph-name="idieresis" unicode="&#xef;" horiz-adv-x="232" 
d="M199 562q-20 0 -33 13t-13 33q0 19 13 33t33 14t33 -14t13 -33q0 -20 -13 -33t-33 -13zM32 562q-20 0 -33 13t-13 33q0 19 13 33t33 14t33 -14t13 -33q0 -20 -13 -33t-33 -13zM73 0v477h86v-477h-86z" />
    <glyph glyph-name="eth" unicode="&#xf0;" horiz-adv-x="605" 
d="M194 521l46 57q-64 -2 -119 -19l-14 74q45 14 95 18.5t97 -0.5l48 59l41 -34l-30 -36q53 -15 92 -45t65 -73t38.5 -96.5t12.5 -115.5q0 -65 -16 -122.5t-49.5 -101t-85 -68.5t-122.5 -25q-46 0 -87 13.5t-72.5 39t-50 63t-18.5 85.5q0 50 19 87.5t50.5 62.5t73 38
t86.5 13q57 0 105.5 -23t77.5 -73q5 51 -3.5 96.5t-30 82t-56 61.5t-83.5 34l-69 -86zM152 194q0 -31 12 -55t32 -40t46.5 -24.5t55.5 -8.5t57 8t49.5 24.5t35 40.5t13.5 55t-12.5 54.5t-33.5 40t-48 25t-56 8.5q-30 0 -57.5 -7.5t-48 -23t-33 -40t-12.5 -57.5z" />
    <glyph glyph-name="ntilde" unicode="&#xf1;" horiz-adv-x="586" 
d="M142 553q1 20 6 39.5t15.5 35.5t27 25.5t39.5 9.5q21 0 37.5 -9.5t30.5 -21t26.5 -21t25.5 -9.5q23 0 34 16.5t12 37.5h48q-1 -20 -6.5 -39t-16 -34t-26.5 -24.5t-39 -9.5q-21 0 -37.5 9.5t-30.5 20.5t-26.5 20.5t-25.5 9.5q-23 0 -34 -17.5t-12 -38.5h-48zM73 0v477h82
v-72q29 42 77 62t101 20q47 0 83 -15.5t60 -43.5t36.5 -67t12.5 -87v-274h-86v265q0 64 -31.5 104.5t-99.5 40.5q-73 0 -111 -46t-38 -118v-246h-86z" />
    <glyph glyph-name="ograve" unicode="&#xf2;" horiz-adv-x="571" 
d="M89 663h110l123 -117h-81zM38 239q0 54 19 99.5t52 79t78.5 52t98.5 18.5t98.5 -19t78.5 -52t51.5 -78.5t18.5 -99.5t-18.5 -99.5t-51.5 -78.5t-78.5 -52t-98.5 -19t-98.5 19t-78.5 52t-52 78.5t-19 99.5zM286 71q37 0 66.5 13t50.5 35.5t32 53t11 66.5t-11 66.5t-32 53
t-50.5 35.5t-66.5 13q-36 0 -65.5 -13t-50.5 -35.5t-32.5 -53t-11.5 -66.5q0 -35 11.5 -66t32.5 -53.5t50.5 -35.5t65.5 -13z" />
    <glyph glyph-name="oacute" unicode="&#xf3;" horiz-adv-x="571" 
d="M230 546l122 117h110l-151 -117h-81zM38 239q0 54 19 99.5t52 79t78.5 52t98.5 18.5t98.5 -19t78.5 -52t51.5 -78.5t18.5 -99.5t-18.5 -99.5t-51.5 -78.5t-78.5 -52t-98.5 -19t-98.5 19t-78.5 52t-52 78.5t-19 99.5zM286 71q37 0 66.5 13t50.5 35.5t32 53t11 66.5
t-11 66.5t-32 53t-50.5 35.5t-66.5 13q-36 0 -65.5 -13t-50.5 -35.5t-32.5 -53t-11.5 -66.5q0 -35 11.5 -66t32.5 -53.5t50.5 -35.5t65.5 -13z" />
    <glyph glyph-name="ocircumflex" unicode="&#xf4;" horiz-adv-x="571" 
d="M125 546l120 117h82l120 -117h-78l-83 70l-83 -70h-78zM38 239q0 54 19 99.5t52 79t78.5 52t98.5 18.5t98.5 -19t78.5 -52t51.5 -78.5t18.5 -99.5t-18.5 -99.5t-51.5 -78.5t-78.5 -52t-98.5 -19t-98.5 19t-78.5 52t-52 78.5t-19 99.5zM286 71q37 0 66.5 13t50.5 35.5
t32 53t11 66.5t-11 66.5t-32 53t-50.5 35.5t-66.5 13q-36 0 -65.5 -13t-50.5 -35.5t-32.5 -53t-11.5 -66.5q0 -35 11.5 -66t32.5 -53.5t50.5 -35.5t65.5 -13z" />
    <glyph glyph-name="otilde" unicode="&#xf5;" horiz-adv-x="571" 
d="M135 553q1 20 6 39.5t15.5 35.5t27 25.5t39.5 9.5q21 0 37.5 -9.5t30.5 -21t26.5 -21t25.5 -9.5q23 0 34 16.5t12 37.5h48q-1 -20 -6.5 -39t-16 -34t-26.5 -24.5t-39 -9.5q-21 0 -37.5 9.5t-30.5 20.5t-26.5 20.5t-25.5 9.5q-23 0 -34 -17.5t-12 -38.5h-48zM38 239
q0 54 19 99.5t52 79t78.5 52t98.5 18.5t98.5 -19t78.5 -52t51.5 -78.5t18.5 -99.5t-18.5 -99.5t-51.5 -78.5t-78.5 -52t-98.5 -19t-98.5 19t-78.5 52t-52 78.5t-19 99.5zM286 71q37 0 66.5 13t50.5 35.5t32 53t11 66.5t-11 66.5t-32 53t-50.5 35.5t-66.5 13q-36 0 -65.5 -13
t-50.5 -35.5t-32.5 -53t-11.5 -66.5q0 -35 11.5 -66t32.5 -53.5t50.5 -35.5t65.5 -13z" />
    <glyph glyph-name="odieresis" unicode="&#xf6;" horiz-adv-x="571" 
d="M369 562q-20 0 -33 13t-13 33q0 19 13 33t33 14t33 -14t13 -33q0 -20 -13 -33t-33 -13zM202 562q-20 0 -33 13t-13 33q0 19 13 33t33 14t33 -14t13 -33q0 -20 -13 -33t-33 -13zM38 239q0 54 19 99.5t52 79t78.5 52t98.5 18.5t98.5 -19t78.5 -52t51.5 -78.5t18.5 -99.5
t-18.5 -99.5t-51.5 -78.5t-78.5 -52t-98.5 -19t-98.5 19t-78.5 52t-52 78.5t-19 99.5zM286 71q37 0 66.5 13t50.5 35.5t32 53t11 66.5t-11 66.5t-32 53t-50.5 35.5t-66.5 13q-36 0 -65.5 -13t-50.5 -35.5t-32.5 -53t-11.5 -66.5q0 -35 11.5 -66t32.5 -53.5t50.5 -35.5
t65.5 -13z" />
    <glyph glyph-name="divide" unicode="&#xf7;" horiz-adv-x="519" 
d="M194 477q0 26 17.5 43.5t43.5 17.5t43 -17.5t17 -43.5t-17 -44t-43 -18t-43.5 18t-17.5 44zM53 279v71h404v-71h-404zM194 141q0 26 17.5 43.5t43.5 17.5t43 -17.5t17 -43.5t-17 -44.5t-43 -18.5t-43.5 18t-17.5 45z" />
    <glyph glyph-name="oslash" unicode="&#xf8;" horiz-adv-x="571" 
d="M130 -82l36 101q-59 31 -93.5 88t-34.5 132q0 54 19 99.5t52 79t78.5 52t98.5 18.5q13 0 25.5 -1.5t24.5 -3.5l24 66h78l-32 -90q58 -31 92.5 -88.5t34.5 -131.5q0 -54 -18.5 -99.5t-51.5 -78.5t-78.5 -52t-98.5 -19q-13 0 -25.5 1.5t-24.5 3.5l-28 -77h-78zM308 406
q-5 1 -10.5 1h-11.5q-36 0 -65.5 -13t-50.5 -35.5t-32.5 -53t-11.5 -66.5q0 -45 18.5 -82t50.5 -59zM264 72q5 -1 11 -1h11q37 0 66.5 13t50.5 35.5t32 53t11 66.5q0 46 -18 82.5t-51 59.5z" />
    <glyph glyph-name="ugrave" unicode="&#xf9;" horiz-adv-x="598" 
d="M103 663h110l123 -117h-81zM443 0l-10 102q-10 -34 -27.5 -56t-40 -34.5t-47.5 -17t-49 -4.5q-99 0 -151 56.5t-52 156.5v274h86v-265q0 -63 31 -104t99 -41q36 0 63.5 12.5t46 34t28 51.5t9.5 65v247h86v-362l10 -115h-82z" />
    <glyph glyph-name="uacute" unicode="&#xfa;" horiz-adv-x="598" 
d="M233 546l122 117h110l-151 -117h-81zM443 0l-10 102q-10 -34 -27.5 -56t-40 -34.5t-47.5 -17t-49 -4.5q-99 0 -151 56.5t-52 156.5v274h86v-265q0 -63 31 -104t99 -41q36 0 63.5 12.5t46 34t28 51.5t9.5 65v247h86v-362l10 -115h-82z" />
    <glyph glyph-name="ucircumflex" unicode="&#xfb;" horiz-adv-x="598" 
d="M138 546l120 117h82l120 -117h-78l-83 70l-83 -70h-78zM443 0l-10 102q-10 -34 -27.5 -56t-40 -34.5t-47.5 -17t-49 -4.5q-99 0 -151 56.5t-52 156.5v274h86v-265q0 -63 31 -104t99 -41q36 0 63.5 12.5t46 34t28 51.5t9.5 65v247h86v-362l10 -115h-82z" />
    <glyph glyph-name="udieresis" unicode="&#xfc;" horiz-adv-x="598" 
d="M382 562q-20 0 -33 13t-13 33q0 19 13 33t33 14t33 -14t13 -33q0 -20 -13 -33t-33 -13zM215 562q-20 0 -33 13t-13 33q0 19 13 33t33 14t33 -14t13 -33q0 -20 -13 -33t-33 -13zM443 0l-10 102q-10 -34 -27.5 -56t-40 -34.5t-47.5 -17t-49 -4.5q-99 0 -151 56.5t-52 156.5
v274h86v-265q0 -63 31 -104t99 -41q36 0 63.5 12.5t46 34t28 51.5t9.5 65v247h86v-362l10 -115h-82z" />
    <glyph glyph-name="yacute" unicode="&#xfd;" horiz-adv-x="510" 
d="M199 546l122 117h110l-151 -117h-81zM81 -79q20 -9 39 -9q26 0 47 14.5t32 41.5l14 32l-211 476h90l167 -381l166 381h83l-233 -528q-23 -53 -63 -80t-89 -27q-37 0 -77 17l-26 11l28 66z" />
    <glyph glyph-name="thorn" unicode="&#xfe;" horiz-adv-x="608" 
d="M72 -160v790h86v-225q30 40 75 61.5t99 21.5q51 0 94 -19t74 -52.5t48.5 -79t17.5 -98.5t-17.5 -99t-48.5 -79.5t-74 -52.5t-94 -19q-56 0 -101.5 22.5t-75.5 64.5v-236h-83zM318 65q36 0 66 14t51 38t32.5 55.5t11.5 66.5q0 36 -11.5 67.5t-32.5 55t-51 37t-66 13.5
q-37 0 -67 -13.5t-51 -37t-32 -55t-11 -67.5q0 -35 11.5 -66.5t32.5 -55.5t50.5 -38t66.5 -14z" />
    <glyph glyph-name="ydieresis" unicode="&#xff;" horiz-adv-x="510" 
d="M338 562q-20 0 -33 13t-13 33q0 19 13 33t33 14t33 -14t13 -33q0 -20 -13 -33t-33 -13zM171 562q-20 0 -33 13t-13 33q0 19 13 33t33 14t33 -14t13 -33q0 -20 -13 -33t-33 -13zM81 -79q20 -9 39 -9q26 0 47 14.5t32 41.5l14 32l-211 476h90l167 -381l166 381h83
l-233 -528q-23 -53 -63 -80t-89 -27q-37 0 -77 17l-26 11l28 66z" />
    <glyph glyph-name="Amacron" unicode="&#x100;" horiz-adv-x="570" 
d="M138 731v54h294v-54h-294zM404 190h-240l-61 -191h-93l205 631h138l207 -631h-96zM381 262l-97 304l-97 -304h194z" />
    <glyph glyph-name="amacron" unicode="&#x101;" horiz-adv-x="556" 
d="M131 578v54h294v-54h-294zM61 335q2 41 21.5 70t48.5 47t65 26.5t70 8.5q61 0 103 -12.5t68 -34t37.5 -50t11.5 -59.5v-217l10 -115h-87l-10 108q-10 -34 -28.5 -56.5t-42.5 -36t-51.5 -19t-54.5 -5.5q-35 0 -68.5 8.5t-59 26t-41 44t-15.5 63.5q0 33 13.5 56.5
t37.5 39.5t58 26.5t75 16.5l174 29v37q0 14 -6.5 27t-21.5 23t-38.5 16t-57.5 6q-63 0 -90 -21t-31 -63zM396 240l-174 -29q-19 -3 -36.5 -9t-31 -16t-21.5 -23.5t-8 -30.5q0 -34 29 -50.5t70 -16.5q29 0 59.5 8.5t55.5 26.5t41 46.5t16 67.5v26z" />
    <glyph glyph-name="Abreve" unicode="&#x102;" horiz-adv-x="570" 
d="M198 816q0 -18 7.5 -31.5t20 -22.5t28 -13.5t31.5 -4.5t31.5 4.5t27.5 13.5t20 22.5t8 31.5h59q-1 -30 -13.5 -53t-32.5 -38.5t-46 -23t-54 -7.5t-54 7.5t-46 23t-32.5 38.5t-13.5 53h59zM404 190h-240l-61 -191h-93l205 631h138l207 -631h-96zM381 262l-97 304l-97 -304
h194z" />
    <glyph glyph-name="abreve" unicode="&#x103;" horiz-adv-x="556" 
d="M132 663h59q0 -18 7.5 -31.5t20 -22.5t28 -13.5t31.5 -4.5t31.5 4.5t27.5 13.5t20 22.5t8 31.5h59q-1 -30 -13.5 -53t-32.5 -38.5t-46 -23t-54 -7.5t-54 7.5t-46 23t-32.5 38.5t-13.5 53zM61 335q2 41 21.5 70t48.5 47t65 26.5t70 8.5q61 0 103 -12.5t68 -34t37.5 -50
t11.5 -59.5v-217l10 -115h-87l-10 108q-10 -34 -28.5 -56.5t-42.5 -36t-51.5 -19t-54.5 -5.5q-35 0 -68.5 8.5t-59 26t-41 44t-15.5 63.5q0 33 13.5 56.5t37.5 39.5t58 26.5t75 16.5l174 29v37q0 14 -6.5 27t-21.5 23t-38.5 16t-57.5 6q-63 0 -90 -21t-31 -63zM396 240
l-174 -29q-19 -3 -36.5 -9t-31 -16t-21.5 -23.5t-8 -30.5q0 -34 29 -50.5t70 -16.5q29 0 59.5 8.5t55.5 26.5t41 46.5t16 67.5v26z" />
    <glyph glyph-name="Aogonek" unicode="&#x104;" horiz-adv-x="570" 
d="M524 -181q-18 -11 -38.5 -16t-42.5 -5t-41.5 5.5t-34.5 16.5t-23.5 28t-8.5 41q0 26 11 47t28 38t38.5 30t43.5 22l-53 165h-239l-61 -191h-93l205 631h138l206 -631h-55q-15 -7 -34 -16.5t-35 -22.5t-27 -29.5t-11 -36.5q0 -24 16.5 -35.5t38.5 -11.5q15 0 29.5 3.5
t26.5 11.5zM381 263l-97 304l-97 -304h194z" />
    <glyph glyph-name="aogonek" unicode="&#x105;" horiz-adv-x="556" 
d="M459 -137l17 -44q-19 -11 -39.5 -16t-42.5 -5t-41.5 5.5t-34.5 16.5t-23.5 28t-8.5 41q0 25 11 46.5t28 38t38.5 29.5t43.5 22l-8 82q-10 -34 -28.5 -56.5t-42.5 -36t-51.5 -19t-54.5 -5.5q-35 0 -68.5 8.5t-59 26t-41 44t-15.5 63.5q0 33 13.5 56.5t37.5 39.5t58 26.5
t75 16.5l174 29v37q0 14 -7 27t-22 23t-38.5 16t-57.5 6q-62 0 -89 -21t-31 -63l-90 10q2 41 21 70t48.5 47t65 26.5t70.5 8.5q61 0 103 -12.5t68 -34t37.5 -50t11.5 -59.5v-217l10 -115h-41q-15 -7 -34 -16.5t-35 -22.5t-27 -29t-11 -36q0 -24 16.5 -35.5t38.5 -11.5
q15 0 29.5 3.5t26.5 11.5zM396 240l-175 -29q-18 -3 -35.5 -9t-31 -16t-21.5 -23.5t-8 -30.5q0 -34 29 -50.5t69 -16.5q29 0 60 8.5t56 26.5t41 46.5t16 67.5v26z" />
    <glyph glyph-name="Cacute" unicode="&#x106;" horiz-adv-x="689" 
d="M299 699l122 117h110l-151 -117h-81zM368 -10q-80 0 -142.5 25t-105 68.5t-64.5 102.5t-22 128t22 128.5t65 103.5t105 69t143 25q60 0 112 -15t90.5 -45t61 -76.5t22.5 -109.5h-90q0 44 -14.5 75.5t-41 51.5t-62 29.5t-77.5 9.5q-65 0 -111.5 -19.5t-76.5 -53t-44 -78
t-14 -94.5t14 -94.5t44 -78t76.5 -53t111.5 -19.5q42 0 77.5 9.5t62 29.5t41 51.5t14.5 75.5h90q0 -63 -22.5 -109.5t-61 -76.5t-91 -45t-112.5 -15z" />
    <glyph glyph-name="cacute" unicode="&#x107;" horiz-adv-x="557" 
d="M233 546l122 117h110l-151 -117h-81zM280 -10q-115 0 -179 64.5t-64 185.5t64.5 184t188.5 63q51 0 93 -11t72 -34.5t47 -60t17 -87.5h-90q2 32 -10 54t-32.5 35.5t-47 19.5t-54.5 6q-159 0 -159 -173q0 -81 37 -124.5t119 -43.5q26 0 52 5t46.5 17t33 32t12.5 50h91
q0 -48 -20.5 -82.5t-53.5 -56.5t-75.5 -32.5t-87.5 -10.5z" />
    <glyph glyph-name="Ccircumflex" unicode="&#x108;" horiz-adv-x="689" 
d="M184 699l120 117h82l120 -117h-78l-83 70l-83 -70h-78zM368 -10q-80 0 -142.5 25t-105 68.5t-64.5 102.5t-22 128t22 128.5t65 103.5t105 69t143 25q60 0 112 -15t90.5 -45t61 -76.5t22.5 -109.5h-90q0 44 -14.5 75.5t-41 51.5t-62 29.5t-77.5 9.5q-65 0 -111.5 -19.5
t-76.5 -53t-44 -78t-14 -94.5t14 -94.5t44 -78t76.5 -53t111.5 -19.5q42 0 77.5 9.5t62 29.5t41 51.5t14.5 75.5h90q0 -63 -22.5 -109.5t-61 -76.5t-91 -45t-112.5 -15z" />
    <glyph glyph-name="ccircumflex" unicode="&#x109;" horiz-adv-x="557" 
d="M118 546l120 117h82l120 -117h-78l-83 70l-83 -70h-78zM280 -10q-115 0 -179 64.5t-64 185.5t64.5 184t188.5 63q51 0 93 -11t72 -34.5t47 -60t17 -87.5h-90q2 32 -10 54t-32.5 35.5t-47 19.5t-54.5 6q-159 0 -159 -173q0 -81 37 -124.5t119 -43.5q26 0 52 5t46.5 17
t33 32t12.5 50h91q0 -48 -20.5 -82.5t-53.5 -56.5t-75.5 -32.5t-87.5 -10.5z" />
    <glyph glyph-name="Cdotaccent" unicode="&#x10a;" horiz-adv-x="689" 
d="M292 768q0 23 15 38t38 15t38 -15t15 -38t-15 -38t-38 -15t-38 15t-15 38zM368 -10q-80 0 -142.5 25t-105 68.5t-64.5 102.5t-22 128t22 128.5t65 103.5t105 69t143 25q60 0 112 -15t90.5 -45t61 -76.5t22.5 -109.5h-90q0 44 -14.5 75.5t-41 51.5t-62 29.5t-77.5 9.5
q-65 0 -111.5 -19.5t-76.5 -53t-44 -78t-14 -94.5t14 -94.5t44 -78t76.5 -53t111.5 -19.5q42 0 77.5 9.5t62 29.5t41 51.5t14.5 75.5h90q0 -63 -22.5 -109.5t-61 -76.5t-91 -45t-112.5 -15z" />
    <glyph glyph-name="cdotaccent" unicode="&#x10b;" horiz-adv-x="557" 
d="M226 615q0 23 15 38t38 15t38 -15t15 -38t-15 -38t-38 -15t-38 15t-15 38zM280 -10q-115 0 -179 64.5t-64 185.5t64.5 184t188.5 63q51 0 93 -11t72 -34.5t47 -60t17 -87.5h-90q2 32 -10 54t-32.5 35.5t-47 19.5t-54.5 6q-159 0 -159 -173q0 -81 37 -124.5t119 -43.5
q26 0 52 5t46.5 17t33 32t12.5 50h91q0 -48 -20.5 -82.5t-53.5 -56.5t-75.5 -32.5t-87.5 -10.5z" />
    <glyph glyph-name="Ccaron" unicode="&#x10c;" horiz-adv-x="689" 
d="M184 816h78l83 -68l83 68h78l-120 -117h-82zM368 -10q-80 0 -142.5 25t-105 68.5t-64.5 102.5t-22 128t22 128.5t65 103.5t105 69t143 25q60 0 112 -15t90.5 -45t61 -76.5t22.5 -109.5h-90q0 44 -14.5 75.5t-41 51.5t-62 29.5t-77.5 9.5q-65 0 -111.5 -19.5t-76.5 -53
t-44 -78t-14 -94.5t14 -94.5t44 -78t76.5 -53t111.5 -19.5q42 0 77.5 9.5t62 29.5t41 51.5t14.5 75.5h90q0 -63 -22.5 -109.5t-61 -76.5t-91 -45t-112.5 -15z" />
    <glyph glyph-name="ccaron" unicode="&#x10d;" horiz-adv-x="557" 
d="M118 663h78l83 -68l83 68h78l-120 -117h-82zM280 -10q-115 0 -179 64.5t-64 185.5t64.5 184t188.5 63q51 0 93 -11t72 -34.5t47 -60t17 -87.5h-90q2 32 -10 54t-32.5 35.5t-47 19.5t-54.5 6q-159 0 -159 -173q0 -81 37 -124.5t119 -43.5q26 0 52 5t46.5 17t33 32t12.5 50
h91q0 -48 -20.5 -82.5t-53.5 -56.5t-75.5 -32.5t-87.5 -10.5z" />
    <glyph glyph-name="Dcaron" unicode="&#x10e;" horiz-adv-x="726" 
d="M202 816h78l83 -68l83 68h78l-120 -117h-82zM86 0v630h265q71 0 133 -21t108 -61.5t72.5 -99t26.5 -133.5t-26.5 -133.5t-72.5 -99t-108 -61.5t-133 -21h-265zM176 78h170q54 0 100.5 16t81 46t54 74t19.5 101t-19.5 101t-54 74t-81 46t-100.5 16h-170v-474z" />
    <glyph glyph-name="dcaron" unicode="&#x10f;" horiz-adv-x="812" 
d="M453 1v75q-31 -42 -76.5 -64.5t-101.5 -22.5q-51 0 -93.5 19t-73.5 52.5t-48.5 79.5t-17.5 99t17.5 98.5t48.5 78.5t74 52t94 19q54 0 99 -21t74 -61v299h86v-703h-82zM673 490l24 68q-8 1 -18 4.5t-19 10.5t-15 16.5t-6 22.5q0 26 17 43.5t45 17.5q29 0 46 -20.5
t13 -47.5q-9 -50 -20 -76t-20 -49zM129 239q0 -35 11.5 -66.5t32.5 -55.5t51 -38t66 -14t65.5 14t50.5 38t32.5 55.5t11.5 66.5q0 36 -11 67t-32 54.5t-50.5 37t-66.5 13.5q-36 0 -66 -13.5t-51 -37t-32.5 -54.5t-11.5 -67z" />
    <glyph glyph-name="Dcroat" unicode="&#x110;" horiz-adv-x="761" 
d="M12 366h91v264h265q71 0 133 -21t108 -61.5t72.5 -99t26.5 -133.5t-26.5 -133.5t-72.5 -99t-108 -61.5t-133 -21h-265v287h-91v79zM193 78h170q54 0 100.5 16t81 46t54 74t19.5 101t-19.5 101t-54 74t-81 46t-100.5 16h-170v-186h218v-79h-218v-209z" />
    <glyph glyph-name="dcroat" unicode="&#x111;" horiz-adv-x="608" 
d="M453 1v75q-31 -42 -76.5 -64.5t-101.5 -22.5q-51 0 -93.5 19t-73.5 52.5t-48.5 79.5t-17.5 99t17.5 98.5t48.5 78.5t74 52t94 19q54 0 99 -21t74 -61v153h-292v54h292v92h87v-703h-83zM129 239q0 -35 11.5 -66.5t32.5 -55.5t51 -38t66 -14t65.5 14t50.5 38t32.5 55.5
t11.5 66.5q0 36 -11 67t-32 54.5t-50.5 37t-66.5 13.5q-36 0 -66 -13.5t-51 -37t-32.5 -54.5t-11.5 -67z" />
    <glyph glyph-name="Emacron" unicode="&#x112;" horiz-adv-x="576" 
d="M141 731v54h294v-54h-294zM86 0v630h445v-78h-355v-193h310v-77h-310v-204h347v-78h-437z" />
    <glyph glyph-name="emacron" unicode="&#x113;" horiz-adv-x="565" 
d="M136 578v54h294v-54h-294zM300 63q53 0 89.5 21.5t48.5 69.5h82q-10 -49 -32 -81t-52 -50.5t-65.5 -25.5t-72.5 -7q-68 0 -117 19t-81 53t-47 80t-15 101q0 60 17.5 106t49.5 76.5t77.5 46t101.5 15.5q66 0 112.5 -20.5t76 -56t42.5 -83.5t13 -104h-398q0 -39 13 -68.5
t36 -50t54 -31t67 -10.5zM130 286h304q-3 32 -17 55.5t-34.5 39t-46 23t-52.5 7.5q-28 0 -55 -8t-49 -23.5t-35.5 -39t-14.5 -54.5z" />
    <glyph glyph-name="Ebreve" unicode="&#x114;" horiz-adv-x="576" 
d="M142 816h59q0 -18 7.5 -31.5t20 -22.5t28 -13.5t31.5 -4.5t31.5 4.5t27.5 13.5t20 22.5t8 31.5h59q-1 -30 -13.5 -53t-32.5 -38.5t-46 -23t-54 -7.5t-54 7.5t-46 23t-32.5 38.5t-13.5 53zM86 0v630h445v-78h-355v-193h310v-77h-310v-204h347v-78h-437z" />
    <glyph glyph-name="ebreve" unicode="&#x115;" horiz-adv-x="565" 
d="M137 663h59q0 -18 7.5 -31.5t20 -22.5t28 -13.5t31.5 -4.5t31.5 4.5t27.5 13.5t20 22.5t8 31.5h59q-1 -30 -13.5 -53t-32.5 -38.5t-46 -23t-54 -7.5t-54 7.5t-46 23t-32.5 38.5t-13.5 53zM300 63q53 0 89.5 21.5t48.5 69.5h82q-10 -49 -32 -81t-52 -50.5t-65.5 -25.5
t-72.5 -7q-68 0 -117 19t-81 53t-47 80t-15 101q0 60 17.5 106t49.5 76.5t77.5 46t101.5 15.5q66 0 112.5 -20.5t76 -56t42.5 -83.5t13 -104h-398q0 -39 13 -68.5t36 -50t54 -31t67 -10.5zM130 286h304q-3 32 -17 55.5t-34.5 39t-46 23t-52.5 7.5q-28 0 -55 -8t-49 -23.5
t-35.5 -39t-14.5 -54.5z" />
    <glyph glyph-name="Edotaccent" unicode="&#x116;" horiz-adv-x="576" 
d="M235 768q0 23 15 38t38 15t38 -15t15 -38t-15 -38t-38 -15t-38 15t-15 38zM86 0v630h445v-78h-355v-193h310v-77h-310v-204h347v-78h-437z" />
    <glyph glyph-name="edotaccent" unicode="&#x117;" horiz-adv-x="565" 
d="M230 615q0 23 15 38t38 15t38 -15t15 -38t-15 -38t-38 -15t-38 15t-15 38zM300 63q53 0 89.5 21.5t48.5 69.5h82q-10 -49 -32 -81t-52 -50.5t-65.5 -25.5t-72.5 -7q-68 0 -117 19t-81 53t-47 80t-15 101q0 60 17.5 106t49.5 76.5t77.5 46t101.5 15.5q66 0 112.5 -20.5
t76 -56t42.5 -83.5t13 -104h-398q0 -39 13 -68.5t36 -50t54 -31t67 -10.5zM130 286h304q-3 32 -17 55.5t-34.5 39t-46 23t-52.5 7.5q-28 0 -55 -8t-49 -23.5t-35.5 -39t-14.5 -54.5z" />
    <glyph glyph-name="Eogonek" unicode="&#x118;" horiz-adv-x="576" 
d="M86 0v630h444v-78h-354v-193h309v-77h-309v-204h347v-78h-166q-15 -7 -34 -16.5t-35 -22.5t-27 -29.5t-11 -36.5q0 -24 16.5 -35.5t38.5 -11.5q15 0 29.5 3.5t26.5 11.5l16 -44q-18 -11 -38.5 -16t-42.5 -5t-41.5 5.5t-34.5 16.5t-23.5 28t-8.5 41q0 37 21 64t51 47h-174
z" />
    <glyph glyph-name="eogonek" unicode="&#x119;" horiz-adv-x="565" 
d="M300 63q53 0 89 21.5t48 69.5h83q-9 -42 -26.5 -71.5t-41 -48.5t-52.5 -29t-60 -13q-15 -7 -31 -16.5t-29 -21.5t-21.5 -27t-8.5 -32q0 -24 16.5 -35.5t38.5 -11.5q15 0 29.5 3.5t26.5 11.5l16 -44q-18 -11 -38.5 -16t-42.5 -5t-41.5 5.5t-34.5 16.5t-23.5 28t-8.5 41
q0 33 17.5 58.5t43.5 44.5q-55 7 -95 28.5t-65.5 54.5t-38 76t-12.5 92q0 60 17.5 106t49.5 76.5t77.5 46t101.5 15.5q66 0 112 -20.5t75.5 -56t42.5 -83.5t13 -104h-398q0 -39 13.5 -68.5t36.5 -50t54 -31t67 -10.5zM129 286h305q-3 32 -17 55.5t-34.5 39t-46.5 23t-53 7.5
q-28 0 -55 -8t-48.5 -23.5t-35 -39t-15.5 -54.5z" />
    <glyph glyph-name="Ecaron" unicode="&#x11a;" horiz-adv-x="576" 
d="M127 816h78l83 -68l83 68h78l-120 -117h-82zM86 0v630h445v-78h-355v-193h310v-77h-310v-204h347v-78h-437z" />
    <glyph glyph-name="ecaron" unicode="&#x11b;" horiz-adv-x="565" 
d="M122 663h78l83 -68l83 68h78l-120 -117h-82zM300 63q53 0 89.5 21.5t48.5 69.5h82q-10 -49 -32 -81t-52 -50.5t-65.5 -25.5t-72.5 -7q-68 0 -117 19t-81 53t-47 80t-15 101q0 60 17.5 106t49.5 76.5t77.5 46t101.5 15.5q66 0 112.5 -20.5t76 -56t42.5 -83.5t13 -104h-398
q0 -39 13 -68.5t36 -50t54 -31t67 -10.5zM130 286h304q-3 32 -17 55.5t-34.5 39t-46 23t-52.5 7.5q-28 0 -55 -8t-49 -23.5t-35.5 -39t-14.5 -54.5z" />
    <glyph glyph-name="Gcircumflex" unicode="&#x11c;" horiz-adv-x="701" 
d="M190 699l120 117h82l120 -117h-78l-83 70l-83 -70h-78zM587 130q-28 -68 -83.5 -104t-140.5 -36q-70 0 -130 24t-104 67.5t-69.5 105t-25.5 135.5q0 69 22 127.5t64.5 100.5t104.5 66t141 24q61 0 113.5 -15t91.5 -45t61.5 -76.5t22.5 -109.5h-90q0 44 -14.5 75.5
t-41 51.5t-62.5 29.5t-79 9.5q-63 0 -109 -18.5t-76 -50t-44.5 -74t-14.5 -90.5q0 -57 19.5 -104.5t54 -81.5t81.5 -52.5t101 -18.5q96 0 140.5 43.5t52.5 125.5h-225v73h307l21 -312h-78z" />
    <glyph glyph-name="gcircumflex" unicode="&#x11d;" horiz-adv-x="592" 
d="M135 546l120 117h82l120 -117h-78l-83 70l-83 -70h-78zM99 -33q9 -12 21.5 -27.5t32 -29t46 -23t62.5 -9.5q33 0 66 6t60 23.5t44 47.5t17 78v61q-32 -38 -77 -56t-96 -18t-95 16.5t-76.5 47t-51 73.5t-18.5 95t18.5 95.5t51 74.5t75.5 48t92 17q52 0 98.5 -20t78.5 -58
v67h87v-440q0 -68 -23.5 -114t-62 -73.5t-88 -39t-101.5 -11.5q-39 0 -74 9t-63.5 25t-49.5 37t-33 44zM286 96q31 0 60.5 9t52 26t36 41.5t13.5 54.5v51q0 31 -13.5 55.5t-36 42t-52 26.5t-61.5 9q-35 0 -65 -11t-52 -32t-34.5 -50t-12.5 -65t13 -65.5t35 -49.5t52.5 -31
t64.5 -11z" />
    <glyph glyph-name="Gbreve" unicode="&#x11e;" horiz-adv-x="701" 
d="M264 816q0 -18 7.5 -31.5t20 -22.5t28 -13.5t31.5 -4.5t31.5 4.5t27.5 13.5t20 22.5t8 31.5h59q-1 -30 -13.5 -53t-32.5 -38.5t-46 -23t-54 -7.5t-54 7.5t-46 23t-32.5 38.5t-13.5 53h59zM587 130q-28 -68 -83.5 -104t-140.5 -36q-70 0 -130 24t-104 67.5t-69.5 105
t-25.5 135.5q0 69 22 127.5t64.5 100.5t104.5 66t141 24q61 0 113.5 -15t91.5 -45t61.5 -76.5t22.5 -109.5h-90q0 44 -14.5 75.5t-41 51.5t-62.5 29.5t-79 9.5q-63 0 -109 -18.5t-76 -50t-44.5 -74t-14.5 -90.5q0 -57 19.5 -104.5t54 -81.5t81.5 -52.5t101 -18.5
q96 0 140.5 43.5t52.5 125.5h-225v73h307l21 -312h-78z" />
    <glyph glyph-name="gbreve" unicode="&#x11f;" horiz-adv-x="592" 
d="M209 663q0 -18 7.5 -31.5t20 -22.5t28 -13.5t31.5 -4.5t31.5 4.5t27.5 13.5t20 22.5t8 31.5h59q-1 -30 -13.5 -53t-32.5 -38.5t-46 -23t-54 -7.5t-54 7.5t-46 23t-32.5 38.5t-13.5 53h59zM99 -33q9 -12 21.5 -27.5t32 -29t46 -23t62.5 -9.5q33 0 66 6t60 23.5t44 47.5
t17 78v61q-32 -38 -77 -56t-96 -18t-95 16.5t-76.5 47t-51 73.5t-18.5 95t18.5 95.5t51 74.5t75.5 48t92 17q52 0 98.5 -20t78.5 -58v67h87v-440q0 -68 -23.5 -114t-62 -73.5t-88 -39t-101.5 -11.5q-39 0 -74 9t-63.5 25t-49.5 37t-33 44zM286 96q31 0 60.5 9t52 26t36 41.5
t13.5 54.5v51q0 31 -13.5 55.5t-36 42t-52 26.5t-61.5 9q-35 0 -65 -11t-52 -32t-34.5 -50t-12.5 -65t13 -65.5t35 -49.5t52.5 -31t64.5 -11z" />
    <glyph glyph-name="Gdotaccent" unicode="&#x120;" horiz-adv-x="701" 
d="M298 768q0 23 15 38t38 15t38 -15t15 -38t-15 -38t-38 -15t-38 15t-15 38zM587 130q-28 -68 -83.5 -104t-140.5 -36q-70 0 -130 24t-104 67.5t-69.5 105t-25.5 135.5q0 69 22 127.5t64.5 100.5t104.5 66t141 24q61 0 113.5 -15t91.5 -45t61.5 -76.5t22.5 -109.5h-90
q0 44 -14.5 75.5t-41 51.5t-62.5 29.5t-79 9.5q-63 0 -109 -18.5t-76 -50t-44.5 -74t-14.5 -90.5q0 -57 19.5 -104.5t54 -81.5t81.5 -52.5t101 -18.5q96 0 140.5 43.5t52.5 125.5h-225v73h307l21 -312h-78z" />
    <glyph glyph-name="gdotaccent" unicode="&#x121;" horiz-adv-x="592" 
d="M243 615q0 23 15 38t38 15t38 -15t15 -38t-15 -38t-38 -15t-38 15t-15 38zM99 -33q9 -12 21.5 -27.5t32 -29t46 -23t62.5 -9.5q33 0 66 6t60 23.5t44 47.5t17 78v61q-32 -38 -77 -56t-96 -18t-95 16.5t-76.5 47t-51 73.5t-18.5 95t18.5 95.5t51 74.5t75.5 48t92 17
q52 0 98.5 -20t78.5 -58v67h87v-440q0 -68 -23.5 -114t-62 -73.5t-88 -39t-101.5 -11.5q-39 0 -74 9t-63.5 25t-49.5 37t-33 44zM286 96q31 0 60.5 9t52 26t36 41.5t13.5 54.5v51q0 31 -13.5 55.5t-36 42t-52 26.5t-61.5 9q-35 0 -65 -11t-52 -32t-34.5 -50t-12.5 -65
t13 -65.5t35 -49.5t52.5 -31t64.5 -11z" />
    <glyph glyph-name="uni0122" unicode="&#x122;" horiz-adv-x="701" 
d="M587 130q-28 -68 -83.5 -104t-140.5 -36q-70 0 -130 24t-104 67.5t-69.5 105t-25.5 135.5q0 69 22 127.5t64.5 100.5t104.5 66t141 24q61 0 113.5 -15t91.5 -45t61.5 -76.5t22.5 -109.5h-90q0 44 -14.5 75.5t-41 51.5t-62.5 29.5t-79 9.5q-63 0 -109 -18.5t-76 -50
t-44.5 -74t-14.5 -90.5q0 -57 19.5 -104.5t54 -81.5t81.5 -52.5t101 -18.5q96 0 140.5 43.5t52.5 125.5h-225v73h307l21 -312h-78zM324 -233l24 68q-8 1 -18 4.5t-19 10.5t-15 16.5t-6 22.5q0 26 17 43.5t45 17.5q29 0 46 -20.5t13 -48.5q-4 -25 -9.5 -43t-10.5 -32
t-10 -25.5t-10 -23.5z" />
    <glyph glyph-name="uni0123" unicode="&#x123;" horiz-adv-x="603" 
d="M311 724l-24 -68q9 -1 19 -4.5t18.5 -10.5t14.5 -16.5t6 -22.5q0 -26 -17 -43.5t-45 -17.5q-29 0 -46 20.5t-13 48.5q5 25 10 43t10 32t10.5 25.5t9.5 23.5zM99 -33q9 -12 21.5 -27.5t32 -29t46 -23t62.5 -9.5q33 0 66 6t60 23.5t44 47.5t17 78v61q-32 -38 -77 -56
t-96 -18t-95 16.5t-76.5 47t-51 73.5t-18.5 95t18.5 95.5t51 74.5t75.5 48t92 17q52 0 98.5 -20t78.5 -58v67h87v-440q0 -68 -23.5 -114t-62 -73.5t-88 -39t-101.5 -11.5q-39 0 -74 9t-63.5 25t-49.5 37t-33 44zM286 96q31 0 60.5 9t52 26t36 41.5t13.5 54.5v51
q0 31 -13.5 55.5t-36 42t-52 26.5t-61.5 9q-35 0 -65 -11t-52 -32t-34.5 -50t-12.5 -65t13 -65.5t35 -49.5t52.5 -31t64.5 -11z" />
    <glyph glyph-name="Hcircumflex" unicode="&#x124;" horiz-adv-x="713" 
d="M196 699l120 117h82l120 -117h-78l-83 70l-83 -70h-78zM86 0v630h90v-271h361v271h90v-630h-90v281h-361v-281h-90z" />
    <glyph glyph-name="hcircumflex" unicode="&#x125;" horiz-adv-x="586" 
d="M73 0v703h86v-294q31 38 76.5 58t98.5 20q47 0 82.5 -15.5t59.5 -43.5t36.5 -67t12.5 -87v-274h-86v265q0 64 -31.5 104.5t-99.5 40.5q-73 0 -111 -46t-38 -118v-246h-86zM192 546l120 117h82l120 -117h-78l-83 70l-83 -70h-78z" />
    <glyph glyph-name="Hbar" unicode="&#x126;" horiz-adv-x="713" 
d="M210 731v54h294v-54h-294zM86 0v630h90v-271h361v271h90v-630h-90v281h-361v-281h-90z" />
    <glyph glyph-name="hbar" unicode="&#x127;" horiz-adv-x="586" 
d="M73 0v704h86v-72h281v-54h-281v-169q31 39 77 58.5t98 19.5q47 0 82.5 -15.5t60 -43.5t37 -67t12.5 -87v-274h-87v265q0 64 -31 104.5t-99 40.5q-73 0 -111.5 -46t-38.5 -118v-246h-86z" />
    <glyph glyph-name="Itilde" unicode="&#x128;" horiz-adv-x="261" 
d="M-21 706q1 20 6 39.5t15.5 35.5t27 25.5t39.5 9.5q21 0 37.5 -9.5t30.5 -21t26.5 -21t25.5 -9.5q23 0 34 16.5t12 37.5h48q-1 -20 -6.5 -39t-16 -34t-26.5 -24.5t-39 -9.5q-21 0 -37.5 9.5t-30.5 20.5t-26.5 20.5t-25.5 9.5q-23 0 -34 -17.5t-12 -38.5h-48zM86 0v630h90
v-630h-90z" />
    <glyph glyph-name="itilde" unicode="&#x129;" horiz-adv-x="232" 
d="M-35 553q1 20 6 39.5t15.5 35.5t27 25.5t39.5 9.5q21 0 37.5 -9.5t30.5 -21t26.5 -21t25.5 -9.5q23 0 34 16.5t12 37.5h48q-1 -20 -6.5 -39t-16 -34t-26.5 -24.5t-39 -9.5q-21 0 -37.5 9.5t-30.5 20.5t-26.5 20.5t-25.5 9.5q-23 0 -34 -17.5t-12 -38.5h-48zM73 0v477h86
v-477h-86z" />
    <glyph glyph-name="Imacron" unicode="&#x12a;" horiz-adv-x="261" 
d="M-17 731v54h294v-54h-294zM86 0v630h90v-630h-90z" />
    <glyph glyph-name="imacron" unicode="&#x12b;" horiz-adv-x="232" 
d="M-31 578v54h294v-54h-294zM73 0v477h86v-477h-86z" />
    <glyph glyph-name="Iogonek" unicode="&#x12e;" horiz-adv-x="261" 
d="M159 -137l17 -44q-19 -11 -39.5 -16t-41.5 -5q-22 0 -42 5.5t-35 16.5t-23.5 28t-8.5 40t8.5 42t22.5 35t32 28.5t37 21.5v614h90v-630h-20q-16 -7 -34.5 -16.5t-35 -22.5t-27.5 -29t-11 -36q0 -24 17 -35.5t39 -11.5q14 0 28.5 3.5t26.5 11.5z" />
    <glyph glyph-name="iogonek" unicode="&#x12f;" horiz-adv-x="232" 
d="M58 635q0 24 17 40t41 16q23 0 41 -14.5t18 -40.5q0 -25 -17 -41t-42 -16q-24 0 -41 15t-17 41zM144 -137l16 -44q-18 -11 -38.5 -16t-41.5 -5q-22 0 -42 5.5t-35 16.5t-23.5 28t-8.5 41q0 23 8.5 42t23 35t33 28.5t37.5 21.5v461h86v-478h-18q-16 -7 -34.5 -16.5
t-35 -22.5t-27.5 -29t-11 -36q0 -24 17 -35.5t39 -11.5q14 0 28.5 3.5t26.5 11.5z" />
    <glyph glyph-name="Idotaccent" unicode="&#x130;" horiz-adv-x="261" 
d="M77 768q0 23 15 38t38 15t38 -15t15 -38t-15 -38t-38 -15t-38 15t-15 38zM86 0v630h90v-630h-90z" />
    <glyph glyph-name="dotlessi" unicode="&#x131;" horiz-adv-x="232" 
d="M73 0v477h86v-477h-86z" />
    <glyph glyph-name="IJ" unicode="&#x132;" horiz-adv-x="827" 
d="M86 0v630h90v-630h-90zM413 276q-14 -25 -20.5 -47t-6.5 -42q0 -54 40.5 -85.5t103.5 -31.5q69 0 99 42.5t30 133.5v384h87v-388q0 -130 -57 -191t-169 -61q-45 0 -84.5 12.5t-69.5 36.5t-47 58.5t-17 77.5q0 45 21 97z" />
    <glyph glyph-name="ij" unicode="&#x133;" horiz-adv-x="460" 
d="M290 635q0 25 16.5 41t41.5 16q23 0 41 -15t18 -40q0 -26 -17 -42t-42 -16t-41.5 15.5t-16.5 40.5zM58 635q0 24 17 40t41 16q23 0 41 -14.5t18 -40.5q0 -25 -17 -41t-42 -16q-24 0 -41 15t-17 41zM73 0v477h86v-477h-86zM189 -117l10 83q23 -3 40 -3q24 0 38 5.5
t20.5 14.5t8 21.5t1.5 26.5v446h86v-442q1 -78 -30.5 -117t-114.5 -39q-14 0 -28.5 1t-30.5 3z" />
    <glyph glyph-name="Jcircumflex" unicode="&#x134;" horiz-adv-x="566" 
d="M122 699l120 117h82l120 -117h-78l-83 70l-83 -70h-78zM152 276q-14 -25 -20.5 -47t-6.5 -42q0 -54 40.5 -85.5t103.5 -31.5q69 0 99 42.5t30 133.5v384h87v-388q0 -130 -57 -191t-169 -61q-45 0 -84.5 12.5t-69.5 36.5t-47 58.5t-17 77.5q0 45 21 97z" />
    <glyph glyph-name="jcircumflex" unicode="&#x135;" horiz-adv-x="228" 
d="M-48 546l120 117h83l120 -117h-79l-82 69l-83 -69h-79zM-44 -117l10 83q24 -3 40 -3q25 0 39 5.5t20.5 14.5t8 21.5t1.5 26.5v446h86v-442q1 -78 -30.5 -117t-115.5 -39q-14 0 -28 1t-31 3z" />
    <glyph glyph-name="uni0136" unicode="&#x136;" horiz-adv-x="661" 
d="M86 0v630h90v-337l351 337h114l-291 -281l288 -349h-116l-238 287l-108 -104v-183h-90zM304 -233l24 68q-8 1 -18 4.5t-19 10.5t-15 16.5t-6 22.5q0 26 17 43.5t45 17.5q29 0 46 -20.5t13 -48.5q-4 -25 -9.5 -43t-10.5 -32t-10 -25.5t-10 -23.5z" />
    <glyph glyph-name="uni0137" unicode="&#x137;" horiz-adv-x="564" 
d="M73 704h86v-465l260 238h105l-201 -197l220 -280h-106l-179 222l-99 -91v-131h-86v704zM255 -233l24 68q-8 1 -18 4.5t-19 10.5t-15 16.5t-6 22.5q0 26 17 43.5t45 17.5q29 0 46 -20.5t13 -48.5q-4 -25 -9.5 -43t-10.5 -32t-10 -25.5t-10 -23.5z" />
    <glyph glyph-name="kgreenlandic" unicode="&#x138;" horiz-adv-x="564" 
d="M73 704h86v-465l260 238h105l-201 -197l220 -280h-106l-179 222l-99 -91v-131h-86v704z" />
    <glyph glyph-name="Lacute" unicode="&#x139;" horiz-adv-x="527" 
d="M86 699l122 117h110l-151 -117h-81zM86 0v630h90v-551h341v-79h-431z" />
    <glyph glyph-name="lacute" unicode="&#x13a;" horiz-adv-x="231" 
d="M73 750l122 117h110l-151 -117h-81zM73 0v704h86v-704h-86z" />
    <glyph glyph-name="uni013B" unicode="&#x13b;" horiz-adv-x="527" 
d="M86 0v630h90v-551h341v-79h-431zM237 -233l24 68q-8 1 -18 4.5t-19 10.5t-15 16.5t-6 22.5q0 26 17 43.5t45 17.5q29 0 46 -20.5t13 -48.5q-4 -25 -9.5 -43t-10.5 -32t-10 -25.5t-10 -23.5z" />
    <glyph glyph-name="uni013C" unicode="&#x13c;" horiz-adv-x="231" 
d="M73 0v704h86v-704h-86zM89 -233l24 68q-8 1 -18 4.5t-19 10.5t-15 16.5t-6 22.5q0 26 17 43.5t45 17.5q29 0 46 -20.5t13 -48.5q-4 -25 -9.5 -43t-10.5 -32t-10 -25.5t-10 -23.5z" />
    <glyph glyph-name="Lcaron" unicode="&#x13d;" horiz-adv-x="572" 
d="M332 490l24 68q-8 1 -18 4.5t-19 10.5t-15 16.5t-6 22.5q0 26 17 43.5t45 17.5q29 0 46 -20.5t13 -47.5q-9 -50 -20 -76t-20 -49zM86 0v630h90v-551h341v-79h-431z" />
    <glyph glyph-name="lcaron" unicode="&#x13e;" horiz-adv-x="435" 
d="M73 0v704h86v-704h-86zM296 490l24 68q-8 1 -18 4.5t-19 10.5t-15 16.5t-6 22.5q0 26 17 43.5t45 17.5q29 0 46 -20.5t13 -47.5q-9 -50 -20 -76t-20 -49z" />
    <glyph glyph-name="Ldot" unicode="&#x13f;" horiz-adv-x="593" 
d="M86 0v630h90v-551h341v-79h-431zM301 290q0 26 19 43.5t48 17.5t46.5 -17.5t17.5 -43.5t-17.5 -44t-46.5 -18q-30 0 -48.5 18t-18.5 44z" />
    <glyph glyph-name="ldot" unicode="&#x140;" horiz-adv-x="471" 
d="M73 0v704h86v-704h-86zM290 274q0 26 19 43.5t48 17.5t46.5 -17.5t17.5 -43.5t-17.5 -44t-46.5 -18q-30 0 -48.5 18t-18.5 44z" />
    <glyph glyph-name="Lslash" unicode="&#x141;" horiz-adv-x="599" 
d="M52 145l-57 57l110 110v318h90v-228l83 83l57 -57l-140 -140v-209h341v-79h-431v198z" />
    <glyph glyph-name="lslash" unicode="&#x142;" horiz-adv-x="314" 
d="M48 145l-57 57l107 107v395h86v-309l90 90l56 -57l-146 -146v-282h-86v195z" />
    <glyph glyph-name="Nacute" unicode="&#x143;" horiz-adv-x="713" 
d="M301 699l122 117h110l-151 -117h-81zM86 0v630h78l373 -472v472h90v-630h-78l-373 472v-472h-90z" />
    <glyph glyph-name="nacute" unicode="&#x144;" horiz-adv-x="586" 
d="M237 546l122 117h110l-151 -117h-81zM73 0v477h82v-72q29 42 77 62t101 20q47 0 83 -15.5t60 -43.5t36.5 -67t12.5 -87v-274h-86v265q0 64 -31.5 104.5t-99.5 40.5q-73 0 -111 -46t-38 -118v-246h-86z" />
    <glyph glyph-name="uni0145" unicode="&#x145;" horiz-adv-x="713" 
d="M86 0v630h78l373 -472v472h90v-630h-78l-373 472v-472h-90zM330 -233l24 68q-8 1 -18 4.5t-19 10.5t-15 16.5t-6 22.5q0 26 17 43.5t45 17.5q29 0 46 -20.5t13 -48.5q-4 -25 -9.5 -43t-10.5 -32t-10 -25.5t-10 -23.5z" />
    <glyph glyph-name="uni0146" unicode="&#x146;" horiz-adv-x="586" 
d="M73 0v477h82v-72q29 42 77 62t101 20q47 0 83 -15.5t60 -43.5t36.5 -67t12.5 -87v-274h-86v265q0 64 -31.5 104.5t-99.5 40.5q-73 0 -111 -46t-38 -118v-246h-86zM266 -233l24 68q-8 1 -18 4.5t-19 10.5t-15 16.5t-6 22.5q0 26 17 43.5t45 17.5q29 0 46 -20.5t13 -48.5
q-4 -25 -9.5 -43t-10.5 -32t-10 -25.5t-10 -23.5z" />
    <glyph glyph-name="Ncaron" unicode="&#x147;" horiz-adv-x="713" 
d="M196 816h78l83 -68l83 68h78l-120 -117h-82zM86 0v630h78l373 -472v472h90v-630h-78l-373 472v-472h-90z" />
    <glyph glyph-name="ncaron" unicode="&#x148;" horiz-adv-x="586" 
d="M132 663h78l83 -68l83 68h78l-120 -117h-82zM73 0v477h82v-72q29 42 77 62t101 20q47 0 83 -15.5t60 -43.5t36.5 -67t12.5 -87v-274h-86v265q0 64 -31.5 104.5t-99.5 40.5q-73 0 -111 -46t-38 -118v-246h-86z" />
    <glyph glyph-name="napostrophe" unicode="&#x149;" horiz-adv-x="587" 
d="M292 525l24 68q-8 1 -18 4.5t-19 10.5t-15 16.5t-6 22.5q0 26 17 43.5t45 17.5q29 0 46 -20.5t13 -47.5q-9 -50 -20 -76t-20 -49zM73 0v477h82v-72q29 42 77 62t101 20q47 0 83 -15.5t60 -43.5t36.5 -67t12.5 -87v-274h-86v265q0 64 -31.5 104.5t-99.5 40.5
q-73 0 -111 -46t-38 -118v-246h-86z" />
    <glyph glyph-name="eng" unicode="&#x14b;" horiz-adv-x="613" 
d="M380 -176v73q37 0 52.5 25.5t15.5 58.5v283q0 65 -30.5 102.5t-97.5 37.5q-75 0 -113.5 -43t-38.5 -115v-246h-86v477h83v-72q29 42 76 59t96 17q98 0 147.5 -55.5t49.5 -151.5v-291q0 -75 -39.5 -117t-114.5 -42z" />
    <glyph glyph-name="Omacron" unicode="&#x14c;" horiz-adv-x="738" 
d="M222 731v54h294v-54h-294zM34 315q0 72 26.5 131.5t72 102.5t106.5 67t131 24t131 -24t106 -67t71 -102.5t26 -131.5t-26 -131.5t-71 -102.5t-106 -67t-131 -24t-131 24t-106.5 67t-72 102.5t-26.5 131.5zM370 70q52 0 96.5 18.5t77.5 51.5t51.5 78t18.5 97t-18.5 97
t-51.5 78t-77.5 51.5t-96.5 18.5t-97 -18.5t-78 -51.5t-52 -77.5t-19 -97.5q0 -52 19 -97t52 -78t78 -51.5t97 -18.5z" />
    <glyph glyph-name="omacron" unicode="&#x14d;" horiz-adv-x="571" 
d="M139 578v54h294v-54h-294zM38 239q0 54 19 99.5t52 79t78.5 52t98.5 18.5t98.5 -19t78.5 -52t51.5 -78.5t18.5 -99.5t-18.5 -99.5t-51.5 -78.5t-78.5 -52t-98.5 -19t-98.5 19t-78.5 52t-52 78.5t-19 99.5zM286 71q37 0 66.5 13t50.5 35.5t32 53t11 66.5t-11 66.5t-32 53
t-50.5 35.5t-66.5 13q-36 0 -65.5 -13t-50.5 -35.5t-32.5 -53t-11.5 -66.5q0 -35 11.5 -66t32.5 -53.5t50.5 -35.5t65.5 -13z" />
    <glyph glyph-name="Obreve" unicode="&#x14e;" horiz-adv-x="738" 
d="M223 816h59q0 -18 7.5 -31.5t20 -22.5t28 -13.5t31.5 -4.5t31.5 4.5t27.5 13.5t20 22.5t8 31.5h59q-1 -30 -13.5 -53t-32.5 -38.5t-46 -23t-54 -7.5t-54 7.5t-46 23t-32.5 38.5t-13.5 53zM34 315q0 72 26.5 131.5t72 102.5t106.5 67t131 24t131 -24t106 -67t71 -102.5
t26 -131.5t-26 -131.5t-71 -102.5t-106 -67t-131 -24t-131 24t-106.5 67t-72 102.5t-26.5 131.5zM370 70q52 0 96.5 18.5t77.5 51.5t51.5 78t18.5 97t-18.5 97t-51.5 78t-77.5 51.5t-96.5 18.5t-97 -18.5t-78 -51.5t-52 -77.5t-19 -97.5q0 -52 19 -97t52 -78t78 -51.5
t97 -18.5z" />
    <glyph glyph-name="obreve" unicode="&#x14f;" horiz-adv-x="571" 
d="M140 663h59q0 -18 7.5 -31.5t20 -22.5t28 -13.5t31.5 -4.5t31.5 4.5t27.5 13.5t20 22.5t8 31.5h59q-1 -30 -13.5 -53t-32.5 -38.5t-46 -23t-54 -7.5t-54 7.5t-46 23t-32.5 38.5t-13.5 53zM38 239q0 54 19 99.5t52 79t78.5 52t98.5 18.5t98.5 -19t78.5 -52t51.5 -78.5
t18.5 -99.5t-18.5 -99.5t-51.5 -78.5t-78.5 -52t-98.5 -19t-98.5 19t-78.5 52t-52 78.5t-19 99.5zM286 71q37 0 66.5 13t50.5 35.5t32 53t11 66.5t-11 66.5t-32 53t-50.5 35.5t-66.5 13q-36 0 -65.5 -13t-50.5 -35.5t-32.5 -53t-11.5 -66.5q0 -35 11.5 -66t32.5 -53.5
t50.5 -35.5t65.5 -13z" />
    <glyph glyph-name="Ohungarumlaut" unicode="&#x150;" horiz-adv-x="738" 
d="M336 816h92l-100 -117h-73zM492 816h91l-98 -117h-73zM34 315q0 72 26.5 131.5t72 102.5t106.5 67t131 24t131 -24t106 -67t71 -102.5t26 -131.5t-26 -131.5t-71 -102.5t-106 -67t-131 -24t-131 24t-106.5 67t-72 102.5t-26.5 131.5zM370 70q52 0 96.5 18.5t77.5 51.5
t51.5 78t18.5 97t-18.5 97t-51.5 78t-77.5 51.5t-96.5 18.5t-97 -18.5t-78 -51.5t-52 -77.5t-19 -97.5q0 -52 19 -97t52 -78t78 -51.5t97 -18.5z" />
    <glyph glyph-name="ohungarumlaut" unicode="&#x151;" horiz-adv-x="571" 
d="M242 663h92l-100 -117h-73zM398 663h91l-98 -117h-73zM38 239q0 54 19 99.5t52 79t78.5 52t98.5 18.5t98.5 -19t78.5 -52t51.5 -78.5t18.5 -99.5t-18.5 -99.5t-51.5 -78.5t-78.5 -52t-98.5 -19t-98.5 19t-78.5 52t-52 78.5t-19 99.5zM286 71q37 0 66.5 13t50.5 35.5
t32 53t11 66.5t-11 66.5t-32 53t-50.5 35.5t-66.5 13q-36 0 -65.5 -13t-50.5 -35.5t-32.5 -53t-11.5 -66.5q0 -35 11.5 -66t32.5 -53.5t50.5 -35.5t65.5 -13z" />
    <glyph glyph-name="OE" unicode="&#x152;" horiz-adv-x="1105" 
d="M34 316q0 71 26 130.5t71.5 102.5t107 67t131.5 24q73 0 136 -25.5t108 -71.5v87h445v-78h-355v-193h310v-77h-310v-204h347v-78h-437v87q-45 -46 -108 -71.5t-136 -25.5q-70 0 -131.5 24t-107 67t-71.5 103t-26 132zM370 70q52 0 96.5 19t77.5 52t51.5 78t18.5 97
t-18.5 96.5t-51.5 77.5t-77.5 51.5t-96.5 18.5t-97 -18.5t-78 -51t-52 -77t-19 -97.5t19 -98t52 -78t78 -51.5t97 -18.5z" />
    <glyph glyph-name="oe" unicode="&#x153;" horiz-adv-x="973" 
d="M38 239q0 54 19 99.5t52 79t78.5 52t98.5 18.5q63 0 114.5 -25.5t84.5 -70.5q31 48 83.5 71.5t123.5 23.5q66 0 112 -20.5t75.5 -56t42.5 -83.5t13 -104h-398q0 -39 13.5 -68.5t36.5 -50t54 -31t67 -10.5q53 0 89 21.5t48 69.5h83q-10 -49 -32 -81t-52 -50.5t-66 -25.5
t-73 -7q-81 0 -134.5 26.5t-83.5 72.5q-33 -47 -85 -73.5t-116 -26.5q-53 0 -98.5 19t-78.5 52t-52 79t-19 100zM537 286h305q-3 32 -17 55.5t-34.5 39t-46.5 23t-53 7.5q-28 0 -55 -8t-48.5 -23.5t-35 -39t-15.5 -54.5zM286 70q37 0 66.5 13t50.5 35.5t32 53.5t11 67
t-11 66.5t-32 53t-50.5 35.5t-66.5 13q-36 0 -65.5 -13t-50.5 -35.5t-32.5 -53t-11.5 -66.5t11.5 -66.5t32.5 -53.5t50.5 -36t65.5 -13z" />
    <glyph glyph-name="Racute" unicode="&#x154;" horiz-adv-x="613" 
d="M241 699l122 117h110l-151 -117h-81zM548 185l35 -186h-90l-37 176q-6 29 -21.5 45t-36.5 24.5t-45.5 10.5t-49.5 2h-127v-257h-90v630h270q47 0 88.5 -8.5t72 -28t48 -52t17.5 -80.5q0 -71 -35 -111t-87 -58q32 -14 56 -39t32 -68zM176 331h170q28 0 54.5 4t46.5 16.5
t32.5 35t12.5 59.5q0 34 -10.5 55t-29 32t-43.5 15t-55 4h-178v-221z" />
    <glyph glyph-name="racute" unicode="&#x155;" horiz-adv-x="479" 
d="M124 546l122 117h110l-151 -117h-81zM73 0v477h82v-72q23 40 60.5 61.5t82.5 21.5q25 0 48.5 -8t41.5 -24t29 -40.5t11 -58.5q0 -28 -9 -63h-75q6 21 6 40q0 39 -21.5 62.5t-56.5 23.5q-28 0 -49 -13.5t-35 -37.5t-21.5 -55.5t-7.5 -67.5v-246h-86z" />
    <glyph glyph-name="uni0156" unicode="&#x156;" horiz-adv-x="613" 
d="M548 185l35 -186h-90l-37 176q-6 29 -21.5 45t-36.5 24.5t-45.5 10.5t-49.5 2h-127v-257h-90v630h270q47 0 88.5 -8.5t72 -28t48 -52t17.5 -80.5q0 -71 -35 -111t-87 -58q32 -14 56 -39t32 -68zM176 331h170q28 0 54.5 4t46.5 16.5t32.5 35t12.5 59.5q0 34 -10.5 55
t-29 32t-43.5 15t-55 4h-178v-221zM280 -233l24 68q-8 1 -18 4.5t-19 10.5t-15 16.5t-6 22.5q0 26 17 43.5t45 17.5q29 0 46 -20.5t13 -48.5q-4 -25 -9.5 -43t-10.5 -32t-10 -25.5t-10 -23.5z" />
    <glyph glyph-name="uni0157" unicode="&#x157;" horiz-adv-x="479" 
d="M73 0v477h82v-72q23 40 60.5 61.5t82.5 21.5q25 0 48.5 -8t41.5 -24t29 -40.5t11 -58.5q0 -28 -9 -63h-75q6 21 6 40q0 39 -21.5 62.5t-56.5 23.5q-28 0 -49 -13.5t-35 -37.5t-21.5 -55.5t-7.5 -67.5v-246h-86zM213 -233l24 68q-8 1 -18 4.5t-19 10.5t-15 16.5t-6 22.5
q0 26 17 43.5t45 17.5q29 0 46 -20.5t13 -48.5q-4 -25 -9.5 -43t-10.5 -32t-10 -25.5t-10 -23.5z" />
    <glyph glyph-name="Rcaron" unicode="&#x158;" horiz-adv-x="613" 
d="M146 816h78l83 -68l83 68h78l-120 -117h-82zM548 185l35 -186h-90l-37 176q-6 29 -21.5 45t-36.5 24.5t-45.5 10.5t-49.5 2h-127v-257h-90v630h270q47 0 88.5 -8.5t72 -28t48 -52t17.5 -80.5q0 -71 -35 -111t-87 -58q32 -14 56 -39t32 -68zM176 331h170q28 0 54.5 4
t46.5 16.5t32.5 35t12.5 59.5q0 34 -10.5 55t-29 32t-43.5 15t-55 4h-178v-221z" />
    <glyph glyph-name="rcaron" unicode="&#x159;" horiz-adv-x="479" 
d="M78 663h78l83 -68l83 68h78l-120 -117h-82zM73 0v477h82v-72q23 40 60.5 61.5t82.5 21.5q25 0 48.5 -8t41.5 -24t29 -40.5t11 -58.5q0 -28 -9 -63h-75q6 21 6 40q0 39 -21.5 62.5t-56.5 23.5q-28 0 -49 -13.5t-35 -37.5t-21.5 -55.5t-7.5 -67.5v-246h-86z" />
    <glyph glyph-name="Sacute" unicode="&#x15a;" horiz-adv-x="584" 
d="M236 699l122 117h110l-151 -117h-81zM452 451q0 30 -13.5 50t-36 33t-51.5 18.5t-59 5.5q-22 0 -48.5 -3.5t-49.5 -13t-39 -27t-16 -44.5q0 -25 13 -42.5t35.5 -29t52 -19.5t62.5 -15q44 -9 90 -21t83 -33t60.5 -54.5t23.5 -87.5q0 -50 -20 -84t-53.5 -55t-77.5 -30
t-91 -9q-52 0 -101 10t-87 33.5t-62 62t-26 96.5h88q3 -36 21.5 -59.5t45.5 -37.5t58.5 -19.5t61.5 -5.5q26 0 52.5 3t47.5 14t34.5 31.5t13.5 55.5q0 29 -14.5 47t-38.5 30t-56 20t-67 15q-43 9 -86 20t-77.5 30.5t-56.5 51.5t-22 83q0 50 22 83t57 52t78 26.5t85 7.5
q51 0 96.5 -10t80.5 -32.5t55.5 -58.5t20.5 -88h-89z" />
    <glyph glyph-name="sacute" unicode="&#x15b;" horiz-adv-x="513" 
d="M191 546l122 117h110l-151 -117h-81zM388 342q0 17 -12 30t-31.5 22t-44.5 13.5t-52 4.5q-24 0 -46.5 -3.5t-40 -10.5t-28 -17.5t-10.5 -24.5q0 -12 7.5 -22t25 -19t46.5 -17.5t73 -17.5q45 -9 82.5 -21.5t64.5 -30t42.5 -41t15.5 -54.5q0 -33 -15.5 -59.5t-43.5 -45
t-67.5 -28.5t-87.5 -10q-116 0 -171.5 40.5t-60.5 129.5h80q2 -22 10 -40.5t25 -32t44.5 -21.5t66.5 -8q57 0 95.5 16.5t38.5 51.5q0 21 -12.5 35t-34 23.5t-49 16.5t-57.5 13q-36 8 -72 17t-65 24t-47 39t-18 61q0 63 56.5 97.5t155.5 34.5q106 0 163 -38t57 -107h-83z" />
    <glyph glyph-name="Scircumflex" unicode="&#x15c;" horiz-adv-x="584" 
d="M131 699l120 117h82l120 -117h-78l-83 70l-83 -70h-78zM452 451q0 30 -13.5 50t-36 33t-51.5 18.5t-59 5.5q-22 0 -48.5 -3.5t-49.5 -13t-39 -27t-16 -44.5q0 -25 13 -42.5t35.5 -29t52 -19.5t62.5 -15q44 -9 90 -21t83 -33t60.5 -54.5t23.5 -87.5q0 -50 -20 -84
t-53.5 -55t-77.5 -30t-91 -9q-52 0 -101 10t-87 33.5t-62 62t-26 96.5h88q3 -36 21.5 -59.5t45.5 -37.5t58.5 -19.5t61.5 -5.5q26 0 52.5 3t47.5 14t34.5 31.5t13.5 55.5q0 29 -14.5 47t-38.5 30t-56 20t-67 15q-43 9 -86 20t-77.5 30.5t-56.5 51.5t-22 83q0 50 22 83t57 52
t78 26.5t85 7.5q51 0 96.5 -10t80.5 -32.5t55.5 -58.5t20.5 -88h-89z" />
    <glyph glyph-name="scircumflex" unicode="&#x15d;" horiz-adv-x="513" 
d="M95 546l120 117h82l120 -117h-78l-83 70l-83 -70h-78zM388 342q0 17 -12 30t-31.5 22t-44.5 13.5t-52 4.5q-24 0 -46.5 -3.5t-40 -10.5t-28 -17.5t-10.5 -24.5q0 -12 7.5 -22t25 -19t46.5 -17.5t73 -17.5q45 -9 82.5 -21.5t64.5 -30t42.5 -41t15.5 -54.5
q0 -33 -15.5 -59.5t-43.5 -45t-67.5 -28.5t-87.5 -10q-116 0 -171.5 40.5t-60.5 129.5h80q2 -22 10 -40.5t25 -32t44.5 -21.5t66.5 -8q57 0 95.5 16.5t38.5 51.5q0 21 -12.5 35t-34 23.5t-49 16.5t-57.5 13q-36 8 -72 17t-65 24t-47 39t-18 61q0 63 56.5 97.5t155.5 34.5
q106 0 163 -38t57 -107h-83z" />
    <glyph glyph-name="Scedilla" unicode="&#x15e;" horiz-adv-x="584" 
d="M452 451q0 30 -14 50t-36.5 33t-51.5 18.5t-59 5.5q-21 0 -47.5 -3.5t-50 -13t-39 -27t-15.5 -44.5q0 -25 13 -42.5t35.5 -29t52 -19.5t62.5 -15q44 -9 89.5 -21t82.5 -33t60.5 -54.5t23.5 -87.5q0 -50 -20 -84t-53 -55t-76 -30t-90 -9l-9 -35q32 -4 55 -22t23 -53
q0 -23 -10 -38.5t-26 -25.5t-36 -14t-39 -4q-21 0 -41.5 4.5t-39.5 15.5l19 44q14 -8 29.5 -11.5t32.5 -3.5q18 0 34 6.5t16 29.5q0 15 -8 22.5t-20 10t-25 2.5h-23l19 74q-45 4 -86 16.5t-72 36t-50 60t-21 87.5h88q3 -36 21.5 -59.5t45.5 -37.5t58.5 -19.5t61.5 -5.5
q26 0 52.5 3t47.5 14t34.5 31.5t13.5 55.5q0 29 -14.5 47t-38.5 30t-56 20t-67 15q-43 9 -86 20t-77.5 30.5t-56.5 51.5t-22 83q0 50 22 83t57 52t78 26.5t85 7.5q51 0 96.5 -10t80 -32.5t55 -58.5t20.5 -88h-88z" />
    <glyph glyph-name="scedilla" unicode="&#x15f;" horiz-adv-x="513" 
d="M388 342q0 17 -12 30t-31.5 22t-45 13.5t-52.5 4.5q-23 0 -45.5 -3.5t-40 -10.5t-28 -17.5t-10.5 -24.5q0 -12 7.5 -22t24.5 -19t46.5 -17.5t72.5 -17.5q45 -9 83 -21.5t65 -30t42.5 -40.5t15.5 -54q0 -64 -53 -102t-144 -42l-9 -35q32 -4 55 -22t23 -53q0 -23 -10 -38.5
t-26 -25.5t-36 -14t-39 -4q-21 0 -41.5 4.5t-38.5 15.5l19 44q14 -8 29 -11.5t32 -3.5q18 0 34 6.5t16 29.5q0 15 -8 22t-19.5 10t-24.5 3h-23l18 73q-100 5 -147.5 46t-52.5 123h79q2 -22 10.5 -40.5t25.5 -32t44.5 -21.5t66.5 -8q28 0 52.5 4t42.5 12.5t28.5 21.5t10.5 30
q0 21 -12.5 35t-34 23.5t-49 16.5t-57.5 13q-36 8 -72 17t-65 24t-47 39t-18 61q0 63 56.5 97.5t155.5 34.5q106 0 163 -38t57 -107h-83z" />
    <glyph glyph-name="Scaron" unicode="&#x160;" horiz-adv-x="584" 
d="M131 816h78l83 -68l83 68h78l-120 -117h-82zM452 451q0 30 -13.5 50t-36 33t-51.5 18.5t-59 5.5q-22 0 -48.5 -3.5t-49.5 -13t-39 -27t-16 -44.5q0 -25 13 -42.5t35.5 -29t52 -19.5t62.5 -15q44 -9 90 -21t83 -33t60.5 -54.5t23.5 -87.5q0 -50 -20 -84t-53.5 -55
t-77.5 -30t-91 -9q-52 0 -101 10t-87 33.5t-62 62t-26 96.5h88q3 -36 21.5 -59.5t45.5 -37.5t58.5 -19.5t61.5 -5.5q26 0 52.5 3t47.5 14t34.5 31.5t13.5 55.5q0 29 -14.5 47t-38.5 30t-56 20t-67 15q-43 9 -86 20t-77.5 30.5t-56.5 51.5t-22 83q0 50 22 83t57 52t78 26.5
t85 7.5q51 0 96.5 -10t80.5 -32.5t55.5 -58.5t20.5 -88h-89z" />
    <glyph glyph-name="scaron" unicode="&#x161;" horiz-adv-x="513" 
d="M95 663h78l83 -68l83 68h78l-120 -117h-82zM388 342q0 17 -12 30t-31.5 22t-44.5 13.5t-52 4.5q-24 0 -46.5 -3.5t-40 -10.5t-28 -17.5t-10.5 -24.5q0 -12 7.5 -22t25 -19t46.5 -17.5t73 -17.5q45 -9 82.5 -21.5t64.5 -30t42.5 -41t15.5 -54.5q0 -33 -15.5 -59.5
t-43.5 -45t-67.5 -28.5t-87.5 -10q-116 0 -171.5 40.5t-60.5 129.5h80q2 -22 10 -40.5t25 -32t44.5 -21.5t66.5 -8q57 0 95.5 16.5t38.5 51.5q0 21 -12.5 35t-34 23.5t-49 16.5t-57.5 13q-36 8 -72 17t-65 24t-47 39t-18 61q0 63 56.5 97.5t155.5 34.5q106 0 163 -38
t57 -107h-83z" />
    <glyph glyph-name="uni0162" unicode="&#x162;" horiz-adv-x="562" 
d="M237 0v551h-216v79h521v-79h-216v-551h-89zM254 -233l24 68q-8 1 -18 4.5t-19 10.5t-15 16.5t-6 22.5q0 26 17 43.5t45 17.5q29 0 46 -20.5t13 -48.5q-4 -25 -9.5 -43t-10.5 -32t-10 -25.5t-10 -23.5z" />
    <glyph glyph-name="uni0163" unicode="&#x163;" horiz-adv-x="391" 
d="M100 477v133h86v-133h182v-71h-182v-290q0 -46 43 -46q15 0 32.5 5.5t34 15t30.5 21.5t23 24l34 -57q-12 -20 -31 -36.5t-42 -28t-48.5 -18t-49.5 -6.5q-46 0 -79.5 27t-33.5 85v304h-91v71h92zM169 -233l24 68q-8 1 -18 4.5t-19 10.5t-15 16.5t-6 22.5q0 26 17 43.5
t45 17.5q29 0 46 -20.5t13 -48.5q-4 -25 -9.5 -43t-10.5 -32t-10 -25.5t-10 -23.5z" />
    <glyph glyph-name="Tcaron" unicode="&#x164;" horiz-adv-x="562" 
d="M120 816h78l83 -68l83 68h78l-120 -117h-82zM237 0v551h-216v79h521v-79h-216v-551h-89z" />
    <glyph glyph-name="tcaron" unicode="&#x165;" horiz-adv-x="595" 
d="M456 490l24 68q-8 1 -18 4.5t-19 10.5t-15 16.5t-6 22.5q0 26 17 43.5t45 17.5q29 0 46 -20.5t13 -47.5q-9 -50 -20 -76t-20 -49zM100 477v133h86v-133h182v-71h-182v-290q0 -46 43 -46q15 0 32.5 5.5t34 15t30.5 21.5t23 24l34 -57q-12 -20 -31 -36.5t-42 -28t-48.5 -18
t-49.5 -6.5q-46 0 -79.5 27t-33.5 85v304h-91v71h92z" />
    <glyph glyph-name="Tbar" unicode="&#x166;" horiz-adv-x="562" 
d="M134 731v54h294v-54h-294zM237 0v551h-216v79h521v-79h-216v-551h-89z" />
    <glyph glyph-name="tbar" unicode="&#x167;" horiz-adv-x="391" 
d="M8 259v54h91v93h-91v71h92v133h86v-133h182v-71h-182v-93h116v-54h-116v-142q0 -47 43 -47q15 0 32.5 5.5t34 15t30.5 21.5t23 24l34 -56q-12 -21 -31 -37.5t-42 -28t-48 -18t-49 -6.5q-23 0 -44 6.5t-36.5 20t-24.5 35t-9 50.5v157h-91z" />
    <glyph glyph-name="Utilde" unicode="&#x168;" horiz-adv-x="693" 
d="M196 706q1 20 6 39.5t15.5 35.5t27 25.5t39.5 9.5q21 0 37.5 -9.5t30.5 -21t26.5 -21t25.5 -9.5q23 0 34 16.5t12 37.5h48q-1 -20 -6.5 -39t-16 -34t-26.5 -24.5t-39 -9.5q-21 0 -37.5 9.5t-30.5 20.5t-26.5 20.5t-25.5 9.5q-23 0 -34 -17.5t-12 -38.5h-48zM170 630v-354
q0 -45 9.5 -83t30.5 -65.5t55 -42.5t83 -15q48 0 82 15.5t55.5 42.5t31 65t9.5 83v354h87v-358q0 -65 -17 -117t-50 -89t-83 -56.5t-116 -19.5t-116 20t-83.5 56.5t-50.5 89t-17 116.5v358h90z" />
    <glyph glyph-name="utilde" unicode="&#x169;" horiz-adv-x="598" 
d="M148 553q1 20 6 39.5t15.5 35.5t27 25.5t39.5 9.5q21 0 37.5 -9.5t30.5 -21t26.5 -21t25.5 -9.5q23 0 34 16.5t12 37.5h48q-1 -20 -6.5 -39t-16 -34t-26.5 -24.5t-39 -9.5q-21 0 -37.5 9.5t-30.5 20.5t-26.5 20.5t-25.5 9.5q-23 0 -34 -17.5t-12 -38.5h-48zM443 0
l-10 102q-10 -34 -27.5 -56t-40 -34.5t-47.5 -17t-49 -4.5q-99 0 -151 56.5t-52 156.5v274h86v-265q0 -63 31 -104t99 -41q36 0 63.5 12.5t46 34t28 51.5t9.5 65v247h86v-362l10 -115h-82z" />
    <glyph glyph-name="Umacron" unicode="&#x16a;" horiz-adv-x="693" 
d="M200 731v54h294v-54h-294zM170 630v-354q0 -45 9.5 -83t30.5 -65.5t55 -42.5t83 -15q48 0 82 15.5t55.5 42.5t31 65t9.5 83v354h87v-358q0 -65 -17 -117t-50 -89t-83 -56.5t-116 -19.5t-116 20t-83.5 56.5t-50.5 89t-17 116.5v358h90z" />
    <glyph glyph-name="umacron" unicode="&#x16b;" horiz-adv-x="598" 
d="M152 578v54h294v-54h-294zM443 0l-10 102q-10 -34 -27.5 -56t-40 -34.5t-47.5 -17t-49 -4.5q-99 0 -151 56.5t-52 156.5v274h86v-265q0 -63 31 -104t99 -41q36 0 63.5 12.5t46 34t28 51.5t9.5 65v247h86v-362l10 -115h-82z" />
    <glyph glyph-name="Ubreve" unicode="&#x16c;" horiz-adv-x="693" 
d="M260 816q0 -18 7.5 -31.5t20 -22.5t28 -13.5t31.5 -4.5t31.5 4.5t27.5 13.5t20 22.5t8 31.5h59q-1 -30 -13.5 -53t-32.5 -38.5t-46 -23t-54 -7.5t-54 7.5t-46 23t-32.5 38.5t-13.5 53h59zM170 630v-354q0 -45 9.5 -83t30.5 -65.5t55 -42.5t83 -15q48 0 82 15.5t55.5 42.5
t31 65t9.5 83v354h87v-358q0 -65 -17 -117t-50 -89t-83 -56.5t-116 -19.5t-116 20t-83.5 56.5t-50.5 89t-17 116.5v358h90z" />
    <glyph glyph-name="ubreve" unicode="&#x16d;" horiz-adv-x="598" 
d="M153 663h59q0 -18 7.5 -31.5t20 -22.5t28 -13.5t31.5 -4.5t31.5 4.5t27.5 13.5t20 22.5t8 31.5h59q-1 -30 -13.5 -53t-32.5 -38.5t-46 -23t-54 -7.5t-54 7.5t-46 23t-32.5 38.5t-13.5 53zM443 0l-10 102q-10 -34 -27.5 -56t-40 -34.5t-47.5 -17t-49 -4.5q-99 0 -151 56.5
t-52 156.5v274h86v-265q0 -63 31 -104t99 -41q36 0 63.5 12.5t46 34t28 51.5t9.5 65v247h86v-362l10 -115h-82z" />
    <glyph glyph-name="Uring" unicode="&#x16e;" horiz-adv-x="693" 
d="M247 765q0 42 28.5 70.5t70.5 28.5t71 -28.5t29 -70.5q0 -21 -8 -39t-21.5 -30.5t-31.5 -20t-39 -7.5q-42 0 -70.5 27.5t-28.5 69.5zM346 716q22 0 35.5 13.5t13.5 35.5t-13.5 36t-35.5 14q-21 0 -34.5 -14t-13.5 -36q0 -21 13.5 -35t34.5 -14zM170 630v-354
q0 -45 9.5 -83t30.5 -65.5t55 -42.5t83 -15q48 0 82 15.5t55.5 42.5t31 65t9.5 83v354h87v-358q0 -65 -17 -117t-50 -89t-83 -56.5t-116 -19.5t-116 20t-83.5 56.5t-50.5 89t-17 116.5v358h90z" />
    <glyph glyph-name="uring" unicode="&#x16f;" horiz-adv-x="598" 
d="M199 612q0 42 28.5 70.5t70.5 28.5t71 -28.5t29 -70.5q0 -21 -8 -39t-21.5 -30.5t-31.5 -20t-39 -7.5q-42 0 -70.5 27.5t-28.5 69.5zM298 563q22 0 35.5 13.5t13.5 35.5t-13.5 36t-35.5 14q-21 0 -34.5 -14t-13.5 -36q0 -21 13.5 -35t34.5 -14zM443 0l-10 102
q-10 -34 -27.5 -56t-40 -34.5t-47.5 -17t-49 -4.5q-99 0 -151 56.5t-52 156.5v274h86v-265q0 -63 31 -104t99 -41q36 0 63.5 12.5t46 34t28 51.5t9.5 65v247h86v-362l10 -115h-82z" />
    <glyph glyph-name="Uhungarumlaut" unicode="&#x170;" horiz-adv-x="693" 
d="M303 816h92l-100 -117h-73zM459 816h91l-98 -117h-73zM170 630v-354q0 -45 9.5 -83t30.5 -65.5t55 -42.5t83 -15q48 0 82 15.5t55.5 42.5t31 65t9.5 83v354h87v-358q0 -65 -17 -117t-50 -89t-83 -56.5t-116 -19.5t-116 20t-83.5 56.5t-50.5 89t-17 116.5v358h90z" />
    <glyph glyph-name="uhungarumlaut" unicode="&#x171;" horiz-adv-x="598" 
d="M266 663h92l-100 -117h-73zM422 663h91l-98 -117h-73zM443 0l-10 102q-10 -34 -27.5 -56t-40 -34.5t-47.5 -17t-49 -4.5q-99 0 -151 56.5t-52 156.5v274h86v-265q0 -63 31 -104t99 -41q36 0 63.5 12.5t46 34t28 51.5t9.5 65v247h86v-362l10 -115h-82z" />
    <glyph glyph-name="Uogonek" unicode="&#x172;" horiz-adv-x="693" 
d="M170 629v-354q0 -45 9.5 -83t30.5 -65.5t55 -42.5t82 -15q49 0 83 15.5t55.5 42.5t31 65t9.5 83v354h87v-358q0 -113 -50.5 -186t-151.5 -91q-16 -7 -33 -16.5t-31 -22t-23.5 -27.5t-9.5 -33q0 -24 16.5 -35.5t38.5 -11.5q15 0 29.5 3.5t26.5 11.5l16 -44
q-18 -11 -38.5 -16t-42.5 -5t-41.5 5.5t-34.5 16.5t-23.5 28t-8.5 40q0 33 17 58.5t42 44.5q-115 11 -173 85t-58 195v358h90z" />
    <glyph glyph-name="uogonek" unicode="&#x173;" horiz-adv-x="598" 
d="M485 -137l17 -44q-19 -11 -39 -16t-42 -5t-41.5 5.5t-34.5 16.5t-23.5 28t-8.5 41q0 27 11.5 49t30 39t41.5 30t45 22l-7 73q-10 -34 -28 -56t-40 -34.5t-47 -17t-50 -4.5q-99 0 -151 56.5t-52 156.5v274h86v-265q0 -63 31.5 -104t99.5 -41q36 0 63.5 12.5t46 34
t27.5 51.5t9 65v247h86v-362l10 -115h-43q-15 -7 -34 -16.5t-35 -22.5t-27 -29.5t-11 -36.5q0 -24 16.5 -35.5t38.5 -11.5q15 0 29 3.5t26 11.5z" />
    <glyph glyph-name="Wcircumflex" unicode="&#x174;" horiz-adv-x="1044" 
d="M361 699l120 117h82l120 -117h-78l-83 70l-83 -70h-78zM225 0l-215 630h102l181 -546l180 546h104l182 -546l180 546h95l-216 -630h-127l-169 494l-170 -494h-127z" />
    <glyph glyph-name="wcircumflex" unicode="&#x175;" horiz-adv-x="853" 
d="M266 546l120 117h82l120 -117h-78l-83 70l-83 -70h-78zM194 0l-185 477h90l144 -390l157 390h59l154 -390l147 390h85l-185 -477h-96l-136 342l-138 -342h-96z" />
    <glyph glyph-name="Ycircumflex" unicode="&#x176;" horiz-adv-x="610" 
d="M144 699l120 117h82l120 -117h-78l-83 70l-83 -70h-78zM261 0v220l-250 410h99l199 -323l192 323h99l-250 -412v-218h-89z" />
    <glyph glyph-name="ycircumflex" unicode="&#x177;" horiz-adv-x="510" 
d="M94 546l120 117h82l120 -117h-78l-83 70l-83 -70h-78zM81 -79q20 -9 39 -9q26 0 47 14.5t32 41.5l14 32l-211 476h90l167 -381l166 381h83l-233 -528q-23 -53 -63 -80t-89 -27q-37 0 -77 17l-26 11l28 66z" />
    <glyph glyph-name="Ydieresis" unicode="&#x178;" horiz-adv-x="610" 
d="M388 715q-20 0 -33 13t-13 33q0 19 13 33t33 14t33 -14t13 -33q0 -20 -13 -33t-33 -13zM221 715q-20 0 -33 13t-13 33q0 19 13 33t33 14t33 -14t13 -33q0 -20 -13 -33t-33 -13zM261 0v220l-250 410h99l199 -323l192 323h99l-250 -412v-218h-89z" />
    <glyph glyph-name="Zacute" unicode="&#x179;" horiz-adv-x="574" 
d="M221 699l122 117h110l-151 -117h-81zM21 0v71l416 481h-410v78h527v-68l-415 -484h408v-78h-526z" />
    <glyph glyph-name="zacute" unicode="&#x17a;" horiz-adv-x="451" 
d="M140 546l122 117h110l-151 -117h-81zM18 0v60l301 346h-297v71h405v-61l-300 -345h300v-71h-409z" />
    <glyph glyph-name="Zdotaccent" unicode="&#x17b;" horiz-adv-x="574" 
d="M234 768q0 23 15 38t38 15t38 -15t15 -38t-15 -38t-38 -15t-38 15t-15 38zM21 0v71l416 481h-410v78h527v-68l-415 -484h408v-78h-526z" />
    <glyph glyph-name="zdotaccent" unicode="&#x17c;" horiz-adv-x="451" 
d="M172 615q0 23 15 38t38 15t38 -15t15 -38t-15 -38t-38 -15t-38 15t-15 38zM18 0v60l301 346h-297v71h405v-61l-300 -345h300v-71h-409z" />
    <glyph glyph-name="Zcaron" unicode="&#x17d;" horiz-adv-x="574" 
d="M126 816h78l83 -68l83 68h78l-120 -117h-82zM21 0v71l416 481h-410v78h527v-68l-415 -484h408v-78h-526z" />
    <glyph glyph-name="zcaron" unicode="&#x17e;" horiz-adv-x="451" 
d="M64 663h78l83 -68l83 68h78l-120 -117h-82zM18 0v60l301 346h-297v71h405v-61l-300 -345h300v-71h-409z" />
    <glyph glyph-name="florin" unicode="&#x192;" horiz-adv-x="404" 
d="M-83 -150l33 65q14 -11 30.5 -16.5t34.5 -5.5q40 0 59.5 23.5t24.5 60.5l52 417h-82l9 71h82q0 3 1 11l2 16l2 16t2 11q8 72 53.5 113t117.5 41q24 0 51 -6.5t47 -23.5l-34 -65q-25 22 -63 22q-32 0 -49.5 -11.5t-26.5 -30.5t-12.5 -43.5t-6.5 -49.5h139l-9 -71h-136
l-53 -420q-8 -70 -51 -112t-115 -42q-25 0 -53.5 6t-48.5 24z" />
    <glyph glyph-name="uni0218" unicode="&#x218;" horiz-adv-x="584" 
d="M452 451q0 30 -13.5 50t-36 33t-51.5 18.5t-59 5.5q-22 0 -48.5 -3.5t-49.5 -13t-39 -27t-16 -44.5q0 -25 13 -42.5t35.5 -29t52 -19.5t62.5 -15q44 -9 90 -21t83 -33t60.5 -54.5t23.5 -87.5q0 -50 -20 -84t-53.5 -55t-77.5 -30t-91 -9q-52 0 -101 10t-87 33.5t-62 62
t-26 96.5h88q3 -36 21.5 -59.5t45.5 -37.5t58.5 -19.5t61.5 -5.5q26 0 52.5 3t47.5 14t34.5 31.5t13.5 55.5q0 29 -14.5 47t-38.5 30t-56 20t-67 15q-43 9 -86 20t-77.5 30.5t-56.5 51.5t-22 83q0 50 22 83t57 52t78 26.5t85 7.5q51 0 96.5 -10t80.5 -32.5t55.5 -58.5
t20.5 -88h-89zM265 -233l24 68q-8 1 -18 4.5t-19 10.5t-15 16.5t-6 22.5q0 26 17 43.5t45 17.5q29 0 46 -20.5t13 -48.5q-4 -25 -9.5 -43t-10.5 -32t-10 -25.5t-10 -23.5z" />
    <glyph glyph-name="uni0219" unicode="&#x219;" horiz-adv-x="513" 
d="M388 342q0 17 -12 30t-31.5 22t-44.5 13.5t-52 4.5q-24 0 -46.5 -3.5t-40 -10.5t-28 -17.5t-10.5 -24.5q0 -12 7.5 -22t25 -19t46.5 -17.5t73 -17.5q45 -9 82.5 -21.5t64.5 -30t42.5 -41t15.5 -54.5q0 -33 -15.5 -59.5t-43.5 -45t-67.5 -28.5t-87.5 -10
q-116 0 -171.5 40.5t-60.5 129.5h80q2 -22 10 -40.5t25 -32t44.5 -21.5t66.5 -8q57 0 95.5 16.5t38.5 51.5q0 21 -12.5 35t-34 23.5t-49 16.5t-57.5 13q-36 8 -72 17t-65 24t-47 39t-18 61q0 63 56.5 97.5t155.5 34.5q106 0 163 -38t57 -107h-83zM230 -233l24 68
q-8 1 -18 4.5t-19 10.5t-15 16.5t-6 22.5q0 26 17 43.5t45 17.5q29 0 46 -20.5t13 -48.5q-4 -25 -9.5 -43t-10.5 -32t-10 -25.5t-10 -23.5z" />
    <glyph glyph-name="uni021A" unicode="&#x21a;" horiz-adv-x="562" 
d="M237 0v551h-216v79h521v-79h-216v-551h-89zM254 -233l24 68q-8 1 -18 4.5t-19 10.5t-15 16.5t-6 22.5q0 26 17 43.5t45 17.5q29 0 46 -20.5t13 -48.5q-4 -25 -9.5 -43t-10.5 -32t-10 -25.5t-10 -23.5z" />
    <glyph glyph-name="uni021B" unicode="&#x21b;" horiz-adv-x="391" 
d="M100 477v133h86v-133h182v-71h-182v-290q0 -46 43 -46q15 0 32.5 5.5t34 15t30.5 21.5t23 24l34 -57q-12 -20 -31 -36.5t-42 -28t-48.5 -18t-49.5 -6.5q-46 0 -79.5 27t-33.5 85v304h-91v71h92zM169 -233l24 68q-8 1 -18 4.5t-19 10.5t-15 16.5t-6 22.5q0 26 17 43.5
t45 17.5q29 0 46 -20.5t13 -48.5q-4 -25 -9.5 -43t-10.5 -32t-10 -25.5t-10 -23.5z" />
    <glyph glyph-name="uni0237" unicode="&#x237;" horiz-adv-x="256" 
d="M18 -180v73q37 0 52.5 25.5t15.5 58.5v500h86v-499q0 -75 -39.5 -116.5t-114.5 -41.5z" />
    <glyph glyph-name="circumflex" unicode="&#x2c6;" 
d="M109 546l120 117h82l120 -117h-78l-83 70l-83 -70h-78z" />
    <glyph glyph-name="caron" unicode="&#x2c7;" 
d="M109 663h78l83 -68l83 68h78l-120 -117h-82z" />
    <glyph glyph-name="breve" unicode="&#x2d8;" 
d="M124 663h59q0 -18 7.5 -31.5t20 -22.5t28 -13.5t31.5 -4.5t31.5 4.5t27.5 13.5t20 22.5t8 31.5h59q-1 -30 -13.5 -53t-32.5 -38.5t-46 -23t-54 -7.5t-54 7.5t-46 23t-32.5 38.5t-13.5 53z" />
    <glyph glyph-name="dotaccent" unicode="&#x2d9;" 
d="M217 615q0 23 15 38t38 15t38 -15t15 -38t-15 -38t-38 -15t-38 15t-15 38z" />
    <glyph glyph-name="ring" unicode="&#x2da;" 
d="M170 612q0 42 28.5 70.5t70.5 28.5t71 -28.5t29 -70.5q0 -21 -8 -39t-21.5 -30.5t-31.5 -20t-39 -7.5q-42 0 -70.5 27.5t-28.5 69.5zM269 563q22 0 35.5 13.5t13.5 35.5t-13.5 36t-35.5 14q-21 0 -34.5 -14t-13.5 -36q0 -21 13.5 -35t34.5 -14z" />
    <glyph glyph-name="ogonek" unicode="&#x2db;" 
d="M275 -137l16 -43q-18 -12 -38.5 -17t-42.5 -5t-41.5 5.5t-34.5 16.5t-23.5 28t-8.5 41q0 27 11.5 49t30.5 39t42 29.5t45 21.5l40 -29q-15 -7 -34 -16.5t-35 -22.5t-27 -29t-11 -36q0 -24 16.5 -35.5t38.5 -11.5q32 0 56 15z" />
    <glyph glyph-name="tilde" unicode="&#x2dc;" 
d="M119 553q1 20 6 39.5t15.5 35.5t27 25.5t39.5 9.5q21 0 37.5 -9.5t30.5 -21t26.5 -21t25.5 -9.5q23 0 34 16.5t12 37.5h48q-1 -20 -6.5 -39t-16 -34t-26.5 -24.5t-39 -9.5q-21 0 -37.5 9.5t-30.5 20.5t-26.5 20.5t-25.5 9.5q-23 0 -34 -17.5t-12 -38.5h-48z" />
    <glyph glyph-name="hungarumlaut" unicode="&#x2dd;" 
d="M236 663h92l-100 -117h-73zM392 663h91l-98 -117h-73z" />
    <glyph glyph-name="uni0326" unicode="&#x326;" horiz-adv-x="242" 
d="M98 -233l24 68q-8 1 -18 4.5t-19 10.5t-15 16.5t-6 22.5q0 26 17 43.5t45 17.5q29 0 46 -20.5t13 -48.5q-4 -25 -9.5 -43t-10.5 -32t-10 -25.5t-10 -23.5z" />
    <glyph glyph-name="uni0394" unicode="&#x394;" horiz-adv-x="659" 
d="M-1 0l330 726l331 -726h-661zM126 78h404l-201 461z" />
    <glyph glyph-name="uni03A9" unicode="&#x3a9;" horiz-adv-x="808" 
d="M8 0v78h176q-57 45 -85.5 109t-28.5 136t26.5 130t71.5 99t106 63t130 22t130 -22t106.5 -63t71.5 -99t26 -130t-28.5 -136t-85.5 -109h176v-78h-311v73q73 36 116 99.5t43 145.5q0 54 -18.5 98t-51 75.5t-77 48.5t-97.5 17q-52 0 -97 -17t-77.5 -48.5t-51 -75.5
t-18.5 -98q0 -82 43 -146t116 -99v-73h-311z" />
    <glyph glyph-name="uni03BC" unicode="&#x3bc;" horiz-adv-x="614" 
d="M82 -174v651h86v-265q0 -63 31 -101.5t98 -38.5q74 0 111 44t37 114v247h86v-477h-82v74q-24 -41 -64 -60t-86 -19q-38 0 -72 12t-59 43v-224h-86z" />
    <glyph glyph-name="pi" unicode="&#x3c0;" horiz-adv-x="652" 
d="M156 0l47 406h-39q-40 0 -67.5 -17.5t-27.5 -61.5q0 -20 8 -38t18 -34l-65 -20q-19 20 -28 48.5t-9 56.5q0 34 13.5 59.5t36 43t51.5 26t60 8.5h489l-1 -71h-132v-406h-86v406h-134l-47 -406h-87z" />
    <glyph glyph-name="Wgrave" unicode="&#x1e80;" horiz-adv-x="1044" 
d="M316 816h110l123 -117h-81zM225 0l-215 630h102l181 -546l180 546h104l182 -546l180 546h95l-216 -630h-127l-169 494l-170 -494h-127z" />
    <glyph glyph-name="wgrave" unicode="&#x1e81;" horiz-adv-x="853" 
d="M220 663h110l123 -117h-81zM194 0l-185 477h90l144 -390l157 390h59l154 -390l147 390h85l-185 -477h-96l-136 342l-138 -342h-96z" />
    <glyph glyph-name="Wacute" unicode="&#x1e82;" horiz-adv-x="1044" 
d="M476 699l122 117h110l-151 -117h-81zM225 0l-215 630h102l181 -546l180 546h104l182 -546l180 546h95l-216 -630h-127l-169 494l-170 -494h-127z" />
    <glyph glyph-name="wacute" unicode="&#x1e83;" horiz-adv-x="853" 
d="M391 546l122 117h110l-151 -117h-81zM194 0l-185 477h90l144 -390l157 390h59l154 -390l147 390h85l-185 -477h-96l-136 342l-138 -342h-96z" />
    <glyph glyph-name="Wdieresis" unicode="&#x1e84;" horiz-adv-x="1044" 
d="M605 715q-20 0 -33 13t-13 33q0 19 13 33t33 14t33 -14t13 -33q0 -20 -13 -33t-33 -13zM438 715q-20 0 -33 13t-13 33q0 19 13 33t33 14t33 -14t13 -33q0 -20 -13 -33t-33 -13zM225 0l-215 630h102l181 -546l180 546h104l182 -546l180 546h95l-216 -630h-127l-169 494
l-170 -494h-127z" />
    <glyph glyph-name="wdieresis" unicode="&#x1e85;" horiz-adv-x="853" 
d="M510 562q-20 0 -33 13t-13 33q0 19 13 33t33 14t33 -14t13 -33q0 -20 -13 -33t-33 -13zM343 562q-20 0 -33 13t-13 33q0 19 13 33t33 14t33 -14t13 -33q0 -20 -13 -33t-33 -13zM194 0l-185 477h90l144 -390l157 390h59l154 -390l147 390h85l-185 -477h-96l-136 342
l-138 -342h-96z" />
    <glyph glyph-name="uni2010" unicode="&#x2010;" horiz-adv-x="345" 
d="M51 210v75h242v-75h-242z" />
    <glyph glyph-name="figuredash" unicode="&#x2012;" horiz-adv-x="630" 
d="M42 290v60h546v-60h-546z" />
    <glyph glyph-name="endash" unicode="&#x2013;" horiz-adv-x="450" 
d="M0 217v60h450v-60h-450z" />
    <glyph glyph-name="emdash" unicode="&#x2014;" horiz-adv-x="900" 
d="M0 217v60h900v-60h-900z" />
    <glyph glyph-name="uni2015" unicode="&#x2015;" horiz-adv-x="900" 
d="M0 217v60h900v-60h-900z" />
    <glyph glyph-name="quoteleft" unicode="&#x2018;" horiz-adv-x="204" 
d="M119 664l-24 -68q9 -1 19 -4.5t18.5 -10.5t14.5 -16.5t6 -22.5q0 -26 -17 -43.5t-45 -17.5q-29 0 -46 20.5t-13 48.5q5 25 10 43t10 32t10.5 25.5t9.5 23.5z" />
    <glyph glyph-name="quoteright" unicode="&#x2019;" horiz-adv-x="204" 
d="M65 490l24 68q-8 1 -18 4.5t-19 10.5t-15 16.5t-6 22.5q0 26 17 43.5t45 17.5q29 0 46 -20.5t13 -47.5q-9 -50 -20 -76t-20 -49z" />
    <glyph glyph-name="quotesinglbase" unicode="&#x201a;" horiz-adv-x="204" 
d="M77 -65l24 68q-8 1 -18 4.5t-19 10.5t-15 16.5t-6 22.5q0 26 17 43.5t45 17.5q29 0 46 -20.5t13 -47.5q-9 -50 -20 -76t-20 -49z" />
    <glyph glyph-name="quotedblleft" unicode="&#x201c;" horiz-adv-x="374" 
d="M119 664l-24 -68q9 -1 19 -4.5t18.5 -10.5t14.5 -16.5t6 -22.5q0 -26 -17 -43.5t-45 -17.5q-29 0 -46 20.5t-13 48.5q5 25 10 43t10 32t10.5 25.5t9.5 23.5zM289 664l-24 -68q9 -1 19 -4.5t18.5 -10.5t14.5 -16.5t6 -22.5q0 -26 -17 -43.5t-45 -17.5q-29 0 -46 20.5
t-13 48.5q5 25 10 43t10 32t10.5 25.5t9.5 23.5z" />
    <glyph glyph-name="quotedblright" unicode="&#x201d;" horiz-adv-x="374" 
d="M65 490l24 68q-8 1 -18 4.5t-19 10.5t-15 16.5t-6 22.5q0 26 17 43.5t45 17.5q29 0 46 -20.5t13 -47.5q-9 -50 -20 -76t-20 -49zM235 490l24 68q-8 1 -18 4.5t-19 10.5t-15 16.5t-6 22.5q0 26 17 43.5t45 17.5q29 0 46 -20.5t13 -47.5q-9 -50 -20 -76t-20 -49z" />
    <glyph glyph-name="quotedblbase" unicode="&#x201e;" horiz-adv-x="374" 
d="M77 -65l24 68q-8 1 -18 4.5t-19 10.5t-15 16.5t-6 22.5q0 26 17 43.5t45 17.5q29 0 46 -20.5t13 -47.5q-9 -50 -20 -76t-20 -49zM244 -65l24 68q-8 1 -18 4.5t-19 10.5t-15 16.5t-6 22.5q0 26 17 43.5t45 17.5q29 0 46 -20.5t13 -47.5q-9 -50 -20 -76t-20 -49z" />
    <glyph glyph-name="dagger" unicode="&#x2020;" horiz-adv-x="504" 
d="M217 0v402h-142v59h142v169h68v-169h143v-59h-143v-402h-68z" />
    <glyph glyph-name="daggerdbl" unicode="&#x2021;" horiz-adv-x="504" 
d="M217 0v169h-141v60h141v173h-141v59h141v169h68v-169h143v-59h-143v-173h143v-60h-143v-169h-68z" />
    <glyph glyph-name="bullet" unicode="&#x2022;" horiz-adv-x="283" 
d="M141 166q-36 0 -59 24t-23 59q0 34 24 58t58 24t57.5 -24t23.5 -58q0 -35 -23 -59t-58 -24z" />
    <glyph glyph-name="ellipsis" unicode="&#x2026;" horiz-adv-x="622" 
d="M41 57q0 26 18 43.5t44 17.5t42.5 -17.5t16.5 -43.5t-16.5 -44t-42.5 -18q-27 0 -44.5 18t-17.5 44zM250 57q0 26 18 43.5t44 17.5t42.5 -17.5t16.5 -43.5t-16.5 -44t-42.5 -18q-27 0 -44.5 18t-17.5 44zM459 57q0 26 18 43.5t44 17.5t42.5 -17.5t16.5 -43.5t-16.5 -44
t-42.5 -18q-27 0 -44.5 18t-17.5 44z" />
    <glyph glyph-name="perthousand" unicode="&#x2030;" horiz-adv-x="1122" 
d="M186 288q-43 0 -72.5 17t-47.5 43t-25.5 57t-7.5 59t7.5 59t25.5 56.5t47.5 42.5t72.5 17t72 -17t47 -42.5t25.5 -56.5t7.5 -59t-7.5 -59.5t-25.5 -57t-47 -42.5t-72 -17zM124 0l436 634h94l-435 -634h-95zM186 360q21 0 35 10t22 25.5t11 34t3 34.5t-3 34t-11 33.5
t-22 25.5t-35 10t-34.5 -10t-22 -25.5t-11.5 -33.5t-3 -34t3 -34.5t11.5 -34t22 -25.5t34.5 -10zM583 -5q-43 0 -72 17t-47 42.5t-25.5 57t-7.5 59.5t7.5 59t25.5 56.5t47 42.5t72 17t72 -17t47 -42.5t25.5 -56.5t7.5 -59t-7.5 -59t-25.5 -57t-47 -43t-72 -17zM943 -5
q-43 0 -72 17t-47 42.5t-25.5 57t-7.5 59.5t7.5 59t25.5 56.5t47 42.5t72 17t72.5 -17t47.5 -42.5t25.5 -56.5t7.5 -59t-7.5 -59t-25.5 -57t-47.5 -43t-72.5 -17zM583 67q21 0 34.5 10t21.5 25.5t11 34t3 34.5t-3 34t-11 33.5t-21.5 25.5t-34.5 10t-35 -10t-22 -25.5
t-11 -33.5t-3 -34t3 -34.5t11 -34t22 -25.5t35 -10zM943 67q21 0 34.5 10t22 25.5t11.5 34t3 34.5t-3 34t-11.5 33.5t-22 25.5t-34.5 10t-35 -10t-22 -25.5t-11 -33.5t-3 -34t3 -34.5t11 -34t22 -25.5t35 -10z" />
    <glyph glyph-name="minute" unicode="&#x2032;" horiz-adv-x="189" 
d="M62 387l-5 243h75l-6 -243h-64z" />
    <glyph glyph-name="second" unicode="&#x2033;" horiz-adv-x="352" 
d="M226 387l-5 243h74l-6 -243h-63zM62 387l-5 243h75l-6 -243h-64z" />
    <glyph glyph-name="guilsinglleft" unicode="&#x2039;" horiz-adv-x="281" 
d="M171 67l-130 172l130 172h79l-127 -172l127 -172h-79z" />
    <glyph glyph-name="guilsinglright" unicode="&#x203a;" horiz-adv-x="281" 
d="M31 67l127 172l-127 172h79l129 -172l-129 -172h-79z" />
    <glyph glyph-name="fraction" unicode="&#x2044;" horiz-adv-x="498" 
d="M383 630h69l-353 -630h-56z" />
    <glyph glyph-name="franc" unicode="&#x20a3;" horiz-adv-x="572" 
d="M32 109v75h63v446h445v-78h-355v-181h268v-77h-268v-110h89v-75h-89v-109h-90v109h-63z" />
    <glyph glyph-name="lira" unicode="&#x20a4;" horiz-adv-x="581" 
d="M118 354l-13 37q-12 35 -12 67q0 38 15 71t44.5 58t72 39t96.5 14q113 0 167.5 -56.5t47.5 -156.5l-74 -16q2 44 -9.5 73.5t-31 48t-44.5 26.5t-50 8q-66 0 -105.5 -28t-39.5 -83q0 -27 10 -57l15 -45h217v-59h-203l-14 -48h217v-59h-235l-33 -110h369v-78h-458v74
l35 114h-85v59h103l14 48h-117v59h101z" />
    <glyph glyph-name="Euro" unicode="&#x20ac;" horiz-adv-x="694" 
d="M631 42q-47 -28 -88 -38.5t-89 -10.5q-51 0 -97.5 15.5t-85 45t-67 71t-43.5 93.5h-141v71h129v26v22t2 22h-131v71h147q16 48 45 86.5t67 65.5t83 41t93 14q45 0 89.5 -10t86.5 -39l-33 -68q-34 20 -67 28.5t-68 8.5q-64 0 -117.5 -33.5t-82.5 -93.5h201v-71h-222
q-3 -21 -3 -44v-13t1 -13h224v-71h-208q26 -69 82 -107t124 -38t130 29z" />
    <glyph glyph-name="uni2113" unicode="&#x2113;" horiz-adv-x="421" 
d="M44 118l-16 40l74 54l43 252q5 29 16 59t29 55t43.5 40.5t58.5 15.5q49 0 72 -31t23 -77q0 -49 -21.5 -96t-54.5 -89.5t-72.5 -79.5t-75.5 -65q-3 -15 -5.5 -32t-2.5 -33q0 -29 13 -51t53 -22q42 0 75.5 25t59.5 55l28 -33q-32 -45 -76.5 -76.5t-102.5 -31.5
q-38 0 -60 13t-33.5 35t-14.5 50t-3 59zM174 266q27 22 56 51.5t53 63.5t39.5 71t15.5 74q0 23 -11 40.5t-37 17.5q-21 0 -35.5 -12t-24.5 -29t-16 -37t-8 -36z" />
    <glyph glyph-name="trademark" unicode="&#x2122;" horiz-adv-x="926" 
d="M395 257v373h53l167 -255l163 255h53l1 -373h-62l-1 262l-141 -218h-29l-142 213v-257h-62zM139 257v320h-136v53h337v-53h-136v-320h-65z" />
    <glyph glyph-name="uni2126" unicode="&#x2126;" horiz-adv-x="808" 
d="M8 0v78h176q-57 45 -85.5 109t-28.5 136t26.5 130t71.5 99t106 63t130 22t130 -22t106.5 -63t71.5 -99t26 -130t-28.5 -136t-85.5 -109h176v-78h-311v73q73 36 116 99.5t43 145.5q0 54 -18.5 98t-51 75.5t-77 48.5t-97.5 17q-52 0 -97 -17t-77.5 -48.5t-51 -75.5
t-18.5 -98q0 -82 43 -146t116 -99v-73h-311z" />
    <glyph glyph-name="uni212A" unicode="&#x212a;" horiz-adv-x="688" 
d="M95 0v630h90v-337l351 337h114l-291 -281l288 -349h-116l-238 287l-108 -104v-183h-90z" />
    <glyph glyph-name="uni212B" unicode="&#x212b;" horiz-adv-x="659" 
d="M229 765q0 42 28.5 70.5t70.5 28.5t71 -28.5t29 -70.5q0 -21 -8 -39t-21.5 -30.5t-31.5 -20t-39 -7.5q-42 0 -70.5 27.5t-28.5 69.5zM328 716q22 0 35.5 13.5t13.5 35.5t-13.5 36t-35.5 14q-21 0 -34.5 -14t-13.5 -36q0 -21 13.5 -35t34.5 -14zM449 190h-240l-61 -191
h-93l205 631h138l207 -631h-96zM426 262l-97 304l-97 -304h194z" />
    <glyph glyph-name="estimated" unicode="&#x212e;" horiz-adv-x="792" 
d="M396 -3q-95 0 -176 43t-129 116t-48 158q0 87 48 160t129 116t176 43q96 0 177 -43t128.5 -116t47.5 -160v-7h-572q-5 0 -5 -4v-172q0 -9 8 -21q36 -45 93.5 -69.5t123.5 -24.5q67 0 126 28t101 77h51q-49 -57 -122.5 -90.5t-156.5 -33.5zM616 324q5 0 5 5v174
q0 13 -10 21q-42 42 -97.5 66t-116.5 24t-117 -25t-99 -68q-9 -11 -9 -21v-171q0 -5 5 -5h439z" />
    <glyph glyph-name="partialdiff" unicode="&#x2202;" horiz-adv-x="630" 
d="M293 -7q-46 0 -87 13.5t-72.5 39t-50 63t-18.5 85.5q0 50 19 87.5t50.5 62.5t73 38t86.5 13q57 0 105.5 -23t77.5 -73q5 57 -6 108t-39 89t-73 60t-108 22q-33 0 -65.5 -4.5t-64.5 -14.5l-14 74q35 11 71.5 16t73.5 5q80 0 139 -25.5t98 -71t58 -108.5t19 -139
q0 -65 -16 -122.5t-49.5 -101t-85 -68.5t-122.5 -25zM298 66q29 0 57 8t49.5 24.5t35 40.5t13.5 55t-12.5 54.5t-33.5 40t-48 25t-56 8.5q-30 0 -57.5 -7.5t-48 -23t-33 -40t-12.5 -57.5q0 -31 12 -55t32 -40t46.5 -24.5t55.5 -8.5z" />
    <glyph glyph-name="uni2206" unicode="&#x2206;" horiz-adv-x="659" 
d="M-1 0l330 726l331 -726h-661zM126 78h404l-201 461z" />
    <glyph glyph-name="product" unicode="&#x220f;" horiz-adv-x="731" 
d="M95 -175v805h541v-805h-90v723h-361v-723h-90z" />
    <glyph glyph-name="summation" unicode="&#x2211;" horiz-adv-x="591" 
d="M39 -175v61l296 342l-285 341v61h509v-78h-387l247 -293v-62l-260 -294h406v-78h-526z" />
    <glyph glyph-name="minus" unicode="&#x2212;" horiz-adv-x="524" 
d="M60 279v71h404v-71h-404z" />
    <glyph glyph-name="uni2215" unicode="&#x2215;" horiz-adv-x="317" 
d="M-4 0l231 630h78l-230 -630h-79z" />
    <glyph glyph-name="uni2219" unicode="&#x2219;" horiz-adv-x="258" 
d="M129 254q-26 0 -43.5 17.5t-17.5 44.5t17.5 44t43.5 17t43 -17t17 -44t-17 -44.5t-43 -17.5z" />
    <glyph glyph-name="radical" unicode="&#x221a;" horiz-adv-x="723" 
d="M346 -175l-168 455h-118v71h182l148 -414l252 731h82l-289 -843h-89z" />
    <glyph glyph-name="infinity" unicode="&#x221e;" horiz-adv-x="831" 
d="M416 256q-38 -57 -82.5 -87.5t-115.5 -30.5q-39 0 -72 13.5t-57 37t-37.5 56t-13.5 71.5q0 38 13.5 70.5t37.5 56t57 36.5t72 13q71 0 115.5 -30t82.5 -87q19 28 39 50t43.5 37t52 22.5t63.5 7.5q38 0 71 -13t57 -36.5t37.5 -55.5t13.5 -71q0 -38 -13.5 -70.5
t-37.5 -56.5t-56.5 -37.5t-71.5 -13.5q-35 0 -63.5 8t-52 23t-43.5 37t-39 50zM453 316q15 -23 30 -43t33 -35t40.5 -23.5t52.5 -8.5q49 0 81.5 30.5t32.5 79.5q0 50 -33 79.5t-81 29.5q-30 0 -52.5 -8.5t-40.5 -23t-33 -34.5t-30 -43zM379 316q-15 23 -30 43t-33 34.5
t-40.5 23t-52.5 8.5q-24 0 -45 -8t-36.5 -22t-24.5 -34.5t-9 -44.5q0 -25 9 -45t24.5 -34.5t36.5 -22.5t45 -8q30 0 52.5 8.5t40.5 23.5t33 35t30 43z" />
    <glyph glyph-name="integral" unicode="&#x222b;" horiz-adv-x="359" 
d="M74 -180q-32 0 -59.5 7.5t-45.5 22.5l26 65q27 -22 67 -22q35 0 54.5 21.5t19.5 62.5v545q0 70 39 111.5t109 41.5q69 0 106 -30l-27 -65q-27 22 -66 22q-36 0 -55.5 -21t-19.5 -62v-545q0 -71 -39 -112.5t-109 -41.5z" />
    <glyph glyph-name="approxequal" unicode="&#x2248;" horiz-adv-x="524" 
d="M52 350q1 29 7.5 55.5t20.5 47t36.5 33t54.5 12.5q33 0 57 -13.5t44 -30t38.5 -30.5t39.5 -14q18 0 30 7t19.5 18.5t11 26t4.5 29.5h57q-1 -28 -7.5 -54.5t-20.5 -47.5t-36 -33.5t-55 -12.5q-32 0 -56 14t-44.5 30.5t-39 30t-39.5 13.5q-17 0 -29 -7t-19.5 -18.5
t-11.5 -26t-5 -29.5h-57zM52 139q1 29 7.5 55.5t20.5 47t36.5 33t54.5 12.5q33 0 57 -14t44 -30.5t38.5 -30.5t39.5 -14q18 0 30 7.5t19.5 19t11 26t4.5 29.5h57q-1 -28 -7.5 -55t-20.5 -47.5t-36.5 -33t-54.5 -12.5t-56.5 14t-44.5 30.5t-38.5 30t-39.5 13.5
q-17 0 -29 -7.5t-19.5 -19t-11.5 -26t-5 -28.5h-57z" />
    <glyph glyph-name="notequal" unicode="&#x2260;" horiz-adv-x="524" 
d="M60 173v71h125l52 142h-177v71h203l64 173h78l-63 -173h122v-71h-148l-52 -142h200v-71h-226l-64 -173h-78l63 173h-99z" />
    <glyph glyph-name="lessequal" unicode="&#x2264;" horiz-adv-x="524" 
d="M60 314v76l404 153v-74l-310 -117l310 -117v-74zM60 0v71h404v-71h-404z" />
    <glyph glyph-name="greaterequal" unicode="&#x2265;" horiz-adv-x="524" 
d="M60 161v74l311 117l-311 117v74l404 -153v-76zM60 0v71h404v-71h-404z" />
    <glyph glyph-name="bullet.case" horiz-adv-x="301" 
d="M150 234q-36 0 -59 24t-23 59q0 34 24 58t58 24t57.5 -24t23.5 -58q0 -35 -23 -59t-58 -24z" />
    <glyph glyph-name="emdash.case" horiz-adv-x="900" 
d="M0 288v60h900v-60h-900z" />
    <glyph glyph-name="endash.case" horiz-adv-x="450" 
d="M0 288v60h450v-60h-450z" />
    <glyph glyph-name="hyphen.case" horiz-adv-x="286" 
d="M17 281v75h242v-75h-242z" />
    <glyph glyph-name="uni0326.salt" horiz-adv-x="242" 
d="M98 -233l24 68q-8 1 -18 4.5t-19 10.5t-15 16.5t-6 22.5q0 26 17 43.5t45 17.5q29 0 46 -20.5t13 -48.5q-4 -25 -9.5 -43t-10.5 -32t-10 -25.5t-10 -23.5z" />
    </font>
</defs>
</svg>
