<svg width="272" height="269" viewBox="0 0 272 269" fill="none" xmlns="http://www.w3.org/2000/svg">
<path d="M43.1846 66.875L220.451 106.256L165.922 200.702L43.1846 66.875Z" fill="url(#paint0_linear_7149_1691)" stroke="white" stroke-width="6.97436"/>
<path d="M238.486 179.636C256.783 147.946 245.925 107.425 214.235 89.1285C182.545 70.8323 142.023 81.6901 123.727 113.38C105.431 145.07 116.288 185.592 147.978 203.888C179.668 222.184 220.19 211.326 238.486 179.636Z" fill="url(#paint1_linear_7149_1691)"/>
<g filter="url(#filter0_i_7149_1691)">
<path d="M212.983 164.91C223.148 147.304 217.116 124.792 199.51 114.628C181.905 104.463 159.392 110.495 149.228 128.101C139.063 145.706 145.095 168.219 162.701 178.383C180.307 188.548 202.819 182.516 212.983 164.91Z" fill="url(#paint2_linear_7149_1691)"/>
</g>
<defs>
<filter id="filter0_i_7149_1691" x="141.836" y="109.689" width="76.0848" height="76.0848" filterUnits="userSpaceOnUse" color-interpolation-filters="sRGB">
<feFlood flood-opacity="0" result="BackgroundImageFix"/>
<feBlend mode="normal" in="SourceGraphic" in2="BackgroundImageFix" result="shape"/>
<feColorMatrix in="SourceAlpha" type="matrix" values="0 0 0 0 0 0 0 0 0 0 0 0 0 0 0 0 0 0 127 0" result="hardAlpha"/>
<feOffset dx="-2.45394" dy="2.45394"/>
<feGaussianBlur stdDeviation="3.68093"/>
<feComposite in2="hardAlpha" operator="arithmetic" k2="-1" k3="1"/>
<feColorMatrix type="matrix" values="0 0 0 0 0 0 0 0 0 0 0 0 0 0 0 0 0 0 0.12 0"/>
<feBlend mode="normal" in2="shape" result="effect1_innerShadow_7149_1691"/>
</filter>
<linearGradient id="paint0_linear_7149_1691" x1="33.1275" y1="61.0685" x2="356.267" y2="247.633" gradientUnits="userSpaceOnUse">
<stop stop-color="#868686"/>
<stop offset="1" stop-color="#343434"/>
</linearGradient>
<linearGradient id="paint1_linear_7149_1691" x1="113.242" y1="178.166" x2="226.24" y2="127.229" gradientUnits="userSpaceOnUse">
<stop stop-color="#EDEDED"/>
<stop offset="1" stop-color="#FDFDFD"/>
</linearGradient>
<linearGradient id="paint2_linear_7149_1691" x1="149.188" y1="161.473" x2="220.848" y2="132.007" gradientUnits="userSpaceOnUse">
<stop stop-color="white"/>
<stop offset="1" stop-color="#F9F9F9"/>
</linearGradient>
</defs>
</svg>
