<svg width="610" height="612" viewBox="0 0 610 612" fill="none" xmlns="http://www.w3.org/2000/svg">
<g filter="url(#filter0_d_856_3519)">
<path fill-rule="evenodd" clip-rule="evenodd" d="M305 586C460.192 586 586 460.192 586 305C586 149.808 460.192 24 305 24C149.808 24 24 149.808 24 305C24 460.192 149.808 586 305 586ZM305 596C465.715 596 596 465.715 596 305C596 144.285 465.715 14 305 14C144.285 14 14 144.285 14 305C14 465.715 144.285 596 305 596Z" fill="url(#paint0_linear_856_3519)"/>
<path fill-rule="evenodd" clip-rule="evenodd" d="M305 576C454.669 576 576 454.669 576 305C576 155.331 454.669 34 305 34C155.331 34 34 155.331 34 305C34 454.669 155.331 576 305 576ZM305 586C460.192 586 586 460.192 586 305C586 149.808 460.192 24 305 24C149.808 24 24 149.808 24 305C24 460.192 149.808 586 305 586Z" fill="url(#paint1_linear_856_3519)"/>
</g>
<g filter="url(#filter1_d_856_3519)">
<circle cx="305" cy="305" r="30" fill="url(#paint2_linear_856_3519)"/>
</g>
<g filter="url(#filter2_i_856_3519)">
<circle cx="305" cy="305" r="24" fill="url(#paint3_linear_856_3519)"/>
</g>
<defs>
<filter id="filter0_d_856_3519" x="2" y="14" width="598" height="598" filterUnits="userSpaceOnUse" color-interpolation-filters="sRGB">
<feFlood flood-opacity="0" result="BackgroundImageFix"/>
<feColorMatrix in="SourceAlpha" type="matrix" values="0 0 0 0 0 0 0 0 0 0 0 0 0 0 0 0 0 0 127 0" result="hardAlpha"/>
<feOffset dx="-4" dy="8"/>
<feGaussianBlur stdDeviation="4"/>
<feComposite in2="hardAlpha" operator="out"/>
<feColorMatrix type="matrix" values="0 0 0 0 0 0 0 0 0 0 0 0 0 0 0 0 0 0 0.2 0"/>
<feBlend mode="normal" in2="BackgroundImageFix" result="effect1_dropShadow_856_3519"/>
<feBlend mode="normal" in="SourceGraphic" in2="effect1_dropShadow_856_3519" result="shape"/>
</filter>
<filter id="filter1_d_856_3519" x="269" y="275" width="68" height="68" filterUnits="userSpaceOnUse" color-interpolation-filters="sRGB">
<feFlood flood-opacity="0" result="BackgroundImageFix"/>
<feColorMatrix in="SourceAlpha" type="matrix" values="0 0 0 0 0 0 0 0 0 0 0 0 0 0 0 0 0 0 127 0" result="hardAlpha"/>
<feOffset dx="-2" dy="4"/>
<feGaussianBlur stdDeviation="2"/>
<feComposite in2="hardAlpha" operator="out"/>
<feColorMatrix type="matrix" values="0 0 0 0 0 0 0 0 0 0 0 0 0 0 0 0 0 0 0.18 0"/>
<feBlend mode="normal" in2="BackgroundImageFix" result="effect1_dropShadow_856_3519"/>
<feBlend mode="normal" in="SourceGraphic" in2="effect1_dropShadow_856_3519" result="shape"/>
</filter>
<filter id="filter2_i_856_3519" x="279" y="281" width="50" height="49" filterUnits="userSpaceOnUse" color-interpolation-filters="sRGB">
<feFlood flood-opacity="0" result="BackgroundImageFix"/>
<feBlend mode="normal" in="SourceGraphic" in2="BackgroundImageFix" result="shape"/>
<feColorMatrix in="SourceAlpha" type="matrix" values="0 0 0 0 0 0 0 0 0 0 0 0 0 0 0 0 0 0 127 0" result="hardAlpha"/>
<feOffset dx="-2" dy="1"/>
<feGaussianBlur stdDeviation="2"/>
<feComposite in2="hardAlpha" operator="arithmetic" k2="-1" k3="1"/>
<feColorMatrix type="matrix" values="0 0 0 0 0 0 0 0 0 0 0 0 0 0 0 0 0 0 0.1 0"/>
<feBlend mode="normal" in2="shape" result="effect1_innerShadow_856_3519"/>
</filter>
<linearGradient id="paint0_linear_856_3519" x1="464.5" y1="68.5" x2="123" y2="534.5" gradientUnits="userSpaceOnUse">
<stop stop-color="#FAFAFA"/>
<stop offset="1" stop-color="#D0D0D0"/>
</linearGradient>
<linearGradient id="paint1_linear_856_3519" x1="459.019" y1="76.6271" x2="129.254" y2="526.613" gradientUnits="userSpaceOnUse">
<stop stop-color="#CDCDCD"/>
<stop offset="1" stop-color="#FAFAFA"/>
</linearGradient>
<linearGradient id="paint2_linear_856_3519" x1="324" y1="281" x2="287" y2="331" gradientUnits="userSpaceOnUse">
<stop stop-color="#FDFDFD"/>
<stop offset="1" stop-color="#E2E2E2"/>
</linearGradient>
<linearGradient id="paint3_linear_856_3519" x1="285.5" y1="322" x2="325" y2="282.5" gradientUnits="userSpaceOnUse">
<stop stop-color="white"/>
<stop offset="1" stop-color="#FBFBFB"/>
</linearGradient>
</defs>
</svg>
