<svg width="36" height="36" viewBox="0 0 36 36" fill="none" xmlns="http://www.w3.org/2000/svg">
<path d="M24.3871 34.2796C15.1935 37.0524 3.33256 32.9794 0.68038 24.4415C-1.9718 15.9036 3.36746 3.53307 12.5622 0.767779C21.7526 -2.00069 31.4982 2.57659 35.3539 16.8013C37.6963 25.4303 33.585 31.5101 24.3871 34.2796Z" fill="#1EAF6D"/>
<path d="M13.8186 8.74001C16.2591 8.54025 18.3883 10.3663 18.5781 12.8097C18.6838 14.2121 18.8598 15.6148 19.118 15.2729C19.6071 14.6224 18.9779 10.9928 19.937 10.2054C20.8939 9.41919 23.7636 9.477 24.8871 11.0132C26.0119 12.5516 29.4433 15.8882 25.9572 20.08C23.0832 23.5357 19.4432 27.4095 16.4687 27.7569C13.6663 28.0837 11.2942 22.7999 9.54155 18.9951C8.51977 16.7751 9.81099 9.11429 13.6891 8.75345C13.733 8.74855 13.7782 8.74584 13.8199 8.7422" fill="white"/>
</svg>
