<svg width="89" height="306" viewBox="0 0 89 306" fill="none" xmlns="http://www.w3.org/2000/svg">
<path d="M75.5142 235.25C85.87 237.614 86.901 249.278 80.7358 255.918C73.7558 263.438 64.0459 263.878 57.5392 257.053C54.1664 253.516 53.5524 247.418 56.1657 243.137C60.1833 236.566 69.6168 232.498 75.5142 235.25Z" fill="#9EDCF2"/>
<path d="M28.1026 251.292C32.9486 246.498 39.3809 249.664 40.6856 255.084C42.164 261.221 39.0035 266.564 33.1785 267.873C30.1597 268.553 26.7707 266.937 25.454 264.172C23.4354 259.925 24.6109 253.574 28.1026 251.292Z" fill="#BA50B0"/>
<path d="M-188.958 292.239L77.2048 171.968L56.9817 134.757L-216.372 276.211L-188.958 292.239Z" fill="#1EAF6D"/>
<path d="M-195.033 271.758L46.4874 109.178L20.1203 75.8528L-224.82 260.494L-195.033 271.758Z" fill="#1EAF6D"/>
<path d="M-208.49 262.842L-12.1162 49.9312L-45.6681 23.4935L-240.138 258.644L-208.49 262.842Z" fill="#1EAF6D"/>
<path d="M33.5507 92.7831L46.479 109.181L-16.7781 151.534L33.5507 92.7831Z" fill="#095933"/>
<path d="M-27.6968 37.9185L-45.6683 23.4934L-198.364 207.809L-27.6968 37.9185Z" fill="#1D513F"/>
</svg>
