<svg width="209" height="44" viewBox="0 0 209 44" fill="none" xmlns="http://www.w3.org/2000/svg">
<path d="M208.982 33.9793C205.033 33.9793 201.184 33.8999 197.335 33.9951C186.936 34.2437 176.574 34.709 166.243 36.3587C156.007 37.998 145.692 39.1613 135.325 39.965C124.204 40.8269 113.105 40.9168 101.995 40.737C95.7238 40.6365 89.4737 39.7006 83.25 38.7171C77.3739 37.7864 71.3977 37.834 65.4583 37.8446C57.7603 37.8658 50.1097 38.7752 42.5012 39.854C37.6729 40.5414 32.834 41.2446 28.0056 41.9267C22.2348 42.7358 16.506 44.1688 10.6088 43.9837C2.56853 43.7299 -5.47171 44.4067 -13.512 43.0478C-19.504 42.0378 -25.4644 40.9009 -31.4248 39.7271C-32.4305 39.5314 -33.3783 39.0396 -35 38.4527C-31.3458 37.8763 -28.4815 36.9933 -25.7382 35.592C-22.2683 33.8153 -20.2464 30.5951 -17.7769 27.8719C-14.8862 24.6887 -11.7586 21.7963 -8.45719 19.0943C-3.62883 15.1443 1.67341 11.813 7.45481 9.56575C13.0519 7.38719 19.0123 6.44598 25.0623 6.0917C31.4387 5.72156 37.5728 7.20741 43.7439 8.25967C50.4941 9.4124 57.1127 9.06341 63.8155 8.00058C71.3871 6.80026 78.7534 4.59527 86.3935 3.70164C90.411 3.23103 94.2284 3.87613 98.0879 4.5794C102.874 5.45188 107.397 7.24971 112.01 8.74086C117.512 10.5175 123.125 11.3054 128.98 11.0199C135.699 10.692 141.591 8.01115 147.619 5.54177C152.021 3.73865 156.355 1.52838 160.941 0.481402C165.501 -0.554996 170.187 0.0689576 174.562 2.48017C179.396 5.15048 183.677 8.62982 188.442 11.3794C190.517 12.5798 192.581 13.447 195.066 13.4945C198.725 13.5633 201.031 16.0379 202.869 18.851C204.775 21.7646 205.707 25.1646 207.045 28.3584C207.771 30.0875 209.145 31.5839 208.987 33.9793H208.982Z" fill="#BA59B0"/>
</svg>
