<svg width="69" height="22" viewBox="0 0 69 22" fill="none" xmlns="http://www.w3.org/2000/svg">
<path fill-rule="evenodd" clip-rule="evenodd" d="M3.14134 8.18844C3.51499 6.05952 6.49913 -0.0209853 10.6915 5.4465e-05C12.5454 0.00940549 13.1134 1.05867 12.6065 2.99979C13.1906 2.47652 15.3752 0.157464 17.9062 0.128632C17.9062 0.128632 19.6759 0.106814 18.9185 2.87043C21.8995 0.275522 23.4966 0.136814 24.2891 0.128632C25.7323 0.113436 25.7412 1.11906 25.3933 2.06897L21.5223 12.6469C21.0992 13.8037 21.1873 14.0726 22.1013 14.0472C23.1292 14.0192 24.9888 13.3475 25.9656 12.9119C26.0732 9.6285 28.8547 6.36966 31.7368 6.29603C32.9224 6.26563 33.8353 6.64942 34.7825 7.59504C35.3178 8.12961 36.9753 7.6827 38.3269 7.25957C39.6778 6.83761 41.1127 6.29135 41.7864 6.20251C42.4644 6.11913 43.516 5.90835 43.516 6.28745C43.516 6.66968 42.7079 8.40741 42.5692 9.57161C42.4422 10.6863 42.7215 11.9027 42.464 12.7447C43.2456 12.4572 44.9868 12.2491 45.2782 12.308C45.3332 9.40875 47.5657 6.26563 49.8852 6.2029C51.9724 6.14952 53.1666 7.07138 52.8393 8.82275C52.4968 10.6388 50.8113 11.6374 49.8813 12.0605C49.2855 12.3286 47.9445 12.7038 47.9445 13.0412C47.9445 13.3794 48.1552 13.9148 48.8266 13.9148C49.7071 13.9148 52.0098 13.0069 54.8459 10.3376C56.1032 9.15705 58.5236 6.58668 60.7717 6.58668C62.2246 6.58668 62.1763 7.26035 62.01 8.16039C62.7125 7.61413 66.1361 5.7525 66.8027 6.85241C67.1811 7.47815 66.4564 9.43797 66.7334 10.4759C67.1519 12.0274 68.9297 13.3424 68.9995 15.2761C69.0419 16.4964 67.3961 17.5122 65.7492 17.8504C65.7492 17.8504 58.5419 19.3325 0.523438 21.6894L1.41101 19.0313C52.0667 17.9427 62.9232 17.0497 62.9232 17.0497C64.2024 16.9441 68.0947 15.8664 68.0698 14.9816C68.0266 13.3354 65.3019 12.285 64.9088 11.2704C64.5336 10.3158 65.0436 8.52235 64.472 8.46546C63.5131 8.37001 61.7559 9.12549 61.1586 10.8157L59.1556 16.3566H56.6117L58.8049 10.4533C59.0157 9.88565 59.2896 9.09393 58.8633 9.1177C58.2333 9.15276 57.3118 9.79214 56.5949 10.4253C55.878 11.0588 53.8118 12.7015 52.9667 13.4192C52.122 14.1369 49.8458 15.9104 48.2834 15.8271C46.7249 15.739 45.6581 14.8039 45.5416 13.7574C45.1617 13.5824 43.5553 13.4235 41.9536 14.431C40.351 15.4444 39.2877 15.783 38.6936 15.783C38.1052 15.783 35.5376 15.4951 35.4273 13.5571C35.3338 11.9152 35.7928 11.0534 36.8974 11.0323C37.8418 11.0144 38.3834 11.6857 38.3706 12.2795C38.3441 13.4235 37.7542 13.7804 36.6515 13.6888C36.7018 14.6075 37.338 14.7996 38.2852 14.7692C39.6657 14.7256 40.3506 11.9838 40.3612 11.1317C40.3795 9.75123 40.9296 8.29403 41.2787 7.51088C39.7132 7.62738 37.4374 9.70759 34.8764 9.56538C34.53 12.756 32.5632 15.9381 29.736 15.9381C27.2888 15.9381 26.1394 14.8818 26.0482 13.757C24.9121 14.6519 21.6505 15.8797 19.891 15.866C18.7763 15.8575 18.0247 15.4717 18.6407 13.7324L22.0822 4.01126C22.729 2.18469 22.2451 2.346 21.8738 2.346C20.332 2.346 18.1571 4.64362 17.6093 5.74081L13.9539 15.5302H11.3901L15.8677 3.24954C16.0551 2.73523 15.9951 2.34872 15.6596 2.3647C14.7752 2.40755 12.9486 3.3372 11.6847 5.78055L8.08335 15.5298H5.53442L9.84641 3.58968C9.96564 3.25967 10.4067 1.72727 9.27834 1.74207C9.27834 1.74207 6.73642 1.7748 5.33415 7.59543C3.54265 8.10896 3.14134 8.18844 3.14134 8.18844ZM28.9841 10.4685C28.384 12.6212 28.5512 14.2199 29.8946 14.2308C31.683 14.2413 32.5756 12.5628 32.8706 11.5275C33.104 10.7093 33.8186 7.6792 31.9596 7.6792C30.6517 7.67881 29.2993 9.34992 28.9841 10.4685ZM50.382 7.52568C51.0486 7.52568 51.5469 7.61608 51.4406 8.46507C51.3182 9.4555 48.7108 11.7527 47.7087 11.6807C47.835 10.5102 48.5608 7.52568 50.382 7.52568Z" fill="#0A0A10"/>
</svg>
