<svg width="87" height="22" viewBox="0 0 87 22" fill="none" xmlns="http://www.w3.org/2000/svg">
<g clip-path="url(#clip0_1639_131)">
<path d="M32.4012 21.2113C30.5755 21.0022 29.0998 20.3345 27.9142 19.1816C26.4482 17.7568 25.67 15.8357 25.67 13.6406C25.67 9.22828 28.8794 5.99344 33.249 6.00048C34.4011 6.00249 35.5501 6.26846 36.5646 6.76922C37.0482 7.00804 37.6669 7.41578 37.994 7.71141C38.118 7.82353 38.2312 7.91504 38.2455 7.91504C38.2597 7.91504 38.2719 7.54148 38.2719 7.08546V6.25488H40.1641V21.0263H38.2719V19.3164L38.0992 19.4582C36.8302 20.4989 35.6751 21.0057 34.144 21.1942C33.8088 21.2355 32.7049 21.2465 32.4012 21.2113ZM34.1461 19.2561C36.4335 18.876 38.0194 17.2766 38.4715 14.8935C38.5767 14.341 38.5792 12.9508 38.4766 12.4063C38.3567 11.7713 38.1962 11.2841 37.9295 10.7461C37.1421 9.15839 35.7548 8.19608 33.9063 7.95475C33.2663 7.87079 32.3316 7.92459 31.72 8.07995C29.9365 8.53294 28.5609 9.81199 27.9381 11.5973C27.6795 12.3389 27.6272 12.6828 27.6272 13.6406C27.6272 14.3772 27.6409 14.5516 27.7273 14.9352C28.2454 17.2264 29.9065 18.8609 32.1182 19.2576C32.5774 19.3395 33.6472 19.339 34.1461 19.2561ZM15.897 21.152C14.6321 21.0208 13.4637 20.614 12.4646 19.9579C11.9058 19.5909 11.0321 18.7211 10.6511 18.153C9.72046 16.7643 9.27394 15.0981 9.33947 13.2575C9.39941 11.5843 9.8698 10.1554 10.7831 8.87332C10.9162 8.68579 11.2581 8.30167 11.5416 8.01911C12.555 7.01156 13.7751 6.37354 15.2457 6.08243C15.838 5.96529 17.1634 5.92104 17.7795 5.99747C20.6181 6.35142 22.7445 8.23279 23.475 11.0378C23.6528 11.721 23.733 12.3027 23.764 13.1403L23.7909 13.8744H11.249L11.2774 14.3108C11.4044 16.251 12.5418 17.9891 14.2399 18.8377C15.0425 19.239 15.8081 19.4134 16.7707 19.4144C18.4216 19.4164 19.6687 18.9117 20.7075 17.8227C20.9671 17.5507 21.5528 16.7719 21.6539 16.5652C21.6666 16.5396 23.3048 17.6009 23.3048 17.6346C23.3048 17.7377 22.6338 18.6216 22.2635 19.0052C20.896 20.423 19.2014 21.1218 17.0038 21.1736C16.6015 21.1837 16.1037 21.1736 15.897 21.152ZM21.821 12.0337C21.4649 9.81451 19.9349 8.20564 17.778 7.78281C17.3239 7.69382 16.1499 7.70387 15.6922 7.80091C14.6052 8.03168 13.6984 8.49725 12.9451 9.21219C12.1476 9.96936 11.6162 10.9201 11.3318 12.0976L11.3033 12.2147H21.8494L21.821 12.0337ZM78.7217 21.149C75.4264 20.8453 72.98 18.6351 72.3171 15.3646C71.8665 13.1388 72.2846 10.818 73.4463 9.10258C74.5588 7.45852 76.1442 6.44192 78.1954 6.05478C78.7745 5.94568 80.4965 5.94618 81.0441 6.05629C82.4126 6.33131 83.5444 6.92106 84.4867 7.85118C85.8456 9.19157 86.5704 11.0875 86.5704 13.2982V13.8744L80.3233 13.8854L74.0767 13.896L74.0879 14.2369C74.1336 15.5778 74.7737 16.98 75.779 17.9388C76.5582 18.6824 77.5035 19.153 78.6064 19.3476C79.0965 19.4335 80.1496 19.433 80.6428 19.3476C82.1713 19.0791 83.2782 18.3355 84.2251 16.9398C84.3602 16.7407 84.4867 16.5823 84.5065 16.5878C84.5573 16.6009 86.0228 17.5341 86.0853 17.5934C86.1514 17.6552 85.748 18.257 85.2761 18.801C83.7689 20.5351 81.3723 21.3938 78.7217 21.149ZM84.6345 12.0976C84.6345 12.0332 84.5969 11.8256 84.5512 11.636C84.0341 9.50128 82.5112 8.07995 80.399 7.75968C79.5939 7.63751 78.6333 7.72147 77.8185 7.98593C76.0563 8.55758 74.6939 10.003 74.2261 11.7959C74.1793 11.9754 74.1412 12.1428 74.1412 12.168C74.1412 12.2012 75.6499 12.2147 79.3881 12.2147H84.6355L84.635 12.0976H84.6345ZM0.294922 13.619V6.21265H9.24092V7.95727L5.7247 7.96833L2.20898 7.97889L2.19781 14.5029L2.18714 21.0263H0.294922V13.619ZM43.4756 10.6391V0.295532H45.411V20.9836H43.4756V10.6391ZM48.723 13.5974V6.21165H50.6152L50.6173 7.18049L50.6193 8.14883L50.7788 7.95777C51.3046 7.32528 51.8466 6.88033 52.4602 6.57716C53.1917 6.21517 53.8353 6.05729 54.7441 6.01406C55.7926 5.96529 56.6454 6.12617 57.4755 6.5294C58.3558 6.95675 58.9893 7.57114 59.5861 8.57719C59.6268 8.64657 59.6522 8.62746 59.8071 8.40222C60.6204 7.22322 61.8304 6.44342 63.3462 6.12165C63.9471 5.99395 65.2674 5.98087 65.8495 6.09651C66.9137 6.30918 67.7519 6.73704 68.4453 7.42282C69.1834 8.15285 69.6365 9.03219 69.9148 10.2725L70.0302 10.7879L70.0444 15.886L70.0581 20.9831H68.1628V16.433C68.1628 13.5959 68.1461 11.717 68.1181 11.442C67.9414 9.69434 67.0275 8.43138 65.5991 7.95978C65.0385 7.77703 64.4447 7.71632 63.8582 7.7818C62.0158 7.97939 60.8251 8.96583 60.4091 10.6391C60.3207 10.994 60.3186 11.0976 60.3039 15.9921L60.2887 20.9831H58.4V16.52C58.4 13.8523 58.3822 11.8407 58.3558 11.5199C58.18 9.37408 56.9899 8.01408 55.0885 7.78532C53.3537 7.57617 51.553 8.5787 50.8997 10.1182C50.6264 10.7602 50.6422 10.4274 50.6264 15.9503L50.6122 20.9836H48.7225V13.5979L48.723 13.5974Z" fill="#0A0A10"/>
</g>
<defs>
<clipPath id="clip0_1639_131">
<rect width="86.2755" height="21.6894" fill="white" transform="translate(0.294922)"/>
</clipPath>
</defs>
</svg>
