<svg width="89" height="22" viewBox="0 0 89 22" fill="none" xmlns="http://www.w3.org/2000/svg">
<g clip-path="url(#clip0_1639_133)">
<path d="M19.4735 0.514841C17.324 0.495509 15.294 1.58729 15.294 1.58729C15.294 1.58729 13.2489 2.83225 12.5018 4.6977C12.4632 4.87888 8.41151 12.777 8.41151 12.777C3.27569 11.2844 0.792672 14.3089 0.870934 15.4763C2.11171 18.6048 8.17911 16.3793 8.78491 15.6549C9.12024 15.4741 9.33632 15.6907 9.33632 15.6907C9.33632 15.6907 10.8222 16.685 10.9902 16.7632C11.158 16.8415 12.004 16.7275 12.004 16.7275C12.6619 16.6772 13.8358 15.3813 13.978 15.3689C14.1974 15.3696 14.4621 16.8046 15.3653 16.7811C16.449 16.9916 17.6238 15.7622 17.6238 15.7622C17.7785 15.5423 17.8373 15.7085 17.8373 15.7085C17.8123 17.0569 18.9019 16.8191 19.2243 16.7811C20.2951 16.3431 22.9176 13.7461 22.6213 14.511C22.5182 14.7182 21.7143 16.2269 21.7143 16.2269C21.6242 16.6288 21.9099 16.6023 21.9099 16.6023L23.795 16.5844C24.1173 16.3907 25.7666 12.8209 25.5735 13.3134C26.1679 12.2321 27.512 11.8476 27.512 11.8476C27.6411 11.809 27.5831 11.9906 27.5831 11.9906L25.3778 16.3878C25.3394 16.5042 25.5556 16.6202 25.5556 16.6202L27.4763 16.5844C27.7344 16.5594 29.3437 13.2418 29.3437 13.2418C29.7817 12.4 31.3357 11.9191 31.3357 11.9191C31.6193 11.8679 31.4245 12.1515 31.4245 12.1515L29.9129 15.3332C29.6831 16.7778 30.8908 16.8624 31.4068 16.799C31.9228 16.7227 32.7619 16.4306 34.4123 15.1902C34.7479 14.932 34.8214 15.1918 34.8214 15.2439C34.8356 17.0203 36.7776 16.8168 36.7776 16.8168C37.3582 16.9611 39.715 16.9052 41.6861 12.9558C40.9654 15.6379 42.4348 16.3682 42.4865 16.4594C42.5382 16.55 43.3281 16.8274 43.6246 16.7632C46.6309 17.0311 47.8929 12.3303 47.8929 12.3303C48.5694 11.8202 48.7412 11.6738 49.0134 11.5258C49.6844 11.5922 49.8646 11.6113 50.1872 11.651C50.445 11.7426 50.2113 11.9846 50.1337 12.062C47.0649 14.4656 48.412 16.319 48.5154 16.2806C49.8583 18.1126 52.646 14.9191 53.1749 14.8685C53.8477 17.5677 55.8944 16.3926 55.9849 16.4057C55.8045 16.9368 55.2796 18.2503 54.8289 19.1048C53.8879 20.438 52.4102 18.944 52.4102 18.944L52.0367 18.9261C51.8563 19.1589 51.9656 19.4266 51.9656 19.4266C52.3529 20.0502 52.8489 20.913 54.3842 21.1247C55.9324 21.1939 56.8207 19.4802 56.8207 19.4802C56.8207 19.4802 58.9911 15.4552 59.1327 14.9756C59.7903 14.381 60.9314 13.5224 61.7826 12.9022C62.3371 12.7872 60.3947 15.9702 60.2532 16.4235C60.2146 16.683 60.3065 16.6918 60.3065 16.6918C60.3065 16.6918 61.7834 16.7655 62.0672 16.7275C62.3509 16.6894 63.7292 13.3982 64.2191 12.7772C64.6443 12.0651 66.0153 11.4007 66.0153 11.4007C66.312 11.3367 66.2109 11.6867 66.2109 11.6867L64.397 15.3691C63.9594 16.9106 65.1912 16.9186 65.4106 16.9063C66.004 16.8687 68.2205 15.5835 68.2205 15.5835C68.53 15.3508 68.5229 15.7265 68.5229 15.7265C68.4973 16.2193 69.0269 17.0265 69.4654 16.924C71.0395 17.0709 73.4201 14.4429 73.4847 14.6897C73.4979 14.7417 72.5955 16.5309 72.5955 16.5309C72.6343 16.6735 72.7911 16.7454 72.7911 16.7454C72.7911 16.7454 74.3152 16.7622 74.6763 16.7632C75.0375 16.7643 76.6806 12.8178 77.0416 12.5982C77.7765 11.8354 78.5807 11.763 78.6066 11.776C78.8776 11.764 77.0732 14.6607 76.9706 15.2438C76.5718 16.9156 77.753 16.8883 77.753 16.8883C78.6948 17.0337 81.0042 15.3871 81.0431 15.5297C81.3137 15.2584 81.3455 15.5835 81.3455 15.5835V15.7085C81.5015 17.0577 82.2881 16.9062 82.2881 16.9062C83.1913 17.1421 86.7164 14.1713 86.7164 14.1713L86.1829 13.5815L83.9776 15.1902C83.7971 15.2807 83.693 15.083 83.693 15.083L86.1651 10.2924C86.281 10.1762 86.1116 10.0422 86.1116 10.0422H83.8887C83.7339 10.2102 83.6398 10.3282 83.6398 10.3282L81.6302 14.2608L79.4249 15.3511C79.1928 15.4151 79.247 15.1724 79.247 15.1724C79.247 15.1724 81.0843 11.5485 81.2389 11.0432C81.3419 10.8101 81.2922 10.4355 81.2922 10.4355C80.6848 9.02014 78.231 10.8524 77.8954 10.8645C77.8824 10.8775 78.1978 10.221 78.1978 10.221C78.288 10.0266 78.1089 10.0243 78.1089 10.0243L76.0459 10.0065C76.0459 10.0065 76.052 9.85913 75.9746 9.98859C75.8973 10.118 74.5698 12.6162 74.5698 12.6162L71.2441 15.1366C70.9602 15.1879 71.0306 14.9936 71.0306 14.9936L73.4671 10.2567L73.4849 10.0601L71.1373 10.0065L69.1988 13.7601C69.0957 13.8767 67.0648 15.0294 67.0648 15.0294C66.755 15.1195 66.7445 14.8506 66.7445 14.8506L68.5408 11.3471C68.9477 9.98032 67.462 9.57849 66.7268 9.84554C66.2297 10.0255 65.7664 10.1852 65.7664 10.1852C65.7664 10.1852 65.6196 10.2236 65.7486 10.0422C65.9675 9.73155 68.2384 5.21592 68.2384 5.21592C68.2901 5.0862 68.1673 5.0014 68.1673 5.0014L66.1044 4.98354C65.9366 5.0606 65.9087 5.18019 65.9087 5.18019L62.9742 10.7751L60.5555 12.5984C60.4007 12.7017 60.3954 12.5268 60.3954 12.5268L61.6047 10.221V9.98846L59.435 9.97059L59.0793 10.2566C58.8339 9.73715 57.5887 9.74328 57.5499 9.75608C54.9437 9.67075 53.4772 13.3847 53.4772 13.3847C52.0271 14.6482 51.3571 15.0414 50.8808 15.1186C50.4844 15.141 50.3649 14.8146 50.3649 14.8146C49.8128 13.1145 53.2816 11.5078 53.2816 11.5078C53.3978 11.4431 53.8976 9.93499 53.833 9.93486C53.7684 9.93473 49.5678 9.92993 49.5291 9.917C49.2967 9.82567 48.1748 10.8869 47.8396 11.1325C46.8571 8.23807 43.0502 10.4272 42.522 11.7223C42.2952 11.7831 42.1935 11.7407 42.0774 11.7402C42.1156 10.7549 41.9855 10.1406 41.366 9.82754C41.0304 9.64515 39.6589 9.82754 39.6589 9.82754L41.9885 5.16219C42.1045 5.0198 41.8818 4.87621 41.8818 4.87621H39.7833C39.6929 4.92794 39.5876 5.05487 39.5876 5.05487C39.5876 5.05487 35.6224 12.774 35.3904 13.1882C35.1585 13.6024 32.2603 15.1544 32.2603 15.1544C32.2858 14.8694 34.1526 11.607 34.2168 10.9717C34.2928 9.32518 32.4205 9.84554 32.4205 9.84554C32.4205 9.84554 31.3602 10.5529 30.3931 11.0432C30.1852 9.23999 28.6145 9.8634 28.6145 9.8634L26.8362 11.0253L27.1562 10.1852L27.2275 9.8634L25.0932 9.80981C24.8484 9.99072 24.4175 10.9717 24.4175 10.9717L23.7416 12.2229L20.7006 14.5289C20.404 14.6965 20.5582 14.2965 20.5582 14.2965C20.5582 14.2965 22.6115 10.2488 22.6567 10.2208C22.8244 10.1175 22.6924 9.86353 22.6924 9.86353L20.6293 9.84554C20.6293 9.84554 20.2799 10.4422 20.2026 10.5069C19.221 9.1164 15.9819 9.68075 14.2448 13.796C14.0227 14.0711 13.851 14.2636 13.7291 14.3144C11.6923 16.7075 10.5278 14.3322 10.5278 14.3322L14.1737 7.34308C14.1737 7.34308 15.8324 3.61299 16.8769 2.55254C19.5204 0.757621 20.2737 2.44535 20.2737 2.44535C20.5021 2.9773 21.1987 4.89768 17.6061 5.82374C17.1348 5.87053 17.2858 6.09171 17.2858 6.09171C18.3315 6.98951 19.6157 6.89618 19.6157 6.89618C20.8802 7.14603 24.3067 5.25085 23.0658 2.21297C22.0975 0.941073 20.7631 0.52644 19.4735 0.514841ZM73.7337 5.25178C71.8503 5.32418 71.74 7.8649 73.6626 8.12955C75.5332 8.18687 75.8887 5.33578 73.7337 5.25165V5.25178ZM86.5563 5.25178C84.5179 5.25898 84.6698 8.15008 86.5918 8.12955C88.5141 7.97956 88.3498 5.32151 86.5563 5.25165V5.25178ZM19.26 10.6677C19.8629 10.6816 19.7575 11.4077 19.6513 11.5437C19.7159 11.7642 18.602 13.6528 18.602 13.6528C17.313 15.2702 16.699 14.9755 16.699 14.9755C16.699 14.9755 16.2573 14.9139 16.5924 14.0461C16.9532 13.4376 17.6538 11.8543 18.3885 10.9357C18.7755 10.7359 19.0589 10.6631 19.26 10.6677ZM39.4808 10.8464C40.1132 10.9261 39.8011 11.5078 39.8011 11.5078L38.0581 14.9576C37.5039 15.6436 36.9911 15.4045 36.9911 15.4045C36.7072 15.196 37.1867 14.4036 37.1867 14.4036L38.8229 11.1861C39.145 10.8497 39.4808 10.8464 39.4808 10.8464ZM57.621 10.8644C58.1144 10.7764 58.3147 11.1861 58.3147 11.1861C58.3147 11.1861 58.3434 11.252 58.279 11.6151C58.1376 12.1724 56.6073 14.8326 56.6073 14.8326C55.9629 15.4792 55.3979 15.3509 55.3979 15.3509C55.0755 15.2592 55.2023 14.779 55.2023 14.779C55.2023 14.779 56.4415 12.2249 57.0341 11.1504C57.2663 10.9792 57.4565 10.8936 57.621 10.8644ZM45.7588 10.8823C46.0313 10.836 46.2901 10.9489 46.2389 11.5257C45.9171 12.212 44.6472 14.7334 44.3894 15.0827C44.338 15.3811 43.0411 15.8672 43.3756 14.779C43.3756 14.779 45.1947 11.3594 45.2075 11.204C45.2138 11.1261 45.4863 10.9284 45.7588 10.8823ZM4.80126 13.6888C5.86456 13.6632 6.82863 14.0104 6.82863 14.0104C6.82863 14.0104 6.57992 14.8437 4.23207 15.2259C3.12261 15.1583 2.54295 15.1632 2.54255 14.7613C3.08388 13.9516 3.97421 13.7087 4.80126 13.6888Z" fill="#0A0A10"/>
</g>
<defs>
<clipPath id="clip0_1639_133">
<rect width="87.7215" height="21.6894" fill="white" transform="translate(0.792969)"/>
</clipPath>
</defs>
</svg>
