<svg width="68" height="22" viewBox="0 0 68 22" fill="none" xmlns="http://www.w3.org/2000/svg">
<g clip-path="url(#clip0_1639_97)">
<path d="M9.14767 0.00177002H9.74344C11.8118 0.0463675 13.8464 0.871421 15.3077 2.33199C14.7681 2.87831 14.2173 3.40233 13.689 3.94865C12.8684 3.21279 11.8792 2.64417 10.8001 2.44348C9.20387 2.109 7.48401 2.41004 6.14634 3.31314C4.68501 4.26083 3.69581 5.86634 3.48223 7.58335C3.24617 9.27805 3.72953 11.062 4.84239 12.3776C5.91028 13.6598 7.54021 14.4625 9.22636 14.5183C10.8001 14.6075 12.4413 14.128 13.5878 13.0354C14.4871 12.2661 14.903 11.0954 15.0379 9.95817C13.1719 9.95817 11.3059 9.96931 9.43993 9.95817V7.66139H17.2974C17.702 10.1254 17.1175 12.9016 15.229 14.6632C13.97 15.9119 12.2277 16.6478 10.4516 16.7927C8.73175 16.96 6.95568 16.6366 5.42692 15.8116C3.59464 14.8416 2.13332 13.2026 1.4139 11.2738C0.739438 9.50104 0.728197 7.49415 1.35769 5.71025C1.93098 4.08244 3.03259 2.64417 4.44895 1.64073C5.80911 0.648434 7.46153 0.102114 9.14767 0.00177002Z" fill="#0A0A10"/>
<path d="M54.2246 0.581665H56.6302V16.503C55.8321 16.503 55.0227 16.5141 54.2246 16.4918C54.2359 11.1959 54.2246 5.88877 54.2246 0.581665Z" fill="#0A0A10"/>
<path d="M22.6486 6.10061C24.1324 5.82188 25.7398 6.13406 26.9651 7.01486C28.0779 7.79532 28.8536 9.02175 29.0896 10.3597C29.3931 11.9094 29.0109 13.6041 27.9993 14.8306C26.9089 16.2019 25.1216 16.9378 23.3792 16.8263C21.783 16.7371 20.2318 15.9455 19.2875 14.6522C18.2196 13.2251 17.9611 11.2628 18.5456 9.59037C19.1301 7.79532 20.7826 6.42394 22.6486 6.10061ZM22.9858 8.21899C22.3788 8.37509 21.8167 8.72072 21.4121 9.21129C20.3217 10.5046 20.3891 12.6118 21.5919 13.816C22.2776 14.5072 23.3118 14.8306 24.2673 14.641C25.1553 14.4849 25.9309 13.894 26.3581 13.1136C27.1 11.7868 26.8864 9.9583 25.7511 8.9214C25.0204 8.25244 23.9525 7.97371 22.9858 8.21899Z" fill="#0A0A10"/>
<path d="M34.563 6.10064C36.2604 5.77731 38.1151 6.24558 39.3854 7.42742C41.4537 9.26706 41.6785 12.7122 39.9137 14.8306C38.8458 16.1685 37.1147 16.9044 35.4061 16.8263C33.7761 16.7817 32.1687 15.979 31.2019 14.6522C30.1116 13.1916 29.8755 11.1848 30.4938 9.4789C31.112 7.7396 32.7307 6.41282 34.563 6.10064ZM34.9002 8.21902C34.2932 8.37511 33.7312 8.72074 33.3265 9.20017C32.2474 10.4712 32.2923 12.545 33.4501 13.7603C34.1358 14.485 35.2037 14.8418 36.1929 14.6411C37.0697 14.4738 37.8566 13.8941 38.2837 13.1136C39.0144 11.7757 38.8008 9.94718 37.6543 8.91028C36.9236 8.24132 35.8557 7.97373 34.9002 8.21902Z" fill="#0A0A10"/>
<path d="M44.6699 6.74734C45.9626 5.94459 47.6825 5.7216 49.0764 6.41286C49.5147 6.6024 49.8745 6.92574 50.2229 7.24907C50.2342 6.94803 50.2229 6.63585 50.2342 6.32367C50.9873 6.33482 51.7405 6.32367 52.5048 6.33482V16.1686C52.4936 17.6514 52.1114 19.2235 51.0323 20.305C49.852 21.498 48.0422 21.8659 46.4122 21.6206C44.6699 21.3642 43.1524 20.1043 42.4779 18.5099C43.1524 18.1866 43.8605 17.9302 44.5575 17.6291C44.9509 18.5434 45.749 19.3238 46.7495 19.5022C47.7499 19.6806 48.9077 19.4353 49.5597 18.6103C50.2566 17.7629 50.2566 16.6034 50.2229 15.5665C49.7058 16.0682 49.1101 16.5142 48.3907 16.6814C46.8282 17.1163 45.1083 16.5811 43.9055 15.5331C42.6915 14.485 41.9721 12.8684 42.0395 11.2628C42.0732 9.44549 43.1074 7.69504 44.6699 6.74734ZM46.9968 8.17447C46.3111 8.28596 45.6703 8.66504 45.2319 9.18906C44.1753 10.4378 44.1753 12.4335 45.2432 13.66C45.8502 14.3847 46.8282 14.786 47.7724 14.6857C48.6604 14.5965 49.481 14.039 49.9194 13.2697C50.6613 11.9653 50.5377 10.1925 49.5372 9.05527C48.919 8.35286 47.9298 8.00723 46.9968 8.17447Z" fill="#0A0A10"/>
<path d="M59.5188 7.3159C60.8677 6.06717 62.9473 5.6435 64.6784 6.30131C66.3196 6.91453 67.365 8.46429 67.8933 10.0587C65.454 11.0621 63.026 12.0544 60.5867 13.0578C60.9239 13.6933 61.441 14.2731 62.138 14.5073C63.1159 14.8529 64.285 14.7302 65.1056 14.0836C65.4316 13.8383 65.6901 13.515 65.9374 13.2028C66.5556 13.6153 67.1739 14.0167 67.7921 14.4292C66.9154 15.7337 65.4428 16.6479 63.8578 16.7929C62.1042 17.0047 60.2382 16.3358 59.1029 14.9755C57.2369 12.8348 57.4168 9.24475 59.5188 7.3159ZM60.7216 9.37854C60.3394 9.92486 60.182 10.5938 60.1933 11.2516C61.8232 10.5827 63.4531 9.91371 65.0831 9.2336C64.8133 8.60923 64.1613 8.23015 63.4981 8.12981C62.4302 7.94027 61.3174 8.50889 60.7216 9.37854Z" fill="#0A0A10"/>
</g>
<defs>
<clipPath id="clip0_1639_97">
<rect width="66.9961" height="21.6894" fill="white" transform="translate(0.896484)"/>
</clipPath>
</defs>
</svg>
