<svg width="67" height="22" viewBox="0 0 67 22" fill="none" xmlns="http://www.w3.org/2000/svg">
<g clip-path="url(#clip0_1639_91)">
<path d="M28.6289 11.4592C28.6289 10.4175 29.1346 9.46937 29.958 8.77878C29.5698 8.08818 29.0641 7.49123 28.4407 6.9645C28.3348 6.88257 28.229 6.80063 28.1231 6.7187C27.4997 6.2505 26.794 5.88764 26.0059 5.60672C25.0767 5.27898 24.077 5.11511 23.0184 5.11511C21.9598 5.11511 20.96 5.27898 20.0308 5.60672C19.1016 5.93446 18.2901 6.39096 17.5961 6.97621C16.9021 7.54975 16.3493 8.22864 15.9612 9.00117C15.5613 9.7737 15.3613 10.6048 15.3613 11.4826C15.3613 12.3488 15.5613 13.1682 15.9612 13.9407C16.3611 14.7132 16.9021 15.3921 17.5961 15.9657C18.2901 16.5392 19.1016 16.9957 20.0308 17.3234C20.96 17.6512 21.9598 17.815 23.0184 17.815C24.077 17.815 25.0767 17.6512 26.0059 17.3234C26.794 17.0425 27.4997 16.668 28.1231 16.2115C28.229 16.1295 28.3348 16.0476 28.4407 15.9657C29.0758 15.4389 29.5816 14.8303 29.958 14.1514C29.1346 13.4608 28.6289 12.501 28.6289 11.4592ZM23.0066 15.2751C22.4538 15.2751 21.9128 15.1931 21.4188 15.041L19.4545 16.3402L20.2426 14.5025C19.1252 13.8119 18.4077 12.7 18.4077 11.4592C18.4077 9.35232 20.466 7.64339 23.0066 7.64339C24.2887 7.64339 25.4414 8.07648 26.2765 8.77878C27.0998 9.46937 27.6056 10.4175 27.6056 11.4592C27.6056 12.501 27.0998 13.4491 26.2765 14.1397C25.4414 14.842 24.2887 15.2751 23.0066 15.2751Z" fill="#0A0A10"/>
<path d="M40.3084 8.98944C39.9085 8.21691 39.3674 7.53802 38.6734 6.96447C37.9795 6.39092 37.1679 5.93443 36.2387 5.59498C35.3095 5.26724 34.3097 5.10337 33.2512 5.10337C32.1926 5.10337 31.1693 5.26724 30.2401 5.59498C29.452 5.8759 28.7463 6.25046 28.1229 6.70696C28.0171 6.78889 27.9112 6.87083 27.8054 6.95276C27.1702 7.47949 26.6644 8.08815 26.2763 8.76704C27.0996 9.45764 27.6054 10.4057 27.6054 11.4475C27.6054 12.4892 27.0996 13.4373 26.2763 14.1279C26.6644 14.8185 27.1702 15.4155 27.8054 15.9422C27.9112 16.0241 28.0171 16.1061 28.1229 16.188C28.7463 16.6445 29.452 17.0191 30.2401 17.3C31.1693 17.6277 32.1691 17.7916 33.2276 17.7916C34.2862 17.7916 35.286 17.6277 36.2152 17.3C37.1444 16.9722 37.956 16.5158 38.6499 15.9422C39.3439 15.357 39.8967 14.6898 40.2848 13.9172C40.6847 13.1447 40.8847 12.3254 40.8847 11.4592C40.8965 10.593 40.6965 9.76197 40.3084 8.98944ZM36.8033 16.3402L34.8273 15.0409C34.3333 15.1931 33.7922 15.275 33.2276 15.275C31.9456 15.275 30.7929 14.8419 29.9578 14.1396C29.1345 13.449 28.6287 12.5009 28.6287 11.4592C28.6287 10.4174 29.1345 9.46934 29.9578 8.77875C30.7929 8.07645 31.9456 7.64336 33.2276 7.64336C35.7682 7.64336 37.8266 9.35229 37.8266 11.4592C37.8266 12.6999 37.1091 13.8002 36.0035 14.5025L36.8033 16.3402ZM1.65844 20.4369C1.63492 20.5423 1.61139 20.6359 1.56435 20.7179C1.5173 20.7998 1.47025 20.87 1.39968 20.9285C1.32911 20.9871 1.25853 21.0339 1.16444 21.069C1.0821 21.1041 0.976246 21.1158 0.870388 21.1158C0.752768 21.1158 0.64691 21.0924 0.541052 21.0573C0.435194 21.0222 0.35286 20.952 0.270526 20.8817C0.199954 20.7998 0.141144 20.7061 0.094096 20.5891C0.047048 20.472 0.035286 20.3316 0.035286 20.1794C0.035286 20.0273 0.05881 19.8868 0.094096 19.7697C0.129382 19.6527 0.188192 19.5474 0.258764 19.4654C0.329336 19.3835 0.423432 19.3133 0.52929 19.2664C0.635148 19.2196 0.752768 19.1962 0.88215 19.1962C0.99977 19.1962 1.09387 19.2079 1.18796 19.243C1.2703 19.2781 1.35263 19.325 1.4232 19.3835C1.49377 19.442 1.54082 19.5122 1.57611 19.5942C1.61139 19.6761 1.63492 19.758 1.64668 19.8517H1.2703C1.24677 19.7463 1.19972 19.6644 1.11739 19.6059C1.04682 19.5474 0.964484 19.5239 0.870388 19.5239C0.717482 19.5239 0.599862 19.5825 0.517528 19.6878C0.446956 19.8049 0.41167 19.957 0.41167 20.156C0.41167 20.355 0.446956 20.5072 0.517528 20.6242C0.5881 20.7413 0.70572 20.7881 0.846864 20.7881C0.964484 20.7881 1.04682 20.753 1.11739 20.6944C1.18796 20.6359 1.23501 20.5423 1.25853 20.4369H1.65844ZM4.10494 21.0924C3.99908 21.0924 3.89322 21.0807 3.81089 21.0456C3.72855 21.0105 3.65798 20.9637 3.59917 20.9051C3.54036 20.8466 3.49331 20.7647 3.46979 20.6827C3.44626 20.6008 3.41098 20.4838 3.41098 20.3901C3.41098 20.2848 3.42274 20.1911 3.45803 20.0975C3.49331 20.0038 3.54036 19.9336 3.59917 19.8751C3.65798 19.8166 3.72855 19.7697 3.81089 19.7346C3.89322 19.6995 3.98732 19.6878 4.09317 19.6878C4.19903 19.6878 4.29313 19.6995 4.37546 19.7346C4.4578 19.7697 4.52837 19.8166 4.58718 19.8751C4.64599 19.9336 4.69304 20.0156 4.72832 20.0975C4.76361 20.1794 4.77537 20.2848 4.77537 20.3901C4.77537 20.4955 4.76361 20.5891 4.72832 20.6827C4.69304 20.7647 4.65775 20.8349 4.58718 20.9051C4.52837 20.9637 4.4578 21.0222 4.37546 21.0456C4.30489 21.069 4.21079 21.0924 4.10494 21.0924ZM4.10494 20.7881C4.31665 20.7881 4.43427 20.6476 4.43427 20.3784C4.43427 20.1092 4.32841 19.9687 4.10494 19.9687C3.89322 19.9687 3.7756 20.1092 3.7756 20.3784C3.7756 20.6593 3.88146 20.7881 4.10494 20.7881ZM8.18635 21.0573V20.2497C8.18635 20.1677 8.16283 20.0975 8.12754 20.0507C8.09225 20.0038 8.03344 19.9687 7.97463 19.9804C7.90406 19.9804 7.85701 20.0038 7.80997 20.0624C7.76292 20.1209 7.75116 20.1794 7.75116 20.2614V21.0573H7.3983V20.2497C7.3983 20.1911 7.3983 20.156 7.38653 20.1209C7.37477 20.0858 7.36301 20.0624 7.35125 20.039C7.32772 20.0156 7.31596 20.0038 7.28068 19.9921C7.24539 19.9804 7.2101 19.9804 7.18658 19.9804C7.04544 19.9804 6.97486 20.0624 6.97486 20.2379V21.0456H6.622V19.7112H6.95134V19.9102C6.99839 19.8166 7.0572 19.758 7.11601 19.7229C7.17482 19.6878 7.25715 19.6761 7.33949 19.6761C7.38653 19.6761 7.42182 19.6761 7.45711 19.6878C7.49239 19.6995 7.52768 19.7112 7.5512 19.7229C7.57473 19.7346 7.61001 19.758 7.63354 19.7932C7.65706 19.8166 7.68058 19.8517 7.70411 19.8868C7.73939 19.8166 7.78644 19.758 7.84525 19.7229C7.90406 19.6878 7.97463 19.6761 8.06873 19.6761C8.1393 19.6761 8.19811 19.6878 8.25692 19.7112C8.31573 19.7346 8.36278 19.7697 8.39807 19.8049C8.4804 19.8868 8.52745 20.0038 8.52745 20.1209V21.0456L8.18635 21.0573ZM11.268 21.0573V20.87C11.1739 21.0222 11.0328 21.0924 10.8446 21.0924C10.774 21.0924 10.7152 21.0807 10.6564 21.0573C10.5976 21.0339 10.5505 20.9988 10.5152 20.952C10.4799 20.9051 10.4447 20.8583 10.4211 20.7998C10.3976 20.7413 10.3858 20.671 10.3858 20.6008V19.7229H10.7387V20.554C10.7387 20.7179 10.8093 20.7998 10.9622 20.7998C11.0563 20.7998 11.1268 20.7764 11.1739 20.7179C11.2209 20.6593 11.2445 20.5891 11.2445 20.4955V19.7229H11.5973V21.0573H11.268ZM14.3143 21.0573V20.2497C14.3143 20.1443 14.3026 20.0741 14.2673 20.039C14.232 20.0038 14.1732 19.9804 14.0909 19.9804C13.9027 19.9804 13.8203 20.0858 13.8203 20.2848V21.0456H13.4675V19.7112H13.8086V19.9102C13.8556 19.84 13.9027 19.7815 13.9733 19.7346C14.0438 19.6995 14.1262 19.6761 14.2438 19.6761C14.3026 19.6761 14.3614 19.6878 14.4202 19.6995C14.479 19.7112 14.5261 19.7463 14.5614 19.7815C14.5966 19.8166 14.6319 19.8634 14.6554 19.9219C14.679 19.9804 14.6907 20.039 14.6907 20.1092V21.0339L14.3143 21.0573ZM16.5374 19.5591V19.2313H16.8902V19.5591H16.5374ZM16.5374 21.0573V19.7229H16.8902V21.0573H16.5374ZM19.9601 20.5657C19.9483 20.7061 19.8778 20.8466 19.7602 20.9402C19.7013 20.9871 19.6425 21.0222 19.572 21.0456C19.5014 21.069 19.4191 21.0807 19.3485 21.0807C19.2544 21.0807 19.1721 21.069 19.1015 21.0339C19.0309 20.9988 18.9603 20.9637 18.9015 20.8934C18.8427 20.8232 18.8074 20.753 18.7721 20.671C18.7369 20.5774 18.7251 20.472 18.7251 20.355C18.7251 20.2379 18.7369 20.1326 18.7721 20.0507C18.8074 19.9687 18.8427 19.8985 18.9015 19.84C18.9603 19.7815 19.0191 19.7463 19.1015 19.7112C19.1838 19.6878 19.2661 19.6761 19.3602 19.6761C19.4426 19.6761 19.5249 19.6878 19.5955 19.7112C19.6661 19.7346 19.7249 19.7697 19.7837 19.8166C19.8425 19.8634 19.8778 19.9219 19.9131 19.9804C19.9483 20.039 19.9601 20.1092 19.9719 20.1911H19.619C19.6072 20.1209 19.5837 20.0741 19.5367 20.0273C19.4896 19.9921 19.4308 19.9687 19.3602 19.9687C19.325 19.9687 19.2897 19.9804 19.2544 19.9921C19.2191 20.0038 19.1956 20.0273 19.1721 20.0507C19.1485 20.0858 19.125 20.1209 19.1132 20.1677C19.1015 20.2145 19.0897 20.2731 19.0897 20.355C19.0897 20.5072 19.1132 20.6125 19.1721 20.6827C19.2191 20.753 19.2897 20.7881 19.3602 20.7881C19.4308 20.7881 19.4896 20.7647 19.5367 20.7296C19.5837 20.6944 19.619 20.6359 19.619 20.5657H19.9601ZM22.6066 21.0573C22.5948 21.0222 22.583 20.9754 22.583 20.9402C22.536 20.9871 22.4889 21.0222 22.4184 21.0573C22.3478 21.0807 22.2655 21.1041 22.1831 21.1041C22.0302 21.1041 21.9126 21.069 21.842 20.9988C21.7715 20.9285 21.7362 20.8466 21.7362 20.7296C21.7362 20.6359 21.7479 20.554 21.7832 20.4955C21.8185 20.4369 21.8538 20.3901 21.9126 20.3667C21.9714 20.3433 22.0302 20.3082 22.1126 20.2965C22.1949 20.2848 22.2772 20.2614 22.3596 20.2497C22.4537 20.2379 22.5125 20.2145 22.536 20.2028C22.5595 20.1911 22.583 20.1443 22.583 20.0975C22.583 20.0507 22.5595 20.0156 22.5242 19.9921C22.4889 19.9687 22.4301 19.957 22.3596 19.957C22.2772 19.957 22.2184 19.9804 22.1831 20.0156C22.1478 20.0507 22.1243 20.0975 22.1126 20.156H21.7832C21.7832 20.0858 21.795 20.0273 21.8185 19.9687C21.842 19.9102 21.8773 19.8634 21.9244 19.8166C21.9714 19.7697 22.0302 19.7463 22.1008 19.7229C22.1714 19.6995 22.2655 19.6878 22.3713 19.6878C22.4772 19.6878 22.5713 19.6995 22.6418 19.7229C22.7124 19.7463 22.7712 19.7815 22.8183 19.8283C22.8653 19.8751 22.9006 19.9336 22.9124 19.9921C22.9359 20.0624 22.9477 20.1326 22.9477 20.2145V21.0573H22.6066ZM22.583 20.4018C22.5595 20.4252 22.536 20.4369 22.5007 20.4486C22.4654 20.4603 22.4184 20.472 22.3478 20.4838C22.2419 20.5072 22.1714 20.5306 22.1361 20.554C22.1008 20.5891 22.0773 20.6242 22.0773 20.6827C22.0773 20.7881 22.1361 20.8349 22.2537 20.8349C22.3007 20.8349 22.336 20.8232 22.3831 20.8115C22.4184 20.7998 22.4536 20.7764 22.4889 20.753C22.5125 20.7296 22.536 20.6944 22.5595 20.6593C22.5713 20.6242 22.583 20.5891 22.583 20.5423V20.4018ZM25.994 20.5657C25.9823 20.7061 25.9117 20.8466 25.7941 20.9402C25.7352 20.9871 25.6764 21.0222 25.6059 21.0456C25.5353 21.069 25.453 21.0807 25.3824 21.0807C25.2883 21.0807 25.206 21.069 25.1354 21.0339C25.0648 20.9988 24.9942 20.9637 24.9354 20.8934C24.8766 20.8232 24.8413 20.753 24.806 20.671C24.7708 20.5774 24.759 20.472 24.759 20.355C24.759 20.2379 24.7708 20.1326 24.806 20.0507C24.8413 19.9687 24.8766 19.8985 24.9354 19.84C24.9942 19.7815 25.0531 19.7463 25.1354 19.7112C25.2177 19.6878 25.3001 19.6761 25.3941 19.6761C25.4765 19.6761 25.5588 19.6878 25.6294 19.7112C25.7 19.7346 25.7588 19.7697 25.8176 19.8166C25.8764 19.8634 25.9117 19.9219 25.947 19.9804C25.9823 20.039 25.994 20.1092 26.0058 20.1911H25.6529C25.6412 20.1209 25.6176 20.0741 25.5706 20.0273C25.5235 19.9921 25.4647 19.9687 25.3941 19.9687C25.3589 19.9687 25.3236 19.9804 25.2883 19.9921C25.253 20.0038 25.2295 20.0273 25.206 20.0507C25.1824 20.0858 25.1589 20.1209 25.1471 20.1677C25.1354 20.2145 25.1236 20.2731 25.1236 20.355C25.1236 20.5072 25.1471 20.6125 25.206 20.6827C25.253 20.753 25.3236 20.7881 25.3941 20.7881C25.4647 20.7881 25.5235 20.7647 25.5706 20.7296C25.6176 20.6944 25.6529 20.6359 25.6529 20.5657H25.994ZM25.253 21.5723C25.3706 21.5606 25.4294 21.5021 25.4294 21.3967H25.253V21.1743H25.5706V21.3265C25.5706 21.3733 25.5706 21.4202 25.5588 21.467C25.5471 21.5021 25.5353 21.5489 25.5118 21.584C25.4882 21.6191 25.453 21.6425 25.4177 21.666C25.3824 21.6894 25.3236 21.7011 25.2648 21.7011L25.253 21.5723ZM28.6405 21.0573C28.6287 21.0222 28.6169 20.9754 28.6169 20.9402C28.5699 20.9871 28.5228 21.0222 28.4523 21.0573C28.3817 21.0807 28.2994 21.1041 28.217 21.1041C28.0641 21.1041 27.9465 21.069 27.8759 20.9988C27.8054 20.9285 27.7701 20.8466 27.7701 20.7296C27.7701 20.6359 27.7818 20.554 27.8171 20.4955C27.8524 20.4369 27.8877 20.3901 27.9465 20.3667C28.0053 20.3433 28.0641 20.3082 28.1465 20.2965C28.2288 20.2848 28.3111 20.2614 28.3935 20.2497C28.4876 20.2379 28.5464 20.2145 28.5699 20.2028C28.5934 20.1911 28.6169 20.1443 28.6169 20.0975C28.6169 20.0507 28.5934 20.0156 28.5581 19.9921C28.5228 19.9687 28.464 19.957 28.3935 19.957C28.3111 19.957 28.2523 19.9804 28.217 20.0156C28.1817 20.0507 28.1582 20.0975 28.1465 20.156H27.8171C27.8171 20.0858 27.8289 20.0273 27.8524 19.9687C27.8759 19.9102 27.9112 19.8634 27.9583 19.8166C28.0053 19.7697 28.0641 19.7463 28.1347 19.7229C28.2053 19.6995 28.2994 19.6878 28.4052 19.6878C28.5111 19.6878 28.6052 19.6995 28.6757 19.7229C28.7463 19.7463 28.8051 19.7815 28.8522 19.8283C28.8992 19.8751 28.9345 19.9336 28.9463 19.9921C28.9698 20.0624 28.9816 20.1326 28.9816 20.2145V21.0573H28.6405ZM28.8639 19.2196C28.8287 19.3132 28.7934 19.3835 28.7346 19.4303C28.6757 19.4654 28.6287 19.4888 28.5699 19.4888C28.5346 19.4888 28.4993 19.4771 28.4758 19.4654C28.4523 19.4537 28.417 19.442 28.3935 19.4186C28.3699 19.4069 28.3346 19.3952 28.3111 19.3718C28.2876 19.3601 28.2523 19.3484 28.2288 19.3484C28.217 19.3484 28.2053 19.3601 28.1817 19.3718C28.1582 19.3835 28.1465 19.4186 28.1229 19.4654L27.9347 19.3601C27.9583 19.2664 28.0053 19.2079 28.0524 19.1728C28.0994 19.1377 28.1465 19.1143 28.2053 19.1143C28.2523 19.1143 28.2876 19.126 28.3229 19.1377C28.3582 19.1494 28.3817 19.1611 28.417 19.1845C28.4405 19.1962 28.4758 19.2196 28.4993 19.2313C28.5228 19.243 28.5464 19.2547 28.5699 19.2547C28.5816 19.2547 28.6052 19.243 28.6287 19.2313C28.6522 19.2196 28.664 19.1845 28.6757 19.1377L28.8639 19.2196ZM28.6169 20.4018C28.5934 20.4252 28.5699 20.4369 28.5346 20.4486C28.4993 20.4603 28.4523 20.472 28.3817 20.4838C28.2758 20.5072 28.2053 20.5306 28.17 20.554C28.1347 20.5891 28.1112 20.6242 28.1112 20.6827C28.1112 20.7881 28.17 20.8349 28.2876 20.8349C28.3346 20.8349 28.3699 20.8232 28.417 20.8115C28.4523 20.7998 28.4876 20.7764 28.5228 20.753C28.5464 20.7296 28.5699 20.6944 28.5934 20.6593C28.6052 20.6242 28.6169 20.5891 28.6169 20.5423V20.4018ZM31.4869 21.0924C31.381 21.0924 31.2751 21.0807 31.1928 21.0456C31.1105 21.0105 31.0399 20.9637 30.9811 20.9051C30.9223 20.8466 30.8752 20.7647 30.8517 20.6827C30.8282 20.6008 30.8047 20.4955 30.8047 20.4018C30.8047 20.2965 30.8164 20.2028 30.8517 20.1092C30.887 20.0156 30.934 19.9453 30.9929 19.8868C31.0517 19.8283 31.1222 19.7815 31.2046 19.7463C31.2869 19.7112 31.381 19.6995 31.4869 19.6995C31.5927 19.6995 31.6868 19.7112 31.7692 19.7463C31.8515 19.7815 31.9221 19.8283 31.9809 19.8868C32.0397 19.9453 32.0867 20.0273 32.122 20.1092C32.1573 20.1911 32.1691 20.2965 32.1691 20.4018C32.1691 20.5072 32.1573 20.6008 32.122 20.6944C32.0867 20.7764 32.0514 20.8466 31.9809 20.9168C31.9221 20.9754 31.8515 21.0339 31.7692 21.0573C31.6868 21.069 31.5927 21.0924 31.4869 21.0924ZM31.4869 20.7881C31.6986 20.7881 31.8162 20.6476 31.8162 20.3784C31.8162 20.1092 31.7103 19.9687 31.4869 19.9687C31.2751 19.9687 31.1575 20.1092 31.1575 20.3784C31.1693 20.6593 31.2751 20.7881 31.4869 20.7881ZM36.7092 20.472C36.7092 20.5774 36.7445 20.6593 36.8033 20.7179C36.8621 20.7764 36.9327 20.8115 37.015 20.8115C37.0738 20.8115 37.1209 20.7998 37.1679 20.7764C37.215 20.753 37.2385 20.7179 37.2502 20.671H37.6149C37.5678 20.8115 37.4972 20.9168 37.3914 20.9871C37.2855 21.0573 37.1679 21.1041 37.015 21.1041C36.568 21.1041 36.3446 20.8583 36.3446 20.3784C36.3446 20.2731 36.3563 20.1794 36.3916 20.0975C36.4151 20.0156 36.4622 19.9453 36.521 19.8868C36.5798 19.8283 36.6504 19.7815 36.721 19.7463C36.8033 19.7112 36.8974 19.6995 36.9915 19.6995C37.2032 19.6995 37.3561 19.7697 37.462 19.8985C37.5678 20.0273 37.6266 20.2262 37.6266 20.4955L36.7092 20.472ZM37.2738 20.2497C37.2738 20.2028 37.262 20.156 37.2502 20.1209C37.2385 20.0858 37.215 20.0507 37.1914 20.0273C37.1679 20.0038 37.1326 19.9804 37.1091 19.9687C37.0738 19.957 37.0385 19.957 37.0032 19.957C36.9327 19.957 36.8739 19.9804 36.815 20.039C36.768 20.0858 36.7327 20.1677 36.721 20.2497H37.2738ZM43.2371 21.0573V19.8166L42.896 21.0573H42.5196L42.1785 19.8283V21.0573H41.8257V19.2547H42.3785L42.7078 20.5774L43.0371 19.2547H43.5782V21.0573H43.2371ZM46.2835 21.0573C46.2717 21.0222 46.2599 20.9754 46.2599 20.9402C46.2129 20.9871 46.1658 21.0222 46.0953 21.0573C46.0247 21.0807 45.9424 21.1041 45.86 21.1041C45.7071 21.1041 45.5895 21.069 45.5189 20.9988C45.4484 20.9285 45.4013 20.8349 45.4013 20.7179C45.4013 20.6242 45.4131 20.5423 45.4484 20.4838C45.4836 20.4252 45.5189 20.3784 45.5777 20.355C45.6365 20.3316 45.6954 20.2965 45.7777 20.2848C45.86 20.2731 45.9424 20.2497 46.0247 20.2379C46.1188 20.2262 46.1776 20.2028 46.2011 20.1911C46.2246 20.1794 46.2482 20.1326 46.2482 20.0858C46.2482 20.039 46.2246 20.0038 46.1894 19.9804C46.1541 19.957 46.0953 19.9453 46.0247 19.9453C45.9424 19.9453 45.8835 19.9687 45.8483 20.0038C45.813 20.039 45.7895 20.0858 45.7777 20.1443H45.4484C45.4484 20.0741 45.4601 20.0156 45.4836 19.957C45.5072 19.8985 45.5424 19.8517 45.5895 19.8049C45.6365 19.758 45.6954 19.7346 45.7659 19.7112C45.8365 19.6878 45.9306 19.6761 46.0365 19.6761C46.1423 19.6761 46.2364 19.6878 46.307 19.7112C46.3776 19.7346 46.4364 19.7697 46.4834 19.8166C46.5305 19.8634 46.5657 19.9219 46.5775 19.9804C46.601 20.0507 46.6128 20.1209 46.6128 20.2028V21.0456L46.2835 21.0573ZM46.2599 20.4018C46.2364 20.4252 46.2129 20.4369 46.1776 20.4486C46.1423 20.4603 46.0953 20.472 46.0247 20.4838C45.9188 20.5072 45.8483 20.5306 45.813 20.554C45.7777 20.5891 45.7542 20.6242 45.7542 20.6827C45.7542 20.7881 45.813 20.8349 45.9306 20.8349C45.9776 20.8349 46.0129 20.8232 46.06 20.8115C46.0953 20.7998 46.1306 20.7764 46.1658 20.753C46.1894 20.7296 46.2129 20.6944 46.2364 20.6593C46.2482 20.6242 46.2599 20.5891 46.2599 20.5423V20.4018ZM48.4712 21.0573V19.7229H48.8005V19.8868C48.824 19.84 48.8593 19.8049 48.8946 19.7815C48.9534 19.7346 49.024 19.6995 49.0946 19.6995H49.2004H49.2475V20.0624C49.2122 20.0624 49.1769 20.0507 49.1534 20.0507C48.9417 20.0507 48.824 20.156 48.824 20.3784V21.069L48.4712 21.0573ZM51.8586 21.0573L51.5646 20.4603L51.3882 20.6359V21.0573H51.0353V19.2313H51.3882V20.2262L51.8351 19.7229H52.2703L51.8234 20.2145L52.2585 21.0573H51.8586ZM54.2463 20.472C54.2463 20.5774 54.2816 20.6593 54.3404 20.7179C54.3992 20.7764 54.4698 20.8115 54.5521 20.8115C54.6109 20.8115 54.658 20.7998 54.705 20.7764C54.7521 20.753 54.7756 20.7179 54.7874 20.671H55.152C55.1049 20.8115 55.0344 20.9168 54.9285 20.9871C54.8227 21.0573 54.705 21.1041 54.5521 21.1041C54.1052 21.1041 53.8817 20.8583 53.8817 20.3784C53.8817 20.2731 53.8935 20.1794 53.9288 20.0975C53.9523 20.0156 53.9993 19.9453 54.0581 19.8868C54.1169 19.8283 54.1875 19.7815 54.2581 19.7463C54.3404 19.7112 54.4345 19.6995 54.5286 19.6995C54.7403 19.6995 54.8932 19.7697 54.9991 19.8985C55.105 20.0273 55.1638 20.2262 55.1638 20.4955L54.2463 20.472ZM54.7991 20.2497C54.7991 20.2028 54.7874 20.156 54.7756 20.1209C54.7639 20.0858 54.7403 20.0507 54.7168 20.0273C54.6933 20.0038 54.658 19.9804 54.6345 19.9687C54.5992 19.957 54.5639 19.957 54.5286 19.957C54.458 19.957 54.3992 19.9804 54.3404 20.039C54.2934 20.0858 54.2581 20.1677 54.2463 20.2497H54.7991ZM57.7514 20.1794H58.0807V20.554C58.0807 20.6242 58.069 20.6944 58.0455 20.753C58.0219 20.8115 57.9866 20.87 57.9514 20.9285C57.9043 20.9754 57.8455 21.0222 57.7867 21.0456C57.7279 21.069 57.6338 21.0924 57.5397 21.0924C57.4456 21.0924 57.3633 21.0807 57.2927 21.0456C57.2221 21.0222 57.1751 20.9754 57.1163 20.9285C57.0692 20.8817 57.0339 20.8232 57.0222 20.753C56.9986 20.6827 56.9869 20.6125 56.9869 20.5423V19.3484H57.3397V19.7112H58.0807V19.957H57.3397V20.5072C57.3397 20.5891 57.3515 20.6593 57.3868 20.7061C57.4221 20.753 57.4691 20.7764 57.5397 20.7764C57.6103 20.7764 57.6573 20.753 57.6926 20.7061C57.7279 20.6593 57.7396 20.6008 57.7396 20.5189L57.7514 20.1794ZM59.9274 19.5591V19.2313H60.2802V19.5591H59.9274ZM59.9274 21.0573V19.7229H60.2802V21.0573H59.9274ZM63.009 21.0573V20.2497C63.009 20.1443 62.9972 20.0741 62.962 20.039C62.9267 20.0038 62.8679 19.9804 62.7855 19.9804C62.5973 19.9804 62.515 20.0858 62.515 20.2848V21.0456H62.1622V19.7112H62.5033V19.9102C62.5503 19.84 62.5973 19.7815 62.6679 19.7346C62.7385 19.6995 62.8208 19.6761 62.9384 19.6761C62.9972 19.6761 63.0561 19.6878 63.1149 19.6995C63.1737 19.7112 63.2207 19.7463 63.256 19.7815C63.2913 19.8166 63.3266 19.8634 63.3501 19.9219C63.3736 19.9804 63.3854 20.039 63.3854 20.1092V21.0339L63.009 21.0573ZM66.1612 20.87C66.1377 20.9285 66.0907 20.9754 66.0201 21.0105C65.9495 21.0456 65.8789 21.0573 65.7848 21.0573C65.679 21.0573 65.5849 21.0339 65.5026 20.9988C65.432 20.9637 65.3732 20.9051 65.3144 20.8466C65.2673 20.7764 65.232 20.7061 65.2085 20.6242C65.185 20.5423 65.1732 20.4603 65.1732 20.3667C65.1732 20.2614 65.185 20.1677 65.2203 20.0858C65.2556 20.0038 65.2908 19.9219 65.3496 19.8634C65.3967 19.8049 65.4673 19.758 65.5378 19.7229C65.6084 19.6878 65.6907 19.6761 65.7613 19.6761C65.926 19.6761 66.0554 19.7463 66.1377 19.8751V19.7112H66.4906V21.069C66.4906 21.1743 66.4788 21.2563 66.4435 21.3382C66.4082 21.4084 66.3612 21.4787 66.3024 21.5255C66.2436 21.5723 66.173 21.6191 66.0907 21.6425C66.0083 21.666 65.926 21.6777 65.8319 21.6777C65.7496 21.6777 65.6555 21.666 65.5731 21.6425C65.4908 21.6191 65.4202 21.584 65.3614 21.5255C65.3026 21.4787 65.2556 21.4202 65.232 21.3499C65.2085 21.2797 65.185 21.1978 65.185 21.1158H65.5143C65.5143 21.1978 65.5378 21.2563 65.5967 21.3031C65.6555 21.3499 65.726 21.3733 65.8084 21.3733C65.9025 21.3733 65.9848 21.3499 66.0436 21.2914C66.1142 21.2446 66.1377 21.1743 66.1377 21.0807V20.87H66.1612ZM65.8672 20.7881C65.9495 20.7881 66.0318 20.753 66.0789 20.6944C66.1259 20.6359 66.1612 20.5423 66.1612 20.4252C66.1612 20.1443 66.0554 19.9921 65.8554 19.9921C65.6555 19.9921 65.5496 20.1326 65.5496 20.4018C65.5496 20.5189 65.5731 20.6125 65.6319 20.6827C65.7025 20.753 65.7731 20.7881 65.8672 20.7881ZM15.3494 2.53998V17.815H12.7971V7.63165L7.66882 15.2633L2.57588 7.63165V17.8033H0.011762L0 2.53998H2.57588L7.66882 10.1716L12.7971 2.53998H15.3494Z" fill="#0A0A10"/>
<path d="M53.1623 8.96608C52.833 8.19355 52.3743 7.51466 51.7979 6.94111C51.2216 6.36757 50.5394 5.91107 49.7631 5.57163C48.9868 5.24389 48.1635 5.08002 47.2696 5.08002C46.3757 5.08002 45.5523 5.24389 44.776 5.57163C43.9997 5.89937 43.3175 6.35586 42.7412 6.94111C42.1649 7.51466 41.7061 8.19355 41.3768 8.96608C41.0475 9.73861 40.8828 10.5697 40.8828 11.4475C40.8828 12.3137 41.0475 13.1331 41.3768 13.9056C41.7061 14.6781 42.1649 15.357 42.7412 15.9306C43.3175 16.5041 43.9997 16.9606 44.776 17.2883C45.5523 17.6161 46.3757 17.7799 47.2696 17.7799C48.1635 17.7799 48.9868 17.6161 49.7631 17.2883C49.9513 17.2064 50.1395 17.1128 50.3277 17.0191L48.387 15.0761C48.0341 15.1814 47.6577 15.24 47.2696 15.24C45.1524 15.24 43.4352 13.531 43.4352 11.4241C43.4352 9.31723 45.1642 7.62 47.2813 7.62C49.3985 7.62 51.1157 9.32893 51.1157 11.4358L53.5505 12.6532C53.6211 12.2552 53.6681 11.8572 53.6681 11.4475C53.6681 10.5697 53.5034 9.73861 53.1623 8.96608ZM66.3122 12.7117C66.3946 12.3254 66.4416 11.904 66.4416 11.4709C66.4416 10.5931 66.277 9.76202 65.9476 8.98949C65.6183 8.21696 65.1596 7.54977 64.5832 6.96452C64.0069 6.39098 63.3247 5.93448 62.5484 5.60674C61.7721 5.279 60.9488 5.11513 60.0549 5.11513C59.161 5.11513 58.3376 5.29071 57.5613 5.61845C56.785 5.94619 56.1146 6.40268 55.5265 6.97623C54.9502 7.54977 54.4914 8.22866 54.1621 9.00119C53.8328 9.77372 53.6681 10.5931 53.6681 11.4827C53.6681 12.3488 53.8328 13.1682 54.1621 13.9407C54.4914 14.7132 54.9502 15.3804 55.5265 15.9657C56.1028 16.5392 56.785 16.9957 57.5613 17.3235C58.3376 17.6512 59.161 17.8151 60.0549 17.8151C61.0193 17.8151 61.9133 17.6278 62.7366 17.2532C62.866 17.1947 62.9954 17.1245 63.1247 17.0542L61.1605 15.0995C60.7959 15.2048 60.4195 15.2634 60.0431 15.2634C58.3729 15.2634 56.9615 14.1982 56.4439 12.7234L66.3122 12.7117ZM60.0549 7.66682C61.7015 7.66682 63.113 8.70857 63.6423 10.1717H56.4675C56.9967 8.70857 58.3964 7.66682 60.0549 7.66682Z" fill="#0A0A10"/>
<path d="M51.1055 0H53.6578V17.8033H51.1055V0ZM63.8672 11.4592C63.8672 11.6348 63.8555 11.8104 63.832 11.9742C63.7967 12.2317 63.7379 12.4775 63.6555 12.7116H56.4572C56.316 12.3137 56.2455 11.8806 56.2455 11.4592C56.2455 11.0027 56.3278 10.5696 56.4689 10.1716H63.6438C63.7379 10.4175 63.7967 10.6867 63.832 10.9442C63.8555 11.1198 63.8672 11.2836 63.8672 11.4592Z" fill="#0A0A10"/>
<path d="M56.1641 10.1716H63.8329V12.7116H56.1641V10.1716Z" fill="#0A0A10"/>
</g>
<defs>
<clipPath id="clip0_1639_91">
<rect width="66.5141" height="21.6894" fill="white"/>
</clipPath>
</defs>
</svg>
