<svg width="67" height="22" viewBox="0 0 67 22" fill="none" xmlns="http://www.w3.org/2000/svg">
<g clip-path="url(#clip0_1639_107)">
<path d="M15.9434 14.9474C16.04 14.9576 16.1366 14.9292 16.2125 14.8683C16.2883 14.8075 16.3371 14.7192 16.3485 14.6225V13.4041C16.3288 13.1853 16.1659 13.0217 15.9434 12.998H3.62937C3.52535 13.008 3.42806 13.0541 3.35416 13.1282C3.28026 13.2023 3.23436 13.2998 3.22431 13.4041V14.6225C3.24886 14.8037 3.41211 14.9674 3.62937 14.9474H15.9434ZM15.9434 1.95067C16.1659 1.93683 16.3288 1.77345 16.3485 1.54453V0.326114C16.3288 0.154428 16.1659 -0.0089511 15.9434 0.00120238H3.62937C3.41211 -0.0089511 3.24855 0.154735 3.22431 0.326114V1.54453C3.24886 1.77345 3.41211 1.93683 3.62937 1.95067H15.9434ZM21.2903 14.9474C21.4824 14.9677 21.6453 14.8044 21.6144 14.6225V0.326421C21.6453 0.154735 21.4824 -0.00864342 21.2903 0.00151006H19.751C19.5304 -0.00864342 19.3668 0.155043 19.346 0.326421V14.6225C19.3576 14.7191 19.4066 14.8072 19.4823 14.8679C19.5581 14.9287 19.6545 14.9572 19.751 14.9474H21.2903ZM57.4226 10.2362H51.5086C51.2821 10.2295 51.1395 10.3778 51.0225 10.5611L50.5364 11.6171C50.4223 11.7946 50.5435 12.006 50.7795 12.0232H58.3137L59.61 14.7038C59.6842 14.8622 59.8739 14.9677 60.015 14.9474H61.7163C61.9412 14.9677 61.9412 14.7561 61.8783 14.6225L54.9112 0.244886C54.8105 0.0756612 54.6209 -0.0089511 54.5061 0.00120238H53.2099C53.0807 -0.0089511 52.954 0.0332012 52.8858 0.244886L45.7567 14.6225C45.5913 14.8197 45.7386 14.9677 45.8377 14.9474H47.4579C47.7433 14.9677 47.8698 14.8407 47.944 14.7038L53.858 2.84448L57.4226 10.2362ZM14.4042 3.90045C14.5469 3.76199 14.5392 3.53092 14.4042 3.41308L13.513 2.6008C13.3583 2.42696 13.1279 2.43496 13.0269 2.6008L4.92559 11.2922C4.76724 11.4488 4.77522 11.6805 4.92559 11.7795L5.81674 12.6731C5.95605 12.7841 6.18682 12.7758 6.30282 12.5918L14.4042 3.90045ZM43.0022 0.00120238C43.213 -0.0089511 43.376 0.154735 43.4073 0.326114V14.6222C43.376 14.8041 43.213 14.9674 43.0022 14.9471H41.4629C41.2607 14.9674 41.0975 14.8041 41.0579 14.6222V3.41308L36.4401 8.85535C36.3382 8.96765 36.1078 8.98365 35.954 8.85535L35.2249 8.04307C35.0371 7.90092 35.0215 7.66985 35.1439 7.5557L41.3009 0.326421C41.5191 0.0971989 41.6882 -0.00864342 41.868 0.00151006L43.0022 0.00120238ZM27.5283 0.326421L35.4676 9.50517C35.603 9.6867 35.5873 9.91777 35.4676 10.0738L34.6575 10.886C34.5167 11.043 34.2862 11.027 34.1714 10.886L27.3663 3.00663V14.6222C27.3838 14.8041 27.2208 14.9674 27.0423 14.9471H25.503C25.2689 14.9674 25.1053 14.8041 25.0979 14.6222V0.326421C25.1053 0.154735 25.2689 -0.00864342 25.503 0.00151006H27.0423C27.1942 -0.00864342 27.4335 0.23904 27.5283 0.326421ZM0.712891 16.9781H63.5796V17.4655H0.712891V16.9781ZM28.7435 20.146C28.7006 20.0285 28.6346 19.7817 28.2575 19.8211C28.0687 19.782 27.7625 19.9282 27.7714 20.5522C27.7625 20.9392 27.9101 21.2927 28.2575 21.2832C28.5161 21.2927 28.6834 21.1494 28.7435 20.8771H29.1486C29.0817 21.357 28.7874 21.689 28.2575 21.6893C27.7167 21.689 27.3212 21.2958 27.2853 20.5522C27.3212 19.7759 27.7395 19.3857 28.2575 19.415C28.8942 19.3857 29.1452 19.8368 29.1486 20.146H28.7435ZM31.9841 21.202H33.0372V21.6081H31.579V19.415H31.9841V21.202ZM36.7639 19.8211H35.7107V20.3085H36.6828V20.7146H35.7107V21.2832H36.8452V21.6081H35.3059V19.415H36.7639V19.8211ZM39.4373 21.6081H38.9512L39.6803 19.415H40.2477L40.9766 21.6081H40.4908L40.3288 21.202H39.5996L39.4373 21.6081ZM43.7313 19.415H44.7845C45.3068 19.4436 45.4074 19.8731 45.4326 20.0648C45.4074 20.3026 45.2921 20.5097 45.1086 20.5522C45.2577 20.662 45.3501 20.7291 45.3516 21.1208C45.3501 21.4574 45.3501 21.5367 45.4326 21.6081H44.9465C44.9342 21.5275 44.9171 21.4149 44.9465 21.202C44.9171 20.8906 44.8996 20.7749 44.5415 20.7958H44.1364V21.6081H43.7313V19.415ZM50.3744 21.6081H49.9694V19.8211L49.5643 21.6081H49.0782L48.6731 19.8211V21.6081H48.2681V19.415H48.9162L49.3212 21.202L49.7263 19.415H50.3744V21.6081ZM53.858 21.6081H53.3719L54.101 19.415H54.6681L55.3973 21.6081H54.9112L54.7491 21.202H54.02L53.858 21.6081ZM58.8808 21.202H59.853V21.6081H58.3947V19.415H58.8808V21.202ZM63.8226 21.6081H63.3366V19.8211H62.7695V19.415H64.4708V19.8211H63.8226V21.6081ZM64.3897 16.2471H65.3619V16.4095H64.9568V17.4655H64.7948V16.4095H64.3897V16.2471ZM66.5771 17.4655V16.7344C66.5458 16.7108 66.5492 16.5569 66.5771 16.4095L66.172 17.4655H66.01L65.686 16.4095C65.6985 16.5569 65.7019 16.7108 65.686 16.7344V17.4655H65.5239V16.2471H65.767L66.091 17.303L66.4961 16.2471H66.7391V17.4655H66.5771Z" fill="#0A0A10"/>
<path d="M39.6816 20.7959H40.249L39.9247 19.9024L39.6816 20.7959ZM44.6235 20.3898C44.8662 20.4064 44.9757 20.3242 44.9475 20.1461C44.9757 19.9922 44.9266 19.8215 44.7045 19.8212H44.1374V20.3898H44.6235ZM54.1023 20.7959H54.6694L54.3454 19.9024L54.1023 20.7959Z" fill="#0A0A10"/>
</g>
<defs>
<clipPath id="clip0_1639_107">
<rect width="66.0321" height="21.6894" fill="white" transform="translate(0.710938)"/>
</clipPath>
</defs>
</svg>
