<svg width="35" height="35" viewBox="0 0 35 35" fill="none" xmlns="http://www.w3.org/2000/svg">
<g clip-path="url(#clip0_1842_311)">
<path d="M27.7083 1.45831H7.29167C5.35851 1.46063 3.50519 2.2296 2.13824 3.59655C0.771286 4.9635 0.00231563 6.81682 0 8.74998L0 26.25C0.00231563 28.1831 0.771286 30.0365 2.13824 31.4034C3.50519 32.7704 5.35851 33.5393 7.29167 33.5416H27.7083C29.6415 33.5393 31.4948 32.7704 32.8618 31.4034C34.2287 30.0365 34.9977 28.1831 35 26.25V8.74998C34.9977 6.81682 34.2287 4.9635 32.8618 3.59655C31.4948 2.2296 29.6415 1.46063 27.7083 1.45831ZM7.29167 4.37498H27.7083C28.8687 4.37498 29.9815 4.83592 30.8019 5.65639C31.6224 6.47686 32.0833 7.58966 32.0833 8.74998V10.2083H2.91667V8.74998C2.91667 7.58966 3.3776 6.47686 4.19807 5.65639C5.01855 4.83592 6.13134 4.37498 7.29167 4.37498ZM27.7083 30.625H7.29167C6.13134 30.625 5.01855 30.164 4.19807 29.3436C3.3776 28.5231 2.91667 27.4103 2.91667 26.25V13.125H32.0833V26.25C32.0833 27.4103 31.6224 28.5231 30.8019 29.3436C29.9815 30.164 28.8687 30.625 27.7083 30.625ZM27.7083 18.9583C27.7083 19.3451 27.5547 19.716 27.2812 19.9895C27.0077 20.263 26.6368 20.4166 26.25 20.4166H8.75C8.36323 20.4166 7.99229 20.263 7.7188 19.9895C7.44531 19.716 7.29167 19.3451 7.29167 18.9583C7.29167 18.5715 7.44531 18.2006 7.7188 17.9271C7.99229 17.6536 8.36323 17.5 8.75 17.5H26.25C26.6368 17.5 27.0077 17.6536 27.2812 17.9271C27.5547 18.2006 27.7083 18.5715 27.7083 18.9583ZM21.875 24.7916C21.875 25.1784 21.7214 25.5494 21.4479 25.8228C21.1744 26.0963 20.8034 26.25 20.4167 26.25H8.75C8.36323 26.25 7.99229 26.0963 7.7188 25.8228C7.44531 25.5494 7.29167 25.1784 7.29167 24.7916C7.29167 24.4049 7.44531 24.0339 7.7188 23.7605C7.99229 23.487 8.36323 23.3333 8.75 23.3333H20.4167C20.8034 23.3333 21.1744 23.487 21.4479 23.7605C21.7214 24.0339 21.875 24.4049 21.875 24.7916ZM4.375 7.29165C4.375 7.00322 4.46053 6.72126 4.62077 6.48144C4.78102 6.24162 5.00878 6.0547 5.27525 5.94432C5.54173 5.83394 5.83495 5.80506 6.11784 5.86133C6.40073 5.9176 6.66058 6.0565 6.86453 6.26045C7.06848 6.4644 7.20738 6.72425 7.26365 7.00714C7.31992 7.29003 7.29104 7.58325 7.18066 7.84973C7.07028 8.1162 6.88336 8.34396 6.64354 8.50421C6.40372 8.66445 6.12176 8.74998 5.83333 8.74998C5.44656 8.74998 5.07563 8.59633 4.80214 8.32284C4.52865 8.04935 4.375 7.67842 4.375 7.29165ZM8.75 7.29165C8.75 7.00322 8.83553 6.72126 8.99577 6.48144C9.15602 6.24162 9.38378 6.0547 9.65025 5.94432C9.91673 5.83394 10.21 5.80506 10.4928 5.86133C10.7757 5.9176 11.0356 6.0565 11.2395 6.26045C11.4435 6.4644 11.5824 6.72425 11.6386 7.00714C11.6949 7.29003 11.666 7.58325 11.5557 7.84973C11.4453 8.1162 11.2584 8.34396 11.0185 8.50421C10.7787 8.66445 10.4968 8.74998 10.2083 8.74998C9.82156 8.74998 9.45063 8.59633 9.17714 8.32284C8.90365 8.04935 8.75 7.67842 8.75 7.29165ZM13.125 7.29165C13.125 7.00322 13.2105 6.72126 13.3708 6.48144C13.531 6.24162 13.7588 6.0547 14.0253 5.94432C14.2917 5.83394 14.585 5.80506 14.8678 5.86133C15.1507 5.9176 15.4106 6.0565 15.6145 6.26045C15.8185 6.4644 15.9574 6.72425 16.0136 7.00714C16.0699 7.29003 16.041 7.58325 15.9307 7.84973C15.8203 8.1162 15.6334 8.34396 15.3935 8.50421C15.1537 8.66445 14.8718 8.74998 14.5833 8.74998C14.1966 8.74998 13.8256 8.59633 13.5521 8.32284C13.2786 8.04935 13.125 7.67842 13.125 7.29165Z" fill="#0A0A10"/>
</g>
<defs>
<clipPath id="clip0_1842_311">
<rect width="35" height="35" fill="white"/>
</clipPath>
</defs>
</svg>
