<svg width="35" height="35" viewBox="0 0 35 35" fill="none" xmlns="http://www.w3.org/2000/svg">
<g clip-path="url(#clip0_1861_445)">
<path d="M1.45834 24.0625C1.45834 22.0485 3.09022 20.4166 5.10417 20.4166C7.11813 20.4166 8.75001 22.0485 8.75001 24.0625C8.75001 26.0764 7.11813 27.7083 5.10417 27.7083C3.09022 27.7083 1.45834 26.0764 1.45834 24.0625ZM5.10417 29.1666C2.65417 29.1666 0.519175 30.8816 0.0306328 33.2456C-0.132701 34.0346 0.373341 34.806 1.1623 34.9694C1.94542 35.1283 2.72272 34.6266 2.88605 33.8377C3.09751 32.8212 4.02938 32.0833 5.10417 32.0833C6.17897 32.0833 7.11084 32.8212 7.3223 33.8377C7.46522 34.5275 8.07188 35 8.74855 35C8.84626 35 8.94543 34.9898 9.04605 34.9694C9.83501 34.806 10.3425 34.0346 10.1777 33.2456C9.68917 30.8816 7.55417 29.1666 5.10417 29.1666ZM29.1667 20.4166H16.0417C14.4331 20.4166 13.125 19.1085 13.125 17.5C13.125 15.8914 14.4331 14.5833 16.0417 14.5833H17.5C18.305 14.5833 18.9583 13.93 18.9583 13.125C18.9583 12.32 18.305 11.6666 17.5 11.6666H16.0417C12.8246 11.6666 10.2083 14.2829 10.2083 17.5C10.2083 20.7171 12.8246 23.3333 16.0417 23.3333H29.1667C30.7752 23.3333 32.0833 24.6414 32.0833 26.25C32.0833 27.8585 30.7752 29.1666 29.1667 29.1666H14.5833C13.7783 29.1666 13.125 29.82 13.125 30.625C13.125 31.43 13.7783 32.0833 14.5833 32.0833H29.1667C32.3838 32.0833 35 29.4671 35 26.25C35 23.0329 32.3838 20.4166 29.1667 20.4166ZM22.6086 10.7756L21.3515 14.8079C21.1823 15.3489 21.3704 15.9396 21.8254 16.2794C22.0617 16.4573 22.3446 16.5462 22.6275 16.5462C22.8871 16.5462 23.1452 16.4719 23.3713 16.3202L26.9908 13.8979L30.6717 16.2954C31.1471 16.6046 31.7669 16.5798 32.2175 16.2341C32.6681 15.8871 32.849 15.2935 32.6711 14.7554L31.3629 10.7712L34.5261 8.19436C34.9548 7.83269 35.1138 7.24061 34.9213 6.71269C34.7288 6.18477 34.2271 5.83477 33.6656 5.83477H29.6538L28.2333 1.85061C28.0394 1.32706 27.5392 0.97998 26.9806 0.97998C26.4221 0.97998 25.9219 1.32706 25.7279 1.85061L24.3075 5.83477H20.2956C19.7356 5.83477 19.234 6.18477 19.0415 6.71123C18.8475 7.23769 19.0036 7.82831 19.4308 8.19144L22.6086 10.7756Z" fill="white"/>
</g>
<defs>
<clipPath id="clip0_1861_445">
<rect width="35" height="35" fill="white"/>
</clipPath>
</defs>
</svg>
