<svg width="137" height="42" viewBox="0 0 137 42" fill="none" xmlns="http://www.w3.org/2000/svg">
<circle opacity="0.07" cx="20.5" cy="20.5" r="20.5" fill="#936DFF"/>
<path d="M27.629 31.319C26.1403 31.319 24.7387 31.0483 23.424 30.507C22.1287 29.9657 20.9977 29.2213 20.031 28.274C19.0643 27.3073 18.3007 26.186 17.74 24.91C17.1987 23.6147 16.928 22.2227 16.928 20.734C16.928 19.2453 17.2083 17.863 17.769 16.587C18.3297 15.311 19.103 14.1993 20.089 13.252C21.0943 12.2853 22.264 11.541 23.598 11.019C24.932 10.4777 26.3627 10.207 27.89 10.207C29.6493 10.207 31.2443 10.526 32.675 11.164C34.125 11.802 35.3237 12.6817 36.271 13.803L33.168 16.906C32.5107 16.0553 31.7373 15.4173 30.848 14.992C29.9587 14.5667 28.9533 14.354 27.832 14.354C26.6333 14.354 25.5603 14.6247 24.613 15.166C23.6657 15.688 22.9213 16.4323 22.38 17.399C21.858 18.3463 21.597 19.458 21.597 20.734C21.597 22.01 21.858 23.1313 22.38 24.098C22.902 25.0647 23.6173 25.8187 24.526 26.36C25.4347 26.9013 26.4787 27.172 27.658 27.172C28.8567 27.172 29.8717 26.9497 30.703 26.505C31.5537 26.041 32.2013 25.3837 32.646 24.533C33.11 23.663 33.342 22.6093 33.342 21.372L36.358 23.402L27.223 23.257V19.4H37.982V20.067C37.982 22.5223 37.5373 24.591 36.648 26.273C35.778 27.9357 34.56 29.1923 32.994 30.043C31.4473 30.8937 29.659 31.319 27.629 31.319ZM47.1215 31.319C45.6715 31.319 44.3569 31 43.1775 30.362C42.0175 29.7047 41.0992 28.8153 40.4225 27.694C39.7459 26.5727 39.4075 25.316 39.4075 23.924C39.4075 22.532 39.7459 21.285 40.4225 20.183C41.0992 19.081 42.0175 18.211 43.1775 17.573C44.3375 16.9157 45.6522 16.587 47.1215 16.587C48.5909 16.587 49.9055 16.906 51.0655 17.544C52.2255 18.182 53.1439 19.0617 53.8205 20.183C54.4972 21.285 54.8355 22.532 54.8355 23.924C54.8355 25.316 54.4972 26.5727 53.8205 27.694C53.1439 28.8153 52.2255 29.7047 51.0655 30.362C49.9055 31 48.5909 31.319 47.1215 31.319ZM47.1215 27.288C47.7595 27.288 48.3202 27.1527 48.8035 26.882C49.2869 26.592 49.6542 26.1957 49.9055 25.693C50.1762 25.171 50.3115 24.5813 50.3115 23.924C50.3115 23.2667 50.1762 22.6963 49.9055 22.213C49.6349 21.7103 49.2579 21.3237 48.7745 21.053C48.3105 20.763 47.7595 20.618 47.1215 20.618C46.5029 20.618 45.9519 20.763 45.4685 21.053C44.9852 21.3237 44.6082 21.7103 44.3375 22.213C44.0669 22.7157 43.9315 23.2957 43.9315 23.953C43.9315 24.591 44.0669 25.171 44.3375 25.693C44.6082 26.1957 44.9852 26.592 45.4685 26.882C45.9519 27.1527 46.5029 27.288 47.1215 27.288Z" fill="#00CC61"/>
<path d="M63.5985 31.319C61.9165 31.319 60.4665 31.0483 59.2485 30.507C58.0498 29.9463 56.9478 29.1053 55.9425 27.984L58.9005 25.055C59.5578 25.809 60.2828 26.3987 61.0755 26.824C61.8875 27.23 62.8252 27.433 63.8885 27.433C64.8552 27.433 65.5995 27.259 66.1215 26.911C66.6628 26.563 66.9335 26.0797 66.9335 25.461C66.9335 24.9003 66.7595 24.446 66.4115 24.098C66.0635 23.75 65.5995 23.4503 65.0195 23.199C64.4588 22.9477 63.8305 22.706 63.1345 22.474C62.4578 22.242 61.7812 21.981 61.1045 21.691C60.4278 21.3817 59.7995 21.0047 59.2195 20.56C58.6588 20.096 58.2045 19.5257 57.8565 18.849C57.5085 18.153 57.3345 17.283 57.3345 16.239C57.3345 14.9823 57.6342 13.8997 58.2335 12.991C58.8522 12.0823 59.7028 11.396 60.7855 10.932C61.8682 10.4487 63.1152 10.207 64.5265 10.207C65.9572 10.207 67.2622 10.4583 68.4415 10.961C69.6402 11.4637 70.6262 12.15 71.3995 13.02L68.4415 15.949C67.8228 15.311 67.1945 14.8373 66.5565 14.528C65.9378 14.2187 65.2322 14.064 64.4395 14.064C63.6468 14.064 63.0185 14.2187 62.5545 14.528C62.0905 14.818 61.8585 15.2433 61.8585 15.804C61.8585 16.326 62.0325 16.7513 62.3805 17.08C62.7285 17.3893 63.1828 17.66 63.7435 17.892C64.3235 18.124 64.9518 18.356 65.6285 18.588C66.3245 18.82 67.0108 19.0907 67.6875 19.4C68.3642 19.7093 68.9828 20.1057 69.5435 20.589C70.1235 21.053 70.5875 21.6523 70.9355 22.387C71.2835 23.1023 71.4575 23.9917 71.4575 25.055C71.4575 27.0077 70.7615 28.5447 69.3695 29.666C67.9775 30.768 66.0538 31.319 63.5985 31.319ZM79.7538 31.29C78.4584 31.29 77.2984 30.971 76.2738 30.333C75.2684 29.695 74.4661 28.825 73.8668 27.723C73.2868 26.621 72.9968 25.3643 72.9968 23.953C72.9968 22.5417 73.2868 21.285 73.8668 20.183C74.4661 19.081 75.2684 18.211 76.2738 17.573C77.2984 16.935 78.4584 16.616 79.7538 16.616C80.7011 16.616 81.5518 16.7997 82.3058 17.167C83.0791 17.5343 83.7074 18.0467 84.1908 18.704C84.6741 19.342 84.9448 20.0767 85.0028 20.908V26.998C84.9448 27.8293 84.6741 28.5737 84.1908 29.231C83.7268 29.869 83.1081 30.3717 82.3348 30.739C81.5614 31.1063 80.7011 31.29 79.7538 31.29ZM80.6528 27.288C81.6001 27.288 82.3638 26.9787 82.9438 26.36C83.5238 25.722 83.8138 24.9197 83.8138 23.953C83.8138 23.2957 83.6784 22.7157 83.4078 22.213C83.1564 21.7103 82.7891 21.3237 82.3058 21.053C81.8418 20.763 81.3004 20.618 80.6818 20.618C80.0631 20.618 79.5121 20.763 79.0288 21.053C78.5648 21.3237 78.1878 21.7103 77.8978 22.213C77.6271 22.7157 77.4918 23.2957 77.4918 23.953C77.4918 24.591 77.6271 25.1613 77.8978 25.664C78.1684 26.1667 78.5454 26.563 79.0288 26.853C79.5121 27.143 80.0534 27.288 80.6528 27.288ZM83.6398 31V27.201L84.3068 23.779L83.6398 20.357V16.906H87.9898V31H83.6398ZM97.0009 31.29C95.7055 31.29 94.5455 30.971 93.5209 30.333C92.5155 29.695 91.7132 28.825 91.1139 27.723C90.5339 26.621 90.2439 25.3643 90.2439 23.953C90.2439 22.5417 90.5339 21.285 91.1139 20.183C91.7132 19.081 92.5155 18.211 93.5209 17.573C94.5455 16.935 95.7055 16.616 97.0009 16.616C97.9482 16.616 98.7989 16.7997 99.5529 17.167C100.326 17.5343 100.955 18.0467 101.438 18.704C101.921 19.342 102.192 20.0767 102.25 20.908V26.998C102.192 27.8293 101.921 28.5737 101.438 29.231C100.974 29.869 100.355 30.3717 99.5819 30.739C98.8085 31.1063 97.9482 31.29 97.0009 31.29ZM97.8999 27.288C98.8472 27.288 99.6109 26.9787 100.191 26.36C100.771 25.722 101.061 24.9197 101.061 23.953C101.061 23.2957 100.926 22.7157 100.655 22.213C100.404 21.7103 100.036 21.3237 99.5529 21.053C99.0889 20.763 98.5475 20.618 97.9289 20.618C97.3102 20.618 96.7592 20.763 96.2759 21.053C95.8119 21.3237 95.4349 21.7103 95.1449 22.213C94.8742 22.7157 94.7389 23.2957 94.7389 23.953C94.7389 24.591 94.8742 25.1613 95.1449 25.664C95.4155 26.1667 95.7925 26.563 96.2759 26.853C96.7592 27.143 97.3005 27.288 97.8999 27.288ZM100.887 31V27.201L101.554 23.779L100.887 20.357V16.906H105.237V31H100.887ZM113.494 31.348C112.663 31.348 111.841 31.2417 111.029 31.029C110.236 30.8163 109.492 30.5167 108.796 30.13C108.119 29.724 107.539 29.26 107.056 28.738L109.579 26.186C110.043 26.6887 110.594 27.085 111.232 27.375C111.87 27.6457 112.566 27.781 113.32 27.781C113.842 27.781 114.238 27.7037 114.509 27.549C114.799 27.3943 114.944 27.1817 114.944 26.911C114.944 26.563 114.77 26.302 114.422 26.128C114.093 25.9347 113.668 25.7703 113.146 25.635C112.624 25.4803 112.073 25.316 111.493 25.142C110.913 24.968 110.362 24.7263 109.84 24.417C109.318 24.1077 108.893 23.6823 108.564 23.141C108.235 22.5803 108.071 21.8747 108.071 21.024C108.071 20.1153 108.303 19.3323 108.767 18.675C109.231 17.9983 109.888 17.4667 110.739 17.08C111.59 16.6933 112.585 16.5 113.726 16.5C114.925 16.5 116.027 16.7127 117.032 17.138C118.057 17.544 118.888 18.153 119.526 18.965L117.003 21.517C116.558 20.995 116.056 20.6277 115.495 20.415C114.954 20.2023 114.422 20.096 113.9 20.096C113.397 20.096 113.02 20.1733 112.769 20.328C112.518 20.4633 112.392 20.6663 112.392 20.937C112.392 21.227 112.556 21.459 112.885 21.633C113.214 21.807 113.639 21.9617 114.161 22.097C114.683 22.2323 115.234 22.3967 115.814 22.59C116.394 22.7833 116.945 23.0443 117.467 23.373C117.989 23.7017 118.414 24.1463 118.743 24.707C119.072 25.2483 119.236 25.9637 119.236 26.853C119.236 28.2257 118.714 29.318 117.67 30.13C116.645 30.942 115.253 31.348 113.494 31.348ZM124.427 31.319C123.673 31.319 123.045 31.058 122.542 30.536C122.039 30.014 121.788 29.3857 121.788 28.651C121.788 27.8777 122.039 27.2397 122.542 26.737C123.045 26.215 123.673 25.954 124.427 25.954C125.2 25.954 125.829 26.215 126.312 26.737C126.815 27.2397 127.066 27.8777 127.066 28.651C127.066 29.3857 126.815 30.014 126.312 30.536C125.829 31.058 125.2 31.319 124.427 31.319Z" fill="#0A0A10"/>
</svg>
