<svg width="35" height="35" viewBox="0 0 35 35" fill="none" xmlns="http://www.w3.org/2000/svg">
<g clip-path="url(#clip0_1857_423)">
<path d="M26.2508 0C21.4251 0 17.5008 3.92438 17.5008 8.75C17.5008 13.5756 21.4251 17.5 26.2508 17.5C31.0764 17.5 35.0008 13.5756 35.0008 8.75C35.0008 3.92438 31.0764 0 26.2508 0ZM30.2976 12.9354C29.6487 11.3385 28.0897 10.2083 26.261 10.2083H26.2376C24.4089 10.2083 22.847 11.3356 22.1995 12.9325C21.1043 11.8708 20.4174 10.3921 20.4174 8.75C20.4174 5.53292 23.0337 2.91667 26.2508 2.91667C29.4678 2.91667 32.0841 5.53292 32.0841 8.75C32.0841 10.3935 31.3958 11.8737 30.2976 12.9354ZM28.4383 6.5625C28.4383 7.77 27.4583 8.75 26.2508 8.75C25.0433 8.75 24.0633 7.77 24.0633 6.5625C24.0633 5.355 25.0433 4.375 26.2508 4.375C27.4583 4.375 28.4383 5.355 28.4383 6.5625ZM22.8222 20.7594C21.4455 19.3813 19.0422 19.3813 17.667 20.7594L15.5685 22.8579L13.0426 25.3852C12.0626 26.3667 10.4964 26.479 9.55867 25.6302C9.057 25.1781 8.77117 24.5613 8.75367 23.8919C8.73617 23.221 8.98846 22.5881 9.46242 22.1142L12.1428 19.4338L12.1443 19.4323L14.2414 17.3352C15.6633 15.9133 15.6633 13.6004 14.2414 12.18L13.2555 11.1927C11.8789 9.81458 9.47555 9.81458 8.09888 11.1927L3.2543 16.0373C-1.07695 20.3685 -1.07695 27.4167 3.2543 31.7465C5.41992 33.9121 8.26513 34.9956 11.1089 34.9956C13.9526 34.9956 16.7978 33.9135 18.9635 31.7465L21.708 29.0019L23.8051 26.9033C25.227 25.4815 25.227 23.1685 23.8051 21.7481L22.8178 20.7608L22.8222 20.7594ZM20.2439 22.6085C20.3562 22.6085 20.5735 22.6377 20.7587 22.8215L21.746 23.8088C22.0303 24.0931 22.0303 24.5554 21.746 24.8398L20.6785 25.9073L18.6616 23.8904L19.7305 22.8215C19.9158 22.6348 20.1316 22.6085 20.2453 22.6085H20.2439ZM10.6758 13.0404C10.788 13.0404 11.0053 13.0681 11.1905 13.2533L12.1778 14.2406C12.4622 14.525 12.4622 14.9873 12.1778 15.2717L11.1103 16.3392L9.09346 14.3223L10.1624 13.2533C10.3476 13.0667 10.5635 13.0404 10.6758 13.0404ZM5.31492 29.6844C2.12117 26.4906 2.12117 21.2931 5.31492 18.0994L7.02992 16.3844L9.0468 18.4013L7.39596 20.0521C6.36492 21.0831 5.79617 22.5108 5.83409 23.9677C5.87346 25.4465 6.50055 26.8056 7.60159 27.7988C9.71325 29.699 13.0047 29.5444 15.1003 27.4488L16.5966 25.9525L18.6135 27.9694L16.8985 29.6844C13.7047 32.8767 8.50576 32.8767 5.31346 29.6844H5.31492Z" fill="white"/>
</g>
<defs>
<clipPath id="clip0_1857_423">
<rect width="35" height="35" fill="white"/>
</clipPath>
</defs>
</svg>
