<svg width="35" height="35" viewBox="0 0 35 35" fill="none" xmlns="http://www.w3.org/2000/svg">
<g clip-path="url(#clip0_1850_313)">
<path d="M16.0417 14.5833V16.0417C16.0417 16.8467 15.3883 17.5 14.5833 17.5H7.29167C6.48667 17.5 5.83333 16.8467 5.83333 16.0417V14.5833C5.83333 13.7783 6.48667 13.125 7.29167 13.125H14.5833C15.3883 13.125 16.0417 13.7783 16.0417 14.5833ZM35 9.47917V24.7917C35 25.3123 34.7229 25.795 34.2708 26.0546C33.8202 26.3142 33.2646 26.3142 32.814 26.0546L29.6494 24.2317L27.0725 25.9948C26.8217 26.1669 26.5344 26.25 26.2515 26.25C25.7862 26.25 25.3283 26.0283 25.0469 25.6142C24.5919 24.9506 24.7625 24.0435 25.4275 23.5871L28.7598 21.3062C29.2192 20.9898 29.8258 20.965 30.31 21.2465L32.0833 22.2673V9.47917C32.0833 5.86104 29.139 2.91667 25.5208 2.91667C22.241 2.91667 19.546 5.285 19.059 8.48021C20.7565 9.66729 21.875 11.6302 21.875 13.8542V28.4375C21.875 32.0556 18.9306 35 15.3125 35H6.5625C2.94438 35 0 32.0556 0 28.4375V13.8542C0 11.5835 1.15937 9.58125 2.91667 8.40292V7.29167C2.91667 3.27104 6.18771 0 10.2083 0H25.5208C30.7475 0 35 4.2525 35 9.47917ZM18.9583 13.8542C18.9583 11.8431 17.3235 10.2083 15.3125 10.2083H6.5625C4.55146 10.2083 2.91667 11.8431 2.91667 13.8542V28.4375C2.91667 30.4485 4.55146 32.0833 6.5625 32.0833H15.3125C17.3235 32.0833 18.9583 30.4485 18.9583 28.4375V13.8542ZM16.2808 7.38938C16.6644 5.66417 17.5015 4.13292 18.6652 2.91667H10.2083C7.79625 2.91667 5.83333 4.87958 5.83333 7.29167V7.36604C6.07542 7.33833 6.31313 7.29167 6.5625 7.29167H15.3125C15.6435 7.29167 15.9629 7.34125 16.2808 7.38938ZM14.5833 20.4167H13.125C12.3185 20.4167 11.6667 21.0685 11.6667 21.875C11.6667 22.6815 12.3185 23.3333 13.125 23.3333H14.5833C15.3898 23.3333 16.0417 22.6815 16.0417 21.875C16.0417 21.0685 15.3898 20.4167 14.5833 20.4167ZM14.5833 26.25H13.125C12.3185 26.25 11.6667 26.9019 11.6667 27.7083C11.6667 28.5148 12.3185 29.1667 13.125 29.1667H14.5833C15.3898 29.1667 16.0417 28.5148 16.0417 27.7083C16.0417 26.9019 15.3898 26.25 14.5833 26.25ZM8.75 20.4167H7.29167C6.48521 20.4167 5.83333 21.0685 5.83333 21.875C5.83333 22.6815 6.48521 23.3333 7.29167 23.3333H8.75C9.55646 23.3333 10.2083 22.6815 10.2083 21.875C10.2083 21.0685 9.55646 20.4167 8.75 20.4167ZM8.75 26.25H7.29167C6.48521 26.25 5.83333 26.9019 5.83333 27.7083C5.83333 28.5148 6.48521 29.1667 7.29167 29.1667H8.75C9.55646 29.1667 10.2083 28.5148 10.2083 27.7083C10.2083 26.9019 9.55646 26.25 8.75 26.25Z" fill="#0A0A10"/>
</g>
<defs>
<clipPath id="clip0_1850_313">
<rect width="35" height="35" fill="white"/>
</clipPath>
</defs>
</svg>
