<svg width="266" height="266" viewBox="0 0 266 266" fill="none" xmlns="http://www.w3.org/2000/svg">
<g clip-path="url(#clip0_5208_665)">
<path d="M177.333 221.667H221.667C233.425 221.667 244.701 216.996 253.015 208.682C261.329 200.367 266 189.091 266 177.333V133C266 127.121 263.665 121.483 259.508 117.326C255.35 113.169 249.712 110.833 243.833 110.833L188.417 110.833C188.434 96.1412 194.278 82.0559 204.667 71.6671C215.056 61.2783 229.141 55.4341 243.833 55.4165C248.243 55.4165 252.471 53.6649 255.589 50.5471C258.707 47.4294 260.458 43.2007 260.458 38.7915C260.458 34.3823 258.707 30.1537 255.589 27.0359C252.471 23.9181 248.243 22.1665 243.833 22.1665C220.326 22.1929 197.788 31.543 181.166 48.1655C164.543 64.7881 155.193 87.3254 155.167 110.833V199.5C155.167 205.379 157.502 211.017 161.659 215.174C165.816 219.331 171.454 221.667 177.333 221.667Z" fill="url(#paint0_linear_5208_665)"/>
<path d="M22.1673 221.667H66.5006C78.2586 221.667 89.5349 216.996 97.8491 208.682C106.163 200.367 110.834 189.091 110.834 177.333L110.834 133C110.834 127.121 108.499 121.483 104.342 117.326C100.184 113.169 94.5463 110.833 88.6673 110.833L33.2506 110.833C33.2682 96.1412 39.1124 82.0559 49.5012 71.6671C59.8901 61.2783 73.9753 55.4341 88.6673 55.4165C93.0765 55.4165 97.3052 53.6649 100.423 50.5471C103.541 47.4294 105.292 43.2007 105.292 38.7915C105.292 34.3823 103.541 30.1537 100.423 27.0359C97.3052 23.9181 93.0765 22.1665 88.6673 22.1665C65.1596 22.1929 42.6222 31.543 25.9997 48.1655C9.37717 64.7881 0.0270462 87.3254 0.000640869 110.833L0.000640869 199.5C0.000640869 205.379 2.33606 211.017 6.49312 215.174C10.6502 219.331 16.2883 221.667 22.1673 221.667Z" fill="url(#paint1_linear_5208_665)"/>
</g>
<defs>
<linearGradient id="paint0_linear_5208_665" x1="210.583" y1="22.1665" x2="210.583" y2="221.667" gradientUnits="userSpaceOnUse">
<stop stop-color="#85FFEE"/>
<stop offset="1" stop-color="#4FFFE6"/>
</linearGradient>
<linearGradient id="paint1_linear_5208_665" x1="55.4173" y1="22.1665" x2="55.4173" y2="221.667" gradientUnits="userSpaceOnUse">
<stop stop-color="#85FFEE"/>
<stop offset="1" stop-color="#4FFFE6"/>
</linearGradient>
<clipPath id="clip0_5208_665">
<rect width="266" height="266" fill="white" transform="matrix(-1 0 0 -1 266 266)"/>
</clipPath>
</defs>
</svg>
