<svg width="35" height="35" viewBox="0 0 35 35" fill="none" xmlns="http://www.w3.org/2000/svg">
<g clip-path="url(#clip0_1861_443)">
<path d="M2.73955 26.072C1.47251 27.8215 0.563123 29.8038 0.0635073 31.9053C-0.0319287 32.3237 -0.0196316 32.7595 0.0992474 33.1718C0.218126 33.5842 0.439699 33.9596 0.74322 34.263C1.04674 34.5664 1.42228 34.7878 1.83469 34.9064C2.24709 35.0251 2.68287 35.0372 3.10122 34.9416C5.19954 34.4412 7.17874 33.5323 8.9258 32.267C9.74731 31.4466 10.2093 30.3336 10.2101 29.1726C10.2109 28.0116 9.75052 26.8979 8.93017 26.0764C8.10983 25.2549 6.99674 24.7929 5.83577 24.7921C4.6748 24.7912 3.56106 25.2516 2.73955 26.072ZM6.86372 30.1976C5.68831 30.9504 4.41157 31.5319 3.07205 31.9243C3.46504 30.585 4.04641 29.3083 4.79872 28.1326C5.07376 27.867 5.44214 27.72 5.82451 27.7233C6.20688 27.7266 6.57265 27.88 6.84304 28.1504C7.11342 28.4208 7.26679 28.7865 7.27012 29.1689C7.27344 29.5513 7.12645 29.9197 6.8608 30.1947L6.86372 30.1976ZM26.2493 12.3957C26.2493 13.3627 25.8652 14.29 25.1815 14.9737C24.4978 15.6575 23.5704 16.0416 22.6035 16.0416C21.6366 16.0416 20.7092 15.6575 20.0255 14.9737C19.3418 14.29 18.9577 13.3627 18.9577 12.3957C18.9577 11.4288 19.3418 10.5015 20.0255 9.81775C20.7092 9.13402 21.6366 8.74991 22.6035 8.74991C23.5704 8.74991 24.4978 9.13402 25.1815 9.81775C25.8652 10.5015 26.2493 11.4288 26.2493 12.3957ZM30.5835 -8.91704e-05C27.113 -0.0207197 23.6845 0.758721 20.564 2.27772C17.4436 3.79673 14.7152 6.01443 12.5906 8.75866C10.2735 8.83877 8.00087 9.41724 5.92747 10.4547C3.52299 11.5619 1.56011 13.4447 0.353716 15.801C0.0706086 16.4583 -0.0443073 17.1758 0.0193446 17.8888C0.0829965 18.6017 0.323212 19.2875 0.718299 19.8843C1.11716 20.4957 1.66226 20.998 2.30422 21.3456C2.94619 21.6932 3.66473 21.8751 4.39476 21.8749H8.02017C9.37188 21.8814 10.6664 22.4213 11.6222 23.3771C12.578 24.3329 13.1178 25.6274 13.1243 26.9791V30.6045C13.1238 31.3343 13.3053 32.0526 13.6524 32.6946C13.9995 33.3365 14.5012 33.8818 15.1121 34.281C15.7089 34.676 16.3947 34.9163 17.1076 34.9799C17.8205 35.0436 18.538 34.9286 19.1954 34.6455C21.5517 33.4391 23.4344 31.4763 24.5416 29.0718C25.5791 26.9984 26.1576 24.7258 26.2377 22.4087C28.9863 20.2787 31.2067 17.5435 32.7263 14.4158C34.2459 11.2881 35.0237 7.85213 34.9993 4.37491C34.9976 3.79742 34.8819 3.22595 34.6589 2.69326C34.4359 2.16057 34.1099 1.67714 33.6997 1.2707C33.2894 0.864248 32.803 0.542774 32.2683 0.324705C31.7335 0.106636 31.161 -0.00373823 30.5835 -8.91704e-05ZM6.33726 18.9582H4.39476C4.14815 18.9601 3.90509 18.8995 3.6883 18.7819C3.47152 18.6643 3.28809 18.4937 3.15517 18.286C3.0246 18.093 2.94478 17.8703 2.92312 17.6383C2.90145 17.4063 2.93863 17.1727 3.03122 16.9589C3.97089 15.2368 5.44715 13.8685 7.23559 13.0622C8.15965 12.5989 9.13524 12.2464 10.142 12.0122C8.69252 14.2235 7.42028 16.5461 6.33726 18.9582ZM21.9414 27.7637C21.1351 29.5516 19.7675 31.0278 18.0462 31.968C17.8322 32.0607 17.5983 32.098 17.3661 32.0763C17.1338 32.0547 16.9108 31.9748 16.7177 31.8441C16.5099 31.7112 16.3393 31.5277 16.2217 31.3109C16.1042 31.0942 16.0435 30.8511 16.0454 30.6045V28.662C18.4575 27.579 20.7801 26.3067 22.9914 24.8572C22.7558 25.8642 22.4019 26.8398 21.9371 27.7637H21.9414ZM22.1383 21.9012C20.1649 23.2718 18.0816 24.4771 15.9098 25.5047C15.6132 23.9123 14.8414 22.447 13.6961 21.3017C12.5508 20.1563 11.0855 19.3846 9.49309 19.088C10.5215 16.9181 11.7272 14.8368 13.0981 12.8653C18.0098 6.01408 23.0993 3.13095 30.6243 2.91658C31.0041 2.91643 31.369 3.06446 31.6414 3.32918C31.9137 3.5939 32.072 3.95442 32.0827 4.33408C31.8683 11.8999 28.9852 16.9895 22.1339 21.9012H22.1383Z" fill="white"/>
</g>
<defs>
<clipPath id="clip0_1861_443">
<rect width="35" height="35" fill="white"/>
</clipPath>
</defs>
</svg>
