<svg width="288" height="172" viewBox="0 0 288 172" fill="none" xmlns="http://www.w3.org/2000/svg">
<mask id="mask0_1381_23050" style="mask-type:alpha" maskUnits="userSpaceOnUse" x="0" y="12" width="288" height="160">
<rect x="0.5" y="12" width="287" height="159.138" fill="url(#paint0_linear_1381_23050)"/>
</mask>
<g mask="url(#mask0_1381_23050)">
<g opacity="0.05">
<rect x="155.039" y="15.6797" width="1.83974" height="10.1186" fill="white"/>
<rect x="160.559" y="15.6797" width="1.83974" height="10.1186" fill="white"/>
<rect x="166.078" y="15.6797" width="1.83974" height="10.1186" fill="white"/>
<rect x="171.598" y="15.6797" width="1.83974" height="10.1186" fill="white"/>
<rect x="177.117" y="15.6797" width="1.83974" height="10.1186" fill="white"/>
<rect x="182.637" y="15.6797" width="1.83974" height="10.1186" fill="white"/>
<rect x="188.156" y="15.6797" width="1.83974" height="10.1186" fill="white"/>
<rect x="193.672" y="15.6797" width="1.83974" height="10.1186" fill="white"/>
<rect x="199.191" y="15.6797" width="1.83974" height="10.1186" fill="white"/>
<rect x="204.711" y="15.6797" width="1.83974" height="10.1186" fill="white"/>
<rect x="210.23" y="15.6797" width="1.83974" height="10.1186" fill="white"/>
<rect x="215.75" y="15.6797" width="1.83974" height="10.1186" fill="white"/>
<rect x="221.27" y="15.6797" width="1.83974" height="10.1186" fill="white"/>
<rect x="182.633" y="32.2373" width="1.83974" height="10.1186" fill="white"/>
<rect x="188.152" y="32.2373" width="1.83974" height="10.1186" fill="white"/>
<rect x="193.672" y="32.2373" width="1.83974" height="10.1186" fill="white"/>
<rect x="199.191" y="32.2373" width="1.83974" height="10.1186" fill="white"/>
<rect x="204.711" y="32.2373" width="1.83974" height="10.1186" fill="white"/>
<rect x="210.23" y="32.2373" width="1.83974" height="10.1186" fill="white"/>
<rect x="215.75" y="32.2373" width="1.83974" height="10.1186" fill="white"/>
<rect x="221.266" y="32.2373" width="1.83974" height="10.1186" fill="white"/>
<rect x="226.785" y="32.2373" width="1.83974" height="10.1186" fill="white"/>
<rect x="232.305" y="32.2373" width="1.83974" height="10.1186" fill="white"/>
<rect x="237.824" y="32.2373" width="1.83974" height="10.1186" fill="white"/>
<rect x="243.344" y="32.2373" width="1.83974" height="10.1186" fill="white"/>
<rect x="248.863" y="32.2373" width="1.83974" height="10.1186" fill="white"/>
<rect x="132.961" y="84.6699" width="1.83974" height="10.1186" fill="white"/>
<rect x="138.48" y="84.6699" width="1.83974" height="10.1186" fill="white"/>
<rect x="144" y="84.6699" width="1.83974" height="10.1186" fill="white"/>
<rect x="149.52" y="84.6699" width="1.83974" height="10.1186" fill="white"/>
<rect x="155.039" y="84.6699" width="1.83974" height="10.1186" fill="white"/>
<rect x="160.559" y="84.6699" width="1.83974" height="10.1186" fill="white"/>
<rect x="166.078" y="84.6699" width="1.83974" height="10.1186" fill="white"/>
<rect x="132.961" y="122.385" width="1.83974" height="10.1186" fill="white"/>
<rect x="138.48" y="122.385" width="1.83974" height="10.1186" fill="white"/>
<rect x="144" y="122.385" width="1.83974" height="10.1186" fill="white"/>
<rect x="149.52" y="122.385" width="1.83974" height="10.1186" fill="white"/>
<rect x="155.039" y="122.385" width="1.83974" height="10.1186" fill="white"/>
<rect x="160.559" y="122.385" width="1.83974" height="10.1186" fill="white"/>
<rect x="166.078" y="122.385" width="1.83974" height="10.1186" fill="white"/>
<path d="M35.457 171.138V109.681L74.5754 69.0322H295.781" stroke="url(#paint1_linear_1381_23050)" stroke-width="1.37981"/>
<path d="M268.403 35.8457C269.522 35.5817 270.214 34.461 269.95 33.3424C269.686 32.2239 268.566 31.5312 267.447 31.7952C266.329 32.0592 265.636 33.1799 265.9 34.2984C266.164 35.417 267.285 36.1097 268.403 35.8457Z" fill="white"/>
<path d="M276.257 35.8962C277.406 35.8962 278.338 34.9649 278.338 33.8153C278.338 32.6656 277.406 31.7344 276.257 31.7344C275.108 31.7344 274.176 32.6656 274.176 33.8153C274.176 34.9649 275.108 35.8962 276.257 35.8962Z" fill="white"/>
<path d="M272.093 35.8076C270.944 35.8076 270.012 36.7395 270.012 37.8885C270.012 39.0375 270.944 39.9694 272.093 39.9694C273.242 39.9694 274.174 39.0375 274.174 37.8885C274.174 36.7395 273.242 35.8076 272.093 35.8076Z" fill="white"/>
<path d="M268.272 44.0109C269.406 43.8268 270.176 42.7579 269.992 41.6235C269.808 40.4891 268.739 39.7188 267.605 39.9029C266.47 40.0871 265.7 41.1559 265.884 42.2903C266.068 43.4247 267.137 44.1951 268.272 44.0109Z" fill="white"/>
<path d="M276.257 39.8809C275.108 39.8809 274.176 40.8121 274.176 41.9618C274.176 43.1114 275.108 44.0427 276.257 44.0427C277.406 44.0427 278.338 43.1114 278.338 41.9618C278.338 40.8121 277.406 39.8809 276.257 39.8809Z" fill="white"/>
<path d="M103.747 106.676C104.865 106.412 105.558 105.291 105.294 104.173C105.03 103.054 103.909 102.361 102.791 102.625C101.672 102.889 100.98 104.01 101.244 105.129C101.508 106.247 102.628 106.94 103.747 106.676Z" fill="white"/>
<path d="M111.597 106.726C112.746 106.726 113.677 105.795 113.677 104.645C113.677 103.496 112.746 102.564 111.597 102.564C110.448 102.564 109.516 103.496 109.516 104.645C109.516 105.795 110.448 106.726 111.597 106.726Z" fill="white"/>
<path d="M107.436 106.638C106.287 106.638 105.355 107.57 105.355 108.719C105.355 109.868 106.287 110.799 107.436 110.799C108.585 110.799 109.517 109.868 109.517 108.719C109.517 107.57 108.586 106.638 107.436 106.638Z" fill="white"/>
<path d="M103.615 114.841C104.75 114.657 105.52 113.588 105.336 112.453C105.152 111.319 104.083 110.549 102.949 110.733C101.814 110.917 101.044 111.986 101.228 113.12C101.412 114.255 102.481 115.025 103.615 114.841Z" fill="white"/>
<path d="M111.6 110.711C110.451 110.711 109.52 111.642 109.52 112.792C109.52 113.941 110.451 114.873 111.6 114.873C112.749 114.873 113.681 113.941 113.681 112.792C113.681 111.642 112.749 110.711 111.6 110.711Z" fill="white"/>
<path d="M71.5516 114.954C72.6701 114.69 73.3628 113.57 73.0988 112.451C72.8348 111.333 71.7141 110.64 70.5956 110.904C69.477 111.168 68.7843 112.289 69.0483 113.407C69.3123 114.526 70.4331 115.218 71.5516 114.954Z" fill="white"/>
<path d="M79.4051 115.005C80.5541 115.005 81.486 114.074 81.486 112.924C81.486 111.774 80.5541 110.843 79.4051 110.843C78.2561 110.843 77.3242 111.774 77.3242 112.924C77.3242 114.074 78.2561 115.005 79.4051 115.005Z" fill="white"/>
<path d="M75.2411 114.916C74.0921 114.916 73.1602 115.848 73.1602 116.997C73.1602 118.146 74.0921 119.078 75.2411 119.078C76.3901 119.078 77.322 118.146 77.322 116.997C77.322 115.848 76.3907 114.916 75.2411 114.916Z" fill="white"/>
<path d="M71.4201 123.12C72.5545 122.935 73.3248 121.867 73.1407 120.732C72.9565 119.598 71.8876 118.827 70.7532 119.012C69.6188 119.196 68.8485 120.265 69.0326 121.399C69.2168 122.533 70.2857 123.304 71.4201 123.12Z" fill="white"/>
<path d="M79.4051 118.99C78.2561 118.99 77.3242 119.921 77.3242 121.07C77.3242 122.22 78.2561 123.151 79.4051 123.151C80.5541 123.151 81.486 122.22 81.486 121.07C81.486 119.921 80.5541 118.99 79.4051 118.99Z" fill="white"/>
<path d="M61.8511 150.901V156.44H60.293V150.901M99.5848 150.901V156.44H101.143V150.901M156.763 150.901V156.44H158.322V150.901M66.6215 150.901V156.44H68.1796V150.901M116.406 150.901V156.44H117.964V150.901M121.631 150.901V156.44H123.189V150.901M191.903 150.901V156.44H193.461V150.901M206.55 150.901V156.44H208.108V150.901M274.784 150.901V156.44H276.342V150.901M220.774 150.901V156.44H222.332V150.901M225.998 150.901V156.44H227.556V150.901M242.816 150.901V156.44H244.374V150.901M248.041 150.901V156.44H249.599V150.901M136.91 150.901V156.44H138.468V150.901M154.452 150.901V156.44H156.011V150.901" fill="white"/>
<circle cx="103.065" cy="39.1361" r="2.29968" fill="white"/>
<circle cx="103.065" cy="31.7772" r="2.29968" fill="white"/>
<circle cx="94.788" cy="39.1361" r="2.29968" fill="white"/>
<circle cx="2.29968" cy="2.29968" r="2.29968" transform="matrix(1 0 0 -1 273.699 94.7886)" fill="white"/>
<circle cx="2.29968" cy="2.29968" r="2.29968" transform="matrix(1 0 0 -1 273.699 102.147)" fill="white"/>
<circle cx="2.29968" cy="2.29968" r="2.29968" transform="matrix(1 0 0 -1 265.422 94.7886)" fill="white"/>
<circle cx="2.29968" cy="2.29968" r="2.29968" transform="matrix(-1 0 0 1 251.625 119.625)" fill="white"/>
<circle cx="2.29968" cy="2.29968" r="2.29968" transform="matrix(-1 0 0 1 251.625 112.266)" fill="white"/>
<circle cx="2.29968" cy="2.29968" r="2.29968" transform="matrix(-1 0 0 1 259.902 119.625)" fill="white"/>
<circle cx="2.29968" cy="2.29968" r="2.29968" transform="matrix(-1 0 0 1 269.102 119.625)" fill="white"/>
<circle cx="2.29968" cy="2.29968" r="2.29968" transform="matrix(-1 0 0 1 278.301 119.625)" fill="white"/>
<circle cx="2.29968" cy="2.29968" r="2.29968" transform="matrix(-1 0 0 1 88.8086 21.1987)" fill="white"/>
<circle cx="2.29968" cy="2.29968" r="2.29968" transform="matrix(-1 0 0 1 88.8086 13.8398)" fill="white"/>
<circle cx="2.29968" cy="2.29968" r="2.29968" transform="matrix(-1 0 0 1 97.0859 21.1987)" fill="white"/>
<rect x="66.7305" y="18.4395" width="2.75962" height="22.9968" rx="1.37981" fill="white"/>
<rect x="0.5" y="68.1123" width="59.7917" height="1.37981" fill="url(#paint2_linear_1381_23050)"/>
<path d="M22.2978 29.3415L2.92151 29.3415C2.60068 29.3415 2.33984 29.6091 2.33984 29.9383C2.33984 30.2674 2.59938 30.535 2.92151 30.535L22.2978 30.535C22.59 33.5577 25.0745 35.9167 28.0963 35.9167C31.1194 35.9167 33.6025 33.5564 33.8947 30.535L53.271 30.535C53.5918 30.535 53.8527 30.2674 53.8527 29.9383C53.8527 29.6091 53.5918 29.3415 53.271 29.3415L33.8947 29.3415C33.6025 26.3188 31.1194 23.9598 28.0963 23.9584C25.0745 23.9584 22.59 26.3188 22.2978 29.3415ZM31.3945 26.5543C32.2397 27.4227 32.76 28.6149 32.7613 29.9383C32.7613 31.2616 32.2397 32.4538 31.3945 33.3222C30.5481 34.1893 29.3861 34.7232 28.0963 34.7245C26.8064 34.7245 25.6431 34.1893 24.798 33.3222C23.9529 32.4538 23.4325 31.2616 23.4312 29.9383C23.4312 28.6149 23.9529 27.4227 24.798 26.5543C25.6444 25.6872 26.8064 25.1533 28.0963 25.152C29.3861 25.152 30.5494 25.6872 31.3945 26.5543Z" fill="white"/>
<path d="M132.978 21.6595C132.978 22.9372 131.941 23.9737 130.663 23.9737C129.386 23.9737 128.349 22.9372 128.349 21.6595C128.349 20.3817 129.386 19.3453 130.663 19.3453C131.941 19.3453 132.978 20.3817 132.978 21.6595ZM130.663 17.2667C130.331 17.2667 130.061 17.5366 130.061 17.8694C130.061 18.2022 130.331 18.4721 130.663 18.4721C130.996 18.4721 131.266 18.2022 131.266 17.8694C131.266 17.5366 130.996 17.2667 130.663 17.2667ZM130.663 24.8463C130.331 24.8463 130.061 25.1162 130.061 25.4489C130.061 25.7817 130.331 26.0516 130.663 26.0516C130.996 26.0516 131.266 25.7817 131.266 25.4489C131.266 25.1162 130.996 24.8463 130.663 24.8463ZM135.056 21.6589C135.056 21.3261 134.786 21.0562 134.453 21.0562C134.12 21.0562 133.85 21.3261 133.85 21.6589C133.85 21.9916 134.12 22.2615 134.453 22.2615C134.786 22.2615 135.056 21.9916 135.056 21.6589ZM127.476 21.6589C127.476 21.3261 127.206 21.0562 126.873 21.0562C126.541 21.0562 126.271 21.3261 126.271 21.6589C126.271 21.9916 126.541 22.2615 126.873 22.2615C127.206 22.2615 127.476 21.9916 127.476 21.6589ZM136.359 21.6589H136.076C136.076 23.1544 135.471 24.5059 134.491 25.4858C133.51 26.4657 132.159 27.0709 130.663 27.0715C129.168 27.0715 127.816 26.4663 126.836 25.4858C125.856 24.5052 125.251 23.1538 125.251 21.6589C125.251 20.1633 125.856 18.8118 126.836 17.8313C127.816 16.8514 129.168 16.2462 130.663 16.2455C132.159 16.2455 133.51 16.8508 134.491 17.8313C135.471 18.8118 136.076 20.1633 136.076 21.6589H136.642C136.642 18.3565 133.965 15.6797 130.663 15.6797C127.36 15.6797 124.684 18.3565 124.684 21.6589C124.684 24.9606 127.36 27.6374 130.663 27.6374C133.965 27.6374 136.641 24.9606 136.642 21.6589H136.359H136.359Z" fill="white"/>
<path d="M187.251 109.047C187.251 110.325 186.215 111.361 184.937 111.361C183.659 111.361 182.623 110.325 182.623 109.047C182.623 107.769 183.659 106.733 184.937 106.733C186.215 106.733 187.251 107.769 187.251 109.047ZM184.937 104.654C184.604 104.654 184.334 104.924 184.334 105.257C184.334 105.59 184.604 105.86 184.937 105.86C185.27 105.86 185.54 105.59 185.54 105.257C185.54 104.924 185.27 104.654 184.937 104.654ZM184.937 112.234C184.604 112.234 184.334 112.504 184.334 112.837C184.334 113.169 184.604 113.439 184.937 113.439C185.27 113.439 185.54 113.169 185.54 112.837C185.54 112.504 185.27 112.234 184.937 112.234ZM189.329 109.047C189.329 108.714 189.059 108.444 188.726 108.444C188.394 108.444 188.124 108.714 188.124 109.047C188.124 109.379 188.394 109.649 188.726 109.649C189.059 109.649 189.329 109.379 189.329 109.047ZM181.749 109.047C181.749 108.714 181.48 108.444 181.147 108.444C180.814 108.444 180.544 108.714 180.544 109.047C180.544 109.379 180.814 109.649 181.147 109.649C181.48 109.649 181.749 109.379 181.749 109.047ZM190.633 109.047H190.35C190.35 110.542 189.744 111.894 188.764 112.873C187.784 113.853 186.432 114.459 184.937 114.459C183.441 114.459 182.09 113.854 181.109 112.873C180.129 111.893 179.524 110.541 179.524 109.047C179.524 107.551 180.129 106.2 181.109 105.219C182.09 104.239 183.441 103.634 184.937 103.633C186.432 103.633 187.784 104.238 188.764 105.219C189.744 106.2 190.35 107.551 190.35 109.047H190.915C190.915 105.744 188.239 103.067 184.936 103.067C181.634 103.067 178.958 105.744 178.957 109.047C178.957 112.348 181.634 115.025 184.936 115.025C188.239 115.025 190.915 112.348 190.915 109.047H190.632H190.633Z" fill="white"/>
</g>
</g>
<rect x="130.5" y="101" width="39" height="16" rx="3" fill="white" fill-opacity="0.04"/>
<path opacity="0.04" fill-rule="evenodd" clip-rule="evenodd" d="M214.5 101C212.843 101 211.5 102.343 211.5 104V114C211.5 115.657 212.843 117 214.5 117H224.5C226.157 117 227.5 115.657 227.5 114V104C227.5 102.343 226.157 101 224.5 101H214.5ZM216.5 105C215.948 105 215.5 105.448 215.5 106V112C215.5 112.552 215.948 113 216.5 113H222.5C223.052 113 223.5 112.552 223.5 112V106C223.5 105.448 223.052 105 222.5 105H216.5Z" fill="white"/>
<defs>
<linearGradient id="paint0_linear_1381_23050" x1="287.5" y1="17.9791" x2="-254.5" y2="138" gradientUnits="userSpaceOnUse">
<stop stop-color="#D9D9D9"/>
<stop offset="1" stop-color="#D9D9D9" stop-opacity="0"/>
</linearGradient>
<linearGradient id="paint1_linear_1381_23050" x1="21.199" y1="107.563" x2="256.229" y2="104.927" gradientUnits="userSpaceOnUse">
<stop stop-color="white"/>
<stop offset="1" stop-color="white" stop-opacity="0"/>
</linearGradient>
<linearGradient id="paint2_linear_1381_23050" x1="60.2917" y1="68.1123" x2="11.9984" y2="68.1123" gradientUnits="userSpaceOnUse">
<stop stop-color="white"/>
<stop offset="1" stop-color="white" stop-opacity="0"/>
</linearGradient>
</defs>
</svg>
