<svg width="165" height="51" viewBox="0 0 165 51" fill="none" xmlns="http://www.w3.org/2000/svg">
<g clip-path="url(#clip0_1531_11087)">
<path d="M101.339 34.849L110.107 15.4838C110.187 15.3127 110.33 15.166 110.586 15.166H110.865C111.145 15.166 111.265 15.3127 111.345 15.4838L120.033 34.849C120.2 35.2237 119.977 35.5985 119.553 35.5985H117.102C116.679 35.5985 116.479 35.4274 116.279 35.0282L114.898 31.9243H106.466L105.084 35.0282C104.973 35.3134 104.717 35.5985 104.262 35.5985H101.81C101.395 35.5985 101.172 35.2237 101.339 34.849ZM113.525 28.7224L110.706 22.3923H110.618L107.855 28.7224H113.525Z" fill="white"/>
<path d="M135.811 15.166C138.661 15.166 140.722 16.0866 142.638 17.8382C142.893 18.0663 142.893 18.4166 142.67 18.6448L140.945 20.4534C140.746 20.6896 140.466 20.6896 140.243 20.4534C139.061 19.3862 137.48 18.7507 135.899 18.7507C132.289 18.7507 129.606 21.8302 129.606 25.4637C129.606 29.0565 132.313 32.1035 135.923 32.1035C137.615 32.1035 139.053 31.4435 140.243 30.4659C140.466 30.2623 140.778 30.2948 140.945 30.4659L142.694 32.3071C142.918 32.5109 142.862 32.8855 142.67 33.081C140.753 34.9793 138.326 35.8673 135.819 35.8673C130.181 35.8673 125.638 31.297 125.638 25.5371C125.63 19.8016 130.173 15.166 135.811 15.166Z" fill="white"/>
<path d="M151.511 16.0048C151.511 15.7197 151.734 15.459 152.046 15.459H163.529C163.84 15.459 164.063 15.7197 164.063 16.0048V18.3675C164.063 18.6526 163.832 18.9132 163.529 18.9132H155.176V23.6304H162.138C162.418 23.6304 162.674 23.891 162.674 24.1762V26.5632C162.674 26.881 162.418 27.109 162.138 27.109H155.176V32.1439H163.529C163.84 32.1439 164.063 32.4046 164.063 32.6896V35.0523C164.063 35.3375 163.832 35.5982 163.529 35.5982H152.046C151.734 35.5982 151.511 35.3375 151.511 35.0523V16.0048Z" fill="white"/>
<path d="M0 16.1437C0 15.7689 0.27948 15.4512 0.678736 15.4512H3.16211C3.52942 15.4512 3.84084 15.7689 3.84084 16.1437V23.9159L10.9476 15.7445C11.0594 15.5978 11.2351 15.4593 11.4826 15.4593H14.3014C14.8364 15.4593 15.1238 16.0622 14.7565 16.494L7.39423 24.9504L15.2915 34.5882C15.571 34.963 15.3474 35.5904 14.7805 35.5904H11.7062C11.4267 35.5904 11.259 35.4763 11.2031 35.3866L3.84084 26.1237V34.8979C3.84084 35.2726 3.52942 35.5823 3.16211 35.5823H0.678736C0.287466 35.5823 0 35.2726 0 34.8979V16.1437Z" fill="white"/>
<path d="M24.7373 16.0048C24.7373 15.7197 24.9929 15.459 25.2723 15.459H27.8995C28.179 15.459 28.4345 15.7197 28.4345 16.0048V35.0523C28.4345 35.3374 28.179 35.5982 27.8995 35.5982H25.2723C24.9929 35.5982 24.7373 35.3374 24.7373 35.0523V16.0048Z" fill="white"/>
<path d="M45.0038 18.9133H39.0389C38.7275 18.9133 38.5039 18.6526 38.5039 18.3674V16.0048C38.5039 15.7197 38.7275 15.459 39.0389 15.459H54.6658C54.9772 15.459 55.2008 15.7197 55.2008 16.0048V18.3674C55.2008 18.6526 54.9772 18.9133 54.6658 18.9133H48.7009V35.0523C48.7009 35.3374 48.4455 35.5982 48.1659 35.5982H45.5467C45.2673 35.5982 45.0117 35.3374 45.0117 35.0523V18.9133H45.0038Z" fill="white"/>
<path d="M92.4043 49.7333C91.7336 47.9817 91.1347 46.2056 90.6157 44.4052C88.843 38.2869 87.9486 31.9242 87.9486 25.5044C87.9486 19.0764 88.843 12.7137 90.6157 6.59539C91.1427 4.76233 91.7575 2.95372 92.4363 1.17769C92.4602 1.11252 92.4602 1.11252 92.4761 1.06363C92.7796 0.240795 92.0289 0.493349 91.518 0.737756C91.47 0.762197 91.0788 0.957724 91.0788 0.957724C89.6653 1.67465 88.1961 2.26937 86.671 2.72561C84.2435 3.45069 81.7361 3.8173 79.2208 3.82544C76.7055 3.8173 74.1982 3.45069 71.7707 2.72561C70.2455 2.26937 68.7763 1.67465 67.363 0.957724C67.363 0.957724 66.9716 0.762197 66.9238 0.737756C66.4127 0.493349 65.6621 0.248942 65.9655 1.06363C65.9814 1.10437 65.9814 1.10437 66.0055 1.17769C66.6922 2.95372 67.2991 4.76233 67.8261 6.59539C69.5988 12.7137 70.4932 19.0764 70.4932 25.5044C70.4932 31.9242 69.5988 38.2869 67.8261 44.4052C67.3071 46.2056 66.7082 47.9817 66.0374 49.7333C66.0374 49.7333 65.4544 50.988 66.8678 50.2873C66.8758 50.2792 66.8918 50.2792 66.9078 50.2628C68.4489 49.44 70.0699 48.772 71.7627 48.2669C74.1902 47.5417 76.6975 47.167 79.2128 47.167C81.7282 47.1752 84.2275 47.5417 86.663 48.2669C88.3558 48.772 89.9768 49.44 91.518 50.2628C91.5339 50.2709 91.5499 50.2709 91.5578 50.2873C92.9872 50.9798 92.4043 49.7333 92.4043 49.7333ZM85.4253 8.72173L85.3214 9.20241C84.0997 14.5305 83.4769 20.0216 83.4769 25.5044C83.4769 30.9791 84.0997 36.462 85.3214 41.7983L85.4013 42.1811C85.4013 42.1811 85.601 43.2484 84.5789 43.0855L84.2036 43.0203C82.5427 42.7433 80.8738 42.613 79.2368 42.6047C77.5919 42.613 75.923 42.7514 74.2621 43.0203L73.8868 43.0855C72.8568 43.2484 73.0643 42.1811 73.0643 42.1811L73.1441 41.7983C74.3658 36.4702 74.9888 30.9791 74.9888 25.5044C74.9888 20.0216 74.3658 14.5386 73.1441 9.20241L73.0324 8.72173C73.0244 8.681 72.8327 7.75225 73.7111 7.89075H73.7191L74.2541 7.98036C75.915 8.25736 77.5919 8.39586 79.2288 8.39586C80.8658 8.39586 82.5427 8.24922 84.1957 7.98036L84.7307 7.89075C84.7386 7.89075 84.7386 7.89075 84.7386 7.89075C85.6249 7.74411 85.4333 8.681 85.4253 8.72173Z" fill="white"/>
</g>
<defs>
<clipPath id="clip0_1531_11087">
<rect width="164.062" height="50" fill="white" transform="translate(0 0.5)"/>
</clipPath>
</defs>
</svg>
