<svg width="266" height="266" viewBox="0 0 266 266" fill="none" xmlns="http://www.w3.org/2000/svg">
<path d="M61.8367 138.695C62.1169 138.694 62.3972 138.694 62.686 138.693C63.368 138.723 63.368 138.723 63.5887 138.943C63.9649 138.984 64.3423 139.015 64.7199 139.04C65.7274 139.121 66.6049 139.286 67.5617 139.605C67.5617 139.751 67.5617 139.897 67.5617 140.047C67.7512 140.068 67.9407 140.088 68.136 140.11C68.9762 140.287 69.5567 140.589 70.2932 141.026C70.5271 141.163 70.761 141.299 71.002 141.439C71.1778 141.563 71.3536 141.686 71.5348 141.813C71.5348 141.958 71.5348 142.104 71.5348 142.254C71.6805 142.254 71.8262 142.254 71.9762 142.254C71.9762 142.4 71.9762 142.546 71.9762 142.696C72.1219 142.696 72.2676 142.696 72.4177 142.696C72.4177 142.841 72.4177 142.987 72.4177 143.137C72.5634 143.137 72.7091 143.137 72.8591 143.137C72.8591 143.283 72.8591 143.428 72.8591 143.579C73.0048 143.579 73.1505 143.579 73.3006 143.579C73.742 144.241 73.742 144.241 73.742 144.903C73.8877 144.903 74.0334 144.903 74.1835 144.903C74.6249 145.565 74.6249 145.565 74.6249 146.227C74.7706 146.227 74.9163 146.227 75.0664 146.227C75.4203 147.001 75.5565 147.583 75.5079 148.434C75.6535 148.434 75.7992 148.434 75.9493 148.434C76.7264 150.877 76.896 153.28 76.8753 155.832C76.8745 156.13 76.8739 156.428 76.8734 156.726C76.8718 157.502 76.8674 158.277 76.8625 159.052C76.858 159.846 76.856 160.641 76.8538 161.436C76.8491 162.988 76.8413 164.54 76.8322 166.092C77.9248 166.092 79.0174 166.092 80.1431 166.092C80.1408 165.662 80.1385 165.231 80.1361 164.787C80.1289 163.357 80.1239 161.927 80.1202 160.497C80.1179 159.631 80.1148 158.765 80.1098 157.899C80.1049 157.061 80.1023 156.224 80.1012 155.387C80.1004 155.069 80.0988 154.751 80.0964 154.433C80.0794 152.084 80.2614 150.161 81.2467 147.993C81.3638 147.686 81.4787 147.378 81.5916 147.069C81.8114 146.473 82.0472 145.904 82.3503 145.344C82.496 145.344 82.6417 145.344 82.7918 145.344C82.8396 145.139 82.8396 145.139 82.8883 144.93C83.0125 144.461 83.0125 144.461 83.2332 144.02C83.3789 144.02 83.5246 144.02 83.6747 144.02C83.7566 143.829 83.7566 143.829 83.8402 143.634C84.1565 143.064 84.51 142.682 84.999 142.254C85.1447 142.254 85.2904 142.254 85.4405 142.254C85.4405 142.108 85.4405 141.963 85.4405 141.813C85.5862 141.813 85.7318 141.813 85.8819 141.813C85.8819 141.667 85.8819 141.521 85.8819 141.371C86.4424 141.085 87.0035 140.8 87.565 140.516C87.7223 140.435 87.8797 140.355 88.0418 140.272C89.3039 139.635 90.4703 139.143 91.8967 139.04C92.6711 138.99 92.6711 138.99 93.3866 138.723C93.9455 138.701 94.497 138.692 95.0558 138.695C95.2099 138.694 95.364 138.693 95.5227 138.692C96.6695 138.695 96.6695 138.695 96.9182 138.943C97.29 138.979 97.6627 139.005 98.0356 139.026C100.409 139.228 102.756 140.372 104.644 141.813C104.644 141.958 104.644 142.104 104.644 142.254C104.789 142.254 104.935 142.254 105.085 142.254C105.085 142.4 105.085 142.546 105.085 142.696C105.231 142.696 105.376 142.696 105.526 142.696C105.526 142.841 105.526 142.987 105.526 143.137C105.672 143.137 105.818 143.137 105.968 143.137C105.968 143.283 105.968 143.428 105.968 143.579C106.114 143.579 106.259 143.579 106.409 143.579C107.292 144.773 107.292 144.773 107.292 145.344C107.438 145.344 107.584 145.344 107.734 145.344C107.734 145.636 107.734 145.927 107.734 146.227C107.879 146.227 108.025 146.227 108.175 146.227C108.529 147.001 108.665 147.583 108.617 148.434C108.762 148.434 108.908 148.434 109.058 148.434C109.393 149.484 109.575 150.466 109.666 151.564C109.679 151.97 109.679 151.97 109.941 152.187C109.963 152.824 109.971 153.456 109.97 154.093C109.97 154.393 109.97 154.393 109.971 154.698C109.972 155.363 109.971 156.027 109.97 156.691C109.97 157.15 109.971 157.61 109.971 158.069C109.971 159.033 109.971 159.997 109.97 160.962C109.968 162.2 109.969 163.439 109.971 164.678C109.971 165.627 109.971 166.576 109.971 167.525C109.97 167.982 109.971 168.439 109.971 168.896C109.972 169.533 109.971 170.171 109.97 170.808C109.97 170.999 109.97 171.19 109.971 171.387C109.966 172.689 109.966 172.689 109.72 172.935C109.252 172.957 108.783 172.964 108.314 172.964C108.028 172.965 107.742 172.965 107.447 172.965C107.297 172.965 107.147 172.964 106.993 172.964C106.536 172.963 106.079 172.964 105.623 172.965C105.336 172.965 105.05 172.965 104.755 172.964C104.49 172.964 104.226 172.964 103.953 172.964C103.319 172.935 103.319 172.935 102.878 172.714C102.876 172.498 102.874 172.281 102.872 172.058C102.855 170.003 102.836 167.948 102.814 165.892C102.803 164.836 102.793 163.78 102.785 162.724C102.776 161.702 102.766 160.68 102.755 159.658C102.751 159.271 102.747 158.884 102.745 158.497C102.783 152.356 102.783 152.356 100.008 147.11C98.3525 145.602 96.7704 144.987 94.529 145.044C93.0515 145.211 91.5567 145.566 90.5172 146.669C90.3715 146.669 90.2258 146.669 90.0757 146.669C90.0757 146.814 90.0757 146.96 90.0757 147.11C89.93 147.11 89.7844 147.11 89.6343 147.11C89.6343 147.256 89.6343 147.401 89.6343 147.552C89.4886 147.552 89.3429 147.552 89.1928 147.552C89.1928 147.77 89.1928 147.989 89.1928 148.214C89.0471 148.214 88.9015 148.214 88.7514 148.214C88.724 148.337 88.6967 148.46 88.6686 148.586C88.5306 149.097 88.5306 149.097 88.3099 149.621C88.0689 150.253 87.9618 150.856 87.8685 151.525C87.7228 151.525 87.5771 151.525 87.427 151.525C87.4243 151.917 87.4243 151.917 87.4216 152.318C87.4045 154.78 87.3852 157.242 87.3635 159.704C87.3525 160.97 87.3423 162.235 87.3339 163.501C87.3258 164.722 87.3155 165.943 87.3038 167.164C87.2997 167.63 87.2964 168.097 87.2938 168.563C87.2901 169.215 87.2837 169.867 87.2767 170.519C87.2759 170.81 87.2759 170.81 87.2752 171.108C87.2566 172.443 87.2566 172.443 86.7648 172.935C86.2288 172.979 85.718 172.995 85.1818 172.992C85.0188 172.993 84.8559 172.994 84.688 172.994C84.1479 172.996 83.6078 172.995 83.0677 172.994C82.6933 172.994 82.3189 172.994 81.9444 172.995C81.1592 172.996 80.3739 172.995 79.5887 172.993C78.5807 172.99 77.5727 172.991 76.5647 172.994C75.7914 172.996 75.0181 172.995 74.2448 172.994C73.8731 172.994 73.5013 172.994 73.1296 172.995C72.6106 172.996 72.0917 172.995 71.5727 172.992C71.4182 172.993 71.2636 172.994 71.1043 172.995C70.0402 172.985 70.0402 172.985 69.5483 172.494C69.5025 171.866 69.4842 171.259 69.4849 170.631C69.4834 170.438 69.4819 170.246 69.4803 170.047C69.4773 169.627 69.4753 169.207 69.4742 168.788C69.4724 168.122 69.4679 167.457 69.4626 166.792C69.452 165.377 69.4447 163.962 69.4379 162.547C69.43 160.913 69.4207 159.278 69.4079 157.644C69.4035 156.991 69.4016 156.337 69.3999 155.684C69.397 155.279 69.394 154.874 69.3909 154.47C69.3911 154.29 69.3913 154.11 69.3916 153.924C69.3786 152.706 69.1832 151.601 68.8861 150.421C68.8111 150.053 68.7367 149.686 68.6654 149.317C68.5197 149.317 68.374 149.317 68.2239 149.317C68.2239 149.026 68.2239 148.735 68.2239 148.434C68.0782 148.434 67.9326 148.434 67.7825 148.434C67.7825 148.216 67.7825 147.997 67.7825 147.772C67.6368 147.772 67.4911 147.772 67.341 147.772C67.341 147.627 67.341 147.481 67.341 147.331C67.1953 147.331 67.0497 147.331 66.8996 147.331C66.8996 147.185 66.8996 147.039 66.8996 146.889C66.7539 146.889 66.6082 146.889 66.4581 146.889C66.4581 146.744 66.4581 146.598 66.4581 146.448C66.0211 146.339 66.0211 146.339 65.5752 146.227C65.5752 146.082 65.5752 145.936 65.5752 145.786C65.4184 145.756 65.2617 145.727 65.1001 145.697C64.8973 145.658 64.6944 145.619 64.4854 145.579C64.2831 145.54 64.0808 145.502 63.8724 145.462C63.368 145.344 63.368 145.344 63.1472 145.124C61.5486 144.991 60.1718 145.062 58.7327 145.786C58.5993 145.847 58.4658 145.909 58.3284 145.972C56.6769 146.807 55.6268 148.276 54.9804 149.98C54.2329 152.515 54.2209 154.986 54.2208 157.605C54.2182 158.035 54.2152 158.465 54.212 158.895C54.204 160.017 54.1995 161.138 54.1962 162.26C54.1907 164.065 54.182 165.869 54.1693 167.674C54.1657 168.303 54.1648 168.932 54.1642 169.561C54.162 169.944 54.1598 170.327 54.1574 170.709C54.1579 170.885 54.1585 171.06 54.1591 171.24C54.1477 172.443 54.1477 172.443 53.6561 172.935C51.4709 172.935 49.2857 172.935 47.0343 172.935C47.0343 165.724 47.0343 158.513 47.0343 151.083C47.18 151.083 47.3257 151.083 47.4758 151.083C47.453 150.846 47.4302 150.61 47.4068 150.366C47.4068 148.296 48.7507 146.255 49.683 144.461C49.8287 144.461 49.9744 144.461 50.1245 144.461C50.1245 144.316 50.1245 144.17 50.1245 144.02C50.2701 144.02 50.4158 144.02 50.5659 144.02C50.6114 143.902 50.657 143.783 50.7039 143.661C51.1249 142.934 51.6802 142.344 52.3317 141.813C52.4774 141.813 52.6231 141.813 52.7732 141.813C52.7732 141.667 52.7732 141.521 52.7732 141.371C53.4353 140.93 53.4353 140.93 54.0975 140.93C54.0975 140.784 54.0975 140.638 54.0975 140.488C55.8441 139.673 57.4324 139.143 59.3647 138.998C60.2318 138.898 60.913 138.693 61.8367 138.695Z" fill="white"/>
<path d="M198.689 93.4398C198.883 93.4379 199.077 93.436 199.277 93.4341C199.491 93.4331 199.706 93.4322 199.927 93.4312C200.152 93.4294 200.376 93.4276 200.608 93.4257C201.356 93.4202 202.105 93.4166 202.854 93.4134C203.238 93.4117 203.238 93.4117 203.629 93.4099C204.987 93.404 206.345 93.3997 207.703 93.3965C209.099 93.3929 210.495 93.383 211.891 93.3717C212.969 93.3642 214.047 93.3617 215.125 93.3605C215.639 93.359 216.153 93.3557 216.667 93.3503C220.663 93.3114 224.274 93.6306 227.588 96.1225C227.588 96.2682 227.588 96.4138 227.588 96.5639C227.733 96.5639 227.879 96.5639 228.029 96.5639C228.029 96.7096 228.029 96.8553 228.029 97.0054C228.175 97.0054 228.321 97.0054 228.471 97.0054C228.471 97.1511 228.471 97.2967 228.471 97.4468C228.616 97.4468 228.762 97.4468 228.912 97.4468C231.067 99.8846 231.366 102.869 231.175 105.981C231.054 107.1 230.703 108.122 230.236 109.145C230.091 109.145 229.945 109.145 229.795 109.145C229.763 109.282 229.731 109.418 229.698 109.559C229.574 110.028 229.574 110.028 229.354 110.47C229.208 110.47 229.062 110.47 228.912 110.47C228.766 110.979 228.621 111.489 228.471 112.015C228.616 112.015 228.762 112.015 228.912 112.015C229.229 112.41 229.229 112.41 229.574 112.939C229.688 113.111 229.802 113.282 229.919 113.459C230.973 115.261 231.184 116.977 231.162 119.022C231.162 119.245 231.161 119.468 231.161 119.698C231.158 120.407 231.153 121.115 231.147 121.823C231.145 122.305 231.143 122.787 231.141 123.27C231.136 124.447 231.128 125.625 231.119 126.803C228.789 126.803 226.458 126.803 224.056 126.803C224.045 126.223 224.035 125.644 224.023 125.046C224.011 124.478 223.999 123.909 223.986 123.341C223.978 122.949 223.97 122.558 223.963 122.166C223.912 119.162 223.912 119.162 223.394 116.208C223.248 116.208 223.103 116.208 222.953 116.208C222.953 116.063 222.953 115.917 222.953 115.767C222.577 115.665 222.577 115.665 222.194 115.56C221.407 115.326 221.407 115.326 221.187 115.105C220.67 115.077 220.159 115.064 219.642 115.06C219.481 115.057 219.319 115.055 219.153 115.053C218.616 115.046 218.08 115.04 217.544 115.035C217.173 115.03 216.802 115.026 216.431 115.021C215.453 115.009 214.476 114.998 213.498 114.987C212.325 114.974 211.153 114.96 209.981 114.945C208.198 114.924 206.415 114.904 204.632 114.884C204.632 118.817 204.632 122.751 204.632 126.803C203.508 126.808 202.383 126.812 201.225 126.817C200.87 126.819 200.514 126.821 200.148 126.823C199.871 126.824 199.594 126.824 199.308 126.825C199.023 126.826 198.737 126.827 198.443 126.828C197.79 126.803 197.79 126.803 197.569 126.583C197.547 126.158 197.541 125.734 197.541 125.309C197.54 125.032 197.54 124.756 197.539 124.47C197.54 124.161 197.54 123.851 197.541 123.542C197.54 123.218 197.54 122.895 197.539 122.571C197.538 121.689 197.539 120.808 197.539 119.926C197.54 119.006 197.54 118.085 197.539 117.165C197.539 115.619 197.539 114.073 197.54 112.527C197.542 110.737 197.541 108.947 197.54 107.157C197.539 105.622 197.539 104.088 197.539 102.554C197.54 101.637 197.54 100.719 197.539 99.8018C197.538 98.9395 197.539 98.0771 197.54 97.2148C197.54 96.8974 197.54 96.58 197.54 96.2626C197.539 95.8311 197.54 95.3996 197.541 94.9681C197.541 94.7261 197.541 94.484 197.541 94.2347C197.587 93.348 197.891 93.4456 198.689 93.4398ZM204.632 100.316C204.627 101.412 204.623 102.509 204.62 103.605C204.619 103.978 204.618 104.351 204.616 104.724C204.613 105.26 204.612 105.795 204.611 106.33C204.61 106.498 204.609 106.666 204.607 106.839C204.607 107.24 204.619 107.641 204.632 108.042C205.042 108.451 205.718 108.295 206.265 108.298C206.412 108.299 206.56 108.3 206.712 108.301C207.203 108.304 207.694 108.306 208.185 108.307C208.526 108.308 208.867 108.31 209.209 108.311C209.926 108.313 210.644 108.315 211.362 108.315C212.277 108.317 213.193 108.322 214.109 108.328C214.815 108.332 215.521 108.333 216.228 108.334C216.565 108.334 216.902 108.336 217.239 108.339C220.175 108.424 220.175 108.424 222.766 107.213C222.913 107.015 222.913 107.015 223.063 106.814C223.165 106.682 223.268 106.549 223.373 106.413C224.075 105.373 223.93 104.179 223.835 102.965C223.67 102.44 223.481 102.102 223.173 101.641C223.028 101.641 222.882 101.641 222.732 101.641C222.732 101.495 222.732 101.349 222.732 101.199C221.596 100.457 220.881 100.207 219.492 100.216C219.33 100.216 219.168 100.216 219.002 100.216C218.473 100.216 217.944 100.223 217.415 100.23C217.046 100.232 216.677 100.233 216.308 100.234C215.341 100.237 214.374 100.246 213.407 100.256C212.418 100.265 211.43 100.269 210.441 100.273C208.505 100.283 206.569 100.298 204.632 100.316Z" fill="white"/>
<path d="M135.044 138.692C135.292 138.694 135.292 138.694 135.545 138.695C135.711 138.694 135.877 138.693 136.047 138.692C137.283 138.695 137.283 138.695 137.532 138.943C137.977 138.979 138.424 139.005 138.87 139.026C139.898 139.1 140.754 139.207 141.696 139.62C142.061 139.78 142.435 139.92 142.811 140.053C144.65 140.705 146.335 141.531 147.906 142.696C147.906 142.841 147.906 142.987 147.906 143.137C148.052 143.137 148.197 143.137 148.347 143.137C148.347 143.283 148.347 143.428 148.347 143.579C148.493 143.579 148.639 143.579 148.789 143.579C148.789 143.724 148.789 143.87 148.789 144.02C148.935 144.02 149.08 144.02 149.23 144.02C149.23 144.166 149.23 144.311 149.23 144.461C149.376 144.461 149.522 144.461 149.672 144.461C152.452 147.7 153.679 151.845 153.677 156.049C153.678 156.227 153.678 156.405 153.679 156.589C153.681 157.172 153.682 157.755 153.682 158.338C153.683 158.745 153.683 159.152 153.684 159.559C153.685 160.409 153.686 161.259 153.686 162.11C153.686 163.201 153.689 164.292 153.693 165.383C153.695 166.222 153.695 167.061 153.695 167.9C153.696 168.303 153.697 168.705 153.698 169.108C153.7 169.669 153.7 170.229 153.698 170.79C153.7 170.957 153.701 171.124 153.702 171.296C153.695 172.443 153.695 172.443 153.203 172.935C152.545 172.985 152.545 172.985 151.712 172.978C151.444 172.977 151.176 172.976 150.9 172.975C150.559 172.971 150.217 172.967 149.865 172.963C148.781 172.953 147.698 172.944 146.582 172.935C146.582 170.167 146.582 167.399 146.582 164.547C139.298 164.547 132.014 164.547 124.509 164.547C124.509 167.315 124.509 170.083 124.509 172.935C122.884 172.942 122.884 172.942 121.226 172.949C120.884 172.951 120.542 172.953 120.19 172.955C119.789 172.956 119.789 172.956 119.379 172.957C119.104 172.958 118.829 172.959 118.545 172.96C117.887 172.935 117.887 172.935 117.446 172.714C117.43 170.358 117.419 168.001 117.412 165.645C117.408 164.55 117.404 163.456 117.396 162.361C117.389 161.302 117.385 160.243 117.383 159.184C117.382 158.783 117.38 158.382 117.376 157.98C117.345 154.437 117.647 151.238 119.212 147.993C119.344 147.718 119.344 147.718 119.479 147.438C119.679 147.032 119.886 146.629 120.095 146.227C120.24 146.227 120.386 146.227 120.536 146.227C120.6 146.059 120.664 145.89 120.729 145.717C120.978 145.124 120.978 145.124 121.419 144.461C121.565 144.461 121.71 144.461 121.86 144.461C121.86 144.316 121.86 144.17 121.86 144.02C122.006 144.02 122.152 144.02 122.302 144.02C122.302 143.874 122.302 143.729 122.302 143.579C122.448 143.579 122.593 143.579 122.743 143.579C122.743 143.433 122.743 143.287 122.743 143.137C122.889 143.137 123.035 143.137 123.185 143.137C123.185 142.991 123.185 142.846 123.185 142.696C123.622 142.55 124.059 142.404 124.509 142.254C124.509 142.108 124.509 141.963 124.509 141.813C125.074 141.527 125.64 141.242 126.206 140.957C126.365 140.877 126.524 140.796 126.688 140.713C128.797 139.654 130.601 139.13 132.964 138.998C133.701 138.93 134.237 138.694 135.044 138.692ZM126.584 149.049C124.757 151.419 124.3 154.573 124.509 157.484C124.936 157.911 125.577 157.731 126.144 157.732C126.348 157.732 126.551 157.731 126.761 157.73C126.974 157.73 127.187 157.73 127.407 157.73C128.115 157.73 128.823 157.728 129.531 157.726C130.021 157.726 130.511 157.726 131 157.726C132.292 157.725 133.583 157.723 134.875 157.72C136.191 157.718 137.508 157.717 138.825 157.716C141.41 157.713 143.996 157.71 146.582 157.705C146.582 156.685 146.582 155.665 146.582 154.615C146.436 154.615 146.29 154.615 146.14 154.615C146.163 154.342 146.186 154.068 146.209 153.787C146.205 151.44 144.847 149.381 143.264 147.752C141.027 145.638 138.617 144.824 135.573 144.834C135.365 144.83 135.157 144.827 134.943 144.823C131.508 144.821 128.836 146.538 126.584 149.049Z" fill="white"/>
<path d="M234.167 139.578C234.343 139.578 234.519 139.578 234.699 139.579C234.9 139.578 235.101 139.578 235.308 139.578C235.53 139.578 235.752 139.579 235.981 139.58C236.214 139.58 236.446 139.58 236.686 139.58C237.459 139.58 238.231 139.582 239.004 139.584C239.538 139.584 240.072 139.584 240.607 139.584C242.016 139.585 243.425 139.588 244.834 139.59C246.27 139.592 247.707 139.593 249.143 139.594C251.964 139.597 254.785 139.601 257.606 139.605C257.606 141.645 257.606 143.684 257.606 145.785C256.972 145.791 256.338 145.796 255.685 145.802C253.595 145.821 251.505 145.84 249.416 145.86C248.148 145.873 246.88 145.884 245.613 145.895C244.391 145.906 243.168 145.917 241.946 145.93C241.479 145.934 241.011 145.938 240.544 145.942C239.892 145.947 239.24 145.954 238.587 145.961C238.392 145.962 238.197 145.963 237.996 145.965C237.137 145.891 237.137 145.891 236.417 146.227C236.004 146.293 235.59 146.351 235.175 146.406C233.992 146.594 233.197 146.859 232.223 147.551C232.114 147.77 232.114 147.77 232.002 147.993C231.856 147.993 231.711 147.993 231.561 147.993C231.561 149.012 231.561 150.032 231.561 151.083C231.706 151.083 231.852 151.083 232.002 151.083C232.002 151.228 232.002 151.374 232.002 151.524C232.148 151.524 232.293 151.524 232.444 151.524C232.444 151.67 232.444 151.816 232.444 151.966C233.026 152.111 233.609 152.257 234.209 152.407C234.209 152.553 234.209 152.699 234.209 152.849C234.405 152.848 234.601 152.848 234.803 152.847C236.645 152.843 238.486 152.839 240.328 152.837C241.275 152.836 242.222 152.834 243.169 152.832C244.082 152.83 244.995 152.828 245.908 152.828C246.257 152.827 246.606 152.826 246.955 152.825C247.443 152.824 247.93 152.823 248.417 152.824C248.695 152.823 248.973 152.823 249.259 152.822C249.881 152.849 249.881 152.849 250.102 153.069C250.441 153.104 250.782 153.13 251.122 153.152C252.149 153.245 252.92 153.502 253.854 153.952C254.44 154.181 255.03 154.397 255.62 154.614C255.62 154.76 255.62 154.906 255.62 155.056C255.756 155.088 255.893 155.12 256.034 155.152C256.503 155.277 256.503 155.277 256.944 155.497C256.944 155.643 256.944 155.789 256.944 155.939C257.09 155.939 257.235 155.939 257.386 155.939C257.386 156.084 257.386 156.23 257.386 156.38C257.531 156.38 257.677 156.38 257.827 156.38C257.827 156.526 257.827 156.672 257.827 156.822C257.973 156.822 258.118 156.822 258.268 156.822C258.586 157.266 258.586 157.266 258.931 157.856C259.044 158.048 259.158 158.24 259.275 158.438C260.527 160.768 260.528 163.357 259.835 165.867C258.925 168.37 257.163 170.17 254.861 171.445C251.42 172.999 247.899 173.06 244.19 173.029C243.697 173.027 243.204 173.027 242.711 173.026C241.687 173.025 240.663 173.02 239.639 173.013C238.325 173.005 237.011 173.001 235.697 172.998C234.44 172.996 233.183 172.992 231.926 172.987C231.687 172.986 231.447 172.986 231.2 172.985C230.527 172.982 229.853 172.978 229.18 172.974C228.879 172.973 228.879 172.973 228.572 172.972C227.197 172.96 227.197 172.96 226.705 172.714C226.705 170.602 226.705 168.489 226.705 166.313C227.213 166.059 227.506 166.062 228.072 166.059C228.363 166.056 228.363 166.056 228.66 166.053C228.873 166.052 229.086 166.051 229.306 166.05C229.531 166.048 229.755 166.047 229.986 166.045C230.474 166.041 230.963 166.038 231.451 166.035C232.224 166.03 232.997 166.024 233.769 166.018C235.41 166.005 237.052 165.993 238.693 165.982C240.592 165.969 242.491 165.955 244.39 165.939C245.152 165.934 245.913 165.929 246.675 165.924C247.142 165.921 247.609 165.917 248.077 165.913C248.289 165.912 248.501 165.911 248.719 165.91C249.648 165.902 250.521 165.888 251.426 165.651C251.426 165.505 251.426 165.359 251.426 165.209C251.84 164.74 251.84 164.74 252.309 164.326C252.455 164.326 252.6 164.326 252.75 164.326C252.75 164.035 252.75 163.744 252.75 163.443C252.896 163.443 253.042 163.443 253.192 163.443C253.096 162.244 252.854 161.509 252.088 160.574C250.905 159.702 249.673 159.416 248.222 159.407C247.799 159.403 247.799 159.403 247.368 159.398C247.145 159.397 247.145 159.397 246.917 159.396C246.445 159.394 245.973 159.39 245.501 159.385C244.496 159.374 243.491 159.367 242.487 159.36C241.327 159.352 240.167 159.343 239.008 159.33C238.548 159.326 238.089 159.324 237.63 159.322C233.812 159.283 230.274 158.74 227.146 156.38C227.146 156.235 227.146 156.089 227.146 155.939C227 155.939 226.855 155.939 226.705 155.939C226.705 155.793 226.705 155.647 226.705 155.497C226.559 155.497 226.413 155.497 226.263 155.497C224.796 153.503 223.71 150.955 224.056 148.434C224.33 147.028 224.655 145.704 225.38 144.461C225.526 144.461 225.672 144.461 225.822 144.461C225.967 144.024 226.113 143.587 226.263 143.137C226.409 143.137 226.555 143.137 226.705 143.137C226.705 142.991 226.705 142.845 226.705 142.695C227.899 141.812 227.899 141.812 228.471 141.812C228.471 141.667 228.471 141.521 228.471 141.371C228.762 141.371 229.053 141.371 229.353 141.371C229.353 141.225 229.353 141.08 229.353 140.929C230.775 140.291 231.995 139.949 233.547 139.826C233.768 139.605 233.768 139.605 234.167 139.578Z" fill="white"/>
<path d="M15.208 139.578C15.3836 139.578 15.5592 139.578 15.7401 139.579C15.941 139.578 16.1419 139.578 16.3489 139.578C16.571 139.578 16.7931 139.579 17.0219 139.58C17.2545 139.58 17.487 139.58 17.7266 139.58C18.4993 139.58 19.272 139.582 20.0448 139.584C20.5789 139.584 21.1131 139.584 21.6472 139.584C23.0562 139.585 24.4653 139.588 25.8743 139.59C27.3108 139.592 28.7474 139.593 30.1839 139.594C33.0049 139.597 35.8259 139.601 38.6469 139.605C38.6469 141.645 38.6469 143.684 38.6469 145.785C38.0129 145.791 37.3788 145.796 36.7255 145.802C34.6358 145.821 32.5461 145.84 30.4563 145.86C29.1887 145.873 27.9211 145.884 26.6535 145.895C25.4313 145.906 24.2091 145.917 22.9869 145.93C22.5195 145.934 22.0521 145.938 21.5847 145.942C20.9324 145.947 20.2802 145.954 19.6279 145.961C19.4327 145.962 19.2374 145.963 19.0362 145.965C18.1775 145.891 18.1775 145.891 17.4573 146.227C17.0397 146.292 16.621 146.351 16.2019 146.406C15.0508 146.586 14.3885 146.837 13.4842 147.551C13.3386 147.551 13.1929 147.551 13.0428 147.551C12.8057 148.263 12.7926 148.791 12.7945 149.538C12.7939 149.77 12.7933 150.002 12.7927 150.241C12.7948 150.88 12.7948 150.88 13.0428 151.524C13.1885 151.524 13.3341 151.524 13.4842 151.524C13.4842 151.67 13.4842 151.816 13.4842 151.966C13.6071 151.993 13.7301 152.02 13.8567 152.048C14.3671 152.186 14.3671 152.186 14.8531 152.411C15.6072 152.676 16.2355 152.69 17.0346 152.698C17.1877 152.7 17.3407 152.703 17.4983 152.705C18.0011 152.712 18.5039 152.716 19.0067 152.719C19.3565 152.723 19.7062 152.728 20.056 152.732C20.9744 152.744 21.8928 152.752 22.8112 152.761C23.7493 152.769 24.6874 152.781 25.6254 152.792C27.4643 152.813 29.3033 152.832 31.1423 152.849C31.1423 152.994 31.1423 153.14 31.1423 153.29C31.2709 153.28 31.3995 153.27 31.532 153.259C33.1659 153.187 34.4821 153.589 35.9982 154.173C35.9982 154.319 35.9982 154.464 35.9982 154.614C36.2896 154.614 36.5809 154.614 36.8811 154.614C36.8811 154.76 36.8811 154.906 36.8811 155.056C37.0313 155.097 37.1816 155.138 37.3364 155.18C39.2032 156.094 40.4362 158.057 41.1068 159.97C41.725 162.669 41.4559 165.381 40.0747 167.784C39.765 168.274 39.4677 168.743 39.0884 169.182C38.9427 169.182 38.797 169.182 38.6469 169.182C38.6469 169.328 38.6469 169.474 38.6469 169.624C38.2262 169.974 38.2262 169.974 37.6536 170.369C37.4693 170.498 37.2849 170.627 37.0949 170.76C33.4719 173.02 29.5624 173.066 25.4034 173.036C24.9054 173.036 24.4073 173.036 23.9093 173.036C22.8749 173.035 21.8407 173.031 20.8063 173.025C19.4787 173.018 18.1512 173.016 16.8236 173.017C15.7996 173.016 14.7756 173.014 13.7516 173.011C13.2616 173.009 12.7716 173.009 12.2816 173.008C11.6012 173.007 10.9209 173.003 10.2406 172.999C9.93657 172.999 9.93657 172.999 9.62638 172.999C9.44208 172.997 9.25778 172.996 9.0679 172.994C8.90744 172.993 8.74698 172.992 8.58166 172.991C8.18683 172.935 8.18683 172.935 7.74538 172.493C7.68826 171.903 7.68826 171.903 7.68675 171.162C7.68589 170.764 7.68589 170.764 7.68502 170.357C7.68673 170.079 7.68844 169.8 7.6902 169.513C7.68849 169.235 7.68678 168.956 7.68502 168.669C7.68559 168.404 7.68616 168.138 7.68675 167.865C7.68724 167.62 7.68774 167.376 7.68826 167.124C7.74538 166.534 7.74538 166.534 8.18683 166.092C8.60654 166.038 8.60654 166.038 9.12815 166.039C9.42436 166.038 9.42436 166.038 9.72655 166.037C9.94374 166.039 10.1609 166.04 10.3847 166.042C10.613 166.042 10.8412 166.042 11.0764 166.042C11.8336 166.042 12.5908 166.046 13.348 166.049C13.8719 166.05 14.3959 166.05 14.9198 166.051C16.3009 166.053 17.682 166.057 19.063 166.062C20.4715 166.066 21.8799 166.068 23.2884 166.071C26.0535 166.075 28.8186 166.083 31.5837 166.092C31.5837 165.946 31.5837 165.801 31.5837 165.651C31.8751 165.651 32.1664 165.651 32.4666 165.651C32.4666 165.505 32.4666 165.359 32.4666 165.209C32.5986 165.159 32.7306 165.109 32.8667 165.057C33.512 164.67 33.7112 164.355 34.0117 163.664C34.1276 162.621 34.1212 162.126 33.6668 161.181C32.8538 160.264 31.9207 159.698 30.7008 159.47C30.2486 159.448 29.7958 159.438 29.3431 159.436C29.068 159.433 28.793 159.431 28.5096 159.429C28.3629 159.428 28.2162 159.427 28.0651 159.426C27.6013 159.424 27.1376 159.419 26.6738 159.415C25.3552 159.401 24.0366 159.389 22.718 159.382C11.4348 159.314 11.4348 159.314 7.73589 155.721C5.78376 153.574 5.20648 151.511 5.2467 148.632C5.39468 146.831 5.88802 144.973 7.0832 143.578C7.22888 143.578 7.37456 143.578 7.52465 143.578C7.67033 143.287 7.81601 142.995 7.9661 142.695C8.11178 142.695 8.25746 142.695 8.40755 142.695C8.40755 142.55 8.40755 142.404 8.40755 142.254C10.2514 140.881 12.3102 140.033 14.5879 139.826C14.8086 139.605 14.8086 139.605 15.208 139.578Z" fill="white"/>
<path d="M49.7061 93.4011C50.2214 93.4018 50.7367 93.4022 51.252 93.4024C52.3264 93.4034 53.4007 93.4065 54.4751 93.4115C55.8552 93.4177 57.2352 93.4201 58.6153 93.4211C59.6766 93.422 60.7379 93.4242 61.7992 93.4268C62.3085 93.4281 62.8178 93.4291 63.3271 93.43C64.0351 93.4315 64.7431 93.4345 65.4511 93.438C65.6628 93.4382 65.8746 93.4385 66.0928 93.4387C66.2843 93.44 66.4757 93.4412 66.673 93.4425C66.8403 93.4432 67.0076 93.4439 67.1799 93.4445C67.5616 93.4735 67.5616 93.4735 67.7823 93.6943C67.7823 95.7338 67.7823 97.7733 67.7823 99.8746C60.4984 99.8746 53.2145 99.8746 45.7098 99.8746C45.7098 100.02 45.7098 100.166 45.7098 100.316C45.3069 100.364 45.3069 100.364 44.8959 100.413C44.203 100.499 43.523 100.608 42.8404 100.757C42.8404 100.903 42.8404 101.049 42.8404 101.199C42.5508 101.498 42.2563 101.792 41.9575 102.082C41.5742 102.848 41.6364 103.672 41.7368 104.51C42.3027 105.571 43.2608 106.136 44.3855 106.496C46.1063 106.742 47.8113 106.754 49.5475 106.764C49.854 106.766 50.1604 106.77 50.4669 106.773C51.7576 106.786 53.0482 106.798 54.3389 106.806C55.1327 106.81 55.9264 106.818 56.7201 106.828C57.1619 106.832 57.6037 106.834 58.0455 106.835C61.5315 106.881 64.765 107.632 67.5616 109.807C67.5616 109.953 67.5616 110.099 67.5616 110.249C67.7073 110.249 67.853 110.249 68.0031 110.249C68.1487 110.613 68.2944 110.977 68.4445 111.352C68.5902 111.352 68.7359 111.352 68.886 111.352C69.895 112.96 69.895 112.96 69.7689 114.001C69.9145 114.001 70.0602 114.001 70.2103 114.001C70.2232 114.856 70.231 115.712 70.2379 116.567C70.2416 116.808 70.2453 117.05 70.2491 117.299C70.2625 119.515 70.2625 119.515 69.7689 120.623C69.6232 120.623 69.4775 120.623 69.3274 120.623C69.3274 120.914 69.3274 121.205 69.3274 121.506C69.1817 121.506 69.036 121.506 68.886 121.506C68.8541 121.642 68.8222 121.779 68.7894 121.92C68.6652 122.389 68.6652 122.389 68.4445 122.83C68.2988 122.83 68.1531 122.83 68.0031 122.83C68.0031 122.976 68.0031 123.121 68.0031 123.271C67.8574 123.271 67.7117 123.271 67.5616 123.271C67.5616 123.417 67.5616 123.563 67.5616 123.713C67.4159 123.713 67.2702 123.713 67.1202 123.713C67.1202 123.859 67.1202 124.004 67.1202 124.154C66.9016 124.154 66.6831 124.154 66.458 124.154C66.458 124.3 66.458 124.446 66.458 124.596C66.0447 124.808 65.6307 125.02 65.2164 125.23C64.9859 125.348 64.7555 125.466 64.518 125.587C63.5019 126.064 62.5573 126.395 61.4365 126.486C60.7199 126.544 60.7199 126.544 60.0569 126.803C59.7465 126.823 59.4351 126.83 59.124 126.83C58.9284 126.83 58.7328 126.83 58.5312 126.831C58.3161 126.83 58.101 126.829 57.8793 126.828C57.6532 126.828 57.4271 126.828 57.1941 126.828C56.4441 126.828 55.6941 126.826 54.9441 126.825C54.4251 126.824 53.9061 126.824 53.3871 126.824C52.0191 126.823 50.6511 126.821 49.2831 126.818C47.8879 126.816 46.4928 126.815 45.0976 126.814C42.3587 126.811 39.6197 126.808 36.8808 126.803C36.8808 124.618 36.8808 122.433 36.8808 120.181C37.8865 120.175 37.8865 120.175 38.9125 120.168C41.1326 120.153 43.3527 120.136 45.5728 120.118C46.9183 120.107 48.2638 120.097 49.6093 120.088C50.9088 120.08 52.2083 120.07 53.5077 120.058C54.0025 120.054 54.4972 120.051 54.9919 120.048C55.6871 120.044 56.3823 120.038 57.0775 120.031C57.3814 120.03 57.3814 120.03 57.6914 120.029C59.0382 120.012 60.2911 119.826 61.602 119.519C61.602 119.373 61.602 119.228 61.602 119.078C61.7432 119.055 61.8843 119.032 62.0297 119.009C62.1799 118.959 62.3301 118.909 62.4849 118.857C62.7425 118.084 62.7349 117.464 62.7332 116.65C62.7338 116.377 62.7344 116.103 62.735 115.822C62.7387 115.102 62.7387 115.102 62.4849 114.442C62.3392 114.442 62.1936 114.442 62.0435 114.442C62.0435 114.297 62.0435 114.151 62.0435 114.001C61.7521 114.001 61.4608 114.001 61.1606 114.001C61.1606 113.855 61.1606 113.71 61.1606 113.56C60.7235 113.56 60.2865 113.56 59.8362 113.56C59.8362 113.414 59.8362 113.268 59.8362 113.118C59.6376 113.119 59.439 113.119 59.2344 113.12C57.3667 113.124 55.4991 113.127 53.6314 113.13C52.6711 113.131 51.7108 113.132 50.7505 113.135C49.8246 113.137 48.8986 113.138 47.9727 113.139C47.6186 113.139 47.2646 113.14 46.9105 113.141C46.4163 113.143 45.9221 113.143 45.4279 113.143C45.1461 113.144 44.8643 113.144 44.5739 113.145C43.944 113.118 43.944 113.118 43.7233 112.897C43.3272 112.856 43.3272 112.856 42.9232 112.815C41.9785 112.71 41.2728 112.412 40.4124 112.014C40.1204 111.932 39.827 111.853 39.5295 111.794C39.5295 111.648 39.5295 111.502 39.5295 111.352C39.2381 111.352 38.9468 111.352 38.6466 111.352C38.6466 111.207 38.6466 111.061 38.6466 110.911C38.4213 110.849 38.4213 110.849 38.1914 110.787C36.2824 109.853 35.2614 107.956 34.4933 106.049C33.7394 103.555 34.2257 100.985 35.3702 98.7037C35.5682 98.3516 35.7811 98.0081 35.9979 97.6673C36.1436 97.6673 36.2893 97.6673 36.4394 97.6673C36.4948 97.5373 36.5503 97.4073 36.6075 97.2733C37.6168 95.4679 39.8739 94.7101 41.7368 94.1357C41.8925 94.0806 42.0483 94.0256 42.2088 93.9688C44.6482 93.2192 47.1811 93.3866 49.7061 93.4011Z" fill="white"/>
<path d="M160.992 93.4474C161.364 93.4469 161.364 93.4469 161.743 93.4464C162.015 93.4472 162.288 93.448 162.57 93.4488C162.856 93.4488 163.142 93.4488 163.437 93.4488C164.224 93.4487 165.011 93.45 165.797 93.4515C166.619 93.4529 167.44 93.453 168.262 93.4533C169.818 93.454 171.375 93.4558 172.931 93.458C174.703 93.4605 176.475 93.4617 178.246 93.4628C181.891 93.4651 185.536 93.4692 189.181 93.4739C189.181 95.5862 189.181 97.6986 189.181 99.8749C181.751 99.8749 174.322 99.8749 166.667 99.8749C166.667 102.06 166.667 104.245 166.667 106.497C167.618 106.495 167.618 106.495 168.588 106.493C170.678 106.49 172.768 106.487 174.858 106.485C176.125 106.484 177.393 106.483 178.66 106.48C179.883 106.478 181.105 106.476 182.327 106.476C182.794 106.475 183.262 106.475 183.729 106.473C184.382 106.472 185.034 106.472 185.686 106.472C185.881 106.471 186.077 106.47 186.278 106.469C187.611 106.472 187.611 106.472 187.857 106.717C187.857 108.684 187.857 110.651 187.857 112.677C180.864 112.677 173.872 112.677 166.667 112.677C166.667 115.299 166.667 117.921 166.667 120.623C174.17 120.623 181.672 120.623 189.402 120.623C189.402 122.59 189.402 124.556 189.402 126.583C189.181 126.803 189.181 126.803 188.692 126.831C188.474 126.83 188.256 126.83 188.032 126.83C187.782 126.83 187.533 126.831 187.277 126.831C187.001 126.83 186.725 126.829 186.441 126.828C186.152 126.829 185.864 126.829 185.567 126.829C184.773 126.829 183.98 126.827 183.186 126.826C182.358 126.824 181.529 126.824 180.701 126.824C179.131 126.823 177.562 126.822 175.992 126.819C174.205 126.817 172.419 126.816 170.632 126.815C166.956 126.812 163.28 126.808 159.604 126.803C159.305 126.205 159.356 125.739 159.357 125.069C159.356 124.793 159.356 124.518 159.356 124.234C159.356 123.927 159.357 123.62 159.358 123.313C159.358 122.991 159.358 122.669 159.358 122.347C159.358 121.472 159.359 120.596 159.361 119.721C159.362 118.806 159.362 117.892 159.363 116.978C159.363 115.245 159.365 113.513 159.367 111.781C159.37 109.809 159.371 107.837 159.372 105.865C159.374 101.808 159.378 97.7515 159.383 93.6946C159.952 93.4104 160.355 93.4468 160.992 93.4474Z" fill="white"/>
<path d="M120.102 93.4394C120.391 93.4366 120.391 93.4366 120.684 93.4337C120.897 93.4327 121.109 93.4318 121.328 93.4308C121.551 93.429 121.773 93.4272 122.003 93.4254C122.744 93.4199 123.485 93.4162 124.227 93.4131C124.48 93.4119 124.734 93.4107 124.995 93.4095C126.34 93.4036 127.685 93.3993 129.03 93.3961C130.413 93.3925 131.795 93.3826 133.178 93.3713C134.246 93.3639 135.314 93.3613 136.382 93.3601C136.891 93.3586 137.4 93.3553 137.909 93.35C142.311 93.3066 146.363 93.7858 149.74 96.9222C150.826 98.0645 151.511 99.303 152.099 100.757C152.182 100.958 152.264 101.159 152.349 101.366C153.047 103.966 152.732 106.809 151.437 109.145C151.303 109.42 151.17 109.696 151.037 109.973C150.951 110.137 150.864 110.3 150.775 110.469C150.629 110.469 150.484 110.469 150.334 110.469C150.261 110.761 150.188 111.052 150.113 111.352C149.967 111.352 149.822 111.352 149.671 111.352C149.671 111.498 149.671 111.644 149.671 111.794C149.125 112.012 149.125 112.012 148.568 112.235C148.568 112.381 148.568 112.526 148.568 112.676C148.349 112.676 148.131 112.676 147.906 112.676C147.906 112.822 147.906 112.968 147.906 113.118C147.687 113.118 147.469 113.118 147.243 113.118C147.243 113.264 147.243 113.409 147.243 113.559C145.953 114.141 144.916 114.566 143.491 114.442C143.491 114.588 143.491 114.734 143.491 114.884C137.81 114.884 132.128 114.884 126.275 114.884C126.283 118.641 126.283 118.641 126.294 122.399C126.295 122.868 126.296 123.338 126.296 123.808C126.297 124.053 126.298 124.299 126.3 124.552C126.3 124.901 126.3 124.901 126.3 125.258C126.3 125.461 126.301 125.664 126.301 125.873C126.275 126.361 126.275 126.361 126.054 126.803C125.083 126.808 124.113 126.812 123.143 126.815C122.812 126.816 122.482 126.818 122.151 126.82C121.678 126.822 121.204 126.823 120.73 126.824C120.444 126.826 120.159 126.827 119.865 126.828C119.211 126.803 119.211 126.803 118.991 126.582C118.969 126.158 118.963 125.733 118.963 125.309C118.962 125.032 118.961 124.755 118.961 124.47C118.961 124.161 118.962 123.851 118.962 123.542C118.962 123.218 118.961 122.894 118.961 122.571C118.96 121.689 118.96 120.808 118.961 119.926C118.962 119.006 118.961 118.085 118.961 117.165C118.96 115.619 118.961 114.072 118.962 112.526C118.963 110.736 118.963 108.946 118.961 107.156C118.96 105.622 118.96 104.088 118.961 102.554C118.961 101.636 118.961 100.719 118.961 99.8015C118.96 98.9391 118.96 98.0768 118.962 97.2144C118.962 96.897 118.962 96.5796 118.961 96.2622C118.961 95.8307 118.962 95.3992 118.963 94.9677C118.963 94.7257 118.963 94.4837 118.963 94.2343C119.008 93.3512 119.307 93.4453 120.102 93.4394ZM126.275 100.316C126.275 102.865 126.275 105.415 126.275 108.041C126.679 108.446 127.324 108.294 127.867 108.298C128.082 108.299 128.082 108.299 128.301 108.301C128.777 108.304 129.254 108.306 129.73 108.307C130.062 108.308 130.393 108.309 130.725 108.311C131.422 108.313 132.119 108.314 132.816 108.315C133.704 108.316 134.593 108.322 135.482 108.328C136.168 108.332 136.854 108.333 137.54 108.333C137.867 108.334 138.194 108.336 138.522 108.339C141.569 108.368 141.569 108.368 144.25 107.062C145.132 106.18 145.324 105.561 145.34 104.317C145.319 103.121 145.197 102.509 144.374 101.64C143.91 101.334 143.91 101.334 143.491 101.199C143.491 101.053 143.491 100.907 143.491 100.757C143.2 100.757 142.908 100.757 142.608 100.757C142.608 100.612 142.608 100.466 142.608 100.316C137.218 100.316 131.828 100.316 126.275 100.316Z" fill="white"/>
<path d="M75.7289 93.4733C76.6993 93.4679 77.6697 93.4638 78.6402 93.4612C78.9705 93.4601 79.3009 93.4585 79.6313 93.4566C80.1052 93.454 80.5791 93.4527 81.053 93.4517C81.4813 93.45 81.4813 93.45 81.9182 93.4482C82.5713 93.4733 82.5713 93.4733 82.7921 93.694C82.8197 94.3253 82.8331 94.9516 82.8374 95.5832C82.8396 95.7813 82.8418 95.9794 82.844 96.1835C82.851 96.8415 82.8565 97.4996 82.8619 98.1577C82.8664 98.6126 82.8711 99.0676 82.8758 99.5226C82.888 100.723 82.8989 101.923 82.9095 103.123C82.9206 104.346 82.9329 105.57 82.9451 106.793C82.9689 109.196 82.9913 111.598 83.0128 114.001C83.1585 114.001 83.3041 114.001 83.4542 114.001C83.4542 114.438 83.4542 114.875 83.4542 115.325C83.5999 115.325 83.7456 115.325 83.8957 115.325C84.1731 115.967 84.3371 116.384 84.3371 117.091C84.4828 117.091 84.6285 117.091 84.7786 117.091C84.9243 117.455 85.07 117.819 85.22 118.195C85.3657 118.195 85.5114 118.195 85.6615 118.195C85.6615 118.34 85.6615 118.486 85.6615 118.636C85.8072 118.636 85.9529 118.636 86.1029 118.636C86.1029 118.782 86.1029 118.927 86.1029 119.077C86.2213 119.137 86.3397 119.196 86.4616 119.257C87.0778 119.565 87.694 119.873 88.3102 120.181C88.3102 120.327 88.3102 120.472 88.3102 120.622C89.0314 120.746 89.7505 120.858 90.4761 120.954C91.1796 121.064 91.1796 121.064 91.4003 121.285C93.892 121.405 96.475 121.497 98.6843 120.181C98.8385 120.09 98.9927 120 99.1516 119.906C101.66 118.348 102.968 116.244 103.666 113.388C103.824 112.572 103.827 111.767 103.828 110.937C103.831 110.657 103.831 110.657 103.833 110.37C103.839 109.757 103.842 109.145 103.845 108.532C103.848 108.104 103.852 107.677 103.856 107.249C103.866 106.129 103.874 105.008 103.881 103.887C103.892 102.088 103.907 100.288 103.922 98.4889C103.927 97.8598 103.931 97.2307 103.934 96.6015C103.937 96.219 103.94 95.8364 103.943 95.4538C103.944 95.2778 103.945 95.1018 103.945 94.9205C103.957 93.7191 103.957 93.7191 104.202 93.4733C104.706 93.4512 105.209 93.4444 105.713 93.444C105.864 93.4438 106.015 93.4436 106.171 93.4433C106.491 93.4432 106.81 93.4436 107.13 93.4445C107.622 93.4457 108.113 93.4445 108.604 93.4431C108.914 93.4433 109.224 93.4435 109.534 93.444C109.818 93.4442 110.103 93.4445 110.395 93.4447C111.045 93.4733 111.045 93.4733 111.266 93.694C111.288 94.2974 111.296 94.8952 111.294 95.4986C111.295 95.7823 111.295 95.7823 111.295 96.0717C111.296 96.7001 111.296 97.3284 111.295 97.9568C111.295 98.3914 111.295 98.8261 111.296 99.2607C111.296 100.173 111.295 101.085 111.294 101.997C111.293 103.169 111.294 104.341 111.295 105.513C111.296 106.411 111.296 107.309 111.295 108.207C111.295 108.639 111.295 109.072 111.296 109.504C111.296 110.107 111.295 110.71 111.294 111.313C111.295 111.494 111.295 111.674 111.296 111.86C111.291 113.093 111.291 113.093 111.045 113.339C111.01 113.637 110.984 113.936 110.962 114.235C110.859 115.284 110.558 116.117 110.162 117.091C110.084 117.384 110.009 117.678 109.941 117.974C109.796 117.974 109.65 117.974 109.5 117.974C109.5 118.265 109.5 118.557 109.5 118.857C109.354 118.857 109.208 118.857 109.058 118.857C109.058 119.148 109.058 119.439 109.058 119.74C108.913 119.74 108.767 119.74 108.617 119.74C108.585 119.876 108.553 120.013 108.52 120.153C108.396 120.622 108.396 120.622 108.175 121.064C108.03 121.064 107.884 121.064 107.734 121.064C107.652 121.253 107.652 121.253 107.568 121.447C107.25 122.024 106.877 122.421 106.41 122.885C106.177 123.119 106.177 123.119 105.941 123.357C105.527 123.713 105.527 123.713 105.085 123.713C105.085 123.858 105.085 124.004 105.085 124.154C100.69 126.763 100.69 126.763 98.2428 127.024C98.17 127.096 98.0972 127.169 98.0221 127.244C96.7931 127.31 95.5635 127.314 94.333 127.322C93.9197 127.325 93.5064 127.331 93.0931 127.34C89.6216 127.411 86.771 126.944 83.675 125.299C83.42 125.166 83.1651 125.032 82.9024 124.895C82.7203 124.796 82.5382 124.697 82.3506 124.596C82.3506 124.45 82.3506 124.304 82.3506 124.154C82.098 124.058 82.098 124.058 81.8402 123.961C81.247 123.713 81.247 123.713 80.5848 123.271C80.5848 123.126 80.5848 122.98 80.5848 122.83C80.4391 122.83 80.2935 122.83 80.1434 122.83C80.1434 122.684 80.1434 122.538 80.1434 122.388C79.9977 122.388 79.852 122.388 79.7019 122.388C79.7019 122.243 79.7019 122.097 79.7019 121.947C79.5562 121.947 79.4106 121.947 79.2605 121.947C78.819 121.285 78.819 121.285 78.819 120.622C78.6733 120.622 78.5277 120.622 78.3776 120.622C77.9361 119.96 77.9361 119.96 77.9361 119.298C77.7904 119.298 77.6448 119.298 77.4947 119.298C77.4947 119.007 77.4947 118.715 77.4947 118.415C77.349 118.415 77.2033 118.415 77.0532 118.415C76.9144 118.011 76.7767 117.606 76.6394 117.201C76.5241 116.863 76.5241 116.863 76.4066 116.518C75.9068 114.928 75.6645 113.577 75.6787 111.916C75.6787 111.715 75.6786 111.515 75.6785 111.308C75.6789 110.652 75.6823 109.995 75.6857 109.338C75.6866 108.88 75.6872 108.423 75.6876 107.965C75.6893 106.764 75.6937 105.564 75.6985 104.364C75.7031 103.137 75.7051 101.911 75.7073 100.684C75.712 98.2804 75.7196 95.8768 75.7289 93.4733Z" fill="white"/>
<path d="M194.479 139.605C196.81 139.605 199.141 139.605 201.542 139.605C201.542 148.345 201.542 157.086 201.542 166.092C207.998 166.083 207.998 166.083 214.453 166.072C215.699 166.071 215.699 166.071 216.281 166.071C216.69 166.07 217.098 166.07 217.507 166.068C218.124 166.067 218.741 166.067 219.359 166.067C219.542 166.066 219.725 166.065 219.914 166.064C221.162 166.067 221.162 166.067 221.408 166.312C221.464 167.295 221.449 168.281 221.449 169.265C221.452 169.542 221.454 169.82 221.457 170.106C221.458 170.372 221.458 170.638 221.459 170.911C221.459 171.156 221.46 171.401 221.461 171.653C221.408 172.272 221.408 172.272 220.966 172.934C220.503 173.017 220.503 173.017 219.919 173.017C219.698 173.018 219.477 173.02 219.249 173.022C219.006 173.02 218.763 173.018 218.512 173.016C218.256 173.017 218.001 173.018 217.738 173.019C216.889 173.021 216.041 173.018 215.193 173.014C214.606 173.014 214.018 173.014 213.431 173.015C212.199 173.015 210.967 173.013 209.735 173.008C208.309 173.004 206.884 173.003 205.458 173.004C204.088 173.006 202.718 173.004 201.349 173.002C200.765 173.001 200.181 173.001 199.598 173.001C198.783 173.001 197.969 172.998 197.154 172.995C196.911 172.995 196.668 172.996 196.417 172.997C196.196 172.995 195.975 172.993 195.747 172.992C195.458 172.991 195.458 172.991 195.163 172.99C194.7 172.934 194.7 172.934 194.258 172.493C194.204 171.929 194.204 171.929 194.204 171.201C194.203 170.926 194.202 170.651 194.201 170.367C194.202 170.061 194.204 169.754 194.205 169.447C194.205 169.126 194.204 168.804 194.204 168.483C194.203 167.608 194.204 166.733 194.206 165.859C194.208 164.945 194.208 164.031 194.208 163.118C194.208 161.583 194.21 160.049 194.213 158.515C194.217 156.738 194.218 154.962 194.218 153.185C194.217 151.479 194.219 149.773 194.22 148.067C194.221 147.34 194.222 146.613 194.222 145.885C194.222 145.03 194.223 144.174 194.225 143.318C194.226 143.003 194.226 142.688 194.226 142.373C194.226 141.945 194.227 141.517 194.229 141.089C194.229 140.849 194.23 140.609 194.23 140.362C194.258 139.825 194.258 139.825 194.479 139.605Z" fill="white"/>
<path d="M161.591 139.605C163.921 139.605 166.252 139.605 168.654 139.605C168.923 140.143 168.902 140.486 168.901 141.088C168.901 141.308 168.902 141.528 168.902 141.754C168.901 142.117 168.901 142.117 168.9 142.487C168.9 142.741 168.9 142.995 168.9 143.257C168.9 144.1 168.898 144.944 168.896 145.787C168.896 146.37 168.895 146.953 168.895 147.537C168.894 148.917 168.893 150.298 168.89 151.678C168.888 153.404 168.886 155.129 168.885 156.855C168.883 159.934 168.879 163.013 168.875 166.092C175.357 166.092 181.84 166.092 188.519 166.092C188.519 168.204 188.519 170.316 188.519 172.493C188.078 172.934 188.078 172.934 187.618 172.989C187.427 172.989 187.236 172.989 187.039 172.989C186.71 172.99 186.71 172.99 186.375 172.992C186.133 172.99 185.892 172.989 185.644 172.988C185.263 172.988 185.263 172.988 184.876 172.989C184.035 172.99 183.194 172.988 182.353 172.985C181.77 172.985 181.188 172.985 180.606 172.985C179.384 172.985 178.162 172.983 176.941 172.98C175.527 172.976 174.114 172.975 172.7 172.975C171.342 172.975 169.983 172.974 168.625 172.972C168.046 172.972 167.467 172.971 166.889 172.971C166.081 172.971 165.274 172.969 164.466 172.966C164.104 172.966 164.104 172.966 163.735 172.967C163.516 172.966 163.297 172.965 163.071 172.964C162.88 172.963 162.689 172.963 162.492 172.963C162.032 172.934 162.032 172.934 161.591 172.714C161.591 161.788 161.591 150.862 161.591 139.605Z" fill="white"/>
<path d="M166.668 106.496C169.398 106.491 172.128 106.487 174.858 106.485C176.126 106.484 177.394 106.482 178.661 106.48C179.883 106.477 181.106 106.476 182.328 106.476C182.795 106.475 183.263 106.474 183.73 106.473C184.382 106.472 185.034 106.471 185.687 106.471C185.882 106.471 186.077 106.47 186.278 106.469C187.611 106.471 187.611 106.471 187.857 106.717C187.857 108.684 187.857 110.651 187.857 112.677C180.865 112.677 173.872 112.677 166.668 112.677C166.668 112.531 166.668 112.385 166.668 112.235C173.515 112.235 180.362 112.235 187.416 112.235C187.416 110.487 187.416 108.739 187.416 106.938C180.569 106.938 173.722 106.938 166.668 106.938C166.668 106.792 166.668 106.647 166.668 106.496Z" fill="white"/>
<path d="M198.689 93.4396C198.883 93.4377 199.077 93.4358 199.277 93.4339C199.491 93.4329 199.706 93.432 199.927 93.431C200.151 93.4292 200.376 93.4274 200.608 93.4256C201.356 93.4201 202.105 93.4164 202.853 93.4133C203.237 93.4115 203.237 93.4115 203.629 93.4097C204.987 93.4038 206.345 93.3995 207.703 93.3963C209.099 93.3927 210.495 93.3828 211.891 93.3715C212.969 93.3641 214.047 93.3615 215.125 93.3603C215.639 93.3588 216.153 93.3555 216.667 93.3502C219.621 93.3214 222.185 93.4483 224.939 94.5772C224.128 94.8674 223.609 94.7135 222.791 94.4877C220.417 93.9503 218.018 94.0293 215.594 94.0228C215.137 94.0194 214.68 94.0157 214.223 94.0117C212.544 93.999 210.864 93.9918 209.185 93.984C203.544 93.9499 203.544 93.9499 197.79 93.9151C197.79 104.695 197.79 115.475 197.79 126.582C197.717 126.582 197.644 126.582 197.569 126.582C197.564 122.298 197.56 118.014 197.558 113.73C197.556 111.741 197.555 109.751 197.552 107.762C197.55 106.029 197.549 104.296 197.548 102.563C197.548 101.645 197.547 100.727 197.546 99.8084C197.544 98.9451 197.544 98.0819 197.544 97.2186C197.544 96.9009 197.544 96.5831 197.543 96.2654C197.542 95.8334 197.542 95.4014 197.542 94.9694C197.542 94.7271 197.542 94.4848 197.542 94.2351C197.586 93.3478 197.891 93.4454 198.689 93.4396Z" fill="white"/>
<path d="M61.3817 119.74C59.9805 120.562 58.9588 120.748 57.3487 120.723C57.1289 120.723 56.909 120.723 56.6825 120.723C55.9611 120.723 55.2399 120.716 54.5185 120.709C54.0163 120.707 53.514 120.706 53.0118 120.705C51.6938 120.702 50.376 120.693 49.058 120.683C47.7116 120.674 46.3652 120.67 45.0187 120.666C42.3798 120.656 39.7409 120.641 37.1019 120.623C37.1019 122.589 37.1019 124.556 37.1019 126.582C44.6772 126.582 52.2525 126.582 60.0574 126.582C60.0574 126.655 60.0574 126.728 60.0574 126.803C52.4092 126.803 44.7611 126.803 36.8812 126.803C36.8812 124.618 36.8812 122.433 36.8812 120.181C37.8921 120.175 37.8921 120.175 38.9234 120.168C41.1515 120.153 43.3795 120.136 45.6075 120.118C46.9582 120.107 48.3089 120.096 49.6596 120.088C50.9634 120.08 52.2672 120.07 53.571 120.058C54.0681 120.054 54.5652 120.051 55.0623 120.048C55.7593 120.044 56.4561 120.038 57.1531 120.031C57.4605 120.03 57.4605 120.03 57.7742 120.029C58.7605 120.017 60.6024 119.35 61.3817 119.74Z" fill="white"/>
<path d="M105.713 93.4443C105.864 93.4441 106.015 93.4439 106.171 93.4437C106.49 93.4435 106.81 93.4439 107.13 93.4449C107.621 93.446 108.113 93.4449 108.604 93.4435C108.914 93.4436 109.224 93.4439 109.534 93.4443C109.818 93.4446 110.102 93.4448 110.395 93.4451C111.045 93.4736 111.045 93.4736 111.265 93.6944C111.287 94.2989 111.293 94.8979 111.291 95.5025C111.291 95.692 111.291 95.8814 111.291 96.0767C111.29 96.7061 111.289 97.3355 111.287 97.9649C111.287 98.4001 111.286 98.8352 111.286 99.2704C111.285 100.418 111.283 101.566 111.281 102.714C111.278 103.884 111.277 105.054 111.276 106.224C111.274 108.522 111.27 110.82 111.265 113.118C111.193 113.118 111.12 113.118 111.045 113.118C111.045 106.781 111.045 100.444 111.045 93.9151C108.86 93.9151 106.674 93.9151 104.423 93.9151C104.423 99.8879 104.423 105.861 104.423 112.015C104.277 112.015 104.132 112.015 103.982 112.015C103.976 109.63 103.973 107.245 103.97 104.86C103.969 103.753 103.967 102.646 103.965 101.538C103.963 100.471 103.961 99.403 103.961 98.3353C103.96 97.9271 103.959 97.5188 103.958 97.1105C103.957 96.5407 103.956 95.971 103.957 95.4012C103.956 95.2306 103.955 95.0601 103.954 94.8844C103.957 93.3198 104.193 93.4457 105.713 93.4443Z" fill="white"/>
<path d="M37.7638 96.1221C37.7638 96.7842 37.7638 96.7842 37.4335 97.1714C37.2921 97.3031 37.1507 97.4349 37.005 97.5706C36.4196 98.1092 36.4196 98.1092 35.998 98.7708C35.8523 98.7708 35.7066 98.7708 35.5565 98.7708C35.7022 98.4066 35.8479 98.0424 35.998 97.6671C36.1436 97.6671 36.2893 97.6671 36.4394 97.6671C36.494 97.5351 36.5487 97.4031 36.605 97.2671C36.917 96.721 37.2452 96.4678 37.7638 96.1221Z" fill="white"/>
<path d="M8.40738 142.254C8.55306 142.254 8.69874 142.254 8.84883 142.254C8.53082 142.996 8.13203 143.488 7.52448 144.019C7.3788 144.019 7.23312 144.019 7.08303 144.019C7.08303 143.874 7.08303 143.728 7.08303 143.578C7.22871 143.578 7.37439 143.578 7.52448 143.578C7.67016 143.287 7.81584 142.995 7.96593 142.695C8.11161 142.695 8.25729 142.695 8.40738 142.695C8.40738 142.549 8.40738 142.404 8.40738 142.254Z" fill="white"/>
</svg>
