<svg width="205" height="97" viewBox="0 0 205 97" fill="none" xmlns="http://www.w3.org/2000/svg">
<path d="M132.541 77.4418C132.572 77.3821 132.661 77.205 132.807 76.9105C132.951 76.6161 133.128 76.253 133.338 75.8213C133.546 75.3896 133.774 74.9137 134.02 74.3934C134.263 73.8732 134.507 73.364 134.746 72.8614C134.985 72.3611 135.207 71.8896 135.41 71.4512C135.614 71.0129 135.776 70.6543 135.897 70.3775C136.121 70.3775 136.329 70.3554 136.526 70.3133C136.654 70.2868 136.776 70.2536 136.889 70.2181C137.002 70.1805 137.113 70.1429 137.219 70.103C137.201 70.3665 137.19 70.7384 137.183 71.2232C137.177 71.708 137.175 72.246 137.179 72.8393C137.181 73.4326 137.19 74.0525 137.203 74.6967C137.217 75.3409 137.23 75.9608 137.241 76.5519C137.252 77.143 137.268 77.6787 137.288 78.1569C137.307 78.6351 137.323 78.9937 137.336 79.2328C137.188 79.2461 137.035 79.2683 136.88 79.3015C136.725 79.3347 136.55 79.3701 136.353 79.4122C136.165 79.452 135.99 79.4874 135.826 79.5228C135.663 79.556 135.512 79.5981 135.37 79.6446C135.393 79.2749 135.406 78.8454 135.41 78.3562C135.417 77.8691 135.415 77.3622 135.41 76.8353C135.404 76.3106 135.39 75.7793 135.373 75.2413C135.355 74.7056 135.331 74.1897 135.3 73.6961C135.007 74.265 134.724 74.8318 134.447 75.3941C134.17 75.9564 133.903 76.532 133.641 77.1231C133.385 77.6854 133.148 78.241 132.937 78.7901C132.725 79.3391 132.512 79.8948 132.3 80.4571C132.264 80.4571 132.231 80.4571 132.2 80.4571C132.169 80.4571 132.132 80.4637 132.089 80.4726C132.047 80.4814 132.01 80.4903 131.981 80.5014C131.952 80.5124 131.921 80.5257 131.888 80.5412C131.768 80.2711 131.625 79.959 131.452 79.6003C131.279 79.2439 131.095 78.8742 130.901 78.4956C130.706 78.1171 130.509 77.7363 130.314 77.3511C130.117 76.9681 129.933 76.6139 129.758 76.2884C129.583 75.963 129.426 75.6752 129.289 75.4206C129.152 75.1683 129.048 74.9779 128.975 74.8495C128.968 74.9491 128.959 75.1262 128.944 75.3786C128.928 75.6309 128.913 75.932 128.891 76.2796C128.868 76.6272 128.846 77.0102 128.822 77.4264C128.798 77.8425 128.778 78.2632 128.762 78.6838C128.747 79.1066 128.736 79.5228 128.727 79.9302C128.718 80.3375 128.716 80.7028 128.72 81.0238C128.623 81.026 128.536 81.0349 128.463 81.0504C128.39 81.0659 128.306 81.0836 128.213 81.1013C128.025 81.1411 127.863 81.1832 127.73 81.2297C127.768 80.8998 127.806 80.4859 127.841 79.9877C127.877 79.4896 127.908 78.9539 127.936 78.3805C127.965 77.8071 127.992 77.216 128.016 76.6094C128.04 76.0006 128.063 75.4118 128.082 74.8406C128.102 74.2694 128.118 73.7359 128.131 73.2422C128.144 72.7485 128.156 72.3301 128.164 71.9892C128.388 71.9892 128.596 71.9671 128.793 71.925C128.99 71.8829 129.205 71.8165 129.435 71.7235C129.714 72.2903 130.015 72.8814 130.338 73.4924C130.662 74.1034 130.972 74.6768 131.266 75.2081C131.56 75.7416 131.824 76.2087 132.054 76.6117C132.284 77.0146 132.448 77.2913 132.541 77.4418Z" fill="#F7F4F1"/>
<path d="M138.361 70.1341C138.306 69.8684 138.353 69.6205 138.501 69.388C138.649 69.1556 138.86 69.0117 139.134 68.9541C139.409 68.8965 139.659 68.943 139.887 69.0914C140.115 69.2397 140.256 69.4522 140.314 69.7267C140.372 70.0012 140.325 70.2514 140.177 70.4794C140.028 70.7074 139.816 70.8491 139.541 70.9067C139.267 70.9643 139.017 70.9156 138.789 70.7628C138.561 70.61 138.419 70.3997 138.364 70.1341H138.361ZM138.459 72.5914C138.607 72.5781 138.762 72.5626 138.924 72.5427C139.085 72.5228 139.256 72.494 139.435 72.4564C139.659 72.4099 139.842 72.3656 139.991 72.3213C140.137 72.2771 140.274 72.2328 140.398 72.1885C140.369 72.4807 140.343 72.8991 140.318 73.4437C140.294 73.9906 140.276 74.575 140.27 75.2037C140.261 75.8302 140.263 76.4501 140.276 77.0655C140.287 77.6788 140.31 78.1924 140.343 78.6064C140.194 78.6197 140.042 78.6418 139.889 78.675C139.736 78.7082 139.564 78.7436 139.375 78.7813C139.178 78.8233 139.001 78.8587 138.842 78.892C138.682 78.9252 138.536 78.965 138.403 79.0093C138.443 78.5555 138.474 78.0264 138.494 77.422C138.516 76.8198 138.53 76.2154 138.532 75.6111C138.536 75.0067 138.532 74.4377 138.523 73.8976C138.514 73.3596 138.492 72.9235 138.459 72.5914Z" fill="#F7F4F1"/>
<path d="M146.977 77.0213C146.875 77.132 146.756 77.2338 146.618 77.3246C146.481 77.4154 146.275 77.4906 146.001 77.546C145.77 77.5947 145.573 77.6013 145.41 77.5681C145.246 77.5349 145.111 77.4774 145.007 77.3977C144.9 77.318 144.816 77.2272 144.757 77.1276C144.697 77.028 144.65 76.946 144.619 76.8818C144.489 77.2848 144.303 77.5836 144.064 77.7829C143.822 77.9799 143.492 78.1216 143.074 78.2101C142.56 78.3164 142.12 78.2566 141.757 78.0286C141.392 77.8006 141.157 77.4309 141.048 76.9173C140.962 76.5055 141.002 76.1004 141.164 75.7019C141.325 75.3012 141.615 74.9868 142.031 74.7566C142.215 74.6569 142.45 74.5529 142.731 74.4511C143.012 74.347 143.284 74.2518 143.541 74.161C143.734 74.0946 143.889 74.0371 144.008 73.9906C144.128 73.9441 144.219 73.8865 144.281 73.8201C144.343 73.7537 144.378 73.6674 144.389 73.5633C144.398 73.4593 144.385 73.3154 144.347 73.136C144.305 72.939 144.239 72.7863 144.143 72.6756C144.048 72.5649 143.94 72.483 143.818 72.4276C143.694 72.3723 143.563 72.3435 143.424 72.3413C143.284 72.3391 143.152 72.3501 143.023 72.3789C142.757 72.4343 142.525 72.5273 142.324 72.6579C142.122 72.7885 141.936 72.9523 141.763 73.1493L141.699 73.1626C141.682 72.9877 141.666 72.8549 141.657 72.7619C141.646 72.6712 141.633 72.556 141.613 72.4166C142.233 71.8764 142.941 71.5244 143.738 71.3583C143.986 71.3074 144.234 71.2831 144.48 71.2853C144.726 71.2853 144.956 71.3296 145.168 71.4093C145.381 71.4912 145.567 71.6196 145.724 71.7967C145.881 71.9738 145.992 72.2129 146.054 72.5118C146.094 72.6999 146.116 72.9102 146.125 73.1405C146.134 73.3707 146.134 73.5633 146.131 73.7139L146.118 75.3919C146.111 75.7063 146.116 75.9343 146.127 76.0804C146.138 76.2265 146.153 76.3417 146.171 76.4258C146.193 76.5276 146.238 76.6361 146.304 76.7468C146.373 76.8575 146.479 76.8973 146.625 76.8686C146.667 76.8597 146.702 76.8442 146.729 76.8199C146.756 76.7977 146.784 76.7734 146.815 76.749L146.979 77.0235L146.977 77.0213ZM142.808 76.4966C142.855 76.7202 142.946 76.9084 143.081 77.0634C143.216 77.2183 143.411 77.2693 143.67 77.2161C143.867 77.1741 144.019 77.0899 144.126 76.9593C144.232 76.8309 144.312 76.6804 144.36 76.5077C144.409 76.3372 144.436 76.1535 144.44 75.9565C144.444 75.7594 144.447 75.5757 144.447 75.4052L144.433 74.3758C144.061 74.5153 143.776 74.6326 143.581 74.7278C143.386 74.823 143.227 74.9315 143.101 75.0554C142.921 75.2259 142.817 75.4495 142.784 75.724C142.753 75.9985 142.762 76.2553 142.811 76.4966H142.808Z" fill="#F7F4F1"/>
<path d="M146.935 70.8267C147.059 70.82 147.185 70.8089 147.318 70.7934C147.449 70.7802 147.608 70.7536 147.796 70.7138C147.984 70.6739 148.142 70.6363 148.268 70.5964C148.394 70.5566 148.518 70.5145 148.644 70.4702C148.626 70.6429 148.618 70.8134 148.615 70.9794C148.615 71.1454 148.613 71.3115 148.613 71.482C148.671 71.3713 148.748 71.2406 148.846 71.0923C148.943 70.9418 149.067 70.7934 149.215 70.6473C149.364 70.5012 149.545 70.3618 149.76 70.2334C149.975 70.1027 150.231 70.0075 150.53 69.9456C150.942 69.8592 151.298 69.8902 151.602 70.0385C151.905 70.1846 152.14 70.4459 152.308 70.8222C152.518 70.4215 152.788 70.0651 153.118 69.7552C153.446 69.4452 153.829 69.246 154.265 69.1552C154.444 69.1176 154.637 69.1065 154.841 69.122C155.044 69.1375 155.239 69.1862 155.421 69.2681C155.604 69.3523 155.764 69.474 155.899 69.6378C156.036 69.8017 156.131 70.012 156.184 70.2688C156.207 70.3795 156.226 70.4879 156.238 70.592C156.251 70.696 156.257 70.8178 156.26 70.9551C156.26 71.0923 156.26 71.2628 156.26 71.4642C156.257 71.6657 156.251 71.9203 156.244 72.2236C156.24 72.2878 156.238 72.445 156.235 72.6951C156.235 72.9453 156.233 73.2287 156.231 73.5474C156.231 73.864 156.231 74.185 156.238 74.5105C156.242 74.8359 156.249 75.0949 156.253 75.2897C156.105 75.303 155.954 75.3251 155.804 75.3561C155.653 75.3871 155.494 75.4203 155.323 75.4558C155.1 75.5022 154.918 75.5399 154.776 75.5687C154.635 75.5974 154.497 75.6351 154.365 75.6816C154.407 75.2809 154.444 74.827 154.475 74.3179C154.509 73.8109 154.533 73.3261 154.548 72.8634C154.564 72.4007 154.568 71.9867 154.564 71.6214C154.559 71.2561 154.542 71.0015 154.511 70.8554C154.469 70.6584 154.376 70.5034 154.227 70.3927C154.079 70.2821 153.884 70.2488 153.645 70.2998C153.559 70.3175 153.457 70.3573 153.335 70.4171C153.213 70.4791 153.092 70.5809 152.972 70.727C152.85 70.8731 152.742 71.0702 152.647 71.3181C152.552 71.5661 152.487 71.8893 152.454 72.29C152.421 72.5999 152.401 73.0936 152.394 73.7688C152.388 74.444 152.399 75.2167 152.428 76.0867C152.288 76.0978 152.133 76.1221 151.967 76.1553C151.801 76.1907 151.617 76.2284 151.422 76.2682C151.259 76.3014 151.119 76.3324 151 76.3568C150.88 76.3811 150.745 76.4188 150.594 76.4675C150.628 76.1133 150.659 75.6816 150.687 75.1746C150.716 74.6676 150.738 74.1762 150.754 73.6936C150.769 73.2132 150.778 72.7792 150.778 72.3963C150.778 72.011 150.765 71.752 150.736 71.6148C150.69 71.3934 150.592 71.2406 150.446 71.1587C150.3 71.0768 150.119 71.0591 149.906 71.1034C149.547 71.1787 149.264 71.3823 149.056 71.7166C148.848 72.0509 148.722 72.4892 148.673 73.0361C148.664 73.118 148.653 73.2641 148.642 73.4722C148.631 73.6803 148.622 73.9504 148.615 74.2802C148.609 74.6123 148.606 74.9997 148.609 75.4403C148.611 75.8808 148.626 76.359 148.651 76.8704C148.502 76.8837 148.35 76.9058 148.197 76.939C148.042 76.97 147.889 77.0032 147.734 77.0342C147.573 77.0674 147.415 77.1006 147.265 77.1316C147.114 77.1626 146.973 77.2003 146.84 77.2467C146.869 76.8305 146.891 76.452 146.906 76.1155C146.92 75.7768 146.931 75.4314 146.937 75.0772C146.944 74.723 146.948 74.3289 146.953 73.895C146.957 73.4611 146.959 72.9276 146.962 72.2922C146.957 72.0598 146.955 71.8716 146.951 71.7255C146.946 71.5794 146.944 71.4532 146.946 71.3513C146.946 71.2473 146.946 71.1565 146.942 71.0768C146.937 70.9971 146.937 70.913 146.935 70.8244V70.8267Z" fill="#F7F4F1"/>
<path d="M156.971 66.2596C156.915 65.9939 156.962 65.746 157.11 65.5135C157.259 65.281 157.469 65.1372 157.743 65.0796C158.018 65.022 158.268 65.0685 158.496 65.2168C158.724 65.3652 158.866 65.5777 158.923 65.8522C158.981 66.1267 158.934 66.3769 158.786 66.6049C158.638 66.8329 158.425 66.9746 158.151 67.0322C157.876 67.0897 157.626 67.041 157.398 66.8883C157.17 66.7355 157.028 66.5252 156.973 66.2596H156.971ZM157.068 68.7191C157.217 68.7058 157.372 68.6903 157.533 68.6682C157.695 68.6483 157.865 68.6195 158.045 68.5819C158.268 68.5354 158.452 68.4911 158.598 68.4468C158.746 68.4025 158.881 68.3583 159.005 68.314C158.977 68.6062 158.95 69.0246 158.926 69.5692C158.901 70.1138 158.884 70.7005 158.877 71.3292C158.868 71.9557 158.87 72.5756 158.884 73.191C158.895 73.8043 158.917 74.3179 158.95 74.7319C158.799 74.7451 158.649 74.7673 158.494 74.8005C158.339 74.8337 158.168 74.8691 157.98 74.9067C157.783 74.9488 157.606 74.9842 157.447 75.0174C157.287 75.0506 157.143 75.0905 157.008 75.1348C157.048 74.6809 157.077 74.1518 157.099 73.5475C157.121 72.9453 157.135 72.3409 157.137 71.7366C157.141 71.1322 157.137 70.5632 157.128 70.0231C157.119 69.4851 157.097 69.049 157.064 68.7169L157.068 68.7191Z" fill="#F7F4F1"/>
<path d="M160.402 73.2089C160.482 72.9521 160.572 72.7351 160.67 72.5624C160.767 72.3898 160.929 72.2813 161.15 72.2348C161.372 72.1883 161.584 72.2215 161.786 72.33C161.987 72.4407 162.111 72.6023 162.155 72.817C162.191 72.9875 162.166 73.1558 162.08 73.3218C161.994 73.4878 161.896 73.6472 161.786 73.8066L159.585 77.0122L159.335 76.9038L160.402 73.2111V73.2089Z" fill="#F7F4F1"/>
<path d="M165.986 64.1148C166.134 64.1015 166.305 64.0816 166.497 64.055C166.688 64.0285 166.874 63.9975 167.053 63.9598C167.25 63.9178 167.44 63.8713 167.626 63.8204C167.812 63.7672 167.976 63.7185 168.118 63.6698C168.098 64.0041 168.078 64.334 168.056 64.6616C168.034 64.987 168.009 65.3191 167.981 65.6556C167.967 65.8903 167.954 66.1847 167.943 66.5345C167.932 66.8843 167.921 67.2451 167.912 67.6126C167.903 67.9801 167.899 68.3277 167.894 68.6553C167.89 68.983 167.89 69.2398 167.894 69.4258C167.899 69.7025 167.907 69.9305 167.923 70.1098C167.938 70.2891 167.963 70.4663 167.998 70.6367C168.058 70.9179 168.155 71.1437 168.293 71.3119C168.43 71.4802 168.596 71.6042 168.793 71.6839C168.988 71.7635 169.205 71.8056 169.442 71.81C169.679 71.8145 169.926 71.7901 170.183 71.7348C170.748 71.6174 171.191 71.4315 171.507 71.1769C171.826 70.9245 172.065 70.6323 172.222 70.3046C172.382 69.977 172.486 69.6272 172.532 69.2553C172.579 68.8834 172.616 68.5203 172.641 68.1661C172.665 67.8938 172.683 67.5174 172.694 67.037C172.705 66.5566 172.711 66.0497 172.714 65.5184C172.714 64.987 172.711 64.4668 172.705 63.9598C172.698 63.4529 172.687 63.0389 172.674 62.7201C172.78 62.7157 172.884 62.709 172.986 62.7024C173.088 62.6935 173.185 62.6802 173.278 62.6625C173.449 62.6271 173.637 62.5651 173.843 62.4766C173.818 62.7489 173.798 63.0654 173.779 63.4219C173.759 63.7783 173.743 64.1502 173.73 64.5376C173.717 64.9251 173.705 65.3147 173.699 65.7087C173.692 66.1028 173.688 66.4703 173.688 66.809C173.679 67.544 173.643 68.2259 173.577 68.8546C173.511 69.4855 173.358 70.0456 173.117 70.5393C172.875 71.0308 172.512 71.4492 172.03 71.7901C171.547 72.131 170.885 72.3901 170.046 72.565C169.661 72.6447 169.258 72.6956 168.837 72.7155C168.417 72.7354 168.023 72.6867 167.653 72.5672C167.283 72.4476 166.96 72.2528 166.681 71.9849C166.402 71.7171 166.214 71.3474 166.116 70.8758C166.048 70.5504 166.015 70.1917 166.012 69.7977C166.012 69.4058 166.019 68.9254 166.035 68.3587C166.066 67.6481 166.079 66.9374 166.074 66.2334C166.07 65.5294 166.039 64.821 165.981 64.1081L165.986 64.1148Z" fill="#F7F4F1"/>
<path d="M174.998 69.432C175.281 69.3722 175.542 69.4231 175.786 69.5825C176.029 69.7419 176.18 69.9633 176.24 70.2444C176.3 70.5278 176.246 70.7824 176.085 71.0148C175.923 71.2451 175.7 71.389 175.418 71.4488C175.135 71.5085 174.874 71.4643 174.635 71.3181C174.393 71.172 174.245 70.9573 174.185 70.6739C174.126 70.3928 174.177 70.1293 174.336 69.8858C174.495 69.6423 174.717 69.4917 174.998 69.432Z" fill="#F7F4F1"/>
<path d="M180.738 62.12C180.433 61.9008 180.037 61.8432 179.55 61.9451C179.335 61.9894 179.153 62.0646 179 62.1665C178.848 62.2705 178.726 62.3856 178.637 62.5162C178.549 62.6469 178.491 62.7885 178.465 62.9413C178.438 63.0941 178.44 63.2446 178.471 63.3885C178.505 63.5523 178.571 63.7006 178.666 63.8379C178.761 63.9751 178.888 64.1036 179.043 64.2275C179.198 64.3515 179.388 64.4777 179.609 64.6039C179.833 64.7323 180.09 64.8718 180.382 65.0267C180.612 65.1485 180.836 65.2747 181.05 65.4031C181.265 65.5337 181.458 65.6798 181.631 65.8458C181.803 66.0119 181.954 66.1978 182.082 66.4081C182.211 66.6185 182.304 66.8642 182.363 67.1476C182.458 67.6014 182.456 68.0176 182.363 68.3939C182.268 68.7703 182.1 69.1046 181.863 69.3968C181.624 69.6868 181.327 69.9281 180.975 70.1185C180.621 70.3089 180.24 70.4462 179.828 70.5303C179.315 70.6365 178.837 70.6786 178.394 70.6543C177.951 70.6299 177.484 70.5259 176.99 70.3443C177.074 70.0587 177.134 69.7665 177.167 69.4632C177.203 69.1621 177.218 68.8943 177.216 68.664L177.486 68.6087C177.621 69.0891 177.88 69.4455 178.257 69.6735C178.635 69.9038 179.08 69.9635 179.594 69.8573C179.782 69.8174 179.959 69.7532 180.123 69.6603C180.287 69.5673 180.426 69.4521 180.539 69.3127C180.652 69.1732 180.736 69.0182 180.789 68.8456C180.842 68.6729 180.849 68.4847 180.805 68.2788C180.769 68.1084 180.698 67.9534 180.594 67.8139C180.49 67.6745 180.36 67.5438 180.205 67.4199C180.05 67.2959 179.875 67.1786 179.682 67.0656C179.49 66.955 179.284 66.8398 179.062 66.7269C178.803 66.5941 178.558 66.4591 178.327 66.324C178.099 66.189 177.891 66.0384 177.705 65.8702C177.519 65.7041 177.36 65.5093 177.229 65.2857C177.099 65.0644 177.001 64.8009 176.939 64.502C176.849 64.0659 176.844 63.663 176.928 63.2911C177.012 62.9214 177.163 62.5959 177.38 62.3126C177.599 62.0314 177.876 61.7923 178.217 61.5953C178.556 61.4005 178.93 61.2588 179.341 61.1747C179.804 61.0773 180.238 61.0418 180.645 61.064C181.053 61.0861 181.473 61.1813 181.912 61.3496C181.805 61.7016 181.743 62.0026 181.723 62.2528C181.704 62.503 181.688 62.7487 181.677 62.9922L181.394 63.052C181.265 62.6491 181.048 62.3413 180.745 62.1222L180.738 62.12Z" fill="#F7F4F1"/>
<path d="M183.975 67.5638C184.257 67.504 184.52 67.5549 184.764 67.7143C185.007 67.8737 185.158 68.0951 185.217 68.3763C185.277 68.6596 185.224 68.9142 185.062 69.1467C184.901 69.3769 184.677 69.5208 184.396 69.5806C184.113 69.6404 183.851 69.5961 183.612 69.45C183.371 69.3039 183.223 69.0891 183.163 68.8058C183.103 68.5246 183.154 68.2612 183.313 68.0176C183.473 67.7741 183.694 67.6236 183.975 67.5638Z" fill="#F7F4F1"/>
<path d="M194.024 67.4264C193.891 67.4353 193.729 67.4619 193.537 67.5017C193.344 67.5416 193.14 67.5836 192.926 67.6279C192.702 67.6744 192.505 67.7142 192.334 67.7519C192.164 67.7873 192.02 67.8271 191.903 67.8692C191.841 67.7032 191.768 67.4906 191.684 67.2316C191.599 66.9726 191.495 66.6782 191.371 66.3461C191.354 66.3062 191.325 66.2354 191.281 66.138C191.239 66.0406 191.197 65.9343 191.154 65.8236C191.112 65.7107 191.073 65.6067 191.035 65.507C190.997 65.4074 190.968 65.3432 190.953 65.31C190.703 65.3521 190.45 65.3986 190.198 65.4473C189.946 65.496 189.651 65.5535 189.317 65.6244C188.983 65.6952 188.717 65.7528 188.522 65.7971C188.325 65.8435 188.122 65.8923 187.909 65.9454C187.796 66.2642 187.672 66.6582 187.533 67.1298C187.393 67.6013 187.227 68.188 187.035 68.8876C186.902 68.8964 186.716 68.9274 186.477 68.9761C186.357 69.0005 186.244 69.0248 186.142 69.0447C186.041 69.0647 185.952 69.0934 185.879 69.1266C186.156 68.354 186.435 67.5681 186.716 66.7689C186.995 65.9697 187.269 65.1617 187.537 64.347C187.732 63.7426 187.902 63.2268 188.044 62.7951C188.186 62.3634 188.307 61.9915 188.409 61.6816C188.509 61.3694 188.597 61.1015 188.671 60.8779C188.744 60.6521 188.81 60.4485 188.865 60.2669C188.921 60.0854 188.972 59.9127 189.018 59.7467C189.065 59.5806 189.113 59.3947 189.169 59.1866C189.332 59.1977 189.499 59.1866 189.669 59.1489C189.866 59.1069 190.023 59.0538 190.143 58.9829C190.163 59.0405 190.24 59.2242 190.371 59.5319C190.501 59.8397 190.667 60.2293 190.869 60.7008C191.07 61.1724 191.301 61.6993 191.56 62.2793C191.819 62.8593 192.089 63.4548 192.368 64.0681C192.647 64.6813 192.93 65.2768 193.218 65.8613C193.503 66.4457 193.771 66.9704 194.021 67.4353L194.024 67.4264ZM188.175 65.0798C188.389 65.0444 188.609 65.0045 188.828 64.9647C189.047 64.9226 189.268 64.8805 189.49 64.834C189.687 64.7942 189.886 64.7499 190.085 64.7034C190.287 64.6569 190.47 64.6127 190.641 64.5684C190.53 64.2961 190.426 64.0437 190.329 63.809C190.231 63.5744 190.134 63.3441 190.039 63.1183C189.943 62.8925 189.839 62.6667 189.729 62.4387C189.618 62.2129 189.496 61.9649 189.361 61.6993C189.158 62.2594 188.952 62.8195 188.746 63.3818C188.542 63.9419 188.35 64.5086 188.175 65.082V65.0798Z" fill="#F7F4F1"/>
<path d="M195.047 65.2567C195.328 65.1969 195.591 65.2478 195.835 65.4072C196.078 65.5666 196.229 65.788 196.289 66.0691C196.348 66.3525 196.295 66.6093 196.134 66.8396C195.972 67.0698 195.748 67.2137 195.467 67.2735C195.184 67.3332 194.923 67.289 194.684 67.1429C194.442 66.9967 194.294 66.782 194.234 66.4986C194.174 66.2175 194.225 65.954 194.385 65.7105C194.544 65.467 194.766 65.3164 195.047 65.2567Z" fill="#F7F4F1"/>
<path d="M196.694 51.4737V51.4671L196.627 51.124C196.41 50.0347 196.189 48.9057 195.793 47.9006C193.942 43.2516 194.002 38.3214 194.066 33.9823C194.11 30.7678 194.456 27.5135 194.797 24.3721C194.852 23.8319 194.907 23.2918 194.963 22.7538C195.162 20.8389 194.646 19.0324 193.508 17.6642C192.496 16.4555 191.075 15.5478 189.882 15.3309C187.945 14.9899 186.28 15.9485 185.301 17.9476C184.89 18.7955 184.438 19.6301 183.783 20.7437L183.493 21.244L183.048 20.8632C182.897 20.7326 182.767 20.6153 182.656 20.5112C182.459 20.3363 182.297 20.1858 182.145 20.0839C180.88 19.2449 179.798 18.9394 178.899 19.1785C178.188 19.3711 177.591 19.94 177.139 20.8721C176.462 22.2579 175.521 23.3737 174.243 24.2968C174.084 24.4186 173.847 24.5913 173.517 24.7706C173.028 25.0451 172.694 25.1536 172.173 25.3617C171.948 25.4502 171.658 25.5809 171.315 25.7292C171.219 25.7713 171.118 25.8177 171.016 25.8687L171.009 25.8731C170.974 25.8842 170.934 25.9041 170.898 25.9218C170.564 26.0568 170.223 26.1875 169.893 26.3159C169.599 26.4221 169.3 26.5549 168.977 26.6302C168.66 26.6988 168.324 26.7276 167.989 26.6878C167.327 26.6169 166.723 26.2849 166.234 25.8465C165.99 25.6274 165.784 25.3705 165.57 25.1669C165.353 24.9366 165.125 24.7263 164.883 24.5227C164.407 24.1153 163.889 23.77 163.336 23.4866C162.778 23.2209 162.169 23.035 161.569 23.0726C160.958 23.1036 160.372 23.3538 159.876 23.7124C159.375 24.0755 158.895 24.4939 158.408 24.899C156.482 26.5394 154.693 28.3282 153.068 30.2675C151.434 32.1891 150.033 34.31 148.57 36.3688C147.1 38.4387 145.636 40.502 144.02 42.4723C142.349 44.3762 140.217 47.0771 138.499 48.9323L138.32 49.1271V48.857C138.309 47.4645 138.479 43.8892 138.616 42.49C138.765 41.0953 138.957 39.694 139.358 38.3303C139.566 37.6484 139.885 37.0219 140.055 36.3489C140.228 35.6892 140.299 34.9808 140.064 34.3476C139.954 34.0266 139.765 33.7322 139.557 33.4687C139.329 33.2185 139.068 32.9684 138.836 32.7116C138.353 32.198 137.901 31.6578 137.363 31.2261C136.832 30.7966 136.183 30.4734 135.508 30.4668C134.833 30.4557 134.193 30.8276 133.804 31.3833C133.602 31.6534 133.467 31.9744 133.354 32.2998C133.252 32.6164 133.212 32.9617 133.173 33.3115C133.111 34.0067 133.029 34.7062 132.982 35.408C132.774 38.2063 132.699 41.009 132.455 43.8117C132.243 46.6011 131.866 50.7166 131.674 53.5082C131.698 54.1879 131.931 54.8631 132.243 55.4763C132.557 56.0873 132.982 56.6474 133.491 57.1168C133.998 57.5861 134.594 57.9647 135.247 58.1971C135.887 58.4296 136.597 58.496 137.268 58.3676C137.946 58.2281 138.559 57.8761 139.128 57.4754C139.703 57.088 140.246 56.6408 140.764 56.1715C141.28 55.7066 141.78 55.224 142.282 54.717C142.774 54.2344 143.212 53.6831 143.655 53.1474C145.395 50.9424 147.478 48.6777 149.141 46.4151L149.198 46.331L149.258 46.4196C149.657 47.1147 150.042 47.8054 150.456 48.4873C150.899 49.1536 151.348 49.8134 151.833 50.4465C152.794 51.7195 153.907 52.8751 155.216 53.785C155.873 54.2322 156.584 54.593 157.354 54.7524C158.133 54.9229 158.939 54.8587 159.683 54.5819C160.423 54.3096 161.1 53.8691 161.707 53.3599C162.313 52.8507 162.862 52.2685 163.378 51.6597C163.896 51.0575 164.354 50.4067 164.762 49.7182C165.173 49.0385 165.541 48.3323 165.851 47.6018C166.482 46.1384 166.929 44.591 167.283 43.0435C167.954 39.9242 168.324 36.743 168.811 33.5816L168.815 33.5528L168.848 33.5462C169.754 33.3337 170.653 33.099 171.538 32.8112V32.8046C172.196 32.5234 172.864 32.2245 173.548 31.8969C174.162 31.598 175.957 30.7081 176.526 30.4159L176.51 31.1287V31.4807C176.515 31.6932 176.515 31.8858 176.475 32.0718C176.176 33.3447 175.891 34.6288 175.603 35.9061C174.863 39.249 174.1 42.6981 173.196 46.0654C172.552 48.4585 172.842 50.7476 174.062 52.1866C174.693 52.9393 175.616 53.6411 176.628 53.4595C177.688 53.2669 178.576 52.5364 178.932 51.5512C179.641 49.6008 180.159 47.6328 180.637 45.7222C181.104 43.9025 181.496 42.4037 181.992 40.8762C183.015 37.8211 183.688 36.1164 184.485 34.1661C184.755 33.4864 184.974 32.9595 185.071 32.7271C185.87 30.7811 186.59 28.7001 187.168 27.4006L187.203 27.3298L187.254 27.2767C187.389 27.1505 187.548 27.0752 187.712 27.0752C187.779 27.0752 187.841 27.0863 187.898 27.1084C188.326 27.2523 188.405 27.7991 188.405 27.7991L188.423 27.9164C188.452 28.1245 188.485 28.3548 188.452 28.6027C187.48 35.4412 188.062 42.3196 190.203 49.043C191.037 51.6575 192.366 53.1585 194.389 53.765C195.162 53.9931 195.828 53.9045 196.253 53.5127C196.712 53.0987 196.871 52.3593 196.698 51.4759L196.694 51.4737ZM161.412 41.0732C161.266 41.6488 160.914 42.9284 160.013 44.312C159.429 45.2064 158.521 46.5258 157.618 46.3709C156.646 46.2159 156.168 44.4648 156.052 43.6169C155.853 42.1093 156.391 40.46 156.719 39.4438C156.739 39.3818 156.756 39.3309 156.772 39.2999C156.772 39.2999 157.607 36.7983 159.2 35.0892C159.417 34.8568 159.721 34.569 160.175 34.3498C160.496 34.1904 160.996 33.9513 161.319 34.0576C162.313 34.3764 162.165 38.1465 161.414 41.0732H161.412Z" fill="#F7F4F1"/>
<path d="M139.982 22.9996C141.629 22.517 143.307 22.0653 144.914 21.6314C145.786 21.3923 146.648 21.1577 147.529 20.9119C149.818 20.281 151.471 19.805 152.944 19.391C156.216 18.4568 158.387 17.8391 163.938 16.4489C166.406 15.8334 169.505 15.0276 172.786 14.1775C179.565 12.4153 183.328 11.253 188.236 10.1815C189.084 10.0022 189.509 9.64357 189.726 8.95286C190.01 8.05404 189.839 7.02683 189.286 6.26749C188.766 5.55464 187.964 5.16943 187.05 5.16943H187.039C185.088 5.17386 183.067 5.62327 181.106 6.05275C180.519 6.19222 179.963 6.31398 179.406 6.42467C174.205 7.46738 165.447 9.96015 162.959 10.6154C159.813 11.4412 158.051 11.8508 156.34 12.2492C154.442 12.692 152.647 13.106 149.165 14.0491C144.064 15.4283 138.636 16.8584 132.092 18.5697C131.193 18.8044 129.136 19.225 128.662 19.3313C128.691 18.5055 128.873 12.9887 129.13 10.3542C129.187 9.75205 129.125 9.2318 128.933 8.76247C128.512 7.68655 127.633 7.15966 127.465 7.06225C126.674 6.62392 125.979 6.66376 124.717 6.73682C123.679 6.80323 123.241 6.92499 122.802 7.12645C122.568 7.23272 122.446 7.28363 122.335 7.37219C121.583 7.93671 121.66 10.4073 121.66 10.518C121.702 11.439 121.647 12.3865 121.594 13.2986C121.556 13.8476 121.521 14.4011 121.51 14.9612C121.452 17.5668 121.386 19.0058 121.339 20.0707C121.313 20.5002 121.295 20.8588 121.279 21.1045C119.398 21.5739 117.474 22.0587 115.57 22.5634C113.936 23.0018 112.776 23.3228 111.306 23.7346C110.688 23.8984 110.013 24.091 109.223 24.3079C106.781 24.9898 104.277 25.6672 101.776 26.3358C101.51 26.4797 101.368 26.6922 101.333 26.9756C101.284 27.5401 101.749 28.2375 102.026 28.4743C102.874 29.1828 103.885 29.6366 104.864 30.0772C105.371 30.3052 105.891 30.5376 106.398 30.8099C107.861 31.6003 109.369 30.9494 110.177 30.5974C110.356 30.5221 110.514 30.4535 110.62 30.4225C113.575 29.537 117.04 28.6913 121.222 27.8434C121.155 29.2425 121.058 31.3833 120.943 33.9912C120.799 37.2012 120.71 39.3686 120.646 40.8607C120.381 43.3446 119.63 45.678 118.381 47.8342C117.965 48.5471 117.31 49.5212 116.723 50.3757C115.302 52.4567 114.587 53.4994 113.655 54.3783C112.781 55.1996 111.791 55.908 110.715 56.4814C110.489 55.97 110.317 55.4321 110.217 54.8742C110.15 54.4846 110.119 54.1038 110.148 53.1009C110.15 52.8995 110.15 52.7069 110.164 52.5032V52.4965C110.423 47.8807 110.578 45.3857 111.058 43.6523C111.649 41.4806 110.773 40.5552 109.035 39.6807C108.758 39.5368 108.446 39.4527 108.165 39.3863C108.087 39.3619 108.007 39.3398 107.928 39.3265C107.456 37.675 106.015 36.3179 104.067 35.6715C101.975 34.9808 99.7544 35.2796 98.2888 36.4507C98.063 36.6279 97.9014 36.8714 97.7398 37.1105L97.6844 37.1968C97.3966 37.6219 97.0978 38.0536 96.8033 38.4786C96.1016 39.4815 95.3843 40.5242 94.7644 41.5935C92.3491 45.7466 90.6622 49.7093 89.6062 53.7097C89.5154 54.044 89.4402 54.2742 89.3693 54.4956C89.2741 54.8211 89.1767 55.1199 89.0461 55.6955C89.0195 55.7486 88.993 55.8084 88.9664 55.866C88.486 57.0017 88.0344 58.1086 87.4079 59.1048C86.7725 60.1121 86.0265 61.0463 85.2627 61.9739C84.4945 62.8949 83.6754 63.8003 82.8386 64.6194C82.4179 65.0224 81.9796 65.3965 81.5036 65.7042C81.0409 66.0075 80.5317 66.2488 80.0049 66.4392C79.478 66.6318 78.9289 66.7536 78.3755 66.7956C77.7822 66.8399 77.2199 66.8576 76.7129 66.758C76.2458 66.6694 75.8252 66.4591 75.4953 66.1448C75.1699 65.6688 74.902 65.1596 74.705 64.6283C74.6651 64.4999 74.6164 64.3671 74.581 64.2409C74.3972 63.3155 74.4659 62.2905 74.6098 61.2943C74.7847 60.1232 75.0813 58.952 75.4355 57.8009C75.6148 57.2253 75.8008 56.6519 76.0067 56.0807C76.2081 55.5118 76.4251 54.9583 76.673 54.4071C77.1579 53.3068 77.7268 52.2309 78.2847 51.1417C78.5681 50.6126 78.8559 50.0702 79.1481 49.5389C79.4425 49.0098 79.7171 48.4652 80.0336 47.9493C80.348 47.438 80.6823 46.9465 81.0808 46.5126C81.2468 46.3333 81.4283 46.1606 81.6099 45.9968C81.9619 45.7466 82.3183 45.5385 82.7057 45.3946L82.7589 45.368C82.9758 45.2153 83.5536 44.8367 84.3528 44.56C85.028 44.3165 85.4575 43.8139 85.5394 43.1697C85.6191 42.4569 85.2361 41.7285 84.5321 41.2747C83.682 40.719 82.646 40.2408 81.5191 39.88C79.1282 39.1162 77.18 39.7294 75.7255 41.7019C75.2783 42.3019 74.8356 42.9705 74.2932 43.8604C72.9893 45.9746 71.7517 48.4342 70.6271 51.1439C69.2457 54.458 68.6015 56.3442 68.172 60.4796C68.1631 60.6013 68.1388 60.7519 68.1188 60.9113C68.0923 61.0862 68.0701 61.2832 68.0436 61.4869C67.9594 61.9606 67.7956 62.5606 67.3418 63.1472C67.1713 63.3664 67.0053 63.5878 66.8238 63.8225C66.1618 64.7257 65.3449 65.8392 63.6823 67.5151C62.4957 68.7062 61.7142 69.4898 61.3069 69.3305C61.1542 69.2773 60.6937 68.777 60.9505 64.708C61.2936 59.366 61.4729 56.7272 61.9268 55.0889C62.4913 53.0124 61.9157 51.8833 59.7351 50.7808C59.4318 50.6281 59.0953 50.5329 58.7964 50.4665C58.699 50.4377 58.6083 50.4111 58.5219 50.3912C58.0061 48.6046 56.4454 47.1169 54.3223 46.424C52.0487 45.6669 49.6423 45.9901 48.0483 47.2653C47.8004 47.4579 47.6277 47.7169 47.4594 47.9737L47.3952 48.0711C47.0742 48.5427 46.7555 49.0076 46.4256 49.4747C45.6751 50.5617 44.8892 51.6929 44.2118 52.8574C41.584 57.3824 39.7553 61.695 38.5975 66.0451C38.5045 66.4082 38.4226 66.6562 38.3496 66.9019C38.1747 67.4553 38.0153 67.9756 37.6655 69.6758C37.2759 71.5487 37.3578 73.4017 37.9223 75.6908C38.551 78.2344 40.2269 80.0033 42.91 80.9508C44.0657 81.3626 45.115 81.564 46.0647 81.564C47.6188 81.564 48.9095 81.0039 50.0186 79.886C50.7603 79.1421 51.3823 78.3164 52.0465 77.4087C52.7505 76.4479 53.4213 75.4738 54.143 74.451C54.3887 74.0902 54.6411 73.7271 54.8979 73.3507C54.9554 73.4504 55.0174 73.5301 55.0595 73.6164C55.2167 73.8555 55.3185 74.0193 55.3761 74.1964C56.2129 76.822 58.5396 77.402 61.059 77.8027C62.2101 77.9865 63.3215 77.4596 63.8926 76.4656C64.3509 75.662 64.776 74.8362 65.1922 74.0326C65.5729 73.2932 65.9714 72.5183 66.3921 71.7812C66.8525 70.9731 67.3506 70.1761 67.9196 69.2729C68.0192 69.1201 68.1211 68.9652 68.2185 68.8013C68.2273 68.8168 68.2317 68.8346 68.2428 68.8434L68.5682 69.4921C68.7918 69.926 69.0265 70.3621 69.332 70.8004C69.6242 71.2299 70.0117 71.666 70.481 71.987C70.9481 72.3213 71.4573 72.5294 71.9355 72.6888C72.8409 72.9987 73.7818 73.291 74.7847 73.4548C75.2783 73.5345 75.8163 73.5699 76.3432 73.5456C76.8723 73.5301 77.397 73.4194 77.8973 73.2755C78.8957 72.9589 79.779 72.4807 80.6004 71.976L81.2202 71.5974C81.4173 71.4579 81.6342 71.3074 81.8379 71.1613C82.232 70.8668 82.6083 70.5591 82.9736 70.2448C83.7086 69.6138 84.4059 68.9674 85.0878 68.2988C86.2191 67.2052 87.2928 66.0717 88.3576 64.9205C88.7251 64.5508 89.0705 64.19 89.4136 63.8424C90.1707 65.5094 91.5676 66.7137 93.5667 67.4221C94.6382 67.8007 95.5968 67.9867 96.4713 67.9867C97.9036 67.9867 99.0902 67.4708 100.12 66.4436C100.806 65.7551 101.39 64.967 101.981 64.159C102.617 63.2889 103.226 62.4123 103.874 61.4869C104.091 61.1614 104.313 60.8338 104.55 60.5106C104.862 61.4315 105.346 62.2506 105.995 62.9391C106.066 63.0277 107.892 64.9581 110.476 65.0268C110.549 65.0268 110.644 65.0334 110.742 65.0334C111.244 65.0334 111.975 64.9692 112.592 64.4866C112.876 64.2674 113.099 63.9973 113.279 63.6874L113.646 63.041C114.18 62.1156 114.434 61.6595 114.476 61.571C114.56 61.3872 114.589 61.3452 115.871 59.3594L116.281 58.7329C118.072 55.97 118.528 55.2638 118.66 55.0601C118.688 55.01 118.706 54.979 118.714 54.9672L118.833 54.8033C119.141 54.3894 119.524 53.8558 119.916 53.1895C119.865 53.889 119.812 54.5797 119.741 55.2705C119.362 59.0627 119.639 59.4834 123.442 60.8692C123.464 60.8736 123.489 60.8891 123.518 60.9002C123.56 60.9223 123.597 60.9423 123.633 60.9489C123.945 61.0485 124.257 61.1017 124.545 61.1017C125.494 61.1017 126.289 60.5903 126.604 59.7269C126.794 59.2066 126.878 58.5868 126.876 57.8363C126.869 57.1323 126.834 56.4239 126.796 55.7309C126.736 54.5775 126.679 53.3799 126.767 52.2198C126.956 49.7713 127.097 47.3273 127.23 44.9673C127.398 41.8746 127.571 38.6801 127.883 35.4656C127.972 34.5269 128.078 32.9773 128.184 31.3346C128.308 29.4042 128.446 27.4073 128.569 26.2672C128.813 26.183 129.181 26.0878 129.51 26.0015C129.703 25.9484 129.873 25.9041 129.997 25.8687C131.204 25.5255 132.406 25.1758 133.61 24.8304C135.698 24.2349 137.856 23.6216 139.971 22.9951L139.982 22.9996ZM44.9003 74.4245C44.2959 74.1588 44.6014 72.5405 44.8073 71.4601C44.856 71.2365 44.8914 71.0285 44.9224 70.8425C45.788 65.5072 48.2985 60.5726 50.5831 56.3774C50.6451 56.26 50.7116 56.1206 50.7802 55.9722C50.9993 55.5383 51.2384 55.0292 51.5971 54.8011C51.9646 54.5488 52.1328 54.4447 52.425 54.4447C52.6486 54.4447 52.9409 54.5023 53.4589 54.624C53.6338 54.6617 53.7533 54.8321 53.7312 55.0137C53.3106 58.0333 47.9111 73.8112 44.9003 74.4267V74.4245ZM103.48 43.7077C102.953 46.8557 98.55 59.4214 95.8204 61.2101C95.6854 61.2943 95.526 61.3098 95.3843 61.2478C95.2492 61.188 95.154 61.0707 95.1275 60.9268C95.0212 60.3468 95.1895 59.4302 95.3356 58.6908C95.3732 58.4827 95.4109 58.2901 95.4441 58.1152C96.2366 53.2072 98.5412 48.6843 100.64 44.8323C100.706 44.7216 100.766 44.591 100.828 44.4648C101.025 44.0619 101.242 43.6014 101.57 43.3889C101.908 43.1675 102.057 43.059 102.322 43.059C102.504 43.059 102.743 43.1055 103.135 43.1985C103.37 43.2516 103.525 43.4752 103.482 43.7077H103.48Z" fill="#F7F4F1"/>
<path d="M43.1561 26.5594C44.387 21.8617 45.702 17.5935 47.0768 13.0773C47.5151 11.656 47.9557 10.2126 48.394 8.73817C48.591 8.35739 48.6929 7.72645 48.5003 7.3169C47.6015 5.43736 45.7883 5.0588 44.0062 4.8352C43.1982 4.73336 42.4897 4.85734 41.9141 5.20934C41.3563 5.54362 40.929 6.09044 40.6213 6.87192C37.2961 15.2468 32.7445 38.1289 32.7024 38.3481C31.7128 42.0961 30.8052 45.8728 29.9927 49.5832C29.4725 51.9763 29.0585 54.064 28.6489 56.0763C27.8453 60.1099 27.0837 63.9088 25.6846 69.1268C25.295 70.5725 24.881 72.0358 24.4582 73.4748C24.4139 73.5655 24.3563 73.6076 24.3342 73.6076C24.3342 73.6076 24.2988 73.5921 24.2678 73.5323L23.929 72.0114C23.7364 71.1569 23.5372 70.3002 23.349 69.4478C22.9793 67.7653 22.6096 66.0939 22.2355 64.4114C21.3699 60.5306 20.4777 56.5169 19.6807 52.5497C18.9457 48.908 18.2904 45.1821 17.6573 41.5802C17.3628 39.9354 17.0706 38.2927 16.7784 36.6456C16.754 36.515 16.7253 36.3755 16.6921 36.2471C16.6589 36.0833 16.6323 35.9151 16.6079 35.7512C16.4729 35.0295 16.36 34.3145 16.2338 33.5839C15.9482 31.8748 15.6449 30.1016 15.3084 28.3792C15.1335 27.5136 14.828 26.7255 14.4251 26.0724C12.9263 23.677 10.5487 23.8542 8.25075 24.0313C6.34022 24.184 5.24438 24.981 4.8946 26.4665L4.88574 26.5152L4.89903 26.5617C5.11155 27.0974 5.33072 27.6154 5.54325 28.1158C5.9838 29.1651 6.40664 30.1525 6.66566 31.1775C7.61539 34.91 8.49206 38.7288 9.3311 42.4259L9.78715 44.4272C10.3782 47.0196 10.9627 49.612 11.5493 52.2022C12.2334 55.2639 12.9441 58.4141 13.6591 61.5201C14.5447 65.339 15.4412 69.1512 16.3334 72.9678C17.1127 76.3195 17.9008 79.6757 18.6734 83.0363C18.7863 83.499 18.8926 83.9705 19.0033 84.4266C19.4638 86.357 19.9353 88.3605 20.243 90.3485C20.7633 93.6671 21.8148 94.8227 24.5998 94.8227C24.8832 94.8227 25.1821 94.816 25.4964 94.7895C26.5281 94.7231 27.2586 94.2117 28.1242 93.6051C28.702 93.2088 29.0695 92.2967 29.1736 91.6148C29.8776 86.7798 31.7239 77.132 32.4235 73.5013C32.5917 72.6158 32.7024 72.0424 32.7268 71.9251C33.2426 68.8567 37.6149 50.2341 40.5106 37.9097C41.7592 32.5678 42.751 28.3549 43.1583 26.5617" fill="#F7F4F1"/>
<path d="M196.147 6.28084C196.743 6.03068 197.059 5.53257 196.971 4.93926C196.845 4.11351 196.134 3.7925 194.866 3.98289L194.193 4.09137C194.091 4.10686 194.02 4.20427 194.035 4.30832L194.607 8.12053C194.62 8.21572 194.702 8.28214 194.795 8.28214C194.804 8.28214 194.812 8.28214 194.821 8.27992L195.344 8.20244C195.395 8.1958 195.439 8.16923 195.47 8.12717C195.499 8.0851 195.512 8.0364 195.505 7.98548L195.304 6.66826L196.743 7.92792C196.787 7.96556 196.845 7.98548 196.898 7.9722L197.544 7.87036C197.617 7.85929 197.679 7.80395 197.699 7.73311C197.719 7.66005 197.695 7.58478 197.637 7.53608L196.147 6.27863V6.28084ZM196.072 5.1053C196.116 5.3931 195.979 5.61226 195.171 5.74952L195.02 4.74666C195.755 4.64261 196.014 4.73116 196.072 5.10309V5.1053Z" fill="#F7F4F1"/>
<path d="M199.552 5.51691C199.395 4.49634 198.857 3.59089 198.018 2.97766C197.181 2.35779 196.149 2.10762 195.129 2.25595C194.101 2.41313 193.198 2.95109 192.583 3.79013C191.963 4.62474 191.704 5.64974 191.854 6.67696C192.151 8.60741 193.809 9.99105 195.702 9.99105C195.899 9.99105 196.083 9.97777 196.284 9.94677C197.314 9.79845 198.212 9.2472 198.832 8.41259C199.45 7.58462 199.709 6.55298 199.554 5.5147L199.552 5.51691ZM198.144 7.90784C197.659 8.55871 196.957 8.98819 196.156 9.09666C195.359 9.22949 194.551 9.01918 193.911 8.53435C193.251 8.05395 192.826 7.35217 192.704 6.5552C192.589 5.74494 192.791 4.95017 193.269 4.2971C193.752 3.65066 194.456 3.22782 195.255 3.1127C196.063 2.99315 196.858 3.19018 197.513 3.66394C198.157 4.14213 198.58 4.85498 198.699 5.65196C198.826 6.46 198.631 7.25698 198.144 7.90784Z" fill="#F7F4F1"/>
</svg>
