<svg width="25" height="24" viewBox="0 0 25 24" fill="none" xmlns="http://www.w3.org/2000/svg">
<path d="M14.3 6.3C14.797 6.3 15.2 5.89706 15.2 5.4C15.2 4.90294 14.797 4.5 14.3 4.5H12.5C12.0029 4.5 11.6 4.90294 11.6 5.4C11.6 5.89706 12.0029 6.3 12.5 6.3L14.3 6.3Z" fill="white"/>
<path d="M19.1 8.1C18.6029 8.1 18.2 7.69706 18.2 7.2V6.6C18.2 6.43431 18.0657 6.3 17.9 6.3L17.3 6.3C16.8029 6.3 16.4 5.89706 16.4 5.4C16.4 4.90294 16.8029 4.5 17.3 4.5H17.9C19.0598 4.5 20 5.4402 20 6.6V7.2C20 7.69706 19.597 8.1 19.1 8.1Z" fill="white"/>
<path d="M19.1 9.3C19.597 9.3 20 9.70294 20 10.2V12C20 12.4971 19.597 12.9 19.1 12.9C18.6029 12.9 18.2 12.4971 18.2 12V10.2C18.2 9.70294 18.6029 9.3 19.1 9.3Z" fill="white"/>
<path d="M7.69998 14.7C7.20292 14.7 6.79998 14.2971 6.79998 13.8L6.79998 7.57279L5.63637 8.7364C5.2849 9.08787 4.71505 9.08787 4.36358 8.7364C4.01211 8.38493 4.01211 7.81508 4.36358 7.4636L7.06358 4.7636C7.41505 4.41213 7.9849 4.41213 8.33637 4.7636L11.0364 7.4636C11.3878 7.81508 11.3878 8.38492 11.0364 8.7364C10.6849 9.08787 10.1151 9.08787 9.76358 8.7364L8.59998 7.57279L8.59998 13.8C8.59998 14.2971 8.19703 14.7 7.69998 14.7Z" fill="white"/>
<path d="M10.7 15.9C10.2029 15.9 9.79998 16.3029 9.79998 16.8C9.79998 17.2971 10.2029 17.7 10.7 17.7H16.9272L15.7636 18.8636C15.4121 19.2151 15.4121 19.7849 15.7636 20.1364C16.1151 20.4879 16.6849 20.4879 17.0364 20.1364L19.7364 17.4364C20.0878 17.0849 20.0878 16.5151 19.7364 16.1636L17.0364 13.4636C16.6849 13.1121 16.1151 13.1121 15.7636 13.4636C15.4121 13.8151 15.4121 14.3849 15.7636 14.7364L16.9272 15.9H10.7Z" fill="white"/>
</svg>
