<svg width="216" height="85" viewBox="0 0 216 85" fill="none" xmlns="http://www.w3.org/2000/svg">
<g clip-path="url(#clip0_1531_13961)">
<path d="M24.249 23.1339C22.8063 22.8403 21.5899 22.6916 20.6031 22.6916C18.1973 22.6916 16.0971 23.3516 14.3109 24.6766C12.5171 25.9972 10.8541 28.3777 9.31778 31.809C7.78144 35.243 7.01243 38.6682 7.01243 42.0903C7.01243 43.9054 7.31802 45.2144 7.93507 46.0161C8.54877 46.8169 9.35069 47.2194 10.3417 47.2194C12.1862 47.2194 14.1623 46.222 16.2726 44.2312C18.383 42.2439 19.9337 39.3788 20.9247 35.6387L24.249 23.1339ZM29.2208 17.0021L31.8665 16.4402L28.8595 26.5803C27.6584 30.615 26.5213 35.2639 25.4535 40.5298C24.8634 43.3839 24.568 45.2312 24.568 46.0573C24.568 46.8828 24.9072 47.3021 25.5741 47.3021C25.9988 47.3021 26.6816 47.0194 27.6186 46.4583C29.2774 45.4701 30.8662 44.2422 32.3873 42.7697L33.6712 44.3351C30.6231 47.1122 28.6704 48.7984 27.8205 49.385C26.1103 50.5595 24.4776 51.4289 22.9286 51.9858C21.9115 52.3613 20.9247 52.5469 19.9615 52.5469C19.2659 52.5469 18.7434 52.3909 18.3965 52.0686C18.0504 51.7452 17.8756 51.2811 17.8756 50.665C17.8756 50.2616 17.982 49.7131 18.1973 49.0237L19.8011 43.572C17.5025 46.3241 14.7625 48.6878 11.5835 50.665C9.63264 51.8955 7.84052 52.5091 6.21135 52.5091C4.66151 52.5091 3.47127 51.9621 2.64402 50.8633C1.52131 49.3951 0.959961 47.4752 0.959961 45.0971C0.959961 42.2642 1.71462 39.1122 3.22395 35.6387C4.73325 32.1636 6.75834 29.0099 9.29835 26.1778C11.8358 23.3473 14.5084 21.2647 17.316 19.9279C19.4795 18.9136 22.2584 18.4055 25.6536 18.4055C26.5088 18.4055 27.3764 18.4554 28.2594 18.5625L29.2208 17.0021Z" fill="white"/>
<path d="M37.1607 32.9525H55.7578L54.7947 36.9189H36.1172L37.1607 32.9525Z" fill="white"/>
<path d="M60.4083 26.9008L59.207 25.2967C61.8508 22.6527 64.3664 20.7034 66.7511 19.4475C69.1333 18.1911 71.0115 17.5633 72.3833 17.5633C72.9471 17.5633 73.3667 17.6838 73.6511 17.9227C73.9297 18.1632 74.0723 18.4965 74.0723 18.926C74.0723 19.4586 73.8562 20.4873 73.4307 22.0138C72.8155 24.2552 72.3874 26.0317 72.146 27.3389C78.543 20.8233 83.4337 17.5633 86.8181 17.5633C87.7002 17.5633 88.3653 17.8046 88.8178 18.2822C89.2701 18.764 89.4973 19.5285 89.4973 20.5666C89.4973 21.6898 89.0979 23.6013 88.2986 26.2991C91.3469 23.1195 93.9956 20.8703 96.2411 19.5456C98.4857 18.2224 100.239 17.5633 101.495 17.5633C102.619 17.5633 103.489 17.8839 104.103 18.5218C104.719 19.1632 105.027 20.1557 105.027 21.4923C105.027 22.294 104.893 23.2375 104.624 24.3354C104.359 25.4326 103.383 28.771 101.699 34.3541C99.5856 41.2751 98.5322 45.4042 98.5322 46.7393C98.5322 47.6464 98.906 48.1038 99.6548 48.1038C100.164 48.1038 100.655 47.9409 101.137 47.6211C102.712 46.4978 104.331 45.1088 105.988 43.4497L107.311 44.8919C106.75 45.3484 105.693 46.2826 104.145 47.6987C102.007 49.6227 100.539 50.8237 99.7358 51.308C98.1842 52.2152 96.8751 52.6719 95.8071 52.6719C95.0037 52.6719 94.297 52.2785 93.6816 51.4921C93.0672 50.6988 92.7599 49.6102 92.7599 48.2194C92.7599 46.9391 92.9456 45.4353 93.3211 43.7139C93.6918 41.988 94.7891 38.1196 96.6065 32.1121C97.9751 27.593 98.6527 24.8571 98.6527 23.8966C98.6527 22.9886 98.2519 22.5321 97.4482 22.5321C96.7796 22.5321 95.8865 22.8663 94.7647 23.5321C92.4637 24.9219 90.5423 26.6208 88.9916 28.6241C87.923 30.0141 86.9886 32.2149 86.1849 35.2344C84.3954 41.8337 83.0573 47.2193 82.1778 51.3865H76.4848L82.4572 26.9008C82.8835 25.1371 83.0988 24.1245 83.0988 23.8579C83.0988 23.4274 82.9916 23.1001 82.7787 22.8739C82.5652 22.6451 82.2588 22.5321 81.8545 22.5321C81.1377 22.5321 80.0168 23.0932 78.4974 24.2174C75.8534 26.1127 73.9532 27.949 72.7926 29.7264C71.6336 31.5018 70.6385 34.2074 69.811 37.8386L66.7308 51.3865H60.9713L65.5018 32.2715C66.8373 26.7405 67.5042 23.7328 67.5042 23.2552C67.5042 22.6384 67.2643 22.3303 66.7824 22.3303C65.7406 22.3303 63.6144 23.8579 60.4083 26.9008Z" fill="white"/>
<path d="M126.712 20.6898C124.448 20.6898 122.242 22.3118 120.12 25.5584C117.999 28.804 116.933 33.2885 116.933 39.0016C116.933 42.4759 117.586 45.2144 118.898 47.2194C119.862 48.6878 121.139 49.4262 122.747 49.4262C124.993 49.4262 127.033 48.0347 128.878 45.2565C131.231 41.6472 132.408 37.1719 132.408 31.8302C132.408 27.8208 131.864 24.9652 130.785 23.2553C129.699 21.5432 128.346 20.6898 126.712 20.6898ZM130.121 17.6839C132.74 17.6839 134.921 18.7245 136.656 20.8089C138.391 22.8925 139.263 25.7937 139.263 29.5061C139.263 35.437 137.175 40.7612 133.004 45.476C128.84 50.1899 124.427 52.5469 119.778 52.5469C116.916 52.5469 114.612 51.6119 112.864 49.7468C111.115 47.8759 110.237 45.3224 110.237 42.0902C110.237 36.4791 111.843 31.2942 115.049 26.5423C119.084 20.6343 124.108 17.6839 130.121 17.6839Z" fill="white"/>
<path d="M150.487 51.3857H144.513L147.322 40.6059C148.681 35.3171 149.869 30.2919 150.887 25.5382C151.129 24.3634 151.251 23.6293 151.251 23.3348C151.251 22.6908 150.958 22.3711 150.363 22.3711C149.964 22.3711 149.348 22.6444 148.523 23.192C147.696 23.7414 146.195 25.0986 144.036 27.2589L142.787 25.8571C145.355 23.1061 147.915 21.0427 150.464 19.668C153.018 18.2891 154.972 17.6021 156.335 17.6021C156.817 17.6021 157.194 17.717 157.475 17.9438C157.755 18.1692 157.897 18.4546 157.897 18.803C157.897 19.1532 157.722 20.0798 157.369 21.5845L155.626 28.7922C158.334 24.528 161.381 20.8815 164.785 17.8494C166.419 16.4039 167.784 15.6806 168.879 15.6806C169.683 15.6806 170.354 15.9388 170.89 16.462C171.42 16.981 171.692 17.5878 171.692 18.2815C171.692 19.0048 171.435 19.6207 170.907 20.1288C170.388 20.6335 169.09 21.2352 167.005 21.9297C165.026 22.6005 163.424 23.3996 162.179 24.3381C160.936 25.2714 159.574 26.7018 158.093 28.6269C156.61 30.5492 155.576 32.2261 154.982 33.6547C154.398 35.0834 153.501 38.4026 152.294 43.6145L150.487 51.3857Z" fill="white"/>
<path d="M184.717 0.449681C185.549 0.449681 186.233 0.725558 186.767 1.27256C187.299 1.82108 187.567 2.52321 187.567 3.37288C187.567 4.55352 187.161 5.58726 186.349 6.48273C185.53 7.37799 184.614 7.82454 183.602 7.82454C182.797 7.82454 182.126 7.54175 181.592 6.98394C181.061 6.42181 180.786 5.68599 180.786 4.77712C180.786 3.57466 181.183 2.55345 181.953 1.71047C182.728 0.871601 183.654 0.449681 184.717 0.449681ZM168.968 26.9793L167.21 25.6171C169.873 22.6795 172.309 20.5884 174.503 19.3445C176.713 18.1032 178.589 17.4829 180.132 17.4829C180.989 17.4829 181.643 17.6719 182.096 18.044C182.551 18.4188 182.774 18.9258 182.774 19.5672C182.774 20.3428 181.911 23.6298 180.176 29.4248C177.352 38.9093 175.938 44.6249 175.938 46.5786C175.938 46.9543 176.035 47.2638 176.224 47.5196C176.41 47.7702 176.612 47.8994 176.821 47.8994C177.677 47.8994 179.872 46.2437 183.399 42.9306L184.961 44.4545C181.297 47.8994 178.63 50.1036 176.943 51.0657C175.257 52.0303 173.881 52.5088 172.815 52.5088C171.881 52.5088 171.135 52.215 170.587 51.6269C170.042 51.0361 169.766 50.2242 169.766 49.1864C169.766 45.8419 171.771 37.6807 175.782 24.6955C175.966 24.0813 176.057 23.5319 176.057 23.0534C176.057 22.5174 175.82 22.2517 175.339 22.2517C174.806 22.2517 174.198 22.4652 173.518 22.8923C172.835 23.32 171.319 24.6804 168.968 26.9793Z" fill="white"/>
<path d="M194.782 51.3857H188.807L191.616 40.6059C192.981 35.3171 194.167 30.2919 195.18 25.5382C195.423 24.3634 195.541 23.6293 195.541 23.3348C195.541 22.6908 195.252 22.3711 194.663 22.3711C194.258 22.3711 193.646 22.6444 192.816 23.192C191.987 23.7414 190.491 25.0986 188.324 27.2589L187.083 25.8571C189.651 23.1061 192.207 21.0427 194.761 19.668C197.303 18.2891 199.266 17.6021 200.629 17.6021C201.114 17.6021 201.493 17.717 201.771 17.9438C202.051 18.1692 202.189 18.4546 202.189 18.803C202.189 19.1532 202.013 20.0798 201.666 21.5845L199.922 28.7922C202.628 24.528 205.675 20.8815 209.081 17.8494C210.712 16.4039 212.078 15.6806 213.173 15.6806C213.977 15.6806 214.648 15.9388 215.186 16.462C215.721 16.981 215.991 17.5878 215.991 18.2815C215.991 19.0048 215.729 19.6207 215.21 20.1288C214.688 20.6335 213.38 21.2352 211.301 21.9297C209.326 22.6005 207.711 23.3996 206.47 24.3381C205.234 25.2714 203.87 26.7018 202.396 28.6269C200.908 30.5492 199.872 32.2261 199.285 33.6547C198.692 35.0834 197.793 38.4026 196.588 43.6145L194.782 51.3857Z" fill="white"/>
<path d="M41.6175 71.6582L44.8631 80.9369H44.8977V71.6582H46.2576V84.25H44.7922L40.8865 73.2979H40.8519V84.25H39.4902V71.6582H41.6175Z" fill="white"/>
<path d="M63.7473 71.6582V72.8102H59.3501V77.1022H62.5951V78.2516H59.3501V83.0972H63.9567V84.25H57.9902V71.6582H63.7473Z" fill="white"/>
<path d="M75.5481 71.6582L77.0491 81.4947H77.0837L78.9676 71.6582H80.0844L82.038 81.4947H82.0725L83.4688 71.6582H84.7247L82.7005 84.25H81.5492L79.5613 74.3638H79.525L77.5368 84.25H76.3855L74.293 71.6582H75.5481Z" fill="white"/>
<path d="M109.668 71.6582L111.834 77.1714L113.925 71.6582H115.39L112.492 78.9141V84.25H111.133V78.9141L108.203 71.6582H109.668Z" fill="white"/>
<path d="M129.633 72.6381C128.413 72.6381 127.436 73.6837 127.436 77.9547C127.436 82.2281 128.413 83.2754 129.633 83.2754C130.855 83.2754 131.832 82.2281 131.832 77.9547C131.832 73.6837 130.855 72.6381 129.633 72.6381ZM129.633 84.4248C127.504 84.4248 126.077 82.6467 126.077 77.9547C126.077 73.2643 127.504 71.4854 129.633 71.4854C131.763 71.4854 133.193 73.2643 133.193 77.9547C133.193 82.6467 131.763 84.4248 129.633 84.4248Z" fill="white"/>
<path d="M146.11 77.1714H147.296C149.25 77.1714 149.877 76.4035 149.877 74.9925C149.877 73.5806 149.25 72.8102 147.296 72.8102H146.11V77.1714ZM144.751 71.6582H147.784C149.807 71.6582 151.238 72.8448 151.238 74.9207C151.238 76.3317 150.612 77.5174 149.215 78.0069L151.346 84.25H149.911L147.887 78.2853L146.11 78.3571V84.25H144.751V71.6582Z" fill="white"/>
<path d="M164.263 71.6582V78.0761H164.297L167.819 71.6582H169.286L166.842 76.0532L169.741 84.25H168.273L165.937 77.4499H165.903L164.263 80.3799V84.25H162.902V71.6582H164.263Z" fill="white"/>
</g>
<defs>
<clipPath id="clip0_1531_13961">
<rect width="215.041" height="83.9736" fill="white" transform="translate(0.958984 0.451172)"/>
</clipPath>
</defs>
</svg>
