<svg width="580" height="76" viewBox="0 0 580 76" fill="none" xmlns="http://www.w3.org/2000/svg">
<g opacity="0.04" clip-path="url(#clip0_1381_23152)">
<path d="M21.1938 35V41.0215H19.5V35M62.2144 35V41.0215H63.9083V35M124.374 35V41.0215H126.068V35M26.3798 35V41.0215H28.0736V35M80.5011 35V41.0215H82.1949V35M86.1808 35V41.0215H87.8746V35M162.575 35V41.0215H164.268V35M178.497 35V41.0215H180.191V35M252.675 35V41.0215H254.369V35M193.96 35V41.0215H195.654V35M199.64 35V41.0215H201.333V35M217.922 35V41.0215H219.616V35M223.602 35V41.0215H225.296V35M102.791 35V41.0215H104.484V35M121.862 35V41.0215H123.555V35" fill="white"/>
<path d="M515.673 35V41.0215H517.367V35M474.653 35V41.0215H472.959V35M412.493 35V41.0215H410.8V35M510.487 35V41.0215H508.794V35M456.366 35V41.0215H454.672V35M450.686 35V41.0215H448.993V35M374.293 35V41.0215H372.599V35M358.37 35V41.0215H356.676V35M284.192 35V41.0215H282.499V35M342.907 35V41.0215H341.213V35M337.228 35V41.0215H335.534V35M318.945 35V41.0215H317.251V35M313.265 35V41.0215H311.571V35M434.077 35V41.0215H432.383V35M415.006 35V41.0215H413.312V35" fill="white"/>
<path d="M541.194 35V41.0215H539.5V35M582.214 35V41.0215H583.908V35M644.374 35V41.0215H646.068V35M546.38 35V41.0215H548.074V35M600.501 35V41.0215H602.195V35M606.181 35V41.0215H607.875V35M682.575 35V41.0215H684.268V35M698.497 35V41.0215H700.191V35M772.675 35V41.0215H774.369V35M713.96 35V41.0215H715.654V35M719.64 35V41.0215H721.333V35M737.922 35V41.0215H739.616V35M743.602 35V41.0215H745.296V35M622.791 35V41.0215H624.484V35M641.862 35V41.0215H643.555V35" fill="white"/>
<circle opacity="0.18" cx="144.5" cy="38" r="3" fill="#30DEEE"/>
<circle opacity="0.18" cx="46.5" cy="38" r="3" fill="#30DEEE"/>
<circle opacity="0.18" cx="396.5" cy="38" r="3" fill="#30DEEE"/>
</g>
<defs>
<clipPath id="clip0_1381_23152">
<rect width="580" height="76" fill="white"/>
</clipPath>
</defs>
</svg>
