<svg width="148" height="29" viewBox="0 0 148 29" fill="none" xmlns="http://www.w3.org/2000/svg">
<g clip-path="url(#clip0_1531_11101)">
<path d="M6.7 0.624023L3.5 17.924C2.39838 17.5737 1.25497 17.372 0.1 17.324L0 20.224C0.5 20.224 1.9 20.324 3 20.724L1.6 27.724H4.2L5.2 22.124C6.3 22.624 7.9 23.124 9.8 23.124L10.7 27.724H17L11.8 0.624023H6.7ZM5.8 19.224L7.4 10.624L9.2 20.224C7.99965 20.1879 6.82879 19.8435 5.8 19.224Z" fill="white"/>
<path d="M25.1002 28.224C29.6002 28.224 32.5002 26.524 32.5002 20.724V0.724023H29.8002V20.724C29.8002 23.824 29.2002 24.924 27.0002 24.924C24.8002 24.924 24.3002 23.924 24.3002 20.824V0.624023H17.7002V20.724C17.7002 26.624 20.7002 28.224 25.1002 28.224Z" fill="white"/>
<path d="M40.8996 17.324H41.4996L43.8996 27.824H50.4996L47.6996 15.724C49.3996 14.324 50.3996 12.124 50.3996 9.02402C50.3996 2.02402 46.8996 0.624023 42.3996 0.624023H34.5996V27.824H40.8996V17.324ZM40.8996 3.02402H42.1996C43.3996 3.02402 43.9996 3.72402 43.9996 8.72402C43.9996 13.524 43.4996 14.524 42.1996 14.524H40.8996V3.02402Z" fill="white"/>
<path d="M52.7002 27.824H55.3002L56.3002 22.224C57.3002 22.724 58.9002 23.224 60.9002 23.224L61.7002 27.824H68.2002L63.0002 0.624023H57.9002L54.6002 17.924C53.5307 17.5824 52.4215 17.3807 51.3002 17.324L51.2002 20.324C51.7002 20.324 53.0002 20.424 54.1002 20.824L52.8002 27.824H52.7002ZM58.4002 10.524L60.3002 20.324C59.0948 20.2367 57.9283 19.8593 56.9002 19.224L58.4002 10.524Z" fill="white"/>
<path d="M88.2996 13.5239C91.0996 12.8239 93.0996 11.0239 93.0996 7.42393C93.0996 1.22393 89.5996 0.523926 84.7996 0.523926H78.0996V27.7239H84.7996C89.5996 27.7239 93.2996 26.0239 93.2996 20.3239C93.2996 15.8239 91.2996 14.1239 88.2996 13.5239ZM84.2996 2.92393H84.7996C86.3996 2.92393 86.7996 3.42393 86.7996 7.92393C86.7996 12.2239 86.3996 12.6239 84.7996 12.6239H84.1996V2.92393H84.2996ZM84.8996 25.3239H84.1996V14.8239H84.8996C86.2996 14.8239 86.8996 15.4239 86.8996 20.0239C86.8996 25.0239 86.4996 25.3239 84.8996 25.3239Z" fill="white"/>
<path d="M102.9 0.224121C97.3996 0.224121 94.5996 3.62412 94.5996 14.2241C94.5996 24.6241 97.3996 28.0241 102.9 28.0241C108.3 28.0241 111.1 24.6241 111.1 14.1241C111.1 3.62412 108.3 0.224121 103 0.224121H102.9ZM102.9 25.8241C101.3 25.8241 101.2 24.8241 101.2 14.1241C101.2 3.32412 101.2 2.42412 102.9 2.42412C104.4 2.42412 104.6 3.42412 104.6 14.1241C104.6 24.9241 104.5 25.8241 102.9 25.8241Z" fill="white"/>
<path d="M128.6 8.92393C128.6 1.92393 125.1 0.523926 120.6 0.523926H113V27.7239H119.3V17.2239H119.9L122.2 27.7239H128.8L126 15.6239C127.7 14.2239 128.6 12.1239 128.6 8.92393ZM120.4 14.4239H119.2V2.92393H120.4C121.7 2.92393 122.3 3.62393 122.3 8.62393C122.3 13.4239 121.7 14.4239 120.4 14.4239Z" fill="white"/>
<path d="M140.7 27.8239H147.1L141.8 0.523926H136.7L133.5 17.8239C132.398 17.4737 131.255 17.2719 130.1 17.2239V20.2239C130.5 20.2239 131.9 20.3239 132.9 20.8239L131.6 27.8239H134.2L135.2 22.1239C136.3 22.6239 137.9 23.1239 139.8 23.1239L140.7 27.8239ZM135.7 19.0239L137.4 10.4239L139.2 20.2239C137.983 20.1188 136.813 19.7058 135.8 19.0239H135.7Z" fill="white"/>
</g>
<defs>
<clipPath id="clip0_1531_11101">
<rect width="148" height="28" fill="white" transform="translate(0 0.224121)"/>
</clipPath>
</defs>
</svg>
