<svg width="207" height="43" viewBox="0 0 207 43" fill="none" xmlns="http://www.w3.org/2000/svg">
<path d="M38.7602 12.5865C37.4037 5.63164 32.7447 0.588448 24.3396 0.511901H23.9725C14.3818 0.571538 7.26543 5.384 3.49335 12.5865C1.4094 16.6535 0.346437 21.1665 0.396201 25.736C0.396201 34.9773 5.51594 40.7963 12.0777 42.4264C13.3505 42.7419 14.6574 42.8994 15.9687 42.8953C17.4046 42.9115 18.8372 42.754 20.2353 42.4264C22.821 41.8429 25.1334 40.4024 26.7971 38.3388V42.008C26.7926 42.0621 26.7926 42.1166 26.7971 42.1707C26.8294 42.2426 26.8806 42.3043 26.9453 42.3494C27.0099 42.3945 27.0856 42.4211 27.1642 42.4266H32.8387C32.9073 42.419 32.9739 42.3986 33.035 42.3664C33.1299 42.3064 33.1973 42.2115 33.2229 42.1022L37.1393 22.0663C37.1435 22.03 37.1435 21.9931 37.1393 21.9556C37.1394 21.8996 37.1283 21.8441 37.1069 21.7923C37.0855 21.7405 37.0541 21.6934 37.0145 21.6538C36.9749 21.6142 36.9278 21.5827 36.8761 21.5613C36.8243 21.5399 36.7688 21.5288 36.7127 21.5289H22.4712C22.3748 21.5257 22.2803 21.5552 22.2028 21.6126C22.1253 21.6699 22.0695 21.7518 22.0445 21.8449L20.9695 27.2713V27.3488C20.9602 27.4053 20.9602 27.4629 20.9695 27.5193C21.0021 27.5962 21.0568 27.6616 21.1268 27.7071C21.1967 27.7526 21.2786 27.7763 21.3621 27.775H28.5468C27.0022 32.0416 23.427 35.771 17.7096 35.771C11.9928 35.771 8.39163 31.6491 8.39163 24.6097C8.31549 20.2586 9.73761 16.0136 12.4195 12.5865C13.6498 11.0348 15.2155 9.78183 16.9992 8.92166C18.7829 8.06148 20.7382 7.61642 22.7185 7.61986C26.7035 7.61986 29.0246 9.43753 30.5775 12.5865C30.9787 13.4135 31.318 14.2691 31.5928 15.1462C31.6248 15.224 31.6792 15.2907 31.749 15.3377C31.8188 15.3847 31.901 15.41 31.9852 15.4104H32.1048L38.5473 13.7038C38.5904 13.6959 38.6312 13.6785 38.6668 13.6529C38.7296 13.6146 38.7815 13.5607 38.8174 13.4964C38.8533 13.4322 38.872 13.3598 38.8717 13.2862V13.2182C38.8717 13.0129 38.7948 12.7996 38.7521 12.5947M54.538 0.938636C54.538 0.882597 54.527 0.827101 54.5056 0.775318C54.4842 0.723535 54.4528 0.676478 54.4132 0.636835C54.3735 0.597192 54.3265 0.565739 54.2747 0.544272C54.223 0.522804 54.1675 0.511743 54.1115 0.511719H47.5751C47.4744 0.512652 47.3773 0.549089 47.3008 0.614613C47.2244 0.680137 47.1735 0.770544 47.1571 0.869908L44.8873 12.5863L39.213 41.9051V41.9993C39.2001 42.0525 39.2001 42.1084 39.213 42.162C39.2784 42.3202 39.433 42.4253 39.6055 42.4262H46.1331C46.2283 42.4288 46.3216 42.399 46.3977 42.3416C46.4737 42.2841 46.5278 42.2025 46.5513 42.1102L52.2598 12.5865L54.5038 1.00682V0.938636M74.949 12.5865C73.6798 12.267 72.3753 12.109 71.0665 12.1161C69.5008 12.0975 67.9379 12.2553 66.4075 12.5865C63.5449 13.2724 60.9335 14.7511 58.8728 16.8531C55.3229 20.2661 53.7531 24.6693 53.7531 30.2923C53.7531 36.1292 57.1233 40.9411 62.8918 42.4264C64.1639 42.7458 65.4712 42.9033 66.7828 42.8953C68.3799 42.9249 69.9749 42.7675 71.5354 42.4264C74.3957 41.741 77.0044 40.262 79.0614 38.1597C82.6115 34.7466 84.1812 30.3527 84.1812 24.7286C84.1812 18.8826 80.7678 14.0622 75.0424 12.5865M74.0442 33.4238C73.2916 34.451 72.2999 35.2793 71.155 35.8369C70.0102 36.3945 68.7467 36.6646 67.4739 36.6239C63.9837 36.6239 61.6714 33.7822 61.6714 29.1656C61.6714 25.9659 62.3796 23.4827 63.864 21.5887C64.6213 20.5692 65.6151 19.7492 66.7597 19.1991C67.9044 18.6491 69.1656 18.3855 70.4347 18.4312C73.9246 18.4312 76.2372 21.2727 76.2372 25.8891C76.2372 29.0894 75.5202 31.5723 74.044 33.4666M108.646 16.8775C107.648 14.9329 105.395 13.3456 102.784 12.6111C101.719 12.3006 100.616 12.1426 99.5067 12.1419C98.2288 12.1317 96.955 12.2895 95.7181 12.6111C91.6933 13.4862 88.8902 17.1408 89.088 21.2558C89.088 25.2235 91.6989 27.5357 95.1892 29.1905C98.6791 30.8463 100.309 31.8538 100.309 33.5687C100.309 35.7019 98.5256 36.6488 96.5203 36.6488C93.6961 36.6488 91.6818 34.9419 90.8375 31.9989C90.8065 31.9148 90.7508 31.842 90.6777 31.7902C90.6046 31.7384 90.5174 31.71 90.4278 31.7087C90.3742 31.7003 90.3196 31.7003 90.266 31.7087L84.7699 33.9955C84.692 34.0273 84.6253 34.0817 84.5783 34.1515C84.5314 34.2214 84.5063 34.3037 84.5062 34.3878V34.4551C84.9618 36.3374 85.9076 38.0656 87.2475 39.464C88.5873 40.8624 90.2735 41.8811 92.1346 42.4167C93.2874 42.7364 94.4791 42.8945 95.6754 42.8866C97.0858 42.8977 98.4924 42.74 99.8653 42.4167C104.388 41.2993 107.399 38.1501 107.399 32.5271C107.399 28.3888 104.319 26.3757 101.247 24.9506C99.2336 24.0024 96.1276 23.1158 96.1276 21.0421C96.1114 19.5806 97.2823 18.3841 98.7431 18.3673C98.8385 18.3655 98.9343 18.3704 99.0293 18.3788C99.8795 18.3793 100.717 18.5843 101.471 18.9765C102.226 19.3687 102.875 19.9365 103.364 20.6321C103.404 20.6847 103.455 20.7274 103.514 20.7569C103.574 20.7864 103.639 20.8019 103.705 20.8023C103.783 20.8005 103.859 20.7799 103.927 20.7436L108.526 17.4326C108.605 17.3744 108.66 17.2894 108.68 17.1937C108.701 17.0979 108.686 16.998 108.638 16.9126M127.171 12.5865C126.106 12.2762 125.003 12.1179 123.894 12.1161C122.613 12.1066 121.337 12.2647 120.098 12.5865C116.075 13.4649 113.276 17.1184 113.476 21.2294C113.476 25.1977 116.036 27.5106 119.576 29.1656C122.947 30.7616 124.696 31.8282 124.696 33.5429C124.696 35.6761 122.922 36.6237 120.907 36.6237C118.083 36.6237 116.061 34.917 115.216 31.9554C115.186 31.8754 115.133 31.8062 115.063 31.7573C114.993 31.7084 114.91 31.6821 114.824 31.682C114.767 31.6705 114.709 31.6705 114.652 31.682L109.166 33.9613C109.089 33.9936 109.024 34.0483 108.978 34.1183C108.933 34.1882 108.909 34.2702 108.911 34.3537C108.906 34.3818 108.906 34.4105 108.911 34.4386C109.368 36.3168 110.314 38.0408 111.652 39.4359C112.99 40.8311 114.673 41.8479 116.531 42.3835C117.687 42.7015 118.882 42.8593 120.081 42.8524C121.488 42.8644 122.892 42.707 124.261 42.3835C128.783 41.2653 131.804 38.1168 131.804 32.4938C131.804 28.3546 128.724 26.3406 125.643 24.9155C123.629 23.9691 120.524 23.0816 120.524 21.007C120.507 19.5472 121.679 18.349 123.138 18.3332C123.234 18.3319 123.33 18.3362 123.425 18.3459C124.273 18.3463 125.108 18.5502 125.861 18.9405C126.614 19.3309 127.262 19.8962 127.75 20.589C127.79 20.6454 127.842 20.6913 127.903 20.7226C127.965 20.7539 128.033 20.7697 128.101 20.7687C128.179 20.7656 128.254 20.7453 128.323 20.709L132.974 17.3981C133.019 17.3553 133.055 17.3038 133.08 17.2467C133.105 17.1895 133.118 17.128 133.119 17.0657C133.119 17.0008 133.104 16.9357 133.076 16.8771C132.078 14.9242 129.825 13.336 127.213 12.6107M146.301 12.5865H139.799C139.707 12.5879 139.618 12.6184 139.545 12.6734C139.471 12.7285 139.417 12.8053 139.39 12.8931L133.759 41.9055C133.753 41.9366 133.753 41.9685 133.759 41.9996C133.75 42.0535 133.75 42.1085 133.759 42.1624C133.792 42.2394 133.846 42.3053 133.916 42.3521C133.985 42.399 134.067 42.4248 134.151 42.4266H140.653C140.73 42.424 140.806 42.4034 140.874 42.3664C140.969 42.3095 141.037 42.2173 141.063 42.1105L146.711 13.0463C146.709 12.9339 146.663 12.8267 146.584 12.7471C146.504 12.6676 146.397 12.6218 146.285 12.6194M169.332 12.5865C168.098 12.2647 166.827 12.1065 165.552 12.1161C164.117 12.1137 162.686 12.2715 161.286 12.5865C153.331 14.4029 147.731 21.536 147.854 29.6948C147.854 36.5215 151.508 41.0271 156.858 42.4262C158.092 42.7458 159.362 42.9035 160.637 42.8951C162.127 42.9093 163.612 42.7518 165.065 42.4262C169.222 41.4616 172.25 39.013 175.066 34.9253C175.123 34.829 175.14 34.7141 175.113 34.6056C175.086 34.4971 175.017 34.4037 174.921 34.3455L169.802 31.6913C169.749 31.6642 169.69 31.6497 169.631 31.6487C169.568 31.6504 169.507 31.6658 169.451 31.6938C169.395 31.7217 169.346 31.7616 169.307 31.8105C167.166 34.8915 164.716 36.6239 161.329 36.6239C157.421 36.6239 155.287 33.9017 155.287 30.8207V29.8743H176.398C176.476 29.8714 176.552 29.8508 176.62 29.8141C176.708 29.7588 176.774 29.6745 176.807 29.5758C177.295 27.7814 177.545 25.9306 177.55 24.0711C177.55 18.5595 174.733 14.0196 169.367 12.5865M156.669 24.0709C157.92 20.7458 161.053 18.5026 164.605 18.3884C168.334 18.3884 170.049 20.3428 170.288 24.0709H156.669ZM201.408 19.2845C201.471 19.3195 201.54 19.3372 201.612 19.3363C201.691 19.3381 201.767 19.3161 201.835 19.2759C201.91 19.2266 201.97 19.1552 202.005 19.0712L204.181 13.3114C204.19 13.2548 204.19 13.1971 204.181 13.1405C204.179 13.0567 204.154 12.9752 204.107 12.9056C204.06 12.836 203.994 12.7813 203.918 12.748L203.516 12.6029C202.533 12.2556 201.494 12.0965 200.452 12.1338C199.371 12.129 198.295 12.2872 197.261 12.6029C194.798 13.4148 192.647 14.9675 191.1 17.0486L191.876 13.1322C191.895 13.0695 191.899 13.0031 191.888 12.9386C191.876 12.874 191.849 12.8132 191.809 12.7613C191.769 12.7094 191.717 12.6679 191.657 12.6403C191.598 12.6127 191.532 12.5999 191.467 12.6029H184.939C184.84 12.6033 184.743 12.6386 184.667 12.7026C184.59 12.7666 184.539 12.8552 184.521 12.9532L178.881 41.9653C178.877 41.9879 178.877 42.0112 178.881 42.0338C178.868 42.0868 178.868 42.1423 178.881 42.1953C178.913 42.2733 178.967 42.3401 179.037 42.3873C179.107 42.4345 179.189 42.4599 179.273 42.4604H185.878C185.956 42.4576 186.031 42.4372 186.1 42.4006C186.195 42.3403 186.262 42.2451 186.288 42.1355L188.301 31.8962C190.076 22.5098 195.128 18.7554 198.838 18.7554C199.724 18.7379 200.602 18.9311 201.398 19.319M144.356 0.972455C142.033 0.972455 140.15 2.85595 140.15 5.17999C140.15 7.50313 142.033 9.38644 144.356 9.38644C146.679 9.38644 148.563 7.50331 148.563 5.17999C148.611 2.9034 146.804 1.01991 144.528 0.972455C144.471 0.971546 144.413 0.971546 144.356 0.972455ZM201.792 34.5922C199.459 34.6024 197.575 36.5013 197.586 38.8338C197.589 39.5562 197.777 40.2658 198.132 40.8948C198.488 41.5238 198.998 42.0511 199.616 42.4264C200.278 42.8011 201.026 42.998 201.787 42.998C202.548 42.998 203.296 42.8011 203.959 42.4264C205.953 41.2145 206.587 38.6161 205.375 36.6232C205.001 36.0073 204.475 35.4974 203.848 35.1419C203.221 34.7864 202.513 34.5972 201.792 34.5922Z" fill="white"/>
</svg>
