<?xml version="1.0" encoding="UTF-8"?>
<svg id="Layer_1" xmlns="http://www.w3.org/2000/svg" version="1.1" xmlns:xlink="http://www.w3.org/1999/xlink" viewBox="0 0 595.28 841.89">
  <!-- Generator: Adobe Illustrator 30.4.0, SVG Export Plug-In . SVG Version: 2.1.4 Build 226)  -->
  <defs>
    <style>
      .st0 {
        fill: url(#linear-gradient2);
      }

      .st1 {
        fill: #1a1e1e;
      }

      .st2 {
        fill: url(#linear-gradient10);
      }

      .st3 {
        fill: #c7202f;
      }

      .st4 {
        fill: #fcebd8;
      }

      .st5 {
        fill: #e03626;
      }

      .st6 {
        fill: #b18543;
      }

      .st7 {
        fill: #fff;
      }

      .st8 {
        fill: url(#linear-gradient1);
      }

      .st9 {
        fill: url(#linear-gradient9);
      }

      .st10 {
        fill: #fbf6f0;
      }

      .st11 {
        fill: #202213;
      }

      .st12 {
        fill: url(#linear-gradient8);
      }

      .st13 {
        fill: url(#linear-gradient11);
      }

      .st14 {
        fill: none;
      }

      .st15 {
        fill: #bf4b27;
      }

      .st16 {
        fill: #d1804a;
      }

      .st17 {
        fill: #292415;
      }

      .st18 {
        fill: #0d0f10;
      }

      .st19 {
        fill: #cd412b;
      }

      .st20 {
        fill: #f1dcc5;
      }

      .st21 {
        fill: #1b3f2f;
      }

      .st22 {
        fill: #ae8851;
      }

      .st23 {
        fill: #038342;
      }

      .st24 {
        fill: url(#linear-gradient7);
      }

      .st25 {
        fill: url(#linear-gradient4);
      }

      .st26 {
        fill: url(#linear-gradient5);
      }

      .st27 {
        fill: #191d1f;
      }

      .st28 {
        fill: url(#linear-gradient3);
      }

      .st29 {
        fill: #1c724d;
      }

      .st30 {
        fill: #f6c960;
      }

      .st31 {
        fill: #1c2a29;
      }

      .st32 {
        fill: #c6432b;
      }

      .st33 {
        fill: #c04828;
      }

      .st34 {
        fill: url(#linear-gradient6);
      }

      .st35 {
        fill: #197346;
      }

      .st36 {
        fill: #ede6d9;
      }

      .st37 {
        fill: #e05446;
      }

      .st38 {
        fill: url(#linear-gradient);
      }

      .st39 {
        fill: #171f20;
      }

      .st40 {
        fill: #968c33;
      }

      .st41 {
        clip-path: url(#clippath);
      }

      .st42 {
        fill: #9c2021;
      }

      .st43 {
        fill: #191f20;
      }

      .st44 {
        fill: #d72327;
      }

      .st45 {
        fill: #d48349;
      }

      .st46 {
        fill: #d3814f;
      }
    </style>
    <clipPath id="clippath">
      <rect class="st14" x="56.69" y="56.69" width="481.89" height="728.5"/>
    </clipPath>
    <linearGradient id="linear-gradient" x1="-53.89" y1="508.5" x2="351.76" y2="508.5" gradientTransform="translate(129.48)" gradientUnits="userSpaceOnUse">
      <stop offset="0" stop-color="#b68840"/>
      <stop offset=".99" stop-color="#f1df98"/>
    </linearGradient>
    <linearGradient id="linear-gradient1" x1="315.15" y1="108" x2="343.22" y2="108" gradientTransform="translate(382.4 -44.01) rotate(160.32) scale(1 -1)" gradientUnits="userSpaceOnUse">
      <stop offset="0" stop-color="#1d8348"/>
      <stop offset=".48" stop-color="#1d854b"/>
      <stop offset=".99" stop-color="#176e3b"/>
    </linearGradient>
    <linearGradient id="linear-gradient2" x1="313.52" y1="115.65" x2="346.51" y2="115.65" gradientTransform="translate(382.4 -44.01) rotate(160.32) scale(1 -1)" gradientUnits="userSpaceOnUse">
      <stop offset="0" stop-color="#bcbbbb"/>
      <stop offset=".48" stop-color="#fff"/>
      <stop offset=".99" stop-color="#f6f6f5"/>
    </linearGradient>
    <linearGradient id="linear-gradient3" x1="312.1" y1="125.27" x2="362.03" y2="125.27" gradientTransform="translate(382.4 -44.01) rotate(160.32) scale(1 -1)" gradientUnits="userSpaceOnUse">
      <stop offset="0" stop-color="#1d1c1b"/>
      <stop offset=".48" stop-color="#3b3938"/>
      <stop offset=".99" stop-color="#343432"/>
    </linearGradient>
    <linearGradient id="linear-gradient4" x1="325.16" y1="111.89" x2="395.89" y2="111.89" gradientTransform="translate(382.4 -44.01) rotate(160.32) scale(1 -1)" gradientUnits="userSpaceOnUse">
      <stop offset="0" stop-color="#d72327"/>
      <stop offset="1" stop-color="#b62325"/>
    </linearGradient>
    <linearGradient id="linear-gradient5" x1="271.89" y1="104.09" x2="284.33" y2="104.09" xlink:href="#linear-gradient1"/>
    <linearGradient id="linear-gradient6" x1="119.94" y1="123.72" x2="129.99" y2="168.91" gradientTransform="translate(6.41 21.35) rotate(-5.28)" xlink:href="#linear-gradient2"/>
    <linearGradient id="linear-gradient7" x1="293.02" y1="109.17" x2="322.14" y2="109.17" xlink:href="#linear-gradient3"/>
    <linearGradient id="linear-gradient8" x1="76.12" y1="105.1" x2="273.2" y2="105.1" xlink:href="#linear-gradient1"/>
    <linearGradient id="linear-gradient9" x1="94.64" y1="109.81" x2="295.5" y2="109.81" xlink:href="#linear-gradient2"/>
    <linearGradient id="linear-gradient10" x1="120.4" y1="111.94" x2="309.08" y2="111.94" xlink:href="#linear-gradient3"/>
    <linearGradient id="linear-gradient11" x1="-72.5" y1="49.18" x2="179.29" y2="49.18" xlink:href="#linear-gradient4"/>
  </defs>
  <g>
    <rect class="st3" x="0" width="595.28" height="841.89"/>
    <rect class="st23" x="14.17" y="14.17" width="566.93" height="813.54"/>
    <rect class="st7" x="28.35" y="28.35" width="538.58" height="785.2"/>
    <rect x="42.52" y="42.52" width="510.24" height="756.85"/>
    <rect class="st36" x="56.69" y="56.69" width="481.89" height="728.5"/>
  </g>
  <g>
    <g>
      <path d="M196.26,213.32c0-.15.07-.23.21-.23h8.86c.14,0,.21.08.21.23v1.98c0,.15-.07.23-.21.23h-6.49c-.08,0-.12.05-.12.14v3.77c0,.09.04.14.12.14h5.47c.14,0,.21.08.21.23v1.98c0,.15-.07.23-.21.23h-5.47c-.08,0-.12.05-.12.14v3.91c0,.09.04.14.12.14h6.49c.14,0,.21.08.21.23v1.98c0,.15-.07.23-.21.23h-8.86c-.14,0-.21-.08-.21-.23v-15.1Z"/>
      <path d="M208.12,213.34c0-.15.07-.23.21-.23h1.85c.18,0,.3.08.35.23l3.89,9.57h.08l3.83-9.57c.06-.15.17-.23.35-.23h1.83c.14,0,.21.08.21.23v15.08c0,.15-.07.23-.21.23h-1.81c-.14,0-.21-.08-.21-.23v-9.51h-.08l-3,7.31c-.08.2-.22.3-.4.3h-1.21c-.18,0-.31-.1-.4-.3l-3-7.31h-.08v9.51c0,.15-.07.23-.21.23h-1.81c-.14,0-.21-.08-.21-.23v-15.08Z"/>
      <path d="M223.84,213.34c0-.15.07-.23.21-.23h2.04c.14,0,.21.08.21.23v15.08c0,.15-.07.23-.21.23h-2.04c-.14,0-.21-.08-.21-.23v-15.08Z"/>
      <path d="M237.45,228.65c-.15,0-.26-.08-.31-.23l-2.7-6.06h-2.43c-.08,0-.12.05-.12.14v5.92c0,.15-.07.23-.21.23h-2.04c-.14,0-.21-.08-.21-.23v-15.1c0-.15.07-.23.21-.23h5.47c.65,0,1.25.11,1.8.34.55.23,1.02.55,1.42.95.4.4.72.89.95,1.46.23.57.34,1.2.34,1.89,0,1.02-.24,1.91-.73,2.65-.49.75-1.14,1.29-1.96,1.62l2.97,6.34c.04.08.04.14.01.21-.03.06-.09.09-.16.09h-2.31ZM235.01,219.92c.65,0,1.18-.2,1.57-.59.4-.39.59-.92.59-1.59s-.2-1.22-.59-1.61c-.4-.39-.92-.59-1.57-.59h-3.02c-.08,0-.12.05-.12.14v4.11c0,.09.04.14.12.14h3.02Z"/>
      <path d="M245.95,213.34c.04-.15.13-.23.27-.23h1.91c.14,0,.23.08.27.23l4.78,15.08c.04.15,0,.23-.15.23h-2.04c-.14,0-.23-.08-.27-.23l-.94-3.02h-5.32l-.94,3.02c-.04.15-.13.23-.27.23h-2.02c-.14,0-.19-.08-.15-.23l4.85-15.08ZM249.05,223.01l-1.87-6.03h-.06l-1.89,6.03h3.83Z"/>
      <path d="M257.02,228.65c-.14,0-.21-.08-.21-.23v-12.75c0-.09-.04-.14-.12-.14h-3.7c-.14,0-.21-.08-.21-.23v-1.98c0-.15.07-.23.21-.23h10.11c.14,0,.21.08.21.23v1.98c0,.15-.07.23-.21.23h-3.7c-.08,0-.12.05-.12.14v12.75c0,.15-.07.23-.21.23h-2.04Z"/>
      <path d="M265.32,213.34c0-.15.07-.23.21-.23h2.04c.14,0,.21.08.21.23v15.08c0,.15-.07.23-.21.23h-2.04c-.14,0-.21-.08-.21-.23v-15.08Z"/>
      <path d="M285.41,228.65c-.12,0-.21-.08-.25-.23l-2.7-10.63h-.04l-2.72,10.63c-.04.15-.12.23-.25.23h-1.56c-.12,0-.21-.08-.25-.23l-3.47-15.08c-.03-.15.03-.23.17-.23h1.96c.14,0,.22.08.25.23l2.25,10.47h.04l2.64-10.47c.04-.15.12-.23.25-.23h1.46c.12,0,.21.08.25.23l2.7,10.47h.04l2.18-10.47c.01-.15.1-.23.25-.23h1.93c.14,0,.19.08.17.23l-3.45,15.08c-.03.15-.11.23-.25.23h-1.58Z"/>
      <path d="M297.54,228.9c-1.22,0-2.27-.32-3.14-.95-.87-.63-1.49-1.57-1.85-2.8-.07-.24-.13-.49-.18-.73-.05-.24-.09-.53-.11-.85-.03-.32-.05-.7-.06-1.13-.01-.43-.02-.96-.02-1.57s0-1.13.02-1.57c.01-.43.03-.81.06-1.13.03-.32.07-.6.11-.85.05-.24.11-.49.18-.73.36-1.24.98-2.17,1.85-2.8.87-.63,1.92-.95,3.14-.95s2.29.32,3.16.95c.87.63,1.49,1.57,1.85,2.8.07.24.13.49.18.73.05.24.09.53.11.85.03.32.05.7.06,1.13.01.43.02.96.02,1.57s0,1.13-.02,1.57c-.01.43-.03.81-.06,1.13-.03.32-.07.6-.11.85-.05.24-.11.49-.18.73-.36,1.24-.98,2.17-1.85,2.8-.87.63-1.93.95-3.16.95ZM297.54,226.46c.71,0,1.28-.18,1.71-.54.43-.36.74-.86.94-1.49.04-.14.08-.3.1-.48.03-.18.05-.41.07-.68s.04-.6.05-.99c.01-.39.02-.86.02-1.4s0-1.01-.02-1.4c-.01-.39-.03-.72-.05-.99-.02-.27-.05-.5-.07-.68-.03-.18-.06-.34-.1-.48-.19-.64-.51-1.14-.94-1.49-.43-.36-1-.54-1.71-.54s-1.27.18-1.7.54c-.42.36-.73.86-.93,1.49-.04.14-.08.3-.11.48-.03.18-.06.41-.08.68-.02.27-.03.6-.04.99,0,.39-.01.86-.01,1.4s0,1.01.01,1.4c0,.39.02.72.04.99s.05.5.08.68c.03.18.07.34.11.48.19.64.5,1.14.93,1.49.42.36.99.54,1.7.54Z"/>
      <path d="M305.63,213.34c0-.15.07-.23.21-.23h1.85c.18,0,.3.08.35.23l3.89,9.57h.08l3.83-9.57c.06-.15.17-.23.35-.23h1.83c.14,0,.21.08.21.23v15.08c0,.15-.07.23-.21.23h-1.81c-.14,0-.21-.08-.21-.23v-9.51h-.08l-3,7.31c-.08.2-.22.3-.4.3h-1.21c-.18,0-.31-.1-.4-.3l-3-7.31h-.08v9.51c0,.15-.07.23-.21.23h-1.81c-.14,0-.21-.08-.21-.23v-15.08Z"/>
      <path d="M321.35,213.32c0-.15.07-.23.21-.23h8.86c.14,0,.21.08.21.23v1.98c0,.15-.07.23-.21.23h-6.49c-.08,0-.12.05-.12.14v3.77c0,.09.04.14.12.14h5.47c.14,0,.21.08.21.23v1.98c0,.15-.07.23-.21.23h-5.47c-.08,0-.12.05-.12.14v3.91c0,.09.04.14.12.14h6.49c.14,0,.21.08.21.23v1.98c0,.15-.07.23-.21.23h-8.86c-.14,0-.21-.08-.21-.23v-15.1Z"/>
      <path d="M333.21,213.34c0-.15.07-.23.21-.23h1.91c.15,0,.27.08.35.23l5.76,10.72h.08v-10.72c0-.15.07-.23.21-.23h1.81c.14,0,.21.08.21.23v15.08c0,.15-.07.23-.21.23h-1.89c-.15,0-.27-.08-.35-.23l-5.78-10.69h-.08v10.69c0,.15-.07.23-.21.23h-1.81c-.14,0-.21-.08-.21-.23v-15.08Z"/>
      <path d="M346.58,217.27v-3.93c0-.15.07-.23.21-.23h1.25c.14,0,.21.08.21.23v3.93c0,.15-.07.23-.21.23h-1.25c-.14,0-.21-.08-.21-.23Z"/>
      <path d="M355.55,228.9c-.53,0-1.04-.05-1.54-.16-.5-.11-.97-.25-1.42-.44-.45-.18-.87-.4-1.25-.66-.38-.25-.71-.53-.99-.82-.11-.12-.12-.24-.04-.35l1.29-1.65c.1-.12.19-.13.29-.02.22.2.47.4.76.59.28.2.59.37.92.53.33.15.67.28,1.03.38.36.1.74.15,1.14.15.85,0,1.5-.21,1.97-.63.46-.42.7-.96.7-1.61,0-.56-.19-1.02-.56-1.38-.37-.36-1.05-.61-2.02-.77l-.75-.11c-1.37-.21-2.43-.68-3.16-1.41-.74-.72-1.1-1.73-1.1-3.03,0-.7.11-1.34.33-1.92.22-.58.54-1.07.96-1.49.42-.41.92-.73,1.51-.95.59-.22,1.25-.33,1.99-.33.89,0,1.73.14,2.53.43.8.28,1.48.67,2.05,1.14.1.09.11.2.04.32l-1,1.7c-.08.12-.18.14-.29.07-.58-.41-1.14-.72-1.68-.91-.54-.2-1.11-.3-1.71-.3-.72,0-1.27.19-1.65.58-.38.39-.57.89-.57,1.5,0,.53.19.98.58,1.34.39.36,1.06.61,2.02.77l.75.11c1.38.21,2.43.68,3.15,1.41.72.72,1.08,1.76,1.08,3.1,0,.69-.11,1.33-.34,1.92s-.56,1.1-1.02,1.53c-.45.43-1.01.76-1.68,1.01-.67.24-1.44.37-2.31.37Z"/>
      <path d="M368.21,213.32c0-.15.07-.23.21-.23h5.06c2.47,0,4.05,1.15,4.73,3.46.06.2.1.41.15.63s.08.49.11.81c.03.32.06.71.07,1.18.01.47.02,1.03.02,1.7s0,1.24-.02,1.7c-.01.47-.04.86-.07,1.18-.03.32-.07.59-.11.81s-.09.43-.15.63c-.68,2.3-2.26,3.46-4.73,3.46h-5.06c-.14,0-.21-.08-.21-.23v-15.1ZM370.67,226.07c0,.09.04.14.12.14h2.1c.79,0,1.42-.15,1.9-.46.48-.3.82-.81,1.03-1.5.04-.11.08-.24.1-.4.03-.16.05-.36.07-.62.02-.25.04-.57.05-.95.01-.38.02-.85.02-1.41s0-1.03-.02-1.41c-.01-.38-.03-.7-.05-.96-.02-.26-.05-.46-.07-.62-.03-.15-.06-.28-.1-.39-.21-.7-.55-1.2-1.03-1.5-.48-.3-1.11-.46-1.9-.46h-2.1c-.08,0-.12.05-.12.14v10.4Z"/>
      <path d="M384.44,213.34c.04-.15.13-.23.27-.23h1.91c.14,0,.23.08.27.23l4.78,15.08c.04.15,0,.23-.15.23h-2.04c-.14,0-.23-.08-.27-.23l-.94-3.02h-5.32l-.94,3.02c-.04.15-.13.23-.27.23h-2.02c-.14,0-.19-.08-.15-.23l4.85-15.08ZM387.54,223.01l-1.87-6.03h-.06l-1.89,6.03h3.83Z"/>
      <path d="M395.29,228.65c-.14,0-.21-.08-.21-.23v-6.12l-4.1-8.96c-.06-.15,0-.23.17-.23h2.1c.14,0,.24.08.29.23l2.77,6.03h.06l2.79-6.03c.06-.15.15-.23.29-.23h2.02c.17,0,.22.08.17.23l-4.1,8.96v6.12c0,.15-.07.23-.21.23h-2.04Z"/>
    </g>
    <g>
      <path d="M203.28,187.18v-1.31c0-.2.09-.3.28-.3h2.54c.18,0,.28.1.28.3v9.81c0,.61.11,1.02.32,1.26.21.23.55.35,1.01.35h1.05c.74,0,1.11.51,1.11,1.53,0,.61-.09,1.02-.26,1.21-.18.19-.46.29-.84.29h-2.24c-.9,0-1.61-.17-2.11-.52-.51-.35-.84-.96-1.01-1.84-.39.37-.85.65-1.38.84-.53.19-1.1.28-1.69.28-.72,0-1.4-.11-2.03-.33-.64-.22-1.19-.57-1.66-1.03-.47-.47-.84-1.06-1.12-1.78-.28-.72-.41-1.58-.41-2.6,0-1.17.15-2.16.46-2.95.3-.79.71-1.42,1.22-1.9.51-.48,1.08-.81,1.73-1.02.64-.2,1.32-.3,2.02-.3h2.76ZM198,183.47c-.18,0-.28-.1-.28-.31v-2.64c0-.2.09-.31.28-.31h2.32c.18,0,.28.1.28.31v2.64c0,.2-.09.31-.28.31h-2.32ZM200.68,196.04c.88,0,1.54-.28,1.96-.83.42-.55.64-1.36.64-2.43v-2.57h-2.46c-.79,0-1.43.22-1.91.66-.48.44-.72,1.26-.72,2.45,0,.93.22,1.61.66,2.05.44.44,1.05.66,1.82.66ZM201.59,183.47c-.18,0-.28-.1-.28-.31v-2.64c0-.2.09-.31.28-.31h2.32c.18,0,.28.1.28.31v2.64c0,.2-.09.31-.28.31h-2.32Z"/>
      <path d="M215.06,198.76c-.26.59-.64,1-1.16,1.23-.52.22-1.22.34-2.1.34h-2.57c-.37,0-.64-.1-.83-.29-.18-.19-.28-.58-.28-1.15s.09-1.01.26-1.24c.18-.24.46-.35.84-.35h1.8c.33,0,.58-.06.76-.17.17-.11.3-.28.39-.51.08-.23.13-.53.15-.91.02-.37.03-.83.03-1.38v-6.3c0-.12.05-.2.15-.24.1-.04.21-.06.31-.06h2.36c.18,0,.27.1.27.3v7.39c0,.61.21,1.07.62,1.39.41.32.97.48,1.67.48h.47c.37,0,.64.11.83.34.18.23.28.6.28,1.14,0,.59-.09,1-.26,1.23-.18.22-.46.34-.84.34-.72,0-1.35-.1-1.88-.29-.53-.19-.96-.62-1.27-1.27ZM210.77,206.16c-.18,0-.28-.1-.28-.31v-2.64c0-.2.09-.31.28-.31h2.32c.18,0,.28.1.28.31v2.64c0,.2-.09.31-.28.31h-2.32ZM214.36,206.16c-.18,0-.28-.1-.28-.31v-2.64c0-.2.09-.31.28-.31h2.32c.18,0,.28.1.28.31v2.64c0,.2-.09.31-.28.31h-2.32Z"/>
      <path d="M218.23,200.33c-.37,0-.64-.1-.83-.29-.18-.19-.28-.57-.28-1.12,0-.59.09-1.01.26-1.26.18-.25.46-.37.84-.37h1.8c.46,0,.8-.12,1.01-.35.21-.23.32-.65.32-1.26v-7.66c0-.2.09-.3.27-.3h2.55c.18,0,.27.1.27.3v8.47c0,1.32-.25,2.28-.74,2.9-.49.62-1.32.93-2.47.93h-3.01ZM219.94,184.69c-.18,0-.28-.1-.28-.31v-2.64c0-.2.09-.31.28-.31h2.32c.18,0,.28.1.28.31v2.64c0,.2-.09.31-.28.31h-2.32ZM223.54,184.69c-.18,0-.28-.1-.28-.31v-2.64c0-.2.09-.31.28-.31h2.32c.18,0,.28.1.28.31v2.64c0,.2-.09.31-.28.31h-2.32Z"/>
      <path d="M231.33,200.02c0,.2-.09.3-.27.3h-2.55c-.18,0-.27-.1-.27-.3v-20.04c0-.2.09-.3.27-.3h2.55c.18,0,.27.1.27.3v20.04Z"/>
      <path d="M233.46,206.46c-.18,0-.28-.1-.28-.3v-2.43c0-.2.09-.3.28-.3h.61c.77,0,1.33-.21,1.67-.64.34-.43.51-1.07.51-1.94v-12.81c0-.2.09-.3.27-.3h2.55c.18,0,.27.1.27.3v12.87c0,3.7-1.62,5.56-4.86,5.56h-1.02Z"/>
      <path d="M242.86,179.98c0-.2.09-.3.27-.3h2.55c.18,0,.27.1.27.3v15.7c0,.61.11,1.03.32,1.26.21.23.55.35,1.01.35h.97c.37,0,.64.12.83.35.18.24.28.64.28,1.21,0,.63-.09,1.04-.26,1.21-.18.17-.46.26-.84.26h-2.18c-1.15,0-1.97-.31-2.47-.93-.49-.62-.74-1.58-.74-2.9v-16.52Z"/>
      <path d="M256.75,200.54c-.92,0-1.75-.14-2.49-.41-.74-.28-1.36-.73-1.85-1.36-.19.33-.41.59-.67.8-.26.2-.53.36-.81.48-.28.11-.56.19-.86.23-.29.04-.57.06-.83.06h-.97c-.37,0-.64-.12-.83-.35-.18-.24-.28-.63-.28-1.18,0-.59.09-.99.26-1.2.18-.2.46-.31.84-.31h1.08c.2,0,.41-.05.61-.14.2-.09.39-.24.55-.45.17-.21.3-.49.41-.85.11-.35.17-.79.17-1.32-.02-.16-.03-.31-.03-.45v-.45c.02-1.17.17-2.16.46-2.98.29-.82.68-1.48,1.19-2,.51-.51,1.1-.89,1.79-1.12.68-.23,1.43-.35,2.24-.35s1.57.12,2.27.36c.7.24,1.31.63,1.81,1.15.51.53.9,1.23,1.19,2.1.29.87.43,1.92.43,3.16s-.14,2.21-.42,3.04c-.28.83-.66,1.51-1.16,2.03-.5.53-1.1.91-1.8,1.15-.7.24-1.48.36-2.33.36ZM256.74,190.21c-.88,0-1.53.31-1.95.94-.42.63-.63,1.53-.63,2.72,0,1.29.21,2.22.63,2.78.42.56,1.07.85,1.95.85s1.56-.29,1.98-.86c.42-.57.63-1.5.63-2.77,0-2.44-.87-3.66-2.61-3.66Z"/>
      <path d="M273.12,197.29h2.89c.46,0,.8-.12,1.02-.35.21-.23.32-.65.32-1.26v-15.7c0-.2.09-.3.27-.3h2.55c.18,0,.27.1.27.3v16.52c0,1.32-.25,2.28-.74,2.9-.49.62-1.32.93-2.47.93h-12.13c-.18,0-.28-.1-.28-.31v-2.42c0-.2.09-.31.28-.31h4.92v-13.06c0-.2.09-.3.27-.3h2.55c.18,0,.27.1.27.3v13.06ZM269.61,207.22c-.13-.22-.23-.49-.32-.79-.08-.3-.12-.63-.12-.97s.05-.69.15-1.05c.1-.35.27-.68.51-.97.24-.29.54-.53.91-.71.37-.18.82-.27,1.35-.27s.98.1,1.38.3c.41.2.73.48.97.82.07.12.07.22,0,.3l-.72.73c-.07.08-.13.12-.17.12s-.07-.02-.11-.06c-.39-.47-.83-.7-1.33-.7-.42,0-.76.15-.99.44-.24.29-.36.65-.36,1.08s.1.75.29,1.05c.19.29.39.52.59.68h2.79c.11,0,.17.07.17.21v1.09c0,.14-.06.21-.17.21h-5.86c-.11,0-.17-.07-.17-.21v-1.09c0-.14.06-.21.17-.21h1.02Z"/>
      <path d="M287.16,200.02c0,.2-.09.3-.27.3h-2.55c-.18,0-.27-.1-.27-.3v-20.04c0-.2.09-.3.27-.3h2.55c.18,0,.27.1.27.3v20.04Z"/>
      <path d="M302.42,200.54c-.85,0-1.62-.12-2.32-.36-.7-.24-1.3-.63-1.8-1.15-.5-.53-.88-1.2-1.16-2.03-.28-.83-.41-1.84-.41-3.04s.14-2.29.43-3.16c.29-.87.68-1.57,1.19-2.1.51-.53,1.11-.91,1.81-1.15.7-.24,1.46-.36,2.27-.36s1.57.12,2.27.36c.7.24,1.3.63,1.81,1.15.51.53.9,1.23,1.19,2.1.29.87.43,1.92.43,3.16s-.14,2.21-.41,3.04c-.28.83-.67,1.51-1.17,2.03-.51.53-1.11.91-1.81,1.15-.7.24-1.46.36-2.29.36ZM299.51,184.69c-.18,0-.28-.1-.28-.31v-2.64c0-.2.09-.31.28-.31h2.32c.18,0,.28.1.28.31v2.64c0,.2-.09.31-.28.31h-2.32ZM302.43,190.21c-.9,0-1.56.31-1.98.94-.42.63-.63,1.53-.63,2.72,0,1.29.22,2.22.65,2.78.43.56,1.09.85,1.97.85s1.53-.29,1.95-.86c.42-.57.63-1.5.63-2.77,0-2.44-.86-3.66-2.58-3.66ZM303.11,184.69c-.18,0-.28-.1-.28-.31v-2.64c0-.2.09-.31.28-.31h2.32c.18,0,.28.1.28.31v2.64c0,.2-.09.31-.28.31h-2.32Z"/>
      <path d="M310.9,176.61c-.13-.22-.23-.48-.32-.77-.08-.29-.12-.61-.12-.96s.05-.69.15-1.05c.1-.35.27-.68.51-.97.24-.29.54-.54.91-.73.37-.19.82-.29,1.35-.29s.98.11,1.38.32c.41.21.73.49.97.83.06.12.06.21,0,.27l-.72.76c-.11.1-.2.11-.28.03-.18-.2-.39-.37-.61-.5-.22-.13-.46-.2-.72-.2-.42,0-.76.15-.99.44-.24.29-.36.66-.36,1.11,0,.41.1.75.29,1.05.19.29.39.51.59.65h2.79c.11,0,.17.07.17.21v1.12c0,.14-.06.21-.17.21h-5.86c-.11,0-.17-.07-.17-.21v-1.12c0-.14.06-.21.17-.21h1.02ZM314.41,200.02c0,.2-.09.3-.27.3h-2.55c-.18,0-.27-.1-.27-.3v-20.04c0-.2.09-.3.27-.3h2.55c.18,0,.27.1.27.3v20.04Z"/>
      <path d="M319.33,188.03c0-.2.09-.3.27-.3h2.55c.18,0,.27.1.27.3v7.39c0,.61.21,1.07.62,1.39.41.32.97.48,1.67.48h.47c.37,0,.64.11.83.34.18.23.28.6.28,1.14,0,.59-.09,1-.26,1.23-.18.22-.46.34-.84.34-.63,0-1.17-.06-1.62-.18-.45-.12-.83-.4-1.15-.83v.58c0,1.09-.08,2.05-.25,2.87-.16.82-.43,1.5-.81,2.05-.37.55-.87.96-1.49,1.23-.62.27-1.39.41-2.31.41h-1.02c-.18,0-.28-.1-.28-.3v-2.43c0-.2.09-.3.28-.3h.61c.53,0,.95-.1,1.24-.3.29-.2.51-.5.65-.9.14-.39.22-.87.25-1.43.03-.56.04-1.2.04-1.93v-10.84Z"/>
      <path d="M328.01,193.63c.02-1.17.17-2.16.46-2.98.29-.82.68-1.48,1.19-2,.51-.51,1.1-.89,1.79-1.12.68-.23,1.43-.35,2.24-.35s1.57.12,2.27.36c.7.24,1.31.63,1.81,1.15.51.52.9,1.22,1.19,2.09.29.87.43,1.92.43,3.15v.53c0,.17,0,.34-.03.5.02.85.2,1.45.54,1.8.34.35.73.53,1.17.53h.8c.37,0,.64.11.83.34.18.23.28.6.28,1.14,0,.59-.09,1-.26,1.23-.18.22-.46.34-.84.34-.31,0-.64-.01-.98-.03-.34-.02-.68-.09-1.02-.2-.34-.11-.66-.28-.97-.49-.31-.22-.58-.52-.82-.91-.5.65-1.12,1.12-1.87,1.41-.75.29-1.59.43-2.53.43s-1.75-.14-2.49-.41c-.74-.28-1.36-.73-1.85-1.36-.19.33-.41.59-.67.8-.26.2-.53.36-.81.48-.28.11-.56.19-.86.23-.29.04-.57.06-.83.06h-.97c-.37,0-.64-.12-.83-.35-.18-.24-.28-.63-.28-1.18,0-.59.09-.99.26-1.2.18-.2.46-.31.84-.31h1.08c.44,0,.84-.2,1.19-.59.35-.39.53-1.12.55-2.16-.02-.16-.03-.31-.03-.45v-.45ZM333.69,190.21c-.88,0-1.53.31-1.95.94-.42.63-.63,1.53-.63,2.72,0,1.29.21,2.22.63,2.78.42.56,1.07.85,1.95.85s1.56-.29,1.98-.86c.42-.57.63-1.5.63-2.77,0-2.44-.87-3.66-2.61-3.66Z"/>
      <path d="M341.83,200.33c-.37,0-.64-.1-.83-.29-.18-.19-.28-.59-.28-1.18s.09-.98.26-1.21c.18-.24.46-.35.84-.35h1.35c.46,0,.8-.12,1.01-.35.21-.23.32-.65.32-1.26v-15.7c0-.2.09-.3.27-.3h2.55c.18,0,.27.1.27.3v16.52c0,1.32-.25,2.28-.74,2.9-.49.62-1.31.93-2.47.93h-2.57Z"/>
      <path d="M354.32,200.02c0,.2-.09.3-.27.3h-2.55c-.18,0-.27-.1-.27-.3v-20.04c0-.2.09-.3.27-.3h2.55c.18,0,.27.1.27.3v20.04Z"/>
      <path d="M372.46,200.54c-.9,0-1.71-.14-2.42-.43s-1.3-.75-1.78-1.38c-.15.26-.33.46-.54.59-.21.13-.41.27-.59.43-.19.15-.35.35-.48.59-.13.24-.2.6-.2,1.07v5.05h-3.1v-5.68c0-.65.08-1.18.23-1.61.16-.43.36-.78.61-1.06.25-.28.52-.52.8-.71.29-.19.55-.38.8-.58.25-.19.47-.4.66-.64.19-.23.31-.54.35-.93-.02-.2-.03-.41-.04-.62,0-.21-.01-.44-.01-.68,0-1.23.14-2.29.43-3.16.29-.87.68-1.57,1.19-2.1.51-.53,1.11-.91,1.81-1.15.7-.24,1.46-.36,2.27-.36s1.57.12,2.27.36c.7.24,1.3.63,1.81,1.15.51.53.9,1.23,1.19,2.1.29.87.43,1.92.43,3.16s-.14,2.21-.41,3.04c-.28.83-.67,1.51-1.17,2.03-.51.53-1.11.91-1.81,1.15-.7.24-1.46.36-2.29.36ZM372.47,190.21c-.88,0-1.54.31-1.97.94-.43.63-.65,1.53-.65,2.72,0,1.29.22,2.22.65,2.78.43.56,1.09.85,1.97.85s1.53-.29,1.95-.86c.42-.57.63-1.5.63-2.77,0-2.44-.86-3.66-2.58-3.66Z"/>
      <path d="M383.42,206.46c-.18,0-.28-.1-.28-.3v-2.43c0-.2.09-.3.28-.3h3.23c.42,0,.79-.05,1.11-.14.31-.09.57-.25.77-.47.2-.22.36-.54.47-.94.11-.41.17-.92.17-1.55h-2.79c-.87,0-1.64-.11-2.31-.32-.67-.21-1.24-.57-1.7-1.06-.46-.5-.82-1.14-1.06-1.93s-.37-1.76-.37-2.91c0-1.23.16-2.29.47-3.17.31-.88.73-1.6,1.25-2.16.52-.56,1.12-.96,1.8-1.21.68-.25,1.4-.38,2.16-.38.83,0,1.59.12,2.29.36s1.29.63,1.79,1.15c.5.52.89,1.21,1.16,2.06.28.85.42,1.89.42,3.12v3.42h1.91c.37,0,.64.11.83.34.18.23.28.6.28,1.14,0,.65-.09,1.08-.26,1.27-.18.19-.46.29-.84.29h-1.91v.67c0,1.9-.44,3.29-1.31,4.16-.87.87-2.14,1.31-3.8,1.31h-3.73ZM386.63,190.21c-.83,0-1.48.34-1.95,1.03-.47.69-.7,1.6-.7,2.75,0,1.27.23,2.14.7,2.6.47.46,1.15.7,2.03.7h2.46v-3.45c0-1.19-.2-2.09-.61-2.71-.41-.61-1.05-.92-1.93-.92Z"/>
      <path d="M394.15,200.33c-.37,0-.64-.1-.83-.29-.18-.19-.28-.57-.28-1.12,0-.59.09-1.01.26-1.26.18-.25.46-.37.84-.37h1.8c.46,0,.8-.12,1.01-.35.21-.23.32-.65.32-1.26v-7.66c0-.2.09-.3.27-.3h2.55c.18,0,.27.1.27.3v8.47c0,1.32-.25,2.28-.74,2.9-.49.62-1.32.93-2.47.93h-3.01ZM395.2,206.16c-.18,0-.28-.1-.28-.31v-2.64c0-.2.09-.31.28-.31h2.32c.18,0,.28.1.28.31v2.64c0,.2-.09.31-.28.31h-2.32ZM398.79,206.16c-.18,0-.28-.1-.28-.31v-2.64c0-.2.09-.31.28-.31h2.32c.18,0,.28.1.28.31v2.64c0,.2-.09.31-.28.31h-2.32Z"/>
    </g>
  </g>
  <g>
    <path d="M257.84,260.03v-1.39l3.99-5.32c.23-.3.41-.62.54-.94.13-.32.19-.63.19-.92v-.02c0-.46-.13-.81-.4-1.06s-.65-.38-1.14-.38c-.46,0-.84.14-1.13.41-.29.28-.47.66-.53,1.17h0s-1.66,0-1.66,0h0c.14-.99.5-1.76,1.08-2.3.58-.54,1.32-.81,2.23-.81,1.03,0,1.82.26,2.38.78.56.52.84,1.25.84,2.2h0c0,.41-.08.84-.25,1.28-.17.44-.4.87-.7,1.27l-3.31,4.5h4.33v1.53h-6.45Z"/>
    <path d="M269.69,260.15c-.7,0-1.31-.13-1.82-.39-.52-.26-.92-.63-1.21-1.11s-.43-1.04-.43-1.68v-.19c0-.57.14-1.11.43-1.61.29-.5.67-.88,1.14-1.14-.4-.22-.72-.54-.97-.96-.25-.42-.37-.86-.37-1.32v-.28c0-.91.3-1.63.89-2.18.59-.55,1.37-.82,2.35-.82s1.76.27,2.35.82c.59.55.88,1.28.88,2.18v.28c0,.47-.12.92-.37,1.33-.25.41-.58.73-.99.94.48.26.87.64,1.16,1.14.29.5.44,1.04.44,1.61v.19c0,.64-.14,1.2-.43,1.68-.29.48-.69.85-1.21,1.11-.52.26-1.13.39-1.83.39ZM269.69,258.6c.56,0,1.01-.16,1.36-.48.34-.32.51-.75.51-1.27v-.11c0-.53-.17-.96-.51-1.28-.34-.32-.8-.48-1.36-.48s-1.01.16-1.36.48-.52.75-.52,1.29v.12c0,.52.17.95.52,1.26.34.32.8.48,1.36.48ZM269.69,253.43c.49,0,.88-.15,1.18-.46s.45-.72.45-1.23v-.11c0-.49-.15-.88-.45-1.18-.3-.3-.69-.44-1.18-.44s-.88.15-1.18.44c-.3.3-.45.69-.45,1.18v.12c0,.5.15.91.45,1.22.3.31.69.46,1.18.46Z"/>
    <path d="M278.86,260.03l4.22-11.44h1.37l4.22,11.44h-1.73l-3.17-9.23-3.17,9.23h-1.73ZM280.81,257.52v-1.53h6.02v1.53h-6.02Z"/>
    <path d="M293.62,260.15c-1.27,0-2.26-.37-2.96-1.11-.7-.74-1.05-1.79-1.05-3.14v-7.3h1.6v7.36c0,.83.21,1.48.63,1.94.42.46,1.01.68,1.78.68s1.37-.23,1.79-.68c.42-.46.63-1.1.63-1.94v-7.36h1.6v7.3c0,1.35-.35,2.4-1.05,3.14-.7.74-1.69,1.11-2.97,1.11Z"/>
    <path d="M303.86,253.87h3.97v2c0,.86-.17,1.61-.5,2.25-.33.64-.8,1.14-1.4,1.49s-1.3.53-2.11.53-1.52-.17-2.13-.5c-.61-.33-1.08-.8-1.42-1.41s-.5-1.31-.5-2.12v-3.37c0-.86.17-1.61.5-2.25.33-.64.8-1.14,1.4-1.49.6-.35,1.3-.53,2.11-.53.67,0,1.27.14,1.82.42s1.01.68,1.38,1.19c.37.51.62,1.1.76,1.79h-1.74c-.15-.59-.43-1.05-.86-1.36s-.88-.47-1.36-.47c-.71,0-1.29.25-1.72.74s-.65,1.15-.65,1.96v3.37c0,.74.22,1.34.66,1.79s1.02.67,1.75.67,1.29-.24,1.72-.71c.43-.47.65-1.13.65-1.97v-.5h-2.32v-1.53Z"/>
    <path d="M313.96,260.15c-1.27,0-2.26-.37-2.96-1.11-.7-.74-1.05-1.79-1.05-3.14v-7.3h1.6v7.36c0,.83.21,1.48.63,1.94.42.46,1.01.68,1.78.68s1.37-.23,1.79-.68c.42-.46.63-1.1.63-1.94v-7.36h1.6v7.3c0,1.35-.35,2.4-1.05,3.14-.7.74-1.69,1.11-2.97,1.11Z"/>
    <path d="M323.79,260.15c-.56,0-1.08-.05-1.57-.16-.49-.1-.95-.26-1.38-.47-.43-.21-.83-.47-1.2-.79l1-1.23c.44.38.92.66,1.44.85.52.19,1.09.28,1.71.28.83,0,1.47-.15,1.93-.46s.68-.74.68-1.3h0c0-.44-.12-.78-.35-1.01-.23-.23-.53-.4-.91-.52-.38-.11-.79-.21-1.23-.28-.43-.07-.86-.16-1.3-.26s-.84-.26-1.21-.47-.66-.52-.88-.92c-.22-.4-.33-.93-.33-1.6h0c0-1.07.35-1.9,1.06-2.48s1.71-.88,3-.88c.61,0,1.21.1,1.8.3.59.2,1.16.5,1.72.9l-.91,1.27c-.44-.32-.87-.57-1.3-.72-.43-.16-.87-.24-1.3-.24-.78,0-1.39.16-1.82.47-.43.31-.65.75-.65,1.33h0c0,.44.13.77.38.99.25.23.58.39.99.5.41.11.84.21,1.31.3.42.08.84.18,1.26.3.42.12.8.29,1.14.51.34.22.62.53.83.92.21.39.31.89.31,1.52v.02c0,1.05-.37,1.87-1.1,2.45s-1.77.87-3.1.87Z"/>
    <path d="M328.7,250.12v-1.53h8.07v1.53h-8.07ZM331.93,260.03v-10.5h1.6v10.5h-1.6Z"/>
  </g>
  <rect class="st22" x="211.93" y="240.75" width="171.78" height=".54"/>
  <rect class="st22" x="211.93" y="266.91" width="171.78" height=".54"/>
  <g class="st41">
    <g>
      <g>
        <path class="st6" d="M151.39,663.95c-14.14,0-26.93-2.33-38.36-6.99-11.44-4.67-20.53-10.98-27.3-18.95-6.77-7.97-10.15-16.92-10.15-26.85,0-7.83,2.26-14.37,6.77-19.63,4.51-5.27,10.22-7.9,17.15-7.9,5.71,0,10.38,1.58,13.99,4.74,3.61,3.16,5.41,7.29,5.41,12.41,0,1.2-.16,2.63-.45,4.29-.3,1.65-.9,4.13-1.8,7.45-.9,2.71-1.51,4.96-1.81,6.77-.3,1.81-.45,3.61-.45,5.41,0,7.82,3.38,14.21,10.15,19.18,6.77,4.96,15.41,7.45,25.95,7.45,13.23,0,24.89-3.84,34.97-11.51,10.08-7.67,17.97-18.35,23.69-32.04,5.71-13.69,8.57-29.41,8.57-47.15,0-21.96-4.59-38.88-13.76-50.76-9.18-11.88-22.19-17.82-39.03-17.82-11.44,0-21.36,2.86-29.78,8.57-8.42,5.72-15.95,13.39-22.56,23.01h-8.12l12.63-170.57h11.73l-12.18,157.48-5.41-4.51c6.92-9.32,15.41-16.54,25.49-21.66,10.08-5.11,21.73-7.67,34.97-7.67,16.84,0,31.59,3.46,44.22,10.38,12.63,6.92,22.41,16.63,29.33,29.1,6.92,12.49,10.38,27.15,10.38,44,0,19.55-4.59,37.15-13.76,52.79-9.18,15.64-21.59,28.05-37.23,37.23-15.65,9.17-33.39,13.76-53.25,13.76ZM118,399.07l2.26-32.94h49.18c18.65,0,32.94-.68,42.87-2.03,9.93-1.35,17.6-3.53,23.01-6.54h4.06v4.96c0,13.54-6.47,23.01-19.4,28.43-12.94,5.41-35.5,8.12-67.69,8.12h-34.29Z"/>
        <path class="st6" d="M388.74,567.84c-17.75,0-33.62-4.59-47.61-13.76-13.99-9.17-24.97-21.66-32.94-37.45-7.97-15.79-11.96-33.77-11.96-53.92s4.06-38.05,12.18-53.7c8.12-15.64,19.18-28.05,33.17-37.23,13.99-9.17,29.7-13.76,47.15-13.76s33.54,4.59,47.38,13.76c13.83,9.18,24.82,21.59,32.94,37.23,8.12,15.65,12.18,33.55,12.18,53.7s-3.99,38.13-11.96,53.92c-7.97,15.79-18.95,28.28-32.94,37.45-13.99,9.17-29.86,13.76-47.61,13.76ZM388.74,556.56c19.55,0,33.84-7.67,42.87-23.01,9.02-15.34,13.54-38.95,13.54-70.84s-4.51-55.8-13.54-70.84c-9.02-15.04-23.32-22.56-42.87-22.56s-33.47,7.52-42.64,22.56c-9.18,15.05-13.76,38.66-13.76,70.84s4.58,55.5,13.76,70.84c9.17,15.34,23.39,23.01,42.64,23.01Z"/>
      </g>
      <g>
        <path class="st38" d="M151.39,663.95c-14.14,0-26.93-2.33-38.36-6.99-11.44-4.67-20.53-10.98-27.3-18.95-6.77-7.97-10.15-16.92-10.15-26.85,0-7.83,2.26-14.37,6.77-19.63,4.51-5.27,10.22-7.9,17.15-7.9,5.71,0,10.38,1.58,13.99,4.74,3.61,3.16,5.41,7.29,5.41,12.41,0,1.2-.16,2.63-.45,4.29-.3,1.65-.9,4.13-1.8,7.45-.9,2.71-1.51,4.96-1.81,6.77-.3,1.81-.45,3.61-.45,5.41,0,7.82,3.38,14.21,10.15,19.18,6.77,4.96,15.41,7.45,25.95,7.45,13.23,0,24.89-3.84,34.97-11.51,10.08-7.67,17.97-18.35,23.69-32.04,5.71-13.69,8.57-29.41,8.57-47.15,0-21.96-4.59-38.88-13.76-50.76-9.18-11.88-22.19-17.82-39.03-17.82-11.44,0-21.36,2.86-29.78,8.57-8.42,5.72-15.95,13.39-22.56,23.01h-8.12l12.63-170.57h11.73l-12.18,157.48-5.41-4.51c6.92-9.32,15.41-16.54,25.49-21.66,10.08-5.11,21.73-7.67,34.97-7.67,16.84,0,31.59,3.46,44.22,10.38,12.63,6.92,22.41,16.63,29.33,29.1,6.92,12.49,10.38,27.15,10.38,44,0,19.55-4.59,37.15-13.76,52.79-9.18,15.64-21.59,28.05-37.23,37.23-15.65,9.17-33.39,13.76-53.25,13.76ZM118,399.07l2.26-32.94h49.18c18.65,0,32.94-.68,42.87-2.03,9.93-1.35,17.6-3.53,23.01-6.54h4.06v4.96c0,13.54-6.47,23.01-19.4,28.43-12.94,5.41-35.5,8.12-67.69,8.12h-34.29Z"/>
        <path class="st38" d="M388.74,567.84c-17.75,0-33.62-4.59-47.61-13.76-13.99-9.17-24.97-21.66-32.94-37.45-7.97-15.79-11.96-33.77-11.96-53.92s4.06-38.05,12.18-53.7c8.12-15.64,19.18-28.05,33.17-37.23,13.99-9.17,29.7-13.76,47.15-13.76s33.54,4.59,47.38,13.76c13.83,9.18,24.82,21.59,32.94,37.23,8.12,15.65,12.18,33.55,12.18,53.7s-3.99,38.13-11.96,53.92c-7.97,15.79-18.95,28.28-32.94,37.45-13.99,9.17-29.86,13.76-47.61,13.76ZM388.74,556.56c19.55,0,33.84-7.67,42.87-23.01,9.02-15.34,13.54-38.95,13.54-70.84s-4.51-55.8-13.54-70.84c-9.02-15.04-23.32-22.56-42.87-22.56s-33.47,7.52-42.64,22.56c-9.18,15.05-13.76,38.66-13.76,70.84s4.58,55.5,13.76,70.84c9.17,15.34,23.39,23.01,42.64,23.01Z"/>
      </g>
    </g>
    <g>
      <path class="st27" d="M260.13,347.17l5.17-1.03s1.92-.44,1.63,4.29c-.3,4.73-2.51,9.31-2.51,9.31,0,0-.78-7.84-3.64-6.8s-.65-5.76-.65-5.76Z"/>
      <path class="st30" d="M264.14,347.09l.27,12.64s-.89,10.01-.15,12.62c.74,2.6,4.05,8.81,2.69,9.25s-2.25,1.03-2.25,1.63.2,2.27.2,2.27c0,0-3.99,1.33-5.15,1.88s-.28,1.55.39,2.27,1.72.39,1.61,2.72.96,6.76-2.96,6.82-10.84-3.27-10.84-3.27l-8.31-12.75s6.1-30.31,6.43-30.92,7.92-2.83,8.81-2.16,9.26-3,9.26-3Z"/>
      <polygon class="st10" points="388.99 643.47 523.33 785.2 452.39 785.2 378.35 691.36 372.37 656.26 388.99 643.47"/>
      <path class="st4" d="M368.16,650.12l9.92,14.47s60.13,109.38,74.31,120.61h-66.95l-35.47-17.88-13.3-71.53,31.48-45.66Z"/>
      <polygon class="st43" points="244.46 785.2 300.33 785.2 292.79 749.43 244.46 785.2"/>
      <path class="st20" d="M339.34,702.44s23.05,60.44,46.11,82.76h-85.12l-12.86-41.38,51.87-41.38Z"/>
      <path class="st31" d="M241.66,375.25s13.74-12.41,16.4-17.59,7.24-11.53,7.24-11.53c0,0-14.33-6.8-21.13-8.72-6.8-1.92-22.76-2.07-33.25,6.5-10.49,8.57-12.27,16.85-12.71,26.01-.44,9.16-14.04,83.35-14.04,86.01s-18.62,124.58-19.8,131.82-22.32,99.46-26.01,108.32-10.05,29.56-29.41,46.11c-19.36,16.55-66.43,43-66.43,43h76.48s58.52-47.73,97.09-108.92c38.57-61.18,66.5-146.97,66.83-198.18,0,0-2.55-2.96-4.91-15.07s-10.34-23.65-16.55-33.99c-6.21-10.34-12.12-27.49-14.48-30.15s11.82.3,11.82.3c0,0-12.71-3.55-13.3-8.87-.59-5.32-3.84-15.07-3.84-15.07Z"/>
      <path class="st18" d="M119,785.2s23.05-75.37,31.63-104.04c8.57-28.67,32.81-135.07,36.65-161.67,3.84-26.6,7.39-82.17,10.05-101.67,2.66-19.51,7.98-60.89,7.98-60.89,0,0,1.29-4.89,0-7.52l3.76-3.89s21.49,52.5,39.75,68.46c0,0-31.39-28.37-38.19-59.11,0,0,7.68,57.04,17.44,68.28,0,0-15.96-1.48-19.21,18.32-3.25,19.8-20.39,164.92-20.99,174.97-.59,10.05-7.02,85.12-7.02,85.12,0,0,36.87-54.68,43.37-64.73,6.5-10.05,18.32-37.72,18.32-37.72,0,0,.3-7.5.89-14.89,0,0,20.39-38.13,23.65-54.38,3.25-16.26.89-57.49.89-57.49l2-13.19,9.03,8.37s2.41,7.77,2.75,8.47,1.19,2.11,1.19,2.11l-.7,14.09s-3.92,30.33-8,45.63c-4.08,15.3-11.87,40.16-13.54,44.81-1.67,4.64-19.09,46.82-22.26,53.22-3.17,6.4-30.69,58.51-48.57,76.9,0,0-51.57,60.1-70.86,72.44Z"/>
      <path class="st19" d="M282.92,478.11s4.43,18.34,9.86,31.03c0,0,13.74,111.15,20.84,147.12,0,0-38.68,80.02-112.67,128.93h-81.96s96.04-86.41,129.82-171.7c33.78-85.29,34.11-135.39,34.11-135.39Z"/>
      <path class="st5" d="M292.79,509.14s35.47,62.07,43.89,71.38c0,0-.78,53.56-23.05,75.74l-11.53-21.21-9.31-125.91Z"/>
      <path class="st37" d="M336.68,580.52s42.16,55.23,52.31,62.96c0,0-31.03,81.28-144.53,141.72h-43.5s122.86-91.62,135.72-204.68Z"/>
      <path class="st1" d="M208.55,374.2l-4.21,72.65s9.53-29.65,9.53-36.33-5.32-36.33-5.32-36.33Z"/>
      <polygon class="st43" points="232.49 428.75 228.06 423.13 222.27 423.13 209.25 659.31 226.14 636.82 232.49 428.75"/>
      <path class="st19" d="M252.96,565.35l-10.64-34.34-.54-42.71s22.93,23.64,25.3,41.52c0,0-6.5,22.43-14.11,35.52Z"/>
      <polygon class="st21" points="237.64 427.43 269.96 459.15 260.13 508.25 238.7 436.43 237.64 427.43"/>
      <path class="st31" d="M223.75,337.72s1.1,15.7,5.97,26.23c4.88,10.53,8.65,16.96,8.65,16.96,0,0,3.77-28.48,4.54-33.25.78-4.77,1.26-10.23,1.26-10.23,0,0-7.66-2.65-20.42.3Z"/>
      <polygon class="st35" points="236.33 377.22 243.52 343.38 238.37 380.9 236.33 377.22"/>
      <path class="st39" d="M246.83,398.12s-24.85-35.69-22.14-52.61c0,0,1.11,8.54,4.74,17.76s8.95,17.64,8.95,17.64l4.73-34.42-.51,27.92-.92.85s2.47,8.19,2.9,10.06.51,2.01.72,3.43.29,2.76,1.14,3.73,4.01,3.8,8.2,5.26l4.19,1.46s-6.95-1.18-7.76-1.26-3.39-.49-4.21.19Z"/>
      <path class="st40" d="M262.12,379.83s-.05,2.21,3.82,2.17c0,0-1.28.44-1.23,1.22,0,0-2.88-.59-2.59-3.4Z"/>
      <path class="st45" d="M242.58,374.4s9.05.4,11.34,1.58,3.03,3.62,2.73,6.95c-.3,3.33-1.48,8.13.37,11.01s3.52,5.27,2.29,5.25-7.01-1.65-10.5-4.48-3.41-4.02-3.77-7.27c-.36-3.25-3.1-11.23-3.1-11.23l-.29-.96.92-.85Z"/>
      <path class="st33" d="M242.34,377.4s4.26-.9,5.59,1.17,4.36,5.91,4.36,7.83,2.14.96,2.07-.44-.67-5.54-2.14-7.83c-1.48-2.29-2.51-3.11-2.51-3.11l-7.13-.61-.92.85.69,2.15Z"/>
      <path class="st11" d="M251.89,367.82s4.66-1.77,6.1-1.11,2.22,1.66,3.1,1.66,2.99-1.07,1.55-1.81-6.87-2.29-10.75,1.26Z"/>
      <path class="st17" d="M252.44,372.35s2.15,2.12,5.07,3.34,2.79-.67,1.8-1.11-6.87-2.23-6.87-2.23Z"/>
      <path class="st46" d="M259.9,367.9s.09,4.97.97,6.33,3.16,2.47,3.16,2.47c0,0-.73-3.14-.89-4.34s-.61-4.45-.61-4.45c0,0-1.12.67-1.69.45s-.94-.45-.94-.45Z"/>
      <path class="st16" d="M249.71,370.37l7.8-1.63s.55-.67.48.81-.23,4.47-.23,4.47c0,0-3.6-.88-5.31-1.68s-2.73-1.98-2.73-1.98Z"/>
      <path class="st15" d="M256.19,369.02s.76,1.83-3.75,3.33c0,0-2.66-1.39-2.73-1.98l6.48-1.35Z"/>
      <path class="st32" d="M264.02,385.8s2.1,2.58-2.79,4.61c0,0-1.6-.93-1.94-1.88s.34-1.12.99-1.37,3.73-1.35,3.73-1.35Z"/>
      <path class="st29" d="M228.06,423.13s8.42.44,10.86,6.43c2.44,5.99,2.88,61.4,2.88,61.4l1.11,85.79.52,7.46-.89,14.89-18.32,37.72,3.84-213.69Z"/>
    </g>
    <g>
      <path class="st8" d="M97.37,174.81l-2.45-3.42s15.33-8.71,24.27-12.06l3.62,6.69-14.17,8.07-11.27.73Z"/>
      <path class="st42" d="M450.08,32.69l-9.4,7.36s-44.53,99.61-173.56,112.25c0,0,66.27-26.55,80.28-47.54,14.01-20.99,71.38-135.56,71.38-135.56l32.19,65.94"/>
      <path class="st0" d="M127.06,180.35l.94-4.23s.49-.79-4.89-10.24c0,0-4.14,3.48-27.89,5.37l-1.27,6.76,1.13,3.59s10.75,6.21,14,5.19,17.98-6.43,17.98-6.43Z"/>
      <path class="st28" d="M82.34,183.49l-.31,7.72c3.64,2.36,7.68,4.27,11.76,5.7,7.78,2.73,15.73,2.14,23.56-.26,6.58-2.01,14.4-7.14,14.41-14.68,0,0-1.64-3.38-3.75-5.85,0,0-10.64,11.21-33.23,5.62l-12.43,1.76Z"/>
      <path class="st25" d="M45.32,189.13s26.69-4.01,36.7,2.09c0,0,33.72-21.56,28.96-28.28l-16.43,7.78-49.23,18.41Z"/>
      <path class="st26" d="M152.56,157.69l3.91-.71s4.77-5.93,5.12-10.98l-5.53-8.16-5.71,2.04,2.2,17.81Z"/>
      <polygon class="st34" points="135.18 134.86 148.75 135.39 156.47 156.98 144.19 174.26 135.42 160.9 130.2 148.01 130.34 139.82 135.18 134.86"/>
      <path class="st24" d="M128.75,189.46l-3.68,3.62,19.13-18.83s-1.28-8.74-6.5-18.17c-5.22-9.43-3.9-15.43-2.52-21.23,0,0-10.21-2.11-16,2.96-5.79,5.07-4.37,11.4,0,21.51,4.38,10.11,13.96,20.64,9.68,29.37"/>
      <path class="st12" d="M348.83,88.18l-13.81,16.39s-25.18,23.25-45.34,29.64c-20.15,6.39-63.48,13.28-82.68,6-19.2-7.27-56.33-20.83-56.33-20.83,0,0,19.3-12.23,33.25-11.89s42.84,12.36,59.34,12.95c16.5.59,53.91,5.5,105.56-32.26Z"/>
      <path class="st9" d="M335.02,104.57l-20.55,19.03s-21.65,22.02-62.14,29.91c-40.49,7.89-83.28-12.01-92.18-17.13-8.9-5.12-29.73-7.44-29.73-7.44l20.26-9.56s12.09-5.76,41.08,5.69c28.99,11.45,78.13,27.69,143.26-20.5Z"/>
      <path class="st2" d="M314.47,123.6s-17.43,19.14-54.34,31.11c-36.9,11.97-63.27,6.14-81.02-.53-17.75-6.67-46.73-27.54-59.94-16.36,0,0,10.25-14.31,28.88-11.2,14.69,2.46,27.44,10.88,40.55,17.38,29.83,14.8,65.94,9.29,95.47-3.53,10.65-4.62,20.79-10.37,30.4-16.88Z"/>
      <path class="st13" d="M391.36-97.83s19.39,192.08-128.61,251.69c0,0,107.62-3.45,161.22-160.5,53.6-157.05-32.61-91.18-32.61-91.18"/>
    </g>
    <g>
      <path d="M356.28,512.14v-.4l.32-.03c.42-.05.73-.12.92-.21.19-.09.32-.25.38-.48s.09-.59.09-1.06v-7.15c0-.48-.03-.84-.09-1.07s-.19-.39-.38-.48c-.19-.09-.5-.16-.92-.2l-.32-.03v-.4l2.4.05,2.38-.05v.4l-.32.03c-.41.04-.71.11-.91.2-.2.09-.33.25-.39.48-.06.23-.09.59-.09,1.07v7.15c0,.47.03.83.09,1.06.06.24.19.4.39.48.2.09.5.16.91.21l.32.03v.4l-2.38-.05-2.4.05ZM358.83,506.44v-.52h7.12v.52h-7.12ZM363.79,512.14v-.4l.32-.03c.42-.05.72-.12.92-.21.19-.09.32-.25.38-.48s.09-.59.09-1.06v-7.15c0-.48-.03-.84-.09-1.07s-.19-.39-.38-.48c-.19-.09-.5-.16-.92-.2l-.32-.03v-.4l2.4.05,2.38-.05v.4l-.32.03c-.41.04-.71.11-.91.2-.2.09-.33.25-.39.48s-.09.59-.09,1.07v7.15c0,.47.03.83.09,1.06s.19.4.39.48.5.16.91.21l.32.03v.4l-2.38-.05-2.4.05Z"/>
      <path d="M371.85,512.27c-.55,0-.99-.13-1.32-.4-.33-.27-.5-.62-.5-1.05,0-.41.17-.8.5-1.17.33-.37.86-.75,1.59-1.15.32-.18.68-.36,1.08-.54.4-.18.84-.35,1.32-.52l.02.31c-1.04.43-1.84.9-2.41,1.42-.56.52-.85,1.03-.85,1.53,0,.31.09.55.27.72.18.17.44.26.77.26.3,0,.6-.08.89-.23.3-.16.56-.36.79-.61.23-.25.39-.53.49-.83l.1.53c-.27.54-.65.96-1.14,1.27-.49.31-1.03.47-1.62.47ZM375.75,512.27c-.46,0-.79-.15-.99-.44-.2-.29-.3-.76-.3-1.42v-3.48c0-.63-.12-1.08-.36-1.35s-.65-.4-1.22-.4c-.39,0-.7.05-.93.15-.23.1-.35.23-.35.39,0,.04,0,.09.02.14.02.05.03.1.04.17.05.22.08.37.08.45,0,.17-.07.32-.2.44-.13.12-.31.19-.52.19-.2,0-.37-.07-.5-.22-.13-.14-.19-.33-.19-.56,0-.3.12-.57.36-.8s.57-.41,1-.55c.42-.13.91-.2,1.46-.2.85,0,1.47.2,1.85.6.39.4.58,1.05.58,1.94v2.9c0,.55.04.93.13,1.15.09.22.23.33.43.33.15,0,.29-.05.41-.15.12-.1.21-.24.27-.41l.29.11c-.19.68-.65,1.02-1.37,1.02Z"/>
      <path d="M377.57,512.14v-.37l.26-.03c.35-.04.61-.1.77-.19.16-.08.27-.23.31-.44.05-.21.07-.54.07-.97v-3.4c0-.48-.1-.82-.29-1.02s-.53-.29-1.02-.29h-.11v-.37c.56,0,1.03-.01,1.42-.04.39-.03.76-.08,1.13-.15v5.27c0,.43.02.75.07.97.05.22.16.36.32.44.17.08.42.14.76.19l.26.03v.37l-1.98-.05-1.98.05ZM382.56,512.14v-.37l.26-.03c.35-.04.61-.1.77-.19s.27-.23.31-.44c.05-.21.07-.54.07-.97v-3.22c0-.52-.14-.92-.41-1.22s-.65-.44-1.12-.44c-.53,0-1.01.17-1.45.5s-.75.76-.93,1.29l-.03-.74c.31-.48.71-.86,1.18-1.13.48-.27,1.01-.4,1.59-.4.71,0,1.27.19,1.68.57.41.38.62.91.62,1.57v3.22c0,.43.02.75.07.97.05.22.16.36.32.44.17.08.42.14.77.19l.26.03v.37l-1.98-.05-1.98.05Z"/>
      <path d="M390.7,512.27c-.61,0-1.17-.17-1.66-.5-.49-.33-.89-.78-1.18-1.35s-.44-1.2-.44-1.9.15-1.33.44-1.89.68-1.01,1.18-1.35c.5-.33,1.06-.5,1.67-.5.48,0,.95.11,1.39.33.45.22.81.52,1.09.89l-.15.55c-.17-.37-.46-.67-.88-.92-.41-.25-.84-.37-1.28-.37-.68,0-1.21.29-1.59.86s-.58,1.37-.58,2.39.19,1.81.58,2.39c.39.59.92.88,1.61.88.4,0,.78-.1,1.14-.31.36-.2.69-.5.99-.89l.23.27c-.33.45-.72.8-1.15,1.04-.43.24-.9.36-1.41.36ZM393.29,512.22l-.23-1.26-.13-.21v-8.43c0-.48-.1-.82-.29-1.02-.19-.19-.53-.29-1.02-.29h-.11v-.37c.54,0,1-.01,1.39-.04.39-.03.78-.08,1.15-.15v9.88c0,.53.1.89.29,1.09.19.2.54.3,1.05.3v.37h-.66c-.3,0-.56,0-.76.02-.21.02-.44.05-.68.1Z"/>
      <path d="M400.19,512.14v-.37l.26-.03c.35-.04.61-.1.77-.19.16-.08.27-.23.31-.44.05-.21.07-.54.07-.97v-3.4c0-.48-.1-.82-.29-1.02s-.53-.29-1.02-.29h-.11v-.37c.54,0,1-.01,1.39-.04.39-.03.78-.08,1.15-.15v5.27c0,.43.02.75.07.97.05.22.16.36.32.44.17.08.42.14.76.19l.26.03v.37l-1.98-.05-1.98.05ZM401.86,503.17c-.28,0-.5-.1-.66-.29-.16-.19-.24-.42-.24-.69s.08-.51.24-.7c.16-.19.38-.28.66-.28.31,0,.54.09.68.28s.22.42.22.7-.07.5-.22.69c-.15.19-.37.29-.68.29Z"/>
      <path d="M404.76,512.14v-.37l.26-.03c.35-.04.61-.1.77-.19.16-.08.27-.23.31-.44.05-.21.07-.54.07-.97v-3.4c0-.48-.1-.82-.29-1.02s-.53-.29-1.02-.29h-.11v-.37c.56,0,1.03-.01,1.42-.04.39-.03.76-.08,1.13-.15v5.27c0,.43.02.75.07.97.05.22.16.36.32.44.17.08.42.14.76.19l.26.03v.37l-1.98-.05-1.98.05ZM409.76,512.14v-.37l.26-.03c.35-.04.61-.1.77-.19s.27-.23.31-.44c.05-.21.07-.54.07-.97v-3.22c0-.52-.14-.92-.41-1.22s-.65-.44-1.12-.44c-.53,0-1.01.17-1.45.5s-.75.76-.93,1.29l-.03-.74c.31-.48.71-.86,1.18-1.13.48-.27,1.01-.4,1.59-.4.71,0,1.27.19,1.68.57.41.38.62.91.62,1.57v3.22c0,.43.02.75.07.97.05.22.16.36.32.44.17.08.42.14.77.19l.26.03v.37l-1.98-.05-1.98.05Z"/>
      <path d="M367.62,531.47v-.4l.32-.03c.42-.05.73-.12.92-.21.19-.09.32-.25.38-.48s.09-.59.09-1.06v-7.15c0-.48-.03-.84-.09-1.07s-.19-.39-.38-.48c-.19-.09-.5-.16-.92-.2l-.32-.03v-.4l2.4.05,2.38-.05v.4l-.32.03c-.41.04-.71.11-.91.2-.2.09-.33.25-.39.48-.06.23-.09.59-.09,1.07v7.15c0,.47.03.83.09,1.06.06.24.19.4.39.48.2.09.5.16.91.21l.32.03v.4l-2.38-.05-2.4.05ZM370.16,525.77v-.52h7.12v.52h-7.12ZM375.13,531.47v-.4l.32-.03c.42-.05.72-.12.92-.21.19-.09.32-.25.38-.48s.09-.59.09-1.06v-7.15c0-.48-.03-.84-.09-1.07s-.19-.39-.38-.48c-.19-.09-.5-.16-.92-.2l-.32-.03v-.4l2.4.05,2.38-.05v.4l-.32.03c-.41.04-.71.11-.91.2-.2.09-.33.25-.39.48s-.09.59-.09,1.07v7.15c0,.47.03.83.09,1.06s.19.4.39.48.5.16.91.21l.32.03v.4l-2.38-.05-2.4.05Z"/>
      <path d="M383.18,531.6c-.55,0-.99-.13-1.32-.4-.33-.27-.5-.62-.5-1.05,0-.41.17-.8.5-1.17.33-.37.86-.75,1.59-1.15.32-.18.68-.36,1.08-.54.4-.18.84-.35,1.32-.52l.02.31c-1.04.43-1.84.9-2.41,1.42-.56.52-.85,1.03-.85,1.53,0,.31.09.55.27.72.18.17.44.26.77.26.3,0,.6-.08.89-.23.3-.16.56-.36.79-.61.23-.25.39-.53.49-.83l.1.53c-.27.54-.65.96-1.14,1.27-.49.31-1.03.47-1.62.47ZM387.08,531.6c-.46,0-.79-.15-.99-.44-.2-.29-.3-.76-.3-1.42v-3.48c0-.63-.12-1.08-.36-1.35s-.65-.4-1.22-.4c-.39,0-.7.05-.93.15-.23.1-.35.23-.35.39,0,.04,0,.09.02.14.02.05.03.1.04.17.05.22.08.37.08.45,0,.17-.07.32-.2.44-.13.12-.31.19-.52.19-.2,0-.37-.07-.5-.22-.13-.14-.19-.33-.19-.56,0-.3.12-.57.36-.8s.57-.41,1-.55c.42-.13.91-.2,1.46-.2.85,0,1.47.2,1.85.6.39.4.58,1.05.58,1.94v2.9c0,.55.04.93.13,1.15.09.22.23.33.43.33.15,0,.29-.05.41-.15.12-.1.21-.24.27-.41l.29.11c-.19.68-.65,1.02-1.37,1.02Z"/>
      <path d="M388.9,531.47v-.37l.26-.03c.35-.04.61-.1.77-.19.16-.08.27-.23.31-.44.05-.21.07-.54.07-.97v-3.4c0-.48-.1-.82-.29-1.02s-.53-.29-1.02-.29h-.11v-.37c.56,0,1.03-.01,1.42-.04.39-.03.76-.08,1.13-.15v5.27c0,.43.02.75.07.97.05.22.16.36.32.44.17.08.42.14.76.19l.26.03v.37l-1.98-.05-1.98.05ZM393.89,531.47v-.37l.26-.03c.35-.04.61-.1.77-.19s.27-.23.31-.44c.05-.21.07-.54.07-.97v-3.22c0-.52-.14-.92-.41-1.22s-.65-.44-1.12-.44c-.53,0-1.01.17-1.45.5s-.75.76-.93,1.29l-.03-.74c.31-.48.71-.86,1.18-1.13.48-.27,1.01-.4,1.59-.4.71,0,1.27.19,1.68.57.41.38.62.91.62,1.57v3.22c0,.43.02.75.07.97.05.22.16.36.32.44.17.08.42.14.77.19l.26.03v.37l-1.98-.05-1.98.05Z"/>
      <path d="M402.03,531.6c-.61,0-1.17-.17-1.66-.5-.49-.33-.89-.78-1.18-1.35s-.44-1.2-.44-1.9.15-1.33.44-1.89.68-1.01,1.18-1.35c.5-.33,1.06-.5,1.67-.5.48,0,.95.11,1.39.33.45.22.81.52,1.09.89l-.15.55c-.17-.37-.46-.67-.88-.92-.41-.25-.84-.37-1.28-.37-.68,0-1.21.29-1.59.86s-.58,1.37-.58,2.39.19,1.81.58,2.39c.39.59.92.88,1.61.88.4,0,.78-.1,1.14-.31.36-.2.69-.5.99-.89l.23.27c-.33.45-.72.8-1.15,1.04-.43.24-.9.36-1.41.36ZM404.62,531.55l-.23-1.26-.13-.21v-8.43c0-.48-.1-.82-.29-1.02-.19-.19-.53-.29-1.02-.29h-.11v-.37c.54,0,1-.01,1.39-.04.39-.03.78-.08,1.15-.15v9.88c0,.53.1.89.29,1.09.19.2.54.3,1.05.3v.37h-.66c-.3,0-.56,0-.76.02-.21.02-.44.05-.68.1Z"/>
    </g>
    <g>
      <path class="st44" d="M440.54,567.95l-1.19.72-.17-.06c.62-3.03,1.62-5.58,3.03-7.66,1.4-2.08,2.74-3.12,4.02-3.12.53,0,.95.16,1.26.49.31.33.46.76.46,1.31,0,.29-.1.74-.3,1.33-.2.59-.54,1.42-1,2.49l-5.21,11.8s-.04.09-.08.2c-.28.65-.43,1.08-.43,1.28,0,.15.02.26.06.34.04.08.09.11.17.11.49,0,1.89-1.04,4.19-3.11s4.82-4.65,7.58-7.73l2.01-4.19,1.19.13-7.62,17.52c-.78,1.79-1.52,3.21-2.24,4.26-.72,1.05-1.3,1.57-1.73,1.57-.16,0-.28-.04-.37-.13s-.13-.21-.13-.37c0-.09.39-.72,1.18-1.88s1.48-2.41,2.06-3.75l4.54-10.34c-3.19,3.36-5.63,5.75-7.33,7.16-1.7,1.42-2.96,2.13-3.77,2.13-.38,0-.67-.11-.87-.32-.2-.21-.3-.52-.3-.93,0-.2.05-.45.14-.74s.3-.83.62-1.58l5.25-12.02c.06-.13.14-.32.24-.55.6-1.36.89-2.18.89-2.44s-.07-.47-.21-.61-.35-.21-.62-.21c-.69,0-1.61.89-2.74,2.67-1.14,1.78-2,3.86-2.57,6.22Z"/>
      <path class="st44" d="M463.22,573.21v1.16c-2.14,1.7-3.68,2.8-4.64,3.31-.96.5-1.84.75-2.65.75-.95,0-1.68-.28-2.19-.84-.52-.56-.77-1.36-.77-2.4,0-.82.19-1.64.57-2.44.38-.8.95-1.58,1.7-2.33.83-.82,1.67-1.46,2.52-1.92.85-.46,1.61-.69,2.31-.69.59,0,1.04.14,1.37.42.33.28.49.67.49,1.17,0,1.31-.67,2.47-2.01,3.5-1.34,1.03-2.95,1.54-4.85,1.54-.21,0-.36,0-.46,0-.1,0-.2-.01-.29-.02-.05.15-.08.29-.1.43s-.03.27-.03.41c0,.7.16,1.23.48,1.59.32.36.79.54,1.42.54.71,0,1.51-.24,2.41-.73s2.47-1.63,4.72-3.43ZM454.49,573.38c.15.02.3.03.45.04.15,0,.31.01.47.01,1.31,0,2.52-.44,3.63-1.31,1.11-.87,1.66-1.73,1.66-2.57,0-.23-.08-.41-.23-.54-.16-.13-.37-.2-.63-.2-.76,0-1.67.43-2.73,1.31-1.06.87-1.94,1.96-2.62,3.26Z"/>
      <path class="st44" d="M470.29,576.09c-.04.09-.07.18-.1.27-.03.09-.04.15-.04.18,0,.07.02.13.06.18.04.06.08.08.13.08.15,0,.67-.32,1.57-.96s2.04-1.52,3.45-2.65v1.16l-.36.27c-3.33,2.58-5.32,3.87-5.99,3.87-.14,0-.27-.06-.38-.19-.11-.13-.17-.29-.17-.48,0-.09.03-.25.1-.45.07-.21.16-.45.28-.74l.94-2.11c-.95,1.41-1.77,2.41-2.48,3-.7.59-1.4.89-2.09.89s-1.31-.3-1.76-.91c-.45-.61-.68-1.39-.68-2.37,0-.72.14-1.4.41-2.05.27-.65.69-1.28,1.25-1.91.95-1.03,2.07-1.85,3.36-2.47,1.3-.61,2.55-.92,3.76-.92.5,0,.95.05,1.33.15.39.1.77.26,1.13.49l-.06,1.11c-.4-.26-.79-.46-1.18-.58-.39-.12-.81-.18-1.26-.18-1.06,0-2.17.27-3.33.82-1.16.55-2.11,1.24-2.84,2.09-.46.54-.82,1.1-1.07,1.7s-.38,1.17-.38,1.74c0,.66.14,1.18.42,1.57.28.38.65.57,1.11.57.58,0,1.31-.48,2.19-1.43.88-.95,2.3-2.87,4.26-5.73l1.14.11-2.74,5.87Z"/>
      <path class="st44" d="M480.35,576.07c-.04.09-.07.19-.1.28-.03.09-.04.16-.04.18,0,.07.02.13.05.18.03.05.07.08.12.09.15,0,.66-.31,1.53-.94.87-.63,2.02-1.52,3.46-2.66v1.16l-.67.51c-3.12,2.42-5.01,3.63-5.66,3.63-.16,0-.29-.08-.4-.23-.1-.15-.16-.35-.16-.58,0-.1.03-.25.08-.43.06-.18.14-.39.24-.62l2.44-5.43c.08-.17.18-.4.31-.68.26-.54.38-.86.38-.96,0-.25-.42-.4-1.23-.47-.41-.03-.73-.06-.98-.08-.58,1.15-1.27,2.2-2.06,3.14-.8.94-1.72,1.78-2.76,2.52v-1.16c.8-.57,1.54-1.27,2.22-2.1.68-.83,1.25-1.74,1.71-2.72-.19-.11-.32-.24-.4-.39-.08-.15-.12-.33-.12-.56,0-.37.09-.67.28-.9.19-.23.43-.35.72-.35.25,0,.45.09.61.26.16.17.24.38.24.64,0,.12,0,.24-.03.34s-.05.21-.08.33c.24,0,.48,0,.72-.01.08,0,.12-.01.14-.01.79,0,1.36.11,1.7.32.34.21.51.56.51,1.04,0,.17-.04.38-.13.64s-.28.73-.6,1.43l-2.07,4.61Z"/>
      <path class="st44" d="M495.4,573.24v1.19c-1.69,1.31-2.97,2.18-3.84,2.6-.87.42-1.72.65-2.54.7-.55.26-.99.44-1.33.54-.34.1-.64.16-.91.16-.5,0-.94-.11-1.32-.33s-.57-.48-.57-.76c0-.11.05-.2.16-.25.11-.05.29-.08.53-.08.12,0,.37.02.74.06.37.04.68.06.92.06.17,0,.51-.03,1.01-.09.11,0,.2-.02.27-.03.68-.79,1.19-1.8,1.52-3.02.33-1.22.5-2.73.51-4.53-1.19,1.31-2.26,2.41-3.21,3.3s-1.75,1.52-2.4,1.92v-1.16c1.13-.86,2.19-1.8,3.21-2.83,1.01-1.03,1.94-2.11,2.78-3.24.17-.8.37-1.39.61-1.75.24-.36.52-.55.87-.55.19,0,.35.08.5.23s.21.33.21.54c0,.29-.13.64-.38,1.04s-.61.81-1.08,1.25v1.08c0,1.75-.16,3.31-.48,4.69-.32,1.38-.73,2.31-1.23,2.82.55-.14,1.19-.44,1.92-.9.73-.46,1.91-1.34,3.54-2.65Z"/>
    </g>
    <g>
      <path class="st44" d="M80.04,328.33l-1.25.72-.11-.08c.71-3.22,1.73-5.81,3.06-7.79s2.7-2.97,4.09-2.97c.53,0,.98.18,1.34.54.36.36.55.81.55,1.35,0,.38-.1.86-.3,1.43-.2.58-.64,1.59-1.33,3.05l-5.79,12.34,13.28-14.38.99.24-5.29,11.33c-.03.07-.08.18-.16.34-.47,1.02-.71,1.75-.71,2.18,0,.36.1.62.29.79.19.17.5.25.93.25,1.07,0,2.4-.78,3.99-2.35,1.59-1.57,3.11-3.63,4.55-6.19,1.05-1.85,1.88-3.62,2.5-5.31.61-1.68.95-3.1,1.02-4.24l1.09-.55c.02.07.03.13.04.2s0,.17,0,.33c0,1.16-.31,2.62-.94,4.36-.62,1.74-1.53,3.71-2.72,5.88-1.53,2.78-3.17,4.98-4.92,6.59-1.75,1.61-3.34,2.42-4.79,2.42-.73,0-1.31-.18-1.74-.55-.43-.36-.65-.86-.65-1.48,0-.27.08-.63.23-1.08.15-.44.47-1.18.96-2.2l3.57-7.53-9.53,10.46c-.1.11-.26.28-.45.51-1.17,1.31-1.99,1.96-2.45,1.96-.26,0-.45-.08-.58-.23s-.2-.37-.2-.67c0-.19.06-.44.17-.77.11-.32.33-.8.64-1.45l5.72-12.2.17-.35c.73-1.52,1.09-2.5,1.09-2.92,0-.28-.08-.51-.24-.68-.16-.17-.37-.26-.64-.26-.78,0-1.74.87-2.88,2.62-1.14,1.75-2.01,3.86-2.61,6.33Z"/>
      <path class="st44" d="M108.71,333.59v1.16c-2.14,1.7-3.68,2.8-4.64,3.31s-1.84.75-2.65.75c-.95,0-1.68-.28-2.19-.84-.52-.56-.77-1.36-.77-2.4,0-.82.19-1.64.57-2.44s.95-1.58,1.7-2.33c.83-.82,1.67-1.46,2.52-1.92.85-.46,1.61-.69,2.31-.69.59,0,1.04.14,1.37.42.33.28.49.67.49,1.17,0,1.31-.67,2.47-2.01,3.5-1.34,1.03-2.95,1.54-4.85,1.54-.21,0-.36,0-.46,0-.1,0-.2-.01-.29-.02-.05.15-.08.29-.1.43-.02.13-.03.27-.03.41,0,.7.16,1.23.48,1.59.32.36.79.54,1.42.54.71,0,1.51-.24,2.41-.73s2.47-1.63,4.72-3.43ZM99.97,333.76c.15.02.3.03.45.04.15,0,.31.01.47.01,1.31,0,2.52-.44,3.63-1.31,1.11-.87,1.66-1.73,1.66-2.57,0-.23-.08-.41-.23-.54-.16-.13-.37-.2-.63-.2-.76,0-1.67.44-2.73,1.31-1.06.87-1.94,1.96-2.62,3.26Z"/>
      <path class="st44" d="M129.68,333.38c-.88,1.75-1.95,3.09-3.21,4.03-1.26.94-2.61,1.4-4.05,1.4-1.62,0-2.95-.53-3.99-1.6-1.05-1.06-1.57-2.44-1.57-4.12s.44-3.45,1.33-5.32,2.12-3.62,3.7-5.23c1.33-1.35,2.67-2.41,4.01-3.16,1.34-.76,2.54-1.13,3.6-1.13s1.88.28,2.5.85.93,1.33.93,2.3c0,1.75-.84,3.48-2.51,5.19-1.67,1.71-3.81,2.94-6.41,3.7l.47-1.31c2.11-.74,3.85-1.84,5.21-3.31,1.37-1.47,2.05-2.92,2.05-4.33,0-.61-.21-1.09-.62-1.47-.41-.37-.95-.56-1.62-.56-.74,0-1.61.28-2.6.84-1,.56-2.07,1.36-3.23,2.41-1.66,1.51-3,3.2-3.99,5.06-1,1.86-1.5,3.55-1.5,5.05s.39,2.66,1.17,3.54c.78.87,1.82,1.31,3.13,1.31s2.39-.39,3.45-1.16c1.06-.77,1.99-1.9,2.79-3.4l.96.43Z"/>
      <path class="st44" d="M139.61,333.59v1.16c-2.14,1.7-3.68,2.8-4.64,3.31s-1.84.75-2.65.75c-.95,0-1.68-.28-2.19-.84-.52-.56-.77-1.36-.77-2.4,0-.82.19-1.64.57-2.44s.95-1.58,1.7-2.33c.83-.82,1.67-1.46,2.52-1.92.85-.46,1.61-.69,2.31-.69.59,0,1.04.14,1.37.42.33.28.49.67.49,1.17,0,1.31-.67,2.47-2.01,3.5-1.34,1.03-2.95,1.54-4.85,1.54-.21,0-.36,0-.46,0-.1,0-.2-.01-.29-.02-.05.15-.08.29-.1.43-.02.13-.03.27-.03.41,0,.7.16,1.23.48,1.59.32.36.79.54,1.42.54.71,0,1.51-.24,2.41-.73s2.47-1.63,4.72-3.43ZM130.87,333.76c.15.02.3.03.45.04.15,0,.31.01.47.01,1.31,0,2.52-.44,3.63-1.31,1.11-.87,1.66-1.73,1.66-2.57,0-.23-.08-.41-.23-.54-.16-.13-.37-.2-.63-.2-.76,0-1.67.44-2.73,1.31-1.06.87-1.94,1.96-2.62,3.26Z"/>
      <path class="st44" d="M146.64,333.59v1.16c-.29.23-.71.55-1.26.98-2.65,2.05-4.23,3.08-4.74,3.08-.26,0-.46-.07-.6-.2s-.2-.34-.2-.61c0-.18.04-.4.11-.67s.21-.68.42-1.24l.99-2.71c-.36.32-.72.62-1.08.9-.36.28-.73.54-1.11.79v-1.16c.78-.58,1.45-1.15,2.04-1.73.58-.58.91-.97.99-1.18l4.3-11.76c.25-.69.45-1.14.61-1.36s.35-.33.55-.33c.15,0,.28.07.39.2.11.13.16.29.16.47,0,.27-.11.77-.33,1.53-.22.75-.52,1.63-.89,2.63-.4,1.04-.84,2.11-1.33,3.21-.49,1.1-.76,1.7-.79,1.8l-3.25,9.09c-.05.12-.08.23-.11.32-.02.09-.04.14-.04.16,0,.06.02.11.06.16.04.05.08.08.11.08.15,0,.66-.31,1.53-.94.87-.63,2.02-1.52,3.46-2.66Z"/>
      <path class="st44" d="M156.09,333.59v1.16c-2.14,1.7-3.68,2.8-4.64,3.31s-1.84.75-2.65.75c-.95,0-1.68-.28-2.19-.84-.52-.56-.77-1.36-.77-2.4,0-.82.19-1.64.57-2.44s.95-1.58,1.7-2.33c.83-.82,1.67-1.46,2.52-1.92.85-.46,1.61-.69,2.31-.69.59,0,1.04.14,1.37.42.33.28.49.67.49,1.17,0,1.31-.67,2.47-2.01,3.5-1.34,1.03-2.95,1.54-4.85,1.54-.21,0-.36,0-.46,0-.1,0-.2-.01-.29-.02-.05.15-.08.29-.1.43-.02.13-.03.27-.03.41,0,.7.16,1.23.48,1.59.32.36.79.54,1.42.54.71,0,1.51-.24,2.41-.73s2.47-1.63,4.72-3.43ZM147.35,333.76c.15.02.3.03.45.04.15,0,.31.01.47.01,1.31,0,2.52-.44,3.63-1.31,1.11-.87,1.66-1.73,1.66-2.57,0-.23-.08-.41-.23-.54-.16-.13-.37-.2-.63-.2-.76,0-1.67.44-2.73,1.31-1.06.87-1.94,1.96-2.62,3.26Z"/>
      <path class="st44" d="M157.58,333.56c-.39.36-.74.66-1.04.9-.31.24-.6.44-.87.6v-1.16c.76-.57,1.42-1.14,2-1.7s.92-.97,1.02-1.21l4.74-11.5c.25-.61.5-1.08.76-1.43s.5-.52.72-.52c.09,0,.18.06.25.18.07.12.11.27.11.45,0,.44-.51,1.79-1.53,4.02-1.02,2.24-1.83,4.07-2.43,5.51l-2.89,6.98c-.19.44-.33.85-.43,1.21s-.15.67-.15.93c0,.24.09.44.27.62.18.18.4.26.65.26.41,0,.88-.17,1.43-.52.55-.35,1.19-.86,1.92-1.55-.19-.32-.33-.65-.42-.99-.09-.34-.14-.7-.14-1.09,0-1.28.36-2.49,1.08-3.65.72-1.15,1.42-1.73,2.11-1.73.3,0,.56.15.77.45.21.3.31.69.31,1.16,0,.7-.2,1.55-.59,2.54-.39.99-.93,1.97-1.62,2.92h.06c.32,0,.71-.13,1.17-.38.46-.25,1.14-.72,2.04-1.41v1.15c-.81.63-1.47,1.07-1.97,1.32-.5.25-.97.37-1.4.37-.08,0-.22,0-.43-.03-.11,0-.2-.02-.27-.03-.73.84-1.45,1.48-2.17,1.91-.72.43-1.41.65-2.07.65-.61,0-1.08-.16-1.41-.48-.34-.32-.5-.77-.5-1.35,0-.43.08-.93.23-1.49.16-.56.39-1.2.72-1.93ZM162.76,334.72c.6-.89,1.07-1.76,1.42-2.6.35-.85.52-1.51.52-1.99,0-.23-.03-.41-.09-.56-.06-.15-.12-.22-.2-.22-.22,0-.57.48-1.05,1.43-.48.96-.72,1.85-.72,2.7,0,.22.03.57.08,1.06,0,.08.02.14.03.18Z"/>
      <path class="st44" d="M171.74,336.45c-.04.09-.07.19-.1.28-.03.09-.04.16-.04.18,0,.07.02.13.05.18.03.05.07.08.12.09.15,0,.66-.31,1.53-.94.87-.63,2.02-1.52,3.46-2.66v1.16l-.67.51c-3.12,2.42-5.01,3.63-5.66,3.63-.16,0-.29-.08-.4-.23-.1-.15-.16-.35-.16-.58,0-.1.03-.25.08-.43.06-.18.14-.39.24-.62l2.44-5.43c.08-.17.18-.4.31-.68.26-.54.38-.86.38-.96,0-.25-.42-.4-1.23-.47-.41-.03-.73-.06-.98-.09-.58,1.15-1.27,2.2-2.06,3.14-.8.94-1.72,1.78-2.76,2.53v-1.16c.8-.57,1.54-1.27,2.22-2.1.68-.83,1.25-1.74,1.71-2.72-.19-.11-.32-.24-.4-.39-.08-.15-.12-.33-.12-.56,0-.37.09-.67.28-.9.19-.23.43-.35.72-.35.25,0,.45.08.61.26.16.17.24.38.24.64,0,.12,0,.24-.03.34-.02.1-.05.21-.08.33.24,0,.48,0,.72-.01.08,0,.12-.01.14-.01.79,0,1.36.11,1.7.32.34.21.51.56.51,1.04,0,.17-.04.38-.13.64s-.28.73-.6,1.43l-2.07,4.61Z"/>
      <path class="st44" d="M183.83,336.47c-.04.09-.07.18-.1.27-.03.09-.04.15-.04.18,0,.07.02.13.06.18.04.06.08.09.13.09.15,0,.67-.32,1.57-.96.89-.64,2.04-1.52,3.45-2.65v1.16l-.36.27c-3.33,2.58-5.32,3.87-5.99,3.87-.14,0-.27-.06-.38-.19-.11-.13-.17-.29-.17-.48,0-.09.03-.25.1-.45.07-.21.16-.45.28-.74l.94-2.11c-.95,1.41-1.77,2.41-2.48,3-.7.59-1.4.89-2.09.89s-1.31-.3-1.76-.91c-.45-.61-.68-1.39-.68-2.37,0-.72.14-1.4.41-2.05.27-.65.69-1.28,1.25-1.91.95-1.03,2.07-1.85,3.36-2.47,1.3-.61,2.55-.92,3.76-.92.5,0,.95.05,1.33.15.39.1.77.26,1.13.49l-.06,1.11c-.4-.26-.79-.46-1.18-.58s-.81-.18-1.26-.18c-1.06,0-2.17.27-3.33.82-1.16.55-2.11,1.24-2.84,2.09-.46.54-.82,1.1-1.07,1.7s-.38,1.17-.38,1.74c0,.66.14,1.18.42,1.57.28.38.65.57,1.11.57.58,0,1.31-.48,2.19-1.43.88-.96,2.3-2.87,4.26-5.73l1.14.11-2.74,5.87Z"/>
      <path class="st44" d="M189.73,335.97l1.22-2.91c-.49.46-.94.86-1.35,1.18s-.79.6-1.15.82v-1.16c.91-.7,1.7-1.36,2.36-1.96.67-.61,1.02-.98,1.07-1.11l1.72-4.27h-2.68l.47-.92h2.61l1.69-4.13c.03-.07.07-.16.11-.28.45-1.15.85-1.73,1.19-1.73.16,0,.29.04.38.13.09.09.14.2.14.33,0,.14-.04.35-.13.61-.09.26-.22.6-.4.99l-1.72,4.07h2.13l-.35.92h-2.14l-3.76,9.16c-.03.08-.08.19-.14.34-.21.47-.31.79-.31.95s.04.28.11.35.19.11.36.11c.3,0,1.69-.94,4.17-2.81.62-.47,1.11-.84,1.46-1.11v1.19h-.01c-3.57,2.71-5.79,4.06-6.64,4.06-.35,0-.61-.08-.77-.24-.17-.16-.25-.41-.25-.74,0-.29.13-.75.4-1.36.09-.22.17-.38.21-.5Z"/>
      <path class="st44" d="M206.17,333.59v1.16c-2.14,1.7-3.68,2.8-4.64,3.31s-1.84.75-2.65.75c-.95,0-1.68-.28-2.19-.84-.52-.56-.77-1.36-.77-2.4,0-.82.19-1.64.57-2.44s.95-1.58,1.7-2.33c.83-.82,1.67-1.46,2.52-1.92.85-.46,1.61-.69,2.31-.69.59,0,1.04.14,1.37.42.33.28.49.67.49,1.17,0,1.31-.67,2.47-2.01,3.5-1.34,1.03-2.95,1.54-4.85,1.54-.21,0-.36,0-.46,0-.1,0-.2-.01-.29-.02-.05.15-.08.29-.1.43-.02.13-.03.27-.03.41,0,.7.16,1.23.48,1.59.32.36.79.54,1.42.54.71,0,1.51-.24,2.41-.73s2.47-1.63,4.72-3.43ZM197.43,333.76c.15.02.3.03.45.04.15,0,.31.01.47.01,1.31,0,2.52-.44,3.63-1.31,1.11-.87,1.66-1.73,1.66-2.57,0-.23-.08-.41-.23-.54-.16-.13-.37-.2-.63-.2-.76,0-1.67.44-2.73,1.31-1.06.87-1.94,1.96-2.62,3.26Z"/>
    </g>
  </g>
</svg>